G04 #@! TF.GenerationSoftware,KiCad,Pcbnew,5.1.6-c6e7f7d~86~ubuntu18.04.1*
G04 #@! TF.CreationDate,2020-05-28T18:44:08+01:00*
G04 #@! TF.ProjectId,multi-smtpa,6d756c74-692d-4736-9d74-70612e6b6963,rev?*
G04 #@! TF.SameCoordinates,Original*
G04 #@! TF.FileFunction,Legend,Bot*
G04 #@! TF.FilePolarity,Positive*
%FSLAX46Y46*%
G04 Gerber Fmt 4.6, Leading zero omitted, Abs format (unit mm)*
G04 Created by KiCad (PCBNEW 5.1.6-c6e7f7d~86~ubuntu18.04.1) date 2020-05-28 18:44:08*
%MOMM*%
%LPD*%
G01*
G04 APERTURE LIST*
%ADD10C,0.200000*%
%ADD11C,0.120000*%
%ADD12C,0.150000*%
G04 APERTURE END LIST*
D10*
X171200000Y-81600000D02*
G75*
G03*
X171200000Y-81600000I-100000J0D01*
G01*
D11*
X188500000Y-71500000D02*
X193500000Y-66500000D01*
D12*
X181750000Y-71500000D02*
X188500000Y-71500000D01*
D11*
X180000000Y-73250000D02*
X153750000Y-73250000D01*
X181750000Y-71500000D02*
X180000000Y-73250000D01*
X153750000Y-73250000D02*
X153750000Y-79500000D01*
D12*
X171928571Y-116404761D02*
X171547619Y-116404761D01*
X171357142Y-116500000D01*
X171166666Y-116690476D01*
X171071428Y-117071428D01*
X171071428Y-117738095D01*
X171166666Y-118119047D01*
X171357142Y-118309523D01*
X171547619Y-118404761D01*
X171928571Y-118404761D01*
X172119047Y-118309523D01*
X172309523Y-118119047D01*
X172404761Y-117738095D01*
X172404761Y-117071428D01*
X172309523Y-116690476D01*
X172119047Y-116500000D01*
X171928571Y-116404761D01*
X170404761Y-118404761D02*
X169357142Y-117071428D01*
X170404761Y-117071428D02*
X169357142Y-118404761D01*
X168880952Y-117071428D02*
X168119047Y-117071428D01*
X168595238Y-118404761D02*
X168595238Y-116690476D01*
X168500000Y-116500000D01*
X168309523Y-116404761D01*
X168119047Y-116404761D01*
X167166666Y-118404761D02*
X167357142Y-118309523D01*
X167452380Y-118214285D01*
X167547619Y-118023809D01*
X167547619Y-117452380D01*
X167452380Y-117261904D01*
X167357142Y-117166666D01*
X167166666Y-117071428D01*
X166880952Y-117071428D01*
X166690476Y-117166666D01*
X166595238Y-117261904D01*
X166500000Y-117452380D01*
X166500000Y-118023809D01*
X166595238Y-118214285D01*
X166690476Y-118309523D01*
X166880952Y-118404761D01*
X167166666Y-118404761D01*
X165642857Y-118404761D02*
X165642857Y-117071428D01*
X165642857Y-117452380D02*
X165547619Y-117261904D01*
X165452380Y-117166666D01*
X165261904Y-117071428D01*
X165071428Y-117071428D01*
X163547619Y-118404761D02*
X163547619Y-116404761D01*
X163547619Y-118309523D02*
X163738095Y-118404761D01*
X164119047Y-118404761D01*
X164309523Y-118309523D01*
X164404761Y-118214285D01*
X164500000Y-118023809D01*
X164500000Y-117452380D01*
X164404761Y-117261904D01*
X164309523Y-117166666D01*
X164119047Y-117071428D01*
X163738095Y-117071428D01*
X163547619Y-117166666D01*
X161357142Y-116404761D02*
X160690476Y-118404761D01*
X160023809Y-116404761D01*
X158404761Y-118404761D02*
X159357142Y-118404761D01*
X159357142Y-116404761D01*
X156595238Y-118214285D02*
X156690476Y-118309523D01*
X156976190Y-118404761D01*
X157166666Y-118404761D01*
X157452380Y-118309523D01*
X157642857Y-118119047D01*
X157738095Y-117928571D01*
X157833333Y-117547619D01*
X157833333Y-117261904D01*
X157738095Y-116880952D01*
X157642857Y-116690476D01*
X157452380Y-116500000D01*
X157166666Y-116404761D01*
X156976190Y-116404761D01*
X156690476Y-116500000D01*
X156595238Y-116595238D01*
D11*
X106000000Y-63750000D02*
X106500000Y-63750000D01*
D12*
X116690476Y-60785714D02*
X116690476Y-61452380D01*
X116928571Y-60404761D02*
X117166666Y-61119047D01*
X116547619Y-61119047D01*
X116261904Y-61452380D02*
X115738095Y-60785714D01*
X116261904Y-60785714D02*
X115738095Y-61452380D01*
X114595238Y-61452380D02*
X114595238Y-60452380D01*
X114261904Y-61166666D01*
X113928571Y-60452380D01*
X113928571Y-61452380D01*
X113023809Y-60785714D02*
X113023809Y-61452380D01*
X113261904Y-60404761D02*
X113500000Y-61119047D01*
X112880952Y-61119047D01*
X111738095Y-61452380D02*
X111738095Y-60452380D01*
X111738095Y-60928571D02*
X111166666Y-60928571D01*
X111166666Y-61452380D02*
X111166666Y-60452380D01*
X110547619Y-61452380D02*
X110642857Y-61404761D01*
X110690476Y-61357142D01*
X110738095Y-61261904D01*
X110738095Y-60976190D01*
X110690476Y-60880952D01*
X110642857Y-60833333D01*
X110547619Y-60785714D01*
X110404761Y-60785714D01*
X110309523Y-60833333D01*
X110261904Y-60880952D01*
X110214285Y-60976190D01*
X110214285Y-61261904D01*
X110261904Y-61357142D01*
X110309523Y-61404761D01*
X110404761Y-61452380D01*
X110547619Y-61452380D01*
X109642857Y-61452380D02*
X109738095Y-61404761D01*
X109785714Y-61309523D01*
X109785714Y-60452380D01*
X108880952Y-61404761D02*
X108976190Y-61452380D01*
X109166666Y-61452380D01*
X109261904Y-61404761D01*
X109309523Y-61309523D01*
X109309523Y-60928571D01*
X109261904Y-60833333D01*
X109166666Y-60785714D01*
X108976190Y-60785714D01*
X108880952Y-60833333D01*
X108833333Y-60928571D01*
X108833333Y-61023809D01*
X109309523Y-61119047D01*
X116654761Y-62880952D02*
X116750000Y-62833333D01*
X116797619Y-62785714D01*
X116845238Y-62690476D01*
X116845238Y-62642857D01*
X116797619Y-62547619D01*
X116750000Y-62500000D01*
X116654761Y-62452380D01*
X116464285Y-62452380D01*
X116369047Y-62500000D01*
X116321428Y-62547619D01*
X116273809Y-62642857D01*
X116273809Y-62690476D01*
X116321428Y-62785714D01*
X116369047Y-62833333D01*
X116464285Y-62880952D01*
X116654761Y-62880952D01*
X116750000Y-62928571D01*
X116797619Y-62976190D01*
X116845238Y-63071428D01*
X116845238Y-63261904D01*
X116797619Y-63357142D01*
X116750000Y-63404761D01*
X116654761Y-63452380D01*
X116464285Y-63452380D01*
X116369047Y-63404761D01*
X116321428Y-63357142D01*
X116273809Y-63261904D01*
X116273809Y-63071428D01*
X116321428Y-62976190D01*
X116369047Y-62928571D01*
X116464285Y-62880952D01*
X115702380Y-62880952D02*
X115797619Y-62833333D01*
X115845238Y-62785714D01*
X115892857Y-62690476D01*
X115892857Y-62642857D01*
X115845238Y-62547619D01*
X115797619Y-62500000D01*
X115702380Y-62452380D01*
X115511904Y-62452380D01*
X115416666Y-62500000D01*
X115369047Y-62547619D01*
X115321428Y-62642857D01*
X115321428Y-62690476D01*
X115369047Y-62785714D01*
X115416666Y-62833333D01*
X115511904Y-62880952D01*
X115702380Y-62880952D01*
X115797619Y-62928571D01*
X115845238Y-62976190D01*
X115892857Y-63071428D01*
X115892857Y-63261904D01*
X115845238Y-63357142D01*
X115797619Y-63404761D01*
X115702380Y-63452380D01*
X115511904Y-63452380D01*
X115416666Y-63404761D01*
X115369047Y-63357142D01*
X115321428Y-63261904D01*
X115321428Y-63071428D01*
X115369047Y-62976190D01*
X115416666Y-62928571D01*
X115511904Y-62880952D01*
X114892857Y-63452380D02*
X114892857Y-62785714D01*
X114892857Y-62880952D02*
X114845238Y-62833333D01*
X114750000Y-62785714D01*
X114607142Y-62785714D01*
X114511904Y-62833333D01*
X114464285Y-62928571D01*
X114464285Y-63452380D01*
X114464285Y-62928571D02*
X114416666Y-62833333D01*
X114321428Y-62785714D01*
X114178571Y-62785714D01*
X114083333Y-62833333D01*
X114035714Y-62928571D01*
X114035714Y-63452380D01*
X113559523Y-63452380D02*
X113559523Y-62785714D01*
X113559523Y-62880952D02*
X113511904Y-62833333D01*
X113416666Y-62785714D01*
X113273809Y-62785714D01*
X113178571Y-62833333D01*
X113130952Y-62928571D01*
X113130952Y-63452380D01*
X113130952Y-62928571D02*
X113083333Y-62833333D01*
X112988095Y-62785714D01*
X112845238Y-62785714D01*
X112750000Y-62833333D01*
X112702380Y-62928571D01*
X112702380Y-63452380D01*
D11*
X194000000Y-62250000D02*
X194000000Y-65250000D01*
X194000000Y-63750000D02*
X194000000Y-62250000D01*
X106500000Y-63750000D02*
X194000000Y-63750000D01*
X106000000Y-61750000D02*
X106000000Y-65750000D01*
X173750000Y-115500000D02*
X182250000Y-112000000D01*
X173750000Y-115500000D02*
X182250000Y-119000000D01*
X175250000Y-119000000D02*
X183750000Y-115500000D01*
X183750000Y-115500000D02*
X175250000Y-112000000D01*
X178750000Y-110500000D02*
X182250000Y-119000000D01*
X175250000Y-119000000D02*
X178750000Y-110500000D01*
X178750000Y-120500000D02*
X175250000Y-112000000D01*
X178750000Y-120500000D02*
X182250000Y-112000000D01*
X182250000Y-119000000D02*
X178750000Y-120500000D01*
X183750000Y-115500000D02*
X182250000Y-119000000D01*
X182250000Y-112000000D02*
X183750000Y-115500000D01*
X178750000Y-110500000D02*
X182250000Y-112000000D01*
X175250000Y-112000000D02*
X178750000Y-110500000D01*
X175250000Y-112000000D02*
X173750000Y-115500000D01*
X173750000Y-115500000D02*
X175250000Y-119000000D01*
X178750000Y-120500000D02*
X175250000Y-119000000D01*
X175250000Y-119000000D02*
X182250000Y-119000000D01*
X175250000Y-119000000D02*
X175250000Y-112000000D01*
X182250000Y-112000000D02*
X175250000Y-112000000D01*
X182250000Y-119000000D02*
X182250000Y-112000000D01*
X170200000Y-71500000D02*
G75*
G03*
X170200000Y-71500000I-1200000J0D01*
G01*
X156430000Y-83040000D02*
X156430000Y-83370000D01*
X156430000Y-78630000D02*
X156430000Y-78961000D01*
X156430000Y-80741000D02*
X156430000Y-81260000D01*
X161170000Y-78630000D02*
X161170000Y-79760000D01*
X161170000Y-82240000D02*
X161170000Y-83370000D01*
X156430000Y-78630000D02*
X161170000Y-78630000D01*
X156430000Y-83370000D02*
X161170000Y-83370000D01*
X165440000Y-79000000D02*
X165440000Y-77050000D01*
X165440000Y-79000000D02*
X165440000Y-80950000D01*
X170560000Y-79000000D02*
X170560000Y-77050000D01*
X170560000Y-79000000D02*
X170560000Y-82450000D01*
X167013748Y-84960000D02*
X167536252Y-84960000D01*
X167013748Y-83540000D02*
X167536252Y-83540000D01*
X158738748Y-76910000D02*
X159261252Y-76910000D01*
X158738748Y-75490000D02*
X159261252Y-75490000D01*
X180036252Y-80290000D02*
X179513748Y-80290000D01*
X180036252Y-81710000D02*
X179513748Y-81710000D01*
X181363011Y-76641762D02*
X181120802Y-76399553D01*
X180641762Y-77363011D02*
X180399553Y-77120802D01*
X183510000Y-76171267D02*
X183510000Y-75828733D01*
X182490000Y-76171267D02*
X182490000Y-75828733D01*
X171713748Y-84960000D02*
X172236252Y-84960000D01*
X171713748Y-83540000D02*
X172236252Y-83540000D01*
X180171267Y-78490000D02*
X179828733Y-78490000D01*
X180171267Y-79510000D02*
X179828733Y-79510000D01*
D12*
X170952380Y-70238095D02*
X170952380Y-70809523D01*
X171952380Y-70523809D02*
X170952380Y-70523809D01*
X171952380Y-71142857D02*
X170952380Y-71142857D01*
X170952380Y-71523809D01*
X171000000Y-71619047D01*
X171047619Y-71666666D01*
X171142857Y-71714285D01*
X171285714Y-71714285D01*
X171380952Y-71666666D01*
X171428571Y-71619047D01*
X171476190Y-71523809D01*
X171476190Y-71142857D01*
X170952380Y-72047619D02*
X170952380Y-72714285D01*
X171952380Y-72285714D01*
X170047619Y-56468571D02*
X170380952Y-56468571D01*
X170380952Y-56992380D02*
X170380952Y-55992380D01*
X169904761Y-55992380D01*
X169523809Y-56992380D02*
X169523809Y-55992380D01*
X169047619Y-56992380D02*
X169047619Y-55992380D01*
X168809523Y-55992380D01*
X168666666Y-56040000D01*
X168571428Y-56135238D01*
X168523809Y-56230476D01*
X168476190Y-56420952D01*
X168476190Y-56563809D01*
X168523809Y-56754285D01*
X168571428Y-56849523D01*
X168666666Y-56944761D01*
X168809523Y-56992380D01*
X169047619Y-56992380D01*
X167523809Y-56992380D02*
X168095238Y-56992380D01*
X167809523Y-56992380D02*
X167809523Y-55992380D01*
X167904761Y-56135238D01*
X168000000Y-56230476D01*
X168095238Y-56278095D01*
X167142857Y-56087619D02*
X167095238Y-56040000D01*
X167000000Y-55992380D01*
X166761904Y-55992380D01*
X166666666Y-56040000D01*
X166619047Y-56087619D01*
X166571428Y-56182857D01*
X166571428Y-56278095D01*
X166619047Y-56420952D01*
X167190476Y-56992380D01*
X166571428Y-56992380D01*
X158547619Y-148468571D02*
X158880952Y-148468571D01*
X158880952Y-148992380D02*
X158880952Y-147992380D01*
X158404761Y-147992380D01*
X158023809Y-148992380D02*
X158023809Y-147992380D01*
X157547619Y-148992380D02*
X157547619Y-147992380D01*
X157309523Y-147992380D01*
X157166666Y-148040000D01*
X157071428Y-148135238D01*
X157023809Y-148230476D01*
X156976190Y-148420952D01*
X156976190Y-148563809D01*
X157023809Y-148754285D01*
X157071428Y-148849523D01*
X157166666Y-148944761D01*
X157309523Y-148992380D01*
X157547619Y-148992380D01*
X156023809Y-148992380D02*
X156595238Y-148992380D01*
X156309523Y-148992380D02*
X156309523Y-147992380D01*
X156404761Y-148135238D01*
X156500000Y-148230476D01*
X156595238Y-148278095D01*
X155071428Y-148992380D02*
X155642857Y-148992380D01*
X155357142Y-148992380D02*
X155357142Y-147992380D01*
X155452380Y-148135238D01*
X155547619Y-148230476D01*
X155642857Y-148278095D01*
X189547619Y-93968571D02*
X189880952Y-93968571D01*
X189880952Y-94492380D02*
X189880952Y-93492380D01*
X189404761Y-93492380D01*
X189023809Y-94492380D02*
X189023809Y-93492380D01*
X188547619Y-94492380D02*
X188547619Y-93492380D01*
X188309523Y-93492380D01*
X188166666Y-93540000D01*
X188071428Y-93635238D01*
X188023809Y-93730476D01*
X187976190Y-93920952D01*
X187976190Y-94063809D01*
X188023809Y-94254285D01*
X188071428Y-94349523D01*
X188166666Y-94444761D01*
X188309523Y-94492380D01*
X188547619Y-94492380D01*
X187023809Y-94492380D02*
X187595238Y-94492380D01*
X187309523Y-94492380D02*
X187309523Y-93492380D01*
X187404761Y-93635238D01*
X187500000Y-93730476D01*
X187595238Y-93778095D01*
X186404761Y-93492380D02*
X186309523Y-93492380D01*
X186214285Y-93540000D01*
X186166666Y-93587619D01*
X186119047Y-93682857D01*
X186071428Y-93873333D01*
X186071428Y-94111428D01*
X186119047Y-94301904D01*
X186166666Y-94397142D01*
X186214285Y-94444761D01*
X186309523Y-94492380D01*
X186404761Y-94492380D01*
X186500000Y-94444761D01*
X186547619Y-94397142D01*
X186595238Y-94301904D01*
X186642857Y-94111428D01*
X186642857Y-93873333D01*
X186595238Y-93682857D01*
X186547619Y-93587619D01*
X186500000Y-93540000D01*
X186404761Y-93492380D01*
X145071428Y-111968571D02*
X145404761Y-111968571D01*
X145404761Y-112492380D02*
X145404761Y-111492380D01*
X144928571Y-111492380D01*
X144547619Y-112492380D02*
X144547619Y-111492380D01*
X144071428Y-112492380D02*
X144071428Y-111492380D01*
X143833333Y-111492380D01*
X143690476Y-111540000D01*
X143595238Y-111635238D01*
X143547619Y-111730476D01*
X143500000Y-111920952D01*
X143500000Y-112063809D01*
X143547619Y-112254285D01*
X143595238Y-112349523D01*
X143690476Y-112444761D01*
X143833333Y-112492380D01*
X144071428Y-112492380D01*
X143023809Y-112492380D02*
X142833333Y-112492380D01*
X142738095Y-112444761D01*
X142690476Y-112397142D01*
X142595238Y-112254285D01*
X142547619Y-112063809D01*
X142547619Y-111682857D01*
X142595238Y-111587619D01*
X142642857Y-111540000D01*
X142738095Y-111492380D01*
X142928571Y-111492380D01*
X143023809Y-111540000D01*
X143071428Y-111587619D01*
X143119047Y-111682857D01*
X143119047Y-111920952D01*
X143071428Y-112016190D01*
X143023809Y-112063809D01*
X142928571Y-112111428D01*
X142738095Y-112111428D01*
X142642857Y-112063809D01*
X142595238Y-112016190D01*
X142547619Y-111920952D01*
X112071428Y-113968571D02*
X112404761Y-113968571D01*
X112404761Y-114492380D02*
X112404761Y-113492380D01*
X111928571Y-113492380D01*
X111547619Y-114492380D02*
X111547619Y-113492380D01*
X111071428Y-114492380D02*
X111071428Y-113492380D01*
X110833333Y-113492380D01*
X110690476Y-113540000D01*
X110595238Y-113635238D01*
X110547619Y-113730476D01*
X110500000Y-113920952D01*
X110500000Y-114063809D01*
X110547619Y-114254285D01*
X110595238Y-114349523D01*
X110690476Y-114444761D01*
X110833333Y-114492380D01*
X111071428Y-114492380D01*
X109928571Y-113920952D02*
X110023809Y-113873333D01*
X110071428Y-113825714D01*
X110119047Y-113730476D01*
X110119047Y-113682857D01*
X110071428Y-113587619D01*
X110023809Y-113540000D01*
X109928571Y-113492380D01*
X109738095Y-113492380D01*
X109642857Y-113540000D01*
X109595238Y-113587619D01*
X109547619Y-113682857D01*
X109547619Y-113730476D01*
X109595238Y-113825714D01*
X109642857Y-113873333D01*
X109738095Y-113920952D01*
X109928571Y-113920952D01*
X110023809Y-113968571D01*
X110071428Y-114016190D01*
X110119047Y-114111428D01*
X110119047Y-114301904D01*
X110071428Y-114397142D01*
X110023809Y-114444761D01*
X109928571Y-114492380D01*
X109738095Y-114492380D01*
X109642857Y-114444761D01*
X109595238Y-114397142D01*
X109547619Y-114301904D01*
X109547619Y-114111428D01*
X109595238Y-114016190D01*
X109642857Y-113968571D01*
X109738095Y-113920952D01*
X105571428Y-70468571D02*
X105904761Y-70468571D01*
X105904761Y-70992380D02*
X105904761Y-69992380D01*
X105428571Y-69992380D01*
X105047619Y-70992380D02*
X105047619Y-69992380D01*
X104571428Y-70992380D02*
X104571428Y-69992380D01*
X104333333Y-69992380D01*
X104190476Y-70040000D01*
X104095238Y-70135238D01*
X104047619Y-70230476D01*
X104000000Y-70420952D01*
X104000000Y-70563809D01*
X104047619Y-70754285D01*
X104095238Y-70849523D01*
X104190476Y-70944761D01*
X104333333Y-70992380D01*
X104571428Y-70992380D01*
X103666666Y-69992380D02*
X103000000Y-69992380D01*
X103428571Y-70992380D01*
X154602380Y-80404761D02*
X154126190Y-80071428D01*
X154602380Y-79833333D02*
X153602380Y-79833333D01*
X153602380Y-80214285D01*
X153650000Y-80309523D01*
X153697619Y-80357142D01*
X153792857Y-80404761D01*
X153935714Y-80404761D01*
X154030952Y-80357142D01*
X154078571Y-80309523D01*
X154126190Y-80214285D01*
X154126190Y-79833333D01*
X153602380Y-80690476D02*
X154602380Y-81023809D01*
X153602380Y-81357142D01*
X154030952Y-81833333D02*
X153983333Y-81738095D01*
X153935714Y-81690476D01*
X153840476Y-81642857D01*
X153792857Y-81642857D01*
X153697619Y-81690476D01*
X153650000Y-81738095D01*
X153602380Y-81833333D01*
X153602380Y-82023809D01*
X153650000Y-82119047D01*
X153697619Y-82166666D01*
X153792857Y-82214285D01*
X153840476Y-82214285D01*
X153935714Y-82166666D01*
X153983333Y-82119047D01*
X154030952Y-82023809D01*
X154030952Y-81833333D01*
X154078571Y-81738095D01*
X154126190Y-81690476D01*
X154221428Y-81642857D01*
X154411904Y-81642857D01*
X154507142Y-81690476D01*
X154554761Y-81738095D01*
X154602380Y-81833333D01*
X154602380Y-82023809D01*
X154554761Y-82119047D01*
X154507142Y-82166666D01*
X154411904Y-82214285D01*
X154221428Y-82214285D01*
X154126190Y-82166666D01*
X154078571Y-82119047D01*
X154030952Y-82023809D01*
X170852380Y-78238095D02*
X171661904Y-78238095D01*
X171757142Y-78285714D01*
X171804761Y-78333333D01*
X171852380Y-78428571D01*
X171852380Y-78619047D01*
X171804761Y-78714285D01*
X171757142Y-78761904D01*
X171661904Y-78809523D01*
X170852380Y-78809523D01*
X171852380Y-79333333D02*
X171852380Y-79523809D01*
X171804761Y-79619047D01*
X171757142Y-79666666D01*
X171614285Y-79761904D01*
X171423809Y-79809523D01*
X171042857Y-79809523D01*
X170947619Y-79761904D01*
X170900000Y-79714285D01*
X170852380Y-79619047D01*
X170852380Y-79428571D01*
X170900000Y-79333333D01*
X170947619Y-79285714D01*
X171042857Y-79238095D01*
X171280952Y-79238095D01*
X171376190Y-79285714D01*
X171423809Y-79333333D01*
X171471428Y-79428571D01*
X171471428Y-79619047D01*
X171423809Y-79714285D01*
X171376190Y-79761904D01*
X171280952Y-79809523D01*
X167917857Y-86352380D02*
X168251190Y-85876190D01*
X168489285Y-86352380D02*
X168489285Y-85352380D01*
X168108333Y-85352380D01*
X168013095Y-85400000D01*
X167965476Y-85447619D01*
X167917857Y-85542857D01*
X167917857Y-85685714D01*
X167965476Y-85780952D01*
X168013095Y-85828571D01*
X168108333Y-85876190D01*
X168489285Y-85876190D01*
X166965476Y-86352380D02*
X167536904Y-86352380D01*
X167251190Y-86352380D02*
X167251190Y-85352380D01*
X167346428Y-85495238D01*
X167441666Y-85590476D01*
X167536904Y-85638095D01*
X166394047Y-85780952D02*
X166489285Y-85733333D01*
X166536904Y-85685714D01*
X166584523Y-85590476D01*
X166584523Y-85542857D01*
X166536904Y-85447619D01*
X166489285Y-85400000D01*
X166394047Y-85352380D01*
X166203571Y-85352380D01*
X166108333Y-85400000D01*
X166060714Y-85447619D01*
X166013095Y-85542857D01*
X166013095Y-85590476D01*
X166060714Y-85685714D01*
X166108333Y-85733333D01*
X166203571Y-85780952D01*
X166394047Y-85780952D01*
X166489285Y-85828571D01*
X166536904Y-85876190D01*
X166584523Y-85971428D01*
X166584523Y-86161904D01*
X166536904Y-86257142D01*
X166489285Y-86304761D01*
X166394047Y-86352380D01*
X166203571Y-86352380D01*
X166108333Y-86304761D01*
X166060714Y-86257142D01*
X166013095Y-86161904D01*
X166013095Y-85971428D01*
X166060714Y-85876190D01*
X166108333Y-85828571D01*
X166203571Y-85780952D01*
X159642857Y-78302380D02*
X159976190Y-77826190D01*
X160214285Y-78302380D02*
X160214285Y-77302380D01*
X159833333Y-77302380D01*
X159738095Y-77350000D01*
X159690476Y-77397619D01*
X159642857Y-77492857D01*
X159642857Y-77635714D01*
X159690476Y-77730952D01*
X159738095Y-77778571D01*
X159833333Y-77826190D01*
X160214285Y-77826190D01*
X158690476Y-78302380D02*
X159261904Y-78302380D01*
X158976190Y-78302380D02*
X158976190Y-77302380D01*
X159071428Y-77445238D01*
X159166666Y-77540476D01*
X159261904Y-77588095D01*
X158357142Y-77302380D02*
X157690476Y-77302380D01*
X158119047Y-78302380D01*
X187507142Y-80457142D02*
X187554761Y-80409523D01*
X187602380Y-80266666D01*
X187602380Y-80171428D01*
X187554761Y-80028571D01*
X187459523Y-79933333D01*
X187364285Y-79885714D01*
X187173809Y-79838095D01*
X187030952Y-79838095D01*
X186840476Y-79885714D01*
X186745238Y-79933333D01*
X186650000Y-80028571D01*
X186602380Y-80171428D01*
X186602380Y-80266666D01*
X186650000Y-80409523D01*
X186697619Y-80457142D01*
X186602380Y-81314285D02*
X186602380Y-81123809D01*
X186650000Y-81028571D01*
X186697619Y-80980952D01*
X186840476Y-80885714D01*
X187030952Y-80838095D01*
X187411904Y-80838095D01*
X187507142Y-80885714D01*
X187554761Y-80933333D01*
X187602380Y-81028571D01*
X187602380Y-81219047D01*
X187554761Y-81314285D01*
X187507142Y-81361904D01*
X187411904Y-81409523D01*
X187173809Y-81409523D01*
X187078571Y-81361904D01*
X187030952Y-81314285D01*
X186983333Y-81219047D01*
X186983333Y-81028571D01*
X187030952Y-80933333D01*
X187078571Y-80885714D01*
X187173809Y-80838095D01*
X186602380Y-82314285D02*
X186602380Y-81838095D01*
X187078571Y-81790476D01*
X187030952Y-81838095D01*
X186983333Y-81933333D01*
X186983333Y-82171428D01*
X187030952Y-82266666D01*
X187078571Y-82314285D01*
X187173809Y-82361904D01*
X187411904Y-82361904D01*
X187507142Y-82314285D01*
X187554761Y-82266666D01*
X187602380Y-82171428D01*
X187602380Y-81933333D01*
X187554761Y-81838095D01*
X187507142Y-81790476D01*
X180417857Y-83107142D02*
X180465476Y-83154761D01*
X180608333Y-83202380D01*
X180703571Y-83202380D01*
X180846428Y-83154761D01*
X180941666Y-83059523D01*
X180989285Y-82964285D01*
X181036904Y-82773809D01*
X181036904Y-82630952D01*
X180989285Y-82440476D01*
X180941666Y-82345238D01*
X180846428Y-82250000D01*
X180703571Y-82202380D01*
X180608333Y-82202380D01*
X180465476Y-82250000D01*
X180417857Y-82297619D01*
X179560714Y-82202380D02*
X179751190Y-82202380D01*
X179846428Y-82250000D01*
X179894047Y-82297619D01*
X179989285Y-82440476D01*
X180036904Y-82630952D01*
X180036904Y-83011904D01*
X179989285Y-83107142D01*
X179941666Y-83154761D01*
X179846428Y-83202380D01*
X179655952Y-83202380D01*
X179560714Y-83154761D01*
X179513095Y-83107142D01*
X179465476Y-83011904D01*
X179465476Y-82773809D01*
X179513095Y-82678571D01*
X179560714Y-82630952D01*
X179655952Y-82583333D01*
X179846428Y-82583333D01*
X179941666Y-82630952D01*
X179989285Y-82678571D01*
X180036904Y-82773809D01*
X178608333Y-82535714D02*
X178608333Y-83202380D01*
X178846428Y-82154761D02*
X179084523Y-82869047D01*
X178465476Y-82869047D01*
X187462030Y-78187106D02*
X187462030Y-78254450D01*
X187529374Y-78389137D01*
X187596717Y-78456480D01*
X187731404Y-78523824D01*
X187866091Y-78523824D01*
X187967106Y-78490152D01*
X188135465Y-78389137D01*
X188236480Y-78288122D01*
X188337496Y-78119763D01*
X188371167Y-78018748D01*
X188371167Y-77884061D01*
X188303824Y-77749374D01*
X188236480Y-77682030D01*
X188101793Y-77614687D01*
X188034450Y-77614687D01*
X187495702Y-76941251D02*
X187630389Y-77075938D01*
X187664061Y-77176954D01*
X187664061Y-77244297D01*
X187630389Y-77412656D01*
X187529374Y-77581015D01*
X187260000Y-77850389D01*
X187158984Y-77884061D01*
X187091641Y-77884061D01*
X186990625Y-77850389D01*
X186855938Y-77715702D01*
X186822267Y-77614687D01*
X186822267Y-77547343D01*
X186855938Y-77446328D01*
X187024297Y-77277969D01*
X187125312Y-77244297D01*
X187192656Y-77244297D01*
X187293671Y-77277969D01*
X187428358Y-77412656D01*
X187462030Y-77513671D01*
X187462030Y-77581015D01*
X187428358Y-77682030D01*
X187192656Y-76638206D02*
X186754923Y-76200473D01*
X186721251Y-76705549D01*
X186620236Y-76604534D01*
X186519221Y-76570862D01*
X186451877Y-76570862D01*
X186350862Y-76604534D01*
X186182503Y-76772893D01*
X186148832Y-76873908D01*
X186148832Y-76941251D01*
X186182503Y-77042267D01*
X186384534Y-77244297D01*
X186485549Y-77277969D01*
X186552893Y-77277969D01*
X181357106Y-73887969D02*
X181424450Y-73887969D01*
X181559137Y-73820625D01*
X181626480Y-73753282D01*
X181693824Y-73618595D01*
X181693824Y-73483908D01*
X181660152Y-73382893D01*
X181559137Y-73214534D01*
X181458122Y-73113519D01*
X181289763Y-73012503D01*
X181188748Y-72978832D01*
X181054061Y-72978832D01*
X180919374Y-73046175D01*
X180852030Y-73113519D01*
X180784687Y-73248206D01*
X180784687Y-73315549D01*
X180111251Y-73854297D02*
X180245938Y-73719610D01*
X180346954Y-73685938D01*
X180414297Y-73685938D01*
X180582656Y-73719610D01*
X180751015Y-73820625D01*
X181020389Y-74090000D01*
X181054061Y-74191015D01*
X181054061Y-74258358D01*
X181020389Y-74359374D01*
X180885702Y-74494061D01*
X180784687Y-74527732D01*
X180717343Y-74527732D01*
X180616328Y-74494061D01*
X180447969Y-74325702D01*
X180414297Y-74224687D01*
X180414297Y-74157343D01*
X180447969Y-74056328D01*
X180582656Y-73921641D01*
X180683671Y-73887969D01*
X180751015Y-73887969D01*
X180852030Y-73921641D01*
X179841877Y-74258358D02*
X179774534Y-74258358D01*
X179673519Y-74292030D01*
X179505160Y-74460389D01*
X179471488Y-74561404D01*
X179471488Y-74628748D01*
X179505160Y-74729763D01*
X179572503Y-74797106D01*
X179707190Y-74864450D01*
X180515312Y-74864450D01*
X180077580Y-75302183D01*
X185682857Y-74497142D02*
X185730476Y-74544761D01*
X185873333Y-74592380D01*
X185968571Y-74592380D01*
X186111428Y-74544761D01*
X186206666Y-74449523D01*
X186254285Y-74354285D01*
X186301904Y-74163809D01*
X186301904Y-74020952D01*
X186254285Y-73830476D01*
X186206666Y-73735238D01*
X186111428Y-73640000D01*
X185968571Y-73592380D01*
X185873333Y-73592380D01*
X185730476Y-73640000D01*
X185682857Y-73687619D01*
X184825714Y-73592380D02*
X185016190Y-73592380D01*
X185111428Y-73640000D01*
X185159047Y-73687619D01*
X185254285Y-73830476D01*
X185301904Y-74020952D01*
X185301904Y-74401904D01*
X185254285Y-74497142D01*
X185206666Y-74544761D01*
X185111428Y-74592380D01*
X184920952Y-74592380D01*
X184825714Y-74544761D01*
X184778095Y-74497142D01*
X184730476Y-74401904D01*
X184730476Y-74163809D01*
X184778095Y-74068571D01*
X184825714Y-74020952D01*
X184920952Y-73973333D01*
X185111428Y-73973333D01*
X185206666Y-74020952D01*
X185254285Y-74068571D01*
X185301904Y-74163809D01*
X183778095Y-74592380D02*
X184349523Y-74592380D01*
X184063809Y-74592380D02*
X184063809Y-73592380D01*
X184159047Y-73735238D01*
X184254285Y-73830476D01*
X184349523Y-73878095D01*
X172617857Y-86257142D02*
X172665476Y-86304761D01*
X172808333Y-86352380D01*
X172903571Y-86352380D01*
X173046428Y-86304761D01*
X173141666Y-86209523D01*
X173189285Y-86114285D01*
X173236904Y-85923809D01*
X173236904Y-85780952D01*
X173189285Y-85590476D01*
X173141666Y-85495238D01*
X173046428Y-85400000D01*
X172903571Y-85352380D01*
X172808333Y-85352380D01*
X172665476Y-85400000D01*
X172617857Y-85447619D01*
X171760714Y-85352380D02*
X171951190Y-85352380D01*
X172046428Y-85400000D01*
X172094047Y-85447619D01*
X172189285Y-85590476D01*
X172236904Y-85780952D01*
X172236904Y-86161904D01*
X172189285Y-86257142D01*
X172141666Y-86304761D01*
X172046428Y-86352380D01*
X171855952Y-86352380D01*
X171760714Y-86304761D01*
X171713095Y-86257142D01*
X171665476Y-86161904D01*
X171665476Y-85923809D01*
X171713095Y-85828571D01*
X171760714Y-85780952D01*
X171855952Y-85733333D01*
X172046428Y-85733333D01*
X172141666Y-85780952D01*
X172189285Y-85828571D01*
X172236904Y-85923809D01*
X171046428Y-85352380D02*
X170951190Y-85352380D01*
X170855952Y-85400000D01*
X170808333Y-85447619D01*
X170760714Y-85542857D01*
X170713095Y-85733333D01*
X170713095Y-85971428D01*
X170760714Y-86161904D01*
X170808333Y-86257142D01*
X170855952Y-86304761D01*
X170951190Y-86352380D01*
X171046428Y-86352380D01*
X171141666Y-86304761D01*
X171189285Y-86257142D01*
X171236904Y-86161904D01*
X171284523Y-85971428D01*
X171284523Y-85733333D01*
X171236904Y-85542857D01*
X171189285Y-85447619D01*
X171141666Y-85400000D01*
X171046428Y-85352380D01*
X178357142Y-76357142D02*
X178404761Y-76309523D01*
X178452380Y-76166666D01*
X178452380Y-76071428D01*
X178404761Y-75928571D01*
X178309523Y-75833333D01*
X178214285Y-75785714D01*
X178023809Y-75738095D01*
X177880952Y-75738095D01*
X177690476Y-75785714D01*
X177595238Y-75833333D01*
X177500000Y-75928571D01*
X177452380Y-76071428D01*
X177452380Y-76166666D01*
X177500000Y-76309523D01*
X177547619Y-76357142D01*
X177452380Y-77261904D02*
X177452380Y-76785714D01*
X177928571Y-76738095D01*
X177880952Y-76785714D01*
X177833333Y-76880952D01*
X177833333Y-77119047D01*
X177880952Y-77214285D01*
X177928571Y-77261904D01*
X178023809Y-77309523D01*
X178261904Y-77309523D01*
X178357142Y-77261904D01*
X178404761Y-77214285D01*
X178452380Y-77119047D01*
X178452380Y-76880952D01*
X178404761Y-76785714D01*
X178357142Y-76738095D01*
X178452380Y-77785714D02*
X178452380Y-77976190D01*
X178404761Y-78071428D01*
X178357142Y-78119047D01*
X178214285Y-78214285D01*
X178023809Y-78261904D01*
X177642857Y-78261904D01*
X177547619Y-78214285D01*
X177500000Y-78166666D01*
X177452380Y-78071428D01*
X177452380Y-77880952D01*
X177500000Y-77785714D01*
X177547619Y-77738095D01*
X177642857Y-77690476D01*
X177880952Y-77690476D01*
X177976190Y-77738095D01*
X178023809Y-77785714D01*
X178071428Y-77880952D01*
X178071428Y-78071428D01*
X178023809Y-78166666D01*
X177976190Y-78214285D01*
X177880952Y-78261904D01*
X174907857Y-91437142D02*
X174955476Y-91484761D01*
X175098333Y-91532380D01*
X175193571Y-91532380D01*
X175336428Y-91484761D01*
X175431666Y-91389523D01*
X175479285Y-91294285D01*
X175526904Y-91103809D01*
X175526904Y-90960952D01*
X175479285Y-90770476D01*
X175431666Y-90675238D01*
X175336428Y-90580000D01*
X175193571Y-90532380D01*
X175098333Y-90532380D01*
X174955476Y-90580000D01*
X174907857Y-90627619D01*
X174003095Y-90532380D02*
X174479285Y-90532380D01*
X174526904Y-91008571D01*
X174479285Y-90960952D01*
X174384047Y-90913333D01*
X174145952Y-90913333D01*
X174050714Y-90960952D01*
X174003095Y-91008571D01*
X173955476Y-91103809D01*
X173955476Y-91341904D01*
X174003095Y-91437142D01*
X174050714Y-91484761D01*
X174145952Y-91532380D01*
X174384047Y-91532380D01*
X174479285Y-91484761D01*
X174526904Y-91437142D01*
X173384047Y-90960952D02*
X173479285Y-90913333D01*
X173526904Y-90865714D01*
X173574523Y-90770476D01*
X173574523Y-90722857D01*
X173526904Y-90627619D01*
X173479285Y-90580000D01*
X173384047Y-90532380D01*
X173193571Y-90532380D01*
X173098333Y-90580000D01*
X173050714Y-90627619D01*
X173003095Y-90722857D01*
X173003095Y-90770476D01*
X173050714Y-90865714D01*
X173098333Y-90913333D01*
X173193571Y-90960952D01*
X173384047Y-90960952D01*
X173479285Y-91008571D01*
X173526904Y-91056190D01*
X173574523Y-91151428D01*
X173574523Y-91341904D01*
X173526904Y-91437142D01*
X173479285Y-91484761D01*
X173384047Y-91532380D01*
X173193571Y-91532380D01*
X173098333Y-91484761D01*
X173050714Y-91437142D01*
X173003095Y-91341904D01*
X173003095Y-91151428D01*
X173050714Y-91056190D01*
X173098333Y-91008571D01*
X173193571Y-90960952D01*
X179392857Y-93777142D02*
X179440476Y-93824761D01*
X179583333Y-93872380D01*
X179678571Y-93872380D01*
X179821428Y-93824761D01*
X179916666Y-93729523D01*
X179964285Y-93634285D01*
X180011904Y-93443809D01*
X180011904Y-93300952D01*
X179964285Y-93110476D01*
X179916666Y-93015238D01*
X179821428Y-92920000D01*
X179678571Y-92872380D01*
X179583333Y-92872380D01*
X179440476Y-92920000D01*
X179392857Y-92967619D01*
X178488095Y-92872380D02*
X178964285Y-92872380D01*
X179011904Y-93348571D01*
X178964285Y-93300952D01*
X178869047Y-93253333D01*
X178630952Y-93253333D01*
X178535714Y-93300952D01*
X178488095Y-93348571D01*
X178440476Y-93443809D01*
X178440476Y-93681904D01*
X178488095Y-93777142D01*
X178535714Y-93824761D01*
X178630952Y-93872380D01*
X178869047Y-93872380D01*
X178964285Y-93824761D01*
X179011904Y-93777142D01*
X178107142Y-92872380D02*
X177440476Y-92872380D01*
X177869047Y-93872380D01*
M02*
