G04 #@! TF.GenerationSoftware,KiCad,Pcbnew,5.1.6-c6e7f7d~86~ubuntu18.04.1*
G04 #@! TF.CreationDate,2020-05-28T18:44:08+01:00*
G04 #@! TF.ProjectId,multi-smtpa,6d756c74-692d-4736-9d74-70612e6b6963,rev?*
G04 #@! TF.SameCoordinates,Original*
G04 #@! TF.FileFunction,Legend,Top*
G04 #@! TF.FilePolarity,Positive*
%FSLAX46Y46*%
G04 Gerber Fmt 4.6, Leading zero omitted, Abs format (unit mm)*
G04 Created by KiCad (PCBNEW 5.1.6-c6e7f7d~86~ubuntu18.04.1) date 2020-05-28 18:44:08*
%MOMM*%
%LPD*%
G01*
G04 APERTURE LIST*
%ADD10C,0.200000*%
%ADD11C,0.300000*%
%ADD12C,0.375000*%
%ADD13C,0.120000*%
%ADD14C,0.150000*%
%ADD15C,0.125000*%
G04 APERTURE END LIST*
D10*
X161400000Y-57000000D02*
G75*
G03*
X161400000Y-57000000I-100000J0D01*
G01*
X187700000Y-103300000D02*
G75*
G03*
X187700000Y-103300000I-100000J0D01*
G01*
X156800000Y-133700000D02*
G75*
G03*
X156800000Y-133700000I-100000J0D01*
G01*
X155800000Y-123600000D02*
G75*
G03*
X155800000Y-123600000I-100000J0D01*
G01*
X129100000Y-113900000D02*
G75*
G03*
X129100000Y-113900000I-100000J0D01*
G01*
X115400000Y-106400000D02*
G75*
G03*
X115400000Y-106400000I-100000J0D01*
G01*
X103300000Y-73600000D02*
G75*
G03*
X103300000Y-73600000I-100000J0D01*
G01*
D11*
X196857142Y-77285714D02*
X196857142Y-77785714D01*
X197904761Y-77785714D02*
X195904761Y-77785714D01*
X195904761Y-77071428D01*
X198095238Y-76857142D02*
X198095238Y-75714285D01*
X195904761Y-75500000D02*
X195904761Y-74571428D01*
X196666666Y-75071428D01*
X196666666Y-74857142D01*
X196761904Y-74714285D01*
X196857142Y-74642857D01*
X197047619Y-74571428D01*
X197523809Y-74571428D01*
X197714285Y-74642857D01*
X197809523Y-74714285D01*
X197904761Y-74857142D01*
X197904761Y-75285714D01*
X197809523Y-75428571D01*
X197714285Y-75500000D01*
X195904761Y-73642857D02*
X195904761Y-73500000D01*
X196000000Y-73357142D01*
X196095238Y-73285714D01*
X196285714Y-73214285D01*
X196666666Y-73142857D01*
X197142857Y-73142857D01*
X197523809Y-73214285D01*
X197714285Y-73285714D01*
X197809523Y-73357142D01*
X197904761Y-73500000D01*
X197904761Y-73642857D01*
X197809523Y-73785714D01*
X197714285Y-73857142D01*
X197523809Y-73928571D01*
X197142857Y-74000000D01*
X196666666Y-74000000D01*
X196285714Y-73928571D01*
X196095238Y-73857142D01*
X196000000Y-73785714D01*
X195904761Y-73642857D01*
D10*
X144952380Y-108357142D02*
X144952380Y-107738095D01*
X145333333Y-108071428D01*
X145333333Y-107928571D01*
X145380952Y-107833333D01*
X145428571Y-107785714D01*
X145523809Y-107738095D01*
X145761904Y-107738095D01*
X145857142Y-107785714D01*
X145904761Y-107833333D01*
X145952380Y-107928571D01*
X145952380Y-108214285D01*
X145904761Y-108309523D01*
X145857142Y-108357142D01*
X144952380Y-107119047D02*
X144952380Y-107023809D01*
X145000000Y-106928571D01*
X145047619Y-106880952D01*
X145142857Y-106833333D01*
X145333333Y-106785714D01*
X145571428Y-106785714D01*
X145761904Y-106833333D01*
X145857142Y-106880952D01*
X145904761Y-106928571D01*
X145952380Y-107023809D01*
X145952380Y-107119047D01*
X145904761Y-107214285D01*
X145857142Y-107261904D01*
X145761904Y-107309523D01*
X145571428Y-107357142D01*
X145333333Y-107357142D01*
X145142857Y-107309523D01*
X145047619Y-107261904D01*
X145000000Y-107214285D01*
X144952380Y-107119047D01*
X144952380Y-106500000D02*
X145952380Y-106166666D01*
X144952380Y-105833333D01*
X145571428Y-105500000D02*
X145571428Y-104738095D01*
X145952380Y-105119047D02*
X145190476Y-105119047D01*
D12*
X138607142Y-103071428D02*
X138607142Y-101928571D01*
D13*
X188500000Y-84250000D02*
X179000000Y-84250000D01*
X189500000Y-83250000D02*
X188500000Y-84250000D01*
X186750000Y-73250000D02*
X153750000Y-73250000D01*
X188500000Y-71500000D02*
X186750000Y-73250000D01*
X188500000Y-57000000D02*
X188500000Y-71500000D01*
X147750000Y-84250000D02*
X146000000Y-82500000D01*
X182500000Y-140750000D02*
X186500000Y-144750000D01*
X182500000Y-121250000D02*
X182500000Y-140750000D01*
X135250000Y-82500000D02*
X146000000Y-82500000D01*
X135250000Y-86250000D02*
X135250000Y-82500000D01*
X133000000Y-88500000D02*
X135250000Y-86250000D01*
X165000000Y-110000000D02*
X162500000Y-107500000D01*
X171250000Y-110000000D02*
X165000000Y-110000000D01*
X147500000Y-107000000D02*
X141500000Y-113000000D01*
X130800000Y-88500000D02*
X130800000Y-113000000D01*
X193000000Y-79750000D02*
X199750000Y-79750000D01*
X189500000Y-83250000D02*
X193000000Y-79750000D01*
D14*
X165380952Y-87107142D02*
X165333333Y-87154761D01*
X165190476Y-87202380D01*
X165095238Y-87202380D01*
X164952380Y-87154761D01*
X164857142Y-87059523D01*
X164809523Y-86964285D01*
X164761904Y-86773809D01*
X164761904Y-86630952D01*
X164809523Y-86440476D01*
X164857142Y-86345238D01*
X164952380Y-86250000D01*
X165095238Y-86202380D01*
X165190476Y-86202380D01*
X165333333Y-86250000D01*
X165380952Y-86297619D01*
X165761904Y-86916666D02*
X166238095Y-86916666D01*
X165666666Y-87202380D02*
X166000000Y-86202380D01*
X166333333Y-87202380D01*
X166666666Y-87202380D02*
X166666666Y-86202380D01*
X167047619Y-86202380D01*
X167142857Y-86250000D01*
X167190476Y-86297619D01*
X167238095Y-86392857D01*
X167238095Y-86535714D01*
X167190476Y-86630952D01*
X167142857Y-86678571D01*
X167047619Y-86726190D01*
X166666666Y-86726190D01*
D11*
X150750000Y-54095238D02*
X150250000Y-52095238D01*
X149750000Y-54095238D01*
X149321428Y-52190476D02*
X149107142Y-52095238D01*
X148750000Y-52095238D01*
X148607142Y-52190476D01*
X148535714Y-52285714D01*
X148464285Y-52476190D01*
X148464285Y-52666666D01*
X148535714Y-52857142D01*
X148607142Y-52952380D01*
X148750000Y-53047619D01*
X149035714Y-53142857D01*
X149178571Y-53238095D01*
X149250000Y-53333333D01*
X149321428Y-53523809D01*
X149321428Y-53714285D01*
X149250000Y-53904761D01*
X149178571Y-54000000D01*
X149035714Y-54095238D01*
X148678571Y-54095238D01*
X148464285Y-54000000D01*
X147892857Y-52190476D02*
X147678571Y-52095238D01*
X147321428Y-52095238D01*
X147178571Y-52190476D01*
X147107142Y-52285714D01*
X147035714Y-52476190D01*
X147035714Y-52666666D01*
X147107142Y-52857142D01*
X147178571Y-52952380D01*
X147321428Y-53047619D01*
X147607142Y-53142857D01*
X147750000Y-53238095D01*
X147821428Y-53333333D01*
X147892857Y-53523809D01*
X147892857Y-53714285D01*
X147821428Y-53904761D01*
X147750000Y-54000000D01*
X147607142Y-54095238D01*
X147250000Y-54095238D01*
X147035714Y-54000000D01*
X146750000Y-51904761D02*
X145607142Y-51904761D01*
X144535714Y-52095238D02*
X145250000Y-52095238D01*
X145250000Y-54095238D01*
X144035714Y-52095238D02*
X144035714Y-54095238D01*
X143321428Y-52095238D02*
X143321428Y-54095238D01*
X142464285Y-52095238D01*
X142464285Y-54095238D01*
X127107142Y-53142857D02*
X127607142Y-53142857D01*
X127607142Y-52095238D02*
X127607142Y-54095238D01*
X126892857Y-54095238D01*
X126678571Y-51904761D02*
X125535714Y-51904761D01*
X124464285Y-52095238D02*
X125178571Y-52095238D01*
X125178571Y-54095238D01*
X123964285Y-52095238D02*
X123964285Y-54095238D01*
X123250000Y-52095238D02*
X123250000Y-54095238D01*
X122392857Y-52095238D01*
X122392857Y-54095238D01*
D12*
X138607142Y-112071428D02*
X138607142Y-110928571D01*
X139178571Y-111500000D02*
X138035714Y-111500000D01*
D13*
X106750000Y-88500000D02*
X133000000Y-88500000D01*
X163750000Y-84250000D02*
X173500000Y-84250000D01*
X141500000Y-113000000D02*
X102000000Y-113000000D01*
X186500000Y-144750000D02*
X186500000Y-149500000D01*
X171250000Y-110000000D02*
X182500000Y-121250000D01*
X141500000Y-126000000D02*
X141500000Y-113000000D01*
X138500000Y-133500000D02*
X140000000Y-132000000D01*
X138500000Y-149500000D02*
X138500000Y-133500000D01*
X153750000Y-83600000D02*
X153750000Y-58750000D01*
D11*
X196857142Y-125535714D02*
X196857142Y-126035714D01*
X197904761Y-126035714D02*
X195904761Y-126035714D01*
X195904761Y-125321428D01*
X198095238Y-125107142D02*
X198095238Y-123964285D01*
X196095238Y-123678571D02*
X196000000Y-123607142D01*
X195904761Y-123464285D01*
X195904761Y-123107142D01*
X196000000Y-122964285D01*
X196095238Y-122892857D01*
X196285714Y-122821428D01*
X196476190Y-122821428D01*
X196761904Y-122892857D01*
X197904761Y-123750000D01*
X197904761Y-122821428D01*
X196095238Y-122250000D02*
X196000000Y-122178571D01*
X195904761Y-122035714D01*
X195904761Y-121678571D01*
X196000000Y-121535714D01*
X196095238Y-121464285D01*
X196285714Y-121392857D01*
X196476190Y-121392857D01*
X196761904Y-121464285D01*
X197904761Y-122321428D01*
X197904761Y-121392857D01*
X196857142Y-96535714D02*
X196857142Y-97035714D01*
X197904761Y-97035714D02*
X195904761Y-97035714D01*
X195904761Y-96321428D01*
X198095238Y-96107142D02*
X198095238Y-94964285D01*
X196095238Y-94678571D02*
X196000000Y-94607142D01*
X195904761Y-94464285D01*
X195904761Y-94107142D01*
X196000000Y-93964285D01*
X196095238Y-93892857D01*
X196285714Y-93821428D01*
X196476190Y-93821428D01*
X196761904Y-93892857D01*
X197904761Y-94750000D01*
X197904761Y-93821428D01*
X197904761Y-92392857D02*
X197904761Y-93250000D01*
X197904761Y-92821428D02*
X195904761Y-92821428D01*
X196190476Y-92964285D01*
X196380952Y-93107142D01*
X196476190Y-93250000D01*
D10*
X155988095Y-75902380D02*
X156178571Y-75902380D01*
X156273809Y-75950000D01*
X156369047Y-76045238D01*
X156416666Y-76235714D01*
X156416666Y-76569047D01*
X156369047Y-76759523D01*
X156273809Y-76854761D01*
X156178571Y-76902380D01*
X155988095Y-76902380D01*
X155892857Y-76854761D01*
X155797619Y-76759523D01*
X155750000Y-76569047D01*
X155750000Y-76235714D01*
X155797619Y-76045238D01*
X155892857Y-75950000D01*
X155988095Y-75902380D01*
X156750000Y-76902380D02*
X157273809Y-76235714D01*
X156750000Y-76235714D02*
X157273809Y-76902380D01*
X157511904Y-76235714D02*
X157892857Y-76235714D01*
X157654761Y-76902380D02*
X157654761Y-76045238D01*
X157702380Y-75950000D01*
X157797619Y-75902380D01*
X157892857Y-75902380D01*
X158369047Y-76902380D02*
X158273809Y-76854761D01*
X158226190Y-76807142D01*
X158178571Y-76711904D01*
X158178571Y-76426190D01*
X158226190Y-76330952D01*
X158273809Y-76283333D01*
X158369047Y-76235714D01*
X158511904Y-76235714D01*
X158607142Y-76283333D01*
X158654761Y-76330952D01*
X158702380Y-76426190D01*
X158702380Y-76711904D01*
X158654761Y-76807142D01*
X158607142Y-76854761D01*
X158511904Y-76902380D01*
X158369047Y-76902380D01*
X159130952Y-76902380D02*
X159130952Y-76235714D01*
X159130952Y-76426190D02*
X159178571Y-76330952D01*
X159226190Y-76283333D01*
X159321428Y-76235714D01*
X159416666Y-76235714D01*
X160178571Y-76902380D02*
X160178571Y-75902380D01*
X160178571Y-76854761D02*
X160083333Y-76902380D01*
X159892857Y-76902380D01*
X159797619Y-76854761D01*
X159750000Y-76807142D01*
X159702380Y-76711904D01*
X159702380Y-76426190D01*
X159750000Y-76330952D01*
X159797619Y-76283333D01*
X159892857Y-76235714D01*
X160083333Y-76235714D01*
X160178571Y-76283333D01*
X161273809Y-75902380D02*
X161607142Y-76902380D01*
X161940476Y-75902380D01*
X162750000Y-76902380D02*
X162273809Y-76902380D01*
X162273809Y-75902380D01*
X163654761Y-76807142D02*
X163607142Y-76854761D01*
X163464285Y-76902380D01*
X163369047Y-76902380D01*
X163226190Y-76854761D01*
X163130952Y-76759523D01*
X163083333Y-76664285D01*
X163035714Y-76473809D01*
X163035714Y-76330952D01*
X163083333Y-76140476D01*
X163130952Y-76045238D01*
X163226190Y-75950000D01*
X163369047Y-75902380D01*
X163464285Y-75902380D01*
X163607142Y-75950000D01*
X163654761Y-75997619D01*
X165369047Y-75950000D02*
X165273809Y-75902380D01*
X165130952Y-75902380D01*
X164988095Y-75950000D01*
X164892857Y-76045238D01*
X164845238Y-76140476D01*
X164797619Y-76330952D01*
X164797619Y-76473809D01*
X164845238Y-76664285D01*
X164892857Y-76759523D01*
X164988095Y-76854761D01*
X165130952Y-76902380D01*
X165226190Y-76902380D01*
X165369047Y-76854761D01*
X165416666Y-76807142D01*
X165416666Y-76473809D01*
X165226190Y-76473809D01*
X165845238Y-76902380D02*
X165845238Y-76235714D01*
X165845238Y-76426190D02*
X165892857Y-76330952D01*
X165940476Y-76283333D01*
X166035714Y-76235714D01*
X166130952Y-76235714D01*
X166607142Y-76902380D02*
X166511904Y-76854761D01*
X166464285Y-76807142D01*
X166416666Y-76711904D01*
X166416666Y-76426190D01*
X166464285Y-76330952D01*
X166511904Y-76283333D01*
X166607142Y-76235714D01*
X166750000Y-76235714D01*
X166845238Y-76283333D01*
X166892857Y-76330952D01*
X166940476Y-76426190D01*
X166940476Y-76711904D01*
X166892857Y-76807142D01*
X166845238Y-76854761D01*
X166750000Y-76902380D01*
X166607142Y-76902380D01*
X167797619Y-76235714D02*
X167797619Y-76902380D01*
X167369047Y-76235714D02*
X167369047Y-76759523D01*
X167416666Y-76854761D01*
X167511904Y-76902380D01*
X167654761Y-76902380D01*
X167750000Y-76854761D01*
X167797619Y-76807142D01*
X168273809Y-76235714D02*
X168273809Y-77235714D01*
X168273809Y-76283333D02*
X168369047Y-76235714D01*
X168559523Y-76235714D01*
X168654761Y-76283333D01*
X168702380Y-76330952D01*
X168750000Y-76426190D01*
X168750000Y-76711904D01*
X168702380Y-76807142D01*
X168654761Y-76854761D01*
X168559523Y-76902380D01*
X168369047Y-76902380D01*
X168273809Y-76854761D01*
X157416666Y-78554761D02*
X157511904Y-78602380D01*
X157702380Y-78602380D01*
X157797619Y-78554761D01*
X157845238Y-78459523D01*
X157845238Y-78411904D01*
X157797619Y-78316666D01*
X157702380Y-78269047D01*
X157559523Y-78269047D01*
X157464285Y-78221428D01*
X157416666Y-78126190D01*
X157416666Y-78078571D01*
X157464285Y-77983333D01*
X157559523Y-77935714D01*
X157702380Y-77935714D01*
X157797619Y-77983333D01*
X158273809Y-78602380D02*
X158273809Y-77935714D01*
X158273809Y-78030952D02*
X158321428Y-77983333D01*
X158416666Y-77935714D01*
X158559523Y-77935714D01*
X158654761Y-77983333D01*
X158702380Y-78078571D01*
X158702380Y-78602380D01*
X158702380Y-78078571D02*
X158750000Y-77983333D01*
X158845238Y-77935714D01*
X158988095Y-77935714D01*
X159083333Y-77983333D01*
X159130952Y-78078571D01*
X159130952Y-78602380D01*
X159464285Y-77935714D02*
X159845238Y-77935714D01*
X159607142Y-77602380D02*
X159607142Y-78459523D01*
X159654761Y-78554761D01*
X159750000Y-78602380D01*
X159845238Y-78602380D01*
X160178571Y-77935714D02*
X160178571Y-78935714D01*
X160178571Y-77983333D02*
X160273809Y-77935714D01*
X160464285Y-77935714D01*
X160559523Y-77983333D01*
X160607142Y-78030952D01*
X160654761Y-78126190D01*
X160654761Y-78411904D01*
X160607142Y-78507142D01*
X160559523Y-78554761D01*
X160464285Y-78602380D01*
X160273809Y-78602380D01*
X160178571Y-78554761D01*
X161511904Y-78602380D02*
X161511904Y-78078571D01*
X161464285Y-77983333D01*
X161369047Y-77935714D01*
X161178571Y-77935714D01*
X161083333Y-77983333D01*
X161511904Y-78554761D02*
X161416666Y-78602380D01*
X161178571Y-78602380D01*
X161083333Y-78554761D01*
X161035714Y-78459523D01*
X161035714Y-78364285D01*
X161083333Y-78269047D01*
X161178571Y-78221428D01*
X161416666Y-78221428D01*
X161511904Y-78173809D01*
X161750000Y-78697619D02*
X162511904Y-78697619D01*
X163130952Y-78554761D02*
X163035714Y-78602380D01*
X162845238Y-78602380D01*
X162750000Y-78554761D01*
X162702380Y-78459523D01*
X162702380Y-78078571D01*
X162750000Y-77983333D01*
X162845238Y-77935714D01*
X163035714Y-77935714D01*
X163130952Y-77983333D01*
X163178571Y-78078571D01*
X163178571Y-78173809D01*
X162702380Y-78269047D01*
X163511904Y-77935714D02*
X163750000Y-78602380D01*
X163988095Y-77935714D01*
X164797619Y-78602380D02*
X164797619Y-78078571D01*
X164750000Y-77983333D01*
X164654761Y-77935714D01*
X164464285Y-77935714D01*
X164369047Y-77983333D01*
X164797619Y-78554761D02*
X164702380Y-78602380D01*
X164464285Y-78602380D01*
X164369047Y-78554761D01*
X164321428Y-78459523D01*
X164321428Y-78364285D01*
X164369047Y-78269047D01*
X164464285Y-78221428D01*
X164702380Y-78221428D01*
X164797619Y-78173809D01*
X165416666Y-78602380D02*
X165321428Y-78554761D01*
X165273809Y-78459523D01*
X165273809Y-77602380D01*
X167083333Y-78602380D02*
X166511904Y-78602380D01*
X166797619Y-78602380D02*
X166797619Y-77602380D01*
X166702380Y-77745238D01*
X166607142Y-77840476D01*
X166511904Y-77888095D01*
X155797619Y-80302380D02*
X155797619Y-79302380D01*
X156035714Y-79302380D01*
X156178571Y-79350000D01*
X156273809Y-79445238D01*
X156321428Y-79540476D01*
X156369047Y-79730952D01*
X156369047Y-79873809D01*
X156321428Y-80064285D01*
X156273809Y-80159523D01*
X156178571Y-80254761D01*
X156035714Y-80302380D01*
X155797619Y-80302380D01*
X156750000Y-80254761D02*
X156892857Y-80302380D01*
X157130952Y-80302380D01*
X157226190Y-80254761D01*
X157273809Y-80207142D01*
X157321428Y-80111904D01*
X157321428Y-80016666D01*
X157273809Y-79921428D01*
X157226190Y-79873809D01*
X157130952Y-79826190D01*
X156940476Y-79778571D01*
X156845238Y-79730952D01*
X156797619Y-79683333D01*
X156750000Y-79588095D01*
X156750000Y-79492857D01*
X156797619Y-79397619D01*
X156845238Y-79350000D01*
X156940476Y-79302380D01*
X157178571Y-79302380D01*
X157321428Y-79350000D01*
X158273809Y-79350000D02*
X158178571Y-79302380D01*
X158035714Y-79302380D01*
X157892857Y-79350000D01*
X157797619Y-79445238D01*
X157750000Y-79540476D01*
X157702380Y-79730952D01*
X157702380Y-79873809D01*
X157750000Y-80064285D01*
X157797619Y-80159523D01*
X157892857Y-80254761D01*
X158035714Y-80302380D01*
X158130952Y-80302380D01*
X158273809Y-80254761D01*
X158321428Y-80207142D01*
X158321428Y-79873809D01*
X158130952Y-79873809D01*
X158750000Y-80207142D02*
X158797619Y-80254761D01*
X158750000Y-80302380D01*
X158702380Y-80254761D01*
X158750000Y-80207142D01*
X158750000Y-80302380D01*
X158750000Y-79683333D02*
X158797619Y-79730952D01*
X158750000Y-79778571D01*
X158702380Y-79730952D01*
X158750000Y-79683333D01*
X158750000Y-79778571D01*
X159892857Y-79302380D02*
X160130952Y-80302380D01*
X160321428Y-79588095D01*
X160511904Y-80302380D01*
X160750000Y-79302380D01*
X161130952Y-80207142D02*
X161178571Y-80254761D01*
X161130952Y-80302380D01*
X161083333Y-80254761D01*
X161130952Y-80207142D01*
X161130952Y-80302380D01*
X162369047Y-80302380D02*
X162369047Y-79302380D01*
X162702380Y-80016666D01*
X163035714Y-79302380D01*
X163035714Y-80302380D01*
X163940476Y-80302380D02*
X163940476Y-79778571D01*
X163892857Y-79683333D01*
X163797619Y-79635714D01*
X163607142Y-79635714D01*
X163511904Y-79683333D01*
X163940476Y-80254761D02*
X163845238Y-80302380D01*
X163607142Y-80302380D01*
X163511904Y-80254761D01*
X163464285Y-80159523D01*
X163464285Y-80064285D01*
X163511904Y-79969047D01*
X163607142Y-79921428D01*
X163845238Y-79921428D01*
X163940476Y-79873809D01*
X164273809Y-79635714D02*
X164654761Y-79635714D01*
X164416666Y-79302380D02*
X164416666Y-80159523D01*
X164464285Y-80254761D01*
X164559523Y-80302380D01*
X164654761Y-80302380D01*
X164845238Y-79635714D02*
X165226190Y-79635714D01*
X164988095Y-79302380D02*
X164988095Y-80159523D01*
X165035714Y-80254761D01*
X165130952Y-80302380D01*
X165226190Y-80302380D01*
X165559523Y-80302380D02*
X165559523Y-79302380D01*
X165988095Y-80302380D02*
X165988095Y-79778571D01*
X165940476Y-79683333D01*
X165845238Y-79635714D01*
X165702380Y-79635714D01*
X165607142Y-79683333D01*
X165559523Y-79730952D01*
X166845238Y-80254761D02*
X166750000Y-80302380D01*
X166559523Y-80302380D01*
X166464285Y-80254761D01*
X166416666Y-80159523D01*
X166416666Y-79778571D01*
X166464285Y-79683333D01*
X166559523Y-79635714D01*
X166750000Y-79635714D01*
X166845238Y-79683333D01*
X166892857Y-79778571D01*
X166892857Y-79873809D01*
X166416666Y-79969047D01*
X167226190Y-79635714D02*
X167416666Y-80302380D01*
X167607142Y-79826190D01*
X167797619Y-80302380D01*
X167988095Y-79635714D01*
X168321428Y-80254761D02*
X168416666Y-80302380D01*
X168607142Y-80302380D01*
X168702380Y-80254761D01*
X168750000Y-80159523D01*
X168750000Y-80111904D01*
X168702380Y-80016666D01*
X168607142Y-79969047D01*
X168464285Y-79969047D01*
X168369047Y-79921428D01*
X168321428Y-79826190D01*
X168321428Y-79778571D01*
X168369047Y-79683333D01*
X168464285Y-79635714D01*
X168607142Y-79635714D01*
X168702380Y-79683333D01*
X157250000Y-81907142D02*
X157202380Y-81954761D01*
X157059523Y-82002380D01*
X156964285Y-82002380D01*
X156821428Y-81954761D01*
X156726190Y-81859523D01*
X156678571Y-81764285D01*
X156630952Y-81573809D01*
X156630952Y-81430952D01*
X156678571Y-81240476D01*
X156726190Y-81145238D01*
X156821428Y-81050000D01*
X156964285Y-81002380D01*
X157059523Y-81002380D01*
X157202380Y-81050000D01*
X157250000Y-81097619D01*
X157678571Y-82002380D02*
X157678571Y-81002380D01*
X157678571Y-81478571D02*
X158250000Y-81478571D01*
X158250000Y-82002380D02*
X158250000Y-81002380D01*
X158726190Y-82002380D02*
X158726190Y-81002380D01*
X159297619Y-82002380D02*
X158869047Y-81430952D01*
X159297619Y-81002380D02*
X158726190Y-81573809D01*
X159726190Y-81907142D02*
X159773809Y-81954761D01*
X159726190Y-82002380D01*
X159678571Y-81954761D01*
X159726190Y-81907142D01*
X159726190Y-82002380D01*
X159726190Y-81383333D02*
X159773809Y-81430952D01*
X159726190Y-81478571D01*
X159678571Y-81430952D01*
X159726190Y-81383333D01*
X159726190Y-81478571D01*
X160916666Y-81954761D02*
X161059523Y-82002380D01*
X161297619Y-82002380D01*
X161392857Y-81954761D01*
X161440476Y-81907142D01*
X161488095Y-81811904D01*
X161488095Y-81716666D01*
X161440476Y-81621428D01*
X161392857Y-81573809D01*
X161297619Y-81526190D01*
X161107142Y-81478571D01*
X161011904Y-81430952D01*
X160964285Y-81383333D01*
X160916666Y-81288095D01*
X160916666Y-81192857D01*
X160964285Y-81097619D01*
X161011904Y-81050000D01*
X161107142Y-81002380D01*
X161345238Y-81002380D01*
X161488095Y-81050000D01*
X161916666Y-81907142D02*
X161964285Y-81954761D01*
X161916666Y-82002380D01*
X161869047Y-81954761D01*
X161916666Y-81907142D01*
X161916666Y-82002380D01*
X163726190Y-81907142D02*
X163678571Y-81954761D01*
X163535714Y-82002380D01*
X163440476Y-82002380D01*
X163297619Y-81954761D01*
X163202380Y-81859523D01*
X163154761Y-81764285D01*
X163107142Y-81573809D01*
X163107142Y-81430952D01*
X163154761Y-81240476D01*
X163202380Y-81145238D01*
X163297619Y-81050000D01*
X163440476Y-81002380D01*
X163535714Y-81002380D01*
X163678571Y-81050000D01*
X163726190Y-81097619D01*
X164297619Y-82002380D02*
X164202380Y-81954761D01*
X164154761Y-81907142D01*
X164107142Y-81811904D01*
X164107142Y-81526190D01*
X164154761Y-81430952D01*
X164202380Y-81383333D01*
X164297619Y-81335714D01*
X164440476Y-81335714D01*
X164535714Y-81383333D01*
X164583333Y-81430952D01*
X164630952Y-81526190D01*
X164630952Y-81811904D01*
X164583333Y-81907142D01*
X164535714Y-81954761D01*
X164440476Y-82002380D01*
X164297619Y-82002380D01*
X165202380Y-82002380D02*
X165107142Y-81954761D01*
X165059523Y-81859523D01*
X165059523Y-81002380D01*
X165726190Y-82002380D02*
X165630952Y-81954761D01*
X165583333Y-81859523D01*
X165583333Y-81002380D01*
X166107142Y-82002380D02*
X166107142Y-81335714D01*
X166107142Y-81002380D02*
X166059523Y-81050000D01*
X166107142Y-81097619D01*
X166154761Y-81050000D01*
X166107142Y-81002380D01*
X166107142Y-81097619D01*
X166583333Y-81335714D02*
X166583333Y-82002380D01*
X166583333Y-81430952D02*
X166630952Y-81383333D01*
X166726190Y-81335714D01*
X166869047Y-81335714D01*
X166964285Y-81383333D01*
X167011904Y-81478571D01*
X167011904Y-82002380D01*
X167440476Y-81954761D02*
X167535714Y-82002380D01*
X167726190Y-82002380D01*
X167821428Y-81954761D01*
X167869047Y-81859523D01*
X167869047Y-81811904D01*
X167821428Y-81716666D01*
X167726190Y-81669047D01*
X167583333Y-81669047D01*
X167488095Y-81621428D01*
X167440476Y-81526190D01*
X167440476Y-81478571D01*
X167488095Y-81383333D01*
X167583333Y-81335714D01*
X167726190Y-81335714D01*
X167821428Y-81383333D01*
D11*
X144404761Y-109000000D02*
X142404761Y-109000000D01*
X142404761Y-108428571D01*
X142500000Y-108285714D01*
X142595238Y-108214285D01*
X142785714Y-108142857D01*
X143071428Y-108142857D01*
X143261904Y-108214285D01*
X143357142Y-108285714D01*
X143452380Y-108428571D01*
X143452380Y-109000000D01*
X142404761Y-107642857D02*
X144404761Y-107285714D01*
X142976190Y-107000000D01*
X144404761Y-106714285D01*
X142404761Y-106357142D01*
X144404761Y-104928571D02*
X143452380Y-105428571D01*
X144404761Y-105785714D02*
X142404761Y-105785714D01*
X142404761Y-105214285D01*
X142500000Y-105071428D01*
X142595238Y-105000000D01*
X142785714Y-104928571D01*
X143071428Y-104928571D01*
X143261904Y-105000000D01*
X143357142Y-105071428D01*
X143452380Y-105214285D01*
X143452380Y-105785714D01*
X103142857Y-100214285D02*
X103142857Y-99714285D01*
X102095238Y-99714285D02*
X104095238Y-99714285D01*
X104095238Y-100428571D01*
X101904761Y-100642857D02*
X101904761Y-101785714D01*
X104095238Y-102428571D02*
X104095238Y-102571428D01*
X104000000Y-102714285D01*
X103904761Y-102785714D01*
X103714285Y-102857142D01*
X103333333Y-102928571D01*
X102857142Y-102928571D01*
X102476190Y-102857142D01*
X102285714Y-102785714D01*
X102190476Y-102714285D01*
X102095238Y-102571428D01*
X102095238Y-102428571D01*
X102190476Y-102285714D01*
X102285714Y-102214285D01*
X102476190Y-102142857D01*
X102857142Y-102071428D01*
X103333333Y-102071428D01*
X103714285Y-102142857D01*
X103904761Y-102214285D01*
X104000000Y-102285714D01*
X104095238Y-102428571D01*
X102095238Y-104357142D02*
X102095238Y-103500000D01*
X102095238Y-103928571D02*
X104095238Y-103928571D01*
X103809523Y-103785714D01*
X103619047Y-103642857D01*
X103523809Y-103500000D01*
X175785714Y-53142857D02*
X176285714Y-53142857D01*
X176285714Y-52095238D02*
X176285714Y-54095238D01*
X175571428Y-54095238D01*
X175357142Y-51904761D02*
X174214285Y-51904761D01*
X173571428Y-54095238D02*
X173428571Y-54095238D01*
X173285714Y-54000000D01*
X173214285Y-53904761D01*
X173142857Y-53714285D01*
X173071428Y-53333333D01*
X173071428Y-52857142D01*
X173142857Y-52476190D01*
X173214285Y-52285714D01*
X173285714Y-52190476D01*
X173428571Y-52095238D01*
X173571428Y-52095238D01*
X173714285Y-52190476D01*
X173785714Y-52285714D01*
X173857142Y-52476190D01*
X173928571Y-52857142D01*
X173928571Y-53333333D01*
X173857142Y-53714285D01*
X173785714Y-53904761D01*
X173714285Y-54000000D01*
X173571428Y-54095238D01*
X172142857Y-54095238D02*
X172000000Y-54095238D01*
X171857142Y-54000000D01*
X171785714Y-53904761D01*
X171714285Y-53714285D01*
X171642857Y-53333333D01*
X171642857Y-52857142D01*
X171714285Y-52476190D01*
X171785714Y-52285714D01*
X171857142Y-52190476D01*
X172000000Y-52095238D01*
X172142857Y-52095238D01*
X172285714Y-52190476D01*
X172357142Y-52285714D01*
X172428571Y-52476190D01*
X172500000Y-52857142D01*
X172500000Y-53333333D01*
X172428571Y-53714285D01*
X172357142Y-53904761D01*
X172285714Y-54000000D01*
X172142857Y-54095238D01*
X118714285Y-146857142D02*
X118214285Y-146857142D01*
X118214285Y-147904761D02*
X118214285Y-145904761D01*
X118928571Y-145904761D01*
X119142857Y-148095238D02*
X120285714Y-148095238D01*
X121428571Y-147904761D02*
X120571428Y-147904761D01*
X121000000Y-147904761D02*
X121000000Y-145904761D01*
X120857142Y-146190476D01*
X120714285Y-146380952D01*
X120571428Y-146476190D01*
X121928571Y-145904761D02*
X122928571Y-147904761D01*
X122928571Y-145904761D02*
X121928571Y-147904761D01*
X167714285Y-146857142D02*
X167214285Y-146857142D01*
X167214285Y-147904761D02*
X167214285Y-145904761D01*
X167928571Y-145904761D01*
X168142857Y-148095238D02*
X169285714Y-148095238D01*
X169571428Y-146095238D02*
X169642857Y-146000000D01*
X169785714Y-145904761D01*
X170142857Y-145904761D01*
X170285714Y-146000000D01*
X170357142Y-146095238D01*
X170428571Y-146285714D01*
X170428571Y-146476190D01*
X170357142Y-146761904D01*
X169500000Y-147904761D01*
X170428571Y-147904761D01*
X171357142Y-145904761D02*
X171500000Y-145904761D01*
X171642857Y-146000000D01*
X171714285Y-146095238D01*
X171785714Y-146285714D01*
X171857142Y-146666666D01*
X171857142Y-147142857D01*
X171785714Y-147523809D01*
X171714285Y-147714285D01*
X171642857Y-147809523D01*
X171500000Y-147904761D01*
X171357142Y-147904761D01*
X171214285Y-147809523D01*
X171142857Y-147714285D01*
X171071428Y-147523809D01*
X171000000Y-147142857D01*
X171000000Y-146666666D01*
X171071428Y-146285714D01*
X171142857Y-146095238D01*
X171214285Y-146000000D01*
X171357142Y-145904761D01*
X104095238Y-128071428D02*
X102095238Y-128571428D01*
X104095238Y-129071428D01*
X102190476Y-129500000D02*
X102095238Y-129714285D01*
X102095238Y-130071428D01*
X102190476Y-130214285D01*
X102285714Y-130285714D01*
X102476190Y-130357142D01*
X102666666Y-130357142D01*
X102857142Y-130285714D01*
X102952380Y-130214285D01*
X103047619Y-130071428D01*
X103142857Y-129785714D01*
X103238095Y-129642857D01*
X103333333Y-129571428D01*
X103523809Y-129500000D01*
X103714285Y-129500000D01*
X103904761Y-129571428D01*
X104000000Y-129642857D01*
X104095238Y-129785714D01*
X104095238Y-130142857D01*
X104000000Y-130357142D01*
X102190476Y-130928571D02*
X102095238Y-131142857D01*
X102095238Y-131500000D01*
X102190476Y-131642857D01*
X102285714Y-131714285D01*
X102476190Y-131785714D01*
X102666666Y-131785714D01*
X102857142Y-131714285D01*
X102952380Y-131642857D01*
X103047619Y-131500000D01*
X103142857Y-131214285D01*
X103238095Y-131071428D01*
X103333333Y-131000000D01*
X103523809Y-130928571D01*
X103714285Y-130928571D01*
X103904761Y-131000000D01*
X104000000Y-131071428D01*
X104095238Y-131214285D01*
X104095238Y-131571428D01*
X104000000Y-131785714D01*
X101904761Y-132071428D02*
X101904761Y-133214285D01*
X102095238Y-134357142D02*
X102095238Y-133500000D01*
X102095238Y-133928571D02*
X104095238Y-133928571D01*
X103809523Y-133785714D01*
X103619047Y-133642857D01*
X103523809Y-133500000D01*
X104095238Y-134857142D02*
X102095238Y-135857142D01*
X104095238Y-135857142D02*
X102095238Y-134857142D01*
D13*
X138300000Y-87200000D02*
X138300000Y-82800000D01*
X138300000Y-82800000D02*
X142700000Y-82800000D01*
X142700000Y-82800000D02*
X142700000Y-87200000D01*
X142700000Y-87200000D02*
X138300000Y-87200000D01*
X150700000Y-124000000D02*
G75*
G03*
X150700000Y-124000000I-1200000J0D01*
G01*
X153200000Y-138000000D02*
G75*
G03*
X153200000Y-138000000I-1200000J0D01*
G01*
X122200000Y-116500000D02*
G75*
G03*
X122200000Y-116500000I-1200000J0D01*
G01*
X177700000Y-101500000D02*
G75*
G03*
X177700000Y-101500000I-1200000J0D01*
G01*
X151200000Y-72500000D02*
G75*
G03*
X151200000Y-72500000I-1200000J0D01*
G01*
X175700000Y-56500000D02*
G75*
G03*
X175700000Y-56500000I-1200000J0D01*
G01*
X104700000Y-108000000D02*
G75*
G03*
X104700000Y-108000000I-1200000J0D01*
G01*
X193540000Y-66600000D02*
X194040000Y-66350000D01*
X193540000Y-66100000D02*
X193540000Y-66600000D01*
X194040000Y-66350000D02*
X193540000Y-66100000D01*
X177000000Y-74500000D02*
X171000000Y-74500000D01*
X185000000Y-74500000D02*
X179250000Y-74500000D01*
X185000000Y-83500000D02*
X185000000Y-74500000D01*
X179250000Y-83500000D02*
X185000000Y-83500000D01*
X171000000Y-83500000D02*
X176750000Y-83500000D01*
X171000000Y-74500000D02*
X171000000Y-83500000D01*
X115546267Y-66740000D02*
X115203733Y-66740000D01*
X115546267Y-67760000D02*
X115203733Y-67760000D01*
X125546267Y-66740000D02*
X125203733Y-66740000D01*
X125546267Y-67760000D02*
X125203733Y-67760000D01*
X125546267Y-68490000D02*
X125203733Y-68490000D01*
X125546267Y-69510000D02*
X125203733Y-69510000D01*
X145546267Y-68490000D02*
X145203733Y-68490000D01*
X145546267Y-69510000D02*
X145203733Y-69510000D01*
X115546267Y-70240000D02*
X115203733Y-70240000D01*
X115546267Y-71260000D02*
X115203733Y-71260000D01*
X145546267Y-70240000D02*
X145203733Y-70240000D01*
X145546267Y-71260000D02*
X145203733Y-71260000D01*
X135621267Y-66740000D02*
X135278733Y-66740000D01*
X135621267Y-67760000D02*
X135278733Y-67760000D01*
X115546267Y-68490000D02*
X115203733Y-68490000D01*
X115546267Y-69510000D02*
X115203733Y-69510000D01*
X135671267Y-70240000D02*
X135328733Y-70240000D01*
X135671267Y-71260000D02*
X135328733Y-71260000D01*
X145546267Y-66740000D02*
X145203733Y-66740000D01*
X145546267Y-67760000D02*
X145203733Y-67760000D01*
X135671267Y-68490000D02*
X135328733Y-68490000D01*
X135671267Y-69510000D02*
X135328733Y-69510000D01*
X125546267Y-70240000D02*
X125203733Y-70240000D01*
X125546267Y-71260000D02*
X125203733Y-71260000D01*
X105750000Y-74190000D02*
X102300000Y-74190000D01*
X105750000Y-74190000D02*
X107700000Y-74190000D01*
X105750000Y-79310000D02*
X103800000Y-79310000D01*
X105750000Y-79310000D02*
X107700000Y-79310000D01*
X113690000Y-82480000D02*
X114449000Y-82480000D01*
X115209000Y-81181000D02*
X115209000Y-82595000D01*
X113690000Y-81181000D02*
X113690000Y-83780000D01*
X113690000Y-83780000D02*
X114815000Y-83780000D01*
X113690000Y-81181000D02*
X115209000Y-81181000D01*
X134500000Y-84905000D02*
X134500000Y-85015000D01*
X134500000Y-79945000D02*
X134500000Y-82595000D01*
X115210000Y-84905000D02*
X115210000Y-85015000D01*
X115210000Y-79945000D02*
X115210000Y-82595000D01*
X115210000Y-85015000D02*
X134500000Y-85015000D01*
X115210000Y-79945000D02*
X134500000Y-79945000D01*
X103988748Y-82960000D02*
X104511252Y-82960000D01*
X103988748Y-81540000D02*
X104511252Y-81540000D01*
X112460000Y-77511252D02*
X112460000Y-76988748D01*
X111040000Y-77511252D02*
X111040000Y-76988748D01*
X149046267Y-56990000D02*
X148703733Y-56990000D01*
X149046267Y-58010000D02*
X148703733Y-58010000D01*
X157500000Y-56010000D02*
X157250000Y-56510000D01*
X157250000Y-56510000D02*
X157750000Y-56510000D01*
X157750000Y-56510000D02*
X157500000Y-56010000D01*
X113750000Y-79250000D02*
X122750000Y-79250000D01*
X122750000Y-79250000D02*
X122750000Y-73500000D01*
X122750000Y-71000000D02*
X122750000Y-65250000D01*
X122750000Y-65250000D02*
X113750000Y-65250000D01*
X113750000Y-65250000D02*
X113750000Y-71000000D01*
X113750000Y-73250000D02*
X113750000Y-79250000D01*
X133750000Y-79250000D02*
X142750000Y-79250000D01*
X142750000Y-79250000D02*
X142750000Y-73500000D01*
X142750000Y-71000000D02*
X142750000Y-65250000D01*
X142750000Y-65250000D02*
X133750000Y-65250000D01*
X133750000Y-65250000D02*
X133750000Y-71000000D01*
X133750000Y-73250000D02*
X133750000Y-79250000D01*
X134500000Y-56010000D02*
X134250000Y-56510000D01*
X134250000Y-56510000D02*
X134750000Y-56510000D01*
X134750000Y-56510000D02*
X134500000Y-56010000D01*
X123750000Y-79250000D02*
X132750000Y-79250000D01*
X132750000Y-79250000D02*
X132750000Y-73500000D01*
X132750000Y-71000000D02*
X132750000Y-65250000D01*
X132750000Y-65250000D02*
X123750000Y-65250000D01*
X123750000Y-65250000D02*
X123750000Y-71000000D01*
X123750000Y-73250000D02*
X123750000Y-79250000D01*
X143750000Y-79250000D02*
X152750000Y-79250000D01*
X152750000Y-79250000D02*
X152750000Y-73500000D01*
X152750000Y-71000000D02*
X152750000Y-65250000D01*
X152750000Y-65250000D02*
X143750000Y-65250000D01*
X143750000Y-65250000D02*
X143750000Y-71000000D01*
X143750000Y-73250000D02*
X143750000Y-79250000D01*
X119170000Y-64510000D02*
X119170000Y-63050000D01*
X122330000Y-64510000D02*
X122330000Y-62350000D01*
X122330000Y-64510000D02*
X121400000Y-64510000D01*
X119170000Y-64510000D02*
X120100000Y-64510000D01*
X129170000Y-64510000D02*
X129170000Y-63050000D01*
X132330000Y-64510000D02*
X132330000Y-62350000D01*
X132330000Y-64510000D02*
X131400000Y-64510000D01*
X129170000Y-64510000D02*
X130100000Y-64510000D01*
X139170000Y-64510000D02*
X139170000Y-63050000D01*
X142330000Y-64510000D02*
X142330000Y-62350000D01*
X142330000Y-64510000D02*
X141400000Y-64510000D01*
X139170000Y-64510000D02*
X140100000Y-64510000D01*
X149170000Y-64510000D02*
X149170000Y-63050000D01*
X152330000Y-64510000D02*
X152330000Y-62350000D01*
X152330000Y-64510000D02*
X151400000Y-64510000D01*
X149170000Y-64510000D02*
X150100000Y-64510000D01*
X108488748Y-82960000D02*
X109011252Y-82960000D01*
X108488748Y-81540000D02*
X109011252Y-81540000D01*
X109463748Y-73460000D02*
X109986252Y-73460000D01*
X109463748Y-72040000D02*
X109986252Y-72040000D01*
X133990000Y-56953733D02*
X133990000Y-57296267D01*
X135010000Y-56953733D02*
X135010000Y-57296267D01*
X164515000Y-99710000D02*
X164515000Y-108710000D01*
X164515000Y-108710000D02*
X170265000Y-108710000D01*
X172765000Y-108710000D02*
X178515000Y-108710000D01*
X178515000Y-108710000D02*
X178515000Y-99710000D01*
X178515000Y-99710000D02*
X172765000Y-99710000D01*
X170515000Y-99710000D02*
X164515000Y-99710000D01*
X164515000Y-87695000D02*
X164515000Y-96695000D01*
X164515000Y-96695000D02*
X170265000Y-96695000D01*
X172765000Y-96695000D02*
X178515000Y-96695000D01*
X178515000Y-96695000D02*
X178515000Y-87695000D01*
X178515000Y-87695000D02*
X172765000Y-87695000D01*
X170515000Y-87695000D02*
X164515000Y-87695000D01*
X136500000Y-142540000D02*
X136500000Y-133540000D01*
X136500000Y-133540000D02*
X130750000Y-133540000D01*
X128250000Y-133540000D02*
X122500000Y-133540000D01*
X122500000Y-133540000D02*
X122500000Y-142540000D01*
X122500000Y-142540000D02*
X128250000Y-142540000D01*
X130500000Y-142540000D02*
X136500000Y-142540000D01*
X176210000Y-71500000D02*
X185210000Y-71500000D01*
X185210000Y-71500000D02*
X185210000Y-65750000D01*
X185210000Y-63250000D02*
X185210000Y-57500000D01*
X185210000Y-57500000D02*
X176210000Y-57500000D01*
X176210000Y-57500000D02*
X176210000Y-63250000D01*
X176210000Y-65500000D02*
X176210000Y-71500000D01*
X158000000Y-139000000D02*
X167000000Y-139000000D01*
X167000000Y-139000000D02*
X167000000Y-133250000D01*
X167000000Y-130750000D02*
X167000000Y-125000000D01*
X167000000Y-125000000D02*
X158000000Y-125000000D01*
X158000000Y-125000000D02*
X158000000Y-130750000D01*
X158000000Y-133000000D02*
X158000000Y-139000000D01*
X122500000Y-122460000D02*
X122500000Y-131460000D01*
X122500000Y-131460000D02*
X128250000Y-131460000D01*
X130750000Y-131460000D02*
X136500000Y-131460000D01*
X136500000Y-131460000D02*
X136500000Y-122460000D01*
X136500000Y-122460000D02*
X130750000Y-122460000D01*
X128500000Y-122460000D02*
X122500000Y-122460000D01*
X121750000Y-99790000D02*
X121750000Y-90790000D01*
X121750000Y-90790000D02*
X116000000Y-90790000D01*
X113500000Y-90790000D02*
X107750000Y-90790000D01*
X107750000Y-90790000D02*
X107750000Y-99790000D01*
X107750000Y-99790000D02*
X113500000Y-99790000D01*
X115750000Y-99790000D02*
X121750000Y-99790000D01*
X180203733Y-104260000D02*
X180546267Y-104260000D01*
X180203733Y-103240000D02*
X180546267Y-103240000D01*
X180203733Y-102260000D02*
X180546267Y-102260000D01*
X180203733Y-101240000D02*
X180546267Y-101240000D01*
X180203733Y-100260000D02*
X180546267Y-100260000D01*
X180203733Y-99240000D02*
X180546267Y-99240000D01*
X178760000Y-89046267D02*
X178760000Y-88703733D01*
X177740000Y-89046267D02*
X177740000Y-88703733D01*
X176760000Y-89046267D02*
X176760000Y-88703733D01*
X175740000Y-89046267D02*
X175740000Y-88703733D01*
X174760000Y-89046267D02*
X174760000Y-88703733D01*
X173740000Y-89046267D02*
X173740000Y-88703733D01*
X188190000Y-100750000D02*
X188190000Y-104200000D01*
X188190000Y-100750000D02*
X188190000Y-98800000D01*
X193310000Y-100750000D02*
X193310000Y-102700000D01*
X193310000Y-100750000D02*
X193310000Y-98800000D01*
X187980000Y-140060000D02*
X187980000Y-139301000D01*
X186681000Y-138541000D02*
X188095000Y-138541000D01*
X186681000Y-140060000D02*
X189280000Y-140060000D01*
X189280000Y-140060000D02*
X189280000Y-138935000D01*
X186681000Y-140060000D02*
X186681000Y-138541000D01*
X190405000Y-119250000D02*
X190515000Y-119250000D01*
X185445000Y-119250000D02*
X188095000Y-119250000D01*
X190405000Y-138540000D02*
X190515000Y-138540000D01*
X185445000Y-138540000D02*
X188095000Y-138540000D01*
X190515000Y-138540000D02*
X190515000Y-119250000D01*
X185445000Y-138540000D02*
X185445000Y-119250000D01*
X197460000Y-101486252D02*
X197460000Y-100963748D01*
X196040000Y-101486252D02*
X196040000Y-100963748D01*
X194210000Y-132761252D02*
X194210000Y-132238748D01*
X192790000Y-132761252D02*
X192790000Y-132238748D01*
X194040000Y-114750000D02*
X193540000Y-114500000D01*
X193540000Y-114500000D02*
X193540000Y-115000000D01*
X193540000Y-115000000D02*
X194040000Y-114750000D01*
X194040000Y-85750000D02*
X193540000Y-85500000D01*
X193540000Y-85500000D02*
X193540000Y-86000000D01*
X193540000Y-86000000D02*
X194040000Y-85750000D01*
X192210000Y-94511252D02*
X192210000Y-93988748D01*
X190790000Y-94511252D02*
X190790000Y-93988748D01*
X188040000Y-106963748D02*
X188040000Y-107486252D01*
X189460000Y-106963748D02*
X189460000Y-107486252D01*
X154325000Y-133195000D02*
X157775000Y-133195000D01*
X154325000Y-133195000D02*
X152375000Y-133195000D01*
X154325000Y-128075000D02*
X156275000Y-128075000D01*
X154325000Y-128075000D02*
X152375000Y-128075000D01*
X177946500Y-126100000D02*
X177946500Y-127300000D01*
X173946500Y-126100000D02*
X177946500Y-126100000D01*
X177946500Y-130900000D02*
X175246500Y-130900000D01*
X177946500Y-129700000D02*
X177946500Y-130900000D01*
X163775000Y-57575000D02*
X160325000Y-57575000D01*
X163775000Y-57575000D02*
X165725000Y-57575000D01*
X163775000Y-62695000D02*
X161825000Y-62695000D01*
X163775000Y-62695000D02*
X165725000Y-62695000D01*
X156095000Y-121000000D02*
X156095000Y-124450000D01*
X156095000Y-121000000D02*
X156095000Y-119050000D01*
X161215000Y-121000000D02*
X161215000Y-122950000D01*
X161215000Y-121000000D02*
X161215000Y-119050000D01*
X131500000Y-114440000D02*
X128050000Y-114440000D01*
X131500000Y-114440000D02*
X133450000Y-114440000D01*
X131500000Y-119560000D02*
X129550000Y-119560000D01*
X131500000Y-119560000D02*
X133450000Y-119560000D01*
X112750000Y-105945000D02*
X116200000Y-105945000D01*
X112750000Y-105945000D02*
X110800000Y-105945000D01*
X112750000Y-100825000D02*
X114700000Y-100825000D01*
X112750000Y-100825000D02*
X110800000Y-100825000D01*
X142980000Y-147530000D02*
X142980000Y-146771000D01*
X141681000Y-146011000D02*
X143095000Y-146011000D01*
X141681000Y-147530000D02*
X144280000Y-147530000D01*
X144280000Y-147530000D02*
X144280000Y-146405000D01*
X141681000Y-147530000D02*
X141681000Y-146011000D01*
X145405000Y-126720000D02*
X145515000Y-126720000D01*
X140445000Y-126720000D02*
X143095000Y-126720000D01*
X145405000Y-146010000D02*
X145515000Y-146010000D01*
X140445000Y-146010000D02*
X143095000Y-146010000D01*
X145515000Y-146010000D02*
X145515000Y-126720000D01*
X140445000Y-146010000D02*
X140445000Y-126720000D01*
X154190000Y-70230000D02*
X154949000Y-70230000D01*
X155709000Y-68931000D02*
X155709000Y-70345000D01*
X154190000Y-68931000D02*
X154190000Y-71530000D01*
X154190000Y-71530000D02*
X155315000Y-71530000D01*
X154190000Y-68931000D02*
X155709000Y-68931000D01*
X175000000Y-72655000D02*
X175000000Y-72765000D01*
X175000000Y-67695000D02*
X175000000Y-70345000D01*
X155710000Y-72655000D02*
X155710000Y-72765000D01*
X155710000Y-67695000D02*
X155710000Y-70345000D01*
X155710000Y-72765000D02*
X175000000Y-72765000D01*
X155710000Y-67695000D02*
X175000000Y-67695000D01*
X170810000Y-113270000D02*
X170051000Y-113270000D01*
X169291000Y-114569000D02*
X169291000Y-113155000D01*
X170810000Y-114569000D02*
X170810000Y-111970000D01*
X170810000Y-111970000D02*
X169685000Y-111970000D01*
X170810000Y-114569000D02*
X169291000Y-114569000D01*
X150000000Y-110845000D02*
X150000000Y-110735000D01*
X150000000Y-115805000D02*
X150000000Y-113155000D01*
X169290000Y-110845000D02*
X169290000Y-110735000D01*
X169290000Y-115805000D02*
X169290000Y-113155000D01*
X169290000Y-110735000D02*
X150000000Y-110735000D01*
X169290000Y-115805000D02*
X150000000Y-115805000D01*
X114770000Y-144400000D02*
X114770000Y-143641000D01*
X113471000Y-142881000D02*
X114885000Y-142881000D01*
X113471000Y-144400000D02*
X116070000Y-144400000D01*
X116070000Y-144400000D02*
X116070000Y-143275000D01*
X113471000Y-144400000D02*
X113471000Y-142881000D01*
X117195000Y-123590000D02*
X117305000Y-123590000D01*
X112235000Y-123590000D02*
X114885000Y-123590000D01*
X117195000Y-142880000D02*
X117305000Y-142880000D01*
X112235000Y-142880000D02*
X114885000Y-142880000D01*
X117305000Y-142880000D02*
X117305000Y-123590000D01*
X112235000Y-142880000D02*
X112235000Y-123590000D01*
X126980000Y-110560000D02*
X126980000Y-109801000D01*
X125681000Y-109041000D02*
X127095000Y-109041000D01*
X125681000Y-110560000D02*
X128280000Y-110560000D01*
X128280000Y-110560000D02*
X128280000Y-109435000D01*
X125681000Y-110560000D02*
X125681000Y-109041000D01*
X129405000Y-89750000D02*
X129515000Y-89750000D01*
X124445000Y-89750000D02*
X127095000Y-89750000D01*
X129405000Y-109040000D02*
X129515000Y-109040000D01*
X124445000Y-109040000D02*
X127095000Y-109040000D01*
X129515000Y-109040000D02*
X129515000Y-89750000D01*
X124445000Y-109040000D02*
X124445000Y-89750000D01*
X123828733Y-122010000D02*
X124171267Y-122010000D01*
X123828733Y-120990000D02*
X124171267Y-120990000D01*
X162238748Y-65960000D02*
X162761252Y-65960000D01*
X162238748Y-64540000D02*
X162761252Y-64540000D01*
X147290000Y-129513748D02*
X147290000Y-130036252D01*
X148710000Y-129513748D02*
X148710000Y-130036252D01*
X167453733Y-130510000D02*
X167796267Y-130510000D01*
X167453733Y-129490000D02*
X167796267Y-129490000D01*
X169238748Y-66710000D02*
X169761252Y-66710000D01*
X169238748Y-65290000D02*
X169761252Y-65290000D01*
X169738748Y-120210000D02*
X170261252Y-120210000D01*
X169738748Y-118790000D02*
X170261252Y-118790000D01*
X132763748Y-123210000D02*
X133286252Y-123210000D01*
X132763748Y-121790000D02*
X133286252Y-121790000D01*
X114786252Y-108540000D02*
X114263748Y-108540000D01*
X114786252Y-109960000D02*
X114263748Y-109960000D01*
X152486252Y-117040000D02*
X151963748Y-117040000D01*
X152486252Y-118460000D02*
X151963748Y-118460000D01*
X121210000Y-142736252D02*
X121210000Y-142213748D01*
X119790000Y-142736252D02*
X119790000Y-142213748D01*
X123210000Y-108236252D02*
X123210000Y-107713748D01*
X121790000Y-108236252D02*
X121790000Y-107713748D01*
X105960000Y-121500000D02*
X106460000Y-121750000D01*
X106460000Y-121750000D02*
X106460000Y-121250000D01*
X106460000Y-121250000D02*
X105960000Y-121500000D01*
X183250000Y-56010000D02*
X183000000Y-56510000D01*
X183000000Y-56510000D02*
X183500000Y-56510000D01*
X183500000Y-56510000D02*
X183250000Y-56010000D01*
X129500000Y-143990000D02*
X129750000Y-143490000D01*
X129750000Y-143490000D02*
X129250000Y-143490000D01*
X129250000Y-143490000D02*
X129500000Y-143990000D01*
X179000000Y-143990000D02*
X179250000Y-143490000D01*
X179250000Y-143490000D02*
X178750000Y-143490000D01*
X178750000Y-143490000D02*
X179000000Y-143990000D01*
X105960000Y-92750000D02*
X106460000Y-93000000D01*
X106460000Y-93000000D02*
X106460000Y-92500000D01*
X106460000Y-92500000D02*
X105960000Y-92750000D01*
X141350000Y-109970000D02*
X141350000Y-104190000D01*
X136250000Y-109970000D02*
X136250000Y-104190000D01*
X135130000Y-109970000D02*
X135130000Y-104190000D01*
X141870000Y-109970000D02*
X141870000Y-104190000D01*
X135130000Y-109970000D02*
X141870000Y-109970000D01*
X135130000Y-104190000D02*
X141870000Y-104190000D01*
X141470000Y-110210000D02*
X142110000Y-110210000D01*
X142110000Y-110210000D02*
X142110000Y-109810000D01*
X139370000Y-91000000D02*
X136630000Y-91000000D01*
X136630000Y-91000000D02*
X136630000Y-97540000D01*
X136630000Y-97540000D02*
X139370000Y-97540000D01*
X139370000Y-97540000D02*
X139370000Y-91000000D01*
X138000000Y-90230000D02*
X138000000Y-91000000D01*
X138000000Y-98310000D02*
X138000000Y-97540000D01*
X132260000Y-131080000D02*
X130800000Y-131080000D01*
X132260000Y-127920000D02*
X130100000Y-127920000D01*
X132260000Y-127920000D02*
X132260000Y-128850000D01*
X132260000Y-131080000D02*
X132260000Y-130150000D01*
X126740000Y-133920000D02*
X128200000Y-133920000D01*
X126740000Y-137080000D02*
X128900000Y-137080000D01*
X126740000Y-137080000D02*
X126740000Y-136150000D01*
X126740000Y-133920000D02*
X126740000Y-134850000D01*
X143970000Y-91550000D02*
X141030000Y-91550000D01*
X141030000Y-91550000D02*
X141030000Y-96990000D01*
X141030000Y-96990000D02*
X143970000Y-96990000D01*
X143970000Y-96990000D02*
X143970000Y-91550000D01*
X142500000Y-90330000D02*
X142500000Y-91550000D01*
X142500000Y-98210000D02*
X142500000Y-96990000D01*
X143970000Y-92450000D02*
X141030000Y-92450000D01*
X143970000Y-92570000D02*
X141030000Y-92570000D01*
X143970000Y-92330000D02*
X141030000Y-92330000D01*
X130010000Y-140546267D02*
X130010000Y-140203733D01*
X128990000Y-140546267D02*
X128990000Y-140203733D01*
X155210000Y-124511252D02*
X155210000Y-123988748D01*
X153790000Y-124511252D02*
X153790000Y-123988748D01*
X147290000Y-133988748D02*
X147290000Y-134511252D01*
X148710000Y-133988748D02*
X148710000Y-134511252D01*
X121171267Y-137490000D02*
X120828733Y-137490000D01*
X121171267Y-138510000D02*
X120828733Y-138510000D01*
X176740000Y-60203733D02*
X176740000Y-60546267D01*
X177760000Y-60203733D02*
X177760000Y-60546267D01*
X120453733Y-132260000D02*
X120796267Y-132260000D01*
X120453733Y-131240000D02*
X120796267Y-131240000D01*
X173990000Y-60203733D02*
X173990000Y-60546267D01*
X175010000Y-60203733D02*
X175010000Y-60546267D01*
X120453733Y-135260000D02*
X120796267Y-135260000D01*
X120453733Y-134240000D02*
X120796267Y-134240000D01*
X171240000Y-60203733D02*
X171240000Y-60546267D01*
X172260000Y-60203733D02*
X172260000Y-60546267D01*
X167453733Y-132260000D02*
X167796267Y-132260000D01*
X167453733Y-131240000D02*
X167796267Y-131240000D01*
X165510000Y-123296267D02*
X165510000Y-122953733D01*
X164490000Y-123296267D02*
X164490000Y-122953733D01*
X138510000Y-124796267D02*
X138510000Y-124453733D01*
X137490000Y-124796267D02*
X137490000Y-124453733D01*
X110453733Y-98260000D02*
X110796267Y-98260000D01*
X110453733Y-97240000D02*
X110796267Y-97240000D01*
X178490000Y-140703733D02*
X178490000Y-141046267D01*
X179510000Y-140703733D02*
X179510000Y-141046267D01*
X170171267Y-126490000D02*
X169828733Y-126490000D01*
X170171267Y-127510000D02*
X169828733Y-127510000D01*
X167453733Y-134010000D02*
X167796267Y-134010000D01*
X167453733Y-132990000D02*
X167796267Y-132990000D01*
X167510000Y-123296267D02*
X167510000Y-122953733D01*
X166490000Y-123296267D02*
X166490000Y-122953733D01*
X137490000Y-128953733D02*
X137490000Y-129296267D01*
X138510000Y-128953733D02*
X138510000Y-129296267D01*
X107046267Y-99490000D02*
X106703733Y-99490000D01*
X107046267Y-100510000D02*
X106703733Y-100510000D01*
X168540000Y-60238748D02*
X168540000Y-60761252D01*
X169960000Y-60238748D02*
X169960000Y-60761252D01*
X168960000Y-136786252D02*
X168960000Y-136263748D01*
X167540000Y-136786252D02*
X167540000Y-136263748D01*
X163510000Y-123296267D02*
X163510000Y-122953733D01*
X162490000Y-123296267D02*
X162490000Y-122953733D01*
X157340000Y-60763748D02*
X157340000Y-61286252D01*
X158760000Y-60763748D02*
X158760000Y-61286252D01*
X138328733Y-121510000D02*
X138671267Y-121510000D01*
X138328733Y-120490000D02*
X138671267Y-120490000D01*
X152486252Y-119290000D02*
X151963748Y-119290000D01*
X152486252Y-120710000D02*
X151963748Y-120710000D01*
X138710000Y-116736252D02*
X138710000Y-116213748D01*
X137290000Y-116736252D02*
X137290000Y-116213748D01*
X107011252Y-103640000D02*
X106488748Y-103640000D01*
X107011252Y-105060000D02*
X106488748Y-105060000D01*
X107046267Y-101240000D02*
X106703733Y-101240000D01*
X107046267Y-102260000D02*
X106703733Y-102260000D01*
X156736252Y-134790000D02*
X156213748Y-134790000D01*
X156736252Y-136210000D02*
X156213748Y-136210000D01*
X124790000Y-115263748D02*
X124790000Y-115786252D01*
X126210000Y-115263748D02*
X126210000Y-115786252D01*
X119710000Y-104486252D02*
X119710000Y-103963748D01*
X118290000Y-104486252D02*
X118290000Y-103963748D01*
D14*
X137054380Y-86261904D02*
X137054380Y-85690476D01*
X138054380Y-85976190D02*
X137054380Y-85976190D01*
X138054380Y-85357142D02*
X137054380Y-85357142D01*
X137054380Y-84976190D01*
X137102000Y-84880952D01*
X137149619Y-84833333D01*
X137244857Y-84785714D01*
X137387714Y-84785714D01*
X137482952Y-84833333D01*
X137530571Y-84880952D01*
X137578190Y-84976190D01*
X137578190Y-85357142D01*
X138054380Y-84309523D02*
X138054380Y-84119047D01*
X138006761Y-84023809D01*
X137959142Y-83976190D01*
X137816285Y-83880952D01*
X137625809Y-83833333D01*
X137244857Y-83833333D01*
X137149619Y-83880952D01*
X137102000Y-83928571D01*
X137054380Y-84023809D01*
X137054380Y-84214285D01*
X137102000Y-84309523D01*
X137149619Y-84357142D01*
X137244857Y-84404761D01*
X137482952Y-84404761D01*
X137578190Y-84357142D01*
X137625809Y-84309523D01*
X137673428Y-84214285D01*
X137673428Y-84023809D01*
X137625809Y-83928571D01*
X137578190Y-83880952D01*
X137482952Y-83833333D01*
X148238095Y-121454380D02*
X148809523Y-121454380D01*
X148523809Y-122454380D02*
X148523809Y-121454380D01*
X149142857Y-122454380D02*
X149142857Y-121454380D01*
X149523809Y-121454380D01*
X149619047Y-121502000D01*
X149666666Y-121549619D01*
X149714285Y-121644857D01*
X149714285Y-121787714D01*
X149666666Y-121882952D01*
X149619047Y-121930571D01*
X149523809Y-121978190D01*
X149142857Y-121978190D01*
X150285714Y-121882952D02*
X150190476Y-121835333D01*
X150142857Y-121787714D01*
X150095238Y-121692476D01*
X150095238Y-121644857D01*
X150142857Y-121549619D01*
X150190476Y-121502000D01*
X150285714Y-121454380D01*
X150476190Y-121454380D01*
X150571428Y-121502000D01*
X150619047Y-121549619D01*
X150666666Y-121644857D01*
X150666666Y-121692476D01*
X150619047Y-121787714D01*
X150571428Y-121835333D01*
X150476190Y-121882952D01*
X150285714Y-121882952D01*
X150190476Y-121930571D01*
X150142857Y-121978190D01*
X150095238Y-122073428D01*
X150095238Y-122263904D01*
X150142857Y-122359142D01*
X150190476Y-122406761D01*
X150285714Y-122454380D01*
X150476190Y-122454380D01*
X150571428Y-122406761D01*
X150619047Y-122359142D01*
X150666666Y-122263904D01*
X150666666Y-122073428D01*
X150619047Y-121978190D01*
X150571428Y-121930571D01*
X150476190Y-121882952D01*
X150738095Y-135454380D02*
X151309523Y-135454380D01*
X151023809Y-136454380D02*
X151023809Y-135454380D01*
X151642857Y-136454380D02*
X151642857Y-135454380D01*
X152023809Y-135454380D01*
X152119047Y-135502000D01*
X152166666Y-135549619D01*
X152214285Y-135644857D01*
X152214285Y-135787714D01*
X152166666Y-135882952D01*
X152119047Y-135930571D01*
X152023809Y-135978190D01*
X151642857Y-135978190D01*
X153071428Y-135454380D02*
X152880952Y-135454380D01*
X152785714Y-135502000D01*
X152738095Y-135549619D01*
X152642857Y-135692476D01*
X152595238Y-135882952D01*
X152595238Y-136263904D01*
X152642857Y-136359142D01*
X152690476Y-136406761D01*
X152785714Y-136454380D01*
X152976190Y-136454380D01*
X153071428Y-136406761D01*
X153119047Y-136359142D01*
X153166666Y-136263904D01*
X153166666Y-136025809D01*
X153119047Y-135930571D01*
X153071428Y-135882952D01*
X152976190Y-135835333D01*
X152785714Y-135835333D01*
X152690476Y-135882952D01*
X152642857Y-135930571D01*
X152595238Y-136025809D01*
X119738095Y-113954380D02*
X120309523Y-113954380D01*
X120023809Y-114954380D02*
X120023809Y-113954380D01*
X120642857Y-114954380D02*
X120642857Y-113954380D01*
X121023809Y-113954380D01*
X121119047Y-114002000D01*
X121166666Y-114049619D01*
X121214285Y-114144857D01*
X121214285Y-114287714D01*
X121166666Y-114382952D01*
X121119047Y-114430571D01*
X121023809Y-114478190D01*
X120642857Y-114478190D01*
X122119047Y-113954380D02*
X121642857Y-113954380D01*
X121595238Y-114430571D01*
X121642857Y-114382952D01*
X121738095Y-114335333D01*
X121976190Y-114335333D01*
X122071428Y-114382952D01*
X122119047Y-114430571D01*
X122166666Y-114525809D01*
X122166666Y-114763904D01*
X122119047Y-114859142D01*
X122071428Y-114906761D01*
X121976190Y-114954380D01*
X121738095Y-114954380D01*
X121642857Y-114906761D01*
X121595238Y-114859142D01*
X175238095Y-98954380D02*
X175809523Y-98954380D01*
X175523809Y-99954380D02*
X175523809Y-98954380D01*
X176142857Y-99954380D02*
X176142857Y-98954380D01*
X176523809Y-98954380D01*
X176619047Y-99002000D01*
X176666666Y-99049619D01*
X176714285Y-99144857D01*
X176714285Y-99287714D01*
X176666666Y-99382952D01*
X176619047Y-99430571D01*
X176523809Y-99478190D01*
X176142857Y-99478190D01*
X177571428Y-99287714D02*
X177571428Y-99954380D01*
X177333333Y-98906761D02*
X177095238Y-99621047D01*
X177714285Y-99621047D01*
X147454380Y-73761904D02*
X147454380Y-73190476D01*
X148454380Y-73476190D02*
X147454380Y-73476190D01*
X148454380Y-72857142D02*
X147454380Y-72857142D01*
X147454380Y-72476190D01*
X147502000Y-72380952D01*
X147549619Y-72333333D01*
X147644857Y-72285714D01*
X147787714Y-72285714D01*
X147882952Y-72333333D01*
X147930571Y-72380952D01*
X147978190Y-72476190D01*
X147978190Y-72857142D01*
X147454380Y-71952380D02*
X147454380Y-71333333D01*
X147835333Y-71666666D01*
X147835333Y-71523809D01*
X147882952Y-71428571D01*
X147930571Y-71380952D01*
X148025809Y-71333333D01*
X148263904Y-71333333D01*
X148359142Y-71380952D01*
X148406761Y-71428571D01*
X148454380Y-71523809D01*
X148454380Y-71809523D01*
X148406761Y-71904761D01*
X148359142Y-71952380D01*
X171952380Y-57761904D02*
X171952380Y-57190476D01*
X172952380Y-57476190D02*
X171952380Y-57476190D01*
X172952380Y-56857142D02*
X171952380Y-56857142D01*
X171952380Y-56476190D01*
X172000000Y-56380952D01*
X172047619Y-56333333D01*
X172142857Y-56285714D01*
X172285714Y-56285714D01*
X172380952Y-56333333D01*
X172428571Y-56380952D01*
X172476190Y-56476190D01*
X172476190Y-56857142D01*
X172047619Y-55904761D02*
X172000000Y-55857142D01*
X171952380Y-55761904D01*
X171952380Y-55523809D01*
X172000000Y-55428571D01*
X172047619Y-55380952D01*
X172142857Y-55333333D01*
X172238095Y-55333333D01*
X172380952Y-55380952D01*
X172952380Y-55952380D01*
X172952380Y-55333333D01*
X102238095Y-105454380D02*
X102809523Y-105454380D01*
X102523809Y-106454380D02*
X102523809Y-105454380D01*
X103142857Y-106454380D02*
X103142857Y-105454380D01*
X103523809Y-105454380D01*
X103619047Y-105502000D01*
X103666666Y-105549619D01*
X103714285Y-105644857D01*
X103714285Y-105787714D01*
X103666666Y-105882952D01*
X103619047Y-105930571D01*
X103523809Y-105978190D01*
X103142857Y-105978190D01*
X104666666Y-106454380D02*
X104095238Y-106454380D01*
X104380952Y-106454380D02*
X104380952Y-105454380D01*
X104285714Y-105597238D01*
X104190476Y-105692476D01*
X104095238Y-105740095D01*
X165928571Y-55071428D02*
X165928571Y-55404761D01*
X166452380Y-55404761D02*
X165452380Y-55404761D01*
X165452380Y-54928571D01*
X166452380Y-54547619D02*
X165452380Y-54547619D01*
X166452380Y-54071428D02*
X165452380Y-54071428D01*
X165452380Y-53833333D01*
X165500000Y-53690476D01*
X165595238Y-53595238D01*
X165690476Y-53547619D01*
X165880952Y-53500000D01*
X166023809Y-53500000D01*
X166214285Y-53547619D01*
X166309523Y-53595238D01*
X166404761Y-53690476D01*
X166452380Y-53833333D01*
X166452380Y-54071428D01*
X165452380Y-52642857D02*
X165452380Y-52833333D01*
X165500000Y-52928571D01*
X165547619Y-52976190D01*
X165690476Y-53071428D01*
X165880952Y-53119047D01*
X166261904Y-53119047D01*
X166357142Y-53071428D01*
X166404761Y-53023809D01*
X166452380Y-52928571D01*
X166452380Y-52738095D01*
X166404761Y-52642857D01*
X166357142Y-52595238D01*
X166261904Y-52547619D01*
X166023809Y-52547619D01*
X165928571Y-52595238D01*
X165880952Y-52642857D01*
X165833333Y-52738095D01*
X165833333Y-52928571D01*
X165880952Y-53023809D01*
X165928571Y-53071428D01*
X166023809Y-53119047D01*
X155928571Y-143388571D02*
X155595238Y-143388571D01*
X155595238Y-143912380D02*
X155595238Y-142912380D01*
X156071428Y-142912380D01*
X156452380Y-143912380D02*
X156452380Y-142912380D01*
X156928571Y-143912380D02*
X156928571Y-142912380D01*
X157166666Y-142912380D01*
X157309523Y-142960000D01*
X157404761Y-143055238D01*
X157452380Y-143150476D01*
X157500000Y-143340952D01*
X157500000Y-143483809D01*
X157452380Y-143674285D01*
X157404761Y-143769523D01*
X157309523Y-143864761D01*
X157166666Y-143912380D01*
X156928571Y-143912380D01*
X158404761Y-142912380D02*
X157928571Y-142912380D01*
X157880952Y-143388571D01*
X157928571Y-143340952D01*
X158023809Y-143293333D01*
X158261904Y-143293333D01*
X158357142Y-143340952D01*
X158404761Y-143388571D01*
X158452380Y-143483809D01*
X158452380Y-143721904D01*
X158404761Y-143817142D01*
X158357142Y-143864761D01*
X158261904Y-143912380D01*
X158023809Y-143912380D01*
X157928571Y-143864761D01*
X157880952Y-143817142D01*
X183928571Y-92888571D02*
X183595238Y-92888571D01*
X183595238Y-93412380D02*
X183595238Y-92412380D01*
X184071428Y-92412380D01*
X184452380Y-93412380D02*
X184452380Y-92412380D01*
X184928571Y-93412380D02*
X184928571Y-92412380D01*
X185166666Y-92412380D01*
X185309523Y-92460000D01*
X185404761Y-92555238D01*
X185452380Y-92650476D01*
X185500000Y-92840952D01*
X185500000Y-92983809D01*
X185452380Y-93174285D01*
X185404761Y-93269523D01*
X185309523Y-93364761D01*
X185166666Y-93412380D01*
X184928571Y-93412380D01*
X186357142Y-92745714D02*
X186357142Y-93412380D01*
X186119047Y-92364761D02*
X185880952Y-93079047D01*
X186500000Y-93079047D01*
X142928571Y-112888571D02*
X142595238Y-112888571D01*
X142595238Y-113412380D02*
X142595238Y-112412380D01*
X143071428Y-112412380D01*
X143452380Y-113412380D02*
X143452380Y-112412380D01*
X143928571Y-113412380D02*
X143928571Y-112412380D01*
X144166666Y-112412380D01*
X144309523Y-112460000D01*
X144404761Y-112555238D01*
X144452380Y-112650476D01*
X144500000Y-112840952D01*
X144500000Y-112983809D01*
X144452380Y-113174285D01*
X144404761Y-113269523D01*
X144309523Y-113364761D01*
X144166666Y-113412380D01*
X143928571Y-113412380D01*
X144833333Y-112412380D02*
X145452380Y-112412380D01*
X145119047Y-112793333D01*
X145261904Y-112793333D01*
X145357142Y-112840952D01*
X145404761Y-112888571D01*
X145452380Y-112983809D01*
X145452380Y-113221904D01*
X145404761Y-113317142D01*
X145357142Y-113364761D01*
X145261904Y-113412380D01*
X144976190Y-113412380D01*
X144880952Y-113364761D01*
X144833333Y-113317142D01*
X106428571Y-108388571D02*
X106095238Y-108388571D01*
X106095238Y-108912380D02*
X106095238Y-107912380D01*
X106571428Y-107912380D01*
X106952380Y-108912380D02*
X106952380Y-107912380D01*
X107428571Y-108912380D02*
X107428571Y-107912380D01*
X107666666Y-107912380D01*
X107809523Y-107960000D01*
X107904761Y-108055238D01*
X107952380Y-108150476D01*
X108000000Y-108340952D01*
X108000000Y-108483809D01*
X107952380Y-108674285D01*
X107904761Y-108769523D01*
X107809523Y-108864761D01*
X107666666Y-108912380D01*
X107428571Y-108912380D01*
X108380952Y-108007619D02*
X108428571Y-107960000D01*
X108523809Y-107912380D01*
X108761904Y-107912380D01*
X108857142Y-107960000D01*
X108904761Y-108007619D01*
X108952380Y-108102857D01*
X108952380Y-108198095D01*
X108904761Y-108340952D01*
X108333333Y-108912380D01*
X108952380Y-108912380D01*
X103428571Y-65388571D02*
X103095238Y-65388571D01*
X103095238Y-65912380D02*
X103095238Y-64912380D01*
X103571428Y-64912380D01*
X103952380Y-65912380D02*
X103952380Y-64912380D01*
X104428571Y-65912380D02*
X104428571Y-64912380D01*
X104666666Y-64912380D01*
X104809523Y-64960000D01*
X104904761Y-65055238D01*
X104952380Y-65150476D01*
X105000000Y-65340952D01*
X105000000Y-65483809D01*
X104952380Y-65674285D01*
X104904761Y-65769523D01*
X104809523Y-65864761D01*
X104666666Y-65912380D01*
X104428571Y-65912380D01*
X105952380Y-65912380D02*
X105380952Y-65912380D01*
X105666666Y-65912380D02*
X105666666Y-64912380D01*
X105571428Y-65055238D01*
X105476190Y-65150476D01*
X105380952Y-65198095D01*
X192742380Y-64159523D02*
X193456666Y-64159523D01*
X193599523Y-64207142D01*
X193694761Y-64302380D01*
X193742380Y-64445238D01*
X193742380Y-64540476D01*
X192837619Y-63730952D02*
X192790000Y-63683333D01*
X192742380Y-63588095D01*
X192742380Y-63350000D01*
X192790000Y-63254761D01*
X192837619Y-63207142D01*
X192932857Y-63159523D01*
X193028095Y-63159523D01*
X193170952Y-63207142D01*
X193742380Y-63778571D01*
X193742380Y-63159523D01*
X192742380Y-62826190D02*
X192742380Y-62207142D01*
X193123333Y-62540476D01*
X193123333Y-62397619D01*
X193170952Y-62302380D01*
X193218571Y-62254761D01*
X193313809Y-62207142D01*
X193551904Y-62207142D01*
X193647142Y-62254761D01*
X193694761Y-62302380D01*
X193742380Y-62397619D01*
X193742380Y-62683333D01*
X193694761Y-62778571D01*
X193647142Y-62826190D01*
X185702380Y-80309523D02*
X186416666Y-80309523D01*
X186559523Y-80357142D01*
X186654761Y-80452380D01*
X186702380Y-80595238D01*
X186702380Y-80690476D01*
X185797619Y-79880952D02*
X185750000Y-79833333D01*
X185702380Y-79738095D01*
X185702380Y-79500000D01*
X185750000Y-79404761D01*
X185797619Y-79357142D01*
X185892857Y-79309523D01*
X185988095Y-79309523D01*
X186130952Y-79357142D01*
X186702380Y-79928571D01*
X186702380Y-79309523D01*
X185797619Y-78928571D02*
X185750000Y-78880952D01*
X185702380Y-78785714D01*
X185702380Y-78547619D01*
X185750000Y-78452380D01*
X185797619Y-78404761D01*
X185892857Y-78357142D01*
X185988095Y-78357142D01*
X186130952Y-78404761D01*
X186702380Y-78976190D01*
X186702380Y-78357142D01*
X177452380Y-81595238D02*
X178166666Y-81595238D01*
X178309523Y-81642857D01*
X178404761Y-81738095D01*
X178452380Y-81880952D01*
X178452380Y-81976190D01*
X178404761Y-80404761D02*
X178452380Y-80261904D01*
X178452380Y-80023809D01*
X178404761Y-79928571D01*
X178357142Y-79880952D01*
X178261904Y-79833333D01*
X178166666Y-79833333D01*
X178071428Y-79880952D01*
X178023809Y-79928571D01*
X177976190Y-80023809D01*
X177928571Y-80214285D01*
X177880952Y-80309523D01*
X177833333Y-80357142D01*
X177738095Y-80404761D01*
X177642857Y-80404761D01*
X177547619Y-80357142D01*
X177500000Y-80309523D01*
X177452380Y-80214285D01*
X177452380Y-79976190D01*
X177500000Y-79833333D01*
X178452380Y-79404761D02*
X177452380Y-79404761D01*
X178166666Y-79071428D01*
X177452380Y-78738095D01*
X178452380Y-78738095D01*
X177452380Y-78404761D02*
X177452380Y-77833333D01*
X178452380Y-78119047D02*
X177452380Y-78119047D01*
X178452380Y-77500000D02*
X177452380Y-77500000D01*
X177452380Y-77119047D01*
X177500000Y-77023809D01*
X177547619Y-76976190D01*
X177642857Y-76928571D01*
X177785714Y-76928571D01*
X177880952Y-76976190D01*
X177928571Y-77023809D01*
X177976190Y-77119047D01*
X177976190Y-77500000D01*
X178166666Y-76547619D02*
X178166666Y-76071428D01*
X178452380Y-76642857D02*
X177452380Y-76309523D01*
X178452380Y-75976190D01*
X174952380Y-77285714D02*
X174952380Y-76714285D01*
X175952380Y-77000000D02*
X174952380Y-77000000D01*
X175000000Y-75857142D02*
X174952380Y-75952380D01*
X174952380Y-76095238D01*
X175000000Y-76238095D01*
X175095238Y-76333333D01*
X175190476Y-76380952D01*
X175380952Y-76428571D01*
X175523809Y-76428571D01*
X175714285Y-76380952D01*
X175809523Y-76333333D01*
X175904761Y-76238095D01*
X175952380Y-76095238D01*
X175952380Y-76000000D01*
X175904761Y-75857142D01*
X175857142Y-75809523D01*
X175523809Y-75809523D01*
X175523809Y-76000000D01*
X175000000Y-78738095D02*
X174952380Y-78833333D01*
X174952380Y-78976190D01*
X175000000Y-79119047D01*
X175095238Y-79214285D01*
X175190476Y-79261904D01*
X175380952Y-79309523D01*
X175523809Y-79309523D01*
X175714285Y-79261904D01*
X175809523Y-79214285D01*
X175904761Y-79119047D01*
X175952380Y-78976190D01*
X175952380Y-78880952D01*
X175904761Y-78738095D01*
X175857142Y-78690476D01*
X175523809Y-78690476D01*
X175523809Y-78880952D01*
X175666666Y-81738095D02*
X175666666Y-81261904D01*
X175952380Y-81833333D02*
X174952380Y-81500000D01*
X175952380Y-81166666D01*
X180857142Y-78690476D02*
X180904761Y-78738095D01*
X180952380Y-78880952D01*
X180952380Y-78976190D01*
X180904761Y-79119047D01*
X180809523Y-79214285D01*
X180714285Y-79261904D01*
X180523809Y-79309523D01*
X180380952Y-79309523D01*
X180190476Y-79261904D01*
X180095238Y-79214285D01*
X180000000Y-79119047D01*
X179952380Y-78976190D01*
X179952380Y-78880952D01*
X180000000Y-78738095D01*
X180047619Y-78690476D01*
X180428571Y-81357142D02*
X180428571Y-81690476D01*
X180952380Y-81690476D02*
X179952380Y-81690476D01*
X179952380Y-81214285D01*
X105238095Y-51152380D02*
X105238095Y-50152380D01*
X105238095Y-50628571D02*
X105809523Y-50628571D01*
X105809523Y-51152380D02*
X105809523Y-50152380D01*
X106714285Y-50485714D02*
X106714285Y-51152380D01*
X106476190Y-50104761D02*
X106238095Y-50819047D01*
X106857142Y-50819047D01*
X193238095Y-51152380D02*
X193238095Y-50152380D01*
X193238095Y-50628571D02*
X193809523Y-50628571D01*
X193809523Y-51152380D02*
X193809523Y-50152380D01*
X194190476Y-50152380D02*
X194809523Y-50152380D01*
X194476190Y-50533333D01*
X194619047Y-50533333D01*
X194714285Y-50580952D01*
X194761904Y-50628571D01*
X194809523Y-50723809D01*
X194809523Y-50961904D01*
X194761904Y-51057142D01*
X194714285Y-51104761D01*
X194619047Y-51152380D01*
X194333333Y-51152380D01*
X194238095Y-51104761D01*
X194190476Y-51057142D01*
X105238095Y-139152380D02*
X105238095Y-138152380D01*
X105238095Y-138628571D02*
X105809523Y-138628571D01*
X105809523Y-139152380D02*
X105809523Y-138152380D01*
X106238095Y-138247619D02*
X106285714Y-138200000D01*
X106380952Y-138152380D01*
X106619047Y-138152380D01*
X106714285Y-138200000D01*
X106761904Y-138247619D01*
X106809523Y-138342857D01*
X106809523Y-138438095D01*
X106761904Y-138580952D01*
X106190476Y-139152380D01*
X106809523Y-139152380D01*
X192738095Y-138652380D02*
X192738095Y-137652380D01*
X192738095Y-138128571D02*
X193309523Y-138128571D01*
X193309523Y-138652380D02*
X193309523Y-137652380D01*
X194309523Y-138652380D02*
X193738095Y-138652380D01*
X194023809Y-138652380D02*
X194023809Y-137652380D01*
X193928571Y-137795238D01*
X193833333Y-137890476D01*
X193738095Y-137938095D01*
X114507142Y-94707142D02*
X114459523Y-94754761D01*
X114316666Y-94802380D01*
X114221428Y-94802380D01*
X114078571Y-94754761D01*
X113983333Y-94659523D01*
X113935714Y-94564285D01*
X113888095Y-94373809D01*
X113888095Y-94230952D01*
X113935714Y-94040476D01*
X113983333Y-93945238D01*
X114078571Y-93850000D01*
X114221428Y-93802380D01*
X114316666Y-93802380D01*
X114459523Y-93850000D01*
X114507142Y-93897619D01*
X115411904Y-93802380D02*
X114935714Y-93802380D01*
X114888095Y-94278571D01*
X114935714Y-94230952D01*
X115030952Y-94183333D01*
X115269047Y-94183333D01*
X115364285Y-94230952D01*
X115411904Y-94278571D01*
X115459523Y-94373809D01*
X115459523Y-94611904D01*
X115411904Y-94707142D01*
X115364285Y-94754761D01*
X115269047Y-94802380D01*
X115030952Y-94802380D01*
X114935714Y-94754761D01*
X114888095Y-94707142D01*
X116316666Y-93802380D02*
X116126190Y-93802380D01*
X116030952Y-93850000D01*
X115983333Y-93897619D01*
X115888095Y-94040476D01*
X115840476Y-94230952D01*
X115840476Y-94611904D01*
X115888095Y-94707142D01*
X115935714Y-94754761D01*
X116030952Y-94802380D01*
X116221428Y-94802380D01*
X116316666Y-94754761D01*
X116364285Y-94707142D01*
X116411904Y-94611904D01*
X116411904Y-94373809D01*
X116364285Y-94278571D01*
X116316666Y-94230952D01*
X116221428Y-94183333D01*
X116030952Y-94183333D01*
X115935714Y-94230952D01*
X115888095Y-94278571D01*
X115840476Y-94373809D01*
X114507142Y-96107142D02*
X114459523Y-96154761D01*
X114316666Y-96202380D01*
X114221428Y-96202380D01*
X114078571Y-96154761D01*
X113983333Y-96059523D01*
X113935714Y-95964285D01*
X113888095Y-95773809D01*
X113888095Y-95630952D01*
X113935714Y-95440476D01*
X113983333Y-95345238D01*
X114078571Y-95250000D01*
X114221428Y-95202380D01*
X114316666Y-95202380D01*
X114459523Y-95250000D01*
X114507142Y-95297619D01*
X115411904Y-95202380D02*
X114935714Y-95202380D01*
X114888095Y-95678571D01*
X114935714Y-95630952D01*
X115030952Y-95583333D01*
X115269047Y-95583333D01*
X115364285Y-95630952D01*
X115411904Y-95678571D01*
X115459523Y-95773809D01*
X115459523Y-96011904D01*
X115411904Y-96107142D01*
X115364285Y-96154761D01*
X115269047Y-96202380D01*
X115030952Y-96202380D01*
X114935714Y-96154761D01*
X114888095Y-96107142D01*
X116364285Y-95202380D02*
X115888095Y-95202380D01*
X115840476Y-95678571D01*
X115888095Y-95630952D01*
X115983333Y-95583333D01*
X116221428Y-95583333D01*
X116316666Y-95630952D01*
X116364285Y-95678571D01*
X116411904Y-95773809D01*
X116411904Y-96011904D01*
X116364285Y-96107142D01*
X116316666Y-96154761D01*
X116221428Y-96202380D01*
X115983333Y-96202380D01*
X115888095Y-96154761D01*
X115840476Y-96107142D01*
X111607142Y-67607142D02*
X111559523Y-67654761D01*
X111416666Y-67702380D01*
X111321428Y-67702380D01*
X111178571Y-67654761D01*
X111083333Y-67559523D01*
X111035714Y-67464285D01*
X110988095Y-67273809D01*
X110988095Y-67130952D01*
X111035714Y-66940476D01*
X111083333Y-66845238D01*
X111178571Y-66750000D01*
X111321428Y-66702380D01*
X111416666Y-66702380D01*
X111559523Y-66750000D01*
X111607142Y-66797619D01*
X112511904Y-66702380D02*
X112035714Y-66702380D01*
X111988095Y-67178571D01*
X112035714Y-67130952D01*
X112130952Y-67083333D01*
X112369047Y-67083333D01*
X112464285Y-67130952D01*
X112511904Y-67178571D01*
X112559523Y-67273809D01*
X112559523Y-67511904D01*
X112511904Y-67607142D01*
X112464285Y-67654761D01*
X112369047Y-67702380D01*
X112130952Y-67702380D01*
X112035714Y-67654761D01*
X111988095Y-67607142D01*
X113416666Y-67035714D02*
X113416666Y-67702380D01*
X113178571Y-66654761D02*
X112940476Y-67369047D01*
X113559523Y-67369047D01*
D15*
X122678571Y-67607142D02*
X122654761Y-67654761D01*
X122583333Y-67702380D01*
X122535714Y-67702380D01*
X122464285Y-67654761D01*
X122416666Y-67559523D01*
X122392857Y-67464285D01*
X122369047Y-67273809D01*
X122369047Y-67130952D01*
X122392857Y-66940476D01*
X122416666Y-66845238D01*
X122464285Y-66750000D01*
X122535714Y-66702380D01*
X122583333Y-66702380D01*
X122654761Y-66750000D01*
X122678571Y-66797619D01*
X123130952Y-66702380D02*
X122892857Y-66702380D01*
X122869047Y-67178571D01*
X122892857Y-67130952D01*
X122940476Y-67083333D01*
X123059523Y-67083333D01*
X123107142Y-67130952D01*
X123130952Y-67178571D01*
X123154761Y-67273809D01*
X123154761Y-67511904D01*
X123130952Y-67607142D01*
X123107142Y-67654761D01*
X123059523Y-67702380D01*
X122940476Y-67702380D01*
X122892857Y-67654761D01*
X122869047Y-67607142D01*
X123321428Y-66702380D02*
X123630952Y-66702380D01*
X123464285Y-67083333D01*
X123535714Y-67083333D01*
X123583333Y-67130952D01*
X123607142Y-67178571D01*
X123630952Y-67273809D01*
X123630952Y-67511904D01*
X123607142Y-67607142D01*
X123583333Y-67654761D01*
X123535714Y-67702380D01*
X123392857Y-67702380D01*
X123345238Y-67654761D01*
X123321428Y-67607142D01*
X122678571Y-69357142D02*
X122654761Y-69404761D01*
X122583333Y-69452380D01*
X122535714Y-69452380D01*
X122464285Y-69404761D01*
X122416666Y-69309523D01*
X122392857Y-69214285D01*
X122369047Y-69023809D01*
X122369047Y-68880952D01*
X122392857Y-68690476D01*
X122416666Y-68595238D01*
X122464285Y-68500000D01*
X122535714Y-68452380D01*
X122583333Y-68452380D01*
X122654761Y-68500000D01*
X122678571Y-68547619D01*
X123130952Y-68452380D02*
X122892857Y-68452380D01*
X122869047Y-68928571D01*
X122892857Y-68880952D01*
X122940476Y-68833333D01*
X123059523Y-68833333D01*
X123107142Y-68880952D01*
X123130952Y-68928571D01*
X123154761Y-69023809D01*
X123154761Y-69261904D01*
X123130952Y-69357142D01*
X123107142Y-69404761D01*
X123059523Y-69452380D01*
X122940476Y-69452380D01*
X122892857Y-69404761D01*
X122869047Y-69357142D01*
X123345238Y-68547619D02*
X123369047Y-68500000D01*
X123416666Y-68452380D01*
X123535714Y-68452380D01*
X123583333Y-68500000D01*
X123607142Y-68547619D01*
X123630952Y-68642857D01*
X123630952Y-68738095D01*
X123607142Y-68880952D01*
X123321428Y-69452380D01*
X123630952Y-69452380D01*
X142678571Y-69357142D02*
X142654761Y-69404761D01*
X142583333Y-69452380D01*
X142535714Y-69452380D01*
X142464285Y-69404761D01*
X142416666Y-69309523D01*
X142392857Y-69214285D01*
X142369047Y-69023809D01*
X142369047Y-68880952D01*
X142392857Y-68690476D01*
X142416666Y-68595238D01*
X142464285Y-68500000D01*
X142535714Y-68452380D01*
X142583333Y-68452380D01*
X142654761Y-68500000D01*
X142678571Y-68547619D01*
X143130952Y-68452380D02*
X142892857Y-68452380D01*
X142869047Y-68928571D01*
X142892857Y-68880952D01*
X142940476Y-68833333D01*
X143059523Y-68833333D01*
X143107142Y-68880952D01*
X143130952Y-68928571D01*
X143154761Y-69023809D01*
X143154761Y-69261904D01*
X143130952Y-69357142D01*
X143107142Y-69404761D01*
X143059523Y-69452380D01*
X142940476Y-69452380D01*
X142892857Y-69404761D01*
X142869047Y-69357142D01*
X143630952Y-69452380D02*
X143345238Y-69452380D01*
X143488095Y-69452380D02*
X143488095Y-68452380D01*
X143440476Y-68595238D01*
X143392857Y-68690476D01*
X143345238Y-68738095D01*
D14*
X111607142Y-71107142D02*
X111559523Y-71154761D01*
X111416666Y-71202380D01*
X111321428Y-71202380D01*
X111178571Y-71154761D01*
X111083333Y-71059523D01*
X111035714Y-70964285D01*
X110988095Y-70773809D01*
X110988095Y-70630952D01*
X111035714Y-70440476D01*
X111083333Y-70345238D01*
X111178571Y-70250000D01*
X111321428Y-70202380D01*
X111416666Y-70202380D01*
X111559523Y-70250000D01*
X111607142Y-70297619D01*
X112511904Y-70202380D02*
X112035714Y-70202380D01*
X111988095Y-70678571D01*
X112035714Y-70630952D01*
X112130952Y-70583333D01*
X112369047Y-70583333D01*
X112464285Y-70630952D01*
X112511904Y-70678571D01*
X112559523Y-70773809D01*
X112559523Y-71011904D01*
X112511904Y-71107142D01*
X112464285Y-71154761D01*
X112369047Y-71202380D01*
X112130952Y-71202380D01*
X112035714Y-71154761D01*
X111988095Y-71107142D01*
X113178571Y-70202380D02*
X113273809Y-70202380D01*
X113369047Y-70250000D01*
X113416666Y-70297619D01*
X113464285Y-70392857D01*
X113511904Y-70583333D01*
X113511904Y-70821428D01*
X113464285Y-71011904D01*
X113416666Y-71107142D01*
X113369047Y-71154761D01*
X113273809Y-71202380D01*
X113178571Y-71202380D01*
X113083333Y-71154761D01*
X113035714Y-71107142D01*
X112988095Y-71011904D01*
X112940476Y-70821428D01*
X112940476Y-70583333D01*
X112988095Y-70392857D01*
X113035714Y-70297619D01*
X113083333Y-70250000D01*
X113178571Y-70202380D01*
D15*
X142678571Y-71107142D02*
X142654761Y-71154761D01*
X142583333Y-71202380D01*
X142535714Y-71202380D01*
X142464285Y-71154761D01*
X142416666Y-71059523D01*
X142392857Y-70964285D01*
X142369047Y-70773809D01*
X142369047Y-70630952D01*
X142392857Y-70440476D01*
X142416666Y-70345238D01*
X142464285Y-70250000D01*
X142535714Y-70202380D01*
X142583333Y-70202380D01*
X142654761Y-70250000D01*
X142678571Y-70297619D01*
X143107142Y-70535714D02*
X143107142Y-71202380D01*
X142988095Y-70154761D02*
X142869047Y-70869047D01*
X143178571Y-70869047D01*
X143392857Y-71202380D02*
X143488095Y-71202380D01*
X143535714Y-71154761D01*
X143559523Y-71107142D01*
X143607142Y-70964285D01*
X143630952Y-70773809D01*
X143630952Y-70392857D01*
X143607142Y-70297619D01*
X143583333Y-70250000D01*
X143535714Y-70202380D01*
X143440476Y-70202380D01*
X143392857Y-70250000D01*
X143369047Y-70297619D01*
X143345238Y-70392857D01*
X143345238Y-70630952D01*
X143369047Y-70726190D01*
X143392857Y-70773809D01*
X143440476Y-70821428D01*
X143535714Y-70821428D01*
X143583333Y-70773809D01*
X143607142Y-70726190D01*
X143630952Y-70630952D01*
X132678571Y-67607142D02*
X132654761Y-67654761D01*
X132583333Y-67702380D01*
X132535714Y-67702380D01*
X132464285Y-67654761D01*
X132416666Y-67559523D01*
X132392857Y-67464285D01*
X132369047Y-67273809D01*
X132369047Y-67130952D01*
X132392857Y-66940476D01*
X132416666Y-66845238D01*
X132464285Y-66750000D01*
X132535714Y-66702380D01*
X132583333Y-66702380D01*
X132654761Y-66750000D01*
X132678571Y-66797619D01*
X133107142Y-67035714D02*
X133107142Y-67702380D01*
X132988095Y-66654761D02*
X132869047Y-67369047D01*
X133178571Y-67369047D01*
X133440476Y-67130952D02*
X133392857Y-67083333D01*
X133369047Y-67035714D01*
X133345238Y-66940476D01*
X133345238Y-66892857D01*
X133369047Y-66797619D01*
X133392857Y-66750000D01*
X133440476Y-66702380D01*
X133535714Y-66702380D01*
X133583333Y-66750000D01*
X133607142Y-66797619D01*
X133630952Y-66892857D01*
X133630952Y-66940476D01*
X133607142Y-67035714D01*
X133583333Y-67083333D01*
X133535714Y-67130952D01*
X133440476Y-67130952D01*
X133392857Y-67178571D01*
X133369047Y-67226190D01*
X133345238Y-67321428D01*
X133345238Y-67511904D01*
X133369047Y-67607142D01*
X133392857Y-67654761D01*
X133440476Y-67702380D01*
X133535714Y-67702380D01*
X133583333Y-67654761D01*
X133607142Y-67607142D01*
X133630952Y-67511904D01*
X133630952Y-67321428D01*
X133607142Y-67226190D01*
X133583333Y-67178571D01*
X133535714Y-67130952D01*
D14*
X111607142Y-69357142D02*
X111559523Y-69404761D01*
X111416666Y-69452380D01*
X111321428Y-69452380D01*
X111178571Y-69404761D01*
X111083333Y-69309523D01*
X111035714Y-69214285D01*
X110988095Y-69023809D01*
X110988095Y-68880952D01*
X111035714Y-68690476D01*
X111083333Y-68595238D01*
X111178571Y-68500000D01*
X111321428Y-68452380D01*
X111416666Y-68452380D01*
X111559523Y-68500000D01*
X111607142Y-68547619D01*
X112464285Y-68785714D02*
X112464285Y-69452380D01*
X112226190Y-68404761D02*
X111988095Y-69119047D01*
X112607142Y-69119047D01*
X112892857Y-68452380D02*
X113559523Y-68452380D01*
X113130952Y-69452380D01*
D15*
X132678571Y-71107142D02*
X132654761Y-71154761D01*
X132583333Y-71202380D01*
X132535714Y-71202380D01*
X132464285Y-71154761D01*
X132416666Y-71059523D01*
X132392857Y-70964285D01*
X132369047Y-70773809D01*
X132369047Y-70630952D01*
X132392857Y-70440476D01*
X132416666Y-70345238D01*
X132464285Y-70250000D01*
X132535714Y-70202380D01*
X132583333Y-70202380D01*
X132654761Y-70250000D01*
X132678571Y-70297619D01*
X133107142Y-70535714D02*
X133107142Y-71202380D01*
X132988095Y-70154761D02*
X132869047Y-70869047D01*
X133178571Y-70869047D01*
X133583333Y-70202380D02*
X133488095Y-70202380D01*
X133440476Y-70250000D01*
X133416666Y-70297619D01*
X133369047Y-70440476D01*
X133345238Y-70630952D01*
X133345238Y-71011904D01*
X133369047Y-71107142D01*
X133392857Y-71154761D01*
X133440476Y-71202380D01*
X133535714Y-71202380D01*
X133583333Y-71154761D01*
X133607142Y-71107142D01*
X133630952Y-71011904D01*
X133630952Y-70773809D01*
X133607142Y-70678571D01*
X133583333Y-70630952D01*
X133535714Y-70583333D01*
X133440476Y-70583333D01*
X133392857Y-70630952D01*
X133369047Y-70678571D01*
X133345238Y-70773809D01*
X142678571Y-67607142D02*
X142654761Y-67654761D01*
X142583333Y-67702380D01*
X142535714Y-67702380D01*
X142464285Y-67654761D01*
X142416666Y-67559523D01*
X142392857Y-67464285D01*
X142369047Y-67273809D01*
X142369047Y-67130952D01*
X142392857Y-66940476D01*
X142416666Y-66845238D01*
X142464285Y-66750000D01*
X142535714Y-66702380D01*
X142583333Y-66702380D01*
X142654761Y-66750000D01*
X142678571Y-66797619D01*
X143107142Y-67035714D02*
X143107142Y-67702380D01*
X142988095Y-66654761D02*
X142869047Y-67369047D01*
X143178571Y-67369047D01*
X143607142Y-66702380D02*
X143369047Y-66702380D01*
X143345238Y-67178571D01*
X143369047Y-67130952D01*
X143416666Y-67083333D01*
X143535714Y-67083333D01*
X143583333Y-67130952D01*
X143607142Y-67178571D01*
X143630952Y-67273809D01*
X143630952Y-67511904D01*
X143607142Y-67607142D01*
X143583333Y-67654761D01*
X143535714Y-67702380D01*
X143416666Y-67702380D01*
X143369047Y-67654761D01*
X143345238Y-67607142D01*
X132678571Y-69357142D02*
X132654761Y-69404761D01*
X132583333Y-69452380D01*
X132535714Y-69452380D01*
X132464285Y-69404761D01*
X132416666Y-69309523D01*
X132392857Y-69214285D01*
X132369047Y-69023809D01*
X132369047Y-68880952D01*
X132392857Y-68690476D01*
X132416666Y-68595238D01*
X132464285Y-68500000D01*
X132535714Y-68452380D01*
X132583333Y-68452380D01*
X132654761Y-68500000D01*
X132678571Y-68547619D01*
X133107142Y-68785714D02*
X133107142Y-69452380D01*
X132988095Y-68404761D02*
X132869047Y-69119047D01*
X133178571Y-69119047D01*
X133583333Y-68785714D02*
X133583333Y-69452380D01*
X133464285Y-68404761D02*
X133345238Y-69119047D01*
X133654761Y-69119047D01*
X122678571Y-71107142D02*
X122654761Y-71154761D01*
X122583333Y-71202380D01*
X122535714Y-71202380D01*
X122464285Y-71154761D01*
X122416666Y-71059523D01*
X122392857Y-70964285D01*
X122369047Y-70773809D01*
X122369047Y-70630952D01*
X122392857Y-70440476D01*
X122416666Y-70345238D01*
X122464285Y-70250000D01*
X122535714Y-70202380D01*
X122583333Y-70202380D01*
X122654761Y-70250000D01*
X122678571Y-70297619D01*
X123107142Y-70535714D02*
X123107142Y-71202380D01*
X122988095Y-70154761D02*
X122869047Y-70869047D01*
X123178571Y-70869047D01*
X123321428Y-70202380D02*
X123630952Y-70202380D01*
X123464285Y-70583333D01*
X123535714Y-70583333D01*
X123583333Y-70630952D01*
X123607142Y-70678571D01*
X123630952Y-70773809D01*
X123630952Y-71011904D01*
X123607142Y-71107142D01*
X123583333Y-71154761D01*
X123535714Y-71202380D01*
X123392857Y-71202380D01*
X123345238Y-71154761D01*
X123321428Y-71107142D01*
D14*
X104988095Y-72802380D02*
X104988095Y-73611904D01*
X105035714Y-73707142D01*
X105083333Y-73754761D01*
X105178571Y-73802380D01*
X105369047Y-73802380D01*
X105464285Y-73754761D01*
X105511904Y-73707142D01*
X105559523Y-73611904D01*
X105559523Y-72802380D01*
X106178571Y-73230952D02*
X106083333Y-73183333D01*
X106035714Y-73135714D01*
X105988095Y-73040476D01*
X105988095Y-72992857D01*
X106035714Y-72897619D01*
X106083333Y-72850000D01*
X106178571Y-72802380D01*
X106369047Y-72802380D01*
X106464285Y-72850000D01*
X106511904Y-72897619D01*
X106559523Y-72992857D01*
X106559523Y-73040476D01*
X106511904Y-73135714D01*
X106464285Y-73183333D01*
X106369047Y-73230952D01*
X106178571Y-73230952D01*
X106083333Y-73278571D01*
X106035714Y-73326190D01*
X105988095Y-73421428D01*
X105988095Y-73611904D01*
X106035714Y-73707142D01*
X106083333Y-73754761D01*
X106178571Y-73802380D01*
X106369047Y-73802380D01*
X106464285Y-73754761D01*
X106511904Y-73707142D01*
X106559523Y-73611904D01*
X106559523Y-73421428D01*
X106511904Y-73326190D01*
X106464285Y-73278571D01*
X106369047Y-73230952D01*
X123634761Y-79267380D02*
X123301428Y-78791190D01*
X123063333Y-79267380D02*
X123063333Y-78267380D01*
X123444285Y-78267380D01*
X123539523Y-78315000D01*
X123587142Y-78362619D01*
X123634761Y-78457857D01*
X123634761Y-78600714D01*
X123587142Y-78695952D01*
X123539523Y-78743571D01*
X123444285Y-78791190D01*
X123063333Y-78791190D01*
X123920476Y-78267380D02*
X124253809Y-79267380D01*
X124587142Y-78267380D01*
X124825238Y-78267380D02*
X125491904Y-78267380D01*
X125063333Y-79267380D01*
X103607142Y-81052380D02*
X103273809Y-80576190D01*
X103035714Y-81052380D02*
X103035714Y-80052380D01*
X103416666Y-80052380D01*
X103511904Y-80100000D01*
X103559523Y-80147619D01*
X103607142Y-80242857D01*
X103607142Y-80385714D01*
X103559523Y-80480952D01*
X103511904Y-80528571D01*
X103416666Y-80576190D01*
X103035714Y-80576190D01*
X104559523Y-81052380D02*
X103988095Y-81052380D01*
X104273809Y-81052380D02*
X104273809Y-80052380D01*
X104178571Y-80195238D01*
X104083333Y-80290476D01*
X103988095Y-80338095D01*
X105416666Y-80052380D02*
X105226190Y-80052380D01*
X105130952Y-80100000D01*
X105083333Y-80147619D01*
X104988095Y-80290476D01*
X104940476Y-80480952D01*
X104940476Y-80861904D01*
X104988095Y-80957142D01*
X105035714Y-81004761D01*
X105130952Y-81052380D01*
X105321428Y-81052380D01*
X105416666Y-81004761D01*
X105464285Y-80957142D01*
X105511904Y-80861904D01*
X105511904Y-80623809D01*
X105464285Y-80528571D01*
X105416666Y-80480952D01*
X105321428Y-80433333D01*
X105130952Y-80433333D01*
X105035714Y-80480952D01*
X104988095Y-80528571D01*
X104940476Y-80623809D01*
X110552380Y-77892857D02*
X110076190Y-78226190D01*
X110552380Y-78464285D02*
X109552380Y-78464285D01*
X109552380Y-78083333D01*
X109600000Y-77988095D01*
X109647619Y-77940476D01*
X109742857Y-77892857D01*
X109885714Y-77892857D01*
X109980952Y-77940476D01*
X110028571Y-77988095D01*
X110076190Y-78083333D01*
X110076190Y-78464285D01*
X110552380Y-76940476D02*
X110552380Y-77511904D01*
X110552380Y-77226190D02*
X109552380Y-77226190D01*
X109695238Y-77321428D01*
X109790476Y-77416666D01*
X109838095Y-77511904D01*
X109552380Y-76035714D02*
X109552380Y-76511904D01*
X110028571Y-76559523D01*
X109980952Y-76511904D01*
X109933333Y-76416666D01*
X109933333Y-76178571D01*
X109980952Y-76083333D01*
X110028571Y-76035714D01*
X110123809Y-75988095D01*
X110361904Y-75988095D01*
X110457142Y-76035714D01*
X110504761Y-76083333D01*
X110552380Y-76178571D01*
X110552380Y-76416666D01*
X110504761Y-76511904D01*
X110457142Y-76559523D01*
X148232142Y-59382380D02*
X147898809Y-58906190D01*
X147660714Y-59382380D02*
X147660714Y-58382380D01*
X148041666Y-58382380D01*
X148136904Y-58430000D01*
X148184523Y-58477619D01*
X148232142Y-58572857D01*
X148232142Y-58715714D01*
X148184523Y-58810952D01*
X148136904Y-58858571D01*
X148041666Y-58906190D01*
X147660714Y-58906190D01*
X149184523Y-59382380D02*
X148613095Y-59382380D01*
X148898809Y-59382380D02*
X148898809Y-58382380D01*
X148803571Y-58525238D01*
X148708333Y-58620476D01*
X148613095Y-58668095D01*
X150041666Y-58715714D02*
X150041666Y-59382380D01*
X149803571Y-58334761D02*
X149565476Y-59049047D01*
X150184523Y-59049047D01*
X153690476Y-56212380D02*
X153690476Y-56926666D01*
X153642857Y-57069523D01*
X153547619Y-57164761D01*
X153404761Y-57212380D01*
X153309523Y-57212380D01*
X154119047Y-56307619D02*
X154166666Y-56260000D01*
X154261904Y-56212380D01*
X154500000Y-56212380D01*
X154595238Y-56260000D01*
X154642857Y-56307619D01*
X154690476Y-56402857D01*
X154690476Y-56498095D01*
X154642857Y-56640952D01*
X154071428Y-57212380D01*
X154690476Y-57212380D01*
X155642857Y-57212380D02*
X155071428Y-57212380D01*
X155357142Y-57212380D02*
X155357142Y-56212380D01*
X155261904Y-56355238D01*
X155166666Y-56450476D01*
X155071428Y-56498095D01*
X114440476Y-63702380D02*
X114440476Y-64416666D01*
X114392857Y-64559523D01*
X114297619Y-64654761D01*
X114154761Y-64702380D01*
X114059523Y-64702380D01*
X115440476Y-64702380D02*
X114869047Y-64702380D01*
X115154761Y-64702380D02*
X115154761Y-63702380D01*
X115059523Y-63845238D01*
X114964285Y-63940476D01*
X114869047Y-63988095D01*
X116297619Y-63702380D02*
X116107142Y-63702380D01*
X116011904Y-63750000D01*
X115964285Y-63797619D01*
X115869047Y-63940476D01*
X115821428Y-64130952D01*
X115821428Y-64511904D01*
X115869047Y-64607142D01*
X115916666Y-64654761D01*
X116011904Y-64702380D01*
X116202380Y-64702380D01*
X116297619Y-64654761D01*
X116345238Y-64607142D01*
X116392857Y-64511904D01*
X116392857Y-64273809D01*
X116345238Y-64178571D01*
X116297619Y-64130952D01*
X116202380Y-64083333D01*
X116011904Y-64083333D01*
X115916666Y-64130952D01*
X115869047Y-64178571D01*
X115821428Y-64273809D01*
X115654761Y-71702380D02*
X115654761Y-72416666D01*
X115607142Y-72559523D01*
X115511904Y-72654761D01*
X115369047Y-72702380D01*
X115273809Y-72702380D01*
X116845238Y-72654761D02*
X116988095Y-72702380D01*
X117226190Y-72702380D01*
X117321428Y-72654761D01*
X117369047Y-72607142D01*
X117416666Y-72511904D01*
X117416666Y-72416666D01*
X117369047Y-72321428D01*
X117321428Y-72273809D01*
X117226190Y-72226190D01*
X117035714Y-72178571D01*
X116940476Y-72130952D01*
X116892857Y-72083333D01*
X116845238Y-71988095D01*
X116845238Y-71892857D01*
X116892857Y-71797619D01*
X116940476Y-71750000D01*
X117035714Y-71702380D01*
X117273809Y-71702380D01*
X117416666Y-71750000D01*
X117845238Y-72702380D02*
X117845238Y-71702380D01*
X118178571Y-72416666D01*
X118511904Y-71702380D01*
X118511904Y-72702380D01*
X118845238Y-71702380D02*
X119416666Y-71702380D01*
X119130952Y-72702380D02*
X119130952Y-71702380D01*
X119750000Y-72702380D02*
X119750000Y-71702380D01*
X120130952Y-71702380D01*
X120226190Y-71750000D01*
X120273809Y-71797619D01*
X120321428Y-71892857D01*
X120321428Y-72035714D01*
X120273809Y-72130952D01*
X120226190Y-72178571D01*
X120130952Y-72226190D01*
X119750000Y-72226190D01*
X120702380Y-72416666D02*
X121178571Y-72416666D01*
X120607142Y-72702380D02*
X120940476Y-71702380D01*
X121273809Y-72702380D01*
X120892857Y-69678571D02*
X120559523Y-69678571D01*
X120559523Y-70202380D02*
X120559523Y-69202380D01*
X121035714Y-69202380D01*
X118559523Y-70107142D02*
X118511904Y-70154761D01*
X118369047Y-70202380D01*
X118273809Y-70202380D01*
X118130952Y-70154761D01*
X118035714Y-70059523D01*
X117988095Y-69964285D01*
X117940476Y-69773809D01*
X117940476Y-69630952D01*
X117988095Y-69440476D01*
X118035714Y-69345238D01*
X118130952Y-69250000D01*
X118273809Y-69202380D01*
X118369047Y-69202380D01*
X118511904Y-69250000D01*
X118559523Y-69297619D01*
X120511904Y-74916666D02*
X120988095Y-74916666D01*
X120416666Y-75202380D02*
X120750000Y-74202380D01*
X121083333Y-75202380D01*
X118511904Y-74250000D02*
X118416666Y-74202380D01*
X118273809Y-74202380D01*
X118130952Y-74250000D01*
X118035714Y-74345238D01*
X117988095Y-74440476D01*
X117940476Y-74630952D01*
X117940476Y-74773809D01*
X117988095Y-74964285D01*
X118035714Y-75059523D01*
X118130952Y-75154761D01*
X118273809Y-75202380D01*
X118369047Y-75202380D01*
X118511904Y-75154761D01*
X118559523Y-75107142D01*
X118559523Y-74773809D01*
X118369047Y-74773809D01*
X114964285Y-74202380D02*
X115535714Y-74202380D01*
X115250000Y-75202380D02*
X115250000Y-74202380D01*
X116392857Y-74250000D02*
X116297619Y-74202380D01*
X116154761Y-74202380D01*
X116011904Y-74250000D01*
X115916666Y-74345238D01*
X115869047Y-74440476D01*
X115821428Y-74630952D01*
X115821428Y-74773809D01*
X115869047Y-74964285D01*
X115916666Y-75059523D01*
X116011904Y-75154761D01*
X116154761Y-75202380D01*
X116250000Y-75202380D01*
X116392857Y-75154761D01*
X116440476Y-75107142D01*
X116440476Y-74773809D01*
X116250000Y-74773809D01*
X134440476Y-63702380D02*
X134440476Y-64416666D01*
X134392857Y-64559523D01*
X134297619Y-64654761D01*
X134154761Y-64702380D01*
X134059523Y-64702380D01*
X135440476Y-64702380D02*
X134869047Y-64702380D01*
X135154761Y-64702380D02*
X135154761Y-63702380D01*
X135059523Y-63845238D01*
X134964285Y-63940476D01*
X134869047Y-63988095D01*
X136297619Y-64035714D02*
X136297619Y-64702380D01*
X136059523Y-63654761D02*
X135821428Y-64369047D01*
X136440476Y-64369047D01*
X135654761Y-71702380D02*
X135654761Y-72416666D01*
X135607142Y-72559523D01*
X135511904Y-72654761D01*
X135369047Y-72702380D01*
X135273809Y-72702380D01*
X136845238Y-72654761D02*
X136988095Y-72702380D01*
X137226190Y-72702380D01*
X137321428Y-72654761D01*
X137369047Y-72607142D01*
X137416666Y-72511904D01*
X137416666Y-72416666D01*
X137369047Y-72321428D01*
X137321428Y-72273809D01*
X137226190Y-72226190D01*
X137035714Y-72178571D01*
X136940476Y-72130952D01*
X136892857Y-72083333D01*
X136845238Y-71988095D01*
X136845238Y-71892857D01*
X136892857Y-71797619D01*
X136940476Y-71750000D01*
X137035714Y-71702380D01*
X137273809Y-71702380D01*
X137416666Y-71750000D01*
X137845238Y-72702380D02*
X137845238Y-71702380D01*
X138178571Y-72416666D01*
X138511904Y-71702380D01*
X138511904Y-72702380D01*
X138845238Y-71702380D02*
X139416666Y-71702380D01*
X139130952Y-72702380D02*
X139130952Y-71702380D01*
X139750000Y-72702380D02*
X139750000Y-71702380D01*
X140130952Y-71702380D01*
X140226190Y-71750000D01*
X140273809Y-71797619D01*
X140321428Y-71892857D01*
X140321428Y-72035714D01*
X140273809Y-72130952D01*
X140226190Y-72178571D01*
X140130952Y-72226190D01*
X139750000Y-72226190D01*
X140702380Y-72416666D02*
X141178571Y-72416666D01*
X140607142Y-72702380D02*
X140940476Y-71702380D01*
X141273809Y-72702380D01*
X140892857Y-69678571D02*
X140559523Y-69678571D01*
X140559523Y-70202380D02*
X140559523Y-69202380D01*
X141035714Y-69202380D01*
X138559523Y-70107142D02*
X138511904Y-70154761D01*
X138369047Y-70202380D01*
X138273809Y-70202380D01*
X138130952Y-70154761D01*
X138035714Y-70059523D01*
X137988095Y-69964285D01*
X137940476Y-69773809D01*
X137940476Y-69630952D01*
X137988095Y-69440476D01*
X138035714Y-69345238D01*
X138130952Y-69250000D01*
X138273809Y-69202380D01*
X138369047Y-69202380D01*
X138511904Y-69250000D01*
X138559523Y-69297619D01*
X140511904Y-74916666D02*
X140988095Y-74916666D01*
X140416666Y-75202380D02*
X140750000Y-74202380D01*
X141083333Y-75202380D01*
X138511904Y-74250000D02*
X138416666Y-74202380D01*
X138273809Y-74202380D01*
X138130952Y-74250000D01*
X138035714Y-74345238D01*
X137988095Y-74440476D01*
X137940476Y-74630952D01*
X137940476Y-74773809D01*
X137988095Y-74964285D01*
X138035714Y-75059523D01*
X138130952Y-75154761D01*
X138273809Y-75202380D01*
X138369047Y-75202380D01*
X138511904Y-75154761D01*
X138559523Y-75107142D01*
X138559523Y-74773809D01*
X138369047Y-74773809D01*
X134964285Y-74202380D02*
X135535714Y-74202380D01*
X135250000Y-75202380D02*
X135250000Y-74202380D01*
X136392857Y-74250000D02*
X136297619Y-74202380D01*
X136154761Y-74202380D01*
X136011904Y-74250000D01*
X135916666Y-74345238D01*
X135869047Y-74440476D01*
X135821428Y-74630952D01*
X135821428Y-74773809D01*
X135869047Y-74964285D01*
X135916666Y-75059523D01*
X136011904Y-75154761D01*
X136154761Y-75202380D01*
X136250000Y-75202380D01*
X136392857Y-75154761D01*
X136440476Y-75107142D01*
X136440476Y-74773809D01*
X136250000Y-74773809D01*
X130690476Y-56212380D02*
X130690476Y-56926666D01*
X130642857Y-57069523D01*
X130547619Y-57164761D01*
X130404761Y-57212380D01*
X130309523Y-57212380D01*
X131690476Y-57212380D02*
X131119047Y-57212380D01*
X131404761Y-57212380D02*
X131404761Y-56212380D01*
X131309523Y-56355238D01*
X131214285Y-56450476D01*
X131119047Y-56498095D01*
X132023809Y-56212380D02*
X132642857Y-56212380D01*
X132309523Y-56593333D01*
X132452380Y-56593333D01*
X132547619Y-56640952D01*
X132595238Y-56688571D01*
X132642857Y-56783809D01*
X132642857Y-57021904D01*
X132595238Y-57117142D01*
X132547619Y-57164761D01*
X132452380Y-57212380D01*
X132166666Y-57212380D01*
X132071428Y-57164761D01*
X132023809Y-57117142D01*
X124440476Y-63702380D02*
X124440476Y-64416666D01*
X124392857Y-64559523D01*
X124297619Y-64654761D01*
X124154761Y-64702380D01*
X124059523Y-64702380D01*
X125440476Y-64702380D02*
X124869047Y-64702380D01*
X125154761Y-64702380D02*
X125154761Y-63702380D01*
X125059523Y-63845238D01*
X124964285Y-63940476D01*
X124869047Y-63988095D01*
X125821428Y-63797619D02*
X125869047Y-63750000D01*
X125964285Y-63702380D01*
X126202380Y-63702380D01*
X126297619Y-63750000D01*
X126345238Y-63797619D01*
X126392857Y-63892857D01*
X126392857Y-63988095D01*
X126345238Y-64130952D01*
X125773809Y-64702380D01*
X126392857Y-64702380D01*
X125654761Y-71702380D02*
X125654761Y-72416666D01*
X125607142Y-72559523D01*
X125511904Y-72654761D01*
X125369047Y-72702380D01*
X125273809Y-72702380D01*
X126845238Y-72654761D02*
X126988095Y-72702380D01*
X127226190Y-72702380D01*
X127321428Y-72654761D01*
X127369047Y-72607142D01*
X127416666Y-72511904D01*
X127416666Y-72416666D01*
X127369047Y-72321428D01*
X127321428Y-72273809D01*
X127226190Y-72226190D01*
X127035714Y-72178571D01*
X126940476Y-72130952D01*
X126892857Y-72083333D01*
X126845238Y-71988095D01*
X126845238Y-71892857D01*
X126892857Y-71797619D01*
X126940476Y-71750000D01*
X127035714Y-71702380D01*
X127273809Y-71702380D01*
X127416666Y-71750000D01*
X127845238Y-72702380D02*
X127845238Y-71702380D01*
X128178571Y-72416666D01*
X128511904Y-71702380D01*
X128511904Y-72702380D01*
X128845238Y-71702380D02*
X129416666Y-71702380D01*
X129130952Y-72702380D02*
X129130952Y-71702380D01*
X129750000Y-72702380D02*
X129750000Y-71702380D01*
X130130952Y-71702380D01*
X130226190Y-71750000D01*
X130273809Y-71797619D01*
X130321428Y-71892857D01*
X130321428Y-72035714D01*
X130273809Y-72130952D01*
X130226190Y-72178571D01*
X130130952Y-72226190D01*
X129750000Y-72226190D01*
X130702380Y-72416666D02*
X131178571Y-72416666D01*
X130607142Y-72702380D02*
X130940476Y-71702380D01*
X131273809Y-72702380D01*
X130892857Y-69678571D02*
X130559523Y-69678571D01*
X130559523Y-70202380D02*
X130559523Y-69202380D01*
X131035714Y-69202380D01*
X128559523Y-70107142D02*
X128511904Y-70154761D01*
X128369047Y-70202380D01*
X128273809Y-70202380D01*
X128130952Y-70154761D01*
X128035714Y-70059523D01*
X127988095Y-69964285D01*
X127940476Y-69773809D01*
X127940476Y-69630952D01*
X127988095Y-69440476D01*
X128035714Y-69345238D01*
X128130952Y-69250000D01*
X128273809Y-69202380D01*
X128369047Y-69202380D01*
X128511904Y-69250000D01*
X128559523Y-69297619D01*
X130511904Y-74916666D02*
X130988095Y-74916666D01*
X130416666Y-75202380D02*
X130750000Y-74202380D01*
X131083333Y-75202380D01*
X128511904Y-74250000D02*
X128416666Y-74202380D01*
X128273809Y-74202380D01*
X128130952Y-74250000D01*
X128035714Y-74345238D01*
X127988095Y-74440476D01*
X127940476Y-74630952D01*
X127940476Y-74773809D01*
X127988095Y-74964285D01*
X128035714Y-75059523D01*
X128130952Y-75154761D01*
X128273809Y-75202380D01*
X128369047Y-75202380D01*
X128511904Y-75154761D01*
X128559523Y-75107142D01*
X128559523Y-74773809D01*
X128369047Y-74773809D01*
X124964285Y-74202380D02*
X125535714Y-74202380D01*
X125250000Y-75202380D02*
X125250000Y-74202380D01*
X126392857Y-74250000D02*
X126297619Y-74202380D01*
X126154761Y-74202380D01*
X126011904Y-74250000D01*
X125916666Y-74345238D01*
X125869047Y-74440476D01*
X125821428Y-74630952D01*
X125821428Y-74773809D01*
X125869047Y-74964285D01*
X125916666Y-75059523D01*
X126011904Y-75154761D01*
X126154761Y-75202380D01*
X126250000Y-75202380D01*
X126392857Y-75154761D01*
X126440476Y-75107142D01*
X126440476Y-74773809D01*
X126250000Y-74773809D01*
X144440476Y-63702380D02*
X144440476Y-64416666D01*
X144392857Y-64559523D01*
X144297619Y-64654761D01*
X144154761Y-64702380D01*
X144059523Y-64702380D01*
X145440476Y-64702380D02*
X144869047Y-64702380D01*
X145154761Y-64702380D02*
X145154761Y-63702380D01*
X145059523Y-63845238D01*
X144964285Y-63940476D01*
X144869047Y-63988095D01*
X146392857Y-64702380D02*
X145821428Y-64702380D01*
X146107142Y-64702380D02*
X146107142Y-63702380D01*
X146011904Y-63845238D01*
X145916666Y-63940476D01*
X145821428Y-63988095D01*
X150892857Y-69678571D02*
X150559523Y-69678571D01*
X150559523Y-70202380D02*
X150559523Y-69202380D01*
X151035714Y-69202380D01*
X148559523Y-70107142D02*
X148511904Y-70154761D01*
X148369047Y-70202380D01*
X148273809Y-70202380D01*
X148130952Y-70154761D01*
X148035714Y-70059523D01*
X147988095Y-69964285D01*
X147940476Y-69773809D01*
X147940476Y-69630952D01*
X147988095Y-69440476D01*
X148035714Y-69345238D01*
X148130952Y-69250000D01*
X148273809Y-69202380D01*
X148369047Y-69202380D01*
X148511904Y-69250000D01*
X148559523Y-69297619D01*
X150511904Y-74916666D02*
X150988095Y-74916666D01*
X150416666Y-75202380D02*
X150750000Y-74202380D01*
X151083333Y-75202380D01*
X148511904Y-74250000D02*
X148416666Y-74202380D01*
X148273809Y-74202380D01*
X148130952Y-74250000D01*
X148035714Y-74345238D01*
X147988095Y-74440476D01*
X147940476Y-74630952D01*
X147940476Y-74773809D01*
X147988095Y-74964285D01*
X148035714Y-75059523D01*
X148130952Y-75154761D01*
X148273809Y-75202380D01*
X148369047Y-75202380D01*
X148511904Y-75154761D01*
X148559523Y-75107142D01*
X148559523Y-74773809D01*
X148369047Y-74773809D01*
X144964285Y-74202380D02*
X145535714Y-74202380D01*
X145250000Y-75202380D02*
X145250000Y-74202380D01*
X146392857Y-74250000D02*
X146297619Y-74202380D01*
X146154761Y-74202380D01*
X146011904Y-74250000D01*
X145916666Y-74345238D01*
X145869047Y-74440476D01*
X145821428Y-74630952D01*
X145821428Y-74773809D01*
X145869047Y-74964285D01*
X145916666Y-75059523D01*
X146011904Y-75154761D01*
X146154761Y-75202380D01*
X146250000Y-75202380D01*
X146392857Y-75154761D01*
X146440476Y-75107142D01*
X146440476Y-74773809D01*
X146250000Y-74773809D01*
X123702380Y-64488095D02*
X122702380Y-64488095D01*
X122702380Y-64250000D01*
X122750000Y-64107142D01*
X122845238Y-64011904D01*
X122940476Y-63964285D01*
X123130952Y-63916666D01*
X123273809Y-63916666D01*
X123464285Y-63964285D01*
X123559523Y-64011904D01*
X123654761Y-64107142D01*
X123702380Y-64250000D01*
X123702380Y-64488095D01*
X122702380Y-63583333D02*
X122702380Y-62916666D01*
X123702380Y-63345238D01*
X133702380Y-64488095D02*
X132702380Y-64488095D01*
X132702380Y-64250000D01*
X132750000Y-64107142D01*
X132845238Y-64011904D01*
X132940476Y-63964285D01*
X133130952Y-63916666D01*
X133273809Y-63916666D01*
X133464285Y-63964285D01*
X133559523Y-64011904D01*
X133654761Y-64107142D01*
X133702380Y-64250000D01*
X133702380Y-64488095D01*
X132702380Y-63059523D02*
X132702380Y-63250000D01*
X132750000Y-63345238D01*
X132797619Y-63392857D01*
X132940476Y-63488095D01*
X133130952Y-63535714D01*
X133511904Y-63535714D01*
X133607142Y-63488095D01*
X133654761Y-63440476D01*
X133702380Y-63345238D01*
X133702380Y-63154761D01*
X133654761Y-63059523D01*
X133607142Y-63011904D01*
X133511904Y-62964285D01*
X133273809Y-62964285D01*
X133178571Y-63011904D01*
X133130952Y-63059523D01*
X133083333Y-63154761D01*
X133083333Y-63345238D01*
X133130952Y-63440476D01*
X133178571Y-63488095D01*
X133273809Y-63535714D01*
X143702380Y-64488095D02*
X142702380Y-64488095D01*
X142702380Y-64250000D01*
X142750000Y-64107142D01*
X142845238Y-64011904D01*
X142940476Y-63964285D01*
X143130952Y-63916666D01*
X143273809Y-63916666D01*
X143464285Y-63964285D01*
X143559523Y-64011904D01*
X143654761Y-64107142D01*
X143702380Y-64250000D01*
X143702380Y-64488095D01*
X142702380Y-63011904D02*
X142702380Y-63488095D01*
X143178571Y-63535714D01*
X143130952Y-63488095D01*
X143083333Y-63392857D01*
X143083333Y-63154761D01*
X143130952Y-63059523D01*
X143178571Y-63011904D01*
X143273809Y-62964285D01*
X143511904Y-62964285D01*
X143607142Y-63011904D01*
X143654761Y-63059523D01*
X143702380Y-63154761D01*
X143702380Y-63392857D01*
X143654761Y-63488095D01*
X143607142Y-63535714D01*
X153702380Y-64488095D02*
X152702380Y-64488095D01*
X152702380Y-64250000D01*
X152750000Y-64107142D01*
X152845238Y-64011904D01*
X152940476Y-63964285D01*
X153130952Y-63916666D01*
X153273809Y-63916666D01*
X153464285Y-63964285D01*
X153559523Y-64011904D01*
X153654761Y-64107142D01*
X153702380Y-64250000D01*
X153702380Y-64488095D01*
X153035714Y-63059523D02*
X153702380Y-63059523D01*
X152654761Y-63297619D02*
X153369047Y-63535714D01*
X153369047Y-62916666D01*
X108107142Y-80957142D02*
X108059523Y-81004761D01*
X107916666Y-81052380D01*
X107821428Y-81052380D01*
X107678571Y-81004761D01*
X107583333Y-80909523D01*
X107535714Y-80814285D01*
X107488095Y-80623809D01*
X107488095Y-80480952D01*
X107535714Y-80290476D01*
X107583333Y-80195238D01*
X107678571Y-80100000D01*
X107821428Y-80052380D01*
X107916666Y-80052380D01*
X108059523Y-80100000D01*
X108107142Y-80147619D01*
X108964285Y-80385714D02*
X108964285Y-81052380D01*
X108726190Y-80004761D02*
X108488095Y-80719047D01*
X109107142Y-80719047D01*
X109440476Y-80147619D02*
X109488095Y-80100000D01*
X109583333Y-80052380D01*
X109821428Y-80052380D01*
X109916666Y-80100000D01*
X109964285Y-80147619D01*
X110011904Y-80242857D01*
X110011904Y-80338095D01*
X109964285Y-80480952D01*
X109392857Y-81052380D01*
X110011904Y-81052380D01*
X109082142Y-71457142D02*
X109034523Y-71504761D01*
X108891666Y-71552380D01*
X108796428Y-71552380D01*
X108653571Y-71504761D01*
X108558333Y-71409523D01*
X108510714Y-71314285D01*
X108463095Y-71123809D01*
X108463095Y-70980952D01*
X108510714Y-70790476D01*
X108558333Y-70695238D01*
X108653571Y-70600000D01*
X108796428Y-70552380D01*
X108891666Y-70552380D01*
X109034523Y-70600000D01*
X109082142Y-70647619D01*
X109939285Y-70885714D02*
X109939285Y-71552380D01*
X109701190Y-70504761D02*
X109463095Y-71219047D01*
X110082142Y-71219047D01*
X110986904Y-71552380D02*
X110415476Y-71552380D01*
X110701190Y-71552380D02*
X110701190Y-70552380D01*
X110605952Y-70695238D01*
X110510714Y-70790476D01*
X110415476Y-70838095D01*
X134857142Y-60942857D02*
X134904761Y-60990476D01*
X134952380Y-61133333D01*
X134952380Y-61228571D01*
X134904761Y-61371428D01*
X134809523Y-61466666D01*
X134714285Y-61514285D01*
X134523809Y-61561904D01*
X134380952Y-61561904D01*
X134190476Y-61514285D01*
X134095238Y-61466666D01*
X134000000Y-61371428D01*
X133952380Y-61228571D01*
X133952380Y-61133333D01*
X134000000Y-60990476D01*
X134047619Y-60942857D01*
X134285714Y-60085714D02*
X134952380Y-60085714D01*
X133904761Y-60323809D02*
X134619047Y-60561904D01*
X134619047Y-59942857D01*
X133952380Y-59371428D02*
X133952380Y-59276190D01*
X134000000Y-59180952D01*
X134047619Y-59133333D01*
X134142857Y-59085714D01*
X134333333Y-59038095D01*
X134571428Y-59038095D01*
X134761904Y-59085714D01*
X134857142Y-59133333D01*
X134904761Y-59180952D01*
X134952380Y-59276190D01*
X134952380Y-59371428D01*
X134904761Y-59466666D01*
X134857142Y-59514285D01*
X134761904Y-59561904D01*
X134571428Y-59609523D01*
X134333333Y-59609523D01*
X134142857Y-59561904D01*
X134047619Y-59514285D01*
X134000000Y-59466666D01*
X133952380Y-59371428D01*
X179217380Y-105519523D02*
X179931666Y-105519523D01*
X180074523Y-105567142D01*
X180169761Y-105662380D01*
X180217380Y-105805238D01*
X180217380Y-105900476D01*
X179312619Y-105090952D02*
X179265000Y-105043333D01*
X179217380Y-104948095D01*
X179217380Y-104710000D01*
X179265000Y-104614761D01*
X179312619Y-104567142D01*
X179407857Y-104519523D01*
X179503095Y-104519523D01*
X179645952Y-104567142D01*
X180217380Y-105138571D01*
X180217380Y-104519523D01*
X179217380Y-103900476D02*
X179217380Y-103805238D01*
X179265000Y-103710000D01*
X179312619Y-103662380D01*
X179407857Y-103614761D01*
X179598333Y-103567142D01*
X179836428Y-103567142D01*
X180026904Y-103614761D01*
X180122142Y-103662380D01*
X180169761Y-103710000D01*
X180217380Y-103805238D01*
X180217380Y-103900476D01*
X180169761Y-103995714D01*
X180122142Y-104043333D01*
X180026904Y-104090952D01*
X179836428Y-104138571D01*
X179598333Y-104138571D01*
X179407857Y-104090952D01*
X179312619Y-104043333D01*
X179265000Y-103995714D01*
X179217380Y-103900476D01*
X170967380Y-106805238D02*
X171681666Y-106805238D01*
X171824523Y-106852857D01*
X171919761Y-106948095D01*
X171967380Y-107090952D01*
X171967380Y-107186190D01*
X171919761Y-105614761D02*
X171967380Y-105471904D01*
X171967380Y-105233809D01*
X171919761Y-105138571D01*
X171872142Y-105090952D01*
X171776904Y-105043333D01*
X171681666Y-105043333D01*
X171586428Y-105090952D01*
X171538809Y-105138571D01*
X171491190Y-105233809D01*
X171443571Y-105424285D01*
X171395952Y-105519523D01*
X171348333Y-105567142D01*
X171253095Y-105614761D01*
X171157857Y-105614761D01*
X171062619Y-105567142D01*
X171015000Y-105519523D01*
X170967380Y-105424285D01*
X170967380Y-105186190D01*
X171015000Y-105043333D01*
X171967380Y-104614761D02*
X170967380Y-104614761D01*
X171681666Y-104281428D01*
X170967380Y-103948095D01*
X171967380Y-103948095D01*
X170967380Y-103614761D02*
X170967380Y-103043333D01*
X171967380Y-103329047D02*
X170967380Y-103329047D01*
X171967380Y-102710000D02*
X170967380Y-102710000D01*
X170967380Y-102329047D01*
X171015000Y-102233809D01*
X171062619Y-102186190D01*
X171157857Y-102138571D01*
X171300714Y-102138571D01*
X171395952Y-102186190D01*
X171443571Y-102233809D01*
X171491190Y-102329047D01*
X171491190Y-102710000D01*
X171681666Y-101757619D02*
X171681666Y-101281428D01*
X171967380Y-101852857D02*
X170967380Y-101519523D01*
X171967380Y-101186190D01*
X173943571Y-106567142D02*
X173943571Y-106900476D01*
X174467380Y-106900476D02*
X173467380Y-106900476D01*
X173467380Y-106424285D01*
X174372142Y-103900476D02*
X174419761Y-103948095D01*
X174467380Y-104090952D01*
X174467380Y-104186190D01*
X174419761Y-104329047D01*
X174324523Y-104424285D01*
X174229285Y-104471904D01*
X174038809Y-104519523D01*
X173895952Y-104519523D01*
X173705476Y-104471904D01*
X173610238Y-104424285D01*
X173515000Y-104329047D01*
X173467380Y-104186190D01*
X173467380Y-104090952D01*
X173515000Y-103948095D01*
X173562619Y-103900476D01*
X169181666Y-106948095D02*
X169181666Y-106471904D01*
X169467380Y-107043333D02*
X168467380Y-106710000D01*
X169467380Y-106376666D01*
X168515000Y-103948095D02*
X168467380Y-104043333D01*
X168467380Y-104186190D01*
X168515000Y-104329047D01*
X168610238Y-104424285D01*
X168705476Y-104471904D01*
X168895952Y-104519523D01*
X169038809Y-104519523D01*
X169229285Y-104471904D01*
X169324523Y-104424285D01*
X169419761Y-104329047D01*
X169467380Y-104186190D01*
X169467380Y-104090952D01*
X169419761Y-103948095D01*
X169372142Y-103900476D01*
X169038809Y-103900476D01*
X169038809Y-104090952D01*
X168467380Y-102495714D02*
X168467380Y-101924285D01*
X169467380Y-102210000D02*
X168467380Y-102210000D01*
X168515000Y-101067142D02*
X168467380Y-101162380D01*
X168467380Y-101305238D01*
X168515000Y-101448095D01*
X168610238Y-101543333D01*
X168705476Y-101590952D01*
X168895952Y-101638571D01*
X169038809Y-101638571D01*
X169229285Y-101590952D01*
X169324523Y-101543333D01*
X169419761Y-101448095D01*
X169467380Y-101305238D01*
X169467380Y-101210000D01*
X169419761Y-101067142D01*
X169372142Y-101019523D01*
X169038809Y-101019523D01*
X169038809Y-101210000D01*
X179217380Y-93504523D02*
X179931666Y-93504523D01*
X180074523Y-93552142D01*
X180169761Y-93647380D01*
X180217380Y-93790238D01*
X180217380Y-93885476D01*
X180217380Y-92504523D02*
X180217380Y-93075952D01*
X180217380Y-92790238D02*
X179217380Y-92790238D01*
X179360238Y-92885476D01*
X179455476Y-92980714D01*
X179503095Y-93075952D01*
X179217380Y-92171190D02*
X179217380Y-91504523D01*
X180217380Y-91933095D01*
X170967380Y-94790238D02*
X171681666Y-94790238D01*
X171824523Y-94837857D01*
X171919761Y-94933095D01*
X171967380Y-95075952D01*
X171967380Y-95171190D01*
X171919761Y-93599761D02*
X171967380Y-93456904D01*
X171967380Y-93218809D01*
X171919761Y-93123571D01*
X171872142Y-93075952D01*
X171776904Y-93028333D01*
X171681666Y-93028333D01*
X171586428Y-93075952D01*
X171538809Y-93123571D01*
X171491190Y-93218809D01*
X171443571Y-93409285D01*
X171395952Y-93504523D01*
X171348333Y-93552142D01*
X171253095Y-93599761D01*
X171157857Y-93599761D01*
X171062619Y-93552142D01*
X171015000Y-93504523D01*
X170967380Y-93409285D01*
X170967380Y-93171190D01*
X171015000Y-93028333D01*
X171967380Y-92599761D02*
X170967380Y-92599761D01*
X171681666Y-92266428D01*
X170967380Y-91933095D01*
X171967380Y-91933095D01*
X170967380Y-91599761D02*
X170967380Y-91028333D01*
X171967380Y-91314047D02*
X170967380Y-91314047D01*
X171967380Y-90695000D02*
X170967380Y-90695000D01*
X170967380Y-90314047D01*
X171015000Y-90218809D01*
X171062619Y-90171190D01*
X171157857Y-90123571D01*
X171300714Y-90123571D01*
X171395952Y-90171190D01*
X171443571Y-90218809D01*
X171491190Y-90314047D01*
X171491190Y-90695000D01*
X171681666Y-89742619D02*
X171681666Y-89266428D01*
X171967380Y-89837857D02*
X170967380Y-89504523D01*
X171967380Y-89171190D01*
X173943571Y-94552142D02*
X173943571Y-94885476D01*
X174467380Y-94885476D02*
X173467380Y-94885476D01*
X173467380Y-94409285D01*
X174372142Y-91885476D02*
X174419761Y-91933095D01*
X174467380Y-92075952D01*
X174467380Y-92171190D01*
X174419761Y-92314047D01*
X174324523Y-92409285D01*
X174229285Y-92456904D01*
X174038809Y-92504523D01*
X173895952Y-92504523D01*
X173705476Y-92456904D01*
X173610238Y-92409285D01*
X173515000Y-92314047D01*
X173467380Y-92171190D01*
X173467380Y-92075952D01*
X173515000Y-91933095D01*
X173562619Y-91885476D01*
X169181666Y-94933095D02*
X169181666Y-94456904D01*
X169467380Y-95028333D02*
X168467380Y-94695000D01*
X169467380Y-94361666D01*
X168515000Y-91933095D02*
X168467380Y-92028333D01*
X168467380Y-92171190D01*
X168515000Y-92314047D01*
X168610238Y-92409285D01*
X168705476Y-92456904D01*
X168895952Y-92504523D01*
X169038809Y-92504523D01*
X169229285Y-92456904D01*
X169324523Y-92409285D01*
X169419761Y-92314047D01*
X169467380Y-92171190D01*
X169467380Y-92075952D01*
X169419761Y-91933095D01*
X169372142Y-91885476D01*
X169038809Y-91885476D01*
X169038809Y-92075952D01*
X168467380Y-90480714D02*
X168467380Y-89909285D01*
X169467380Y-90195000D02*
X168467380Y-90195000D01*
X168515000Y-89052142D02*
X168467380Y-89147380D01*
X168467380Y-89290238D01*
X168515000Y-89433095D01*
X168610238Y-89528333D01*
X168705476Y-89575952D01*
X168895952Y-89623571D01*
X169038809Y-89623571D01*
X169229285Y-89575952D01*
X169324523Y-89528333D01*
X169419761Y-89433095D01*
X169467380Y-89290238D01*
X169467380Y-89195000D01*
X169419761Y-89052142D01*
X169372142Y-89004523D01*
X169038809Y-89004523D01*
X169038809Y-89195000D01*
X121452380Y-140083333D02*
X122166666Y-140083333D01*
X122309523Y-140130952D01*
X122404761Y-140226190D01*
X122452380Y-140369047D01*
X122452380Y-140464285D01*
X121452380Y-139702380D02*
X121452380Y-139035714D01*
X122452380Y-139464285D01*
X126928571Y-135397142D02*
X126928571Y-135730476D01*
X127452380Y-135730476D02*
X126452380Y-135730476D01*
X126452380Y-135254285D01*
X132166666Y-135778095D02*
X132166666Y-135301904D01*
X132452380Y-135873333D02*
X131452380Y-135540000D01*
X132452380Y-135206666D01*
X131500000Y-137778095D02*
X131452380Y-137873333D01*
X131452380Y-138016190D01*
X131500000Y-138159047D01*
X131595238Y-138254285D01*
X131690476Y-138301904D01*
X131880952Y-138349523D01*
X132023809Y-138349523D01*
X132214285Y-138301904D01*
X132309523Y-138254285D01*
X132404761Y-138159047D01*
X132452380Y-138016190D01*
X132452380Y-137920952D01*
X132404761Y-137778095D01*
X132357142Y-137730476D01*
X132023809Y-137730476D01*
X132023809Y-137920952D01*
X131452380Y-141325714D02*
X131452380Y-140754285D01*
X132452380Y-141040000D02*
X131452380Y-141040000D01*
X131500000Y-139897142D02*
X131452380Y-139992380D01*
X131452380Y-140135238D01*
X131500000Y-140278095D01*
X131595238Y-140373333D01*
X131690476Y-140420952D01*
X131880952Y-140468571D01*
X132023809Y-140468571D01*
X132214285Y-140420952D01*
X132309523Y-140373333D01*
X132404761Y-140278095D01*
X132452380Y-140135238D01*
X132452380Y-140040000D01*
X132404761Y-139897142D01*
X132357142Y-139849523D01*
X132023809Y-139849523D01*
X132023809Y-140040000D01*
X184916666Y-55702380D02*
X184916666Y-56416666D01*
X184869047Y-56559523D01*
X184773809Y-56654761D01*
X184630952Y-56702380D01*
X184535714Y-56702380D01*
X185821428Y-55702380D02*
X185630952Y-55702380D01*
X185535714Y-55750000D01*
X185488095Y-55797619D01*
X185392857Y-55940476D01*
X185345238Y-56130952D01*
X185345238Y-56511904D01*
X185392857Y-56607142D01*
X185440476Y-56654761D01*
X185535714Y-56702380D01*
X185726190Y-56702380D01*
X185821428Y-56654761D01*
X185869047Y-56607142D01*
X185916666Y-56511904D01*
X185916666Y-56273809D01*
X185869047Y-56178571D01*
X185821428Y-56130952D01*
X185726190Y-56083333D01*
X185535714Y-56083333D01*
X185440476Y-56130952D01*
X185392857Y-56178571D01*
X185345238Y-56273809D01*
X178114761Y-63952380D02*
X178114761Y-64666666D01*
X178067142Y-64809523D01*
X177971904Y-64904761D01*
X177829047Y-64952380D01*
X177733809Y-64952380D01*
X179305238Y-64904761D02*
X179448095Y-64952380D01*
X179686190Y-64952380D01*
X179781428Y-64904761D01*
X179829047Y-64857142D01*
X179876666Y-64761904D01*
X179876666Y-64666666D01*
X179829047Y-64571428D01*
X179781428Y-64523809D01*
X179686190Y-64476190D01*
X179495714Y-64428571D01*
X179400476Y-64380952D01*
X179352857Y-64333333D01*
X179305238Y-64238095D01*
X179305238Y-64142857D01*
X179352857Y-64047619D01*
X179400476Y-64000000D01*
X179495714Y-63952380D01*
X179733809Y-63952380D01*
X179876666Y-64000000D01*
X180305238Y-64952380D02*
X180305238Y-63952380D01*
X180638571Y-64666666D01*
X180971904Y-63952380D01*
X180971904Y-64952380D01*
X181305238Y-63952380D02*
X181876666Y-63952380D01*
X181590952Y-64952380D02*
X181590952Y-63952380D01*
X182210000Y-64952380D02*
X182210000Y-63952380D01*
X182590952Y-63952380D01*
X182686190Y-64000000D01*
X182733809Y-64047619D01*
X182781428Y-64142857D01*
X182781428Y-64285714D01*
X182733809Y-64380952D01*
X182686190Y-64428571D01*
X182590952Y-64476190D01*
X182210000Y-64476190D01*
X183162380Y-64666666D02*
X183638571Y-64666666D01*
X183067142Y-64952380D02*
X183400476Y-63952380D01*
X183733809Y-64952380D01*
X183352857Y-61928571D02*
X183019523Y-61928571D01*
X183019523Y-62452380D02*
X183019523Y-61452380D01*
X183495714Y-61452380D01*
X181019523Y-62357142D02*
X180971904Y-62404761D01*
X180829047Y-62452380D01*
X180733809Y-62452380D01*
X180590952Y-62404761D01*
X180495714Y-62309523D01*
X180448095Y-62214285D01*
X180400476Y-62023809D01*
X180400476Y-61880952D01*
X180448095Y-61690476D01*
X180495714Y-61595238D01*
X180590952Y-61500000D01*
X180733809Y-61452380D01*
X180829047Y-61452380D01*
X180971904Y-61500000D01*
X181019523Y-61547619D01*
X182971904Y-67166666D02*
X183448095Y-67166666D01*
X182876666Y-67452380D02*
X183210000Y-66452380D01*
X183543333Y-67452380D01*
X180971904Y-66500000D02*
X180876666Y-66452380D01*
X180733809Y-66452380D01*
X180590952Y-66500000D01*
X180495714Y-66595238D01*
X180448095Y-66690476D01*
X180400476Y-66880952D01*
X180400476Y-67023809D01*
X180448095Y-67214285D01*
X180495714Y-67309523D01*
X180590952Y-67404761D01*
X180733809Y-67452380D01*
X180829047Y-67452380D01*
X180971904Y-67404761D01*
X181019523Y-67357142D01*
X181019523Y-67023809D01*
X180829047Y-67023809D01*
X177424285Y-66452380D02*
X177995714Y-66452380D01*
X177710000Y-67452380D02*
X177710000Y-66452380D01*
X178852857Y-66500000D02*
X178757619Y-66452380D01*
X178614761Y-66452380D01*
X178471904Y-66500000D01*
X178376666Y-66595238D01*
X178329047Y-66690476D01*
X178281428Y-66880952D01*
X178281428Y-67023809D01*
X178329047Y-67214285D01*
X178376666Y-67309523D01*
X178471904Y-67404761D01*
X178614761Y-67452380D01*
X178710000Y-67452380D01*
X178852857Y-67404761D01*
X178900476Y-67357142D01*
X178900476Y-67023809D01*
X178710000Y-67023809D01*
X160166666Y-126452380D02*
X160166666Y-127166666D01*
X160119047Y-127309523D01*
X160023809Y-127404761D01*
X159880952Y-127452380D01*
X159785714Y-127452380D01*
X161071428Y-126785714D02*
X161071428Y-127452380D01*
X160833333Y-126404761D02*
X160595238Y-127119047D01*
X161214285Y-127119047D01*
X159904761Y-131452380D02*
X159904761Y-132166666D01*
X159857142Y-132309523D01*
X159761904Y-132404761D01*
X159619047Y-132452380D01*
X159523809Y-132452380D01*
X161095238Y-132404761D02*
X161238095Y-132452380D01*
X161476190Y-132452380D01*
X161571428Y-132404761D01*
X161619047Y-132357142D01*
X161666666Y-132261904D01*
X161666666Y-132166666D01*
X161619047Y-132071428D01*
X161571428Y-132023809D01*
X161476190Y-131976190D01*
X161285714Y-131928571D01*
X161190476Y-131880952D01*
X161142857Y-131833333D01*
X161095238Y-131738095D01*
X161095238Y-131642857D01*
X161142857Y-131547619D01*
X161190476Y-131500000D01*
X161285714Y-131452380D01*
X161523809Y-131452380D01*
X161666666Y-131500000D01*
X162095238Y-132452380D02*
X162095238Y-131452380D01*
X162428571Y-132166666D01*
X162761904Y-131452380D01*
X162761904Y-132452380D01*
X163095238Y-131452380D02*
X163666666Y-131452380D01*
X163380952Y-132452380D02*
X163380952Y-131452380D01*
X164000000Y-132452380D02*
X164000000Y-131452380D01*
X164380952Y-131452380D01*
X164476190Y-131500000D01*
X164523809Y-131547619D01*
X164571428Y-131642857D01*
X164571428Y-131785714D01*
X164523809Y-131880952D01*
X164476190Y-131928571D01*
X164380952Y-131976190D01*
X164000000Y-131976190D01*
X164952380Y-132166666D02*
X165428571Y-132166666D01*
X164857142Y-132452380D02*
X165190476Y-131452380D01*
X165523809Y-132452380D01*
X165142857Y-129428571D02*
X164809523Y-129428571D01*
X164809523Y-129952380D02*
X164809523Y-128952380D01*
X165285714Y-128952380D01*
X162809523Y-129857142D02*
X162761904Y-129904761D01*
X162619047Y-129952380D01*
X162523809Y-129952380D01*
X162380952Y-129904761D01*
X162285714Y-129809523D01*
X162238095Y-129714285D01*
X162190476Y-129523809D01*
X162190476Y-129380952D01*
X162238095Y-129190476D01*
X162285714Y-129095238D01*
X162380952Y-129000000D01*
X162523809Y-128952380D01*
X162619047Y-128952380D01*
X162761904Y-129000000D01*
X162809523Y-129047619D01*
X164761904Y-134666666D02*
X165238095Y-134666666D01*
X164666666Y-134952380D02*
X165000000Y-133952380D01*
X165333333Y-134952380D01*
X162761904Y-134000000D02*
X162666666Y-133952380D01*
X162523809Y-133952380D01*
X162380952Y-134000000D01*
X162285714Y-134095238D01*
X162238095Y-134190476D01*
X162190476Y-134380952D01*
X162190476Y-134523809D01*
X162238095Y-134714285D01*
X162285714Y-134809523D01*
X162380952Y-134904761D01*
X162523809Y-134952380D01*
X162619047Y-134952380D01*
X162761904Y-134904761D01*
X162809523Y-134857142D01*
X162809523Y-134523809D01*
X162619047Y-134523809D01*
X159214285Y-133952380D02*
X159785714Y-133952380D01*
X159500000Y-134952380D02*
X159500000Y-133952380D01*
X160642857Y-134000000D02*
X160547619Y-133952380D01*
X160404761Y-133952380D01*
X160261904Y-134000000D01*
X160166666Y-134095238D01*
X160119047Y-134190476D01*
X160071428Y-134380952D01*
X160071428Y-134523809D01*
X160119047Y-134714285D01*
X160166666Y-134809523D01*
X160261904Y-134904761D01*
X160404761Y-134952380D01*
X160500000Y-134952380D01*
X160642857Y-134904761D01*
X160690476Y-134857142D01*
X160690476Y-134523809D01*
X160500000Y-134523809D01*
X121452380Y-126833333D02*
X122166666Y-126833333D01*
X122309523Y-126880952D01*
X122404761Y-126976190D01*
X122452380Y-127119047D01*
X122452380Y-127214285D01*
X121452380Y-126452380D02*
X121452380Y-125833333D01*
X121833333Y-126166666D01*
X121833333Y-126023809D01*
X121880952Y-125928571D01*
X121928571Y-125880952D01*
X122023809Y-125833333D01*
X122261904Y-125833333D01*
X122357142Y-125880952D01*
X122404761Y-125928571D01*
X122452380Y-126023809D01*
X122452380Y-126309523D01*
X122404761Y-126404761D01*
X122357142Y-126452380D01*
X131928571Y-129317142D02*
X131928571Y-129650476D01*
X132452380Y-129650476D02*
X131452380Y-129650476D01*
X131452380Y-129174285D01*
X127166666Y-129698095D02*
X127166666Y-129221904D01*
X127452380Y-129793333D02*
X126452380Y-129460000D01*
X127452380Y-129126666D01*
X126500000Y-126698095D02*
X126452380Y-126793333D01*
X126452380Y-126936190D01*
X126500000Y-127079047D01*
X126595238Y-127174285D01*
X126690476Y-127221904D01*
X126880952Y-127269523D01*
X127023809Y-127269523D01*
X127214285Y-127221904D01*
X127309523Y-127174285D01*
X127404761Y-127079047D01*
X127452380Y-126936190D01*
X127452380Y-126840952D01*
X127404761Y-126698095D01*
X127357142Y-126650476D01*
X127023809Y-126650476D01*
X127023809Y-126840952D01*
X126452380Y-125245714D02*
X126452380Y-124674285D01*
X127452380Y-124960000D02*
X126452380Y-124960000D01*
X126500000Y-123817142D02*
X126452380Y-123912380D01*
X126452380Y-124055238D01*
X126500000Y-124198095D01*
X126595238Y-124293333D01*
X126690476Y-124340952D01*
X126880952Y-124388571D01*
X127023809Y-124388571D01*
X127214285Y-124340952D01*
X127309523Y-124293333D01*
X127404761Y-124198095D01*
X127452380Y-124055238D01*
X127452380Y-123960000D01*
X127404761Y-123817142D01*
X127357142Y-123769523D01*
X127023809Y-123769523D01*
X127023809Y-123960000D01*
X114202380Y-92083333D02*
X114916666Y-92083333D01*
X115059523Y-92130952D01*
X115154761Y-92226190D01*
X115202380Y-92369047D01*
X115202380Y-92464285D01*
X114297619Y-91654761D02*
X114250000Y-91607142D01*
X114202380Y-91511904D01*
X114202380Y-91273809D01*
X114250000Y-91178571D01*
X114297619Y-91130952D01*
X114392857Y-91083333D01*
X114488095Y-91083333D01*
X114630952Y-91130952D01*
X115202380Y-91702380D01*
X115202380Y-91083333D01*
X112178571Y-92647142D02*
X112178571Y-92980476D01*
X112702380Y-92980476D02*
X111702380Y-92980476D01*
X111702380Y-92504285D01*
X117416666Y-93028095D02*
X117416666Y-92551904D01*
X117702380Y-93123333D02*
X116702380Y-92790000D01*
X117702380Y-92456666D01*
X116750000Y-95028095D02*
X116702380Y-95123333D01*
X116702380Y-95266190D01*
X116750000Y-95409047D01*
X116845238Y-95504285D01*
X116940476Y-95551904D01*
X117130952Y-95599523D01*
X117273809Y-95599523D01*
X117464285Y-95551904D01*
X117559523Y-95504285D01*
X117654761Y-95409047D01*
X117702380Y-95266190D01*
X117702380Y-95170952D01*
X117654761Y-95028095D01*
X117607142Y-94980476D01*
X117273809Y-94980476D01*
X117273809Y-95170952D01*
X116702380Y-98575714D02*
X116702380Y-98004285D01*
X117702380Y-98290000D02*
X116702380Y-98290000D01*
X116750000Y-97147142D02*
X116702380Y-97242380D01*
X116702380Y-97385238D01*
X116750000Y-97528095D01*
X116845238Y-97623333D01*
X116940476Y-97670952D01*
X117130952Y-97718571D01*
X117273809Y-97718571D01*
X117464285Y-97670952D01*
X117559523Y-97623333D01*
X117654761Y-97528095D01*
X117702380Y-97385238D01*
X117702380Y-97290000D01*
X117654761Y-97147142D01*
X117607142Y-97099523D01*
X117273809Y-97099523D01*
X117273809Y-97290000D01*
X183107142Y-104107142D02*
X183059523Y-104154761D01*
X182916666Y-104202380D01*
X182821428Y-104202380D01*
X182678571Y-104154761D01*
X182583333Y-104059523D01*
X182535714Y-103964285D01*
X182488095Y-103773809D01*
X182488095Y-103630952D01*
X182535714Y-103440476D01*
X182583333Y-103345238D01*
X182678571Y-103250000D01*
X182821428Y-103202380D01*
X182916666Y-103202380D01*
X183059523Y-103250000D01*
X183107142Y-103297619D01*
X183440476Y-103202380D02*
X184059523Y-103202380D01*
X183726190Y-103583333D01*
X183869047Y-103583333D01*
X183964285Y-103630952D01*
X184011904Y-103678571D01*
X184059523Y-103773809D01*
X184059523Y-104011904D01*
X184011904Y-104107142D01*
X183964285Y-104154761D01*
X183869047Y-104202380D01*
X183583333Y-104202380D01*
X183488095Y-104154761D01*
X183440476Y-104107142D01*
X184535714Y-104202380D02*
X184726190Y-104202380D01*
X184821428Y-104154761D01*
X184869047Y-104107142D01*
X184964285Y-103964285D01*
X185011904Y-103773809D01*
X185011904Y-103392857D01*
X184964285Y-103297619D01*
X184916666Y-103250000D01*
X184821428Y-103202380D01*
X184630952Y-103202380D01*
X184535714Y-103250000D01*
X184488095Y-103297619D01*
X184440476Y-103392857D01*
X184440476Y-103630952D01*
X184488095Y-103726190D01*
X184535714Y-103773809D01*
X184630952Y-103821428D01*
X184821428Y-103821428D01*
X184916666Y-103773809D01*
X184964285Y-103726190D01*
X185011904Y-103630952D01*
X183107142Y-102107142D02*
X183059523Y-102154761D01*
X182916666Y-102202380D01*
X182821428Y-102202380D01*
X182678571Y-102154761D01*
X182583333Y-102059523D01*
X182535714Y-101964285D01*
X182488095Y-101773809D01*
X182488095Y-101630952D01*
X182535714Y-101440476D01*
X182583333Y-101345238D01*
X182678571Y-101250000D01*
X182821428Y-101202380D01*
X182916666Y-101202380D01*
X183059523Y-101250000D01*
X183107142Y-101297619D01*
X183440476Y-101202380D02*
X184059523Y-101202380D01*
X183726190Y-101583333D01*
X183869047Y-101583333D01*
X183964285Y-101630952D01*
X184011904Y-101678571D01*
X184059523Y-101773809D01*
X184059523Y-102011904D01*
X184011904Y-102107142D01*
X183964285Y-102154761D01*
X183869047Y-102202380D01*
X183583333Y-102202380D01*
X183488095Y-102154761D01*
X183440476Y-102107142D01*
X184630952Y-101630952D02*
X184535714Y-101583333D01*
X184488095Y-101535714D01*
X184440476Y-101440476D01*
X184440476Y-101392857D01*
X184488095Y-101297619D01*
X184535714Y-101250000D01*
X184630952Y-101202380D01*
X184821428Y-101202380D01*
X184916666Y-101250000D01*
X184964285Y-101297619D01*
X185011904Y-101392857D01*
X185011904Y-101440476D01*
X184964285Y-101535714D01*
X184916666Y-101583333D01*
X184821428Y-101630952D01*
X184630952Y-101630952D01*
X184535714Y-101678571D01*
X184488095Y-101726190D01*
X184440476Y-101821428D01*
X184440476Y-102011904D01*
X184488095Y-102107142D01*
X184535714Y-102154761D01*
X184630952Y-102202380D01*
X184821428Y-102202380D01*
X184916666Y-102154761D01*
X184964285Y-102107142D01*
X185011904Y-102011904D01*
X185011904Y-101821428D01*
X184964285Y-101726190D01*
X184916666Y-101678571D01*
X184821428Y-101630952D01*
X183107142Y-100107142D02*
X183059523Y-100154761D01*
X182916666Y-100202380D01*
X182821428Y-100202380D01*
X182678571Y-100154761D01*
X182583333Y-100059523D01*
X182535714Y-99964285D01*
X182488095Y-99773809D01*
X182488095Y-99630952D01*
X182535714Y-99440476D01*
X182583333Y-99345238D01*
X182678571Y-99250000D01*
X182821428Y-99202380D01*
X182916666Y-99202380D01*
X183059523Y-99250000D01*
X183107142Y-99297619D01*
X183440476Y-99202380D02*
X184059523Y-99202380D01*
X183726190Y-99583333D01*
X183869047Y-99583333D01*
X183964285Y-99630952D01*
X184011904Y-99678571D01*
X184059523Y-99773809D01*
X184059523Y-100011904D01*
X184011904Y-100107142D01*
X183964285Y-100154761D01*
X183869047Y-100202380D01*
X183583333Y-100202380D01*
X183488095Y-100154761D01*
X183440476Y-100107142D01*
X184392857Y-99202380D02*
X185059523Y-99202380D01*
X184630952Y-100202380D01*
X178607142Y-86142857D02*
X178654761Y-86190476D01*
X178702380Y-86333333D01*
X178702380Y-86428571D01*
X178654761Y-86571428D01*
X178559523Y-86666666D01*
X178464285Y-86714285D01*
X178273809Y-86761904D01*
X178130952Y-86761904D01*
X177940476Y-86714285D01*
X177845238Y-86666666D01*
X177750000Y-86571428D01*
X177702380Y-86428571D01*
X177702380Y-86333333D01*
X177750000Y-86190476D01*
X177797619Y-86142857D01*
X177702380Y-85809523D02*
X177702380Y-85190476D01*
X178083333Y-85523809D01*
X178083333Y-85380952D01*
X178130952Y-85285714D01*
X178178571Y-85238095D01*
X178273809Y-85190476D01*
X178511904Y-85190476D01*
X178607142Y-85238095D01*
X178654761Y-85285714D01*
X178702380Y-85380952D01*
X178702380Y-85666666D01*
X178654761Y-85761904D01*
X178607142Y-85809523D01*
X177702380Y-84333333D02*
X177702380Y-84523809D01*
X177750000Y-84619047D01*
X177797619Y-84666666D01*
X177940476Y-84761904D01*
X178130952Y-84809523D01*
X178511904Y-84809523D01*
X178607142Y-84761904D01*
X178654761Y-84714285D01*
X178702380Y-84619047D01*
X178702380Y-84428571D01*
X178654761Y-84333333D01*
X178607142Y-84285714D01*
X178511904Y-84238095D01*
X178273809Y-84238095D01*
X178178571Y-84285714D01*
X178130952Y-84333333D01*
X178083333Y-84428571D01*
X178083333Y-84619047D01*
X178130952Y-84714285D01*
X178178571Y-84761904D01*
X178273809Y-84809523D01*
X176607142Y-86142857D02*
X176654761Y-86190476D01*
X176702380Y-86333333D01*
X176702380Y-86428571D01*
X176654761Y-86571428D01*
X176559523Y-86666666D01*
X176464285Y-86714285D01*
X176273809Y-86761904D01*
X176130952Y-86761904D01*
X175940476Y-86714285D01*
X175845238Y-86666666D01*
X175750000Y-86571428D01*
X175702380Y-86428571D01*
X175702380Y-86333333D01*
X175750000Y-86190476D01*
X175797619Y-86142857D01*
X175702380Y-85809523D02*
X175702380Y-85190476D01*
X176083333Y-85523809D01*
X176083333Y-85380952D01*
X176130952Y-85285714D01*
X176178571Y-85238095D01*
X176273809Y-85190476D01*
X176511904Y-85190476D01*
X176607142Y-85238095D01*
X176654761Y-85285714D01*
X176702380Y-85380952D01*
X176702380Y-85666666D01*
X176654761Y-85761904D01*
X176607142Y-85809523D01*
X175702380Y-84285714D02*
X175702380Y-84761904D01*
X176178571Y-84809523D01*
X176130952Y-84761904D01*
X176083333Y-84666666D01*
X176083333Y-84428571D01*
X176130952Y-84333333D01*
X176178571Y-84285714D01*
X176273809Y-84238095D01*
X176511904Y-84238095D01*
X176607142Y-84285714D01*
X176654761Y-84333333D01*
X176702380Y-84428571D01*
X176702380Y-84666666D01*
X176654761Y-84761904D01*
X176607142Y-84809523D01*
X174607142Y-86142857D02*
X174654761Y-86190476D01*
X174702380Y-86333333D01*
X174702380Y-86428571D01*
X174654761Y-86571428D01*
X174559523Y-86666666D01*
X174464285Y-86714285D01*
X174273809Y-86761904D01*
X174130952Y-86761904D01*
X173940476Y-86714285D01*
X173845238Y-86666666D01*
X173750000Y-86571428D01*
X173702380Y-86428571D01*
X173702380Y-86333333D01*
X173750000Y-86190476D01*
X173797619Y-86142857D01*
X173702380Y-85809523D02*
X173702380Y-85190476D01*
X174083333Y-85523809D01*
X174083333Y-85380952D01*
X174130952Y-85285714D01*
X174178571Y-85238095D01*
X174273809Y-85190476D01*
X174511904Y-85190476D01*
X174607142Y-85238095D01*
X174654761Y-85285714D01*
X174702380Y-85380952D01*
X174702380Y-85666666D01*
X174654761Y-85761904D01*
X174607142Y-85809523D01*
X174035714Y-84333333D02*
X174702380Y-84333333D01*
X173654761Y-84571428D02*
X174369047Y-84809523D01*
X174369047Y-84190476D01*
X186802380Y-101511904D02*
X187611904Y-101511904D01*
X187707142Y-101464285D01*
X187754761Y-101416666D01*
X187802380Y-101321428D01*
X187802380Y-101130952D01*
X187754761Y-101035714D01*
X187707142Y-100988095D01*
X187611904Y-100940476D01*
X186802380Y-100940476D01*
X186802380Y-100559523D02*
X186802380Y-99892857D01*
X187802380Y-100321428D01*
X184767380Y-130115238D02*
X184291190Y-130448571D01*
X184767380Y-130686666D02*
X183767380Y-130686666D01*
X183767380Y-130305714D01*
X183815000Y-130210476D01*
X183862619Y-130162857D01*
X183957857Y-130115238D01*
X184100714Y-130115238D01*
X184195952Y-130162857D01*
X184243571Y-130210476D01*
X184291190Y-130305714D01*
X184291190Y-130686666D01*
X183767380Y-129829523D02*
X184767380Y-129496190D01*
X183767380Y-129162857D01*
X183767380Y-128400952D02*
X183767380Y-128591428D01*
X183815000Y-128686666D01*
X183862619Y-128734285D01*
X184005476Y-128829523D01*
X184195952Y-128877142D01*
X184576904Y-128877142D01*
X184672142Y-128829523D01*
X184719761Y-128781904D01*
X184767380Y-128686666D01*
X184767380Y-128496190D01*
X184719761Y-128400952D01*
X184672142Y-128353333D01*
X184576904Y-128305714D01*
X184338809Y-128305714D01*
X184243571Y-128353333D01*
X184195952Y-128400952D01*
X184148333Y-128496190D01*
X184148333Y-128686666D01*
X184195952Y-128781904D01*
X184243571Y-128829523D01*
X184338809Y-128877142D01*
X195552380Y-101867857D02*
X195076190Y-102201190D01*
X195552380Y-102439285D02*
X194552380Y-102439285D01*
X194552380Y-102058333D01*
X194600000Y-101963095D01*
X194647619Y-101915476D01*
X194742857Y-101867857D01*
X194885714Y-101867857D01*
X194980952Y-101915476D01*
X195028571Y-101963095D01*
X195076190Y-102058333D01*
X195076190Y-102439285D01*
X195552380Y-100915476D02*
X195552380Y-101486904D01*
X195552380Y-101201190D02*
X194552380Y-101201190D01*
X194695238Y-101296428D01*
X194790476Y-101391666D01*
X194838095Y-101486904D01*
X194552380Y-100582142D02*
X194552380Y-99963095D01*
X194933333Y-100296428D01*
X194933333Y-100153571D01*
X194980952Y-100058333D01*
X195028571Y-100010714D01*
X195123809Y-99963095D01*
X195361904Y-99963095D01*
X195457142Y-100010714D01*
X195504761Y-100058333D01*
X195552380Y-100153571D01*
X195552380Y-100439285D01*
X195504761Y-100534523D01*
X195457142Y-100582142D01*
X192302380Y-133142857D02*
X191826190Y-133476190D01*
X192302380Y-133714285D02*
X191302380Y-133714285D01*
X191302380Y-133333333D01*
X191350000Y-133238095D01*
X191397619Y-133190476D01*
X191492857Y-133142857D01*
X191635714Y-133142857D01*
X191730952Y-133190476D01*
X191778571Y-133238095D01*
X191826190Y-133333333D01*
X191826190Y-133714285D01*
X192302380Y-132190476D02*
X192302380Y-132761904D01*
X192302380Y-132476190D02*
X191302380Y-132476190D01*
X191445238Y-132571428D01*
X191540476Y-132666666D01*
X191588095Y-132761904D01*
X191397619Y-131809523D02*
X191350000Y-131761904D01*
X191302380Y-131666666D01*
X191302380Y-131428571D01*
X191350000Y-131333333D01*
X191397619Y-131285714D01*
X191492857Y-131238095D01*
X191588095Y-131238095D01*
X191730952Y-131285714D01*
X192302380Y-131857142D01*
X192302380Y-131238095D01*
X192742380Y-112559523D02*
X193456666Y-112559523D01*
X193599523Y-112607142D01*
X193694761Y-112702380D01*
X193742380Y-112845238D01*
X193742380Y-112940476D01*
X193742380Y-111559523D02*
X193742380Y-112130952D01*
X193742380Y-111845238D02*
X192742380Y-111845238D01*
X192885238Y-111940476D01*
X192980476Y-112035714D01*
X193028095Y-112130952D01*
X193742380Y-111083333D02*
X193742380Y-110892857D01*
X193694761Y-110797619D01*
X193647142Y-110750000D01*
X193504285Y-110654761D01*
X193313809Y-110607142D01*
X192932857Y-110607142D01*
X192837619Y-110654761D01*
X192790000Y-110702380D01*
X192742380Y-110797619D01*
X192742380Y-110988095D01*
X192790000Y-111083333D01*
X192837619Y-111130952D01*
X192932857Y-111178571D01*
X193170952Y-111178571D01*
X193266190Y-111130952D01*
X193313809Y-111083333D01*
X193361428Y-110988095D01*
X193361428Y-110797619D01*
X193313809Y-110702380D01*
X193266190Y-110654761D01*
X193170952Y-110607142D01*
X192742380Y-83559523D02*
X193456666Y-83559523D01*
X193599523Y-83607142D01*
X193694761Y-83702380D01*
X193742380Y-83845238D01*
X193742380Y-83940476D01*
X193742380Y-82559523D02*
X193742380Y-83130952D01*
X193742380Y-82845238D02*
X192742380Y-82845238D01*
X192885238Y-82940476D01*
X192980476Y-83035714D01*
X193028095Y-83130952D01*
X193170952Y-81988095D02*
X193123333Y-82083333D01*
X193075714Y-82130952D01*
X192980476Y-82178571D01*
X192932857Y-82178571D01*
X192837619Y-82130952D01*
X192790000Y-82083333D01*
X192742380Y-81988095D01*
X192742380Y-81797619D01*
X192790000Y-81702380D01*
X192837619Y-81654761D01*
X192932857Y-81607142D01*
X192980476Y-81607142D01*
X193075714Y-81654761D01*
X193123333Y-81702380D01*
X193170952Y-81797619D01*
X193170952Y-81988095D01*
X193218571Y-82083333D01*
X193266190Y-82130952D01*
X193361428Y-82178571D01*
X193551904Y-82178571D01*
X193647142Y-82130952D01*
X193694761Y-82083333D01*
X193742380Y-81988095D01*
X193742380Y-81797619D01*
X193694761Y-81702380D01*
X193647142Y-81654761D01*
X193551904Y-81607142D01*
X193361428Y-81607142D01*
X193266190Y-81654761D01*
X193218571Y-81702380D01*
X193170952Y-81797619D01*
X190207142Y-94892857D02*
X190254761Y-94940476D01*
X190302380Y-95083333D01*
X190302380Y-95178571D01*
X190254761Y-95321428D01*
X190159523Y-95416666D01*
X190064285Y-95464285D01*
X189873809Y-95511904D01*
X189730952Y-95511904D01*
X189540476Y-95464285D01*
X189445238Y-95416666D01*
X189350000Y-95321428D01*
X189302380Y-95178571D01*
X189302380Y-95083333D01*
X189350000Y-94940476D01*
X189397619Y-94892857D01*
X189302380Y-94559523D02*
X189302380Y-93940476D01*
X189683333Y-94273809D01*
X189683333Y-94130952D01*
X189730952Y-94035714D01*
X189778571Y-93988095D01*
X189873809Y-93940476D01*
X190111904Y-93940476D01*
X190207142Y-93988095D01*
X190254761Y-94035714D01*
X190302380Y-94130952D01*
X190302380Y-94416666D01*
X190254761Y-94511904D01*
X190207142Y-94559523D01*
X189302380Y-93607142D02*
X189302380Y-92988095D01*
X189683333Y-93321428D01*
X189683333Y-93178571D01*
X189730952Y-93083333D01*
X189778571Y-93035714D01*
X189873809Y-92988095D01*
X190111904Y-92988095D01*
X190207142Y-93035714D01*
X190254761Y-93083333D01*
X190302380Y-93178571D01*
X190302380Y-93464285D01*
X190254761Y-93559523D01*
X190207142Y-93607142D01*
X190757142Y-107867857D02*
X190804761Y-107915476D01*
X190852380Y-108058333D01*
X190852380Y-108153571D01*
X190804761Y-108296428D01*
X190709523Y-108391666D01*
X190614285Y-108439285D01*
X190423809Y-108486904D01*
X190280952Y-108486904D01*
X190090476Y-108439285D01*
X189995238Y-108391666D01*
X189900000Y-108296428D01*
X189852380Y-108153571D01*
X189852380Y-108058333D01*
X189900000Y-107915476D01*
X189947619Y-107867857D01*
X189852380Y-107534523D02*
X189852380Y-106915476D01*
X190233333Y-107248809D01*
X190233333Y-107105952D01*
X190280952Y-107010714D01*
X190328571Y-106963095D01*
X190423809Y-106915476D01*
X190661904Y-106915476D01*
X190757142Y-106963095D01*
X190804761Y-107010714D01*
X190852380Y-107105952D01*
X190852380Y-107391666D01*
X190804761Y-107486904D01*
X190757142Y-107534523D01*
X189947619Y-106534523D02*
X189900000Y-106486904D01*
X189852380Y-106391666D01*
X189852380Y-106153571D01*
X189900000Y-106058333D01*
X189947619Y-106010714D01*
X190042857Y-105963095D01*
X190138095Y-105963095D01*
X190280952Y-106010714D01*
X190852380Y-106582142D01*
X190852380Y-105963095D01*
X153563095Y-133487380D02*
X153563095Y-134296904D01*
X153610714Y-134392142D01*
X153658333Y-134439761D01*
X153753571Y-134487380D01*
X153944047Y-134487380D01*
X154039285Y-134439761D01*
X154086904Y-134392142D01*
X154134523Y-134296904D01*
X154134523Y-133487380D01*
X155039285Y-133487380D02*
X154848809Y-133487380D01*
X154753571Y-133535000D01*
X154705952Y-133582619D01*
X154610714Y-133725476D01*
X154563095Y-133915952D01*
X154563095Y-134296904D01*
X154610714Y-134392142D01*
X154658333Y-134439761D01*
X154753571Y-134487380D01*
X154944047Y-134487380D01*
X155039285Y-134439761D01*
X155086904Y-134392142D01*
X155134523Y-134296904D01*
X155134523Y-134058809D01*
X155086904Y-133963571D01*
X155039285Y-133915952D01*
X154944047Y-133868333D01*
X154753571Y-133868333D01*
X154658333Y-133915952D01*
X154610714Y-133963571D01*
X154563095Y-134058809D01*
X175854595Y-124752380D02*
X175854595Y-125561904D01*
X175902214Y-125657142D01*
X175949833Y-125704761D01*
X176045071Y-125752380D01*
X176235547Y-125752380D01*
X176330785Y-125704761D01*
X176378404Y-125657142D01*
X176426023Y-125561904D01*
X176426023Y-124752380D01*
X177378404Y-124752380D02*
X176902214Y-124752380D01*
X176854595Y-125228571D01*
X176902214Y-125180952D01*
X176997452Y-125133333D01*
X177235547Y-125133333D01*
X177330785Y-125180952D01*
X177378404Y-125228571D01*
X177426023Y-125323809D01*
X177426023Y-125561904D01*
X177378404Y-125657142D01*
X177330785Y-125704761D01*
X177235547Y-125752380D01*
X176997452Y-125752380D01*
X176902214Y-125704761D01*
X176854595Y-125657142D01*
X163013095Y-56187380D02*
X163013095Y-56996904D01*
X163060714Y-57092142D01*
X163108333Y-57139761D01*
X163203571Y-57187380D01*
X163394047Y-57187380D01*
X163489285Y-57139761D01*
X163536904Y-57092142D01*
X163584523Y-56996904D01*
X163584523Y-56187380D01*
X164489285Y-56520714D02*
X164489285Y-57187380D01*
X164251190Y-56139761D02*
X164013095Y-56854047D01*
X164632142Y-56854047D01*
X154707380Y-121761904D02*
X155516904Y-121761904D01*
X155612142Y-121714285D01*
X155659761Y-121666666D01*
X155707380Y-121571428D01*
X155707380Y-121380952D01*
X155659761Y-121285714D01*
X155612142Y-121238095D01*
X155516904Y-121190476D01*
X154707380Y-121190476D01*
X154707380Y-120809523D02*
X154707380Y-120190476D01*
X155088333Y-120523809D01*
X155088333Y-120380952D01*
X155135952Y-120285714D01*
X155183571Y-120238095D01*
X155278809Y-120190476D01*
X155516904Y-120190476D01*
X155612142Y-120238095D01*
X155659761Y-120285714D01*
X155707380Y-120380952D01*
X155707380Y-120666666D01*
X155659761Y-120761904D01*
X155612142Y-120809523D01*
X130738095Y-113052380D02*
X130738095Y-113861904D01*
X130785714Y-113957142D01*
X130833333Y-114004761D01*
X130928571Y-114052380D01*
X131119047Y-114052380D01*
X131214285Y-114004761D01*
X131261904Y-113957142D01*
X131309523Y-113861904D01*
X131309523Y-113052380D01*
X131738095Y-113147619D02*
X131785714Y-113100000D01*
X131880952Y-113052380D01*
X132119047Y-113052380D01*
X132214285Y-113100000D01*
X132261904Y-113147619D01*
X132309523Y-113242857D01*
X132309523Y-113338095D01*
X132261904Y-113480952D01*
X131690476Y-114052380D01*
X132309523Y-114052380D01*
X111988095Y-106237380D02*
X111988095Y-107046904D01*
X112035714Y-107142142D01*
X112083333Y-107189761D01*
X112178571Y-107237380D01*
X112369047Y-107237380D01*
X112464285Y-107189761D01*
X112511904Y-107142142D01*
X112559523Y-107046904D01*
X112559523Y-106237380D01*
X113559523Y-107237380D02*
X112988095Y-107237380D01*
X113273809Y-107237380D02*
X113273809Y-106237380D01*
X113178571Y-106380238D01*
X113083333Y-106475476D01*
X112988095Y-106523095D01*
X139767380Y-137585238D02*
X139291190Y-137918571D01*
X139767380Y-138156666D02*
X138767380Y-138156666D01*
X138767380Y-137775714D01*
X138815000Y-137680476D01*
X138862619Y-137632857D01*
X138957857Y-137585238D01*
X139100714Y-137585238D01*
X139195952Y-137632857D01*
X139243571Y-137680476D01*
X139291190Y-137775714D01*
X139291190Y-138156666D01*
X138767380Y-137299523D02*
X139767380Y-136966190D01*
X138767380Y-136632857D01*
X138767380Y-135823333D02*
X138767380Y-136299523D01*
X139243571Y-136347142D01*
X139195952Y-136299523D01*
X139148333Y-136204285D01*
X139148333Y-135966190D01*
X139195952Y-135870952D01*
X139243571Y-135823333D01*
X139338809Y-135775714D01*
X139576904Y-135775714D01*
X139672142Y-135823333D01*
X139719761Y-135870952D01*
X139767380Y-135966190D01*
X139767380Y-136204285D01*
X139719761Y-136299523D01*
X139672142Y-136347142D01*
X164134761Y-67452380D02*
X163801428Y-66976190D01*
X163563333Y-67452380D02*
X163563333Y-66452380D01*
X163944285Y-66452380D01*
X164039523Y-66500000D01*
X164087142Y-66547619D01*
X164134761Y-66642857D01*
X164134761Y-66785714D01*
X164087142Y-66880952D01*
X164039523Y-66928571D01*
X163944285Y-66976190D01*
X163563333Y-66976190D01*
X164420476Y-66452380D02*
X164753809Y-67452380D01*
X165087142Y-66452380D01*
X165849047Y-66785714D02*
X165849047Y-67452380D01*
X165610952Y-66404761D02*
X165372857Y-67119047D01*
X165991904Y-67119047D01*
X159674761Y-116952380D02*
X159341428Y-116476190D01*
X159103333Y-116952380D02*
X159103333Y-115952380D01*
X159484285Y-115952380D01*
X159579523Y-116000000D01*
X159627142Y-116047619D01*
X159674761Y-116142857D01*
X159674761Y-116285714D01*
X159627142Y-116380952D01*
X159579523Y-116428571D01*
X159484285Y-116476190D01*
X159103333Y-116476190D01*
X159960476Y-115952380D02*
X160293809Y-116952380D01*
X160627142Y-115952380D01*
X160865238Y-115952380D02*
X161484285Y-115952380D01*
X161150952Y-116333333D01*
X161293809Y-116333333D01*
X161389047Y-116380952D01*
X161436666Y-116428571D01*
X161484285Y-116523809D01*
X161484285Y-116761904D01*
X161436666Y-116857142D01*
X161389047Y-116904761D01*
X161293809Y-116952380D01*
X161008095Y-116952380D01*
X160912857Y-116904761D01*
X160865238Y-116857142D01*
X111557380Y-134455238D02*
X111081190Y-134788571D01*
X111557380Y-135026666D02*
X110557380Y-135026666D01*
X110557380Y-134645714D01*
X110605000Y-134550476D01*
X110652619Y-134502857D01*
X110747857Y-134455238D01*
X110890714Y-134455238D01*
X110985952Y-134502857D01*
X111033571Y-134550476D01*
X111081190Y-134645714D01*
X111081190Y-135026666D01*
X110557380Y-134169523D02*
X111557380Y-133836190D01*
X110557380Y-133502857D01*
X110652619Y-133217142D02*
X110605000Y-133169523D01*
X110557380Y-133074285D01*
X110557380Y-132836190D01*
X110605000Y-132740952D01*
X110652619Y-132693333D01*
X110747857Y-132645714D01*
X110843095Y-132645714D01*
X110985952Y-132693333D01*
X111557380Y-133264761D01*
X111557380Y-132645714D01*
X123767380Y-100615238D02*
X123291190Y-100948571D01*
X123767380Y-101186666D02*
X122767380Y-101186666D01*
X122767380Y-100805714D01*
X122815000Y-100710476D01*
X122862619Y-100662857D01*
X122957857Y-100615238D01*
X123100714Y-100615238D01*
X123195952Y-100662857D01*
X123243571Y-100710476D01*
X123291190Y-100805714D01*
X123291190Y-101186666D01*
X122767380Y-100329523D02*
X123767380Y-99996190D01*
X122767380Y-99662857D01*
X123767380Y-98805714D02*
X123767380Y-99377142D01*
X123767380Y-99091428D02*
X122767380Y-99091428D01*
X122910238Y-99186666D01*
X123005476Y-99281904D01*
X123053095Y-99377142D01*
X123357142Y-120522380D02*
X123023809Y-120046190D01*
X122785714Y-120522380D02*
X122785714Y-119522380D01*
X123166666Y-119522380D01*
X123261904Y-119570000D01*
X123309523Y-119617619D01*
X123357142Y-119712857D01*
X123357142Y-119855714D01*
X123309523Y-119950952D01*
X123261904Y-119998571D01*
X123166666Y-120046190D01*
X122785714Y-120046190D01*
X124309523Y-120522380D02*
X123738095Y-120522380D01*
X124023809Y-120522380D02*
X124023809Y-119522380D01*
X123928571Y-119665238D01*
X123833333Y-119760476D01*
X123738095Y-119808095D01*
X125261904Y-120522380D02*
X124690476Y-120522380D01*
X124976190Y-120522380D02*
X124976190Y-119522380D01*
X124880952Y-119665238D01*
X124785714Y-119760476D01*
X124690476Y-119808095D01*
X161857142Y-64052380D02*
X161523809Y-63576190D01*
X161285714Y-64052380D02*
X161285714Y-63052380D01*
X161666666Y-63052380D01*
X161761904Y-63100000D01*
X161809523Y-63147619D01*
X161857142Y-63242857D01*
X161857142Y-63385714D01*
X161809523Y-63480952D01*
X161761904Y-63528571D01*
X161666666Y-63576190D01*
X161285714Y-63576190D01*
X162809523Y-64052380D02*
X162238095Y-64052380D01*
X162523809Y-64052380D02*
X162523809Y-63052380D01*
X162428571Y-63195238D01*
X162333333Y-63290476D01*
X162238095Y-63338095D01*
X163428571Y-63052380D02*
X163523809Y-63052380D01*
X163619047Y-63100000D01*
X163666666Y-63147619D01*
X163714285Y-63242857D01*
X163761904Y-63433333D01*
X163761904Y-63671428D01*
X163714285Y-63861904D01*
X163666666Y-63957142D01*
X163619047Y-64004761D01*
X163523809Y-64052380D01*
X163428571Y-64052380D01*
X163333333Y-64004761D01*
X163285714Y-63957142D01*
X163238095Y-63861904D01*
X163190476Y-63671428D01*
X163190476Y-63433333D01*
X163238095Y-63242857D01*
X163285714Y-63147619D01*
X163333333Y-63100000D01*
X163428571Y-63052380D01*
X150102380Y-129941666D02*
X149626190Y-130275000D01*
X150102380Y-130513095D02*
X149102380Y-130513095D01*
X149102380Y-130132142D01*
X149150000Y-130036904D01*
X149197619Y-129989285D01*
X149292857Y-129941666D01*
X149435714Y-129941666D01*
X149530952Y-129989285D01*
X149578571Y-130036904D01*
X149626190Y-130132142D01*
X149626190Y-130513095D01*
X150102380Y-129465476D02*
X150102380Y-129275000D01*
X150054761Y-129179761D01*
X150007142Y-129132142D01*
X149864285Y-129036904D01*
X149673809Y-128989285D01*
X149292857Y-128989285D01*
X149197619Y-129036904D01*
X149150000Y-129084523D01*
X149102380Y-129179761D01*
X149102380Y-129370238D01*
X149150000Y-129465476D01*
X149197619Y-129513095D01*
X149292857Y-129560714D01*
X149530952Y-129560714D01*
X149626190Y-129513095D01*
X149673809Y-129465476D01*
X149721428Y-129370238D01*
X149721428Y-129179761D01*
X149673809Y-129084523D01*
X149626190Y-129036904D01*
X149530952Y-128989285D01*
X167458333Y-129022380D02*
X167125000Y-128546190D01*
X166886904Y-129022380D02*
X166886904Y-128022380D01*
X167267857Y-128022380D01*
X167363095Y-128070000D01*
X167410714Y-128117619D01*
X167458333Y-128212857D01*
X167458333Y-128355714D01*
X167410714Y-128450952D01*
X167363095Y-128498571D01*
X167267857Y-128546190D01*
X166886904Y-128546190D01*
X168029761Y-128450952D02*
X167934523Y-128403333D01*
X167886904Y-128355714D01*
X167839285Y-128260476D01*
X167839285Y-128212857D01*
X167886904Y-128117619D01*
X167934523Y-128070000D01*
X168029761Y-128022380D01*
X168220238Y-128022380D01*
X168315476Y-128070000D01*
X168363095Y-128117619D01*
X168410714Y-128212857D01*
X168410714Y-128260476D01*
X168363095Y-128355714D01*
X168315476Y-128403333D01*
X168220238Y-128450952D01*
X168029761Y-128450952D01*
X167934523Y-128498571D01*
X167886904Y-128546190D01*
X167839285Y-128641428D01*
X167839285Y-128831904D01*
X167886904Y-128927142D01*
X167934523Y-128974761D01*
X168029761Y-129022380D01*
X168220238Y-129022380D01*
X168315476Y-128974761D01*
X168363095Y-128927142D01*
X168410714Y-128831904D01*
X168410714Y-128641428D01*
X168363095Y-128546190D01*
X168315476Y-128498571D01*
X168220238Y-128450952D01*
X169333333Y-64802380D02*
X169000000Y-64326190D01*
X168761904Y-64802380D02*
X168761904Y-63802380D01*
X169142857Y-63802380D01*
X169238095Y-63850000D01*
X169285714Y-63897619D01*
X169333333Y-63992857D01*
X169333333Y-64135714D01*
X169285714Y-64230952D01*
X169238095Y-64278571D01*
X169142857Y-64326190D01*
X168761904Y-64326190D01*
X169666666Y-63802380D02*
X170333333Y-63802380D01*
X169904761Y-64802380D01*
X169833333Y-118302380D02*
X169500000Y-117826190D01*
X169261904Y-118302380D02*
X169261904Y-117302380D01*
X169642857Y-117302380D01*
X169738095Y-117350000D01*
X169785714Y-117397619D01*
X169833333Y-117492857D01*
X169833333Y-117635714D01*
X169785714Y-117730952D01*
X169738095Y-117778571D01*
X169642857Y-117826190D01*
X169261904Y-117826190D01*
X170690476Y-117302380D02*
X170500000Y-117302380D01*
X170404761Y-117350000D01*
X170357142Y-117397619D01*
X170261904Y-117540476D01*
X170214285Y-117730952D01*
X170214285Y-118111904D01*
X170261904Y-118207142D01*
X170309523Y-118254761D01*
X170404761Y-118302380D01*
X170595238Y-118302380D01*
X170690476Y-118254761D01*
X170738095Y-118207142D01*
X170785714Y-118111904D01*
X170785714Y-117873809D01*
X170738095Y-117778571D01*
X170690476Y-117730952D01*
X170595238Y-117683333D01*
X170404761Y-117683333D01*
X170309523Y-117730952D01*
X170261904Y-117778571D01*
X170214285Y-117873809D01*
X132858333Y-121302380D02*
X132525000Y-120826190D01*
X132286904Y-121302380D02*
X132286904Y-120302380D01*
X132667857Y-120302380D01*
X132763095Y-120350000D01*
X132810714Y-120397619D01*
X132858333Y-120492857D01*
X132858333Y-120635714D01*
X132810714Y-120730952D01*
X132763095Y-120778571D01*
X132667857Y-120826190D01*
X132286904Y-120826190D01*
X133763095Y-120302380D02*
X133286904Y-120302380D01*
X133239285Y-120778571D01*
X133286904Y-120730952D01*
X133382142Y-120683333D01*
X133620238Y-120683333D01*
X133715476Y-120730952D01*
X133763095Y-120778571D01*
X133810714Y-120873809D01*
X133810714Y-121111904D01*
X133763095Y-121207142D01*
X133715476Y-121254761D01*
X133620238Y-121302380D01*
X133382142Y-121302380D01*
X133286904Y-121254761D01*
X133239285Y-121207142D01*
X114358333Y-111352380D02*
X114025000Y-110876190D01*
X113786904Y-111352380D02*
X113786904Y-110352380D01*
X114167857Y-110352380D01*
X114263095Y-110400000D01*
X114310714Y-110447619D01*
X114358333Y-110542857D01*
X114358333Y-110685714D01*
X114310714Y-110780952D01*
X114263095Y-110828571D01*
X114167857Y-110876190D01*
X113786904Y-110876190D01*
X115215476Y-110685714D02*
X115215476Y-111352380D01*
X114977380Y-110304761D02*
X114739285Y-111019047D01*
X115358333Y-111019047D01*
X148083333Y-118202380D02*
X147750000Y-117726190D01*
X147511904Y-118202380D02*
X147511904Y-117202380D01*
X147892857Y-117202380D01*
X147988095Y-117250000D01*
X148035714Y-117297619D01*
X148083333Y-117392857D01*
X148083333Y-117535714D01*
X148035714Y-117630952D01*
X147988095Y-117678571D01*
X147892857Y-117726190D01*
X147511904Y-117726190D01*
X148416666Y-117202380D02*
X149035714Y-117202380D01*
X148702380Y-117583333D01*
X148845238Y-117583333D01*
X148940476Y-117630952D01*
X148988095Y-117678571D01*
X149035714Y-117773809D01*
X149035714Y-118011904D01*
X148988095Y-118107142D01*
X148940476Y-118154761D01*
X148845238Y-118202380D01*
X148559523Y-118202380D01*
X148464285Y-118154761D01*
X148416666Y-118107142D01*
X119302380Y-142641666D02*
X118826190Y-142975000D01*
X119302380Y-143213095D02*
X118302380Y-143213095D01*
X118302380Y-142832142D01*
X118350000Y-142736904D01*
X118397619Y-142689285D01*
X118492857Y-142641666D01*
X118635714Y-142641666D01*
X118730952Y-142689285D01*
X118778571Y-142736904D01*
X118826190Y-142832142D01*
X118826190Y-143213095D01*
X118397619Y-142260714D02*
X118350000Y-142213095D01*
X118302380Y-142117857D01*
X118302380Y-141879761D01*
X118350000Y-141784523D01*
X118397619Y-141736904D01*
X118492857Y-141689285D01*
X118588095Y-141689285D01*
X118730952Y-141736904D01*
X119302380Y-142308333D01*
X119302380Y-141689285D01*
X121302380Y-108141666D02*
X120826190Y-108475000D01*
X121302380Y-108713095D02*
X120302380Y-108713095D01*
X120302380Y-108332142D01*
X120350000Y-108236904D01*
X120397619Y-108189285D01*
X120492857Y-108141666D01*
X120635714Y-108141666D01*
X120730952Y-108189285D01*
X120778571Y-108236904D01*
X120826190Y-108332142D01*
X120826190Y-108713095D01*
X121302380Y-107189285D02*
X121302380Y-107760714D01*
X121302380Y-107475000D02*
X120302380Y-107475000D01*
X120445238Y-107570238D01*
X120540476Y-107665476D01*
X120588095Y-107760714D01*
X171333333Y-129282380D02*
X170857142Y-129282380D01*
X170857142Y-128282380D01*
X172190476Y-129282380D02*
X171619047Y-129282380D01*
X171904761Y-129282380D02*
X171904761Y-128282380D01*
X171809523Y-128425238D01*
X171714285Y-128520476D01*
X171619047Y-128568095D01*
X106162380Y-125309523D02*
X106876666Y-125309523D01*
X107019523Y-125357142D01*
X107114761Y-125452380D01*
X107162380Y-125595238D01*
X107162380Y-125690476D01*
X107162380Y-124309523D02*
X107162380Y-124880952D01*
X107162380Y-124595238D02*
X106162380Y-124595238D01*
X106305238Y-124690476D01*
X106400476Y-124785714D01*
X106448095Y-124880952D01*
X106162380Y-123404761D02*
X106162380Y-123880952D01*
X106638571Y-123928571D01*
X106590952Y-123880952D01*
X106543333Y-123785714D01*
X106543333Y-123547619D01*
X106590952Y-123452380D01*
X106638571Y-123404761D01*
X106733809Y-123357142D01*
X106971904Y-123357142D01*
X107067142Y-123404761D01*
X107114761Y-123452380D01*
X107162380Y-123547619D01*
X107162380Y-123785714D01*
X107114761Y-123880952D01*
X107067142Y-123928571D01*
X179440476Y-56212380D02*
X179440476Y-56926666D01*
X179392857Y-57069523D01*
X179297619Y-57164761D01*
X179154761Y-57212380D01*
X179059523Y-57212380D01*
X180440476Y-57212380D02*
X179869047Y-57212380D01*
X180154761Y-57212380D02*
X180154761Y-56212380D01*
X180059523Y-56355238D01*
X179964285Y-56450476D01*
X179869047Y-56498095D01*
X181059523Y-56212380D02*
X181154761Y-56212380D01*
X181250000Y-56260000D01*
X181297619Y-56307619D01*
X181345238Y-56402857D01*
X181392857Y-56593333D01*
X181392857Y-56831428D01*
X181345238Y-57021904D01*
X181297619Y-57117142D01*
X181250000Y-57164761D01*
X181154761Y-57212380D01*
X181059523Y-57212380D01*
X180964285Y-57164761D01*
X180916666Y-57117142D01*
X180869047Y-57021904D01*
X180821428Y-56831428D01*
X180821428Y-56593333D01*
X180869047Y-56402857D01*
X180916666Y-56307619D01*
X180964285Y-56260000D01*
X181059523Y-56212380D01*
X132166666Y-142692380D02*
X132166666Y-143406666D01*
X132119047Y-143549523D01*
X132023809Y-143644761D01*
X131880952Y-143692380D01*
X131785714Y-143692380D01*
X132690476Y-143692380D02*
X132880952Y-143692380D01*
X132976190Y-143644761D01*
X133023809Y-143597142D01*
X133119047Y-143454285D01*
X133166666Y-143263809D01*
X133166666Y-142882857D01*
X133119047Y-142787619D01*
X133071428Y-142740000D01*
X132976190Y-142692380D01*
X132785714Y-142692380D01*
X132690476Y-142740000D01*
X132642857Y-142787619D01*
X132595238Y-142882857D01*
X132595238Y-143120952D01*
X132642857Y-143216190D01*
X132690476Y-143263809D01*
X132785714Y-143311428D01*
X132976190Y-143311428D01*
X133071428Y-143263809D01*
X133119047Y-143216190D01*
X133166666Y-143120952D01*
X181666666Y-142692380D02*
X181666666Y-143406666D01*
X181619047Y-143549523D01*
X181523809Y-143644761D01*
X181380952Y-143692380D01*
X181285714Y-143692380D01*
X182285714Y-143120952D02*
X182190476Y-143073333D01*
X182142857Y-143025714D01*
X182095238Y-142930476D01*
X182095238Y-142882857D01*
X182142857Y-142787619D01*
X182190476Y-142740000D01*
X182285714Y-142692380D01*
X182476190Y-142692380D01*
X182571428Y-142740000D01*
X182619047Y-142787619D01*
X182666666Y-142882857D01*
X182666666Y-142930476D01*
X182619047Y-143025714D01*
X182571428Y-143073333D01*
X182476190Y-143120952D01*
X182285714Y-143120952D01*
X182190476Y-143168571D01*
X182142857Y-143216190D01*
X182095238Y-143311428D01*
X182095238Y-143501904D01*
X182142857Y-143597142D01*
X182190476Y-143644761D01*
X182285714Y-143692380D01*
X182476190Y-143692380D01*
X182571428Y-143644761D01*
X182619047Y-143597142D01*
X182666666Y-143501904D01*
X182666666Y-143311428D01*
X182619047Y-143216190D01*
X182571428Y-143168571D01*
X182476190Y-143120952D01*
X105952380Y-91333333D02*
X106666666Y-91333333D01*
X106809523Y-91380952D01*
X106904761Y-91476190D01*
X106952380Y-91619047D01*
X106952380Y-91714285D01*
X105952380Y-90380952D02*
X105952380Y-90857142D01*
X106428571Y-90904761D01*
X106380952Y-90857142D01*
X106333333Y-90761904D01*
X106333333Y-90523809D01*
X106380952Y-90428571D01*
X106428571Y-90380952D01*
X106523809Y-90333333D01*
X106761904Y-90333333D01*
X106857142Y-90380952D01*
X106904761Y-90428571D01*
X106952380Y-90523809D01*
X106952380Y-90761904D01*
X106904761Y-90857142D01*
X106857142Y-90904761D01*
X133582380Y-107413333D02*
X134296666Y-107413333D01*
X134439523Y-107460952D01*
X134534761Y-107556190D01*
X134582380Y-107699047D01*
X134582380Y-107794285D01*
X134582380Y-106413333D02*
X134582380Y-106984761D01*
X134582380Y-106699047D02*
X133582380Y-106699047D01*
X133725238Y-106794285D01*
X133820476Y-106889523D01*
X133868095Y-106984761D01*
X140298571Y-94603333D02*
X140298571Y-94936666D01*
X140822380Y-94936666D02*
X139822380Y-94936666D01*
X139822380Y-94460476D01*
X140822380Y-93555714D02*
X140822380Y-94127142D01*
X140822380Y-93841428D02*
X139822380Y-93841428D01*
X139965238Y-93936666D01*
X140060476Y-94031904D01*
X140108095Y-94127142D01*
X130761904Y-127452380D02*
X130761904Y-126452380D01*
X131000000Y-126452380D01*
X131142857Y-126500000D01*
X131238095Y-126595238D01*
X131285714Y-126690476D01*
X131333333Y-126880952D01*
X131333333Y-127023809D01*
X131285714Y-127214285D01*
X131238095Y-127309523D01*
X131142857Y-127404761D01*
X131000000Y-127452380D01*
X130761904Y-127452380D01*
X131666666Y-126452380D02*
X132285714Y-126452380D01*
X131952380Y-126833333D01*
X132095238Y-126833333D01*
X132190476Y-126880952D01*
X132238095Y-126928571D01*
X132285714Y-127023809D01*
X132285714Y-127261904D01*
X132238095Y-127357142D01*
X132190476Y-127404761D01*
X132095238Y-127452380D01*
X131809523Y-127452380D01*
X131714285Y-127404761D01*
X131666666Y-127357142D01*
X126761904Y-138452380D02*
X126761904Y-137452380D01*
X127000000Y-137452380D01*
X127142857Y-137500000D01*
X127238095Y-137595238D01*
X127285714Y-137690476D01*
X127333333Y-137880952D01*
X127333333Y-138023809D01*
X127285714Y-138214285D01*
X127238095Y-138309523D01*
X127142857Y-138404761D01*
X127000000Y-138452380D01*
X126761904Y-138452380D01*
X127714285Y-137547619D02*
X127761904Y-137500000D01*
X127857142Y-137452380D01*
X128095238Y-137452380D01*
X128190476Y-137500000D01*
X128238095Y-137547619D01*
X128285714Y-137642857D01*
X128285714Y-137738095D01*
X128238095Y-137880952D01*
X127666666Y-138452380D01*
X128285714Y-138452380D01*
X145422380Y-95008095D02*
X144422380Y-95008095D01*
X144422380Y-94770000D01*
X144470000Y-94627142D01*
X144565238Y-94531904D01*
X144660476Y-94484285D01*
X144850952Y-94436666D01*
X144993809Y-94436666D01*
X145184285Y-94484285D01*
X145279523Y-94531904D01*
X145374761Y-94627142D01*
X145422380Y-94770000D01*
X145422380Y-95008095D01*
X145422380Y-93484285D02*
X145422380Y-94055714D01*
X145422380Y-93770000D02*
X144422380Y-93770000D01*
X144565238Y-93865238D01*
X144660476Y-93960476D01*
X144708095Y-94055714D01*
X144852380Y-89451904D02*
X143852380Y-89451904D01*
X144852380Y-88880476D02*
X144280952Y-89309047D01*
X143852380Y-88880476D02*
X144423809Y-89451904D01*
X128357142Y-141017857D02*
X128404761Y-141065476D01*
X128452380Y-141208333D01*
X128452380Y-141303571D01*
X128404761Y-141446428D01*
X128309523Y-141541666D01*
X128214285Y-141589285D01*
X128023809Y-141636904D01*
X127880952Y-141636904D01*
X127690476Y-141589285D01*
X127595238Y-141541666D01*
X127500000Y-141446428D01*
X127452380Y-141303571D01*
X127452380Y-141208333D01*
X127500000Y-141065476D01*
X127547619Y-141017857D01*
X127452380Y-140684523D02*
X127452380Y-140065476D01*
X127833333Y-140398809D01*
X127833333Y-140255952D01*
X127880952Y-140160714D01*
X127928571Y-140113095D01*
X128023809Y-140065476D01*
X128261904Y-140065476D01*
X128357142Y-140113095D01*
X128404761Y-140160714D01*
X128452380Y-140255952D01*
X128452380Y-140541666D01*
X128404761Y-140636904D01*
X128357142Y-140684523D01*
X128452380Y-139113095D02*
X128452380Y-139684523D01*
X128452380Y-139398809D02*
X127452380Y-139398809D01*
X127595238Y-139494047D01*
X127690476Y-139589285D01*
X127738095Y-139684523D01*
X153207142Y-124892857D02*
X153254761Y-124940476D01*
X153302380Y-125083333D01*
X153302380Y-125178571D01*
X153254761Y-125321428D01*
X153159523Y-125416666D01*
X153064285Y-125464285D01*
X152873809Y-125511904D01*
X152730952Y-125511904D01*
X152540476Y-125464285D01*
X152445238Y-125416666D01*
X152350000Y-125321428D01*
X152302380Y-125178571D01*
X152302380Y-125083333D01*
X152350000Y-124940476D01*
X152397619Y-124892857D01*
X152302380Y-124559523D02*
X152302380Y-123940476D01*
X152683333Y-124273809D01*
X152683333Y-124130952D01*
X152730952Y-124035714D01*
X152778571Y-123988095D01*
X152873809Y-123940476D01*
X153111904Y-123940476D01*
X153207142Y-123988095D01*
X153254761Y-124035714D01*
X153302380Y-124130952D01*
X153302380Y-124416666D01*
X153254761Y-124511904D01*
X153207142Y-124559523D01*
X152302380Y-123321428D02*
X152302380Y-123226190D01*
X152350000Y-123130952D01*
X152397619Y-123083333D01*
X152492857Y-123035714D01*
X152683333Y-122988095D01*
X152921428Y-122988095D01*
X153111904Y-123035714D01*
X153207142Y-123083333D01*
X153254761Y-123130952D01*
X153302380Y-123226190D01*
X153302380Y-123321428D01*
X153254761Y-123416666D01*
X153207142Y-123464285D01*
X153111904Y-123511904D01*
X152921428Y-123559523D01*
X152683333Y-123559523D01*
X152492857Y-123511904D01*
X152397619Y-123464285D01*
X152350000Y-123416666D01*
X152302380Y-123321428D01*
X150007142Y-134892857D02*
X150054761Y-134940476D01*
X150102380Y-135083333D01*
X150102380Y-135178571D01*
X150054761Y-135321428D01*
X149959523Y-135416666D01*
X149864285Y-135464285D01*
X149673809Y-135511904D01*
X149530952Y-135511904D01*
X149340476Y-135464285D01*
X149245238Y-135416666D01*
X149150000Y-135321428D01*
X149102380Y-135178571D01*
X149102380Y-135083333D01*
X149150000Y-134940476D01*
X149197619Y-134892857D01*
X149197619Y-134511904D02*
X149150000Y-134464285D01*
X149102380Y-134369047D01*
X149102380Y-134130952D01*
X149150000Y-134035714D01*
X149197619Y-133988095D01*
X149292857Y-133940476D01*
X149388095Y-133940476D01*
X149530952Y-133988095D01*
X150102380Y-134559523D01*
X150102380Y-133940476D01*
X150102380Y-133464285D02*
X150102380Y-133273809D01*
X150054761Y-133178571D01*
X150007142Y-133130952D01*
X149864285Y-133035714D01*
X149673809Y-132988095D01*
X149292857Y-132988095D01*
X149197619Y-133035714D01*
X149150000Y-133083333D01*
X149102380Y-133178571D01*
X149102380Y-133369047D01*
X149150000Y-133464285D01*
X149197619Y-133511904D01*
X149292857Y-133559523D01*
X149530952Y-133559523D01*
X149626190Y-133511904D01*
X149673809Y-133464285D01*
X149721428Y-133369047D01*
X149721428Y-133178571D01*
X149673809Y-133083333D01*
X149626190Y-133035714D01*
X149530952Y-132988095D01*
X120357142Y-137107142D02*
X120309523Y-137154761D01*
X120166666Y-137202380D01*
X120071428Y-137202380D01*
X119928571Y-137154761D01*
X119833333Y-137059523D01*
X119785714Y-136964285D01*
X119738095Y-136773809D01*
X119738095Y-136630952D01*
X119785714Y-136440476D01*
X119833333Y-136345238D01*
X119928571Y-136250000D01*
X120071428Y-136202380D01*
X120166666Y-136202380D01*
X120309523Y-136250000D01*
X120357142Y-136297619D01*
X120738095Y-136297619D02*
X120785714Y-136250000D01*
X120880952Y-136202380D01*
X121119047Y-136202380D01*
X121214285Y-136250000D01*
X121261904Y-136297619D01*
X121309523Y-136392857D01*
X121309523Y-136488095D01*
X121261904Y-136630952D01*
X120690476Y-137202380D01*
X121309523Y-137202380D01*
X121880952Y-136630952D02*
X121785714Y-136583333D01*
X121738095Y-136535714D01*
X121690476Y-136440476D01*
X121690476Y-136392857D01*
X121738095Y-136297619D01*
X121785714Y-136250000D01*
X121880952Y-136202380D01*
X122071428Y-136202380D01*
X122166666Y-136250000D01*
X122214285Y-136297619D01*
X122261904Y-136392857D01*
X122261904Y-136440476D01*
X122214285Y-136535714D01*
X122166666Y-136583333D01*
X122071428Y-136630952D01*
X121880952Y-136630952D01*
X121785714Y-136678571D01*
X121738095Y-136726190D01*
X121690476Y-136821428D01*
X121690476Y-137011904D01*
X121738095Y-137107142D01*
X121785714Y-137154761D01*
X121880952Y-137202380D01*
X122071428Y-137202380D01*
X122166666Y-137154761D01*
X122214285Y-137107142D01*
X122261904Y-137011904D01*
X122261904Y-136821428D01*
X122214285Y-136726190D01*
X122166666Y-136678571D01*
X122071428Y-136630952D01*
X179037142Y-61017857D02*
X179084761Y-61065476D01*
X179132380Y-61208333D01*
X179132380Y-61303571D01*
X179084761Y-61446428D01*
X178989523Y-61541666D01*
X178894285Y-61589285D01*
X178703809Y-61636904D01*
X178560952Y-61636904D01*
X178370476Y-61589285D01*
X178275238Y-61541666D01*
X178180000Y-61446428D01*
X178132380Y-61303571D01*
X178132380Y-61208333D01*
X178180000Y-61065476D01*
X178227619Y-61017857D01*
X178227619Y-60636904D02*
X178180000Y-60589285D01*
X178132380Y-60494047D01*
X178132380Y-60255952D01*
X178180000Y-60160714D01*
X178227619Y-60113095D01*
X178322857Y-60065476D01*
X178418095Y-60065476D01*
X178560952Y-60113095D01*
X179132380Y-60684523D01*
X179132380Y-60065476D01*
X178132380Y-59732142D02*
X178132380Y-59065476D01*
X179132380Y-59494047D01*
X119982142Y-130677142D02*
X119934523Y-130724761D01*
X119791666Y-130772380D01*
X119696428Y-130772380D01*
X119553571Y-130724761D01*
X119458333Y-130629523D01*
X119410714Y-130534285D01*
X119363095Y-130343809D01*
X119363095Y-130200952D01*
X119410714Y-130010476D01*
X119458333Y-129915238D01*
X119553571Y-129820000D01*
X119696428Y-129772380D01*
X119791666Y-129772380D01*
X119934523Y-129820000D01*
X119982142Y-129867619D01*
X120363095Y-129867619D02*
X120410714Y-129820000D01*
X120505952Y-129772380D01*
X120744047Y-129772380D01*
X120839285Y-129820000D01*
X120886904Y-129867619D01*
X120934523Y-129962857D01*
X120934523Y-130058095D01*
X120886904Y-130200952D01*
X120315476Y-130772380D01*
X120934523Y-130772380D01*
X121791666Y-129772380D02*
X121601190Y-129772380D01*
X121505952Y-129820000D01*
X121458333Y-129867619D01*
X121363095Y-130010476D01*
X121315476Y-130200952D01*
X121315476Y-130581904D01*
X121363095Y-130677142D01*
X121410714Y-130724761D01*
X121505952Y-130772380D01*
X121696428Y-130772380D01*
X121791666Y-130724761D01*
X121839285Y-130677142D01*
X121886904Y-130581904D01*
X121886904Y-130343809D01*
X121839285Y-130248571D01*
X121791666Y-130200952D01*
X121696428Y-130153333D01*
X121505952Y-130153333D01*
X121410714Y-130200952D01*
X121363095Y-130248571D01*
X121315476Y-130343809D01*
X176287142Y-61017857D02*
X176334761Y-61065476D01*
X176382380Y-61208333D01*
X176382380Y-61303571D01*
X176334761Y-61446428D01*
X176239523Y-61541666D01*
X176144285Y-61589285D01*
X175953809Y-61636904D01*
X175810952Y-61636904D01*
X175620476Y-61589285D01*
X175525238Y-61541666D01*
X175430000Y-61446428D01*
X175382380Y-61303571D01*
X175382380Y-61208333D01*
X175430000Y-61065476D01*
X175477619Y-61017857D01*
X175477619Y-60636904D02*
X175430000Y-60589285D01*
X175382380Y-60494047D01*
X175382380Y-60255952D01*
X175430000Y-60160714D01*
X175477619Y-60113095D01*
X175572857Y-60065476D01*
X175668095Y-60065476D01*
X175810952Y-60113095D01*
X176382380Y-60684523D01*
X176382380Y-60065476D01*
X175382380Y-59160714D02*
X175382380Y-59636904D01*
X175858571Y-59684523D01*
X175810952Y-59636904D01*
X175763333Y-59541666D01*
X175763333Y-59303571D01*
X175810952Y-59208333D01*
X175858571Y-59160714D01*
X175953809Y-59113095D01*
X176191904Y-59113095D01*
X176287142Y-59160714D01*
X176334761Y-59208333D01*
X176382380Y-59303571D01*
X176382380Y-59541666D01*
X176334761Y-59636904D01*
X176287142Y-59684523D01*
X119982142Y-133677142D02*
X119934523Y-133724761D01*
X119791666Y-133772380D01*
X119696428Y-133772380D01*
X119553571Y-133724761D01*
X119458333Y-133629523D01*
X119410714Y-133534285D01*
X119363095Y-133343809D01*
X119363095Y-133200952D01*
X119410714Y-133010476D01*
X119458333Y-132915238D01*
X119553571Y-132820000D01*
X119696428Y-132772380D01*
X119791666Y-132772380D01*
X119934523Y-132820000D01*
X119982142Y-132867619D01*
X120363095Y-132867619D02*
X120410714Y-132820000D01*
X120505952Y-132772380D01*
X120744047Y-132772380D01*
X120839285Y-132820000D01*
X120886904Y-132867619D01*
X120934523Y-132962857D01*
X120934523Y-133058095D01*
X120886904Y-133200952D01*
X120315476Y-133772380D01*
X120934523Y-133772380D01*
X121791666Y-133105714D02*
X121791666Y-133772380D01*
X121553571Y-132724761D02*
X121315476Y-133439047D01*
X121934523Y-133439047D01*
X173537142Y-61017857D02*
X173584761Y-61065476D01*
X173632380Y-61208333D01*
X173632380Y-61303571D01*
X173584761Y-61446428D01*
X173489523Y-61541666D01*
X173394285Y-61589285D01*
X173203809Y-61636904D01*
X173060952Y-61636904D01*
X172870476Y-61589285D01*
X172775238Y-61541666D01*
X172680000Y-61446428D01*
X172632380Y-61303571D01*
X172632380Y-61208333D01*
X172680000Y-61065476D01*
X172727619Y-61017857D01*
X172727619Y-60636904D02*
X172680000Y-60589285D01*
X172632380Y-60494047D01*
X172632380Y-60255952D01*
X172680000Y-60160714D01*
X172727619Y-60113095D01*
X172822857Y-60065476D01*
X172918095Y-60065476D01*
X173060952Y-60113095D01*
X173632380Y-60684523D01*
X173632380Y-60065476D01*
X172632380Y-59732142D02*
X172632380Y-59113095D01*
X173013333Y-59446428D01*
X173013333Y-59303571D01*
X173060952Y-59208333D01*
X173108571Y-59160714D01*
X173203809Y-59113095D01*
X173441904Y-59113095D01*
X173537142Y-59160714D01*
X173584761Y-59208333D01*
X173632380Y-59303571D01*
X173632380Y-59589285D01*
X173584761Y-59684523D01*
X173537142Y-59732142D01*
X170107142Y-132107142D02*
X170059523Y-132154761D01*
X169916666Y-132202380D01*
X169821428Y-132202380D01*
X169678571Y-132154761D01*
X169583333Y-132059523D01*
X169535714Y-131964285D01*
X169488095Y-131773809D01*
X169488095Y-131630952D01*
X169535714Y-131440476D01*
X169583333Y-131345238D01*
X169678571Y-131250000D01*
X169821428Y-131202380D01*
X169916666Y-131202380D01*
X170059523Y-131250000D01*
X170107142Y-131297619D01*
X170488095Y-131297619D02*
X170535714Y-131250000D01*
X170630952Y-131202380D01*
X170869047Y-131202380D01*
X170964285Y-131250000D01*
X171011904Y-131297619D01*
X171059523Y-131392857D01*
X171059523Y-131488095D01*
X171011904Y-131630952D01*
X170440476Y-132202380D01*
X171059523Y-132202380D01*
X171440476Y-131297619D02*
X171488095Y-131250000D01*
X171583333Y-131202380D01*
X171821428Y-131202380D01*
X171916666Y-131250000D01*
X171964285Y-131297619D01*
X172011904Y-131392857D01*
X172011904Y-131488095D01*
X171964285Y-131630952D01*
X171392857Y-132202380D01*
X172011904Y-132202380D01*
X165357142Y-120442857D02*
X165404761Y-120490476D01*
X165452380Y-120633333D01*
X165452380Y-120728571D01*
X165404761Y-120871428D01*
X165309523Y-120966666D01*
X165214285Y-121014285D01*
X165023809Y-121061904D01*
X164880952Y-121061904D01*
X164690476Y-121014285D01*
X164595238Y-120966666D01*
X164500000Y-120871428D01*
X164452380Y-120728571D01*
X164452380Y-120633333D01*
X164500000Y-120490476D01*
X164547619Y-120442857D01*
X164547619Y-120061904D02*
X164500000Y-120014285D01*
X164452380Y-119919047D01*
X164452380Y-119680952D01*
X164500000Y-119585714D01*
X164547619Y-119538095D01*
X164642857Y-119490476D01*
X164738095Y-119490476D01*
X164880952Y-119538095D01*
X165452380Y-120109523D01*
X165452380Y-119490476D01*
X165452380Y-118538095D02*
X165452380Y-119109523D01*
X165452380Y-118823809D02*
X164452380Y-118823809D01*
X164595238Y-118919047D01*
X164690476Y-119014285D01*
X164738095Y-119109523D01*
X139857142Y-125267857D02*
X139904761Y-125315476D01*
X139952380Y-125458333D01*
X139952380Y-125553571D01*
X139904761Y-125696428D01*
X139809523Y-125791666D01*
X139714285Y-125839285D01*
X139523809Y-125886904D01*
X139380952Y-125886904D01*
X139190476Y-125839285D01*
X139095238Y-125791666D01*
X139000000Y-125696428D01*
X138952380Y-125553571D01*
X138952380Y-125458333D01*
X139000000Y-125315476D01*
X139047619Y-125267857D01*
X139047619Y-124886904D02*
X139000000Y-124839285D01*
X138952380Y-124744047D01*
X138952380Y-124505952D01*
X139000000Y-124410714D01*
X139047619Y-124363095D01*
X139142857Y-124315476D01*
X139238095Y-124315476D01*
X139380952Y-124363095D01*
X139952380Y-124934523D01*
X139952380Y-124315476D01*
X138952380Y-123696428D02*
X138952380Y-123601190D01*
X139000000Y-123505952D01*
X139047619Y-123458333D01*
X139142857Y-123410714D01*
X139333333Y-123363095D01*
X139571428Y-123363095D01*
X139761904Y-123410714D01*
X139857142Y-123458333D01*
X139904761Y-123505952D01*
X139952380Y-123601190D01*
X139952380Y-123696428D01*
X139904761Y-123791666D01*
X139857142Y-123839285D01*
X139761904Y-123886904D01*
X139571428Y-123934523D01*
X139333333Y-123934523D01*
X139142857Y-123886904D01*
X139047619Y-123839285D01*
X139000000Y-123791666D01*
X138952380Y-123696428D01*
X113907142Y-98107142D02*
X113859523Y-98154761D01*
X113716666Y-98202380D01*
X113621428Y-98202380D01*
X113478571Y-98154761D01*
X113383333Y-98059523D01*
X113335714Y-97964285D01*
X113288095Y-97773809D01*
X113288095Y-97630952D01*
X113335714Y-97440476D01*
X113383333Y-97345238D01*
X113478571Y-97250000D01*
X113621428Y-97202380D01*
X113716666Y-97202380D01*
X113859523Y-97250000D01*
X113907142Y-97297619D01*
X114859523Y-98202380D02*
X114288095Y-98202380D01*
X114573809Y-98202380D02*
X114573809Y-97202380D01*
X114478571Y-97345238D01*
X114383333Y-97440476D01*
X114288095Y-97488095D01*
X115335714Y-98202380D02*
X115526190Y-98202380D01*
X115621428Y-98154761D01*
X115669047Y-98107142D01*
X115764285Y-97964285D01*
X115811904Y-97773809D01*
X115811904Y-97392857D01*
X115764285Y-97297619D01*
X115716666Y-97250000D01*
X115621428Y-97202380D01*
X115430952Y-97202380D01*
X115335714Y-97250000D01*
X115288095Y-97297619D01*
X115240476Y-97392857D01*
X115240476Y-97630952D01*
X115288095Y-97726190D01*
X115335714Y-97773809D01*
X115430952Y-97821428D01*
X115621428Y-97821428D01*
X115716666Y-97773809D01*
X115764285Y-97726190D01*
X115811904Y-97630952D01*
X180787142Y-141517857D02*
X180834761Y-141565476D01*
X180882380Y-141708333D01*
X180882380Y-141803571D01*
X180834761Y-141946428D01*
X180739523Y-142041666D01*
X180644285Y-142089285D01*
X180453809Y-142136904D01*
X180310952Y-142136904D01*
X180120476Y-142089285D01*
X180025238Y-142041666D01*
X179930000Y-141946428D01*
X179882380Y-141803571D01*
X179882380Y-141708333D01*
X179930000Y-141565476D01*
X179977619Y-141517857D01*
X180882380Y-140565476D02*
X180882380Y-141136904D01*
X180882380Y-140851190D02*
X179882380Y-140851190D01*
X180025238Y-140946428D01*
X180120476Y-141041666D01*
X180168095Y-141136904D01*
X180310952Y-139994047D02*
X180263333Y-140089285D01*
X180215714Y-140136904D01*
X180120476Y-140184523D01*
X180072857Y-140184523D01*
X179977619Y-140136904D01*
X179930000Y-140089285D01*
X179882380Y-139994047D01*
X179882380Y-139803571D01*
X179930000Y-139708333D01*
X179977619Y-139660714D01*
X180072857Y-139613095D01*
X180120476Y-139613095D01*
X180215714Y-139660714D01*
X180263333Y-139708333D01*
X180310952Y-139803571D01*
X180310952Y-139994047D01*
X180358571Y-140089285D01*
X180406190Y-140136904D01*
X180501428Y-140184523D01*
X180691904Y-140184523D01*
X180787142Y-140136904D01*
X180834761Y-140089285D01*
X180882380Y-139994047D01*
X180882380Y-139803571D01*
X180834761Y-139708333D01*
X180787142Y-139660714D01*
X180691904Y-139613095D01*
X180501428Y-139613095D01*
X180406190Y-139660714D01*
X180358571Y-139708333D01*
X180310952Y-139803571D01*
X169357142Y-125357142D02*
X169309523Y-125404761D01*
X169166666Y-125452380D01*
X169071428Y-125452380D01*
X168928571Y-125404761D01*
X168833333Y-125309523D01*
X168785714Y-125214285D01*
X168738095Y-125023809D01*
X168738095Y-124880952D01*
X168785714Y-124690476D01*
X168833333Y-124595238D01*
X168928571Y-124500000D01*
X169071428Y-124452380D01*
X169166666Y-124452380D01*
X169309523Y-124500000D01*
X169357142Y-124547619D01*
X170309523Y-125452380D02*
X169738095Y-125452380D01*
X170023809Y-125452380D02*
X170023809Y-124452380D01*
X169928571Y-124595238D01*
X169833333Y-124690476D01*
X169738095Y-124738095D01*
X170642857Y-124452380D02*
X171309523Y-124452380D01*
X170880952Y-125452380D01*
X170107142Y-133857142D02*
X170059523Y-133904761D01*
X169916666Y-133952380D01*
X169821428Y-133952380D01*
X169678571Y-133904761D01*
X169583333Y-133809523D01*
X169535714Y-133714285D01*
X169488095Y-133523809D01*
X169488095Y-133380952D01*
X169535714Y-133190476D01*
X169583333Y-133095238D01*
X169678571Y-133000000D01*
X169821428Y-132952380D01*
X169916666Y-132952380D01*
X170059523Y-133000000D01*
X170107142Y-133047619D01*
X171059523Y-133952380D02*
X170488095Y-133952380D01*
X170773809Y-133952380D02*
X170773809Y-132952380D01*
X170678571Y-133095238D01*
X170583333Y-133190476D01*
X170488095Y-133238095D01*
X171916666Y-132952380D02*
X171726190Y-132952380D01*
X171630952Y-133000000D01*
X171583333Y-133047619D01*
X171488095Y-133190476D01*
X171440476Y-133380952D01*
X171440476Y-133761904D01*
X171488095Y-133857142D01*
X171535714Y-133904761D01*
X171630952Y-133952380D01*
X171821428Y-133952380D01*
X171916666Y-133904761D01*
X171964285Y-133857142D01*
X172011904Y-133761904D01*
X172011904Y-133523809D01*
X171964285Y-133428571D01*
X171916666Y-133380952D01*
X171821428Y-133333333D01*
X171630952Y-133333333D01*
X171535714Y-133380952D01*
X171488095Y-133428571D01*
X171440476Y-133523809D01*
X167357142Y-120442857D02*
X167404761Y-120490476D01*
X167452380Y-120633333D01*
X167452380Y-120728571D01*
X167404761Y-120871428D01*
X167309523Y-120966666D01*
X167214285Y-121014285D01*
X167023809Y-121061904D01*
X166880952Y-121061904D01*
X166690476Y-121014285D01*
X166595238Y-120966666D01*
X166500000Y-120871428D01*
X166452380Y-120728571D01*
X166452380Y-120633333D01*
X166500000Y-120490476D01*
X166547619Y-120442857D01*
X167452380Y-119490476D02*
X167452380Y-120061904D01*
X167452380Y-119776190D02*
X166452380Y-119776190D01*
X166595238Y-119871428D01*
X166690476Y-119966666D01*
X166738095Y-120061904D01*
X166452380Y-118585714D02*
X166452380Y-119061904D01*
X166928571Y-119109523D01*
X166880952Y-119061904D01*
X166833333Y-118966666D01*
X166833333Y-118728571D01*
X166880952Y-118633333D01*
X166928571Y-118585714D01*
X167023809Y-118538095D01*
X167261904Y-118538095D01*
X167357142Y-118585714D01*
X167404761Y-118633333D01*
X167452380Y-118728571D01*
X167452380Y-118966666D01*
X167404761Y-119061904D01*
X167357142Y-119109523D01*
X139787142Y-129767857D02*
X139834761Y-129815476D01*
X139882380Y-129958333D01*
X139882380Y-130053571D01*
X139834761Y-130196428D01*
X139739523Y-130291666D01*
X139644285Y-130339285D01*
X139453809Y-130386904D01*
X139310952Y-130386904D01*
X139120476Y-130339285D01*
X139025238Y-130291666D01*
X138930000Y-130196428D01*
X138882380Y-130053571D01*
X138882380Y-129958333D01*
X138930000Y-129815476D01*
X138977619Y-129767857D01*
X139882380Y-128815476D02*
X139882380Y-129386904D01*
X139882380Y-129101190D02*
X138882380Y-129101190D01*
X139025238Y-129196428D01*
X139120476Y-129291666D01*
X139168095Y-129386904D01*
X139215714Y-127958333D02*
X139882380Y-127958333D01*
X138834761Y-128196428D02*
X139549047Y-128434523D01*
X139549047Y-127815476D01*
X106607142Y-98857142D02*
X106559523Y-98904761D01*
X106416666Y-98952380D01*
X106321428Y-98952380D01*
X106178571Y-98904761D01*
X106083333Y-98809523D01*
X106035714Y-98714285D01*
X105988095Y-98523809D01*
X105988095Y-98380952D01*
X106035714Y-98190476D01*
X106083333Y-98095238D01*
X106178571Y-98000000D01*
X106321428Y-97952380D01*
X106416666Y-97952380D01*
X106559523Y-98000000D01*
X106607142Y-98047619D01*
X107559523Y-98952380D02*
X106988095Y-98952380D01*
X107273809Y-98952380D02*
X107273809Y-97952380D01*
X107178571Y-98095238D01*
X107083333Y-98190476D01*
X106988095Y-98238095D01*
X107892857Y-97952380D02*
X108511904Y-97952380D01*
X108178571Y-98333333D01*
X108321428Y-98333333D01*
X108416666Y-98380952D01*
X108464285Y-98428571D01*
X108511904Y-98523809D01*
X108511904Y-98761904D01*
X108464285Y-98857142D01*
X108416666Y-98904761D01*
X108321428Y-98952380D01*
X108035714Y-98952380D01*
X107940476Y-98904761D01*
X107892857Y-98857142D01*
X168007142Y-61142857D02*
X168054761Y-61190476D01*
X168102380Y-61333333D01*
X168102380Y-61428571D01*
X168054761Y-61571428D01*
X167959523Y-61666666D01*
X167864285Y-61714285D01*
X167673809Y-61761904D01*
X167530952Y-61761904D01*
X167340476Y-61714285D01*
X167245238Y-61666666D01*
X167150000Y-61571428D01*
X167102380Y-61428571D01*
X167102380Y-61333333D01*
X167150000Y-61190476D01*
X167197619Y-61142857D01*
X168102380Y-60190476D02*
X168102380Y-60761904D01*
X168102380Y-60476190D02*
X167102380Y-60476190D01*
X167245238Y-60571428D01*
X167340476Y-60666666D01*
X167388095Y-60761904D01*
X167197619Y-59809523D02*
X167150000Y-59761904D01*
X167102380Y-59666666D01*
X167102380Y-59428571D01*
X167150000Y-59333333D01*
X167197619Y-59285714D01*
X167292857Y-59238095D01*
X167388095Y-59238095D01*
X167530952Y-59285714D01*
X168102380Y-59857142D01*
X168102380Y-59238095D01*
X170107142Y-135607142D02*
X170059523Y-135654761D01*
X169916666Y-135702380D01*
X169821428Y-135702380D01*
X169678571Y-135654761D01*
X169583333Y-135559523D01*
X169535714Y-135464285D01*
X169488095Y-135273809D01*
X169488095Y-135130952D01*
X169535714Y-134940476D01*
X169583333Y-134845238D01*
X169678571Y-134750000D01*
X169821428Y-134702380D01*
X169916666Y-134702380D01*
X170059523Y-134750000D01*
X170107142Y-134797619D01*
X171059523Y-135702380D02*
X170488095Y-135702380D01*
X170773809Y-135702380D02*
X170773809Y-134702380D01*
X170678571Y-134845238D01*
X170583333Y-134940476D01*
X170488095Y-134988095D01*
X172011904Y-135702380D02*
X171440476Y-135702380D01*
X171726190Y-135702380D02*
X171726190Y-134702380D01*
X171630952Y-134845238D01*
X171535714Y-134940476D01*
X171440476Y-134988095D01*
X163357142Y-120442857D02*
X163404761Y-120490476D01*
X163452380Y-120633333D01*
X163452380Y-120728571D01*
X163404761Y-120871428D01*
X163309523Y-120966666D01*
X163214285Y-121014285D01*
X163023809Y-121061904D01*
X162880952Y-121061904D01*
X162690476Y-121014285D01*
X162595238Y-120966666D01*
X162500000Y-120871428D01*
X162452380Y-120728571D01*
X162452380Y-120633333D01*
X162500000Y-120490476D01*
X162547619Y-120442857D01*
X163452380Y-119490476D02*
X163452380Y-120061904D01*
X163452380Y-119776190D02*
X162452380Y-119776190D01*
X162595238Y-119871428D01*
X162690476Y-119966666D01*
X162738095Y-120061904D01*
X162452380Y-118871428D02*
X162452380Y-118776190D01*
X162500000Y-118680952D01*
X162547619Y-118633333D01*
X162642857Y-118585714D01*
X162833333Y-118538095D01*
X163071428Y-118538095D01*
X163261904Y-118585714D01*
X163357142Y-118633333D01*
X163404761Y-118680952D01*
X163452380Y-118776190D01*
X163452380Y-118871428D01*
X163404761Y-118966666D01*
X163357142Y-119014285D01*
X163261904Y-119061904D01*
X163071428Y-119109523D01*
X162833333Y-119109523D01*
X162642857Y-119061904D01*
X162547619Y-119014285D01*
X162500000Y-118966666D01*
X162452380Y-118871428D01*
X157633333Y-64607142D02*
X157585714Y-64654761D01*
X157442857Y-64702380D01*
X157347619Y-64702380D01*
X157204761Y-64654761D01*
X157109523Y-64559523D01*
X157061904Y-64464285D01*
X157014285Y-64273809D01*
X157014285Y-64130952D01*
X157061904Y-63940476D01*
X157109523Y-63845238D01*
X157204761Y-63750000D01*
X157347619Y-63702380D01*
X157442857Y-63702380D01*
X157585714Y-63750000D01*
X157633333Y-63797619D01*
X158109523Y-64702380D02*
X158300000Y-64702380D01*
X158395238Y-64654761D01*
X158442857Y-64607142D01*
X158538095Y-64464285D01*
X158585714Y-64273809D01*
X158585714Y-63892857D01*
X158538095Y-63797619D01*
X158490476Y-63750000D01*
X158395238Y-63702380D01*
X158204761Y-63702380D01*
X158109523Y-63750000D01*
X158061904Y-63797619D01*
X158014285Y-63892857D01*
X158014285Y-64130952D01*
X158061904Y-64226190D01*
X158109523Y-64273809D01*
X158204761Y-64321428D01*
X158395238Y-64321428D01*
X158490476Y-64273809D01*
X158538095Y-64226190D01*
X158585714Y-64130952D01*
X138333333Y-119857142D02*
X138285714Y-119904761D01*
X138142857Y-119952380D01*
X138047619Y-119952380D01*
X137904761Y-119904761D01*
X137809523Y-119809523D01*
X137761904Y-119714285D01*
X137714285Y-119523809D01*
X137714285Y-119380952D01*
X137761904Y-119190476D01*
X137809523Y-119095238D01*
X137904761Y-119000000D01*
X138047619Y-118952380D01*
X138142857Y-118952380D01*
X138285714Y-119000000D01*
X138333333Y-119047619D01*
X138904761Y-119380952D02*
X138809523Y-119333333D01*
X138761904Y-119285714D01*
X138714285Y-119190476D01*
X138714285Y-119142857D01*
X138761904Y-119047619D01*
X138809523Y-119000000D01*
X138904761Y-118952380D01*
X139095238Y-118952380D01*
X139190476Y-119000000D01*
X139238095Y-119047619D01*
X139285714Y-119142857D01*
X139285714Y-119190476D01*
X139238095Y-119285714D01*
X139190476Y-119333333D01*
X139095238Y-119380952D01*
X138904761Y-119380952D01*
X138809523Y-119428571D01*
X138761904Y-119476190D01*
X138714285Y-119571428D01*
X138714285Y-119761904D01*
X138761904Y-119857142D01*
X138809523Y-119904761D01*
X138904761Y-119952380D01*
X139095238Y-119952380D01*
X139190476Y-119904761D01*
X139238095Y-119857142D01*
X139285714Y-119761904D01*
X139285714Y-119571428D01*
X139238095Y-119476190D01*
X139190476Y-119428571D01*
X139095238Y-119380952D01*
X148083333Y-120357142D02*
X148035714Y-120404761D01*
X147892857Y-120452380D01*
X147797619Y-120452380D01*
X147654761Y-120404761D01*
X147559523Y-120309523D01*
X147511904Y-120214285D01*
X147464285Y-120023809D01*
X147464285Y-119880952D01*
X147511904Y-119690476D01*
X147559523Y-119595238D01*
X147654761Y-119500000D01*
X147797619Y-119452380D01*
X147892857Y-119452380D01*
X148035714Y-119500000D01*
X148083333Y-119547619D01*
X148416666Y-119452380D02*
X149083333Y-119452380D01*
X148654761Y-120452380D01*
X136707142Y-116641666D02*
X136754761Y-116689285D01*
X136802380Y-116832142D01*
X136802380Y-116927380D01*
X136754761Y-117070238D01*
X136659523Y-117165476D01*
X136564285Y-117213095D01*
X136373809Y-117260714D01*
X136230952Y-117260714D01*
X136040476Y-117213095D01*
X135945238Y-117165476D01*
X135850000Y-117070238D01*
X135802380Y-116927380D01*
X135802380Y-116832142D01*
X135850000Y-116689285D01*
X135897619Y-116641666D01*
X135802380Y-115784523D02*
X135802380Y-115975000D01*
X135850000Y-116070238D01*
X135897619Y-116117857D01*
X136040476Y-116213095D01*
X136230952Y-116260714D01*
X136611904Y-116260714D01*
X136707142Y-116213095D01*
X136754761Y-116165476D01*
X136802380Y-116070238D01*
X136802380Y-115879761D01*
X136754761Y-115784523D01*
X136707142Y-115736904D01*
X136611904Y-115689285D01*
X136373809Y-115689285D01*
X136278571Y-115736904D01*
X136230952Y-115784523D01*
X136183333Y-115879761D01*
X136183333Y-116070238D01*
X136230952Y-116165476D01*
X136278571Y-116213095D01*
X136373809Y-116260714D01*
X106833333Y-106357142D02*
X106785714Y-106404761D01*
X106642857Y-106452380D01*
X106547619Y-106452380D01*
X106404761Y-106404761D01*
X106309523Y-106309523D01*
X106261904Y-106214285D01*
X106214285Y-106023809D01*
X106214285Y-105880952D01*
X106261904Y-105690476D01*
X106309523Y-105595238D01*
X106404761Y-105500000D01*
X106547619Y-105452380D01*
X106642857Y-105452380D01*
X106785714Y-105500000D01*
X106833333Y-105547619D01*
X107738095Y-105452380D02*
X107261904Y-105452380D01*
X107214285Y-105928571D01*
X107261904Y-105880952D01*
X107357142Y-105833333D01*
X107595238Y-105833333D01*
X107690476Y-105880952D01*
X107738095Y-105928571D01*
X107785714Y-106023809D01*
X107785714Y-106261904D01*
X107738095Y-106357142D01*
X107690476Y-106404761D01*
X107595238Y-106452380D01*
X107357142Y-106452380D01*
X107261904Y-106404761D01*
X107214285Y-106357142D01*
X106833333Y-103357142D02*
X106785714Y-103404761D01*
X106642857Y-103452380D01*
X106547619Y-103452380D01*
X106404761Y-103404761D01*
X106309523Y-103309523D01*
X106261904Y-103214285D01*
X106214285Y-103023809D01*
X106214285Y-102880952D01*
X106261904Y-102690476D01*
X106309523Y-102595238D01*
X106404761Y-102500000D01*
X106547619Y-102452380D01*
X106642857Y-102452380D01*
X106785714Y-102500000D01*
X106833333Y-102547619D01*
X107690476Y-102785714D02*
X107690476Y-103452380D01*
X107452380Y-102404761D02*
X107214285Y-103119047D01*
X107833333Y-103119047D01*
X156308333Y-137507142D02*
X156260714Y-137554761D01*
X156117857Y-137602380D01*
X156022619Y-137602380D01*
X155879761Y-137554761D01*
X155784523Y-137459523D01*
X155736904Y-137364285D01*
X155689285Y-137173809D01*
X155689285Y-137030952D01*
X155736904Y-136840476D01*
X155784523Y-136745238D01*
X155879761Y-136650000D01*
X156022619Y-136602380D01*
X156117857Y-136602380D01*
X156260714Y-136650000D01*
X156308333Y-136697619D01*
X156641666Y-136602380D02*
X157260714Y-136602380D01*
X156927380Y-136983333D01*
X157070238Y-136983333D01*
X157165476Y-137030952D01*
X157213095Y-137078571D01*
X157260714Y-137173809D01*
X157260714Y-137411904D01*
X157213095Y-137507142D01*
X157165476Y-137554761D01*
X157070238Y-137602380D01*
X156784523Y-137602380D01*
X156689285Y-137554761D01*
X156641666Y-137507142D01*
X127507142Y-115691666D02*
X127554761Y-115739285D01*
X127602380Y-115882142D01*
X127602380Y-115977380D01*
X127554761Y-116120238D01*
X127459523Y-116215476D01*
X127364285Y-116263095D01*
X127173809Y-116310714D01*
X127030952Y-116310714D01*
X126840476Y-116263095D01*
X126745238Y-116215476D01*
X126650000Y-116120238D01*
X126602380Y-115977380D01*
X126602380Y-115882142D01*
X126650000Y-115739285D01*
X126697619Y-115691666D01*
X126697619Y-115310714D02*
X126650000Y-115263095D01*
X126602380Y-115167857D01*
X126602380Y-114929761D01*
X126650000Y-114834523D01*
X126697619Y-114786904D01*
X126792857Y-114739285D01*
X126888095Y-114739285D01*
X127030952Y-114786904D01*
X127602380Y-115358333D01*
X127602380Y-114739285D01*
X117707142Y-104391666D02*
X117754761Y-104439285D01*
X117802380Y-104582142D01*
X117802380Y-104677380D01*
X117754761Y-104820238D01*
X117659523Y-104915476D01*
X117564285Y-104963095D01*
X117373809Y-105010714D01*
X117230952Y-105010714D01*
X117040476Y-104963095D01*
X116945238Y-104915476D01*
X116850000Y-104820238D01*
X116802380Y-104677380D01*
X116802380Y-104582142D01*
X116850000Y-104439285D01*
X116897619Y-104391666D01*
X117802380Y-103439285D02*
X117802380Y-104010714D01*
X117802380Y-103725000D02*
X116802380Y-103725000D01*
X116945238Y-103820238D01*
X117040476Y-103915476D01*
X117088095Y-104010714D01*
M02*
