G04 #@! TF.GenerationSoftware,KiCad,Pcbnew,5.1.6-c6e7f7d~86~ubuntu18.04.1*
G04 #@! TF.CreationDate,2020-05-28T18:44:08+01:00*
G04 #@! TF.ProjectId,multi-smtpa,6d756c74-692d-4736-9d74-70612e6b6963,rev?*
G04 #@! TF.SameCoordinates,Original*
G04 #@! TF.FileFunction,Paste,Top*
G04 #@! TF.FilePolarity,Positive*
%FSLAX46Y46*%
G04 Gerber Fmt 4.6, Leading zero omitted, Abs format (unit mm)*
G04 Created by KiCad (PCBNEW 5.1.6-c6e7f7d~86~ubuntu18.04.1) date 2020-05-28 18:44:08*
%MOMM*%
%LPD*%
G01*
G04 APERTURE LIST*
%ADD10R,5.080000X1.500000*%
%ADD11R,1.500000X5.080000*%
%ADD12R,0.800000X0.900000*%
%ADD13C,0.100000*%
%ADD14R,1.500000X1.000000*%
%ADD15R,1.800000X1.000000*%
%ADD16R,1.840000X2.200000*%
%ADD17R,0.900000X0.800000*%
G04 APERTURE END LIST*
D10*
X197250000Y-66350000D03*
X197250000Y-62100000D03*
X197250000Y-70600000D03*
G36*
G01*
X112425000Y-94722500D02*
X112425000Y-94377500D01*
G75*
G02*
X112572500Y-94230000I147500J0D01*
G01*
X112867500Y-94230000D01*
G75*
G02*
X113015000Y-94377500I0J-147500D01*
G01*
X113015000Y-94722500D01*
G75*
G02*
X112867500Y-94870000I-147500J0D01*
G01*
X112572500Y-94870000D01*
G75*
G02*
X112425000Y-94722500I0J147500D01*
G01*
G37*
G36*
G01*
X111455000Y-94722500D02*
X111455000Y-94377500D01*
G75*
G02*
X111602500Y-94230000I147500J0D01*
G01*
X111897500Y-94230000D01*
G75*
G02*
X112045000Y-94377500I0J-147500D01*
G01*
X112045000Y-94722500D01*
G75*
G02*
X111897500Y-94870000I-147500J0D01*
G01*
X111602500Y-94870000D01*
G75*
G02*
X111455000Y-94722500I0J147500D01*
G01*
G37*
G36*
G01*
X112425000Y-95922500D02*
X112425000Y-95577500D01*
G75*
G02*
X112572500Y-95430000I147500J0D01*
G01*
X112867500Y-95430000D01*
G75*
G02*
X113015000Y-95577500I0J-147500D01*
G01*
X113015000Y-95922500D01*
G75*
G02*
X112867500Y-96070000I-147500J0D01*
G01*
X112572500Y-96070000D01*
G75*
G02*
X112425000Y-95922500I0J147500D01*
G01*
G37*
G36*
G01*
X111455000Y-95922500D02*
X111455000Y-95577500D01*
G75*
G02*
X111602500Y-95430000I147500J0D01*
G01*
X111897500Y-95430000D01*
G75*
G02*
X112045000Y-95577500I0J-147500D01*
G01*
X112045000Y-95922500D01*
G75*
G02*
X111897500Y-96070000I-147500J0D01*
G01*
X111602500Y-96070000D01*
G75*
G02*
X111455000Y-95922500I0J147500D01*
G01*
G37*
G36*
G01*
X116775000Y-67012500D02*
X116775000Y-67487500D01*
G75*
G02*
X116537500Y-67725000I-237500J0D01*
G01*
X115962500Y-67725000D01*
G75*
G02*
X115725000Y-67487500I0J237500D01*
G01*
X115725000Y-67012500D01*
G75*
G02*
X115962500Y-66775000I237500J0D01*
G01*
X116537500Y-66775000D01*
G75*
G02*
X116775000Y-67012500I0J-237500D01*
G01*
G37*
G36*
G01*
X115025000Y-67012500D02*
X115025000Y-67487500D01*
G75*
G02*
X114787500Y-67725000I-237500J0D01*
G01*
X114212500Y-67725000D01*
G75*
G02*
X113975000Y-67487500I0J237500D01*
G01*
X113975000Y-67012500D01*
G75*
G02*
X114212500Y-66775000I237500J0D01*
G01*
X114787500Y-66775000D01*
G75*
G02*
X115025000Y-67012500I0J-237500D01*
G01*
G37*
G36*
G01*
X126775000Y-67012500D02*
X126775000Y-67487500D01*
G75*
G02*
X126537500Y-67725000I-237500J0D01*
G01*
X125962500Y-67725000D01*
G75*
G02*
X125725000Y-67487500I0J237500D01*
G01*
X125725000Y-67012500D01*
G75*
G02*
X125962500Y-66775000I237500J0D01*
G01*
X126537500Y-66775000D01*
G75*
G02*
X126775000Y-67012500I0J-237500D01*
G01*
G37*
G36*
G01*
X125025000Y-67012500D02*
X125025000Y-67487500D01*
G75*
G02*
X124787500Y-67725000I-237500J0D01*
G01*
X124212500Y-67725000D01*
G75*
G02*
X123975000Y-67487500I0J237500D01*
G01*
X123975000Y-67012500D01*
G75*
G02*
X124212500Y-66775000I237500J0D01*
G01*
X124787500Y-66775000D01*
G75*
G02*
X125025000Y-67012500I0J-237500D01*
G01*
G37*
G36*
G01*
X126775000Y-68762500D02*
X126775000Y-69237500D01*
G75*
G02*
X126537500Y-69475000I-237500J0D01*
G01*
X125962500Y-69475000D01*
G75*
G02*
X125725000Y-69237500I0J237500D01*
G01*
X125725000Y-68762500D01*
G75*
G02*
X125962500Y-68525000I237500J0D01*
G01*
X126537500Y-68525000D01*
G75*
G02*
X126775000Y-68762500I0J-237500D01*
G01*
G37*
G36*
G01*
X125025000Y-68762500D02*
X125025000Y-69237500D01*
G75*
G02*
X124787500Y-69475000I-237500J0D01*
G01*
X124212500Y-69475000D01*
G75*
G02*
X123975000Y-69237500I0J237500D01*
G01*
X123975000Y-68762500D01*
G75*
G02*
X124212500Y-68525000I237500J0D01*
G01*
X124787500Y-68525000D01*
G75*
G02*
X125025000Y-68762500I0J-237500D01*
G01*
G37*
G36*
G01*
X146775000Y-68762500D02*
X146775000Y-69237500D01*
G75*
G02*
X146537500Y-69475000I-237500J0D01*
G01*
X145962500Y-69475000D01*
G75*
G02*
X145725000Y-69237500I0J237500D01*
G01*
X145725000Y-68762500D01*
G75*
G02*
X145962500Y-68525000I237500J0D01*
G01*
X146537500Y-68525000D01*
G75*
G02*
X146775000Y-68762500I0J-237500D01*
G01*
G37*
G36*
G01*
X145025000Y-68762500D02*
X145025000Y-69237500D01*
G75*
G02*
X144787500Y-69475000I-237500J0D01*
G01*
X144212500Y-69475000D01*
G75*
G02*
X143975000Y-69237500I0J237500D01*
G01*
X143975000Y-68762500D01*
G75*
G02*
X144212500Y-68525000I237500J0D01*
G01*
X144787500Y-68525000D01*
G75*
G02*
X145025000Y-68762500I0J-237500D01*
G01*
G37*
G36*
G01*
X116775000Y-70512500D02*
X116775000Y-70987500D01*
G75*
G02*
X116537500Y-71225000I-237500J0D01*
G01*
X115962500Y-71225000D01*
G75*
G02*
X115725000Y-70987500I0J237500D01*
G01*
X115725000Y-70512500D01*
G75*
G02*
X115962500Y-70275000I237500J0D01*
G01*
X116537500Y-70275000D01*
G75*
G02*
X116775000Y-70512500I0J-237500D01*
G01*
G37*
G36*
G01*
X115025000Y-70512500D02*
X115025000Y-70987500D01*
G75*
G02*
X114787500Y-71225000I-237500J0D01*
G01*
X114212500Y-71225000D01*
G75*
G02*
X113975000Y-70987500I0J237500D01*
G01*
X113975000Y-70512500D01*
G75*
G02*
X114212500Y-70275000I237500J0D01*
G01*
X114787500Y-70275000D01*
G75*
G02*
X115025000Y-70512500I0J-237500D01*
G01*
G37*
G36*
G01*
X146775000Y-70512500D02*
X146775000Y-70987500D01*
G75*
G02*
X146537500Y-71225000I-237500J0D01*
G01*
X145962500Y-71225000D01*
G75*
G02*
X145725000Y-70987500I0J237500D01*
G01*
X145725000Y-70512500D01*
G75*
G02*
X145962500Y-70275000I237500J0D01*
G01*
X146537500Y-70275000D01*
G75*
G02*
X146775000Y-70512500I0J-237500D01*
G01*
G37*
G36*
G01*
X145025000Y-70512500D02*
X145025000Y-70987500D01*
G75*
G02*
X144787500Y-71225000I-237500J0D01*
G01*
X144212500Y-71225000D01*
G75*
G02*
X143975000Y-70987500I0J237500D01*
G01*
X143975000Y-70512500D01*
G75*
G02*
X144212500Y-70275000I237500J0D01*
G01*
X144787500Y-70275000D01*
G75*
G02*
X145025000Y-70512500I0J-237500D01*
G01*
G37*
G36*
G01*
X136850000Y-67012500D02*
X136850000Y-67487500D01*
G75*
G02*
X136612500Y-67725000I-237500J0D01*
G01*
X136037500Y-67725000D01*
G75*
G02*
X135800000Y-67487500I0J237500D01*
G01*
X135800000Y-67012500D01*
G75*
G02*
X136037500Y-66775000I237500J0D01*
G01*
X136612500Y-66775000D01*
G75*
G02*
X136850000Y-67012500I0J-237500D01*
G01*
G37*
G36*
G01*
X135100000Y-67012500D02*
X135100000Y-67487500D01*
G75*
G02*
X134862500Y-67725000I-237500J0D01*
G01*
X134287500Y-67725000D01*
G75*
G02*
X134050000Y-67487500I0J237500D01*
G01*
X134050000Y-67012500D01*
G75*
G02*
X134287500Y-66775000I237500J0D01*
G01*
X134862500Y-66775000D01*
G75*
G02*
X135100000Y-67012500I0J-237500D01*
G01*
G37*
G36*
G01*
X116775000Y-68762500D02*
X116775000Y-69237500D01*
G75*
G02*
X116537500Y-69475000I-237500J0D01*
G01*
X115962500Y-69475000D01*
G75*
G02*
X115725000Y-69237500I0J237500D01*
G01*
X115725000Y-68762500D01*
G75*
G02*
X115962500Y-68525000I237500J0D01*
G01*
X116537500Y-68525000D01*
G75*
G02*
X116775000Y-68762500I0J-237500D01*
G01*
G37*
G36*
G01*
X115025000Y-68762500D02*
X115025000Y-69237500D01*
G75*
G02*
X114787500Y-69475000I-237500J0D01*
G01*
X114212500Y-69475000D01*
G75*
G02*
X113975000Y-69237500I0J237500D01*
G01*
X113975000Y-68762500D01*
G75*
G02*
X114212500Y-68525000I237500J0D01*
G01*
X114787500Y-68525000D01*
G75*
G02*
X115025000Y-68762500I0J-237500D01*
G01*
G37*
G36*
G01*
X136900000Y-70512500D02*
X136900000Y-70987500D01*
G75*
G02*
X136662500Y-71225000I-237500J0D01*
G01*
X136087500Y-71225000D01*
G75*
G02*
X135850000Y-70987500I0J237500D01*
G01*
X135850000Y-70512500D01*
G75*
G02*
X136087500Y-70275000I237500J0D01*
G01*
X136662500Y-70275000D01*
G75*
G02*
X136900000Y-70512500I0J-237500D01*
G01*
G37*
G36*
G01*
X135150000Y-70512500D02*
X135150000Y-70987500D01*
G75*
G02*
X134912500Y-71225000I-237500J0D01*
G01*
X134337500Y-71225000D01*
G75*
G02*
X134100000Y-70987500I0J237500D01*
G01*
X134100000Y-70512500D01*
G75*
G02*
X134337500Y-70275000I237500J0D01*
G01*
X134912500Y-70275000D01*
G75*
G02*
X135150000Y-70512500I0J-237500D01*
G01*
G37*
G36*
G01*
X146775000Y-67012500D02*
X146775000Y-67487500D01*
G75*
G02*
X146537500Y-67725000I-237500J0D01*
G01*
X145962500Y-67725000D01*
G75*
G02*
X145725000Y-67487500I0J237500D01*
G01*
X145725000Y-67012500D01*
G75*
G02*
X145962500Y-66775000I237500J0D01*
G01*
X146537500Y-66775000D01*
G75*
G02*
X146775000Y-67012500I0J-237500D01*
G01*
G37*
G36*
G01*
X145025000Y-67012500D02*
X145025000Y-67487500D01*
G75*
G02*
X144787500Y-67725000I-237500J0D01*
G01*
X144212500Y-67725000D01*
G75*
G02*
X143975000Y-67487500I0J237500D01*
G01*
X143975000Y-67012500D01*
G75*
G02*
X144212500Y-66775000I237500J0D01*
G01*
X144787500Y-66775000D01*
G75*
G02*
X145025000Y-67012500I0J-237500D01*
G01*
G37*
G36*
G01*
X136900000Y-68762500D02*
X136900000Y-69237500D01*
G75*
G02*
X136662500Y-69475000I-237500J0D01*
G01*
X136087500Y-69475000D01*
G75*
G02*
X135850000Y-69237500I0J237500D01*
G01*
X135850000Y-68762500D01*
G75*
G02*
X136087500Y-68525000I237500J0D01*
G01*
X136662500Y-68525000D01*
G75*
G02*
X136900000Y-68762500I0J-237500D01*
G01*
G37*
G36*
G01*
X135150000Y-68762500D02*
X135150000Y-69237500D01*
G75*
G02*
X134912500Y-69475000I-237500J0D01*
G01*
X134337500Y-69475000D01*
G75*
G02*
X134100000Y-69237500I0J237500D01*
G01*
X134100000Y-68762500D01*
G75*
G02*
X134337500Y-68525000I237500J0D01*
G01*
X134912500Y-68525000D01*
G75*
G02*
X135150000Y-68762500I0J-237500D01*
G01*
G37*
G36*
G01*
X126775000Y-70512500D02*
X126775000Y-70987500D01*
G75*
G02*
X126537500Y-71225000I-237500J0D01*
G01*
X125962500Y-71225000D01*
G75*
G02*
X125725000Y-70987500I0J237500D01*
G01*
X125725000Y-70512500D01*
G75*
G02*
X125962500Y-70275000I237500J0D01*
G01*
X126537500Y-70275000D01*
G75*
G02*
X126775000Y-70512500I0J-237500D01*
G01*
G37*
G36*
G01*
X125025000Y-70512500D02*
X125025000Y-70987500D01*
G75*
G02*
X124787500Y-71225000I-237500J0D01*
G01*
X124212500Y-71225000D01*
G75*
G02*
X123975000Y-70987500I0J237500D01*
G01*
X123975000Y-70512500D01*
G75*
G02*
X124212500Y-70275000I237500J0D01*
G01*
X124787500Y-70275000D01*
G75*
G02*
X125025000Y-70512500I0J-237500D01*
G01*
G37*
G36*
G01*
X102300000Y-74995000D02*
X102300000Y-74695000D01*
G75*
G02*
X102450000Y-74545000I150000J0D01*
G01*
X104100000Y-74545000D01*
G75*
G02*
X104250000Y-74695000I0J-150000D01*
G01*
X104250000Y-74995000D01*
G75*
G02*
X104100000Y-75145000I-150000J0D01*
G01*
X102450000Y-75145000D01*
G75*
G02*
X102300000Y-74995000I0J150000D01*
G01*
G37*
G36*
G01*
X102300000Y-76265000D02*
X102300000Y-75965000D01*
G75*
G02*
X102450000Y-75815000I150000J0D01*
G01*
X104100000Y-75815000D01*
G75*
G02*
X104250000Y-75965000I0J-150000D01*
G01*
X104250000Y-76265000D01*
G75*
G02*
X104100000Y-76415000I-150000J0D01*
G01*
X102450000Y-76415000D01*
G75*
G02*
X102300000Y-76265000I0J150000D01*
G01*
G37*
G36*
G01*
X102300000Y-77535000D02*
X102300000Y-77235000D01*
G75*
G02*
X102450000Y-77085000I150000J0D01*
G01*
X104100000Y-77085000D01*
G75*
G02*
X104250000Y-77235000I0J-150000D01*
G01*
X104250000Y-77535000D01*
G75*
G02*
X104100000Y-77685000I-150000J0D01*
G01*
X102450000Y-77685000D01*
G75*
G02*
X102300000Y-77535000I0J150000D01*
G01*
G37*
G36*
G01*
X102300000Y-78805000D02*
X102300000Y-78505000D01*
G75*
G02*
X102450000Y-78355000I150000J0D01*
G01*
X104100000Y-78355000D01*
G75*
G02*
X104250000Y-78505000I0J-150000D01*
G01*
X104250000Y-78805000D01*
G75*
G02*
X104100000Y-78955000I-150000J0D01*
G01*
X102450000Y-78955000D01*
G75*
G02*
X102300000Y-78805000I0J150000D01*
G01*
G37*
G36*
G01*
X107250000Y-78805000D02*
X107250000Y-78505000D01*
G75*
G02*
X107400000Y-78355000I150000J0D01*
G01*
X109050000Y-78355000D01*
G75*
G02*
X109200000Y-78505000I0J-150000D01*
G01*
X109200000Y-78805000D01*
G75*
G02*
X109050000Y-78955000I-150000J0D01*
G01*
X107400000Y-78955000D01*
G75*
G02*
X107250000Y-78805000I0J150000D01*
G01*
G37*
G36*
G01*
X107250000Y-77535000D02*
X107250000Y-77235000D01*
G75*
G02*
X107400000Y-77085000I150000J0D01*
G01*
X109050000Y-77085000D01*
G75*
G02*
X109200000Y-77235000I0J-150000D01*
G01*
X109200000Y-77535000D01*
G75*
G02*
X109050000Y-77685000I-150000J0D01*
G01*
X107400000Y-77685000D01*
G75*
G02*
X107250000Y-77535000I0J150000D01*
G01*
G37*
G36*
G01*
X107250000Y-76265000D02*
X107250000Y-75965000D01*
G75*
G02*
X107400000Y-75815000I150000J0D01*
G01*
X109050000Y-75815000D01*
G75*
G02*
X109200000Y-75965000I0J-150000D01*
G01*
X109200000Y-76265000D01*
G75*
G02*
X109050000Y-76415000I-150000J0D01*
G01*
X107400000Y-76415000D01*
G75*
G02*
X107250000Y-76265000I0J150000D01*
G01*
G37*
G36*
G01*
X107250000Y-74995000D02*
X107250000Y-74695000D01*
G75*
G02*
X107400000Y-74545000I150000J0D01*
G01*
X109050000Y-74545000D01*
G75*
G02*
X109200000Y-74695000I0J-150000D01*
G01*
X109200000Y-74995000D01*
G75*
G02*
X109050000Y-75145000I-150000J0D01*
G01*
X107400000Y-75145000D01*
G75*
G02*
X107250000Y-74995000I0J150000D01*
G01*
G37*
G36*
G01*
X102650000Y-82700001D02*
X102650000Y-81799999D01*
G75*
G02*
X102899999Y-81550000I249999J0D01*
G01*
X103550001Y-81550000D01*
G75*
G02*
X103800000Y-81799999I0J-249999D01*
G01*
X103800000Y-82700001D01*
G75*
G02*
X103550001Y-82950000I-249999J0D01*
G01*
X102899999Y-82950000D01*
G75*
G02*
X102650000Y-82700001I0J249999D01*
G01*
G37*
G36*
G01*
X104700000Y-82700001D02*
X104700000Y-81799999D01*
G75*
G02*
X104949999Y-81550000I249999J0D01*
G01*
X105600001Y-81550000D01*
G75*
G02*
X105850000Y-81799999I0J-249999D01*
G01*
X105850000Y-82700001D01*
G75*
G02*
X105600001Y-82950000I-249999J0D01*
G01*
X104949999Y-82950000D01*
G75*
G02*
X104700000Y-82700001I0J249999D01*
G01*
G37*
G36*
G01*
X112200001Y-78850000D02*
X111299999Y-78850000D01*
G75*
G02*
X111050000Y-78600001I0J249999D01*
G01*
X111050000Y-77949999D01*
G75*
G02*
X111299999Y-77700000I249999J0D01*
G01*
X112200001Y-77700000D01*
G75*
G02*
X112450000Y-77949999I0J-249999D01*
G01*
X112450000Y-78600001D01*
G75*
G02*
X112200001Y-78850000I-249999J0D01*
G01*
G37*
G36*
G01*
X112200001Y-76800000D02*
X111299999Y-76800000D01*
G75*
G02*
X111050000Y-76550001I0J249999D01*
G01*
X111050000Y-75899999D01*
G75*
G02*
X111299999Y-75650000I249999J0D01*
G01*
X112200001Y-75650000D01*
G75*
G02*
X112450000Y-75899999I0J-249999D01*
G01*
X112450000Y-76550001D01*
G75*
G02*
X112200001Y-76800000I-249999J0D01*
G01*
G37*
G36*
G01*
X150275000Y-57262500D02*
X150275000Y-57737500D01*
G75*
G02*
X150037500Y-57975000I-237500J0D01*
G01*
X149462500Y-57975000D01*
G75*
G02*
X149225000Y-57737500I0J237500D01*
G01*
X149225000Y-57262500D01*
G75*
G02*
X149462500Y-57025000I237500J0D01*
G01*
X150037500Y-57025000D01*
G75*
G02*
X150275000Y-57262500I0J-237500D01*
G01*
G37*
G36*
G01*
X148525000Y-57262500D02*
X148525000Y-57737500D01*
G75*
G02*
X148287500Y-57975000I-237500J0D01*
G01*
X147712500Y-57975000D01*
G75*
G02*
X147475000Y-57737500I0J237500D01*
G01*
X147475000Y-57262500D01*
G75*
G02*
X147712500Y-57025000I237500J0D01*
G01*
X148287500Y-57025000D01*
G75*
G02*
X148525000Y-57262500I0J-237500D01*
G01*
G37*
D11*
X161750000Y-52800000D03*
X153250000Y-52800000D03*
X157500000Y-52800000D03*
X138750000Y-52800000D03*
X130250000Y-52800000D03*
X134500000Y-52800000D03*
D12*
X121700000Y-62750000D03*
X119800000Y-62750000D03*
X120750000Y-64750000D03*
X131700000Y-62750000D03*
X129800000Y-62750000D03*
X130750000Y-64750000D03*
X141700000Y-62750000D03*
X139800000Y-62750000D03*
X140750000Y-64750000D03*
X151700000Y-62750000D03*
X149800000Y-62750000D03*
X150750000Y-64750000D03*
G36*
G01*
X107150000Y-82700001D02*
X107150000Y-81799999D01*
G75*
G02*
X107399999Y-81550000I249999J0D01*
G01*
X108050001Y-81550000D01*
G75*
G02*
X108300000Y-81799999I0J-249999D01*
G01*
X108300000Y-82700001D01*
G75*
G02*
X108050001Y-82950000I-249999J0D01*
G01*
X107399999Y-82950000D01*
G75*
G02*
X107150000Y-82700001I0J249999D01*
G01*
G37*
G36*
G01*
X109200000Y-82700001D02*
X109200000Y-81799999D01*
G75*
G02*
X109449999Y-81550000I249999J0D01*
G01*
X110100001Y-81550000D01*
G75*
G02*
X110350000Y-81799999I0J-249999D01*
G01*
X110350000Y-82700001D01*
G75*
G02*
X110100001Y-82950000I-249999J0D01*
G01*
X109449999Y-82950000D01*
G75*
G02*
X109200000Y-82700001I0J249999D01*
G01*
G37*
G36*
G01*
X108125000Y-73200001D02*
X108125000Y-72299999D01*
G75*
G02*
X108374999Y-72050000I249999J0D01*
G01*
X109025001Y-72050000D01*
G75*
G02*
X109275000Y-72299999I0J-249999D01*
G01*
X109275000Y-73200001D01*
G75*
G02*
X109025001Y-73450000I-249999J0D01*
G01*
X108374999Y-73450000D01*
G75*
G02*
X108125000Y-73200001I0J249999D01*
G01*
G37*
G36*
G01*
X110175000Y-73200001D02*
X110175000Y-72299999D01*
G75*
G02*
X110424999Y-72050000I249999J0D01*
G01*
X111075001Y-72050000D01*
G75*
G02*
X111325000Y-72299999I0J-249999D01*
G01*
X111325000Y-73200001D01*
G75*
G02*
X111075001Y-73450000I-249999J0D01*
G01*
X110424999Y-73450000D01*
G75*
G02*
X110175000Y-73200001I0J249999D01*
G01*
G37*
G36*
G01*
X134262500Y-55725000D02*
X134737500Y-55725000D01*
G75*
G02*
X134975000Y-55962500I0J-237500D01*
G01*
X134975000Y-56537500D01*
G75*
G02*
X134737500Y-56775000I-237500J0D01*
G01*
X134262500Y-56775000D01*
G75*
G02*
X134025000Y-56537500I0J237500D01*
G01*
X134025000Y-55962500D01*
G75*
G02*
X134262500Y-55725000I237500J0D01*
G01*
G37*
G36*
G01*
X134262500Y-57475000D02*
X134737500Y-57475000D01*
G75*
G02*
X134975000Y-57712500I0J-237500D01*
G01*
X134975000Y-58287500D01*
G75*
G02*
X134737500Y-58525000I-237500J0D01*
G01*
X134262500Y-58525000D01*
G75*
G02*
X134025000Y-58287500I0J237500D01*
G01*
X134025000Y-57712500D01*
G75*
G02*
X134262500Y-57475000I237500J0D01*
G01*
G37*
G36*
G01*
X178975000Y-103987500D02*
X178975000Y-103512500D01*
G75*
G02*
X179212500Y-103275000I237500J0D01*
G01*
X179787500Y-103275000D01*
G75*
G02*
X180025000Y-103512500I0J-237500D01*
G01*
X180025000Y-103987500D01*
G75*
G02*
X179787500Y-104225000I-237500J0D01*
G01*
X179212500Y-104225000D01*
G75*
G02*
X178975000Y-103987500I0J237500D01*
G01*
G37*
G36*
G01*
X180725000Y-103987500D02*
X180725000Y-103512500D01*
G75*
G02*
X180962500Y-103275000I237500J0D01*
G01*
X181537500Y-103275000D01*
G75*
G02*
X181775000Y-103512500I0J-237500D01*
G01*
X181775000Y-103987500D01*
G75*
G02*
X181537500Y-104225000I-237500J0D01*
G01*
X180962500Y-104225000D01*
G75*
G02*
X180725000Y-103987500I0J237500D01*
G01*
G37*
G36*
G01*
X178975000Y-101987500D02*
X178975000Y-101512500D01*
G75*
G02*
X179212500Y-101275000I237500J0D01*
G01*
X179787500Y-101275000D01*
G75*
G02*
X180025000Y-101512500I0J-237500D01*
G01*
X180025000Y-101987500D01*
G75*
G02*
X179787500Y-102225000I-237500J0D01*
G01*
X179212500Y-102225000D01*
G75*
G02*
X178975000Y-101987500I0J237500D01*
G01*
G37*
G36*
G01*
X180725000Y-101987500D02*
X180725000Y-101512500D01*
G75*
G02*
X180962500Y-101275000I237500J0D01*
G01*
X181537500Y-101275000D01*
G75*
G02*
X181775000Y-101512500I0J-237500D01*
G01*
X181775000Y-101987500D01*
G75*
G02*
X181537500Y-102225000I-237500J0D01*
G01*
X180962500Y-102225000D01*
G75*
G02*
X180725000Y-101987500I0J237500D01*
G01*
G37*
G36*
G01*
X178975000Y-99987500D02*
X178975000Y-99512500D01*
G75*
G02*
X179212500Y-99275000I237500J0D01*
G01*
X179787500Y-99275000D01*
G75*
G02*
X180025000Y-99512500I0J-237500D01*
G01*
X180025000Y-99987500D01*
G75*
G02*
X179787500Y-100225000I-237500J0D01*
G01*
X179212500Y-100225000D01*
G75*
G02*
X178975000Y-99987500I0J237500D01*
G01*
G37*
G36*
G01*
X180725000Y-99987500D02*
X180725000Y-99512500D01*
G75*
G02*
X180962500Y-99275000I237500J0D01*
G01*
X181537500Y-99275000D01*
G75*
G02*
X181775000Y-99512500I0J-237500D01*
G01*
X181775000Y-99987500D01*
G75*
G02*
X181537500Y-100225000I-237500J0D01*
G01*
X180962500Y-100225000D01*
G75*
G02*
X180725000Y-99987500I0J237500D01*
G01*
G37*
G36*
G01*
X178487500Y-90275000D02*
X178012500Y-90275000D01*
G75*
G02*
X177775000Y-90037500I0J237500D01*
G01*
X177775000Y-89462500D01*
G75*
G02*
X178012500Y-89225000I237500J0D01*
G01*
X178487500Y-89225000D01*
G75*
G02*
X178725000Y-89462500I0J-237500D01*
G01*
X178725000Y-90037500D01*
G75*
G02*
X178487500Y-90275000I-237500J0D01*
G01*
G37*
G36*
G01*
X178487500Y-88525000D02*
X178012500Y-88525000D01*
G75*
G02*
X177775000Y-88287500I0J237500D01*
G01*
X177775000Y-87712500D01*
G75*
G02*
X178012500Y-87475000I237500J0D01*
G01*
X178487500Y-87475000D01*
G75*
G02*
X178725000Y-87712500I0J-237500D01*
G01*
X178725000Y-88287500D01*
G75*
G02*
X178487500Y-88525000I-237500J0D01*
G01*
G37*
G36*
G01*
X176487500Y-90275000D02*
X176012500Y-90275000D01*
G75*
G02*
X175775000Y-90037500I0J237500D01*
G01*
X175775000Y-89462500D01*
G75*
G02*
X176012500Y-89225000I237500J0D01*
G01*
X176487500Y-89225000D01*
G75*
G02*
X176725000Y-89462500I0J-237500D01*
G01*
X176725000Y-90037500D01*
G75*
G02*
X176487500Y-90275000I-237500J0D01*
G01*
G37*
G36*
G01*
X176487500Y-88525000D02*
X176012500Y-88525000D01*
G75*
G02*
X175775000Y-88287500I0J237500D01*
G01*
X175775000Y-87712500D01*
G75*
G02*
X176012500Y-87475000I237500J0D01*
G01*
X176487500Y-87475000D01*
G75*
G02*
X176725000Y-87712500I0J-237500D01*
G01*
X176725000Y-88287500D01*
G75*
G02*
X176487500Y-88525000I-237500J0D01*
G01*
G37*
G36*
G01*
X174487500Y-90275000D02*
X174012500Y-90275000D01*
G75*
G02*
X173775000Y-90037500I0J237500D01*
G01*
X173775000Y-89462500D01*
G75*
G02*
X174012500Y-89225000I237500J0D01*
G01*
X174487500Y-89225000D01*
G75*
G02*
X174725000Y-89462500I0J-237500D01*
G01*
X174725000Y-90037500D01*
G75*
G02*
X174487500Y-90275000I-237500J0D01*
G01*
G37*
G36*
G01*
X174487500Y-88525000D02*
X174012500Y-88525000D01*
G75*
G02*
X173775000Y-88287500I0J237500D01*
G01*
X173775000Y-87712500D01*
G75*
G02*
X174012500Y-87475000I237500J0D01*
G01*
X174487500Y-87475000D01*
G75*
G02*
X174725000Y-87712500I0J-237500D01*
G01*
X174725000Y-88287500D01*
G75*
G02*
X174487500Y-88525000I-237500J0D01*
G01*
G37*
G36*
G01*
X188995000Y-104200000D02*
X188695000Y-104200000D01*
G75*
G02*
X188545000Y-104050000I0J150000D01*
G01*
X188545000Y-102400000D01*
G75*
G02*
X188695000Y-102250000I150000J0D01*
G01*
X188995000Y-102250000D01*
G75*
G02*
X189145000Y-102400000I0J-150000D01*
G01*
X189145000Y-104050000D01*
G75*
G02*
X188995000Y-104200000I-150000J0D01*
G01*
G37*
G36*
G01*
X190265000Y-104200000D02*
X189965000Y-104200000D01*
G75*
G02*
X189815000Y-104050000I0J150000D01*
G01*
X189815000Y-102400000D01*
G75*
G02*
X189965000Y-102250000I150000J0D01*
G01*
X190265000Y-102250000D01*
G75*
G02*
X190415000Y-102400000I0J-150000D01*
G01*
X190415000Y-104050000D01*
G75*
G02*
X190265000Y-104200000I-150000J0D01*
G01*
G37*
G36*
G01*
X191535000Y-104200000D02*
X191235000Y-104200000D01*
G75*
G02*
X191085000Y-104050000I0J150000D01*
G01*
X191085000Y-102400000D01*
G75*
G02*
X191235000Y-102250000I150000J0D01*
G01*
X191535000Y-102250000D01*
G75*
G02*
X191685000Y-102400000I0J-150000D01*
G01*
X191685000Y-104050000D01*
G75*
G02*
X191535000Y-104200000I-150000J0D01*
G01*
G37*
G36*
G01*
X192805000Y-104200000D02*
X192505000Y-104200000D01*
G75*
G02*
X192355000Y-104050000I0J150000D01*
G01*
X192355000Y-102400000D01*
G75*
G02*
X192505000Y-102250000I150000J0D01*
G01*
X192805000Y-102250000D01*
G75*
G02*
X192955000Y-102400000I0J-150000D01*
G01*
X192955000Y-104050000D01*
G75*
G02*
X192805000Y-104200000I-150000J0D01*
G01*
G37*
G36*
G01*
X192805000Y-99250000D02*
X192505000Y-99250000D01*
G75*
G02*
X192355000Y-99100000I0J150000D01*
G01*
X192355000Y-97450000D01*
G75*
G02*
X192505000Y-97300000I150000J0D01*
G01*
X192805000Y-97300000D01*
G75*
G02*
X192955000Y-97450000I0J-150000D01*
G01*
X192955000Y-99100000D01*
G75*
G02*
X192805000Y-99250000I-150000J0D01*
G01*
G37*
G36*
G01*
X191535000Y-99250000D02*
X191235000Y-99250000D01*
G75*
G02*
X191085000Y-99100000I0J150000D01*
G01*
X191085000Y-97450000D01*
G75*
G02*
X191235000Y-97300000I150000J0D01*
G01*
X191535000Y-97300000D01*
G75*
G02*
X191685000Y-97450000I0J-150000D01*
G01*
X191685000Y-99100000D01*
G75*
G02*
X191535000Y-99250000I-150000J0D01*
G01*
G37*
G36*
G01*
X190265000Y-99250000D02*
X189965000Y-99250000D01*
G75*
G02*
X189815000Y-99100000I0J150000D01*
G01*
X189815000Y-97450000D01*
G75*
G02*
X189965000Y-97300000I150000J0D01*
G01*
X190265000Y-97300000D01*
G75*
G02*
X190415000Y-97450000I0J-150000D01*
G01*
X190415000Y-99100000D01*
G75*
G02*
X190265000Y-99250000I-150000J0D01*
G01*
G37*
G36*
G01*
X188995000Y-99250000D02*
X188695000Y-99250000D01*
G75*
G02*
X188545000Y-99100000I0J150000D01*
G01*
X188545000Y-97450000D01*
G75*
G02*
X188695000Y-97300000I150000J0D01*
G01*
X188995000Y-97300000D01*
G75*
G02*
X189145000Y-97450000I0J-150000D01*
G01*
X189145000Y-99100000D01*
G75*
G02*
X188995000Y-99250000I-150000J0D01*
G01*
G37*
G36*
G01*
X197200001Y-102825000D02*
X196299999Y-102825000D01*
G75*
G02*
X196050000Y-102575001I0J249999D01*
G01*
X196050000Y-101924999D01*
G75*
G02*
X196299999Y-101675000I249999J0D01*
G01*
X197200001Y-101675000D01*
G75*
G02*
X197450000Y-101924999I0J-249999D01*
G01*
X197450000Y-102575001D01*
G75*
G02*
X197200001Y-102825000I-249999J0D01*
G01*
G37*
G36*
G01*
X197200001Y-100775000D02*
X196299999Y-100775000D01*
G75*
G02*
X196050000Y-100525001I0J249999D01*
G01*
X196050000Y-99874999D01*
G75*
G02*
X196299999Y-99625000I249999J0D01*
G01*
X197200001Y-99625000D01*
G75*
G02*
X197450000Y-99874999I0J-249999D01*
G01*
X197450000Y-100525001D01*
G75*
G02*
X197200001Y-100775000I-249999J0D01*
G01*
G37*
G36*
G01*
X193950001Y-134100000D02*
X193049999Y-134100000D01*
G75*
G02*
X192800000Y-133850001I0J249999D01*
G01*
X192800000Y-133199999D01*
G75*
G02*
X193049999Y-132950000I249999J0D01*
G01*
X193950001Y-132950000D01*
G75*
G02*
X194200000Y-133199999I0J-249999D01*
G01*
X194200000Y-133850001D01*
G75*
G02*
X193950001Y-134100000I-249999J0D01*
G01*
G37*
G36*
G01*
X193950001Y-132050000D02*
X193049999Y-132050000D01*
G75*
G02*
X192800000Y-131800001I0J249999D01*
G01*
X192800000Y-131149999D01*
G75*
G02*
X193049999Y-130900000I249999J0D01*
G01*
X193950001Y-130900000D01*
G75*
G02*
X194200000Y-131149999I0J-249999D01*
G01*
X194200000Y-131800001D01*
G75*
G02*
X193950001Y-132050000I-249999J0D01*
G01*
G37*
D10*
X197250000Y-119000000D03*
X197250000Y-110500000D03*
X197250000Y-114750000D03*
X197250000Y-90000000D03*
X197250000Y-81500000D03*
X197250000Y-85750000D03*
G36*
G01*
X191950001Y-95850000D02*
X191049999Y-95850000D01*
G75*
G02*
X190800000Y-95600001I0J249999D01*
G01*
X190800000Y-94949999D01*
G75*
G02*
X191049999Y-94700000I249999J0D01*
G01*
X191950001Y-94700000D01*
G75*
G02*
X192200000Y-94949999I0J-249999D01*
G01*
X192200000Y-95600001D01*
G75*
G02*
X191950001Y-95850000I-249999J0D01*
G01*
G37*
G36*
G01*
X191950001Y-93800000D02*
X191049999Y-93800000D01*
G75*
G02*
X190800000Y-93550001I0J249999D01*
G01*
X190800000Y-92899999D01*
G75*
G02*
X191049999Y-92650000I249999J0D01*
G01*
X191950001Y-92650000D01*
G75*
G02*
X192200000Y-92899999I0J-249999D01*
G01*
X192200000Y-93550001D01*
G75*
G02*
X191950001Y-93800000I-249999J0D01*
G01*
G37*
G36*
G01*
X188299999Y-105625000D02*
X189200001Y-105625000D01*
G75*
G02*
X189450000Y-105874999I0J-249999D01*
G01*
X189450000Y-106525001D01*
G75*
G02*
X189200001Y-106775000I-249999J0D01*
G01*
X188299999Y-106775000D01*
G75*
G02*
X188050000Y-106525001I0J249999D01*
G01*
X188050000Y-105874999D01*
G75*
G02*
X188299999Y-105625000I249999J0D01*
G01*
G37*
G36*
G01*
X188299999Y-107675000D02*
X189200001Y-107675000D01*
G75*
G02*
X189450000Y-107924999I0J-249999D01*
G01*
X189450000Y-108575001D01*
G75*
G02*
X189200001Y-108825000I-249999J0D01*
G01*
X188299999Y-108825000D01*
G75*
G02*
X188050000Y-108575001I0J249999D01*
G01*
X188050000Y-107924999D01*
G75*
G02*
X188299999Y-107675000I249999J0D01*
G01*
G37*
G36*
G01*
X157775000Y-132390000D02*
X157775000Y-132690000D01*
G75*
G02*
X157625000Y-132840000I-150000J0D01*
G01*
X155975000Y-132840000D01*
G75*
G02*
X155825000Y-132690000I0J150000D01*
G01*
X155825000Y-132390000D01*
G75*
G02*
X155975000Y-132240000I150000J0D01*
G01*
X157625000Y-132240000D01*
G75*
G02*
X157775000Y-132390000I0J-150000D01*
G01*
G37*
G36*
G01*
X157775000Y-131120000D02*
X157775000Y-131420000D01*
G75*
G02*
X157625000Y-131570000I-150000J0D01*
G01*
X155975000Y-131570000D01*
G75*
G02*
X155825000Y-131420000I0J150000D01*
G01*
X155825000Y-131120000D01*
G75*
G02*
X155975000Y-130970000I150000J0D01*
G01*
X157625000Y-130970000D01*
G75*
G02*
X157775000Y-131120000I0J-150000D01*
G01*
G37*
G36*
G01*
X157775000Y-129850000D02*
X157775000Y-130150000D01*
G75*
G02*
X157625000Y-130300000I-150000J0D01*
G01*
X155975000Y-130300000D01*
G75*
G02*
X155825000Y-130150000I0J150000D01*
G01*
X155825000Y-129850000D01*
G75*
G02*
X155975000Y-129700000I150000J0D01*
G01*
X157625000Y-129700000D01*
G75*
G02*
X157775000Y-129850000I0J-150000D01*
G01*
G37*
G36*
G01*
X157775000Y-128580000D02*
X157775000Y-128880000D01*
G75*
G02*
X157625000Y-129030000I-150000J0D01*
G01*
X155975000Y-129030000D01*
G75*
G02*
X155825000Y-128880000I0J150000D01*
G01*
X155825000Y-128580000D01*
G75*
G02*
X155975000Y-128430000I150000J0D01*
G01*
X157625000Y-128430000D01*
G75*
G02*
X157775000Y-128580000I0J-150000D01*
G01*
G37*
G36*
G01*
X152825000Y-128580000D02*
X152825000Y-128880000D01*
G75*
G02*
X152675000Y-129030000I-150000J0D01*
G01*
X151025000Y-129030000D01*
G75*
G02*
X150875000Y-128880000I0J150000D01*
G01*
X150875000Y-128580000D01*
G75*
G02*
X151025000Y-128430000I150000J0D01*
G01*
X152675000Y-128430000D01*
G75*
G02*
X152825000Y-128580000I0J-150000D01*
G01*
G37*
G36*
G01*
X152825000Y-129850000D02*
X152825000Y-130150000D01*
G75*
G02*
X152675000Y-130300000I-150000J0D01*
G01*
X151025000Y-130300000D01*
G75*
G02*
X150875000Y-130150000I0J150000D01*
G01*
X150875000Y-129850000D01*
G75*
G02*
X151025000Y-129700000I150000J0D01*
G01*
X152675000Y-129700000D01*
G75*
G02*
X152825000Y-129850000I0J-150000D01*
G01*
G37*
G36*
G01*
X152825000Y-131120000D02*
X152825000Y-131420000D01*
G75*
G02*
X152675000Y-131570000I-150000J0D01*
G01*
X151025000Y-131570000D01*
G75*
G02*
X150875000Y-131420000I0J150000D01*
G01*
X150875000Y-131120000D01*
G75*
G02*
X151025000Y-130970000I150000J0D01*
G01*
X152675000Y-130970000D01*
G75*
G02*
X152825000Y-131120000I0J-150000D01*
G01*
G37*
G36*
G01*
X152825000Y-132390000D02*
X152825000Y-132690000D01*
G75*
G02*
X152675000Y-132840000I-150000J0D01*
G01*
X151025000Y-132840000D01*
G75*
G02*
X150875000Y-132690000I0J150000D01*
G01*
X150875000Y-132390000D01*
G75*
G02*
X151025000Y-132240000I150000J0D01*
G01*
X152675000Y-132240000D01*
G75*
G02*
X152825000Y-132390000I0J-150000D01*
G01*
G37*
D13*
G36*
X178408500Y-127400000D02*
G01*
X179258500Y-128000000D01*
X179258500Y-129000000D01*
X178408500Y-129600000D01*
X178408500Y-127400000D01*
G37*
D14*
X174686500Y-127000000D03*
D15*
X174833000Y-128500000D03*
D14*
X174686500Y-130000000D03*
D16*
X177500000Y-128500000D03*
D13*
G36*
X176590300Y-129600000D02*
G01*
X175590300Y-128900000D01*
X175590300Y-128100000D01*
X176590300Y-127400000D01*
X176590300Y-129600000D01*
G37*
G36*
G01*
X160325000Y-58380000D02*
X160325000Y-58080000D01*
G75*
G02*
X160475000Y-57930000I150000J0D01*
G01*
X162125000Y-57930000D01*
G75*
G02*
X162275000Y-58080000I0J-150000D01*
G01*
X162275000Y-58380000D01*
G75*
G02*
X162125000Y-58530000I-150000J0D01*
G01*
X160475000Y-58530000D01*
G75*
G02*
X160325000Y-58380000I0J150000D01*
G01*
G37*
G36*
G01*
X160325000Y-59650000D02*
X160325000Y-59350000D01*
G75*
G02*
X160475000Y-59200000I150000J0D01*
G01*
X162125000Y-59200000D01*
G75*
G02*
X162275000Y-59350000I0J-150000D01*
G01*
X162275000Y-59650000D01*
G75*
G02*
X162125000Y-59800000I-150000J0D01*
G01*
X160475000Y-59800000D01*
G75*
G02*
X160325000Y-59650000I0J150000D01*
G01*
G37*
G36*
G01*
X160325000Y-60920000D02*
X160325000Y-60620000D01*
G75*
G02*
X160475000Y-60470000I150000J0D01*
G01*
X162125000Y-60470000D01*
G75*
G02*
X162275000Y-60620000I0J-150000D01*
G01*
X162275000Y-60920000D01*
G75*
G02*
X162125000Y-61070000I-150000J0D01*
G01*
X160475000Y-61070000D01*
G75*
G02*
X160325000Y-60920000I0J150000D01*
G01*
G37*
G36*
G01*
X160325000Y-62190000D02*
X160325000Y-61890000D01*
G75*
G02*
X160475000Y-61740000I150000J0D01*
G01*
X162125000Y-61740000D01*
G75*
G02*
X162275000Y-61890000I0J-150000D01*
G01*
X162275000Y-62190000D01*
G75*
G02*
X162125000Y-62340000I-150000J0D01*
G01*
X160475000Y-62340000D01*
G75*
G02*
X160325000Y-62190000I0J150000D01*
G01*
G37*
G36*
G01*
X165275000Y-62190000D02*
X165275000Y-61890000D01*
G75*
G02*
X165425000Y-61740000I150000J0D01*
G01*
X167075000Y-61740000D01*
G75*
G02*
X167225000Y-61890000I0J-150000D01*
G01*
X167225000Y-62190000D01*
G75*
G02*
X167075000Y-62340000I-150000J0D01*
G01*
X165425000Y-62340000D01*
G75*
G02*
X165275000Y-62190000I0J150000D01*
G01*
G37*
G36*
G01*
X165275000Y-60920000D02*
X165275000Y-60620000D01*
G75*
G02*
X165425000Y-60470000I150000J0D01*
G01*
X167075000Y-60470000D01*
G75*
G02*
X167225000Y-60620000I0J-150000D01*
G01*
X167225000Y-60920000D01*
G75*
G02*
X167075000Y-61070000I-150000J0D01*
G01*
X165425000Y-61070000D01*
G75*
G02*
X165275000Y-60920000I0J150000D01*
G01*
G37*
G36*
G01*
X165275000Y-59650000D02*
X165275000Y-59350000D01*
G75*
G02*
X165425000Y-59200000I150000J0D01*
G01*
X167075000Y-59200000D01*
G75*
G02*
X167225000Y-59350000I0J-150000D01*
G01*
X167225000Y-59650000D01*
G75*
G02*
X167075000Y-59800000I-150000J0D01*
G01*
X165425000Y-59800000D01*
G75*
G02*
X165275000Y-59650000I0J150000D01*
G01*
G37*
G36*
G01*
X165275000Y-58380000D02*
X165275000Y-58080000D01*
G75*
G02*
X165425000Y-57930000I150000J0D01*
G01*
X167075000Y-57930000D01*
G75*
G02*
X167225000Y-58080000I0J-150000D01*
G01*
X167225000Y-58380000D01*
G75*
G02*
X167075000Y-58530000I-150000J0D01*
G01*
X165425000Y-58530000D01*
G75*
G02*
X165275000Y-58380000I0J150000D01*
G01*
G37*
G36*
G01*
X156900000Y-124450000D02*
X156600000Y-124450000D01*
G75*
G02*
X156450000Y-124300000I0J150000D01*
G01*
X156450000Y-122650000D01*
G75*
G02*
X156600000Y-122500000I150000J0D01*
G01*
X156900000Y-122500000D01*
G75*
G02*
X157050000Y-122650000I0J-150000D01*
G01*
X157050000Y-124300000D01*
G75*
G02*
X156900000Y-124450000I-150000J0D01*
G01*
G37*
G36*
G01*
X158170000Y-124450000D02*
X157870000Y-124450000D01*
G75*
G02*
X157720000Y-124300000I0J150000D01*
G01*
X157720000Y-122650000D01*
G75*
G02*
X157870000Y-122500000I150000J0D01*
G01*
X158170000Y-122500000D01*
G75*
G02*
X158320000Y-122650000I0J-150000D01*
G01*
X158320000Y-124300000D01*
G75*
G02*
X158170000Y-124450000I-150000J0D01*
G01*
G37*
G36*
G01*
X159440000Y-124450000D02*
X159140000Y-124450000D01*
G75*
G02*
X158990000Y-124300000I0J150000D01*
G01*
X158990000Y-122650000D01*
G75*
G02*
X159140000Y-122500000I150000J0D01*
G01*
X159440000Y-122500000D01*
G75*
G02*
X159590000Y-122650000I0J-150000D01*
G01*
X159590000Y-124300000D01*
G75*
G02*
X159440000Y-124450000I-150000J0D01*
G01*
G37*
G36*
G01*
X160710000Y-124450000D02*
X160410000Y-124450000D01*
G75*
G02*
X160260000Y-124300000I0J150000D01*
G01*
X160260000Y-122650000D01*
G75*
G02*
X160410000Y-122500000I150000J0D01*
G01*
X160710000Y-122500000D01*
G75*
G02*
X160860000Y-122650000I0J-150000D01*
G01*
X160860000Y-124300000D01*
G75*
G02*
X160710000Y-124450000I-150000J0D01*
G01*
G37*
G36*
G01*
X160710000Y-119500000D02*
X160410000Y-119500000D01*
G75*
G02*
X160260000Y-119350000I0J150000D01*
G01*
X160260000Y-117700000D01*
G75*
G02*
X160410000Y-117550000I150000J0D01*
G01*
X160710000Y-117550000D01*
G75*
G02*
X160860000Y-117700000I0J-150000D01*
G01*
X160860000Y-119350000D01*
G75*
G02*
X160710000Y-119500000I-150000J0D01*
G01*
G37*
G36*
G01*
X159440000Y-119500000D02*
X159140000Y-119500000D01*
G75*
G02*
X158990000Y-119350000I0J150000D01*
G01*
X158990000Y-117700000D01*
G75*
G02*
X159140000Y-117550000I150000J0D01*
G01*
X159440000Y-117550000D01*
G75*
G02*
X159590000Y-117700000I0J-150000D01*
G01*
X159590000Y-119350000D01*
G75*
G02*
X159440000Y-119500000I-150000J0D01*
G01*
G37*
G36*
G01*
X158170000Y-119500000D02*
X157870000Y-119500000D01*
G75*
G02*
X157720000Y-119350000I0J150000D01*
G01*
X157720000Y-117700000D01*
G75*
G02*
X157870000Y-117550000I150000J0D01*
G01*
X158170000Y-117550000D01*
G75*
G02*
X158320000Y-117700000I0J-150000D01*
G01*
X158320000Y-119350000D01*
G75*
G02*
X158170000Y-119500000I-150000J0D01*
G01*
G37*
G36*
G01*
X156900000Y-119500000D02*
X156600000Y-119500000D01*
G75*
G02*
X156450000Y-119350000I0J150000D01*
G01*
X156450000Y-117700000D01*
G75*
G02*
X156600000Y-117550000I150000J0D01*
G01*
X156900000Y-117550000D01*
G75*
G02*
X157050000Y-117700000I0J-150000D01*
G01*
X157050000Y-119350000D01*
G75*
G02*
X156900000Y-119500000I-150000J0D01*
G01*
G37*
G36*
G01*
X128050000Y-115245000D02*
X128050000Y-114945000D01*
G75*
G02*
X128200000Y-114795000I150000J0D01*
G01*
X129850000Y-114795000D01*
G75*
G02*
X130000000Y-114945000I0J-150000D01*
G01*
X130000000Y-115245000D01*
G75*
G02*
X129850000Y-115395000I-150000J0D01*
G01*
X128200000Y-115395000D01*
G75*
G02*
X128050000Y-115245000I0J150000D01*
G01*
G37*
G36*
G01*
X128050000Y-116515000D02*
X128050000Y-116215000D01*
G75*
G02*
X128200000Y-116065000I150000J0D01*
G01*
X129850000Y-116065000D01*
G75*
G02*
X130000000Y-116215000I0J-150000D01*
G01*
X130000000Y-116515000D01*
G75*
G02*
X129850000Y-116665000I-150000J0D01*
G01*
X128200000Y-116665000D01*
G75*
G02*
X128050000Y-116515000I0J150000D01*
G01*
G37*
G36*
G01*
X128050000Y-117785000D02*
X128050000Y-117485000D01*
G75*
G02*
X128200000Y-117335000I150000J0D01*
G01*
X129850000Y-117335000D01*
G75*
G02*
X130000000Y-117485000I0J-150000D01*
G01*
X130000000Y-117785000D01*
G75*
G02*
X129850000Y-117935000I-150000J0D01*
G01*
X128200000Y-117935000D01*
G75*
G02*
X128050000Y-117785000I0J150000D01*
G01*
G37*
G36*
G01*
X128050000Y-119055000D02*
X128050000Y-118755000D01*
G75*
G02*
X128200000Y-118605000I150000J0D01*
G01*
X129850000Y-118605000D01*
G75*
G02*
X130000000Y-118755000I0J-150000D01*
G01*
X130000000Y-119055000D01*
G75*
G02*
X129850000Y-119205000I-150000J0D01*
G01*
X128200000Y-119205000D01*
G75*
G02*
X128050000Y-119055000I0J150000D01*
G01*
G37*
G36*
G01*
X133000000Y-119055000D02*
X133000000Y-118755000D01*
G75*
G02*
X133150000Y-118605000I150000J0D01*
G01*
X134800000Y-118605000D01*
G75*
G02*
X134950000Y-118755000I0J-150000D01*
G01*
X134950000Y-119055000D01*
G75*
G02*
X134800000Y-119205000I-150000J0D01*
G01*
X133150000Y-119205000D01*
G75*
G02*
X133000000Y-119055000I0J150000D01*
G01*
G37*
G36*
G01*
X133000000Y-117785000D02*
X133000000Y-117485000D01*
G75*
G02*
X133150000Y-117335000I150000J0D01*
G01*
X134800000Y-117335000D01*
G75*
G02*
X134950000Y-117485000I0J-150000D01*
G01*
X134950000Y-117785000D01*
G75*
G02*
X134800000Y-117935000I-150000J0D01*
G01*
X133150000Y-117935000D01*
G75*
G02*
X133000000Y-117785000I0J150000D01*
G01*
G37*
G36*
G01*
X133000000Y-116515000D02*
X133000000Y-116215000D01*
G75*
G02*
X133150000Y-116065000I150000J0D01*
G01*
X134800000Y-116065000D01*
G75*
G02*
X134950000Y-116215000I0J-150000D01*
G01*
X134950000Y-116515000D01*
G75*
G02*
X134800000Y-116665000I-150000J0D01*
G01*
X133150000Y-116665000D01*
G75*
G02*
X133000000Y-116515000I0J150000D01*
G01*
G37*
G36*
G01*
X133000000Y-115245000D02*
X133000000Y-114945000D01*
G75*
G02*
X133150000Y-114795000I150000J0D01*
G01*
X134800000Y-114795000D01*
G75*
G02*
X134950000Y-114945000I0J-150000D01*
G01*
X134950000Y-115245000D01*
G75*
G02*
X134800000Y-115395000I-150000J0D01*
G01*
X133150000Y-115395000D01*
G75*
G02*
X133000000Y-115245000I0J150000D01*
G01*
G37*
G36*
G01*
X116200000Y-105140000D02*
X116200000Y-105440000D01*
G75*
G02*
X116050000Y-105590000I-150000J0D01*
G01*
X114400000Y-105590000D01*
G75*
G02*
X114250000Y-105440000I0J150000D01*
G01*
X114250000Y-105140000D01*
G75*
G02*
X114400000Y-104990000I150000J0D01*
G01*
X116050000Y-104990000D01*
G75*
G02*
X116200000Y-105140000I0J-150000D01*
G01*
G37*
G36*
G01*
X116200000Y-103870000D02*
X116200000Y-104170000D01*
G75*
G02*
X116050000Y-104320000I-150000J0D01*
G01*
X114400000Y-104320000D01*
G75*
G02*
X114250000Y-104170000I0J150000D01*
G01*
X114250000Y-103870000D01*
G75*
G02*
X114400000Y-103720000I150000J0D01*
G01*
X116050000Y-103720000D01*
G75*
G02*
X116200000Y-103870000I0J-150000D01*
G01*
G37*
G36*
G01*
X116200000Y-102600000D02*
X116200000Y-102900000D01*
G75*
G02*
X116050000Y-103050000I-150000J0D01*
G01*
X114400000Y-103050000D01*
G75*
G02*
X114250000Y-102900000I0J150000D01*
G01*
X114250000Y-102600000D01*
G75*
G02*
X114400000Y-102450000I150000J0D01*
G01*
X116050000Y-102450000D01*
G75*
G02*
X116200000Y-102600000I0J-150000D01*
G01*
G37*
G36*
G01*
X116200000Y-101330000D02*
X116200000Y-101630000D01*
G75*
G02*
X116050000Y-101780000I-150000J0D01*
G01*
X114400000Y-101780000D01*
G75*
G02*
X114250000Y-101630000I0J150000D01*
G01*
X114250000Y-101330000D01*
G75*
G02*
X114400000Y-101180000I150000J0D01*
G01*
X116050000Y-101180000D01*
G75*
G02*
X116200000Y-101330000I0J-150000D01*
G01*
G37*
G36*
G01*
X111250000Y-101330000D02*
X111250000Y-101630000D01*
G75*
G02*
X111100000Y-101780000I-150000J0D01*
G01*
X109450000Y-101780000D01*
G75*
G02*
X109300000Y-101630000I0J150000D01*
G01*
X109300000Y-101330000D01*
G75*
G02*
X109450000Y-101180000I150000J0D01*
G01*
X111100000Y-101180000D01*
G75*
G02*
X111250000Y-101330000I0J-150000D01*
G01*
G37*
G36*
G01*
X111250000Y-102600000D02*
X111250000Y-102900000D01*
G75*
G02*
X111100000Y-103050000I-150000J0D01*
G01*
X109450000Y-103050000D01*
G75*
G02*
X109300000Y-102900000I0J150000D01*
G01*
X109300000Y-102600000D01*
G75*
G02*
X109450000Y-102450000I150000J0D01*
G01*
X111100000Y-102450000D01*
G75*
G02*
X111250000Y-102600000I0J-150000D01*
G01*
G37*
G36*
G01*
X111250000Y-103870000D02*
X111250000Y-104170000D01*
G75*
G02*
X111100000Y-104320000I-150000J0D01*
G01*
X109450000Y-104320000D01*
G75*
G02*
X109300000Y-104170000I0J150000D01*
G01*
X109300000Y-103870000D01*
G75*
G02*
X109450000Y-103720000I150000J0D01*
G01*
X111100000Y-103720000D01*
G75*
G02*
X111250000Y-103870000I0J-150000D01*
G01*
G37*
G36*
G01*
X111250000Y-105140000D02*
X111250000Y-105440000D01*
G75*
G02*
X111100000Y-105590000I-150000J0D01*
G01*
X109450000Y-105590000D01*
G75*
G02*
X109300000Y-105440000I0J150000D01*
G01*
X109300000Y-105140000D01*
G75*
G02*
X109450000Y-104990000I150000J0D01*
G01*
X111100000Y-104990000D01*
G75*
G02*
X111250000Y-105140000I0J-150000D01*
G01*
G37*
G36*
G01*
X122600000Y-121737500D02*
X122600000Y-121262500D01*
G75*
G02*
X122837500Y-121025000I237500J0D01*
G01*
X123412500Y-121025000D01*
G75*
G02*
X123650000Y-121262500I0J-237500D01*
G01*
X123650000Y-121737500D01*
G75*
G02*
X123412500Y-121975000I-237500J0D01*
G01*
X122837500Y-121975000D01*
G75*
G02*
X122600000Y-121737500I0J237500D01*
G01*
G37*
G36*
G01*
X124350000Y-121737500D02*
X124350000Y-121262500D01*
G75*
G02*
X124587500Y-121025000I237500J0D01*
G01*
X125162500Y-121025000D01*
G75*
G02*
X125400000Y-121262500I0J-237500D01*
G01*
X125400000Y-121737500D01*
G75*
G02*
X125162500Y-121975000I-237500J0D01*
G01*
X124587500Y-121975000D01*
G75*
G02*
X124350000Y-121737500I0J237500D01*
G01*
G37*
G36*
G01*
X160900000Y-65700001D02*
X160900000Y-64799999D01*
G75*
G02*
X161149999Y-64550000I249999J0D01*
G01*
X161800001Y-64550000D01*
G75*
G02*
X162050000Y-64799999I0J-249999D01*
G01*
X162050000Y-65700001D01*
G75*
G02*
X161800001Y-65950000I-249999J0D01*
G01*
X161149999Y-65950000D01*
G75*
G02*
X160900000Y-65700001I0J249999D01*
G01*
G37*
G36*
G01*
X162950000Y-65700001D02*
X162950000Y-64799999D01*
G75*
G02*
X163199999Y-64550000I249999J0D01*
G01*
X163850001Y-64550000D01*
G75*
G02*
X164100000Y-64799999I0J-249999D01*
G01*
X164100000Y-65700001D01*
G75*
G02*
X163850001Y-65950000I-249999J0D01*
G01*
X163199999Y-65950000D01*
G75*
G02*
X162950000Y-65700001I0J249999D01*
G01*
G37*
G36*
G01*
X147549999Y-128175000D02*
X148450001Y-128175000D01*
G75*
G02*
X148700000Y-128424999I0J-249999D01*
G01*
X148700000Y-129075001D01*
G75*
G02*
X148450001Y-129325000I-249999J0D01*
G01*
X147549999Y-129325000D01*
G75*
G02*
X147300000Y-129075001I0J249999D01*
G01*
X147300000Y-128424999D01*
G75*
G02*
X147549999Y-128175000I249999J0D01*
G01*
G37*
G36*
G01*
X147549999Y-130225000D02*
X148450001Y-130225000D01*
G75*
G02*
X148700000Y-130474999I0J-249999D01*
G01*
X148700000Y-131125001D01*
G75*
G02*
X148450001Y-131375000I-249999J0D01*
G01*
X147549999Y-131375000D01*
G75*
G02*
X147300000Y-131125001I0J249999D01*
G01*
X147300000Y-130474999D01*
G75*
G02*
X147549999Y-130225000I249999J0D01*
G01*
G37*
G36*
G01*
X166225000Y-130237500D02*
X166225000Y-129762500D01*
G75*
G02*
X166462500Y-129525000I237500J0D01*
G01*
X167037500Y-129525000D01*
G75*
G02*
X167275000Y-129762500I0J-237500D01*
G01*
X167275000Y-130237500D01*
G75*
G02*
X167037500Y-130475000I-237500J0D01*
G01*
X166462500Y-130475000D01*
G75*
G02*
X166225000Y-130237500I0J237500D01*
G01*
G37*
G36*
G01*
X167975000Y-130237500D02*
X167975000Y-129762500D01*
G75*
G02*
X168212500Y-129525000I237500J0D01*
G01*
X168787500Y-129525000D01*
G75*
G02*
X169025000Y-129762500I0J-237500D01*
G01*
X169025000Y-130237500D01*
G75*
G02*
X168787500Y-130475000I-237500J0D01*
G01*
X168212500Y-130475000D01*
G75*
G02*
X167975000Y-130237500I0J237500D01*
G01*
G37*
G36*
G01*
X167900000Y-66450001D02*
X167900000Y-65549999D01*
G75*
G02*
X168149999Y-65300000I249999J0D01*
G01*
X168800001Y-65300000D01*
G75*
G02*
X169050000Y-65549999I0J-249999D01*
G01*
X169050000Y-66450001D01*
G75*
G02*
X168800001Y-66700000I-249999J0D01*
G01*
X168149999Y-66700000D01*
G75*
G02*
X167900000Y-66450001I0J249999D01*
G01*
G37*
G36*
G01*
X169950000Y-66450001D02*
X169950000Y-65549999D01*
G75*
G02*
X170199999Y-65300000I249999J0D01*
G01*
X170850001Y-65300000D01*
G75*
G02*
X171100000Y-65549999I0J-249999D01*
G01*
X171100000Y-66450001D01*
G75*
G02*
X170850001Y-66700000I-249999J0D01*
G01*
X170199999Y-66700000D01*
G75*
G02*
X169950000Y-66450001I0J249999D01*
G01*
G37*
G36*
G01*
X168400000Y-119950001D02*
X168400000Y-119049999D01*
G75*
G02*
X168649999Y-118800000I249999J0D01*
G01*
X169300001Y-118800000D01*
G75*
G02*
X169550000Y-119049999I0J-249999D01*
G01*
X169550000Y-119950001D01*
G75*
G02*
X169300001Y-120200000I-249999J0D01*
G01*
X168649999Y-120200000D01*
G75*
G02*
X168400000Y-119950001I0J249999D01*
G01*
G37*
G36*
G01*
X170450000Y-119950001D02*
X170450000Y-119049999D01*
G75*
G02*
X170699999Y-118800000I249999J0D01*
G01*
X171350001Y-118800000D01*
G75*
G02*
X171600000Y-119049999I0J-249999D01*
G01*
X171600000Y-119950001D01*
G75*
G02*
X171350001Y-120200000I-249999J0D01*
G01*
X170699999Y-120200000D01*
G75*
G02*
X170450000Y-119950001I0J249999D01*
G01*
G37*
G36*
G01*
X131425000Y-122950001D02*
X131425000Y-122049999D01*
G75*
G02*
X131674999Y-121800000I249999J0D01*
G01*
X132325001Y-121800000D01*
G75*
G02*
X132575000Y-122049999I0J-249999D01*
G01*
X132575000Y-122950001D01*
G75*
G02*
X132325001Y-123200000I-249999J0D01*
G01*
X131674999Y-123200000D01*
G75*
G02*
X131425000Y-122950001I0J249999D01*
G01*
G37*
G36*
G01*
X133475000Y-122950001D02*
X133475000Y-122049999D01*
G75*
G02*
X133724999Y-121800000I249999J0D01*
G01*
X134375001Y-121800000D01*
G75*
G02*
X134625000Y-122049999I0J-249999D01*
G01*
X134625000Y-122950001D01*
G75*
G02*
X134375001Y-123200000I-249999J0D01*
G01*
X133724999Y-123200000D01*
G75*
G02*
X133475000Y-122950001I0J249999D01*
G01*
G37*
G36*
G01*
X116125000Y-108799999D02*
X116125000Y-109700001D01*
G75*
G02*
X115875001Y-109950000I-249999J0D01*
G01*
X115224999Y-109950000D01*
G75*
G02*
X114975000Y-109700001I0J249999D01*
G01*
X114975000Y-108799999D01*
G75*
G02*
X115224999Y-108550000I249999J0D01*
G01*
X115875001Y-108550000D01*
G75*
G02*
X116125000Y-108799999I0J-249999D01*
G01*
G37*
G36*
G01*
X114075000Y-108799999D02*
X114075000Y-109700001D01*
G75*
G02*
X113825001Y-109950000I-249999J0D01*
G01*
X113174999Y-109950000D01*
G75*
G02*
X112925000Y-109700001I0J249999D01*
G01*
X112925000Y-108799999D01*
G75*
G02*
X113174999Y-108550000I249999J0D01*
G01*
X113825001Y-108550000D01*
G75*
G02*
X114075000Y-108799999I0J-249999D01*
G01*
G37*
G36*
G01*
X153825000Y-117299999D02*
X153825000Y-118200001D01*
G75*
G02*
X153575001Y-118450000I-249999J0D01*
G01*
X152924999Y-118450000D01*
G75*
G02*
X152675000Y-118200001I0J249999D01*
G01*
X152675000Y-117299999D01*
G75*
G02*
X152924999Y-117050000I249999J0D01*
G01*
X153575001Y-117050000D01*
G75*
G02*
X153825000Y-117299999I0J-249999D01*
G01*
G37*
G36*
G01*
X151775000Y-117299999D02*
X151775000Y-118200001D01*
G75*
G02*
X151525001Y-118450000I-249999J0D01*
G01*
X150874999Y-118450000D01*
G75*
G02*
X150625000Y-118200001I0J249999D01*
G01*
X150625000Y-117299999D01*
G75*
G02*
X150874999Y-117050000I249999J0D01*
G01*
X151525001Y-117050000D01*
G75*
G02*
X151775000Y-117299999I0J-249999D01*
G01*
G37*
G36*
G01*
X120950001Y-144075000D02*
X120049999Y-144075000D01*
G75*
G02*
X119800000Y-143825001I0J249999D01*
G01*
X119800000Y-143174999D01*
G75*
G02*
X120049999Y-142925000I249999J0D01*
G01*
X120950001Y-142925000D01*
G75*
G02*
X121200000Y-143174999I0J-249999D01*
G01*
X121200000Y-143825001D01*
G75*
G02*
X120950001Y-144075000I-249999J0D01*
G01*
G37*
G36*
G01*
X120950001Y-142025000D02*
X120049999Y-142025000D01*
G75*
G02*
X119800000Y-141775001I0J249999D01*
G01*
X119800000Y-141124999D01*
G75*
G02*
X120049999Y-140875000I249999J0D01*
G01*
X120950001Y-140875000D01*
G75*
G02*
X121200000Y-141124999I0J-249999D01*
G01*
X121200000Y-141775001D01*
G75*
G02*
X120950001Y-142025000I-249999J0D01*
G01*
G37*
G36*
G01*
X122950001Y-109575000D02*
X122049999Y-109575000D01*
G75*
G02*
X121800000Y-109325001I0J249999D01*
G01*
X121800000Y-108674999D01*
G75*
G02*
X122049999Y-108425000I249999J0D01*
G01*
X122950001Y-108425000D01*
G75*
G02*
X123200000Y-108674999I0J-249999D01*
G01*
X123200000Y-109325001D01*
G75*
G02*
X122950001Y-109575000I-249999J0D01*
G01*
G37*
G36*
G01*
X122950001Y-107525000D02*
X122049999Y-107525000D01*
G75*
G02*
X121800000Y-107275001I0J249999D01*
G01*
X121800000Y-106624999D01*
G75*
G02*
X122049999Y-106375000I249999J0D01*
G01*
X122950001Y-106375000D01*
G75*
G02*
X123200000Y-106624999I0J-249999D01*
G01*
X123200000Y-107275001D01*
G75*
G02*
X122950001Y-107525000I-249999J0D01*
G01*
G37*
G36*
G01*
X170720000Y-130172500D02*
X170720000Y-129827500D01*
G75*
G02*
X170867500Y-129680000I147500J0D01*
G01*
X171162500Y-129680000D01*
G75*
G02*
X171310000Y-129827500I0J-147500D01*
G01*
X171310000Y-130172500D01*
G75*
G02*
X171162500Y-130320000I-147500J0D01*
G01*
X170867500Y-130320000D01*
G75*
G02*
X170720000Y-130172500I0J147500D01*
G01*
G37*
G36*
G01*
X171690000Y-130172500D02*
X171690000Y-129827500D01*
G75*
G02*
X171837500Y-129680000I147500J0D01*
G01*
X172132500Y-129680000D01*
G75*
G02*
X172280000Y-129827500I0J-147500D01*
G01*
X172280000Y-130172500D01*
G75*
G02*
X172132500Y-130320000I-147500J0D01*
G01*
X171837500Y-130320000D01*
G75*
G02*
X171690000Y-130172500I0J147500D01*
G01*
G37*
D10*
X102750000Y-117250000D03*
X102750000Y-125750000D03*
X102750000Y-121500000D03*
D11*
X187500000Y-52800000D03*
X179000000Y-52800000D03*
X183250000Y-52800000D03*
X125250000Y-147200000D03*
X133750000Y-147200000D03*
X129500000Y-147200000D03*
X174750000Y-147200000D03*
X183250000Y-147200000D03*
X179000000Y-147200000D03*
D10*
X102750000Y-88500000D03*
X102750000Y-97000000D03*
X102750000Y-92750000D03*
D17*
X130500000Y-128550000D03*
X130500000Y-130450000D03*
X132500000Y-129500000D03*
X128500000Y-136450000D03*
X128500000Y-134550000D03*
X126500000Y-135500000D03*
G36*
G01*
X129737500Y-141775000D02*
X129262500Y-141775000D01*
G75*
G02*
X129025000Y-141537500I0J237500D01*
G01*
X129025000Y-140962500D01*
G75*
G02*
X129262500Y-140725000I237500J0D01*
G01*
X129737500Y-140725000D01*
G75*
G02*
X129975000Y-140962500I0J-237500D01*
G01*
X129975000Y-141537500D01*
G75*
G02*
X129737500Y-141775000I-237500J0D01*
G01*
G37*
G36*
G01*
X129737500Y-140025000D02*
X129262500Y-140025000D01*
G75*
G02*
X129025000Y-139787500I0J237500D01*
G01*
X129025000Y-139212500D01*
G75*
G02*
X129262500Y-138975000I237500J0D01*
G01*
X129737500Y-138975000D01*
G75*
G02*
X129975000Y-139212500I0J-237500D01*
G01*
X129975000Y-139787500D01*
G75*
G02*
X129737500Y-140025000I-237500J0D01*
G01*
G37*
G36*
G01*
X154950001Y-125850000D02*
X154049999Y-125850000D01*
G75*
G02*
X153800000Y-125600001I0J249999D01*
G01*
X153800000Y-124949999D01*
G75*
G02*
X154049999Y-124700000I249999J0D01*
G01*
X154950001Y-124700000D01*
G75*
G02*
X155200000Y-124949999I0J-249999D01*
G01*
X155200000Y-125600001D01*
G75*
G02*
X154950001Y-125850000I-249999J0D01*
G01*
G37*
G36*
G01*
X154950001Y-123800000D02*
X154049999Y-123800000D01*
G75*
G02*
X153800000Y-123550001I0J249999D01*
G01*
X153800000Y-122899999D01*
G75*
G02*
X154049999Y-122650000I249999J0D01*
G01*
X154950001Y-122650000D01*
G75*
G02*
X155200000Y-122899999I0J-249999D01*
G01*
X155200000Y-123550001D01*
G75*
G02*
X154950001Y-123800000I-249999J0D01*
G01*
G37*
G36*
G01*
X147549999Y-132650000D02*
X148450001Y-132650000D01*
G75*
G02*
X148700000Y-132899999I0J-249999D01*
G01*
X148700000Y-133550001D01*
G75*
G02*
X148450001Y-133800000I-249999J0D01*
G01*
X147549999Y-133800000D01*
G75*
G02*
X147300000Y-133550001I0J249999D01*
G01*
X147300000Y-132899999D01*
G75*
G02*
X147549999Y-132650000I249999J0D01*
G01*
G37*
G36*
G01*
X147549999Y-134700000D02*
X148450001Y-134700000D01*
G75*
G02*
X148700000Y-134949999I0J-249999D01*
G01*
X148700000Y-135600001D01*
G75*
G02*
X148450001Y-135850000I-249999J0D01*
G01*
X147549999Y-135850000D01*
G75*
G02*
X147300000Y-135600001I0J249999D01*
G01*
X147300000Y-134949999D01*
G75*
G02*
X147549999Y-134700000I249999J0D01*
G01*
G37*
G36*
G01*
X122400000Y-137762500D02*
X122400000Y-138237500D01*
G75*
G02*
X122162500Y-138475000I-237500J0D01*
G01*
X121587500Y-138475000D01*
G75*
G02*
X121350000Y-138237500I0J237500D01*
G01*
X121350000Y-137762500D01*
G75*
G02*
X121587500Y-137525000I237500J0D01*
G01*
X122162500Y-137525000D01*
G75*
G02*
X122400000Y-137762500I0J-237500D01*
G01*
G37*
G36*
G01*
X120650000Y-137762500D02*
X120650000Y-138237500D01*
G75*
G02*
X120412500Y-138475000I-237500J0D01*
G01*
X119837500Y-138475000D01*
G75*
G02*
X119600000Y-138237500I0J237500D01*
G01*
X119600000Y-137762500D01*
G75*
G02*
X119837500Y-137525000I237500J0D01*
G01*
X120412500Y-137525000D01*
G75*
G02*
X120650000Y-137762500I0J-237500D01*
G01*
G37*
G36*
G01*
X177012500Y-58975000D02*
X177487500Y-58975000D01*
G75*
G02*
X177725000Y-59212500I0J-237500D01*
G01*
X177725000Y-59787500D01*
G75*
G02*
X177487500Y-60025000I-237500J0D01*
G01*
X177012500Y-60025000D01*
G75*
G02*
X176775000Y-59787500I0J237500D01*
G01*
X176775000Y-59212500D01*
G75*
G02*
X177012500Y-58975000I237500J0D01*
G01*
G37*
G36*
G01*
X177012500Y-60725000D02*
X177487500Y-60725000D01*
G75*
G02*
X177725000Y-60962500I0J-237500D01*
G01*
X177725000Y-61537500D01*
G75*
G02*
X177487500Y-61775000I-237500J0D01*
G01*
X177012500Y-61775000D01*
G75*
G02*
X176775000Y-61537500I0J237500D01*
G01*
X176775000Y-60962500D01*
G75*
G02*
X177012500Y-60725000I237500J0D01*
G01*
G37*
G36*
G01*
X119225000Y-131987500D02*
X119225000Y-131512500D01*
G75*
G02*
X119462500Y-131275000I237500J0D01*
G01*
X120037500Y-131275000D01*
G75*
G02*
X120275000Y-131512500I0J-237500D01*
G01*
X120275000Y-131987500D01*
G75*
G02*
X120037500Y-132225000I-237500J0D01*
G01*
X119462500Y-132225000D01*
G75*
G02*
X119225000Y-131987500I0J237500D01*
G01*
G37*
G36*
G01*
X120975000Y-131987500D02*
X120975000Y-131512500D01*
G75*
G02*
X121212500Y-131275000I237500J0D01*
G01*
X121787500Y-131275000D01*
G75*
G02*
X122025000Y-131512500I0J-237500D01*
G01*
X122025000Y-131987500D01*
G75*
G02*
X121787500Y-132225000I-237500J0D01*
G01*
X121212500Y-132225000D01*
G75*
G02*
X120975000Y-131987500I0J237500D01*
G01*
G37*
G36*
G01*
X174262500Y-58975000D02*
X174737500Y-58975000D01*
G75*
G02*
X174975000Y-59212500I0J-237500D01*
G01*
X174975000Y-59787500D01*
G75*
G02*
X174737500Y-60025000I-237500J0D01*
G01*
X174262500Y-60025000D01*
G75*
G02*
X174025000Y-59787500I0J237500D01*
G01*
X174025000Y-59212500D01*
G75*
G02*
X174262500Y-58975000I237500J0D01*
G01*
G37*
G36*
G01*
X174262500Y-60725000D02*
X174737500Y-60725000D01*
G75*
G02*
X174975000Y-60962500I0J-237500D01*
G01*
X174975000Y-61537500D01*
G75*
G02*
X174737500Y-61775000I-237500J0D01*
G01*
X174262500Y-61775000D01*
G75*
G02*
X174025000Y-61537500I0J237500D01*
G01*
X174025000Y-60962500D01*
G75*
G02*
X174262500Y-60725000I237500J0D01*
G01*
G37*
G36*
G01*
X119225000Y-134987500D02*
X119225000Y-134512500D01*
G75*
G02*
X119462500Y-134275000I237500J0D01*
G01*
X120037500Y-134275000D01*
G75*
G02*
X120275000Y-134512500I0J-237500D01*
G01*
X120275000Y-134987500D01*
G75*
G02*
X120037500Y-135225000I-237500J0D01*
G01*
X119462500Y-135225000D01*
G75*
G02*
X119225000Y-134987500I0J237500D01*
G01*
G37*
G36*
G01*
X120975000Y-134987500D02*
X120975000Y-134512500D01*
G75*
G02*
X121212500Y-134275000I237500J0D01*
G01*
X121787500Y-134275000D01*
G75*
G02*
X122025000Y-134512500I0J-237500D01*
G01*
X122025000Y-134987500D01*
G75*
G02*
X121787500Y-135225000I-237500J0D01*
G01*
X121212500Y-135225000D01*
G75*
G02*
X120975000Y-134987500I0J237500D01*
G01*
G37*
G36*
G01*
X171512500Y-58975000D02*
X171987500Y-58975000D01*
G75*
G02*
X172225000Y-59212500I0J-237500D01*
G01*
X172225000Y-59787500D01*
G75*
G02*
X171987500Y-60025000I-237500J0D01*
G01*
X171512500Y-60025000D01*
G75*
G02*
X171275000Y-59787500I0J237500D01*
G01*
X171275000Y-59212500D01*
G75*
G02*
X171512500Y-58975000I237500J0D01*
G01*
G37*
G36*
G01*
X171512500Y-60725000D02*
X171987500Y-60725000D01*
G75*
G02*
X172225000Y-60962500I0J-237500D01*
G01*
X172225000Y-61537500D01*
G75*
G02*
X171987500Y-61775000I-237500J0D01*
G01*
X171512500Y-61775000D01*
G75*
G02*
X171275000Y-61537500I0J237500D01*
G01*
X171275000Y-60962500D01*
G75*
G02*
X171512500Y-60725000I237500J0D01*
G01*
G37*
G36*
G01*
X166225000Y-131987500D02*
X166225000Y-131512500D01*
G75*
G02*
X166462500Y-131275000I237500J0D01*
G01*
X167037500Y-131275000D01*
G75*
G02*
X167275000Y-131512500I0J-237500D01*
G01*
X167275000Y-131987500D01*
G75*
G02*
X167037500Y-132225000I-237500J0D01*
G01*
X166462500Y-132225000D01*
G75*
G02*
X166225000Y-131987500I0J237500D01*
G01*
G37*
G36*
G01*
X167975000Y-131987500D02*
X167975000Y-131512500D01*
G75*
G02*
X168212500Y-131275000I237500J0D01*
G01*
X168787500Y-131275000D01*
G75*
G02*
X169025000Y-131512500I0J-237500D01*
G01*
X169025000Y-131987500D01*
G75*
G02*
X168787500Y-132225000I-237500J0D01*
G01*
X168212500Y-132225000D01*
G75*
G02*
X167975000Y-131987500I0J237500D01*
G01*
G37*
G36*
G01*
X165237500Y-124525000D02*
X164762500Y-124525000D01*
G75*
G02*
X164525000Y-124287500I0J237500D01*
G01*
X164525000Y-123712500D01*
G75*
G02*
X164762500Y-123475000I237500J0D01*
G01*
X165237500Y-123475000D01*
G75*
G02*
X165475000Y-123712500I0J-237500D01*
G01*
X165475000Y-124287500D01*
G75*
G02*
X165237500Y-124525000I-237500J0D01*
G01*
G37*
G36*
G01*
X165237500Y-122775000D02*
X164762500Y-122775000D01*
G75*
G02*
X164525000Y-122537500I0J237500D01*
G01*
X164525000Y-121962500D01*
G75*
G02*
X164762500Y-121725000I237500J0D01*
G01*
X165237500Y-121725000D01*
G75*
G02*
X165475000Y-121962500I0J-237500D01*
G01*
X165475000Y-122537500D01*
G75*
G02*
X165237500Y-122775000I-237500J0D01*
G01*
G37*
G36*
G01*
X138237500Y-126025000D02*
X137762500Y-126025000D01*
G75*
G02*
X137525000Y-125787500I0J237500D01*
G01*
X137525000Y-125212500D01*
G75*
G02*
X137762500Y-124975000I237500J0D01*
G01*
X138237500Y-124975000D01*
G75*
G02*
X138475000Y-125212500I0J-237500D01*
G01*
X138475000Y-125787500D01*
G75*
G02*
X138237500Y-126025000I-237500J0D01*
G01*
G37*
G36*
G01*
X138237500Y-124275000D02*
X137762500Y-124275000D01*
G75*
G02*
X137525000Y-124037500I0J237500D01*
G01*
X137525000Y-123462500D01*
G75*
G02*
X137762500Y-123225000I237500J0D01*
G01*
X138237500Y-123225000D01*
G75*
G02*
X138475000Y-123462500I0J-237500D01*
G01*
X138475000Y-124037500D01*
G75*
G02*
X138237500Y-124275000I-237500J0D01*
G01*
G37*
G36*
G01*
X109225000Y-97987500D02*
X109225000Y-97512500D01*
G75*
G02*
X109462500Y-97275000I237500J0D01*
G01*
X110037500Y-97275000D01*
G75*
G02*
X110275000Y-97512500I0J-237500D01*
G01*
X110275000Y-97987500D01*
G75*
G02*
X110037500Y-98225000I-237500J0D01*
G01*
X109462500Y-98225000D01*
G75*
G02*
X109225000Y-97987500I0J237500D01*
G01*
G37*
G36*
G01*
X110975000Y-97987500D02*
X110975000Y-97512500D01*
G75*
G02*
X111212500Y-97275000I237500J0D01*
G01*
X111787500Y-97275000D01*
G75*
G02*
X112025000Y-97512500I0J-237500D01*
G01*
X112025000Y-97987500D01*
G75*
G02*
X111787500Y-98225000I-237500J0D01*
G01*
X111212500Y-98225000D01*
G75*
G02*
X110975000Y-97987500I0J237500D01*
G01*
G37*
G36*
G01*
X178762500Y-139475000D02*
X179237500Y-139475000D01*
G75*
G02*
X179475000Y-139712500I0J-237500D01*
G01*
X179475000Y-140287500D01*
G75*
G02*
X179237500Y-140525000I-237500J0D01*
G01*
X178762500Y-140525000D01*
G75*
G02*
X178525000Y-140287500I0J237500D01*
G01*
X178525000Y-139712500D01*
G75*
G02*
X178762500Y-139475000I237500J0D01*
G01*
G37*
G36*
G01*
X178762500Y-141225000D02*
X179237500Y-141225000D01*
G75*
G02*
X179475000Y-141462500I0J-237500D01*
G01*
X179475000Y-142037500D01*
G75*
G02*
X179237500Y-142275000I-237500J0D01*
G01*
X178762500Y-142275000D01*
G75*
G02*
X178525000Y-142037500I0J237500D01*
G01*
X178525000Y-141462500D01*
G75*
G02*
X178762500Y-141225000I237500J0D01*
G01*
G37*
G36*
G01*
X171400000Y-126762500D02*
X171400000Y-127237500D01*
G75*
G02*
X171162500Y-127475000I-237500J0D01*
G01*
X170587500Y-127475000D01*
G75*
G02*
X170350000Y-127237500I0J237500D01*
G01*
X170350000Y-126762500D01*
G75*
G02*
X170587500Y-126525000I237500J0D01*
G01*
X171162500Y-126525000D01*
G75*
G02*
X171400000Y-126762500I0J-237500D01*
G01*
G37*
G36*
G01*
X169650000Y-126762500D02*
X169650000Y-127237500D01*
G75*
G02*
X169412500Y-127475000I-237500J0D01*
G01*
X168837500Y-127475000D01*
G75*
G02*
X168600000Y-127237500I0J237500D01*
G01*
X168600000Y-126762500D01*
G75*
G02*
X168837500Y-126525000I237500J0D01*
G01*
X169412500Y-126525000D01*
G75*
G02*
X169650000Y-126762500I0J-237500D01*
G01*
G37*
G36*
G01*
X166225000Y-133737500D02*
X166225000Y-133262500D01*
G75*
G02*
X166462500Y-133025000I237500J0D01*
G01*
X167037500Y-133025000D01*
G75*
G02*
X167275000Y-133262500I0J-237500D01*
G01*
X167275000Y-133737500D01*
G75*
G02*
X167037500Y-133975000I-237500J0D01*
G01*
X166462500Y-133975000D01*
G75*
G02*
X166225000Y-133737500I0J237500D01*
G01*
G37*
G36*
G01*
X167975000Y-133737500D02*
X167975000Y-133262500D01*
G75*
G02*
X168212500Y-133025000I237500J0D01*
G01*
X168787500Y-133025000D01*
G75*
G02*
X169025000Y-133262500I0J-237500D01*
G01*
X169025000Y-133737500D01*
G75*
G02*
X168787500Y-133975000I-237500J0D01*
G01*
X168212500Y-133975000D01*
G75*
G02*
X167975000Y-133737500I0J237500D01*
G01*
G37*
G36*
G01*
X167237500Y-124525000D02*
X166762500Y-124525000D01*
G75*
G02*
X166525000Y-124287500I0J237500D01*
G01*
X166525000Y-123712500D01*
G75*
G02*
X166762500Y-123475000I237500J0D01*
G01*
X167237500Y-123475000D01*
G75*
G02*
X167475000Y-123712500I0J-237500D01*
G01*
X167475000Y-124287500D01*
G75*
G02*
X167237500Y-124525000I-237500J0D01*
G01*
G37*
G36*
G01*
X167237500Y-122775000D02*
X166762500Y-122775000D01*
G75*
G02*
X166525000Y-122537500I0J237500D01*
G01*
X166525000Y-121962500D01*
G75*
G02*
X166762500Y-121725000I237500J0D01*
G01*
X167237500Y-121725000D01*
G75*
G02*
X167475000Y-121962500I0J-237500D01*
G01*
X167475000Y-122537500D01*
G75*
G02*
X167237500Y-122775000I-237500J0D01*
G01*
G37*
G36*
G01*
X137762500Y-127725000D02*
X138237500Y-127725000D01*
G75*
G02*
X138475000Y-127962500I0J-237500D01*
G01*
X138475000Y-128537500D01*
G75*
G02*
X138237500Y-128775000I-237500J0D01*
G01*
X137762500Y-128775000D01*
G75*
G02*
X137525000Y-128537500I0J237500D01*
G01*
X137525000Y-127962500D01*
G75*
G02*
X137762500Y-127725000I237500J0D01*
G01*
G37*
G36*
G01*
X137762500Y-129475000D02*
X138237500Y-129475000D01*
G75*
G02*
X138475000Y-129712500I0J-237500D01*
G01*
X138475000Y-130287500D01*
G75*
G02*
X138237500Y-130525000I-237500J0D01*
G01*
X137762500Y-130525000D01*
G75*
G02*
X137525000Y-130287500I0J237500D01*
G01*
X137525000Y-129712500D01*
G75*
G02*
X137762500Y-129475000I237500J0D01*
G01*
G37*
G36*
G01*
X108275000Y-99762500D02*
X108275000Y-100237500D01*
G75*
G02*
X108037500Y-100475000I-237500J0D01*
G01*
X107462500Y-100475000D01*
G75*
G02*
X107225000Y-100237500I0J237500D01*
G01*
X107225000Y-99762500D01*
G75*
G02*
X107462500Y-99525000I237500J0D01*
G01*
X108037500Y-99525000D01*
G75*
G02*
X108275000Y-99762500I0J-237500D01*
G01*
G37*
G36*
G01*
X106525000Y-99762500D02*
X106525000Y-100237500D01*
G75*
G02*
X106287500Y-100475000I-237500J0D01*
G01*
X105712500Y-100475000D01*
G75*
G02*
X105475000Y-100237500I0J237500D01*
G01*
X105475000Y-99762500D01*
G75*
G02*
X105712500Y-99525000I237500J0D01*
G01*
X106287500Y-99525000D01*
G75*
G02*
X106525000Y-99762500I0J-237500D01*
G01*
G37*
G36*
G01*
X168799999Y-58900000D02*
X169700001Y-58900000D01*
G75*
G02*
X169950000Y-59149999I0J-249999D01*
G01*
X169950000Y-59800001D01*
G75*
G02*
X169700001Y-60050000I-249999J0D01*
G01*
X168799999Y-60050000D01*
G75*
G02*
X168550000Y-59800001I0J249999D01*
G01*
X168550000Y-59149999D01*
G75*
G02*
X168799999Y-58900000I249999J0D01*
G01*
G37*
G36*
G01*
X168799999Y-60950000D02*
X169700001Y-60950000D01*
G75*
G02*
X169950000Y-61199999I0J-249999D01*
G01*
X169950000Y-61850001D01*
G75*
G02*
X169700001Y-62100000I-249999J0D01*
G01*
X168799999Y-62100000D01*
G75*
G02*
X168550000Y-61850001I0J249999D01*
G01*
X168550000Y-61199999D01*
G75*
G02*
X168799999Y-60950000I249999J0D01*
G01*
G37*
G36*
G01*
X168700001Y-138125000D02*
X167799999Y-138125000D01*
G75*
G02*
X167550000Y-137875001I0J249999D01*
G01*
X167550000Y-137224999D01*
G75*
G02*
X167799999Y-136975000I249999J0D01*
G01*
X168700001Y-136975000D01*
G75*
G02*
X168950000Y-137224999I0J-249999D01*
G01*
X168950000Y-137875001D01*
G75*
G02*
X168700001Y-138125000I-249999J0D01*
G01*
G37*
G36*
G01*
X168700001Y-136075000D02*
X167799999Y-136075000D01*
G75*
G02*
X167550000Y-135825001I0J249999D01*
G01*
X167550000Y-135174999D01*
G75*
G02*
X167799999Y-134925000I249999J0D01*
G01*
X168700001Y-134925000D01*
G75*
G02*
X168950000Y-135174999I0J-249999D01*
G01*
X168950000Y-135825001D01*
G75*
G02*
X168700001Y-136075000I-249999J0D01*
G01*
G37*
G36*
G01*
X163237500Y-124525000D02*
X162762500Y-124525000D01*
G75*
G02*
X162525000Y-124287500I0J237500D01*
G01*
X162525000Y-123712500D01*
G75*
G02*
X162762500Y-123475000I237500J0D01*
G01*
X163237500Y-123475000D01*
G75*
G02*
X163475000Y-123712500I0J-237500D01*
G01*
X163475000Y-124287500D01*
G75*
G02*
X163237500Y-124525000I-237500J0D01*
G01*
G37*
G36*
G01*
X163237500Y-122775000D02*
X162762500Y-122775000D01*
G75*
G02*
X162525000Y-122537500I0J237500D01*
G01*
X162525000Y-121962500D01*
G75*
G02*
X162762500Y-121725000I237500J0D01*
G01*
X163237500Y-121725000D01*
G75*
G02*
X163475000Y-121962500I0J-237500D01*
G01*
X163475000Y-122537500D01*
G75*
G02*
X163237500Y-122775000I-237500J0D01*
G01*
G37*
G36*
G01*
X157599999Y-59425000D02*
X158500001Y-59425000D01*
G75*
G02*
X158750000Y-59674999I0J-249999D01*
G01*
X158750000Y-60325001D01*
G75*
G02*
X158500001Y-60575000I-249999J0D01*
G01*
X157599999Y-60575000D01*
G75*
G02*
X157350000Y-60325001I0J249999D01*
G01*
X157350000Y-59674999D01*
G75*
G02*
X157599999Y-59425000I249999J0D01*
G01*
G37*
G36*
G01*
X157599999Y-61475000D02*
X158500001Y-61475000D01*
G75*
G02*
X158750000Y-61724999I0J-249999D01*
G01*
X158750000Y-62375001D01*
G75*
G02*
X158500001Y-62625000I-249999J0D01*
G01*
X157599999Y-62625000D01*
G75*
G02*
X157350000Y-62375001I0J249999D01*
G01*
X157350000Y-61724999D01*
G75*
G02*
X157599999Y-61475000I249999J0D01*
G01*
G37*
G36*
G01*
X137100000Y-121237500D02*
X137100000Y-120762500D01*
G75*
G02*
X137337500Y-120525000I237500J0D01*
G01*
X137912500Y-120525000D01*
G75*
G02*
X138150000Y-120762500I0J-237500D01*
G01*
X138150000Y-121237500D01*
G75*
G02*
X137912500Y-121475000I-237500J0D01*
G01*
X137337500Y-121475000D01*
G75*
G02*
X137100000Y-121237500I0J237500D01*
G01*
G37*
G36*
G01*
X138850000Y-121237500D02*
X138850000Y-120762500D01*
G75*
G02*
X139087500Y-120525000I237500J0D01*
G01*
X139662500Y-120525000D01*
G75*
G02*
X139900000Y-120762500I0J-237500D01*
G01*
X139900000Y-121237500D01*
G75*
G02*
X139662500Y-121475000I-237500J0D01*
G01*
X139087500Y-121475000D01*
G75*
G02*
X138850000Y-121237500I0J237500D01*
G01*
G37*
G36*
G01*
X153825000Y-119549999D02*
X153825000Y-120450001D01*
G75*
G02*
X153575001Y-120700000I-249999J0D01*
G01*
X152924999Y-120700000D01*
G75*
G02*
X152675000Y-120450001I0J249999D01*
G01*
X152675000Y-119549999D01*
G75*
G02*
X152924999Y-119300000I249999J0D01*
G01*
X153575001Y-119300000D01*
G75*
G02*
X153825000Y-119549999I0J-249999D01*
G01*
G37*
G36*
G01*
X151775000Y-119549999D02*
X151775000Y-120450001D01*
G75*
G02*
X151525001Y-120700000I-249999J0D01*
G01*
X150874999Y-120700000D01*
G75*
G02*
X150625000Y-120450001I0J249999D01*
G01*
X150625000Y-119549999D01*
G75*
G02*
X150874999Y-119300000I249999J0D01*
G01*
X151525001Y-119300000D01*
G75*
G02*
X151775000Y-119549999I0J-249999D01*
G01*
G37*
G36*
G01*
X138450001Y-118075000D02*
X137549999Y-118075000D01*
G75*
G02*
X137300000Y-117825001I0J249999D01*
G01*
X137300000Y-117174999D01*
G75*
G02*
X137549999Y-116925000I249999J0D01*
G01*
X138450001Y-116925000D01*
G75*
G02*
X138700000Y-117174999I0J-249999D01*
G01*
X138700000Y-117825001D01*
G75*
G02*
X138450001Y-118075000I-249999J0D01*
G01*
G37*
G36*
G01*
X138450001Y-116025000D02*
X137549999Y-116025000D01*
G75*
G02*
X137300000Y-115775001I0J249999D01*
G01*
X137300000Y-115124999D01*
G75*
G02*
X137549999Y-114875000I249999J0D01*
G01*
X138450001Y-114875000D01*
G75*
G02*
X138700000Y-115124999I0J-249999D01*
G01*
X138700000Y-115775001D01*
G75*
G02*
X138450001Y-116025000I-249999J0D01*
G01*
G37*
G36*
G01*
X108350000Y-103899999D02*
X108350000Y-104800001D01*
G75*
G02*
X108100001Y-105050000I-249999J0D01*
G01*
X107449999Y-105050000D01*
G75*
G02*
X107200000Y-104800001I0J249999D01*
G01*
X107200000Y-103899999D01*
G75*
G02*
X107449999Y-103650000I249999J0D01*
G01*
X108100001Y-103650000D01*
G75*
G02*
X108350000Y-103899999I0J-249999D01*
G01*
G37*
G36*
G01*
X106300000Y-103899999D02*
X106300000Y-104800001D01*
G75*
G02*
X106050001Y-105050000I-249999J0D01*
G01*
X105399999Y-105050000D01*
G75*
G02*
X105150000Y-104800001I0J249999D01*
G01*
X105150000Y-103899999D01*
G75*
G02*
X105399999Y-103650000I249999J0D01*
G01*
X106050001Y-103650000D01*
G75*
G02*
X106300000Y-103899999I0J-249999D01*
G01*
G37*
G36*
G01*
X108275000Y-101512500D02*
X108275000Y-101987500D01*
G75*
G02*
X108037500Y-102225000I-237500J0D01*
G01*
X107462500Y-102225000D01*
G75*
G02*
X107225000Y-101987500I0J237500D01*
G01*
X107225000Y-101512500D01*
G75*
G02*
X107462500Y-101275000I237500J0D01*
G01*
X108037500Y-101275000D01*
G75*
G02*
X108275000Y-101512500I0J-237500D01*
G01*
G37*
G36*
G01*
X106525000Y-101512500D02*
X106525000Y-101987500D01*
G75*
G02*
X106287500Y-102225000I-237500J0D01*
G01*
X105712500Y-102225000D01*
G75*
G02*
X105475000Y-101987500I0J237500D01*
G01*
X105475000Y-101512500D01*
G75*
G02*
X105712500Y-101275000I237500J0D01*
G01*
X106287500Y-101275000D01*
G75*
G02*
X106525000Y-101512500I0J-237500D01*
G01*
G37*
G36*
G01*
X158075000Y-135049999D02*
X158075000Y-135950001D01*
G75*
G02*
X157825001Y-136200000I-249999J0D01*
G01*
X157174999Y-136200000D01*
G75*
G02*
X156925000Y-135950001I0J249999D01*
G01*
X156925000Y-135049999D01*
G75*
G02*
X157174999Y-134800000I249999J0D01*
G01*
X157825001Y-134800000D01*
G75*
G02*
X158075000Y-135049999I0J-249999D01*
G01*
G37*
G36*
G01*
X156025000Y-135049999D02*
X156025000Y-135950001D01*
G75*
G02*
X155775001Y-136200000I-249999J0D01*
G01*
X155124999Y-136200000D01*
G75*
G02*
X154875000Y-135950001I0J249999D01*
G01*
X154875000Y-135049999D01*
G75*
G02*
X155124999Y-134800000I249999J0D01*
G01*
X155775001Y-134800000D01*
G75*
G02*
X156025000Y-135049999I0J-249999D01*
G01*
G37*
G36*
G01*
X125049999Y-113925000D02*
X125950001Y-113925000D01*
G75*
G02*
X126200000Y-114174999I0J-249999D01*
G01*
X126200000Y-114825001D01*
G75*
G02*
X125950001Y-115075000I-249999J0D01*
G01*
X125049999Y-115075000D01*
G75*
G02*
X124800000Y-114825001I0J249999D01*
G01*
X124800000Y-114174999D01*
G75*
G02*
X125049999Y-113925000I249999J0D01*
G01*
G37*
G36*
G01*
X125049999Y-115975000D02*
X125950001Y-115975000D01*
G75*
G02*
X126200000Y-116224999I0J-249999D01*
G01*
X126200000Y-116875001D01*
G75*
G02*
X125950001Y-117125000I-249999J0D01*
G01*
X125049999Y-117125000D01*
G75*
G02*
X124800000Y-116875001I0J249999D01*
G01*
X124800000Y-116224999D01*
G75*
G02*
X125049999Y-115975000I249999J0D01*
G01*
G37*
G36*
G01*
X119450001Y-105825000D02*
X118549999Y-105825000D01*
G75*
G02*
X118300000Y-105575001I0J249999D01*
G01*
X118300000Y-104924999D01*
G75*
G02*
X118549999Y-104675000I249999J0D01*
G01*
X119450001Y-104675000D01*
G75*
G02*
X119700000Y-104924999I0J-249999D01*
G01*
X119700000Y-105575001D01*
G75*
G02*
X119450001Y-105825000I-249999J0D01*
G01*
G37*
G36*
G01*
X119450001Y-103775000D02*
X118549999Y-103775000D01*
G75*
G02*
X118300000Y-103525001I0J249999D01*
G01*
X118300000Y-102874999D01*
G75*
G02*
X118549999Y-102625000I249999J0D01*
G01*
X119450001Y-102625000D01*
G75*
G02*
X119700000Y-102874999I0J-249999D01*
G01*
X119700000Y-103525001D01*
G75*
G02*
X119450001Y-103775000I-249999J0D01*
G01*
G37*
M02*
