G04 #@! TF.GenerationSoftware,KiCad,Pcbnew,5.1.6-c6e7f7d~86~ubuntu18.04.1*
G04 #@! TF.CreationDate,2020-05-28T18:44:08+01:00*
G04 #@! TF.ProjectId,multi-smtpa,6d756c74-692d-4736-9d74-70612e6b6963,rev?*
G04 #@! TF.SameCoordinates,Original*
G04 #@! TF.FileFunction,Soldermask,Bot*
G04 #@! TF.FilePolarity,Negative*
%FSLAX46Y46*%
G04 Gerber Fmt 4.6, Leading zero omitted, Abs format (unit mm)*
G04 Created by KiCad (PCBNEW 5.1.6-c6e7f7d~86~ubuntu18.04.1) date 2020-05-28 18:44:08*
%MOMM*%
%LPD*%
G01*
G04 APERTURE LIST*
%ADD10C,0.100000*%
G04 APERTURE END LIST*
D10*
G36*
X126051000Y-149791000D02*
G01*
X124449000Y-149791000D01*
X124449000Y-144609000D01*
X126051000Y-144609000D01*
X126051000Y-149791000D01*
G37*
G36*
X175551000Y-149791000D02*
G01*
X173949000Y-149791000D01*
X173949000Y-144609000D01*
X175551000Y-144609000D01*
X175551000Y-149791000D01*
G37*
G36*
X184051000Y-149791000D02*
G01*
X182449000Y-149791000D01*
X182449000Y-144609000D01*
X184051000Y-144609000D01*
X184051000Y-149791000D01*
G37*
G36*
X134551000Y-149791000D02*
G01*
X132949000Y-149791000D01*
X132949000Y-144609000D01*
X134551000Y-144609000D01*
X134551000Y-149791000D01*
G37*
G36*
X106548156Y-139672794D02*
G01*
X107269140Y-139816206D01*
X108060972Y-140144193D01*
X108773601Y-140620357D01*
X109379643Y-141226399D01*
X109855807Y-141939028D01*
X110183794Y-142730860D01*
X110289581Y-143262688D01*
X110351000Y-143571463D01*
X110351000Y-144428537D01*
X110334535Y-144511310D01*
X110183794Y-145269140D01*
X109855807Y-146060972D01*
X109379643Y-146773601D01*
X108773601Y-147379643D01*
X108060972Y-147855807D01*
X107269140Y-148183794D01*
X106548156Y-148327206D01*
X106428537Y-148351000D01*
X105571463Y-148351000D01*
X105451844Y-148327206D01*
X104730860Y-148183794D01*
X103939028Y-147855807D01*
X103226399Y-147379643D01*
X102620357Y-146773601D01*
X102144193Y-146060972D01*
X101816206Y-145269140D01*
X101665465Y-144511310D01*
X101649000Y-144428537D01*
X101649000Y-143571463D01*
X101710419Y-143262688D01*
X101816206Y-142730860D01*
X102144193Y-141939028D01*
X102620357Y-141226399D01*
X103226399Y-140620357D01*
X103939028Y-140144193D01*
X104730860Y-139816206D01*
X105451844Y-139672794D01*
X105571463Y-139649000D01*
X106428537Y-139649000D01*
X106548156Y-139672794D01*
G37*
G36*
X194048156Y-139172794D02*
G01*
X194769140Y-139316206D01*
X195560972Y-139644193D01*
X196273601Y-140120357D01*
X196879643Y-140726399D01*
X197355807Y-141439028D01*
X197683794Y-142230860D01*
X197783250Y-142730861D01*
X197829379Y-142962765D01*
X197851000Y-143071464D01*
X197851000Y-143928536D01*
X197683794Y-144769140D01*
X197355807Y-145560972D01*
X196879643Y-146273601D01*
X196273601Y-146879643D01*
X195560972Y-147355807D01*
X194769140Y-147683794D01*
X194048156Y-147827206D01*
X193928537Y-147851000D01*
X193071463Y-147851000D01*
X192951844Y-147827206D01*
X192230860Y-147683794D01*
X191439028Y-147355807D01*
X190726399Y-146879643D01*
X190120357Y-146273601D01*
X189644193Y-145560972D01*
X189316206Y-144769140D01*
X189149000Y-143928536D01*
X189149000Y-143071464D01*
X189170622Y-142962765D01*
X189216750Y-142730861D01*
X189316206Y-142230860D01*
X189644193Y-141439028D01*
X190120357Y-140726399D01*
X190726399Y-140120357D01*
X191439028Y-139644193D01*
X192230860Y-139316206D01*
X192951844Y-139172794D01*
X193071463Y-139149000D01*
X193928537Y-139149000D01*
X194048156Y-139172794D01*
G37*
G36*
X157437534Y-144557643D02*
G01*
X157710515Y-144670716D01*
X157710517Y-144670717D01*
X157834190Y-144753353D01*
X157903305Y-144799534D01*
X157956194Y-144834874D01*
X158165126Y-145043806D01*
X158315690Y-145269139D01*
X158329284Y-145289485D01*
X158442357Y-145562466D01*
X158500000Y-145852262D01*
X158500000Y-146147738D01*
X158442357Y-146437534D01*
X158343723Y-146675656D01*
X158329283Y-146710517D01*
X158246647Y-146834190D01*
X158165127Y-146956193D01*
X157956193Y-147165127D01*
X157940435Y-147175656D01*
X157710517Y-147329283D01*
X157710516Y-147329284D01*
X157710515Y-147329284D01*
X157437534Y-147442357D01*
X157147738Y-147500000D01*
X156852262Y-147500000D01*
X156562466Y-147442357D01*
X156289485Y-147329284D01*
X156289484Y-147329284D01*
X156289483Y-147329283D01*
X156059565Y-147175656D01*
X156043807Y-147165127D01*
X155834873Y-146956193D01*
X155753353Y-146834190D01*
X155670717Y-146710517D01*
X155656277Y-146675656D01*
X155557643Y-146437534D01*
X155500000Y-146147738D01*
X155500000Y-145852262D01*
X155557643Y-145562466D01*
X155670716Y-145289485D01*
X155684311Y-145269139D01*
X155834874Y-145043806D01*
X156043806Y-144834874D01*
X156096696Y-144799534D01*
X156165810Y-144753353D01*
X156289483Y-144670717D01*
X156289485Y-144670716D01*
X156562466Y-144557643D01*
X156852262Y-144500000D01*
X157147738Y-144500000D01*
X157437534Y-144557643D01*
G37*
G36*
X144527395Y-144335546D02*
G01*
X144700466Y-144407234D01*
X144732348Y-144428537D01*
X144856227Y-144511310D01*
X144988690Y-144643773D01*
X145006693Y-144670717D01*
X145092766Y-144799534D01*
X145164454Y-144972605D01*
X145201000Y-145156333D01*
X145201000Y-145343667D01*
X145164454Y-145527395D01*
X145092766Y-145700466D01*
X145041081Y-145777818D01*
X144988690Y-145856227D01*
X144856227Y-145988690D01*
X144812764Y-146017731D01*
X144700466Y-146092766D01*
X144527395Y-146164454D01*
X144343667Y-146201000D01*
X144156333Y-146201000D01*
X143972605Y-146164454D01*
X143799534Y-146092766D01*
X143687236Y-146017731D01*
X143643773Y-145988690D01*
X143511310Y-145856227D01*
X143458919Y-145777818D01*
X143407234Y-145700466D01*
X143335546Y-145527395D01*
X143299000Y-145343667D01*
X143299000Y-145156333D01*
X143335546Y-144972605D01*
X143407234Y-144799534D01*
X143493307Y-144670717D01*
X143511310Y-144643773D01*
X143643773Y-144511310D01*
X143767652Y-144428537D01*
X143799534Y-144407234D01*
X143972605Y-144335546D01*
X144156333Y-144299000D01*
X144343667Y-144299000D01*
X144527395Y-144335546D01*
G37*
G36*
X116317395Y-141205546D02*
G01*
X116490466Y-141277234D01*
X116567818Y-141328919D01*
X116646227Y-141381310D01*
X116778690Y-141513773D01*
X116818561Y-141573445D01*
X116882766Y-141669534D01*
X116954454Y-141842605D01*
X116991000Y-142026333D01*
X116991000Y-142213667D01*
X116954454Y-142397395D01*
X116882766Y-142570466D01*
X116882765Y-142570467D01*
X116778690Y-142726227D01*
X116646227Y-142858690D01*
X116567818Y-142911081D01*
X116490466Y-142962766D01*
X116317395Y-143034454D01*
X116133667Y-143071000D01*
X115946333Y-143071000D01*
X115762605Y-143034454D01*
X115589534Y-142962766D01*
X115512182Y-142911081D01*
X115433773Y-142858690D01*
X115301310Y-142726227D01*
X115197235Y-142570467D01*
X115197234Y-142570466D01*
X115125546Y-142397395D01*
X115089000Y-142213667D01*
X115089000Y-142026333D01*
X115125546Y-141842605D01*
X115197234Y-141669534D01*
X115261439Y-141573445D01*
X115301310Y-141513773D01*
X115433773Y-141381310D01*
X115512182Y-141328919D01*
X115589534Y-141277234D01*
X115762605Y-141205546D01*
X115946333Y-141169000D01*
X116133667Y-141169000D01*
X116317395Y-141205546D01*
G37*
G36*
X134737142Y-139798242D02*
G01*
X134885101Y-139859529D01*
X135018255Y-139948499D01*
X135131501Y-140061745D01*
X135220471Y-140194899D01*
X135281758Y-140342858D01*
X135313000Y-140499925D01*
X135313000Y-140660075D01*
X135281758Y-140817142D01*
X135220471Y-140965101D01*
X135131501Y-141098255D01*
X135018255Y-141211501D01*
X134885101Y-141300471D01*
X134737142Y-141361758D01*
X134580075Y-141393000D01*
X134419925Y-141393000D01*
X134262858Y-141361758D01*
X134114899Y-141300471D01*
X133981745Y-141211501D01*
X133868499Y-141098255D01*
X133779529Y-140965101D01*
X133718242Y-140817142D01*
X133687000Y-140660075D01*
X133687000Y-140499925D01*
X133718242Y-140342858D01*
X133779529Y-140194899D01*
X133868499Y-140061745D01*
X133981745Y-139948499D01*
X134114899Y-139859529D01*
X134262858Y-139798242D01*
X134419925Y-139767000D01*
X134580075Y-139767000D01*
X134737142Y-139798242D01*
G37*
G36*
X134737142Y-137258242D02*
G01*
X134885101Y-137319529D01*
X135018255Y-137408499D01*
X135131501Y-137521745D01*
X135220471Y-137654899D01*
X135281758Y-137802858D01*
X135313000Y-137959925D01*
X135313000Y-138120075D01*
X135281758Y-138277142D01*
X135220471Y-138425101D01*
X135131501Y-138558255D01*
X135018255Y-138671501D01*
X134885101Y-138760471D01*
X134737142Y-138821758D01*
X134580075Y-138853000D01*
X134419925Y-138853000D01*
X134262858Y-138821758D01*
X134114899Y-138760471D01*
X133981745Y-138671501D01*
X133868499Y-138558255D01*
X133779529Y-138425101D01*
X133718242Y-138277142D01*
X133687000Y-138120075D01*
X133687000Y-137959925D01*
X133718242Y-137802858D01*
X133779529Y-137654899D01*
X133868499Y-137521745D01*
X133981745Y-137408499D01*
X134114899Y-137319529D01*
X134262858Y-137258242D01*
X134419925Y-137227000D01*
X134580075Y-137227000D01*
X134737142Y-137258242D01*
G37*
G36*
X124737142Y-137258242D02*
G01*
X124885101Y-137319529D01*
X125018255Y-137408499D01*
X125131501Y-137521745D01*
X125220471Y-137654899D01*
X125281758Y-137802858D01*
X125313000Y-137959925D01*
X125313000Y-138120075D01*
X125281758Y-138277142D01*
X125220471Y-138425101D01*
X125131501Y-138558255D01*
X125018255Y-138671501D01*
X124885101Y-138760471D01*
X124737142Y-138821758D01*
X124580075Y-138853000D01*
X124419925Y-138853000D01*
X124262858Y-138821758D01*
X124114899Y-138760471D01*
X123981745Y-138671501D01*
X123868499Y-138558255D01*
X123779529Y-138425101D01*
X123718242Y-138277142D01*
X123687000Y-138120075D01*
X123687000Y-137959925D01*
X123718242Y-137802858D01*
X123779529Y-137654899D01*
X123868499Y-137521745D01*
X123981745Y-137408499D01*
X124114899Y-137319529D01*
X124262858Y-137258242D01*
X124419925Y-137227000D01*
X124580075Y-137227000D01*
X124737142Y-137258242D01*
G37*
G36*
X189527395Y-136865546D02*
G01*
X189700466Y-136937234D01*
X189700467Y-136937235D01*
X189856227Y-137041310D01*
X189988690Y-137173773D01*
X189992539Y-137179534D01*
X190092766Y-137329534D01*
X190164454Y-137502605D01*
X190201000Y-137686333D01*
X190201000Y-137873667D01*
X190164454Y-138057395D01*
X190092766Y-138230466D01*
X190061578Y-138277142D01*
X189988690Y-138386227D01*
X189856227Y-138518690D01*
X189777818Y-138571081D01*
X189700466Y-138622766D01*
X189527395Y-138694454D01*
X189343667Y-138731000D01*
X189156333Y-138731000D01*
X188972605Y-138694454D01*
X188799534Y-138622766D01*
X188722182Y-138571081D01*
X188643773Y-138518690D01*
X188511310Y-138386227D01*
X188438422Y-138277142D01*
X188407234Y-138230466D01*
X188335546Y-138057395D01*
X188299000Y-137873667D01*
X188299000Y-137686333D01*
X188335546Y-137502605D01*
X188407234Y-137329534D01*
X188507461Y-137179534D01*
X188511310Y-137173773D01*
X188643773Y-137041310D01*
X188799533Y-136937235D01*
X188799534Y-136937234D01*
X188972605Y-136865546D01*
X189156333Y-136829000D01*
X189343667Y-136829000D01*
X189527395Y-136865546D01*
G37*
G36*
X141987395Y-136715546D02*
G01*
X142160466Y-136787234D01*
X142160467Y-136787235D01*
X142316227Y-136891310D01*
X142448690Y-137023773D01*
X142448691Y-137023775D01*
X142552766Y-137179534D01*
X142624454Y-137352605D01*
X142661000Y-137536333D01*
X142661000Y-137723667D01*
X142624454Y-137907395D01*
X142552766Y-138080466D01*
X142552765Y-138080467D01*
X142448690Y-138236227D01*
X142316227Y-138368690D01*
X142289984Y-138386225D01*
X142160466Y-138472766D01*
X141987395Y-138544454D01*
X141803667Y-138581000D01*
X141616333Y-138581000D01*
X141432605Y-138544454D01*
X141259534Y-138472766D01*
X141130016Y-138386225D01*
X141103773Y-138368690D01*
X140971310Y-138236227D01*
X140867235Y-138080467D01*
X140867234Y-138080466D01*
X140795546Y-137907395D01*
X140759000Y-137723667D01*
X140759000Y-137536333D01*
X140795546Y-137352605D01*
X140867234Y-137179534D01*
X140971309Y-137023775D01*
X140971310Y-137023773D01*
X141103773Y-136891310D01*
X141259533Y-136787235D01*
X141259534Y-136787234D01*
X141432605Y-136715546D01*
X141616333Y-136679000D01*
X141803667Y-136679000D01*
X141987395Y-136715546D01*
G37*
G36*
X160197142Y-136218242D02*
G01*
X160345101Y-136279529D01*
X160478255Y-136368499D01*
X160591501Y-136481745D01*
X160680471Y-136614899D01*
X160741758Y-136762858D01*
X160773000Y-136919925D01*
X160773000Y-137080075D01*
X160741758Y-137237142D01*
X160680471Y-137385101D01*
X160591501Y-137518255D01*
X160478255Y-137631501D01*
X160345101Y-137720471D01*
X160197142Y-137781758D01*
X160040075Y-137813000D01*
X159879925Y-137813000D01*
X159722858Y-137781758D01*
X159574899Y-137720471D01*
X159441745Y-137631501D01*
X159328499Y-137518255D01*
X159239529Y-137385101D01*
X159178242Y-137237142D01*
X159147000Y-137080075D01*
X159147000Y-136919925D01*
X159178242Y-136762858D01*
X159239529Y-136614899D01*
X159328499Y-136481745D01*
X159441745Y-136368499D01*
X159574899Y-136279529D01*
X159722858Y-136218242D01*
X159879925Y-136187000D01*
X160040075Y-136187000D01*
X160197142Y-136218242D01*
G37*
G36*
X162737142Y-136218242D02*
G01*
X162885101Y-136279529D01*
X163018255Y-136368499D01*
X163131501Y-136481745D01*
X163220471Y-136614899D01*
X163281758Y-136762858D01*
X163313000Y-136919925D01*
X163313000Y-137080075D01*
X163281758Y-137237142D01*
X163220471Y-137385101D01*
X163131501Y-137518255D01*
X163018255Y-137631501D01*
X162885101Y-137720471D01*
X162737142Y-137781758D01*
X162580075Y-137813000D01*
X162419925Y-137813000D01*
X162262858Y-137781758D01*
X162114899Y-137720471D01*
X161981745Y-137631501D01*
X161868499Y-137518255D01*
X161779529Y-137385101D01*
X161718242Y-137237142D01*
X161687000Y-137080075D01*
X161687000Y-136919925D01*
X161718242Y-136762858D01*
X161779529Y-136614899D01*
X161868499Y-136481745D01*
X161981745Y-136368499D01*
X162114899Y-136279529D01*
X162262858Y-136218242D01*
X162419925Y-136187000D01*
X162580075Y-136187000D01*
X162737142Y-136218242D01*
G37*
G36*
X165277142Y-136218242D02*
G01*
X165425101Y-136279529D01*
X165558255Y-136368499D01*
X165671501Y-136481745D01*
X165760471Y-136614899D01*
X165821758Y-136762858D01*
X165853000Y-136919925D01*
X165853000Y-137080075D01*
X165821758Y-137237142D01*
X165760471Y-137385101D01*
X165671501Y-137518255D01*
X165558255Y-137631501D01*
X165425101Y-137720471D01*
X165277142Y-137781758D01*
X165120075Y-137813000D01*
X164959925Y-137813000D01*
X164802858Y-137781758D01*
X164654899Y-137720471D01*
X164521745Y-137631501D01*
X164408499Y-137518255D01*
X164319529Y-137385101D01*
X164258242Y-137237142D01*
X164227000Y-137080075D01*
X164227000Y-136919925D01*
X164258242Y-136762858D01*
X164319529Y-136614899D01*
X164408499Y-136481745D01*
X164521745Y-136368499D01*
X164654899Y-136279529D01*
X164802858Y-136218242D01*
X164959925Y-136187000D01*
X165120075Y-136187000D01*
X165277142Y-136218242D01*
G37*
G36*
X134737142Y-134718242D02*
G01*
X134885101Y-134779529D01*
X135018255Y-134868499D01*
X135131501Y-134981745D01*
X135220471Y-135114899D01*
X135281758Y-135262858D01*
X135313000Y-135419925D01*
X135313000Y-135580075D01*
X135281758Y-135737142D01*
X135220471Y-135885101D01*
X135131501Y-136018255D01*
X135018255Y-136131501D01*
X134885101Y-136220471D01*
X134737142Y-136281758D01*
X134580075Y-136313000D01*
X134419925Y-136313000D01*
X134262858Y-136281758D01*
X134114899Y-136220471D01*
X133981745Y-136131501D01*
X133868499Y-136018255D01*
X133779529Y-135885101D01*
X133718242Y-135737142D01*
X133687000Y-135580075D01*
X133687000Y-135419925D01*
X133718242Y-135262858D01*
X133779529Y-135114899D01*
X133868499Y-134981745D01*
X133981745Y-134868499D01*
X134114899Y-134779529D01*
X134262858Y-134718242D01*
X134419925Y-134687000D01*
X134580075Y-134687000D01*
X134737142Y-134718242D01*
G37*
G36*
X124737142Y-134718242D02*
G01*
X124885101Y-134779529D01*
X125018255Y-134868499D01*
X125131501Y-134981745D01*
X125220471Y-135114899D01*
X125281758Y-135262858D01*
X125313000Y-135419925D01*
X125313000Y-135580075D01*
X125281758Y-135737142D01*
X125220471Y-135885101D01*
X125131501Y-136018255D01*
X125018255Y-136131501D01*
X124885101Y-136220471D01*
X124737142Y-136281758D01*
X124580075Y-136313000D01*
X124419925Y-136313000D01*
X124262858Y-136281758D01*
X124114899Y-136220471D01*
X123981745Y-136131501D01*
X123868499Y-136018255D01*
X123779529Y-135885101D01*
X123718242Y-135737142D01*
X123687000Y-135580075D01*
X123687000Y-135419925D01*
X123718242Y-135262858D01*
X123779529Y-135114899D01*
X123868499Y-134981745D01*
X123981745Y-134868499D01*
X124114899Y-134779529D01*
X124262858Y-134718242D01*
X124419925Y-134687000D01*
X124580075Y-134687000D01*
X124737142Y-134718242D01*
G37*
G36*
X113777395Y-133585546D02*
G01*
X113950466Y-133657234D01*
X113950467Y-133657235D01*
X114106227Y-133761310D01*
X114238690Y-133893773D01*
X114238691Y-133893775D01*
X114342766Y-134049534D01*
X114414454Y-134222605D01*
X114451000Y-134406333D01*
X114451000Y-134593667D01*
X114414454Y-134777395D01*
X114342766Y-134950466D01*
X114342765Y-134950467D01*
X114238690Y-135106227D01*
X114106227Y-135238690D01*
X114070058Y-135262857D01*
X113950466Y-135342766D01*
X113777395Y-135414454D01*
X113593667Y-135451000D01*
X113406333Y-135451000D01*
X113222605Y-135414454D01*
X113049534Y-135342766D01*
X112929942Y-135262857D01*
X112893773Y-135238690D01*
X112761310Y-135106227D01*
X112657235Y-134950467D01*
X112657234Y-134950466D01*
X112585546Y-134777395D01*
X112549000Y-134593667D01*
X112549000Y-134406333D01*
X112585546Y-134222605D01*
X112657234Y-134049534D01*
X112761309Y-133893775D01*
X112761310Y-133893773D01*
X112893773Y-133761310D01*
X113049533Y-133657235D01*
X113049534Y-133657234D01*
X113222605Y-133585546D01*
X113406333Y-133549000D01*
X113593667Y-133549000D01*
X113777395Y-133585546D01*
G37*
G36*
X186987395Y-129245546D02*
G01*
X187160466Y-129317234D01*
X187160467Y-129317235D01*
X187316227Y-129421310D01*
X187448690Y-129553773D01*
X187466264Y-129580075D01*
X187552766Y-129709534D01*
X187624454Y-129882605D01*
X187661000Y-130066333D01*
X187661000Y-130253667D01*
X187624454Y-130437395D01*
X187552766Y-130610466D01*
X187552765Y-130610467D01*
X187448690Y-130766227D01*
X187316227Y-130898690D01*
X187237818Y-130951081D01*
X187160466Y-131002766D01*
X186987395Y-131074454D01*
X186803667Y-131111000D01*
X186616333Y-131111000D01*
X186432605Y-131074454D01*
X186259534Y-131002766D01*
X186182182Y-130951081D01*
X186103773Y-130898690D01*
X185971310Y-130766227D01*
X185867235Y-130610467D01*
X185867234Y-130610466D01*
X185795546Y-130437395D01*
X185759000Y-130253667D01*
X185759000Y-130066333D01*
X185795546Y-129882605D01*
X185867234Y-129709534D01*
X185953736Y-129580075D01*
X185971310Y-129553773D01*
X186103773Y-129421310D01*
X186259533Y-129317235D01*
X186259534Y-129317234D01*
X186432605Y-129245546D01*
X186616333Y-129209000D01*
X186803667Y-129209000D01*
X186987395Y-129245546D01*
G37*
G36*
X134737142Y-128718242D02*
G01*
X134885101Y-128779529D01*
X135018255Y-128868499D01*
X135131501Y-128981745D01*
X135220471Y-129114899D01*
X135281758Y-129262858D01*
X135313000Y-129419925D01*
X135313000Y-129580075D01*
X135281758Y-129737142D01*
X135220471Y-129885101D01*
X135131501Y-130018255D01*
X135018255Y-130131501D01*
X134885101Y-130220471D01*
X134737142Y-130281758D01*
X134580075Y-130313000D01*
X134419925Y-130313000D01*
X134262858Y-130281758D01*
X134114899Y-130220471D01*
X133981745Y-130131501D01*
X133868499Y-130018255D01*
X133779529Y-129885101D01*
X133718242Y-129737142D01*
X133687000Y-129580075D01*
X133687000Y-129419925D01*
X133718242Y-129262858D01*
X133779529Y-129114899D01*
X133868499Y-128981745D01*
X133981745Y-128868499D01*
X134114899Y-128779529D01*
X134262858Y-128718242D01*
X134419925Y-128687000D01*
X134580075Y-128687000D01*
X134737142Y-128718242D01*
G37*
G36*
X124737142Y-128718242D02*
G01*
X124885101Y-128779529D01*
X125018255Y-128868499D01*
X125131501Y-128981745D01*
X125220471Y-129114899D01*
X125281758Y-129262858D01*
X125313000Y-129419925D01*
X125313000Y-129580075D01*
X125281758Y-129737142D01*
X125220471Y-129885101D01*
X125131501Y-130018255D01*
X125018255Y-130131501D01*
X124885101Y-130220471D01*
X124737142Y-130281758D01*
X124580075Y-130313000D01*
X124419925Y-130313000D01*
X124262858Y-130281758D01*
X124114899Y-130220471D01*
X123981745Y-130131501D01*
X123868499Y-130018255D01*
X123779529Y-129885101D01*
X123718242Y-129737142D01*
X123687000Y-129580075D01*
X123687000Y-129419925D01*
X123718242Y-129262858D01*
X123779529Y-129114899D01*
X123868499Y-128981745D01*
X123981745Y-128868499D01*
X124114899Y-128779529D01*
X124262858Y-128718242D01*
X124419925Y-128687000D01*
X124580075Y-128687000D01*
X124737142Y-128718242D01*
G37*
G36*
X144527395Y-126555546D02*
G01*
X144700466Y-126627234D01*
X144700467Y-126627235D01*
X144856227Y-126731310D01*
X144988690Y-126863773D01*
X144988691Y-126863775D01*
X145092766Y-127019534D01*
X145164454Y-127192605D01*
X145201000Y-127376333D01*
X145201000Y-127563667D01*
X145164454Y-127747395D01*
X145092766Y-127920466D01*
X145092765Y-127920467D01*
X144988690Y-128076227D01*
X144856227Y-128208690D01*
X144777818Y-128261081D01*
X144700466Y-128312766D01*
X144527395Y-128384454D01*
X144343667Y-128421000D01*
X144156333Y-128421000D01*
X143972605Y-128384454D01*
X143799534Y-128312766D01*
X143722182Y-128261081D01*
X143643773Y-128208690D01*
X143511310Y-128076227D01*
X143407235Y-127920467D01*
X143407234Y-127920466D01*
X143335546Y-127747395D01*
X143299000Y-127563667D01*
X143299000Y-127376333D01*
X143335546Y-127192605D01*
X143407234Y-127019534D01*
X143511309Y-126863775D01*
X143511310Y-126863773D01*
X143643773Y-126731310D01*
X143799533Y-126627235D01*
X143799534Y-126627234D01*
X143972605Y-126555546D01*
X144156333Y-126519000D01*
X144343667Y-126519000D01*
X144527395Y-126555546D01*
G37*
G36*
X162737142Y-126218242D02*
G01*
X162885101Y-126279529D01*
X163018255Y-126368499D01*
X163131501Y-126481745D01*
X163220471Y-126614899D01*
X163281758Y-126762858D01*
X163313000Y-126919925D01*
X163313000Y-127080075D01*
X163281758Y-127237142D01*
X163220471Y-127385101D01*
X163131501Y-127518255D01*
X163018255Y-127631501D01*
X162885101Y-127720471D01*
X162737142Y-127781758D01*
X162580075Y-127813000D01*
X162419925Y-127813000D01*
X162262858Y-127781758D01*
X162114899Y-127720471D01*
X161981745Y-127631501D01*
X161868499Y-127518255D01*
X161779529Y-127385101D01*
X161718242Y-127237142D01*
X161687000Y-127080075D01*
X161687000Y-126919925D01*
X161718242Y-126762858D01*
X161779529Y-126614899D01*
X161868499Y-126481745D01*
X161981745Y-126368499D01*
X162114899Y-126279529D01*
X162262858Y-126218242D01*
X162419925Y-126187000D01*
X162580075Y-126187000D01*
X162737142Y-126218242D01*
G37*
G36*
X165277142Y-126218242D02*
G01*
X165425101Y-126279529D01*
X165558255Y-126368499D01*
X165671501Y-126481745D01*
X165760471Y-126614899D01*
X165821758Y-126762858D01*
X165853000Y-126919925D01*
X165853000Y-127080075D01*
X165821758Y-127237142D01*
X165760471Y-127385101D01*
X165671501Y-127518255D01*
X165558255Y-127631501D01*
X165425101Y-127720471D01*
X165277142Y-127781758D01*
X165120075Y-127813000D01*
X164959925Y-127813000D01*
X164802858Y-127781758D01*
X164654899Y-127720471D01*
X164521745Y-127631501D01*
X164408499Y-127518255D01*
X164319529Y-127385101D01*
X164258242Y-127237142D01*
X164227000Y-127080075D01*
X164227000Y-126919925D01*
X164258242Y-126762858D01*
X164319529Y-126614899D01*
X164408499Y-126481745D01*
X164521745Y-126368499D01*
X164654899Y-126279529D01*
X164802858Y-126218242D01*
X164959925Y-126187000D01*
X165120075Y-126187000D01*
X165277142Y-126218242D01*
G37*
G36*
X124737142Y-126178242D02*
G01*
X124885101Y-126239529D01*
X125018255Y-126328499D01*
X125131501Y-126441745D01*
X125220471Y-126574899D01*
X125281758Y-126722858D01*
X125313000Y-126879925D01*
X125313000Y-127040075D01*
X125281758Y-127197142D01*
X125220471Y-127345101D01*
X125131501Y-127478255D01*
X125018255Y-127591501D01*
X124885101Y-127680471D01*
X124737142Y-127741758D01*
X124580075Y-127773000D01*
X124419925Y-127773000D01*
X124262858Y-127741758D01*
X124114899Y-127680471D01*
X123981745Y-127591501D01*
X123868499Y-127478255D01*
X123779529Y-127345101D01*
X123718242Y-127197142D01*
X123687000Y-127040075D01*
X123687000Y-126879925D01*
X123718242Y-126722858D01*
X123779529Y-126574899D01*
X123868499Y-126441745D01*
X123981745Y-126328499D01*
X124114899Y-126239529D01*
X124262858Y-126178242D01*
X124419925Y-126147000D01*
X124580075Y-126147000D01*
X124737142Y-126178242D01*
G37*
G36*
X134737142Y-126178242D02*
G01*
X134885101Y-126239529D01*
X135018255Y-126328499D01*
X135131501Y-126441745D01*
X135220471Y-126574899D01*
X135281758Y-126722858D01*
X135313000Y-126879925D01*
X135313000Y-127040075D01*
X135281758Y-127197142D01*
X135220471Y-127345101D01*
X135131501Y-127478255D01*
X135018255Y-127591501D01*
X134885101Y-127680471D01*
X134737142Y-127741758D01*
X134580075Y-127773000D01*
X134419925Y-127773000D01*
X134262858Y-127741758D01*
X134114899Y-127680471D01*
X133981745Y-127591501D01*
X133868499Y-127478255D01*
X133779529Y-127345101D01*
X133718242Y-127197142D01*
X133687000Y-127040075D01*
X133687000Y-126879925D01*
X133718242Y-126722858D01*
X133779529Y-126574899D01*
X133868499Y-126441745D01*
X133981745Y-126328499D01*
X134114899Y-126239529D01*
X134262858Y-126178242D01*
X134419925Y-126147000D01*
X134580075Y-126147000D01*
X134737142Y-126178242D01*
G37*
G36*
X105341000Y-126551000D02*
G01*
X100159000Y-126551000D01*
X100159000Y-124949000D01*
X105341000Y-124949000D01*
X105341000Y-126551000D01*
G37*
G36*
X116317395Y-123425546D02*
G01*
X116490466Y-123497234D01*
X116490467Y-123497235D01*
X116646227Y-123601310D01*
X116778690Y-123733773D01*
X116815258Y-123788501D01*
X116882766Y-123889534D01*
X116954454Y-124062605D01*
X116991000Y-124246333D01*
X116991000Y-124433667D01*
X116954454Y-124617395D01*
X116882766Y-124790466D01*
X116882765Y-124790467D01*
X116778690Y-124946227D01*
X116646227Y-125078690D01*
X116567818Y-125131081D01*
X116490466Y-125182766D01*
X116317395Y-125254454D01*
X116133667Y-125291000D01*
X115946333Y-125291000D01*
X115762605Y-125254454D01*
X115589534Y-125182766D01*
X115512182Y-125131081D01*
X115433773Y-125078690D01*
X115301310Y-124946227D01*
X115197235Y-124790467D01*
X115197234Y-124790466D01*
X115125546Y-124617395D01*
X115089000Y-124433667D01*
X115089000Y-124246333D01*
X115125546Y-124062605D01*
X115197234Y-123889534D01*
X115264742Y-123788501D01*
X115301310Y-123733773D01*
X115433773Y-123601310D01*
X115589533Y-123497235D01*
X115589534Y-123497234D01*
X115762605Y-123425546D01*
X115946333Y-123389000D01*
X116133667Y-123389000D01*
X116317395Y-123425546D01*
G37*
G36*
X124737142Y-123638242D02*
G01*
X124885101Y-123699529D01*
X125018255Y-123788499D01*
X125131501Y-123901745D01*
X125220471Y-124034899D01*
X125281758Y-124182858D01*
X125313000Y-124339925D01*
X125313000Y-124500075D01*
X125281758Y-124657142D01*
X125220471Y-124805101D01*
X125131501Y-124938255D01*
X125018255Y-125051501D01*
X124885101Y-125140471D01*
X124737142Y-125201758D01*
X124580075Y-125233000D01*
X124419925Y-125233000D01*
X124262858Y-125201758D01*
X124114899Y-125140471D01*
X123981745Y-125051501D01*
X123868499Y-124938255D01*
X123779529Y-124805101D01*
X123718242Y-124657142D01*
X123687000Y-124500075D01*
X123687000Y-124339925D01*
X123718242Y-124182858D01*
X123779529Y-124034899D01*
X123868499Y-123901745D01*
X123981745Y-123788499D01*
X124114899Y-123699529D01*
X124262858Y-123638242D01*
X124419925Y-123607000D01*
X124580075Y-123607000D01*
X124737142Y-123638242D01*
G37*
G36*
X189527395Y-119085546D02*
G01*
X189700466Y-119157234D01*
X189700467Y-119157235D01*
X189856227Y-119261310D01*
X189988690Y-119393773D01*
X189988691Y-119393775D01*
X190092766Y-119549534D01*
X190164454Y-119722605D01*
X190201000Y-119906333D01*
X190201000Y-120093667D01*
X190164454Y-120277395D01*
X190092766Y-120450466D01*
X190092765Y-120450467D01*
X189988690Y-120606227D01*
X189856227Y-120738690D01*
X189777818Y-120791081D01*
X189700466Y-120842766D01*
X189527395Y-120914454D01*
X189343667Y-120951000D01*
X189156333Y-120951000D01*
X188972605Y-120914454D01*
X188799534Y-120842766D01*
X188722182Y-120791081D01*
X188643773Y-120738690D01*
X188511310Y-120606227D01*
X188407235Y-120450467D01*
X188407234Y-120450466D01*
X188335546Y-120277395D01*
X188299000Y-120093667D01*
X188299000Y-119906333D01*
X188335546Y-119722605D01*
X188407234Y-119549534D01*
X188511309Y-119393775D01*
X188511310Y-119393773D01*
X188643773Y-119261310D01*
X188799533Y-119157235D01*
X188799534Y-119157234D01*
X188972605Y-119085546D01*
X189156333Y-119049000D01*
X189343667Y-119049000D01*
X189527395Y-119085546D01*
G37*
G36*
X199841000Y-119801000D02*
G01*
X194659000Y-119801000D01*
X194659000Y-118199000D01*
X199841000Y-118199000D01*
X199841000Y-119801000D01*
G37*
G36*
X105341000Y-118051000D02*
G01*
X100159000Y-118051000D01*
X100159000Y-116449000D01*
X105341000Y-116449000D01*
X105341000Y-118051000D01*
G37*
G36*
X161187395Y-113625546D02*
G01*
X161360466Y-113697234D01*
X161360467Y-113697235D01*
X161516227Y-113801310D01*
X161648690Y-113933773D01*
X161648691Y-113933775D01*
X161752766Y-114089534D01*
X161824454Y-114262605D01*
X161861000Y-114446333D01*
X161861000Y-114633667D01*
X161824454Y-114817395D01*
X161752766Y-114990466D01*
X161752765Y-114990467D01*
X161648690Y-115146227D01*
X161516227Y-115278690D01*
X161437818Y-115331081D01*
X161360466Y-115382766D01*
X161187395Y-115454454D01*
X161003667Y-115491000D01*
X160816333Y-115491000D01*
X160632605Y-115454454D01*
X160459534Y-115382766D01*
X160382182Y-115331081D01*
X160303773Y-115278690D01*
X160171310Y-115146227D01*
X160067235Y-114990467D01*
X160067234Y-114990466D01*
X159995546Y-114817395D01*
X159959000Y-114633667D01*
X159959000Y-114446333D01*
X159995546Y-114262605D01*
X160067234Y-114089534D01*
X160171309Y-113933775D01*
X160171310Y-113933773D01*
X160303773Y-113801310D01*
X160459533Y-113697235D01*
X160459534Y-113697234D01*
X160632605Y-113625546D01*
X160816333Y-113589000D01*
X161003667Y-113589000D01*
X161187395Y-113625546D01*
G37*
G36*
X111437534Y-110057643D02*
G01*
X111710515Y-110170716D01*
X111710517Y-110170717D01*
X111834190Y-110253353D01*
X111956193Y-110334873D01*
X112165127Y-110543807D01*
X112329284Y-110789485D01*
X112442357Y-111062466D01*
X112500000Y-111352262D01*
X112500000Y-111647738D01*
X112442357Y-111937534D01*
X112377685Y-112093665D01*
X112329283Y-112210517D01*
X112246647Y-112334190D01*
X112168954Y-112450466D01*
X112165126Y-112456194D01*
X111956194Y-112665126D01*
X111710517Y-112829283D01*
X111710516Y-112829284D01*
X111710515Y-112829284D01*
X111437534Y-112942357D01*
X111147738Y-113000000D01*
X110852262Y-113000000D01*
X110562466Y-112942357D01*
X110289485Y-112829284D01*
X110289484Y-112829284D01*
X110289483Y-112829283D01*
X110043806Y-112665126D01*
X109834874Y-112456194D01*
X109831047Y-112450466D01*
X109753353Y-112334190D01*
X109670717Y-112210517D01*
X109622315Y-112093665D01*
X109557643Y-111937534D01*
X109500000Y-111647738D01*
X109500000Y-111352262D01*
X109557643Y-111062466D01*
X109670716Y-110789485D01*
X109834873Y-110543807D01*
X110043807Y-110334873D01*
X110165810Y-110253353D01*
X110289483Y-110170717D01*
X110289485Y-110170716D01*
X110562466Y-110057643D01*
X110852262Y-110000000D01*
X111147738Y-110000000D01*
X111437534Y-110057643D01*
G37*
G36*
X168807395Y-111085546D02*
G01*
X168980466Y-111157234D01*
X168980467Y-111157235D01*
X169136227Y-111261310D01*
X169268690Y-111393773D01*
X169268691Y-111393775D01*
X169372766Y-111549534D01*
X169444454Y-111722605D01*
X169481000Y-111906333D01*
X169481000Y-112093667D01*
X169444454Y-112277395D01*
X169372766Y-112450466D01*
X169321081Y-112527818D01*
X169268690Y-112606227D01*
X169136227Y-112738690D01*
X169057818Y-112791081D01*
X168980466Y-112842766D01*
X168807395Y-112914454D01*
X168623667Y-112951000D01*
X168436333Y-112951000D01*
X168252605Y-112914454D01*
X168079534Y-112842766D01*
X168002182Y-112791081D01*
X167923773Y-112738690D01*
X167791310Y-112606227D01*
X167738919Y-112527818D01*
X167687234Y-112450466D01*
X167615546Y-112277395D01*
X167579000Y-112093667D01*
X167579000Y-111906333D01*
X167615546Y-111722605D01*
X167687234Y-111549534D01*
X167791309Y-111393775D01*
X167791310Y-111393773D01*
X167923773Y-111261310D01*
X168079533Y-111157235D01*
X168079534Y-111157234D01*
X168252605Y-111085546D01*
X168436333Y-111049000D01*
X168623667Y-111049000D01*
X168807395Y-111085546D01*
G37*
G36*
X151027395Y-111085546D02*
G01*
X151200466Y-111157234D01*
X151200467Y-111157235D01*
X151356227Y-111261310D01*
X151488690Y-111393773D01*
X151488691Y-111393775D01*
X151592766Y-111549534D01*
X151664454Y-111722605D01*
X151701000Y-111906333D01*
X151701000Y-112093667D01*
X151664454Y-112277395D01*
X151592766Y-112450466D01*
X151541081Y-112527818D01*
X151488690Y-112606227D01*
X151356227Y-112738690D01*
X151277818Y-112791081D01*
X151200466Y-112842766D01*
X151027395Y-112914454D01*
X150843667Y-112951000D01*
X150656333Y-112951000D01*
X150472605Y-112914454D01*
X150299534Y-112842766D01*
X150222182Y-112791081D01*
X150143773Y-112738690D01*
X150011310Y-112606227D01*
X149958919Y-112527818D01*
X149907234Y-112450466D01*
X149835546Y-112277395D01*
X149799000Y-112093667D01*
X149799000Y-111906333D01*
X149835546Y-111722605D01*
X149907234Y-111549534D01*
X150011309Y-111393775D01*
X150011310Y-111393773D01*
X150143773Y-111261310D01*
X150299533Y-111157235D01*
X150299534Y-111157234D01*
X150472605Y-111085546D01*
X150656333Y-111049000D01*
X150843667Y-111049000D01*
X151027395Y-111085546D01*
G37*
G36*
X199841000Y-111301000D02*
G01*
X194659000Y-111301000D01*
X194659000Y-109699000D01*
X199841000Y-109699000D01*
X199841000Y-111301000D01*
G37*
G36*
X144437534Y-108057643D02*
G01*
X144710515Y-108170716D01*
X144710517Y-108170717D01*
X144956194Y-108334874D01*
X145165126Y-108543806D01*
X145289850Y-108730467D01*
X145329284Y-108789485D01*
X145442357Y-109062466D01*
X145500000Y-109352262D01*
X145500000Y-109647738D01*
X145442357Y-109937534D01*
X145345769Y-110170716D01*
X145329283Y-110210517D01*
X145165126Y-110456194D01*
X144956194Y-110665126D01*
X144710517Y-110829283D01*
X144710516Y-110829284D01*
X144710515Y-110829284D01*
X144437534Y-110942357D01*
X144147738Y-111000000D01*
X143852262Y-111000000D01*
X143562466Y-110942357D01*
X143289485Y-110829284D01*
X143289484Y-110829284D01*
X143289483Y-110829283D01*
X143043806Y-110665126D01*
X142834874Y-110456194D01*
X142670717Y-110210517D01*
X142654231Y-110170716D01*
X142557643Y-109937534D01*
X142500000Y-109647738D01*
X142500000Y-109352262D01*
X142557643Y-109062466D01*
X142670716Y-108789485D01*
X142710151Y-108730467D01*
X142834874Y-108543806D01*
X143043806Y-108334874D01*
X143289483Y-108170717D01*
X143289485Y-108170716D01*
X143562466Y-108057643D01*
X143852262Y-108000000D01*
X144147738Y-108000000D01*
X144437534Y-108057643D01*
G37*
G36*
X139601000Y-109451000D02*
G01*
X137399000Y-109451000D01*
X137399000Y-107249000D01*
X139601000Y-107249000D01*
X139601000Y-109451000D01*
G37*
G36*
X128527395Y-107365546D02*
G01*
X128700466Y-107437234D01*
X128777818Y-107488919D01*
X128856227Y-107541310D01*
X128988690Y-107673773D01*
X128988691Y-107673775D01*
X129092766Y-107829534D01*
X129164454Y-108002605D01*
X129201000Y-108186333D01*
X129201000Y-108373667D01*
X129164454Y-108557395D01*
X129092766Y-108730466D01*
X129092765Y-108730467D01*
X128988690Y-108886227D01*
X128856227Y-109018690D01*
X128790711Y-109062466D01*
X128700466Y-109122766D01*
X128527395Y-109194454D01*
X128343667Y-109231000D01*
X128156333Y-109231000D01*
X127972605Y-109194454D01*
X127799534Y-109122766D01*
X127709289Y-109062466D01*
X127643773Y-109018690D01*
X127511310Y-108886227D01*
X127407235Y-108730467D01*
X127407234Y-108730466D01*
X127335546Y-108557395D01*
X127299000Y-108373667D01*
X127299000Y-108186333D01*
X127335546Y-108002605D01*
X127407234Y-107829534D01*
X127511309Y-107673775D01*
X127511310Y-107673773D01*
X127643773Y-107541310D01*
X127722182Y-107488919D01*
X127799534Y-107437234D01*
X127972605Y-107365546D01*
X128156333Y-107329000D01*
X128343667Y-107329000D01*
X128527395Y-107365546D01*
G37*
G36*
X166752142Y-105968242D02*
G01*
X166900101Y-106029529D01*
X167033255Y-106118499D01*
X167146501Y-106231745D01*
X167235471Y-106364899D01*
X167296758Y-106512858D01*
X167328000Y-106669925D01*
X167328000Y-106830075D01*
X167296758Y-106987142D01*
X167235471Y-107135101D01*
X167146501Y-107268255D01*
X167033255Y-107381501D01*
X166900101Y-107470471D01*
X166752142Y-107531758D01*
X166595075Y-107563000D01*
X166434925Y-107563000D01*
X166277858Y-107531758D01*
X166129899Y-107470471D01*
X165996745Y-107381501D01*
X165883499Y-107268255D01*
X165794529Y-107135101D01*
X165733242Y-106987142D01*
X165702000Y-106830075D01*
X165702000Y-106669925D01*
X165733242Y-106512858D01*
X165794529Y-106364899D01*
X165883499Y-106231745D01*
X165996745Y-106118499D01*
X166129899Y-106029529D01*
X166277858Y-105968242D01*
X166434925Y-105937000D01*
X166595075Y-105937000D01*
X166752142Y-105968242D01*
G37*
G36*
X176752142Y-105968242D02*
G01*
X176900101Y-106029529D01*
X177033255Y-106118499D01*
X177146501Y-106231745D01*
X177235471Y-106364899D01*
X177296758Y-106512858D01*
X177328000Y-106669925D01*
X177328000Y-106830075D01*
X177296758Y-106987142D01*
X177235471Y-107135101D01*
X177146501Y-107268255D01*
X177033255Y-107381501D01*
X176900101Y-107470471D01*
X176752142Y-107531758D01*
X176595075Y-107563000D01*
X176434925Y-107563000D01*
X176277858Y-107531758D01*
X176129899Y-107470471D01*
X175996745Y-107381501D01*
X175883499Y-107268255D01*
X175794529Y-107135101D01*
X175733242Y-106987142D01*
X175702000Y-106830075D01*
X175702000Y-106669925D01*
X175733242Y-106512858D01*
X175794529Y-106364899D01*
X175883499Y-106231745D01*
X175996745Y-106118499D01*
X176129899Y-106029529D01*
X176277858Y-105968242D01*
X176434925Y-105937000D01*
X176595075Y-105937000D01*
X176752142Y-105968242D01*
G37*
G36*
X138705240Y-104728255D02*
G01*
X138821150Y-104751311D01*
X138921334Y-104792809D01*
X139021520Y-104834307D01*
X139201844Y-104954795D01*
X139355205Y-105108156D01*
X139475693Y-105288480D01*
X139558689Y-105488851D01*
X139601000Y-105701560D01*
X139601000Y-105918440D01*
X139558689Y-106131149D01*
X139475693Y-106331520D01*
X139355205Y-106511844D01*
X139201844Y-106665205D01*
X139021520Y-106785693D01*
X138821150Y-106868689D01*
X138714795Y-106889844D01*
X138608440Y-106911000D01*
X138391560Y-106911000D01*
X138285205Y-106889844D01*
X138178850Y-106868689D01*
X137978480Y-106785693D01*
X137798156Y-106665205D01*
X137644795Y-106511844D01*
X137524307Y-106331520D01*
X137441311Y-106131149D01*
X137399000Y-105918440D01*
X137399000Y-105701560D01*
X137441311Y-105488851D01*
X137524307Y-105288480D01*
X137644795Y-105108156D01*
X137798156Y-104954795D01*
X137978480Y-104834307D01*
X138078666Y-104792809D01*
X138178850Y-104751311D01*
X138294760Y-104728255D01*
X138391560Y-104709000D01*
X138608440Y-104709000D01*
X138705240Y-104728255D01*
G37*
G36*
X166752142Y-103428242D02*
G01*
X166900101Y-103489529D01*
X167033255Y-103578499D01*
X167146501Y-103691745D01*
X167235471Y-103824899D01*
X167296758Y-103972858D01*
X167328000Y-104129925D01*
X167328000Y-104290075D01*
X167296758Y-104447142D01*
X167235471Y-104595101D01*
X167146501Y-104728255D01*
X167033255Y-104841501D01*
X166900101Y-104930471D01*
X166752142Y-104991758D01*
X166595075Y-105023000D01*
X166434925Y-105023000D01*
X166277858Y-104991758D01*
X166129899Y-104930471D01*
X165996745Y-104841501D01*
X165883499Y-104728255D01*
X165794529Y-104595101D01*
X165733242Y-104447142D01*
X165702000Y-104290075D01*
X165702000Y-104129925D01*
X165733242Y-103972858D01*
X165794529Y-103824899D01*
X165883499Y-103691745D01*
X165996745Y-103578499D01*
X166129899Y-103489529D01*
X166277858Y-103428242D01*
X166434925Y-103397000D01*
X166595075Y-103397000D01*
X166752142Y-103428242D01*
G37*
G36*
X176752142Y-103428242D02*
G01*
X176900101Y-103489529D01*
X177033255Y-103578499D01*
X177146501Y-103691745D01*
X177235471Y-103824899D01*
X177296758Y-103972858D01*
X177328000Y-104129925D01*
X177328000Y-104290075D01*
X177296758Y-104447142D01*
X177235471Y-104595101D01*
X177146501Y-104728255D01*
X177033255Y-104841501D01*
X176900101Y-104930471D01*
X176752142Y-104991758D01*
X176595075Y-105023000D01*
X176434925Y-105023000D01*
X176277858Y-104991758D01*
X176129899Y-104930471D01*
X175996745Y-104841501D01*
X175883499Y-104728255D01*
X175794529Y-104595101D01*
X175733242Y-104447142D01*
X175702000Y-104290075D01*
X175702000Y-104129925D01*
X175733242Y-103972858D01*
X175794529Y-103824899D01*
X175883499Y-103691745D01*
X175996745Y-103578499D01*
X176129899Y-103489529D01*
X176277858Y-103428242D01*
X176434925Y-103397000D01*
X176595075Y-103397000D01*
X176752142Y-103428242D01*
G37*
G36*
X166752142Y-100888242D02*
G01*
X166900101Y-100949529D01*
X167033255Y-101038499D01*
X167146501Y-101151745D01*
X167235471Y-101284899D01*
X167296758Y-101432858D01*
X167328000Y-101589925D01*
X167328000Y-101750075D01*
X167296758Y-101907142D01*
X167235471Y-102055101D01*
X167146501Y-102188255D01*
X167033255Y-102301501D01*
X166900101Y-102390471D01*
X166752142Y-102451758D01*
X166595075Y-102483000D01*
X166434925Y-102483000D01*
X166277858Y-102451758D01*
X166129899Y-102390471D01*
X165996745Y-102301501D01*
X165883499Y-102188255D01*
X165794529Y-102055101D01*
X165733242Y-101907142D01*
X165702000Y-101750075D01*
X165702000Y-101589925D01*
X165733242Y-101432858D01*
X165794529Y-101284899D01*
X165883499Y-101151745D01*
X165996745Y-101038499D01*
X166129899Y-100949529D01*
X166277858Y-100888242D01*
X166434925Y-100857000D01*
X166595075Y-100857000D01*
X166752142Y-100888242D01*
G37*
G36*
X125987395Y-99745546D02*
G01*
X126160466Y-99817234D01*
X126160467Y-99817235D01*
X126316227Y-99921310D01*
X126448690Y-100053773D01*
X126472021Y-100088691D01*
X126552766Y-100209534D01*
X126624454Y-100382605D01*
X126661000Y-100566333D01*
X126661000Y-100753667D01*
X126624454Y-100937395D01*
X126552766Y-101110466D01*
X126525184Y-101151745D01*
X126448690Y-101266227D01*
X126316227Y-101398690D01*
X126265092Y-101432857D01*
X126160466Y-101502766D01*
X125987395Y-101574454D01*
X125803667Y-101611000D01*
X125616333Y-101611000D01*
X125432605Y-101574454D01*
X125259534Y-101502766D01*
X125154908Y-101432857D01*
X125103773Y-101398690D01*
X124971310Y-101266227D01*
X124894816Y-101151745D01*
X124867234Y-101110466D01*
X124795546Y-100937395D01*
X124759000Y-100753667D01*
X124759000Y-100566333D01*
X124795546Y-100382605D01*
X124867234Y-100209534D01*
X124947979Y-100088691D01*
X124971310Y-100053773D01*
X125103773Y-99921310D01*
X125259533Y-99817235D01*
X125259534Y-99817234D01*
X125432605Y-99745546D01*
X125616333Y-99709000D01*
X125803667Y-99709000D01*
X125987395Y-99745546D01*
G37*
G36*
X142777395Y-98435546D02*
G01*
X142950466Y-98507234D01*
X142950467Y-98507235D01*
X143106227Y-98611310D01*
X143238690Y-98743773D01*
X143281284Y-98807520D01*
X143342766Y-98899534D01*
X143414454Y-99072605D01*
X143451000Y-99256333D01*
X143451000Y-99443667D01*
X143414454Y-99627395D01*
X143342766Y-99800466D01*
X143342765Y-99800467D01*
X143238690Y-99956227D01*
X143106227Y-100088690D01*
X143083092Y-100104148D01*
X142950466Y-100192766D01*
X142777395Y-100264454D01*
X142593667Y-100301000D01*
X142406333Y-100301000D01*
X142222605Y-100264454D01*
X142049534Y-100192766D01*
X141916908Y-100104148D01*
X141893773Y-100088690D01*
X141761310Y-99956227D01*
X141657235Y-99800467D01*
X141657234Y-99800466D01*
X141585546Y-99627395D01*
X141549000Y-99443667D01*
X141549000Y-99256333D01*
X141585546Y-99072605D01*
X141657234Y-98899534D01*
X141718716Y-98807520D01*
X141761310Y-98743773D01*
X141893773Y-98611310D01*
X142049533Y-98507235D01*
X142049534Y-98507234D01*
X142222605Y-98435546D01*
X142406333Y-98399000D01*
X142593667Y-98399000D01*
X142777395Y-98435546D01*
G37*
G36*
X138248228Y-98531703D02*
G01*
X138403100Y-98595853D01*
X138542481Y-98688985D01*
X138661015Y-98807519D01*
X138754147Y-98946900D01*
X138818297Y-99101772D01*
X138851000Y-99266184D01*
X138851000Y-99433816D01*
X138818297Y-99598228D01*
X138754147Y-99753100D01*
X138661015Y-99892481D01*
X138542481Y-100011015D01*
X138403100Y-100104147D01*
X138248228Y-100168297D01*
X138083816Y-100201000D01*
X137916184Y-100201000D01*
X137751772Y-100168297D01*
X137596900Y-100104147D01*
X137457519Y-100011015D01*
X137338985Y-99892481D01*
X137245853Y-99753100D01*
X137181703Y-99598228D01*
X137149000Y-99433816D01*
X137149000Y-99266184D01*
X137181703Y-99101772D01*
X137245853Y-98946900D01*
X137338985Y-98807519D01*
X137457519Y-98688985D01*
X137596900Y-98595853D01*
X137751772Y-98531703D01*
X137916184Y-98499000D01*
X138083816Y-98499000D01*
X138248228Y-98531703D01*
G37*
G36*
X119987142Y-97048242D02*
G01*
X120135101Y-97109529D01*
X120268255Y-97198499D01*
X120381501Y-97311745D01*
X120470471Y-97444899D01*
X120531758Y-97592858D01*
X120563000Y-97749925D01*
X120563000Y-97910075D01*
X120531758Y-98067142D01*
X120470471Y-98215101D01*
X120381501Y-98348255D01*
X120268255Y-98461501D01*
X120135101Y-98550471D01*
X119987142Y-98611758D01*
X119830075Y-98643000D01*
X119669925Y-98643000D01*
X119512858Y-98611758D01*
X119364899Y-98550471D01*
X119231745Y-98461501D01*
X119118499Y-98348255D01*
X119029529Y-98215101D01*
X118968242Y-98067142D01*
X118937000Y-97910075D01*
X118937000Y-97749925D01*
X118968242Y-97592858D01*
X119029529Y-97444899D01*
X119118499Y-97311745D01*
X119231745Y-97198499D01*
X119364899Y-97109529D01*
X119512858Y-97048242D01*
X119669925Y-97017000D01*
X119830075Y-97017000D01*
X119987142Y-97048242D01*
G37*
G36*
X105341000Y-97801000D02*
G01*
X100159000Y-97801000D01*
X100159000Y-96199000D01*
X105341000Y-96199000D01*
X105341000Y-97801000D01*
G37*
G36*
X119987142Y-94508242D02*
G01*
X120135101Y-94569529D01*
X120268255Y-94658499D01*
X120381501Y-94771745D01*
X120470471Y-94904899D01*
X120531758Y-95052858D01*
X120563000Y-95209925D01*
X120563000Y-95370075D01*
X120531758Y-95527142D01*
X120470471Y-95675101D01*
X120381501Y-95808255D01*
X120268255Y-95921501D01*
X120135101Y-96010471D01*
X119987142Y-96071758D01*
X119830075Y-96103000D01*
X119669925Y-96103000D01*
X119512858Y-96071758D01*
X119364899Y-96010471D01*
X119231745Y-95921501D01*
X119118499Y-95808255D01*
X119029529Y-95675101D01*
X118968242Y-95527142D01*
X118937000Y-95370075D01*
X118937000Y-95209925D01*
X118968242Y-95052858D01*
X119029529Y-94904899D01*
X119118499Y-94771745D01*
X119231745Y-94658499D01*
X119364899Y-94569529D01*
X119512858Y-94508242D01*
X119669925Y-94477000D01*
X119830075Y-94477000D01*
X119987142Y-94508242D01*
G37*
G36*
X109987142Y-94508242D02*
G01*
X110135101Y-94569529D01*
X110268255Y-94658499D01*
X110381501Y-94771745D01*
X110470471Y-94904899D01*
X110531758Y-95052858D01*
X110563000Y-95209925D01*
X110563000Y-95370075D01*
X110531758Y-95527142D01*
X110470471Y-95675101D01*
X110381501Y-95808255D01*
X110268255Y-95921501D01*
X110135101Y-96010471D01*
X109987142Y-96071758D01*
X109830075Y-96103000D01*
X109669925Y-96103000D01*
X109512858Y-96071758D01*
X109364899Y-96010471D01*
X109231745Y-95921501D01*
X109118499Y-95808255D01*
X109029529Y-95675101D01*
X108968242Y-95527142D01*
X108937000Y-95370075D01*
X108937000Y-95209925D01*
X108968242Y-95052858D01*
X109029529Y-94904899D01*
X109118499Y-94771745D01*
X109231745Y-94658499D01*
X109364899Y-94569529D01*
X109512858Y-94508242D01*
X109669925Y-94477000D01*
X109830075Y-94477000D01*
X109987142Y-94508242D01*
G37*
G36*
X176752142Y-93953242D02*
G01*
X176900101Y-94014529D01*
X177033255Y-94103499D01*
X177146501Y-94216745D01*
X177235471Y-94349899D01*
X177296758Y-94497858D01*
X177328000Y-94654925D01*
X177328000Y-94815075D01*
X177296758Y-94972142D01*
X177235471Y-95120101D01*
X177146501Y-95253255D01*
X177033255Y-95366501D01*
X176900101Y-95455471D01*
X176752142Y-95516758D01*
X176595075Y-95548000D01*
X176434925Y-95548000D01*
X176277858Y-95516758D01*
X176129899Y-95455471D01*
X175996745Y-95366501D01*
X175883499Y-95253255D01*
X175794529Y-95120101D01*
X175733242Y-94972142D01*
X175702000Y-94815075D01*
X175702000Y-94654925D01*
X175733242Y-94497858D01*
X175794529Y-94349899D01*
X175883499Y-94216745D01*
X175996745Y-94103499D01*
X176129899Y-94014529D01*
X176277858Y-93953242D01*
X176434925Y-93922000D01*
X176595075Y-93922000D01*
X176752142Y-93953242D01*
G37*
G36*
X166752142Y-93953242D02*
G01*
X166900101Y-94014529D01*
X167033255Y-94103499D01*
X167146501Y-94216745D01*
X167235471Y-94349899D01*
X167296758Y-94497858D01*
X167328000Y-94654925D01*
X167328000Y-94815075D01*
X167296758Y-94972142D01*
X167235471Y-95120101D01*
X167146501Y-95253255D01*
X167033255Y-95366501D01*
X166900101Y-95455471D01*
X166752142Y-95516758D01*
X166595075Y-95548000D01*
X166434925Y-95548000D01*
X166277858Y-95516758D01*
X166129899Y-95455471D01*
X165996745Y-95366501D01*
X165883499Y-95253255D01*
X165794529Y-95120101D01*
X165733242Y-94972142D01*
X165702000Y-94815075D01*
X165702000Y-94654925D01*
X165733242Y-94497858D01*
X165794529Y-94349899D01*
X165883499Y-94216745D01*
X165996745Y-94103499D01*
X166129899Y-94014529D01*
X166277858Y-93953242D01*
X166434925Y-93922000D01*
X166595075Y-93922000D01*
X166752142Y-93953242D01*
G37*
G36*
X109987142Y-91968242D02*
G01*
X110135101Y-92029529D01*
X110268255Y-92118499D01*
X110381501Y-92231745D01*
X110470471Y-92364899D01*
X110531758Y-92512858D01*
X110563000Y-92669925D01*
X110563000Y-92830075D01*
X110531758Y-92987142D01*
X110470471Y-93135101D01*
X110381501Y-93268255D01*
X110268255Y-93381501D01*
X110135101Y-93470471D01*
X109987142Y-93531758D01*
X109830075Y-93563000D01*
X109669925Y-93563000D01*
X109512858Y-93531758D01*
X109364899Y-93470471D01*
X109231745Y-93381501D01*
X109118499Y-93268255D01*
X109029529Y-93135101D01*
X108968242Y-92987142D01*
X108937000Y-92830075D01*
X108937000Y-92669925D01*
X108968242Y-92512858D01*
X109029529Y-92364899D01*
X109118499Y-92231745D01*
X109231745Y-92118499D01*
X109364899Y-92029529D01*
X109512858Y-91968242D01*
X109669925Y-91937000D01*
X109830075Y-91937000D01*
X109987142Y-91968242D01*
G37*
G36*
X119987142Y-91968242D02*
G01*
X120135101Y-92029529D01*
X120268255Y-92118499D01*
X120381501Y-92231745D01*
X120470471Y-92364899D01*
X120531758Y-92512858D01*
X120563000Y-92669925D01*
X120563000Y-92830075D01*
X120531758Y-92987142D01*
X120470471Y-93135101D01*
X120381501Y-93268255D01*
X120268255Y-93381501D01*
X120135101Y-93470471D01*
X119987142Y-93531758D01*
X119830075Y-93563000D01*
X119669925Y-93563000D01*
X119512858Y-93531758D01*
X119364899Y-93470471D01*
X119231745Y-93381501D01*
X119118499Y-93268255D01*
X119029529Y-93135101D01*
X118968242Y-92987142D01*
X118937000Y-92830075D01*
X118937000Y-92669925D01*
X118968242Y-92512858D01*
X119029529Y-92364899D01*
X119118499Y-92231745D01*
X119231745Y-92118499D01*
X119364899Y-92029529D01*
X119512858Y-91968242D01*
X119669925Y-91937000D01*
X119830075Y-91937000D01*
X119987142Y-91968242D01*
G37*
G36*
X166752142Y-91413242D02*
G01*
X166900101Y-91474529D01*
X167033255Y-91563499D01*
X167146501Y-91676745D01*
X167235471Y-91809899D01*
X167296758Y-91957858D01*
X167328000Y-92114925D01*
X167328000Y-92275075D01*
X167296758Y-92432142D01*
X167235471Y-92580101D01*
X167146501Y-92713255D01*
X167033255Y-92826501D01*
X166900101Y-92915471D01*
X166752142Y-92976758D01*
X166595075Y-93008000D01*
X166434925Y-93008000D01*
X166277858Y-92976758D01*
X166129899Y-92915471D01*
X165996745Y-92826501D01*
X165883499Y-92713255D01*
X165794529Y-92580101D01*
X165733242Y-92432142D01*
X165702000Y-92275075D01*
X165702000Y-92114925D01*
X165733242Y-91957858D01*
X165794529Y-91809899D01*
X165883499Y-91676745D01*
X165996745Y-91563499D01*
X166129899Y-91474529D01*
X166277858Y-91413242D01*
X166434925Y-91382000D01*
X166595075Y-91382000D01*
X166752142Y-91413242D01*
G37*
G36*
X176752142Y-91413242D02*
G01*
X176900101Y-91474529D01*
X177033255Y-91563499D01*
X177146501Y-91676745D01*
X177235471Y-91809899D01*
X177296758Y-91957858D01*
X177328000Y-92114925D01*
X177328000Y-92275075D01*
X177296758Y-92432142D01*
X177235471Y-92580101D01*
X177146501Y-92713255D01*
X177033255Y-92826501D01*
X176900101Y-92915471D01*
X176752142Y-92976758D01*
X176595075Y-93008000D01*
X176434925Y-93008000D01*
X176277858Y-92976758D01*
X176129899Y-92915471D01*
X175996745Y-92826501D01*
X175883499Y-92713255D01*
X175794529Y-92580101D01*
X175733242Y-92432142D01*
X175702000Y-92275075D01*
X175702000Y-92114925D01*
X175733242Y-91957858D01*
X175794529Y-91809899D01*
X175883499Y-91676745D01*
X175996745Y-91563499D01*
X176129899Y-91474529D01*
X176277858Y-91413242D01*
X176434925Y-91382000D01*
X176595075Y-91382000D01*
X176752142Y-91413242D01*
G37*
G36*
X188437534Y-90057643D02*
G01*
X188710515Y-90170716D01*
X188710517Y-90170717D01*
X188956194Y-90334874D01*
X189165126Y-90543806D01*
X189321207Y-90777396D01*
X189329284Y-90789485D01*
X189442357Y-91062466D01*
X189500000Y-91352262D01*
X189500000Y-91647738D01*
X189442357Y-91937534D01*
X189329284Y-92210515D01*
X189165127Y-92456193D01*
X188956193Y-92665127D01*
X188884164Y-92713255D01*
X188710517Y-92829283D01*
X188710516Y-92829284D01*
X188710515Y-92829284D01*
X188437534Y-92942357D01*
X188147738Y-93000000D01*
X187852262Y-93000000D01*
X187562466Y-92942357D01*
X187289485Y-92829284D01*
X187289484Y-92829284D01*
X187289483Y-92829283D01*
X187115836Y-92713255D01*
X187043807Y-92665127D01*
X186834873Y-92456193D01*
X186670716Y-92210515D01*
X186557643Y-91937534D01*
X186500000Y-91647738D01*
X186500000Y-91352262D01*
X186557643Y-91062466D01*
X186670716Y-90789485D01*
X186678794Y-90777396D01*
X186834874Y-90543806D01*
X187043806Y-90334874D01*
X187289483Y-90170717D01*
X187289485Y-90170716D01*
X187562466Y-90057643D01*
X187852262Y-90000000D01*
X188147738Y-90000000D01*
X188437534Y-90057643D01*
G37*
G36*
X178521938Y-91881716D02*
G01*
X178542557Y-91887971D01*
X178561553Y-91898124D01*
X178578208Y-91911792D01*
X178591876Y-91928447D01*
X178602029Y-91947443D01*
X178608284Y-91968062D01*
X178611000Y-91995640D01*
X178611000Y-92504360D01*
X178608284Y-92531938D01*
X178602029Y-92552557D01*
X178591876Y-92571553D01*
X178578208Y-92588208D01*
X178561553Y-92601876D01*
X178542557Y-92612029D01*
X178521938Y-92618284D01*
X178494360Y-92621000D01*
X178035640Y-92621000D01*
X178008062Y-92618284D01*
X177987443Y-92612029D01*
X177968447Y-92601876D01*
X177951792Y-92588208D01*
X177938124Y-92571553D01*
X177927971Y-92552557D01*
X177921716Y-92531938D01*
X177919000Y-92504360D01*
X177919000Y-91995640D01*
X177921716Y-91968062D01*
X177927971Y-91947443D01*
X177938124Y-91928447D01*
X177951792Y-91911792D01*
X177968447Y-91898124D01*
X177987443Y-91887971D01*
X178008062Y-91881716D01*
X178035640Y-91879000D01*
X178494360Y-91879000D01*
X178521938Y-91881716D01*
G37*
G36*
X174036938Y-91881716D02*
G01*
X174057557Y-91887971D01*
X174076553Y-91898124D01*
X174093208Y-91911792D01*
X174106876Y-91928447D01*
X174117029Y-91947443D01*
X174123284Y-91968062D01*
X174126000Y-91995640D01*
X174126000Y-92504360D01*
X174123284Y-92531938D01*
X174117029Y-92552557D01*
X174106876Y-92571553D01*
X174093208Y-92588208D01*
X174076553Y-92601876D01*
X174057557Y-92612029D01*
X174036938Y-92618284D01*
X174009360Y-92621000D01*
X173550640Y-92621000D01*
X173523062Y-92618284D01*
X173502443Y-92612029D01*
X173483447Y-92601876D01*
X173466792Y-92588208D01*
X173453124Y-92571553D01*
X173442971Y-92552557D01*
X173436716Y-92531938D01*
X173434000Y-92504360D01*
X173434000Y-91995640D01*
X173436716Y-91968062D01*
X173442971Y-91947443D01*
X173453124Y-91928447D01*
X173466792Y-91911792D01*
X173483447Y-91898124D01*
X173502443Y-91887971D01*
X173523062Y-91881716D01*
X173550640Y-91879000D01*
X174009360Y-91879000D01*
X174036938Y-91881716D01*
G37*
G36*
X179491938Y-91881716D02*
G01*
X179512557Y-91887971D01*
X179531553Y-91898124D01*
X179548208Y-91911792D01*
X179561876Y-91928447D01*
X179572029Y-91947443D01*
X179578284Y-91968062D01*
X179581000Y-91995640D01*
X179581000Y-92504360D01*
X179578284Y-92531938D01*
X179572029Y-92552557D01*
X179561876Y-92571553D01*
X179548208Y-92588208D01*
X179531553Y-92601876D01*
X179512557Y-92612029D01*
X179491938Y-92618284D01*
X179464360Y-92621000D01*
X179005640Y-92621000D01*
X178978062Y-92618284D01*
X178957443Y-92612029D01*
X178938447Y-92601876D01*
X178921792Y-92588208D01*
X178908124Y-92571553D01*
X178897971Y-92552557D01*
X178891716Y-92531938D01*
X178889000Y-92504360D01*
X178889000Y-91995640D01*
X178891716Y-91968062D01*
X178897971Y-91947443D01*
X178908124Y-91928447D01*
X178921792Y-91911792D01*
X178938447Y-91898124D01*
X178957443Y-91887971D01*
X178978062Y-91881716D01*
X179005640Y-91879000D01*
X179464360Y-91879000D01*
X179491938Y-91881716D01*
G37*
G36*
X175006938Y-91881716D02*
G01*
X175027557Y-91887971D01*
X175046553Y-91898124D01*
X175063208Y-91911792D01*
X175076876Y-91928447D01*
X175087029Y-91947443D01*
X175093284Y-91968062D01*
X175096000Y-91995640D01*
X175096000Y-92504360D01*
X175093284Y-92531938D01*
X175087029Y-92552557D01*
X175076876Y-92571553D01*
X175063208Y-92588208D01*
X175046553Y-92601876D01*
X175027557Y-92612029D01*
X175006938Y-92618284D01*
X174979360Y-92621000D01*
X174520640Y-92621000D01*
X174493062Y-92618284D01*
X174472443Y-92612029D01*
X174453447Y-92601876D01*
X174436792Y-92588208D01*
X174423124Y-92571553D01*
X174412971Y-92552557D01*
X174406716Y-92531938D01*
X174404000Y-92504360D01*
X174404000Y-91995640D01*
X174406716Y-91968062D01*
X174412971Y-91947443D01*
X174423124Y-91928447D01*
X174436792Y-91911792D01*
X174453447Y-91898124D01*
X174472443Y-91887971D01*
X174493062Y-91881716D01*
X174520640Y-91879000D01*
X174979360Y-91879000D01*
X175006938Y-91881716D01*
G37*
G36*
X128527395Y-89585546D02*
G01*
X128700466Y-89657234D01*
X128700467Y-89657235D01*
X128856227Y-89761310D01*
X128988690Y-89893773D01*
X128988691Y-89893775D01*
X129092766Y-90049534D01*
X129164454Y-90222605D01*
X129201000Y-90406333D01*
X129201000Y-90593667D01*
X129164454Y-90777395D01*
X129092766Y-90950466D01*
X129092765Y-90950467D01*
X128988690Y-91106227D01*
X128856227Y-91238690D01*
X128777818Y-91291081D01*
X128700466Y-91342766D01*
X128527395Y-91414454D01*
X128343667Y-91451000D01*
X128156333Y-91451000D01*
X127972605Y-91414454D01*
X127799534Y-91342766D01*
X127722182Y-91291081D01*
X127643773Y-91238690D01*
X127511310Y-91106227D01*
X127407235Y-90950467D01*
X127407234Y-90950466D01*
X127335546Y-90777395D01*
X127299000Y-90593667D01*
X127299000Y-90406333D01*
X127335546Y-90222605D01*
X127407234Y-90049534D01*
X127511309Y-89893775D01*
X127511310Y-89893773D01*
X127643773Y-89761310D01*
X127799533Y-89657235D01*
X127799534Y-89657234D01*
X127972605Y-89585546D01*
X128156333Y-89549000D01*
X128343667Y-89549000D01*
X128527395Y-89585546D01*
G37*
G36*
X199841000Y-90801000D02*
G01*
X194659000Y-90801000D01*
X194659000Y-89199000D01*
X199841000Y-89199000D01*
X199841000Y-90801000D01*
G37*
G36*
X166752142Y-88873242D02*
G01*
X166900101Y-88934529D01*
X167033255Y-89023499D01*
X167146501Y-89136745D01*
X167235471Y-89269899D01*
X167296758Y-89417858D01*
X167328000Y-89574925D01*
X167328000Y-89735075D01*
X167296758Y-89892142D01*
X167235471Y-90040101D01*
X167146501Y-90173255D01*
X167033255Y-90286501D01*
X166900101Y-90375471D01*
X166752142Y-90436758D01*
X166595075Y-90468000D01*
X166434925Y-90468000D01*
X166277858Y-90436758D01*
X166129899Y-90375471D01*
X165996745Y-90286501D01*
X165883499Y-90173255D01*
X165794529Y-90040101D01*
X165733242Y-89892142D01*
X165702000Y-89735075D01*
X165702000Y-89574925D01*
X165733242Y-89417858D01*
X165794529Y-89269899D01*
X165883499Y-89136745D01*
X165996745Y-89023499D01*
X166129899Y-88934529D01*
X166277858Y-88873242D01*
X166434925Y-88842000D01*
X166595075Y-88842000D01*
X166752142Y-88873242D01*
G37*
G36*
X143451000Y-90141000D02*
G01*
X141549000Y-90141000D01*
X141549000Y-88239000D01*
X143451000Y-88239000D01*
X143451000Y-90141000D01*
G37*
G36*
X138248228Y-88371703D02*
G01*
X138403100Y-88435853D01*
X138542481Y-88528985D01*
X138661015Y-88647519D01*
X138754147Y-88786900D01*
X138818297Y-88941772D01*
X138851000Y-89106184D01*
X138851000Y-89273816D01*
X138818297Y-89438228D01*
X138754147Y-89593100D01*
X138661015Y-89732481D01*
X138542481Y-89851015D01*
X138403100Y-89944147D01*
X138248228Y-90008297D01*
X138083816Y-90041000D01*
X137916184Y-90041000D01*
X137751772Y-90008297D01*
X137596900Y-89944147D01*
X137457519Y-89851015D01*
X137338985Y-89732481D01*
X137245853Y-89593100D01*
X137181703Y-89438228D01*
X137149000Y-89273816D01*
X137149000Y-89106184D01*
X137181703Y-88941772D01*
X137245853Y-88786900D01*
X137338985Y-88647519D01*
X137457519Y-88528985D01*
X137596900Y-88435853D01*
X137751772Y-88371703D01*
X137916184Y-88339000D01*
X138083816Y-88339000D01*
X138248228Y-88371703D01*
G37*
G36*
X105341000Y-89301000D02*
G01*
X100159000Y-89301000D01*
X100159000Y-87699000D01*
X105341000Y-87699000D01*
X105341000Y-89301000D01*
G37*
G36*
X166713674Y-83503465D02*
G01*
X166751367Y-83514899D01*
X166786103Y-83533466D01*
X166816548Y-83558452D01*
X166841534Y-83588897D01*
X166860101Y-83623633D01*
X166871535Y-83661326D01*
X166876000Y-83706661D01*
X166876000Y-84793339D01*
X166871535Y-84838674D01*
X166860101Y-84876367D01*
X166841534Y-84911103D01*
X166816548Y-84941548D01*
X166786103Y-84966534D01*
X166751367Y-84985101D01*
X166713674Y-84996535D01*
X166668339Y-85001000D01*
X165831661Y-85001000D01*
X165786326Y-84996535D01*
X165748633Y-84985101D01*
X165713897Y-84966534D01*
X165683452Y-84941548D01*
X165658466Y-84911103D01*
X165639899Y-84876367D01*
X165628465Y-84838674D01*
X165624000Y-84793339D01*
X165624000Y-83706661D01*
X165628465Y-83661326D01*
X165639899Y-83623633D01*
X165658466Y-83588897D01*
X165683452Y-83558452D01*
X165713897Y-83533466D01*
X165748633Y-83514899D01*
X165786326Y-83503465D01*
X165831661Y-83499000D01*
X166668339Y-83499000D01*
X166713674Y-83503465D01*
G37*
G36*
X171413674Y-83503465D02*
G01*
X171451367Y-83514899D01*
X171486103Y-83533466D01*
X171516548Y-83558452D01*
X171541534Y-83588897D01*
X171560101Y-83623633D01*
X171571535Y-83661326D01*
X171576000Y-83706661D01*
X171576000Y-84793339D01*
X171571535Y-84838674D01*
X171560101Y-84876367D01*
X171541534Y-84911103D01*
X171516548Y-84941548D01*
X171486103Y-84966534D01*
X171451367Y-84985101D01*
X171413674Y-84996535D01*
X171368339Y-85001000D01*
X170531661Y-85001000D01*
X170486326Y-84996535D01*
X170448633Y-84985101D01*
X170413897Y-84966534D01*
X170383452Y-84941548D01*
X170358466Y-84911103D01*
X170339899Y-84876367D01*
X170328465Y-84838674D01*
X170324000Y-84793339D01*
X170324000Y-83706661D01*
X170328465Y-83661326D01*
X170339899Y-83623633D01*
X170358466Y-83588897D01*
X170383452Y-83558452D01*
X170413897Y-83533466D01*
X170448633Y-83514899D01*
X170486326Y-83503465D01*
X170531661Y-83499000D01*
X171368339Y-83499000D01*
X171413674Y-83503465D01*
G37*
G36*
X168763674Y-83503465D02*
G01*
X168801367Y-83514899D01*
X168836103Y-83533466D01*
X168866548Y-83558452D01*
X168891534Y-83588897D01*
X168910101Y-83623633D01*
X168921535Y-83661326D01*
X168926000Y-83706661D01*
X168926000Y-84793339D01*
X168921535Y-84838674D01*
X168910101Y-84876367D01*
X168891534Y-84911103D01*
X168866548Y-84941548D01*
X168836103Y-84966534D01*
X168801367Y-84985101D01*
X168763674Y-84996535D01*
X168718339Y-85001000D01*
X167881661Y-85001000D01*
X167836326Y-84996535D01*
X167798633Y-84985101D01*
X167763897Y-84966534D01*
X167733452Y-84941548D01*
X167708466Y-84911103D01*
X167689899Y-84876367D01*
X167678465Y-84838674D01*
X167674000Y-84793339D01*
X167674000Y-83706661D01*
X167678465Y-83661326D01*
X167689899Y-83623633D01*
X167708466Y-83588897D01*
X167733452Y-83558452D01*
X167763897Y-83533466D01*
X167798633Y-83514899D01*
X167836326Y-83503465D01*
X167881661Y-83499000D01*
X168718339Y-83499000D01*
X168763674Y-83503465D01*
G37*
G36*
X173463674Y-83503465D02*
G01*
X173501367Y-83514899D01*
X173536103Y-83533466D01*
X173566548Y-83558452D01*
X173591534Y-83588897D01*
X173610101Y-83623633D01*
X173621535Y-83661326D01*
X173626000Y-83706661D01*
X173626000Y-84793339D01*
X173621535Y-84838674D01*
X173610101Y-84876367D01*
X173591534Y-84911103D01*
X173566548Y-84941548D01*
X173536103Y-84966534D01*
X173501367Y-84985101D01*
X173463674Y-84996535D01*
X173418339Y-85001000D01*
X172581661Y-85001000D01*
X172536326Y-84996535D01*
X172498633Y-84985101D01*
X172463897Y-84966534D01*
X172433452Y-84941548D01*
X172408466Y-84911103D01*
X172389899Y-84876367D01*
X172378465Y-84838674D01*
X172374000Y-84793339D01*
X172374000Y-83706661D01*
X172378465Y-83661326D01*
X172389899Y-83623633D01*
X172408466Y-83588897D01*
X172433452Y-83558452D01*
X172463897Y-83533466D01*
X172498633Y-83514899D01*
X172536326Y-83503465D01*
X172581661Y-83499000D01*
X173418339Y-83499000D01*
X173463674Y-83503465D01*
G37*
G36*
X116247395Y-82835546D02*
G01*
X116420466Y-82907234D01*
X116420467Y-82907235D01*
X116576227Y-83011310D01*
X116708690Y-83143773D01*
X116708691Y-83143775D01*
X116812766Y-83299534D01*
X116884454Y-83472605D01*
X116921000Y-83656333D01*
X116921000Y-83843667D01*
X116884454Y-84027395D01*
X116812766Y-84200466D01*
X116812765Y-84200467D01*
X116708690Y-84356227D01*
X116576227Y-84488690D01*
X116497818Y-84541081D01*
X116420466Y-84592766D01*
X116247395Y-84664454D01*
X116063667Y-84701000D01*
X115876333Y-84701000D01*
X115692605Y-84664454D01*
X115519534Y-84592766D01*
X115442182Y-84541081D01*
X115363773Y-84488690D01*
X115231310Y-84356227D01*
X115127235Y-84200467D01*
X115127234Y-84200466D01*
X115055546Y-84027395D01*
X115019000Y-83843667D01*
X115019000Y-83656333D01*
X115055546Y-83472605D01*
X115127234Y-83299534D01*
X115231309Y-83143775D01*
X115231310Y-83143773D01*
X115363773Y-83011310D01*
X115519533Y-82907235D01*
X115519534Y-82907234D01*
X115692605Y-82835546D01*
X115876333Y-82799000D01*
X116063667Y-82799000D01*
X116247395Y-82835546D01*
G37*
G36*
X134027395Y-82835546D02*
G01*
X134200466Y-82907234D01*
X134200467Y-82907235D01*
X134356227Y-83011310D01*
X134488690Y-83143773D01*
X134488691Y-83143775D01*
X134592766Y-83299534D01*
X134664454Y-83472605D01*
X134701000Y-83656333D01*
X134701000Y-83843667D01*
X134664454Y-84027395D01*
X134592766Y-84200466D01*
X134592765Y-84200467D01*
X134488690Y-84356227D01*
X134356227Y-84488690D01*
X134277818Y-84541081D01*
X134200466Y-84592766D01*
X134027395Y-84664454D01*
X133843667Y-84701000D01*
X133656333Y-84701000D01*
X133472605Y-84664454D01*
X133299534Y-84592766D01*
X133222182Y-84541081D01*
X133143773Y-84488690D01*
X133011310Y-84356227D01*
X132907235Y-84200467D01*
X132907234Y-84200466D01*
X132835546Y-84027395D01*
X132799000Y-83843667D01*
X132799000Y-83656333D01*
X132835546Y-83472605D01*
X132907234Y-83299534D01*
X133011309Y-83143775D01*
X133011310Y-83143773D01*
X133143773Y-83011310D01*
X133299533Y-82907235D01*
X133299534Y-82907234D01*
X133472605Y-82835546D01*
X133656333Y-82799000D01*
X133843667Y-82799000D01*
X134027395Y-82835546D01*
G37*
G36*
X156751000Y-82851000D02*
G01*
X155349000Y-82851000D01*
X155349000Y-81449000D01*
X156751000Y-81449000D01*
X156751000Y-82851000D01*
G37*
G36*
X168894928Y-80451764D02*
G01*
X168916009Y-80458160D01*
X168935445Y-80468548D01*
X168952476Y-80482524D01*
X168966452Y-80499555D01*
X168976840Y-80518991D01*
X168983236Y-80540072D01*
X168986000Y-80568140D01*
X168986000Y-82381860D01*
X168983236Y-82409928D01*
X168976840Y-82431009D01*
X168966452Y-82450445D01*
X168952476Y-82467476D01*
X168935445Y-82481452D01*
X168916009Y-82491840D01*
X168894928Y-82498236D01*
X168866860Y-82501000D01*
X168403140Y-82501000D01*
X168375072Y-82498236D01*
X168353991Y-82491840D01*
X168334555Y-82481452D01*
X168317524Y-82467476D01*
X168303548Y-82450445D01*
X168293160Y-82431009D01*
X168286764Y-82409928D01*
X168284000Y-82381860D01*
X168284000Y-80568140D01*
X168286764Y-80540072D01*
X168293160Y-80518991D01*
X168303548Y-80499555D01*
X168317524Y-80482524D01*
X168334555Y-80468548D01*
X168353991Y-80458160D01*
X168375072Y-80451764D01*
X168403140Y-80449000D01*
X168866860Y-80449000D01*
X168894928Y-80451764D01*
G37*
G36*
X170164928Y-80451764D02*
G01*
X170186009Y-80458160D01*
X170205445Y-80468548D01*
X170222476Y-80482524D01*
X170236452Y-80499555D01*
X170246840Y-80518991D01*
X170253236Y-80540072D01*
X170256000Y-80568140D01*
X170256000Y-82381860D01*
X170253236Y-82409928D01*
X170246840Y-82431009D01*
X170236452Y-82450445D01*
X170222476Y-82467476D01*
X170205445Y-82481452D01*
X170186009Y-82491840D01*
X170164928Y-82498236D01*
X170136860Y-82501000D01*
X169673140Y-82501000D01*
X169645072Y-82498236D01*
X169623991Y-82491840D01*
X169604555Y-82481452D01*
X169587524Y-82467476D01*
X169573548Y-82450445D01*
X169563160Y-82431009D01*
X169556764Y-82409928D01*
X169554000Y-82381860D01*
X169554000Y-80568140D01*
X169556764Y-80540072D01*
X169563160Y-80518991D01*
X169573548Y-80499555D01*
X169587524Y-80482524D01*
X169604555Y-80468548D01*
X169623991Y-80458160D01*
X169645072Y-80451764D01*
X169673140Y-80449000D01*
X170136860Y-80449000D01*
X170164928Y-80451764D01*
G37*
G36*
X167624928Y-80451764D02*
G01*
X167646009Y-80458160D01*
X167665445Y-80468548D01*
X167682476Y-80482524D01*
X167696452Y-80499555D01*
X167706840Y-80518991D01*
X167713236Y-80540072D01*
X167716000Y-80568140D01*
X167716000Y-82381860D01*
X167713236Y-82409928D01*
X167706840Y-82431009D01*
X167696452Y-82450445D01*
X167682476Y-82467476D01*
X167665445Y-82481452D01*
X167646009Y-82491840D01*
X167624928Y-82498236D01*
X167596860Y-82501000D01*
X167133140Y-82501000D01*
X167105072Y-82498236D01*
X167083991Y-82491840D01*
X167064555Y-82481452D01*
X167047524Y-82467476D01*
X167033548Y-82450445D01*
X167023160Y-82431009D01*
X167016764Y-82409928D01*
X167014000Y-82381860D01*
X167014000Y-80568140D01*
X167016764Y-80540072D01*
X167023160Y-80518991D01*
X167033548Y-80499555D01*
X167047524Y-80482524D01*
X167064555Y-80468548D01*
X167083991Y-80458160D01*
X167105072Y-80451764D01*
X167133140Y-80449000D01*
X167596860Y-80449000D01*
X167624928Y-80451764D01*
G37*
G36*
X166354928Y-80451764D02*
G01*
X166376009Y-80458160D01*
X166395445Y-80468548D01*
X166412476Y-80482524D01*
X166426452Y-80499555D01*
X166436840Y-80518991D01*
X166443236Y-80540072D01*
X166446000Y-80568140D01*
X166446000Y-82381860D01*
X166443236Y-82409928D01*
X166436840Y-82431009D01*
X166426452Y-82450445D01*
X166412476Y-82467476D01*
X166395445Y-82481452D01*
X166376009Y-82491840D01*
X166354928Y-82498236D01*
X166326860Y-82501000D01*
X165863140Y-82501000D01*
X165835072Y-82498236D01*
X165813991Y-82491840D01*
X165794555Y-82481452D01*
X165777524Y-82467476D01*
X165763548Y-82450445D01*
X165753160Y-82431009D01*
X165746764Y-82409928D01*
X165744000Y-82381860D01*
X165744000Y-80568140D01*
X165746764Y-80540072D01*
X165753160Y-80518991D01*
X165763548Y-80499555D01*
X165777524Y-80482524D01*
X165794555Y-80468548D01*
X165813991Y-80458160D01*
X165835072Y-80451764D01*
X165863140Y-80449000D01*
X166326860Y-80449000D01*
X166354928Y-80451764D01*
G37*
G36*
X183237142Y-80758242D02*
G01*
X183385101Y-80819529D01*
X183518255Y-80908499D01*
X183631501Y-81021745D01*
X183720471Y-81154899D01*
X183781758Y-81302858D01*
X183813000Y-81459925D01*
X183813000Y-81620075D01*
X183781758Y-81777142D01*
X183720471Y-81925101D01*
X183631501Y-82058255D01*
X183518255Y-82171501D01*
X183385101Y-82260471D01*
X183237142Y-82321758D01*
X183080075Y-82353000D01*
X182919925Y-82353000D01*
X182762858Y-82321758D01*
X182614899Y-82260471D01*
X182481745Y-82171501D01*
X182368499Y-82058255D01*
X182279529Y-81925101D01*
X182218242Y-81777142D01*
X182187000Y-81620075D01*
X182187000Y-81459925D01*
X182218242Y-81302858D01*
X182279529Y-81154899D01*
X182368499Y-81021745D01*
X182481745Y-80908499D01*
X182614899Y-80819529D01*
X182762858Y-80758242D01*
X182919925Y-80727000D01*
X183080075Y-80727000D01*
X183237142Y-80758242D01*
G37*
G36*
X173237142Y-80758242D02*
G01*
X173385101Y-80819529D01*
X173518255Y-80908499D01*
X173631501Y-81021745D01*
X173720471Y-81154899D01*
X173781758Y-81302858D01*
X173813000Y-81459925D01*
X173813000Y-81620075D01*
X173781758Y-81777142D01*
X173720471Y-81925101D01*
X173631501Y-82058255D01*
X173518255Y-82171501D01*
X173385101Y-82260471D01*
X173237142Y-82321758D01*
X173080075Y-82353000D01*
X172919925Y-82353000D01*
X172762858Y-82321758D01*
X172614899Y-82260471D01*
X172481745Y-82171501D01*
X172368499Y-82058255D01*
X172279529Y-81925101D01*
X172218242Y-81777142D01*
X172187000Y-81620075D01*
X172187000Y-81459925D01*
X172218242Y-81302858D01*
X172279529Y-81154899D01*
X172368499Y-81021745D01*
X172481745Y-80908499D01*
X172614899Y-80819529D01*
X172762858Y-80758242D01*
X172919925Y-80727000D01*
X173080075Y-80727000D01*
X173237142Y-80758242D01*
G37*
G36*
X199841000Y-82301000D02*
G01*
X194659000Y-82301000D01*
X194659000Y-80699000D01*
X199841000Y-80699000D01*
X199841000Y-82301000D01*
G37*
G36*
X123867395Y-80295546D02*
G01*
X124040466Y-80367234D01*
X124106454Y-80411326D01*
X124196227Y-80471310D01*
X124328690Y-80603773D01*
X124328691Y-80603775D01*
X124432766Y-80759534D01*
X124504454Y-80932605D01*
X124541000Y-81116333D01*
X124541000Y-81303667D01*
X124504454Y-81487395D01*
X124432766Y-81660466D01*
X124386116Y-81730282D01*
X124328690Y-81816227D01*
X124196227Y-81948690D01*
X124117818Y-82001081D01*
X124040466Y-82052766D01*
X123867395Y-82124454D01*
X123683667Y-82161000D01*
X123496333Y-82161000D01*
X123312605Y-82124454D01*
X123139534Y-82052766D01*
X123062182Y-82001081D01*
X122983773Y-81948690D01*
X122851310Y-81816227D01*
X122793884Y-81730282D01*
X122747234Y-81660466D01*
X122675546Y-81487395D01*
X122639000Y-81303667D01*
X122639000Y-81116333D01*
X122675546Y-80932605D01*
X122747234Y-80759534D01*
X122851309Y-80603775D01*
X122851310Y-80603773D01*
X122983773Y-80471310D01*
X123073546Y-80411326D01*
X123139534Y-80367234D01*
X123312605Y-80295546D01*
X123496333Y-80259000D01*
X123683667Y-80259000D01*
X123867395Y-80295546D01*
G37*
G36*
X162251000Y-82051000D02*
G01*
X160849000Y-82051000D01*
X160849000Y-79949000D01*
X162251000Y-79949000D01*
X162251000Y-82051000D01*
G37*
G36*
X179213674Y-80253465D02*
G01*
X179251367Y-80264899D01*
X179286103Y-80283466D01*
X179316548Y-80308452D01*
X179341534Y-80338897D01*
X179360101Y-80373633D01*
X179371535Y-80411326D01*
X179376000Y-80456661D01*
X179376000Y-81543339D01*
X179371535Y-81588674D01*
X179360101Y-81626367D01*
X179341534Y-81661103D01*
X179316548Y-81691548D01*
X179286103Y-81716534D01*
X179251367Y-81735101D01*
X179213674Y-81746535D01*
X179168339Y-81751000D01*
X178331661Y-81751000D01*
X178286326Y-81746535D01*
X178248633Y-81735101D01*
X178213897Y-81716534D01*
X178183452Y-81691548D01*
X178158466Y-81661103D01*
X178139899Y-81626367D01*
X178128465Y-81588674D01*
X178124000Y-81543339D01*
X178124000Y-80456661D01*
X178128465Y-80411326D01*
X178139899Y-80373633D01*
X178158466Y-80338897D01*
X178183452Y-80308452D01*
X178213897Y-80283466D01*
X178248633Y-80264899D01*
X178286326Y-80253465D01*
X178331661Y-80249000D01*
X179168339Y-80249000D01*
X179213674Y-80253465D01*
G37*
G36*
X181263674Y-80253465D02*
G01*
X181301367Y-80264899D01*
X181336103Y-80283466D01*
X181366548Y-80308452D01*
X181391534Y-80338897D01*
X181410101Y-80373633D01*
X181421535Y-80411326D01*
X181426000Y-80456661D01*
X181426000Y-81543339D01*
X181421535Y-81588674D01*
X181410101Y-81626367D01*
X181391534Y-81661103D01*
X181366548Y-81691548D01*
X181336103Y-81716534D01*
X181301367Y-81735101D01*
X181263674Y-81746535D01*
X181218339Y-81751000D01*
X180381661Y-81751000D01*
X180336326Y-81746535D01*
X180298633Y-81735101D01*
X180263897Y-81716534D01*
X180233452Y-81691548D01*
X180208466Y-81661103D01*
X180189899Y-81626367D01*
X180178465Y-81588674D01*
X180174000Y-81543339D01*
X180174000Y-80456661D01*
X180178465Y-80411326D01*
X180189899Y-80373633D01*
X180208466Y-80338897D01*
X180233452Y-80308452D01*
X180263897Y-80283466D01*
X180298633Y-80264899D01*
X180336326Y-80253465D01*
X180381661Y-80249000D01*
X181218339Y-80249000D01*
X181263674Y-80253465D01*
G37*
G36*
X156751000Y-80551000D02*
G01*
X155349000Y-80551000D01*
X155349000Y-79149000D01*
X156751000Y-79149000D01*
X156751000Y-80551000D01*
G37*
G36*
X183237142Y-78218242D02*
G01*
X183385101Y-78279529D01*
X183518255Y-78368499D01*
X183631501Y-78481745D01*
X183720471Y-78614899D01*
X183781758Y-78762858D01*
X183813000Y-78919925D01*
X183813000Y-79080075D01*
X183781758Y-79237142D01*
X183720471Y-79385101D01*
X183631501Y-79518255D01*
X183518255Y-79631501D01*
X183385101Y-79720471D01*
X183237142Y-79781758D01*
X183080075Y-79813000D01*
X182919925Y-79813000D01*
X182762858Y-79781758D01*
X182614899Y-79720471D01*
X182481745Y-79631501D01*
X182368499Y-79518255D01*
X182279529Y-79385101D01*
X182218242Y-79237142D01*
X182187000Y-79080075D01*
X182187000Y-78919925D01*
X182218242Y-78762858D01*
X182279529Y-78614899D01*
X182368499Y-78481745D01*
X182481745Y-78368499D01*
X182614899Y-78279529D01*
X182762858Y-78218242D01*
X182919925Y-78187000D01*
X183080075Y-78187000D01*
X183237142Y-78218242D01*
G37*
G36*
X173237142Y-78218242D02*
G01*
X173385101Y-78279529D01*
X173518255Y-78368499D01*
X173631501Y-78481745D01*
X173720471Y-78614899D01*
X173781758Y-78762858D01*
X173813000Y-78919925D01*
X173813000Y-79080075D01*
X173781758Y-79237142D01*
X173720471Y-79385101D01*
X173631501Y-79518255D01*
X173518255Y-79631501D01*
X173385101Y-79720471D01*
X173237142Y-79781758D01*
X173080075Y-79813000D01*
X172919925Y-79813000D01*
X172762858Y-79781758D01*
X172614899Y-79720471D01*
X172481745Y-79631501D01*
X172368499Y-79518255D01*
X172279529Y-79385101D01*
X172218242Y-79237142D01*
X172187000Y-79080075D01*
X172187000Y-78919925D01*
X172218242Y-78762858D01*
X172279529Y-78614899D01*
X172368499Y-78481745D01*
X172481745Y-78368499D01*
X172614899Y-78279529D01*
X172762858Y-78218242D01*
X172919925Y-78187000D01*
X173080075Y-78187000D01*
X173237142Y-78218242D01*
G37*
G36*
X179539499Y-78478445D02*
G01*
X179576995Y-78489820D01*
X179611554Y-78508292D01*
X179641847Y-78533153D01*
X179666708Y-78563446D01*
X179685180Y-78598005D01*
X179696555Y-78635501D01*
X179701000Y-78680638D01*
X179701000Y-79319362D01*
X179696555Y-79364499D01*
X179685180Y-79401995D01*
X179666708Y-79436554D01*
X179641847Y-79466847D01*
X179611554Y-79491708D01*
X179576995Y-79510180D01*
X179539499Y-79521555D01*
X179494362Y-79526000D01*
X178755638Y-79526000D01*
X178710501Y-79521555D01*
X178673005Y-79510180D01*
X178638446Y-79491708D01*
X178608153Y-79466847D01*
X178583292Y-79436554D01*
X178564820Y-79401995D01*
X178553445Y-79364499D01*
X178549000Y-79319362D01*
X178549000Y-78680638D01*
X178553445Y-78635501D01*
X178564820Y-78598005D01*
X178583292Y-78563446D01*
X178608153Y-78533153D01*
X178638446Y-78508292D01*
X178673005Y-78489820D01*
X178710501Y-78478445D01*
X178755638Y-78474000D01*
X179494362Y-78474000D01*
X179539499Y-78478445D01*
G37*
G36*
X181289499Y-78478445D02*
G01*
X181326995Y-78489820D01*
X181361554Y-78508292D01*
X181391847Y-78533153D01*
X181416708Y-78563446D01*
X181435180Y-78598005D01*
X181446555Y-78635501D01*
X181451000Y-78680638D01*
X181451000Y-79319362D01*
X181446555Y-79364499D01*
X181435180Y-79401995D01*
X181416708Y-79436554D01*
X181391847Y-79466847D01*
X181361554Y-79491708D01*
X181326995Y-79510180D01*
X181289499Y-79521555D01*
X181244362Y-79526000D01*
X180505638Y-79526000D01*
X180460501Y-79521555D01*
X180423005Y-79510180D01*
X180388446Y-79491708D01*
X180358153Y-79466847D01*
X180333292Y-79436554D01*
X180314820Y-79401995D01*
X180303445Y-79364499D01*
X180299000Y-79319362D01*
X180299000Y-78680638D01*
X180303445Y-78635501D01*
X180314820Y-78598005D01*
X180333292Y-78563446D01*
X180358153Y-78533153D01*
X180388446Y-78508292D01*
X180423005Y-78489820D01*
X180460501Y-78478445D01*
X180505638Y-78474000D01*
X181244362Y-78474000D01*
X181289499Y-78478445D01*
G37*
G36*
X186241938Y-78631716D02*
G01*
X186262557Y-78637971D01*
X186281553Y-78648124D01*
X186298208Y-78661792D01*
X186311876Y-78678447D01*
X186322029Y-78697443D01*
X186328284Y-78718062D01*
X186331000Y-78745640D01*
X186331000Y-79254360D01*
X186328284Y-79281938D01*
X186322029Y-79302557D01*
X186311876Y-79321553D01*
X186298208Y-79338208D01*
X186281553Y-79351876D01*
X186262557Y-79362029D01*
X186241938Y-79368284D01*
X186214360Y-79371000D01*
X185755640Y-79371000D01*
X185728062Y-79368284D01*
X185707443Y-79362029D01*
X185688447Y-79351876D01*
X185671792Y-79338208D01*
X185658124Y-79321553D01*
X185647971Y-79302557D01*
X185641716Y-79281938D01*
X185639000Y-79254360D01*
X185639000Y-78745640D01*
X185641716Y-78718062D01*
X185647971Y-78697443D01*
X185658124Y-78678447D01*
X185671792Y-78661792D01*
X185688447Y-78648124D01*
X185707443Y-78637971D01*
X185728062Y-78631716D01*
X185755640Y-78629000D01*
X186214360Y-78629000D01*
X186241938Y-78631716D01*
G37*
G36*
X185271938Y-78631716D02*
G01*
X185292557Y-78637971D01*
X185311553Y-78648124D01*
X185328208Y-78661792D01*
X185341876Y-78678447D01*
X185352029Y-78697443D01*
X185358284Y-78718062D01*
X185361000Y-78745640D01*
X185361000Y-79254360D01*
X185358284Y-79281938D01*
X185352029Y-79302557D01*
X185341876Y-79321553D01*
X185328208Y-79338208D01*
X185311553Y-79351876D01*
X185292557Y-79362029D01*
X185271938Y-79368284D01*
X185244360Y-79371000D01*
X184785640Y-79371000D01*
X184758062Y-79368284D01*
X184737443Y-79362029D01*
X184718447Y-79351876D01*
X184701792Y-79338208D01*
X184688124Y-79321553D01*
X184677971Y-79302557D01*
X184671716Y-79281938D01*
X184669000Y-79254360D01*
X184669000Y-78745640D01*
X184671716Y-78718062D01*
X184677971Y-78697443D01*
X184688124Y-78678447D01*
X184701792Y-78661792D01*
X184718447Y-78648124D01*
X184737443Y-78637971D01*
X184758062Y-78631716D01*
X184785640Y-78629000D01*
X185244360Y-78629000D01*
X185271938Y-78631716D01*
G37*
G36*
X181503644Y-76808263D02*
G01*
X181541140Y-76819638D01*
X181575699Y-76838110D01*
X181610763Y-76866886D01*
X182133114Y-77389237D01*
X182161890Y-77424301D01*
X182180362Y-77458860D01*
X182191737Y-77496356D01*
X182195577Y-77535355D01*
X182191737Y-77574354D01*
X182180362Y-77611850D01*
X182161890Y-77646409D01*
X182133114Y-77681473D01*
X181681473Y-78133114D01*
X181646409Y-78161890D01*
X181611850Y-78180362D01*
X181574354Y-78191737D01*
X181535355Y-78195577D01*
X181496356Y-78191737D01*
X181458860Y-78180362D01*
X181424301Y-78161890D01*
X181389237Y-78133114D01*
X180866886Y-77610763D01*
X180838110Y-77575699D01*
X180819638Y-77541140D01*
X180808263Y-77503644D01*
X180804423Y-77464645D01*
X180808263Y-77425646D01*
X180819638Y-77388150D01*
X180838110Y-77353591D01*
X180866886Y-77318527D01*
X181318527Y-76866886D01*
X181353591Y-76838110D01*
X181388150Y-76819638D01*
X181425646Y-76808263D01*
X181464645Y-76804423D01*
X181503644Y-76808263D01*
G37*
G36*
X125947142Y-76468242D02*
G01*
X126095101Y-76529529D01*
X126228255Y-76618499D01*
X126341501Y-76731745D01*
X126430471Y-76864899D01*
X126491758Y-77012858D01*
X126523000Y-77169925D01*
X126523000Y-77330075D01*
X126491758Y-77487142D01*
X126430471Y-77635101D01*
X126341501Y-77768255D01*
X126228255Y-77881501D01*
X126095101Y-77970471D01*
X125947142Y-78031758D01*
X125790075Y-78063000D01*
X125629925Y-78063000D01*
X125472858Y-78031758D01*
X125324899Y-77970471D01*
X125191745Y-77881501D01*
X125078499Y-77768255D01*
X124989529Y-77635101D01*
X124928242Y-77487142D01*
X124897000Y-77330075D01*
X124897000Y-77169925D01*
X124928242Y-77012858D01*
X124989529Y-76864899D01*
X125078499Y-76731745D01*
X125191745Y-76618499D01*
X125324899Y-76529529D01*
X125472858Y-76468242D01*
X125629925Y-76437000D01*
X125790075Y-76437000D01*
X125947142Y-76468242D01*
G37*
G36*
X151027142Y-76468242D02*
G01*
X151175101Y-76529529D01*
X151308255Y-76618499D01*
X151421501Y-76731745D01*
X151510471Y-76864899D01*
X151571758Y-77012858D01*
X151603000Y-77169925D01*
X151603000Y-77330075D01*
X151571758Y-77487142D01*
X151510471Y-77635101D01*
X151421501Y-77768255D01*
X151308255Y-77881501D01*
X151175101Y-77970471D01*
X151027142Y-78031758D01*
X150870075Y-78063000D01*
X150709925Y-78063000D01*
X150552858Y-78031758D01*
X150404899Y-77970471D01*
X150271745Y-77881501D01*
X150158499Y-77768255D01*
X150069529Y-77635101D01*
X150008242Y-77487142D01*
X149977000Y-77330075D01*
X149977000Y-77169925D01*
X150008242Y-77012858D01*
X150069529Y-76864899D01*
X150158499Y-76731745D01*
X150271745Y-76618499D01*
X150404899Y-76529529D01*
X150552858Y-76468242D01*
X150709925Y-76437000D01*
X150870075Y-76437000D01*
X151027142Y-76468242D01*
G37*
G36*
X115947142Y-76468242D02*
G01*
X116095101Y-76529529D01*
X116228255Y-76618499D01*
X116341501Y-76731745D01*
X116430471Y-76864899D01*
X116491758Y-77012858D01*
X116523000Y-77169925D01*
X116523000Y-77330075D01*
X116491758Y-77487142D01*
X116430471Y-77635101D01*
X116341501Y-77768255D01*
X116228255Y-77881501D01*
X116095101Y-77970471D01*
X115947142Y-78031758D01*
X115790075Y-78063000D01*
X115629925Y-78063000D01*
X115472858Y-78031758D01*
X115324899Y-77970471D01*
X115191745Y-77881501D01*
X115078499Y-77768255D01*
X114989529Y-77635101D01*
X114928242Y-77487142D01*
X114897000Y-77330075D01*
X114897000Y-77169925D01*
X114928242Y-77012858D01*
X114989529Y-76864899D01*
X115078499Y-76731745D01*
X115191745Y-76618499D01*
X115324899Y-76529529D01*
X115472858Y-76468242D01*
X115629925Y-76437000D01*
X115790075Y-76437000D01*
X115947142Y-76468242D01*
G37*
G36*
X118487142Y-76468242D02*
G01*
X118635101Y-76529529D01*
X118768255Y-76618499D01*
X118881501Y-76731745D01*
X118970471Y-76864899D01*
X119031758Y-77012858D01*
X119063000Y-77169925D01*
X119063000Y-77330075D01*
X119031758Y-77487142D01*
X118970471Y-77635101D01*
X118881501Y-77768255D01*
X118768255Y-77881501D01*
X118635101Y-77970471D01*
X118487142Y-78031758D01*
X118330075Y-78063000D01*
X118169925Y-78063000D01*
X118012858Y-78031758D01*
X117864899Y-77970471D01*
X117731745Y-77881501D01*
X117618499Y-77768255D01*
X117529529Y-77635101D01*
X117468242Y-77487142D01*
X117437000Y-77330075D01*
X117437000Y-77169925D01*
X117468242Y-77012858D01*
X117529529Y-76864899D01*
X117618499Y-76731745D01*
X117731745Y-76618499D01*
X117864899Y-76529529D01*
X118012858Y-76468242D01*
X118169925Y-76437000D01*
X118330075Y-76437000D01*
X118487142Y-76468242D01*
G37*
G36*
X121027142Y-76468242D02*
G01*
X121175101Y-76529529D01*
X121308255Y-76618499D01*
X121421501Y-76731745D01*
X121510471Y-76864899D01*
X121571758Y-77012858D01*
X121603000Y-77169925D01*
X121603000Y-77330075D01*
X121571758Y-77487142D01*
X121510471Y-77635101D01*
X121421501Y-77768255D01*
X121308255Y-77881501D01*
X121175101Y-77970471D01*
X121027142Y-78031758D01*
X120870075Y-78063000D01*
X120709925Y-78063000D01*
X120552858Y-78031758D01*
X120404899Y-77970471D01*
X120271745Y-77881501D01*
X120158499Y-77768255D01*
X120069529Y-77635101D01*
X120008242Y-77487142D01*
X119977000Y-77330075D01*
X119977000Y-77169925D01*
X120008242Y-77012858D01*
X120069529Y-76864899D01*
X120158499Y-76731745D01*
X120271745Y-76618499D01*
X120404899Y-76529529D01*
X120552858Y-76468242D01*
X120709925Y-76437000D01*
X120870075Y-76437000D01*
X121027142Y-76468242D01*
G37*
G36*
X138487142Y-76468242D02*
G01*
X138635101Y-76529529D01*
X138768255Y-76618499D01*
X138881501Y-76731745D01*
X138970471Y-76864899D01*
X139031758Y-77012858D01*
X139063000Y-77169925D01*
X139063000Y-77330075D01*
X139031758Y-77487142D01*
X138970471Y-77635101D01*
X138881501Y-77768255D01*
X138768255Y-77881501D01*
X138635101Y-77970471D01*
X138487142Y-78031758D01*
X138330075Y-78063000D01*
X138169925Y-78063000D01*
X138012858Y-78031758D01*
X137864899Y-77970471D01*
X137731745Y-77881501D01*
X137618499Y-77768255D01*
X137529529Y-77635101D01*
X137468242Y-77487142D01*
X137437000Y-77330075D01*
X137437000Y-77169925D01*
X137468242Y-77012858D01*
X137529529Y-76864899D01*
X137618499Y-76731745D01*
X137731745Y-76618499D01*
X137864899Y-76529529D01*
X138012858Y-76468242D01*
X138169925Y-76437000D01*
X138330075Y-76437000D01*
X138487142Y-76468242D01*
G37*
G36*
X141027142Y-76468242D02*
G01*
X141175101Y-76529529D01*
X141308255Y-76618499D01*
X141421501Y-76731745D01*
X141510471Y-76864899D01*
X141571758Y-77012858D01*
X141603000Y-77169925D01*
X141603000Y-77330075D01*
X141571758Y-77487142D01*
X141510471Y-77635101D01*
X141421501Y-77768255D01*
X141308255Y-77881501D01*
X141175101Y-77970471D01*
X141027142Y-78031758D01*
X140870075Y-78063000D01*
X140709925Y-78063000D01*
X140552858Y-78031758D01*
X140404899Y-77970471D01*
X140271745Y-77881501D01*
X140158499Y-77768255D01*
X140069529Y-77635101D01*
X140008242Y-77487142D01*
X139977000Y-77330075D01*
X139977000Y-77169925D01*
X140008242Y-77012858D01*
X140069529Y-76864899D01*
X140158499Y-76731745D01*
X140271745Y-76618499D01*
X140404899Y-76529529D01*
X140552858Y-76468242D01*
X140709925Y-76437000D01*
X140870075Y-76437000D01*
X141027142Y-76468242D01*
G37*
G36*
X128487142Y-76468242D02*
G01*
X128635101Y-76529529D01*
X128768255Y-76618499D01*
X128881501Y-76731745D01*
X128970471Y-76864899D01*
X129031758Y-77012858D01*
X129063000Y-77169925D01*
X129063000Y-77330075D01*
X129031758Y-77487142D01*
X128970471Y-77635101D01*
X128881501Y-77768255D01*
X128768255Y-77881501D01*
X128635101Y-77970471D01*
X128487142Y-78031758D01*
X128330075Y-78063000D01*
X128169925Y-78063000D01*
X128012858Y-78031758D01*
X127864899Y-77970471D01*
X127731745Y-77881501D01*
X127618499Y-77768255D01*
X127529529Y-77635101D01*
X127468242Y-77487142D01*
X127437000Y-77330075D01*
X127437000Y-77169925D01*
X127468242Y-77012858D01*
X127529529Y-76864899D01*
X127618499Y-76731745D01*
X127731745Y-76618499D01*
X127864899Y-76529529D01*
X128012858Y-76468242D01*
X128169925Y-76437000D01*
X128330075Y-76437000D01*
X128487142Y-76468242D01*
G37*
G36*
X131027142Y-76468242D02*
G01*
X131175101Y-76529529D01*
X131308255Y-76618499D01*
X131421501Y-76731745D01*
X131510471Y-76864899D01*
X131571758Y-77012858D01*
X131603000Y-77169925D01*
X131603000Y-77330075D01*
X131571758Y-77487142D01*
X131510471Y-77635101D01*
X131421501Y-77768255D01*
X131308255Y-77881501D01*
X131175101Y-77970471D01*
X131027142Y-78031758D01*
X130870075Y-78063000D01*
X130709925Y-78063000D01*
X130552858Y-78031758D01*
X130404899Y-77970471D01*
X130271745Y-77881501D01*
X130158499Y-77768255D01*
X130069529Y-77635101D01*
X130008242Y-77487142D01*
X129977000Y-77330075D01*
X129977000Y-77169925D01*
X130008242Y-77012858D01*
X130069529Y-76864899D01*
X130158499Y-76731745D01*
X130271745Y-76618499D01*
X130404899Y-76529529D01*
X130552858Y-76468242D01*
X130709925Y-76437000D01*
X130870075Y-76437000D01*
X131027142Y-76468242D01*
G37*
G36*
X145947142Y-76468242D02*
G01*
X146095101Y-76529529D01*
X146228255Y-76618499D01*
X146341501Y-76731745D01*
X146430471Y-76864899D01*
X146491758Y-77012858D01*
X146523000Y-77169925D01*
X146523000Y-77330075D01*
X146491758Y-77487142D01*
X146430471Y-77635101D01*
X146341501Y-77768255D01*
X146228255Y-77881501D01*
X146095101Y-77970471D01*
X145947142Y-78031758D01*
X145790075Y-78063000D01*
X145629925Y-78063000D01*
X145472858Y-78031758D01*
X145324899Y-77970471D01*
X145191745Y-77881501D01*
X145078499Y-77768255D01*
X144989529Y-77635101D01*
X144928242Y-77487142D01*
X144897000Y-77330075D01*
X144897000Y-77169925D01*
X144928242Y-77012858D01*
X144989529Y-76864899D01*
X145078499Y-76731745D01*
X145191745Y-76618499D01*
X145324899Y-76529529D01*
X145472858Y-76468242D01*
X145629925Y-76437000D01*
X145790075Y-76437000D01*
X145947142Y-76468242D01*
G37*
G36*
X135947142Y-76468242D02*
G01*
X136095101Y-76529529D01*
X136228255Y-76618499D01*
X136341501Y-76731745D01*
X136430471Y-76864899D01*
X136491758Y-77012858D01*
X136523000Y-77169925D01*
X136523000Y-77330075D01*
X136491758Y-77487142D01*
X136430471Y-77635101D01*
X136341501Y-77768255D01*
X136228255Y-77881501D01*
X136095101Y-77970471D01*
X135947142Y-78031758D01*
X135790075Y-78063000D01*
X135629925Y-78063000D01*
X135472858Y-78031758D01*
X135324899Y-77970471D01*
X135191745Y-77881501D01*
X135078499Y-77768255D01*
X134989529Y-77635101D01*
X134928242Y-77487142D01*
X134897000Y-77330075D01*
X134897000Y-77169925D01*
X134928242Y-77012858D01*
X134989529Y-76864899D01*
X135078499Y-76731745D01*
X135191745Y-76618499D01*
X135324899Y-76529529D01*
X135472858Y-76468242D01*
X135629925Y-76437000D01*
X135790075Y-76437000D01*
X135947142Y-76468242D01*
G37*
G36*
X148487142Y-76468242D02*
G01*
X148635101Y-76529529D01*
X148768255Y-76618499D01*
X148881501Y-76731745D01*
X148970471Y-76864899D01*
X149031758Y-77012858D01*
X149063000Y-77169925D01*
X149063000Y-77330075D01*
X149031758Y-77487142D01*
X148970471Y-77635101D01*
X148881501Y-77768255D01*
X148768255Y-77881501D01*
X148635101Y-77970471D01*
X148487142Y-78031758D01*
X148330075Y-78063000D01*
X148169925Y-78063000D01*
X148012858Y-78031758D01*
X147864899Y-77970471D01*
X147731745Y-77881501D01*
X147618499Y-77768255D01*
X147529529Y-77635101D01*
X147468242Y-77487142D01*
X147437000Y-77330075D01*
X147437000Y-77169925D01*
X147468242Y-77012858D01*
X147529529Y-76864899D01*
X147618499Y-76731745D01*
X147731745Y-76618499D01*
X147864899Y-76529529D01*
X148012858Y-76468242D01*
X148169925Y-76437000D01*
X148330075Y-76437000D01*
X148487142Y-76468242D01*
G37*
G36*
X184410813Y-77134438D02*
G01*
X184431432Y-77140693D01*
X184450428Y-77150846D01*
X184471849Y-77168426D01*
X184831574Y-77528151D01*
X184849154Y-77549572D01*
X184859307Y-77568568D01*
X184865562Y-77589187D01*
X184867673Y-77610625D01*
X184865562Y-77632063D01*
X184859307Y-77652682D01*
X184849154Y-77671678D01*
X184831574Y-77693099D01*
X184507205Y-78017468D01*
X184485784Y-78035048D01*
X184466788Y-78045201D01*
X184446169Y-78051456D01*
X184424731Y-78053567D01*
X184403293Y-78051456D01*
X184382674Y-78045201D01*
X184363678Y-78035048D01*
X184342257Y-78017468D01*
X183982532Y-77657743D01*
X183964952Y-77636322D01*
X183954799Y-77617326D01*
X183948544Y-77596707D01*
X183946433Y-77575269D01*
X183948544Y-77553831D01*
X183954799Y-77533212D01*
X183964952Y-77514216D01*
X183982532Y-77492795D01*
X184306901Y-77168426D01*
X184328322Y-77150846D01*
X184347318Y-77140693D01*
X184367937Y-77134438D01*
X184389375Y-77132327D01*
X184410813Y-77134438D01*
G37*
G36*
X170164928Y-75501764D02*
G01*
X170186009Y-75508160D01*
X170205445Y-75518548D01*
X170222476Y-75532524D01*
X170236452Y-75549555D01*
X170246840Y-75568991D01*
X170253236Y-75590072D01*
X170256000Y-75618140D01*
X170256000Y-77431860D01*
X170253236Y-77459928D01*
X170246840Y-77481009D01*
X170236452Y-77500445D01*
X170222476Y-77517476D01*
X170205445Y-77531452D01*
X170186009Y-77541840D01*
X170164928Y-77548236D01*
X170136860Y-77551000D01*
X169673140Y-77551000D01*
X169645072Y-77548236D01*
X169623991Y-77541840D01*
X169604555Y-77531452D01*
X169587524Y-77517476D01*
X169573548Y-77500445D01*
X169563160Y-77481009D01*
X169556764Y-77459928D01*
X169554000Y-77431860D01*
X169554000Y-75618140D01*
X169556764Y-75590072D01*
X169563160Y-75568991D01*
X169573548Y-75549555D01*
X169587524Y-75532524D01*
X169604555Y-75518548D01*
X169623991Y-75508160D01*
X169645072Y-75501764D01*
X169673140Y-75499000D01*
X170136860Y-75499000D01*
X170164928Y-75501764D01*
G37*
G36*
X167624928Y-75501764D02*
G01*
X167646009Y-75508160D01*
X167665445Y-75518548D01*
X167682476Y-75532524D01*
X167696452Y-75549555D01*
X167706840Y-75568991D01*
X167713236Y-75590072D01*
X167716000Y-75618140D01*
X167716000Y-77431860D01*
X167713236Y-77459928D01*
X167706840Y-77481009D01*
X167696452Y-77500445D01*
X167682476Y-77517476D01*
X167665445Y-77531452D01*
X167646009Y-77541840D01*
X167624928Y-77548236D01*
X167596860Y-77551000D01*
X167133140Y-77551000D01*
X167105072Y-77548236D01*
X167083991Y-77541840D01*
X167064555Y-77531452D01*
X167047524Y-77517476D01*
X167033548Y-77500445D01*
X167023160Y-77481009D01*
X167016764Y-77459928D01*
X167014000Y-77431860D01*
X167014000Y-75618140D01*
X167016764Y-75590072D01*
X167023160Y-75568991D01*
X167033548Y-75549555D01*
X167047524Y-75532524D01*
X167064555Y-75518548D01*
X167083991Y-75508160D01*
X167105072Y-75501764D01*
X167133140Y-75499000D01*
X167596860Y-75499000D01*
X167624928Y-75501764D01*
G37*
G36*
X166354928Y-75501764D02*
G01*
X166376009Y-75508160D01*
X166395445Y-75518548D01*
X166412476Y-75532524D01*
X166426452Y-75549555D01*
X166436840Y-75568991D01*
X166443236Y-75590072D01*
X166446000Y-75618140D01*
X166446000Y-77431860D01*
X166443236Y-77459928D01*
X166436840Y-77481009D01*
X166426452Y-77500445D01*
X166412476Y-77517476D01*
X166395445Y-77531452D01*
X166376009Y-77541840D01*
X166354928Y-77548236D01*
X166326860Y-77551000D01*
X165863140Y-77551000D01*
X165835072Y-77548236D01*
X165813991Y-77541840D01*
X165794555Y-77531452D01*
X165777524Y-77517476D01*
X165763548Y-77500445D01*
X165753160Y-77481009D01*
X165746764Y-77459928D01*
X165744000Y-77431860D01*
X165744000Y-75618140D01*
X165746764Y-75590072D01*
X165753160Y-75568991D01*
X165763548Y-75549555D01*
X165777524Y-75532524D01*
X165794555Y-75518548D01*
X165813991Y-75508160D01*
X165835072Y-75501764D01*
X165863140Y-75499000D01*
X166326860Y-75499000D01*
X166354928Y-75501764D01*
G37*
G36*
X168894928Y-75501764D02*
G01*
X168916009Y-75508160D01*
X168935445Y-75518548D01*
X168952476Y-75532524D01*
X168966452Y-75549555D01*
X168976840Y-75568991D01*
X168983236Y-75590072D01*
X168986000Y-75618140D01*
X168986000Y-77431860D01*
X168983236Y-77459928D01*
X168976840Y-77481009D01*
X168966452Y-77500445D01*
X168952476Y-77517476D01*
X168935445Y-77531452D01*
X168916009Y-77541840D01*
X168894928Y-77548236D01*
X168866860Y-77551000D01*
X168403140Y-77551000D01*
X168375072Y-77548236D01*
X168353991Y-77541840D01*
X168334555Y-77531452D01*
X168317524Y-77517476D01*
X168303548Y-77500445D01*
X168293160Y-77481009D01*
X168286764Y-77459928D01*
X168284000Y-77431860D01*
X168284000Y-75618140D01*
X168286764Y-75590072D01*
X168293160Y-75568991D01*
X168303548Y-75549555D01*
X168317524Y-75532524D01*
X168334555Y-75518548D01*
X168353991Y-75508160D01*
X168375072Y-75501764D01*
X168403140Y-75499000D01*
X168866860Y-75499000D01*
X168894928Y-75501764D01*
G37*
G36*
X183364499Y-76303445D02*
G01*
X183401995Y-76314820D01*
X183436554Y-76333292D01*
X183466847Y-76358153D01*
X183491708Y-76388446D01*
X183510180Y-76423005D01*
X183521555Y-76460501D01*
X183526000Y-76505638D01*
X183526000Y-77244362D01*
X183521555Y-77289499D01*
X183510180Y-77326995D01*
X183491708Y-77361554D01*
X183466847Y-77391847D01*
X183436554Y-77416708D01*
X183401995Y-77435180D01*
X183364499Y-77446555D01*
X183319362Y-77451000D01*
X182680638Y-77451000D01*
X182635501Y-77446555D01*
X182598005Y-77435180D01*
X182563446Y-77416708D01*
X182533153Y-77391847D01*
X182508292Y-77361554D01*
X182489820Y-77326995D01*
X182478445Y-77289499D01*
X182474000Y-77244362D01*
X182474000Y-76505638D01*
X182478445Y-76460501D01*
X182489820Y-76423005D01*
X182508292Y-76388446D01*
X182533153Y-76358153D01*
X182563446Y-76333292D01*
X182598005Y-76314820D01*
X182635501Y-76303445D01*
X182680638Y-76299000D01*
X183319362Y-76299000D01*
X183364499Y-76303445D01*
G37*
G36*
X185096707Y-76448544D02*
G01*
X185117326Y-76454799D01*
X185136322Y-76464952D01*
X185157743Y-76482532D01*
X185517468Y-76842257D01*
X185535048Y-76863678D01*
X185545201Y-76882674D01*
X185551456Y-76903293D01*
X185553567Y-76924731D01*
X185551456Y-76946169D01*
X185545201Y-76966788D01*
X185535048Y-76985784D01*
X185517468Y-77007205D01*
X185193099Y-77331574D01*
X185171678Y-77349154D01*
X185152682Y-77359307D01*
X185132063Y-77365562D01*
X185110625Y-77367673D01*
X185089187Y-77365562D01*
X185068568Y-77359307D01*
X185049572Y-77349154D01*
X185028151Y-77331574D01*
X184668426Y-76971849D01*
X184650846Y-76950428D01*
X184640693Y-76931432D01*
X184634438Y-76910813D01*
X184632327Y-76889375D01*
X184634438Y-76867937D01*
X184640693Y-76847318D01*
X184650846Y-76828322D01*
X184668426Y-76806901D01*
X184992795Y-76482532D01*
X185014216Y-76464952D01*
X185033212Y-76454799D01*
X185053831Y-76448544D01*
X185075269Y-76446433D01*
X185096707Y-76448544D01*
G37*
G36*
X173237142Y-75678242D02*
G01*
X173385101Y-75739529D01*
X173518255Y-75828499D01*
X173631501Y-75941745D01*
X173720471Y-76074899D01*
X173781758Y-76222858D01*
X173813000Y-76379925D01*
X173813000Y-76540075D01*
X173781758Y-76697142D01*
X173720471Y-76845101D01*
X173631501Y-76978255D01*
X173518255Y-77091501D01*
X173385101Y-77180471D01*
X173237142Y-77241758D01*
X173080075Y-77273000D01*
X172919925Y-77273000D01*
X172762858Y-77241758D01*
X172614899Y-77180471D01*
X172481745Y-77091501D01*
X172368499Y-76978255D01*
X172279529Y-76845101D01*
X172218242Y-76697142D01*
X172187000Y-76540075D01*
X172187000Y-76379925D01*
X172218242Y-76222858D01*
X172279529Y-76074899D01*
X172368499Y-75941745D01*
X172481745Y-75828499D01*
X172614899Y-75739529D01*
X172762858Y-75678242D01*
X172919925Y-75647000D01*
X173080075Y-75647000D01*
X173237142Y-75678242D01*
G37*
G36*
X180266208Y-75570827D02*
G01*
X180303704Y-75582202D01*
X180338263Y-75600674D01*
X180373327Y-75629450D01*
X180895678Y-76151801D01*
X180924454Y-76186865D01*
X180942926Y-76221424D01*
X180954301Y-76258920D01*
X180958141Y-76297919D01*
X180954301Y-76336918D01*
X180942926Y-76374414D01*
X180924454Y-76408973D01*
X180895678Y-76444037D01*
X180444037Y-76895678D01*
X180408973Y-76924454D01*
X180374414Y-76942926D01*
X180336918Y-76954301D01*
X180297919Y-76958141D01*
X180258920Y-76954301D01*
X180221424Y-76942926D01*
X180186865Y-76924454D01*
X180151801Y-76895678D01*
X179629450Y-76373327D01*
X179600674Y-76338263D01*
X179582202Y-76303704D01*
X179570827Y-76266208D01*
X179566987Y-76227209D01*
X179570827Y-76188210D01*
X179582202Y-76150714D01*
X179600674Y-76116155D01*
X179629450Y-76081091D01*
X180081091Y-75629450D01*
X180116155Y-75600674D01*
X180150714Y-75582202D01*
X180188210Y-75570827D01*
X180227209Y-75566987D01*
X180266208Y-75570827D01*
G37*
G36*
X158438674Y-75453465D02*
G01*
X158476367Y-75464899D01*
X158511103Y-75483466D01*
X158541548Y-75508452D01*
X158566534Y-75538897D01*
X158585101Y-75573633D01*
X158596535Y-75611326D01*
X158601000Y-75656661D01*
X158601000Y-76743339D01*
X158596535Y-76788674D01*
X158585101Y-76826367D01*
X158566534Y-76861103D01*
X158541548Y-76891548D01*
X158511103Y-76916534D01*
X158476367Y-76935101D01*
X158438674Y-76946535D01*
X158393339Y-76951000D01*
X157556661Y-76951000D01*
X157511326Y-76946535D01*
X157473633Y-76935101D01*
X157438897Y-76916534D01*
X157408452Y-76891548D01*
X157383466Y-76861103D01*
X157364899Y-76826367D01*
X157353465Y-76788674D01*
X157349000Y-76743339D01*
X157349000Y-75656661D01*
X157353465Y-75611326D01*
X157364899Y-75573633D01*
X157383466Y-75538897D01*
X157408452Y-75508452D01*
X157438897Y-75483466D01*
X157473633Y-75464899D01*
X157511326Y-75453465D01*
X157556661Y-75449000D01*
X158393339Y-75449000D01*
X158438674Y-75453465D01*
G37*
G36*
X160488674Y-75453465D02*
G01*
X160526367Y-75464899D01*
X160561103Y-75483466D01*
X160591548Y-75508452D01*
X160616534Y-75538897D01*
X160635101Y-75573633D01*
X160646535Y-75611326D01*
X160651000Y-75656661D01*
X160651000Y-76743339D01*
X160646535Y-76788674D01*
X160635101Y-76826367D01*
X160616534Y-76861103D01*
X160591548Y-76891548D01*
X160561103Y-76916534D01*
X160526367Y-76935101D01*
X160488674Y-76946535D01*
X160443339Y-76951000D01*
X159606661Y-76951000D01*
X159561326Y-76946535D01*
X159523633Y-76935101D01*
X159488897Y-76916534D01*
X159458452Y-76891548D01*
X159433466Y-76861103D01*
X159414899Y-76826367D01*
X159403465Y-76788674D01*
X159399000Y-76743339D01*
X159399000Y-75656661D01*
X159403465Y-75611326D01*
X159414899Y-75573633D01*
X159433466Y-75538897D01*
X159458452Y-75508452D01*
X159488897Y-75483466D01*
X159523633Y-75464899D01*
X159561326Y-75453465D01*
X159606661Y-75449000D01*
X160443339Y-75449000D01*
X160488674Y-75453465D01*
G37*
G36*
X183364499Y-74553445D02*
G01*
X183401995Y-74564820D01*
X183436554Y-74583292D01*
X183466847Y-74608153D01*
X183491708Y-74638446D01*
X183510180Y-74673005D01*
X183521555Y-74710501D01*
X183526000Y-74755638D01*
X183526000Y-75494362D01*
X183521555Y-75539499D01*
X183510180Y-75576995D01*
X183491708Y-75611554D01*
X183466847Y-75641847D01*
X183436554Y-75666708D01*
X183401995Y-75685180D01*
X183364499Y-75696555D01*
X183319362Y-75701000D01*
X182680638Y-75701000D01*
X182635501Y-75696555D01*
X182598005Y-75685180D01*
X182563446Y-75666708D01*
X182533153Y-75641847D01*
X182508292Y-75611554D01*
X182489820Y-75576995D01*
X182478445Y-75539499D01*
X182474000Y-75494362D01*
X182474000Y-74755638D01*
X182478445Y-74710501D01*
X182489820Y-74673005D01*
X182508292Y-74638446D01*
X182533153Y-74608153D01*
X182563446Y-74583292D01*
X182598005Y-74564820D01*
X182635501Y-74553445D01*
X182680638Y-74549000D01*
X183319362Y-74549000D01*
X183364499Y-74553445D01*
G37*
G36*
X169306564Y-70489389D02*
G01*
X169497833Y-70568615D01*
X169497835Y-70568616D01*
X169523174Y-70585547D01*
X169669973Y-70683635D01*
X169816365Y-70830027D01*
X169931385Y-71002167D01*
X170010611Y-71193436D01*
X170051000Y-71396484D01*
X170051000Y-71603516D01*
X170010611Y-71806564D01*
X169931385Y-71997833D01*
X169931384Y-71997835D01*
X169816365Y-72169973D01*
X169669973Y-72316365D01*
X169497835Y-72431384D01*
X169497834Y-72431385D01*
X169497833Y-72431385D01*
X169306564Y-72510611D01*
X169103516Y-72551000D01*
X168896484Y-72551000D01*
X168693436Y-72510611D01*
X168502167Y-72431385D01*
X168502166Y-72431385D01*
X168502165Y-72431384D01*
X168330027Y-72316365D01*
X168183635Y-72169973D01*
X168068616Y-71997835D01*
X168068615Y-71997833D01*
X167989389Y-71806564D01*
X167949000Y-71603516D01*
X167949000Y-71396484D01*
X167989389Y-71193436D01*
X168068615Y-71002167D01*
X168183635Y-70830027D01*
X168330027Y-70683635D01*
X168476826Y-70585547D01*
X168502165Y-70568616D01*
X168502167Y-70568615D01*
X168693436Y-70489389D01*
X168896484Y-70449000D01*
X169103516Y-70449000D01*
X169306564Y-70489389D01*
G37*
G36*
X174527395Y-70585546D02*
G01*
X174700466Y-70657234D01*
X174700467Y-70657235D01*
X174856227Y-70761310D01*
X174988690Y-70893773D01*
X174988691Y-70893775D01*
X175092766Y-71049534D01*
X175164454Y-71222605D01*
X175201000Y-71406333D01*
X175201000Y-71593667D01*
X175164454Y-71777395D01*
X175092766Y-71950466D01*
X175092765Y-71950467D01*
X174988690Y-72106227D01*
X174856227Y-72238690D01*
X174777818Y-72291081D01*
X174700466Y-72342766D01*
X174527395Y-72414454D01*
X174343667Y-72451000D01*
X174156333Y-72451000D01*
X173972605Y-72414454D01*
X173799534Y-72342766D01*
X173722182Y-72291081D01*
X173643773Y-72238690D01*
X173511310Y-72106227D01*
X173407235Y-71950467D01*
X173407234Y-71950466D01*
X173335546Y-71777395D01*
X173299000Y-71593667D01*
X173299000Y-71406333D01*
X173335546Y-71222605D01*
X173407234Y-71049534D01*
X173511309Y-70893775D01*
X173511310Y-70893773D01*
X173643773Y-70761310D01*
X173799533Y-70657235D01*
X173799534Y-70657234D01*
X173972605Y-70585546D01*
X174156333Y-70549000D01*
X174343667Y-70549000D01*
X174527395Y-70585546D01*
G37*
G36*
X156747395Y-70585546D02*
G01*
X156920466Y-70657234D01*
X156920467Y-70657235D01*
X157076227Y-70761310D01*
X157208690Y-70893773D01*
X157208691Y-70893775D01*
X157312766Y-71049534D01*
X157384454Y-71222605D01*
X157421000Y-71406333D01*
X157421000Y-71593667D01*
X157384454Y-71777395D01*
X157312766Y-71950466D01*
X157312765Y-71950467D01*
X157208690Y-72106227D01*
X157076227Y-72238690D01*
X156997818Y-72291081D01*
X156920466Y-72342766D01*
X156747395Y-72414454D01*
X156563667Y-72451000D01*
X156376333Y-72451000D01*
X156192605Y-72414454D01*
X156019534Y-72342766D01*
X155942182Y-72291081D01*
X155863773Y-72238690D01*
X155731310Y-72106227D01*
X155627235Y-71950467D01*
X155627234Y-71950466D01*
X155555546Y-71777395D01*
X155519000Y-71593667D01*
X155519000Y-71406333D01*
X155555546Y-71222605D01*
X155627234Y-71049534D01*
X155731309Y-70893775D01*
X155731310Y-70893773D01*
X155863773Y-70761310D01*
X156019533Y-70657235D01*
X156019534Y-70657234D01*
X156192605Y-70585546D01*
X156376333Y-70549000D01*
X156563667Y-70549000D01*
X156747395Y-70585546D01*
G37*
G36*
X199841000Y-71401000D02*
G01*
X194659000Y-71401000D01*
X194659000Y-69799000D01*
X199841000Y-69799000D01*
X199841000Y-71401000D01*
G37*
G36*
X183487142Y-68718242D02*
G01*
X183635101Y-68779529D01*
X183768255Y-68868499D01*
X183881501Y-68981745D01*
X183970471Y-69114899D01*
X184031758Y-69262858D01*
X184063000Y-69419925D01*
X184063000Y-69580075D01*
X184031758Y-69737142D01*
X183970471Y-69885101D01*
X183881501Y-70018255D01*
X183768255Y-70131501D01*
X183635101Y-70220471D01*
X183487142Y-70281758D01*
X183330075Y-70313000D01*
X183169925Y-70313000D01*
X183012858Y-70281758D01*
X182864899Y-70220471D01*
X182731745Y-70131501D01*
X182618499Y-70018255D01*
X182529529Y-69885101D01*
X182468242Y-69737142D01*
X182437000Y-69580075D01*
X182437000Y-69419925D01*
X182468242Y-69262858D01*
X182529529Y-69114899D01*
X182618499Y-68981745D01*
X182731745Y-68868499D01*
X182864899Y-68779529D01*
X183012858Y-68718242D01*
X183169925Y-68687000D01*
X183330075Y-68687000D01*
X183487142Y-68718242D01*
G37*
G36*
X178407142Y-68718242D02*
G01*
X178555101Y-68779529D01*
X178688255Y-68868499D01*
X178801501Y-68981745D01*
X178890471Y-69114899D01*
X178951758Y-69262858D01*
X178983000Y-69419925D01*
X178983000Y-69580075D01*
X178951758Y-69737142D01*
X178890471Y-69885101D01*
X178801501Y-70018255D01*
X178688255Y-70131501D01*
X178555101Y-70220471D01*
X178407142Y-70281758D01*
X178250075Y-70313000D01*
X178089925Y-70313000D01*
X177932858Y-70281758D01*
X177784899Y-70220471D01*
X177651745Y-70131501D01*
X177538499Y-70018255D01*
X177449529Y-69885101D01*
X177388242Y-69737142D01*
X177357000Y-69580075D01*
X177357000Y-69419925D01*
X177388242Y-69262858D01*
X177449529Y-69114899D01*
X177538499Y-68981745D01*
X177651745Y-68868499D01*
X177784899Y-68779529D01*
X177932858Y-68718242D01*
X178089925Y-68687000D01*
X178250075Y-68687000D01*
X178407142Y-68718242D01*
G37*
G36*
X180947142Y-68718242D02*
G01*
X181095101Y-68779529D01*
X181228255Y-68868499D01*
X181341501Y-68981745D01*
X181430471Y-69114899D01*
X181491758Y-69262858D01*
X181523000Y-69419925D01*
X181523000Y-69580075D01*
X181491758Y-69737142D01*
X181430471Y-69885101D01*
X181341501Y-70018255D01*
X181228255Y-70131501D01*
X181095101Y-70220471D01*
X180947142Y-70281758D01*
X180790075Y-70313000D01*
X180629925Y-70313000D01*
X180472858Y-70281758D01*
X180324899Y-70220471D01*
X180191745Y-70131501D01*
X180078499Y-70018255D01*
X179989529Y-69885101D01*
X179928242Y-69737142D01*
X179897000Y-69580075D01*
X179897000Y-69419925D01*
X179928242Y-69262858D01*
X179989529Y-69114899D01*
X180078499Y-68981745D01*
X180191745Y-68868499D01*
X180324899Y-68779529D01*
X180472858Y-68718242D01*
X180629925Y-68687000D01*
X180790075Y-68687000D01*
X180947142Y-68718242D01*
G37*
G36*
X164367395Y-68045546D02*
G01*
X164540466Y-68117234D01*
X164540467Y-68117235D01*
X164696227Y-68221310D01*
X164828690Y-68353773D01*
X164828691Y-68353775D01*
X164932766Y-68509534D01*
X165004454Y-68682605D01*
X165041000Y-68866333D01*
X165041000Y-69053667D01*
X165004454Y-69237395D01*
X164932766Y-69410466D01*
X164926445Y-69419926D01*
X164828690Y-69566227D01*
X164696227Y-69698690D01*
X164638679Y-69737142D01*
X164540466Y-69802766D01*
X164367395Y-69874454D01*
X164183667Y-69911000D01*
X163996333Y-69911000D01*
X163812605Y-69874454D01*
X163639534Y-69802766D01*
X163541321Y-69737142D01*
X163483773Y-69698690D01*
X163351310Y-69566227D01*
X163253555Y-69419926D01*
X163247234Y-69410466D01*
X163175546Y-69237395D01*
X163139000Y-69053667D01*
X163139000Y-68866333D01*
X163175546Y-68682605D01*
X163247234Y-68509534D01*
X163351309Y-68353775D01*
X163351310Y-68353773D01*
X163483773Y-68221310D01*
X163639533Y-68117235D01*
X163639534Y-68117234D01*
X163812605Y-68045546D01*
X163996333Y-68009000D01*
X164183667Y-68009000D01*
X164367395Y-68045546D01*
G37*
G36*
X104937534Y-66557643D02*
G01*
X105210515Y-66670716D01*
X105210517Y-66670717D01*
X105301848Y-66731743D01*
X105456193Y-66834873D01*
X105665127Y-67043807D01*
X105829284Y-67289485D01*
X105942357Y-67562466D01*
X106000000Y-67852262D01*
X106000000Y-68147738D01*
X105942357Y-68437534D01*
X105912533Y-68509534D01*
X105829283Y-68710517D01*
X105665126Y-68956194D01*
X105456194Y-69165126D01*
X105210517Y-69329283D01*
X105210516Y-69329284D01*
X105210515Y-69329284D01*
X104937534Y-69442357D01*
X104647738Y-69500000D01*
X104352262Y-69500000D01*
X104062466Y-69442357D01*
X103789485Y-69329284D01*
X103789484Y-69329284D01*
X103789483Y-69329283D01*
X103543806Y-69165126D01*
X103334874Y-68956194D01*
X103170717Y-68710517D01*
X103087467Y-68509534D01*
X103057643Y-68437534D01*
X103000000Y-68147738D01*
X103000000Y-67852262D01*
X103057643Y-67562466D01*
X103170716Y-67289485D01*
X103334873Y-67043807D01*
X103543807Y-66834873D01*
X103698152Y-66731743D01*
X103789483Y-66670717D01*
X103789485Y-66670716D01*
X104062466Y-66557643D01*
X104352262Y-66500000D01*
X104647738Y-66500000D01*
X104937534Y-66557643D01*
G37*
G36*
X148487142Y-66468242D02*
G01*
X148635101Y-66529529D01*
X148768255Y-66618499D01*
X148881501Y-66731745D01*
X148970471Y-66864899D01*
X149031758Y-67012858D01*
X149063000Y-67169925D01*
X149063000Y-67330075D01*
X149031758Y-67487142D01*
X148970471Y-67635101D01*
X148881501Y-67768255D01*
X148768255Y-67881501D01*
X148635101Y-67970471D01*
X148487142Y-68031758D01*
X148330075Y-68063000D01*
X148169925Y-68063000D01*
X148012858Y-68031758D01*
X147864899Y-67970471D01*
X147731745Y-67881501D01*
X147618499Y-67768255D01*
X147529529Y-67635101D01*
X147468242Y-67487142D01*
X147437000Y-67330075D01*
X147437000Y-67169925D01*
X147468242Y-67012858D01*
X147529529Y-66864899D01*
X147618499Y-66731745D01*
X147731745Y-66618499D01*
X147864899Y-66529529D01*
X148012858Y-66468242D01*
X148169925Y-66437000D01*
X148330075Y-66437000D01*
X148487142Y-66468242D01*
G37*
G36*
X128487142Y-66468242D02*
G01*
X128635101Y-66529529D01*
X128768255Y-66618499D01*
X128881501Y-66731745D01*
X128970471Y-66864899D01*
X129031758Y-67012858D01*
X129063000Y-67169925D01*
X129063000Y-67330075D01*
X129031758Y-67487142D01*
X128970471Y-67635101D01*
X128881501Y-67768255D01*
X128768255Y-67881501D01*
X128635101Y-67970471D01*
X128487142Y-68031758D01*
X128330075Y-68063000D01*
X128169925Y-68063000D01*
X128012858Y-68031758D01*
X127864899Y-67970471D01*
X127731745Y-67881501D01*
X127618499Y-67768255D01*
X127529529Y-67635101D01*
X127468242Y-67487142D01*
X127437000Y-67330075D01*
X127437000Y-67169925D01*
X127468242Y-67012858D01*
X127529529Y-66864899D01*
X127618499Y-66731745D01*
X127731745Y-66618499D01*
X127864899Y-66529529D01*
X128012858Y-66468242D01*
X128169925Y-66437000D01*
X128330075Y-66437000D01*
X128487142Y-66468242D01*
G37*
G36*
X131027142Y-66468242D02*
G01*
X131175101Y-66529529D01*
X131308255Y-66618499D01*
X131421501Y-66731745D01*
X131510471Y-66864899D01*
X131571758Y-67012858D01*
X131603000Y-67169925D01*
X131603000Y-67330075D01*
X131571758Y-67487142D01*
X131510471Y-67635101D01*
X131421501Y-67768255D01*
X131308255Y-67881501D01*
X131175101Y-67970471D01*
X131027142Y-68031758D01*
X130870075Y-68063000D01*
X130709925Y-68063000D01*
X130552858Y-68031758D01*
X130404899Y-67970471D01*
X130271745Y-67881501D01*
X130158499Y-67768255D01*
X130069529Y-67635101D01*
X130008242Y-67487142D01*
X129977000Y-67330075D01*
X129977000Y-67169925D01*
X130008242Y-67012858D01*
X130069529Y-66864899D01*
X130158499Y-66731745D01*
X130271745Y-66618499D01*
X130404899Y-66529529D01*
X130552858Y-66468242D01*
X130709925Y-66437000D01*
X130870075Y-66437000D01*
X131027142Y-66468242D01*
G37*
G36*
X138487142Y-66468242D02*
G01*
X138635101Y-66529529D01*
X138768255Y-66618499D01*
X138881501Y-66731745D01*
X138970471Y-66864899D01*
X139031758Y-67012858D01*
X139063000Y-67169925D01*
X139063000Y-67330075D01*
X139031758Y-67487142D01*
X138970471Y-67635101D01*
X138881501Y-67768255D01*
X138768255Y-67881501D01*
X138635101Y-67970471D01*
X138487142Y-68031758D01*
X138330075Y-68063000D01*
X138169925Y-68063000D01*
X138012858Y-68031758D01*
X137864899Y-67970471D01*
X137731745Y-67881501D01*
X137618499Y-67768255D01*
X137529529Y-67635101D01*
X137468242Y-67487142D01*
X137437000Y-67330075D01*
X137437000Y-67169925D01*
X137468242Y-67012858D01*
X137529529Y-66864899D01*
X137618499Y-66731745D01*
X137731745Y-66618499D01*
X137864899Y-66529529D01*
X138012858Y-66468242D01*
X138169925Y-66437000D01*
X138330075Y-66437000D01*
X138487142Y-66468242D01*
G37*
G36*
X121027142Y-66468242D02*
G01*
X121175101Y-66529529D01*
X121308255Y-66618499D01*
X121421501Y-66731745D01*
X121510471Y-66864899D01*
X121571758Y-67012858D01*
X121603000Y-67169925D01*
X121603000Y-67330075D01*
X121571758Y-67487142D01*
X121510471Y-67635101D01*
X121421501Y-67768255D01*
X121308255Y-67881501D01*
X121175101Y-67970471D01*
X121027142Y-68031758D01*
X120870075Y-68063000D01*
X120709925Y-68063000D01*
X120552858Y-68031758D01*
X120404899Y-67970471D01*
X120271745Y-67881501D01*
X120158499Y-67768255D01*
X120069529Y-67635101D01*
X120008242Y-67487142D01*
X119977000Y-67330075D01*
X119977000Y-67169925D01*
X120008242Y-67012858D01*
X120069529Y-66864899D01*
X120158499Y-66731745D01*
X120271745Y-66618499D01*
X120404899Y-66529529D01*
X120552858Y-66468242D01*
X120709925Y-66437000D01*
X120870075Y-66437000D01*
X121027142Y-66468242D01*
G37*
G36*
X141027142Y-66468242D02*
G01*
X141175101Y-66529529D01*
X141308255Y-66618499D01*
X141421501Y-66731745D01*
X141510471Y-66864899D01*
X141571758Y-67012858D01*
X141603000Y-67169925D01*
X141603000Y-67330075D01*
X141571758Y-67487142D01*
X141510471Y-67635101D01*
X141421501Y-67768255D01*
X141308255Y-67881501D01*
X141175101Y-67970471D01*
X141027142Y-68031758D01*
X140870075Y-68063000D01*
X140709925Y-68063000D01*
X140552858Y-68031758D01*
X140404899Y-67970471D01*
X140271745Y-67881501D01*
X140158499Y-67768255D01*
X140069529Y-67635101D01*
X140008242Y-67487142D01*
X139977000Y-67330075D01*
X139977000Y-67169925D01*
X140008242Y-67012858D01*
X140069529Y-66864899D01*
X140158499Y-66731745D01*
X140271745Y-66618499D01*
X140404899Y-66529529D01*
X140552858Y-66468242D01*
X140709925Y-66437000D01*
X140870075Y-66437000D01*
X141027142Y-66468242D01*
G37*
G36*
X151027142Y-66468242D02*
G01*
X151175101Y-66529529D01*
X151308255Y-66618499D01*
X151421501Y-66731745D01*
X151510471Y-66864899D01*
X151571758Y-67012858D01*
X151603000Y-67169925D01*
X151603000Y-67330075D01*
X151571758Y-67487142D01*
X151510471Y-67635101D01*
X151421501Y-67768255D01*
X151308255Y-67881501D01*
X151175101Y-67970471D01*
X151027142Y-68031758D01*
X150870075Y-68063000D01*
X150709925Y-68063000D01*
X150552858Y-68031758D01*
X150404899Y-67970471D01*
X150271745Y-67881501D01*
X150158499Y-67768255D01*
X150069529Y-67635101D01*
X150008242Y-67487142D01*
X149977000Y-67330075D01*
X149977000Y-67169925D01*
X150008242Y-67012858D01*
X150069529Y-66864899D01*
X150158499Y-66731745D01*
X150271745Y-66618499D01*
X150404899Y-66529529D01*
X150552858Y-66468242D01*
X150709925Y-66437000D01*
X150870075Y-66437000D01*
X151027142Y-66468242D01*
G37*
G36*
X118487142Y-66468242D02*
G01*
X118635101Y-66529529D01*
X118768255Y-66618499D01*
X118881501Y-66731745D01*
X118970471Y-66864899D01*
X119031758Y-67012858D01*
X119063000Y-67169925D01*
X119063000Y-67330075D01*
X119031758Y-67487142D01*
X118970471Y-67635101D01*
X118881501Y-67768255D01*
X118768255Y-67881501D01*
X118635101Y-67970471D01*
X118487142Y-68031758D01*
X118330075Y-68063000D01*
X118169925Y-68063000D01*
X118012858Y-68031758D01*
X117864899Y-67970471D01*
X117731745Y-67881501D01*
X117618499Y-67768255D01*
X117529529Y-67635101D01*
X117468242Y-67487142D01*
X117437000Y-67330075D01*
X117437000Y-67169925D01*
X117468242Y-67012858D01*
X117529529Y-66864899D01*
X117618499Y-66731745D01*
X117731745Y-66618499D01*
X117864899Y-66529529D01*
X118012858Y-66468242D01*
X118169925Y-66437000D01*
X118330075Y-66437000D01*
X118487142Y-66468242D01*
G37*
G36*
X199841000Y-62901000D02*
G01*
X194659000Y-62901000D01*
X194659000Y-61299000D01*
X199841000Y-61299000D01*
X199841000Y-62901000D01*
G37*
G36*
X106548156Y-51672794D02*
G01*
X107269140Y-51816206D01*
X108060972Y-52144193D01*
X108773601Y-52620357D01*
X109379643Y-53226399D01*
X109855807Y-53939028D01*
X110183794Y-54730860D01*
X110351000Y-55571464D01*
X110351000Y-56428536D01*
X110183794Y-57269140D01*
X109855807Y-58060972D01*
X109379643Y-58773601D01*
X108773601Y-59379643D01*
X108060972Y-59855807D01*
X107269140Y-60183794D01*
X106548156Y-60327206D01*
X106428537Y-60351000D01*
X105571463Y-60351000D01*
X105451844Y-60327206D01*
X104730860Y-60183794D01*
X103939028Y-59855807D01*
X103226399Y-59379643D01*
X102620357Y-58773601D01*
X102144193Y-58060972D01*
X101816206Y-57269140D01*
X101649000Y-56428536D01*
X101649000Y-55571464D01*
X101816206Y-54730860D01*
X102144193Y-53939028D01*
X102620357Y-53226399D01*
X103226399Y-52620357D01*
X103939028Y-52144193D01*
X104730860Y-51816206D01*
X105451844Y-51672794D01*
X105571463Y-51649000D01*
X106428537Y-51649000D01*
X106548156Y-51672794D01*
G37*
G36*
X194548156Y-51672794D02*
G01*
X195269140Y-51816206D01*
X196060972Y-52144193D01*
X196773601Y-52620357D01*
X197379643Y-53226399D01*
X197855807Y-53939028D01*
X198183794Y-54730860D01*
X198351000Y-55571464D01*
X198351000Y-56428536D01*
X198183794Y-57269140D01*
X197855807Y-58060972D01*
X197379643Y-58773601D01*
X196773601Y-59379643D01*
X196060972Y-59855807D01*
X195269140Y-60183794D01*
X194548156Y-60327206D01*
X194428537Y-60351000D01*
X193571463Y-60351000D01*
X193451844Y-60327206D01*
X192730860Y-60183794D01*
X191939028Y-59855807D01*
X191226399Y-59379643D01*
X190620357Y-58773601D01*
X190144193Y-58060972D01*
X189816206Y-57269140D01*
X189649000Y-56428536D01*
X189649000Y-55571464D01*
X189816206Y-54730860D01*
X190144193Y-53939028D01*
X190620357Y-53226399D01*
X191226399Y-52620357D01*
X191939028Y-52144193D01*
X192730860Y-51816206D01*
X193451844Y-51672794D01*
X193571463Y-51649000D01*
X194428537Y-51649000D01*
X194548156Y-51672794D01*
G37*
G36*
X180947142Y-58718242D02*
G01*
X181095101Y-58779529D01*
X181228255Y-58868499D01*
X181341501Y-58981745D01*
X181430471Y-59114899D01*
X181491758Y-59262858D01*
X181523000Y-59419925D01*
X181523000Y-59580075D01*
X181491758Y-59737142D01*
X181430471Y-59885101D01*
X181341501Y-60018255D01*
X181228255Y-60131501D01*
X181095101Y-60220471D01*
X180947142Y-60281758D01*
X180790075Y-60313000D01*
X180629925Y-60313000D01*
X180472858Y-60281758D01*
X180324899Y-60220471D01*
X180191745Y-60131501D01*
X180078499Y-60018255D01*
X179989529Y-59885101D01*
X179928242Y-59737142D01*
X179897000Y-59580075D01*
X179897000Y-59419925D01*
X179928242Y-59262858D01*
X179989529Y-59114899D01*
X180078499Y-58981745D01*
X180191745Y-58868499D01*
X180324899Y-58779529D01*
X180472858Y-58718242D01*
X180629925Y-58687000D01*
X180790075Y-58687000D01*
X180947142Y-58718242D01*
G37*
G36*
X183487142Y-58718242D02*
G01*
X183635101Y-58779529D01*
X183768255Y-58868499D01*
X183881501Y-58981745D01*
X183970471Y-59114899D01*
X184031758Y-59262858D01*
X184063000Y-59419925D01*
X184063000Y-59580075D01*
X184031758Y-59737142D01*
X183970471Y-59885101D01*
X183881501Y-60018255D01*
X183768255Y-60131501D01*
X183635101Y-60220471D01*
X183487142Y-60281758D01*
X183330075Y-60313000D01*
X183169925Y-60313000D01*
X183012858Y-60281758D01*
X182864899Y-60220471D01*
X182731745Y-60131501D01*
X182618499Y-60018255D01*
X182529529Y-59885101D01*
X182468242Y-59737142D01*
X182437000Y-59580075D01*
X182437000Y-59419925D01*
X182468242Y-59262858D01*
X182529529Y-59114899D01*
X182618499Y-58981745D01*
X182731745Y-58868499D01*
X182864899Y-58779529D01*
X183012858Y-58718242D01*
X183169925Y-58687000D01*
X183330075Y-58687000D01*
X183487142Y-58718242D01*
G37*
G36*
X168937534Y-52557643D02*
G01*
X169210515Y-52670716D01*
X169210517Y-52670717D01*
X169456194Y-52834874D01*
X169665126Y-53043806D01*
X169781908Y-53218581D01*
X169829284Y-53289485D01*
X169942357Y-53562466D01*
X170000000Y-53852262D01*
X170000000Y-54147738D01*
X169942357Y-54437534D01*
X169829284Y-54710515D01*
X169829283Y-54710517D01*
X169665126Y-54956194D01*
X169456194Y-55165126D01*
X169210517Y-55329283D01*
X169210516Y-55329284D01*
X169210515Y-55329284D01*
X168937534Y-55442357D01*
X168647738Y-55500000D01*
X168352262Y-55500000D01*
X168062466Y-55442357D01*
X167789485Y-55329284D01*
X167789484Y-55329284D01*
X167789483Y-55329283D01*
X167543806Y-55165126D01*
X167334874Y-54956194D01*
X167170717Y-54710517D01*
X167170716Y-54710515D01*
X167057643Y-54437534D01*
X167000000Y-54147738D01*
X167000000Y-53852262D01*
X167057643Y-53562466D01*
X167170716Y-53289485D01*
X167218093Y-53218581D01*
X167334874Y-53043806D01*
X167543806Y-52834874D01*
X167789483Y-52670717D01*
X167789485Y-52670716D01*
X168062466Y-52557643D01*
X168352262Y-52500000D01*
X168647738Y-52500000D01*
X168937534Y-52557643D01*
G37*
G36*
X139551000Y-55391000D02*
G01*
X137949000Y-55391000D01*
X137949000Y-50209000D01*
X139551000Y-50209000D01*
X139551000Y-55391000D01*
G37*
G36*
X131051000Y-55391000D02*
G01*
X129449000Y-55391000D01*
X129449000Y-50209000D01*
X131051000Y-50209000D01*
X131051000Y-55391000D01*
G37*
G36*
X154051000Y-55391000D02*
G01*
X152449000Y-55391000D01*
X152449000Y-50209000D01*
X154051000Y-50209000D01*
X154051000Y-55391000D01*
G37*
G36*
X162551000Y-55391000D02*
G01*
X160949000Y-55391000D01*
X160949000Y-50209000D01*
X162551000Y-50209000D01*
X162551000Y-55391000D01*
G37*
G36*
X188301000Y-55391000D02*
G01*
X186699000Y-55391000D01*
X186699000Y-50209000D01*
X188301000Y-50209000D01*
X188301000Y-55391000D01*
G37*
G36*
X179801000Y-55391000D02*
G01*
X178199000Y-55391000D01*
X178199000Y-50209000D01*
X179801000Y-50209000D01*
X179801000Y-55391000D01*
G37*
M02*
