G04 #@! TF.GenerationSoftware,KiCad,Pcbnew,5.1.6-c6e7f7d~86~ubuntu18.04.1*
G04 #@! TF.CreationDate,2020-05-28T18:44:08+01:00*
G04 #@! TF.ProjectId,multi-smtpa,6d756c74-692d-4736-9d74-70612e6b6963,rev?*
G04 #@! TF.SameCoordinates,Original*
G04 #@! TF.FileFunction,Copper,L3,Inr*
G04 #@! TF.FilePolarity,Positive*
%FSLAX46Y46*%
G04 Gerber Fmt 4.6, Leading zero omitted, Abs format (unit mm)*
G04 Created by KiCad (PCBNEW 5.1.6-c6e7f7d~86~ubuntu18.04.1) date 2020-05-28 18:44:08*
%MOMM*%
%LPD*%
G01*
G04 APERTURE LIST*
G04 #@! TA.AperFunction,ViaPad*
%ADD10C,1.524000*%
G04 #@! TD*
G04 #@! TA.AperFunction,ViaPad*
%ADD11C,0.900000*%
G04 #@! TD*
G04 #@! TA.AperFunction,ViaPad*
%ADD12C,8.600000*%
G04 #@! TD*
G04 #@! TA.AperFunction,ViaPad*
%ADD13C,1.800000*%
G04 #@! TD*
G04 #@! TA.AperFunction,ViaPad*
%ADD14C,2.100000*%
G04 #@! TD*
G04 #@! TA.AperFunction,ViaPad*
%ADD15R,2.100000X2.100000*%
G04 #@! TD*
G04 #@! TA.AperFunction,ViaPad*
%ADD16O,1.600000X1.600000*%
G04 #@! TD*
G04 #@! TA.AperFunction,ViaPad*
%ADD17C,1.600000*%
G04 #@! TD*
G04 #@! TA.AperFunction,ViaPad*
%ADD18O,1.800000X1.800000*%
G04 #@! TD*
G04 #@! TA.AperFunction,ViaPad*
%ADD19R,1.800000X1.800000*%
G04 #@! TD*
G04 #@! TA.AperFunction,ViaPad*
%ADD20C,0.800000*%
G04 #@! TD*
G04 #@! TA.AperFunction,Conductor*
%ADD21C,0.254000*%
G04 #@! TD*
G04 APERTURE END LIST*
D10*
X183000000Y-81540000D03*
X183000000Y-79000000D03*
X173000000Y-81540000D03*
X173000000Y-79000000D03*
X173000000Y-76460000D03*
D11*
X108280419Y-53719581D03*
X106000000Y-52775000D03*
X103719581Y-53719581D03*
X102775000Y-56000000D03*
X103719581Y-58280419D03*
X106000000Y-59225000D03*
X108280419Y-58280419D03*
X109225000Y-56000000D03*
D12*
X106000000Y-56000000D03*
D11*
X196280419Y-53719581D03*
X194000000Y-52775000D03*
X191719581Y-53719581D03*
X190775000Y-56000000D03*
X191719581Y-58280419D03*
X194000000Y-59225000D03*
X196280419Y-58280419D03*
X197225000Y-56000000D03*
D12*
X194000000Y-56000000D03*
D11*
X108280419Y-141719581D03*
X106000000Y-140775000D03*
X103719581Y-141719581D03*
X102775000Y-144000000D03*
X103719581Y-146280419D03*
X106000000Y-147225000D03*
X108280419Y-146280419D03*
X109225000Y-144000000D03*
D12*
X106000000Y-144000000D03*
D11*
X195780419Y-141219581D03*
X193500000Y-140275000D03*
X191219581Y-141219581D03*
X190275000Y-143500000D03*
X191219581Y-145780419D03*
X193500000Y-146725000D03*
X195780419Y-145780419D03*
X196725000Y-143500000D03*
D12*
X193500000Y-143500000D03*
D13*
X133750000Y-83750000D03*
X123590000Y-81210000D03*
X115970000Y-83750000D03*
D10*
X115710000Y-77250000D03*
X118250000Y-77250000D03*
X120790000Y-77250000D03*
X118250000Y-67250000D03*
X120790000Y-67250000D03*
X135710000Y-77250000D03*
X138250000Y-77250000D03*
X140790000Y-77250000D03*
X138250000Y-67250000D03*
X140790000Y-67250000D03*
X125710000Y-77250000D03*
X128250000Y-77250000D03*
X130790000Y-77250000D03*
X128250000Y-67250000D03*
X130790000Y-67250000D03*
X145710000Y-77250000D03*
X148250000Y-77250000D03*
X150790000Y-77250000D03*
X148250000Y-67250000D03*
X150790000Y-67250000D03*
X166515000Y-101670000D03*
X166515000Y-104210000D03*
X166515000Y-106750000D03*
X176515000Y-104210000D03*
X176515000Y-106750000D03*
X166515000Y-89655000D03*
X166515000Y-92195000D03*
X166515000Y-94735000D03*
X176515000Y-92195000D03*
X176515000Y-94735000D03*
X134500000Y-140580000D03*
X134500000Y-138040000D03*
X134500000Y-135500000D03*
X124500000Y-138040000D03*
X124500000Y-135500000D03*
X178170000Y-69500000D03*
X180710000Y-69500000D03*
X183250000Y-69500000D03*
X180710000Y-59500000D03*
X183250000Y-59500000D03*
X159960000Y-137000000D03*
X162500000Y-137000000D03*
X165040000Y-137000000D03*
X162500000Y-127000000D03*
X165040000Y-127000000D03*
X124500000Y-124420000D03*
X124500000Y-126960000D03*
X124500000Y-129500000D03*
X134500000Y-126960000D03*
X134500000Y-129500000D03*
X119750000Y-97830000D03*
X119750000Y-95290000D03*
X119750000Y-92750000D03*
X109750000Y-95290000D03*
X109750000Y-92750000D03*
D13*
X189250000Y-120000000D03*
X186710000Y-130160000D03*
X189250000Y-137780000D03*
X144250000Y-127470000D03*
X141710000Y-137630000D03*
X144250000Y-145250000D03*
X174250000Y-71500000D03*
X164090000Y-68960000D03*
X156470000Y-71500000D03*
X150750000Y-112000000D03*
X160910000Y-114540000D03*
X168530000Y-112000000D03*
X116040000Y-124340000D03*
X113500000Y-134500000D03*
X116040000Y-142120000D03*
X128250000Y-90500000D03*
X125710000Y-100660000D03*
X128250000Y-108280000D03*
D14*
X138500000Y-105810000D03*
D15*
X138500000Y-108350000D03*
D16*
X138000000Y-99350000D03*
D17*
X138000000Y-89190000D03*
D18*
X142500000Y-99350000D03*
D19*
X142500000Y-89190000D03*
D20*
X142000000Y-149000000D03*
X169000000Y-139000000D03*
X165500000Y-133500000D03*
X165500000Y-131750000D03*
X168250000Y-122250000D03*
X161750000Y-122250000D03*
X180000000Y-127500000D03*
X181000000Y-128500000D03*
X180000000Y-129500000D03*
X173250000Y-128500000D03*
X174750000Y-144250000D03*
X183250000Y-144250000D03*
X125250000Y-144250000D03*
X133750000Y-144250000D03*
X120500000Y-140000000D03*
X105750000Y-125750000D03*
X105750000Y-117250000D03*
X106000000Y-97000000D03*
X106000000Y-88500000D03*
X179000000Y-55750000D03*
X187500000Y-55750000D03*
X149750000Y-117750000D03*
X154500000Y-122000000D03*
X149750000Y-120000000D03*
X154250000Y-135500000D03*
X148000000Y-136500000D03*
X125500000Y-117500000D03*
X140500000Y-121000000D03*
X138000000Y-122500000D03*
X138000000Y-114000000D03*
X138000000Y-131500000D03*
X122500000Y-131750000D03*
X122500000Y-134750000D03*
X119000000Y-138000000D03*
X112500000Y-97750000D03*
X104750000Y-100000000D03*
X158050000Y-63250000D03*
X122500000Y-105750000D03*
X172000000Y-66000000D03*
X174500000Y-62500000D03*
X177250000Y-62500000D03*
X171750000Y-62500000D03*
X169250000Y-62750000D03*
X174250000Y-87000000D03*
X176250000Y-87000000D03*
X178250000Y-87000000D03*
X182250000Y-99750000D03*
X182250000Y-101750000D03*
X182250000Y-103750000D03*
X193750000Y-81500000D03*
X193750000Y-90000000D03*
X193750000Y-110500000D03*
X193750000Y-119000000D03*
X188750000Y-109500000D03*
X191500000Y-92000000D03*
X193500000Y-129500000D03*
X112000000Y-72750000D03*
X111750000Y-75000000D03*
X111000000Y-82250000D03*
X122750000Y-62750000D03*
X132750000Y-62750000D03*
X142750000Y-62750000D03*
X152750000Y-62750000D03*
X114500000Y-66250000D03*
X113500000Y-71750000D03*
X144500000Y-66250000D03*
X143750000Y-71750000D03*
X104750000Y-101750000D03*
X104550000Y-104350000D03*
X113550000Y-95750000D03*
X134500000Y-66250000D03*
X133750000Y-71750000D03*
X123500000Y-71750000D03*
X124500000Y-66250000D03*
X113550000Y-94550000D03*
X119000000Y-102000000D03*
X138800000Y-55600000D03*
X130200000Y-55600000D03*
X153200000Y-55300000D03*
X161700000Y-55400000D03*
X181000000Y-94250000D03*
X172750000Y-92250000D03*
X174250000Y-84250000D03*
X177500000Y-81000000D03*
X178000000Y-79000000D03*
X179250000Y-75250000D03*
X183000000Y-74000000D03*
X185750000Y-76250000D03*
X187000000Y-79000000D03*
X159000000Y-79200000D03*
X194200000Y-62100000D03*
X194200000Y-70600000D03*
X144500000Y-85000000D03*
X127750000Y-137250000D03*
X131250000Y-127750000D03*
X140000000Y-149000000D03*
X146000000Y-149000000D03*
X144000000Y-149000000D03*
X152000000Y-149000000D03*
X150000000Y-149000000D03*
X148000000Y-149000000D03*
X154000000Y-149000000D03*
X160000000Y-149000000D03*
X158000000Y-149000000D03*
X162000000Y-149000000D03*
X156000000Y-149000000D03*
X162000000Y-149000000D03*
X166000000Y-149000000D03*
X164000000Y-149000000D03*
X168000000Y-149000000D03*
X170000000Y-149000000D03*
X172000000Y-149000000D03*
X136000000Y-149000000D03*
X138000000Y-149000000D03*
X186000000Y-149000000D03*
X188000000Y-149000000D03*
X190000000Y-149000000D03*
X192000000Y-149000000D03*
X199000000Y-140000000D03*
X199000000Y-142000000D03*
X199000000Y-138000000D03*
X199000000Y-136000000D03*
X199000000Y-134000000D03*
X199000000Y-132000000D03*
X199000000Y-128000000D03*
X199000000Y-130000000D03*
X199000000Y-122000000D03*
X199000000Y-126000000D03*
X199000000Y-124000000D03*
X199000000Y-104000000D03*
X199000000Y-106000000D03*
X199000000Y-108000000D03*
X199000000Y-98000000D03*
X199000000Y-102000000D03*
X199000000Y-100000000D03*
X199000000Y-92000000D03*
X199000000Y-96000000D03*
X199000000Y-94000000D03*
X199000000Y-75000000D03*
X199000000Y-77000000D03*
X199000000Y-79000000D03*
X199000000Y-73000000D03*
X199000000Y-60000000D03*
X199000000Y-58000000D03*
X190000000Y-51000000D03*
X177000000Y-51000000D03*
X175000000Y-51000000D03*
X171000000Y-51000000D03*
X173000000Y-51000000D03*
X165000000Y-51000000D03*
X167000000Y-51000000D03*
X169000000Y-51000000D03*
X151000000Y-51000000D03*
X149000000Y-51000000D03*
X147000000Y-51000000D03*
X145000000Y-51000000D03*
X141000000Y-51000000D03*
X143000000Y-51000000D03*
X127000000Y-51000000D03*
X123000000Y-51000000D03*
X117000000Y-51000000D03*
X119000000Y-51000000D03*
X125000000Y-51000000D03*
X121000000Y-51000000D03*
X113000000Y-51000000D03*
X111000000Y-51000000D03*
X115000000Y-51000000D03*
X109000000Y-51000000D03*
X101000000Y-62000000D03*
X101000000Y-58000000D03*
X101000000Y-66000000D03*
X101000000Y-60000000D03*
X101000000Y-64000000D03*
X101000000Y-72000000D03*
X101000000Y-70000000D03*
X101000000Y-68000000D03*
X101000000Y-76000000D03*
X101000000Y-74000000D03*
X101000000Y-82000000D03*
X101000000Y-80000000D03*
X101000000Y-78000000D03*
X101000000Y-86000000D03*
X101000000Y-84000000D03*
X101000000Y-107000000D03*
X101000000Y-103000000D03*
X101000000Y-101000000D03*
X101000000Y-105000000D03*
X101000000Y-99000000D03*
X101000000Y-111000000D03*
X101000000Y-109000000D03*
X101000000Y-113000000D03*
X101000000Y-115000000D03*
X101000000Y-128000000D03*
X101000000Y-130000000D03*
X101000000Y-132000000D03*
X101000000Y-134000000D03*
X101000000Y-142000000D03*
X101000000Y-136000000D03*
X101000000Y-140000000D03*
X101000000Y-138000000D03*
X114000000Y-149000000D03*
X110000000Y-149000000D03*
X112000000Y-149000000D03*
X108000000Y-149000000D03*
X120000000Y-149000000D03*
X118000000Y-149000000D03*
X122000000Y-149000000D03*
X116000000Y-149000000D03*
X192000000Y-51000000D03*
X127500000Y-114500000D03*
X158500000Y-132500000D03*
X156750000Y-125250000D03*
X156550000Y-60000000D03*
X119000000Y-106500000D03*
X187250000Y-106250000D03*
X107250000Y-72750000D03*
X169975000Y-83275000D03*
X120750000Y-120000000D03*
X119750000Y-135750000D03*
X116750000Y-101500000D03*
X116750000Y-109250000D03*
X113500000Y-132000000D03*
X127000000Y-119000000D03*
X189000000Y-100750000D03*
X196750000Y-104000000D03*
D21*
G36*
X159873000Y-73500000D02*
G01*
X159875440Y-73524776D01*
X159882667Y-73548601D01*
X159894403Y-73570557D01*
X159910197Y-73589803D01*
X159929443Y-73605597D01*
X159951399Y-73617333D01*
X159975224Y-73624560D01*
X160000000Y-73627000D01*
X170873000Y-73627000D01*
X170873000Y-83500000D01*
X170875440Y-83524776D01*
X170882667Y-83548601D01*
X170894403Y-83570557D01*
X170910197Y-83589803D01*
X170929443Y-83605597D01*
X170951399Y-83617333D01*
X170975224Y-83624560D01*
X171000000Y-83627000D01*
X172855242Y-83627000D01*
X172781681Y-83804590D01*
X172723000Y-84099604D01*
X172723000Y-84400396D01*
X172781681Y-84695410D01*
X172896790Y-84973306D01*
X173063901Y-85223406D01*
X173276594Y-85436099D01*
X173526694Y-85603210D01*
X173579299Y-85625000D01*
X173526694Y-85646790D01*
X173276594Y-85813901D01*
X173063901Y-86026594D01*
X172896790Y-86276694D01*
X172781681Y-86554590D01*
X172723000Y-86849604D01*
X172723000Y-87150396D01*
X172767278Y-87373000D01*
X172000000Y-87373000D01*
X171975224Y-87375440D01*
X171951399Y-87382667D01*
X171929443Y-87394403D01*
X171910197Y-87410197D01*
X171894403Y-87429443D01*
X171882667Y-87451399D01*
X171875440Y-87475224D01*
X171873000Y-87500000D01*
X171873000Y-90999485D01*
X171776594Y-91063901D01*
X171563901Y-91276594D01*
X171396790Y-91526694D01*
X171281681Y-91804590D01*
X171223000Y-92099604D01*
X171223000Y-92400396D01*
X171281681Y-92695410D01*
X171396790Y-92973306D01*
X171563901Y-93223406D01*
X171776594Y-93436099D01*
X171873000Y-93500515D01*
X171873000Y-96500000D01*
X171875440Y-96524776D01*
X171882667Y-96548601D01*
X171894403Y-96570557D01*
X171910197Y-96589803D01*
X171929443Y-96605597D01*
X171951399Y-96617333D01*
X171975224Y-96624560D01*
X172000000Y-96627000D01*
X182250000Y-96627000D01*
X182281519Y-96623027D01*
X182304915Y-96614514D01*
X182326200Y-96601600D01*
X182344557Y-96584782D01*
X182359280Y-96564706D01*
X182369804Y-96542143D01*
X182375724Y-96517961D01*
X182872097Y-93043349D01*
X183600858Y-91828749D01*
X185571370Y-89858236D01*
X188024460Y-88877000D01*
X189949778Y-88877000D01*
X191652658Y-90473450D01*
X191650396Y-90473000D01*
X191349604Y-90473000D01*
X191054590Y-90531681D01*
X190776694Y-90646790D01*
X190526594Y-90813901D01*
X190313901Y-91026594D01*
X190146790Y-91276694D01*
X190031681Y-91554590D01*
X189973000Y-91849604D01*
X189973000Y-92150396D01*
X190031681Y-92445410D01*
X190146790Y-92723306D01*
X190313901Y-92973406D01*
X190526594Y-93186099D01*
X190776694Y-93353210D01*
X191054590Y-93468319D01*
X191349604Y-93527000D01*
X191650396Y-93527000D01*
X191945410Y-93468319D01*
X192223306Y-93353210D01*
X192473406Y-93186099D01*
X192686099Y-92973406D01*
X192853210Y-92723306D01*
X192968319Y-92445410D01*
X193027000Y-92150396D01*
X193027000Y-91849604D01*
X193005555Y-91741791D01*
X193913139Y-92592651D01*
X193929443Y-92605597D01*
X193951399Y-92617333D01*
X193975224Y-92624560D01*
X194000000Y-92627000D01*
X197606899Y-92627000D01*
X197646790Y-92723306D01*
X197813901Y-92973406D01*
X197840495Y-93000000D01*
X197813901Y-93026594D01*
X197646790Y-93276694D01*
X197531681Y-93554590D01*
X197473000Y-93849604D01*
X197473000Y-94150396D01*
X197531681Y-94445410D01*
X197646790Y-94723306D01*
X197813901Y-94973406D01*
X197840495Y-95000000D01*
X197813901Y-95026594D01*
X197646790Y-95276694D01*
X197531681Y-95554590D01*
X197473000Y-95849604D01*
X197473000Y-96150396D01*
X197531681Y-96445410D01*
X197646790Y-96723306D01*
X197813901Y-96973406D01*
X197840495Y-97000000D01*
X197813901Y-97026594D01*
X197646790Y-97276694D01*
X197531681Y-97554590D01*
X197473000Y-97849604D01*
X197473000Y-98150396D01*
X197531681Y-98445410D01*
X197646790Y-98723306D01*
X197813901Y-98973406D01*
X197840495Y-99000000D01*
X197813901Y-99026594D01*
X197646790Y-99276694D01*
X197531681Y-99554590D01*
X197473000Y-99849604D01*
X197473000Y-100150396D01*
X197531681Y-100445410D01*
X197646790Y-100723306D01*
X197813901Y-100973406D01*
X197840495Y-101000000D01*
X197813901Y-101026594D01*
X197646790Y-101276694D01*
X197531681Y-101554590D01*
X197473000Y-101849604D01*
X197473000Y-102150396D01*
X197531681Y-102445410D01*
X197646790Y-102723306D01*
X197694352Y-102794488D01*
X197473306Y-102646790D01*
X197195410Y-102531681D01*
X196900396Y-102473000D01*
X196599604Y-102473000D01*
X196304590Y-102531681D01*
X196026694Y-102646790D01*
X195776594Y-102813901D01*
X195563901Y-103026594D01*
X195396790Y-103276694D01*
X195281681Y-103554590D01*
X195223000Y-103849604D01*
X195223000Y-104150396D01*
X195281681Y-104445410D01*
X195396790Y-104723306D01*
X195563901Y-104973406D01*
X195776594Y-105186099D01*
X196026694Y-105353210D01*
X196304590Y-105468319D01*
X196599604Y-105527000D01*
X196900396Y-105527000D01*
X197195410Y-105468319D01*
X197473306Y-105353210D01*
X197694352Y-105205512D01*
X197646790Y-105276694D01*
X197531681Y-105554590D01*
X197473000Y-105849604D01*
X197473000Y-106150396D01*
X197531681Y-106445410D01*
X197646790Y-106723306D01*
X197813901Y-106973406D01*
X197840495Y-107000000D01*
X197813901Y-107026594D01*
X197646790Y-107276694D01*
X197606899Y-107373000D01*
X186073701Y-107373000D01*
X184127000Y-103966273D01*
X184127000Y-100599604D01*
X187473000Y-100599604D01*
X187473000Y-100900396D01*
X187531681Y-101195410D01*
X187646790Y-101473306D01*
X187813901Y-101723406D01*
X188026594Y-101936099D01*
X188276694Y-102103210D01*
X188554590Y-102218319D01*
X188849604Y-102277000D01*
X189150396Y-102277000D01*
X189445410Y-102218319D01*
X189723306Y-102103210D01*
X189973406Y-101936099D01*
X190186099Y-101723406D01*
X190353210Y-101473306D01*
X190468319Y-101195410D01*
X190527000Y-100900396D01*
X190527000Y-100599604D01*
X190468319Y-100304590D01*
X190353210Y-100026694D01*
X190186099Y-99776594D01*
X189973406Y-99563901D01*
X189723306Y-99396790D01*
X189445410Y-99281681D01*
X189150396Y-99223000D01*
X188849604Y-99223000D01*
X188554590Y-99281681D01*
X188276694Y-99396790D01*
X188026594Y-99563901D01*
X187813901Y-99776594D01*
X187646790Y-100026694D01*
X187531681Y-100304590D01*
X187473000Y-100599604D01*
X184127000Y-100599604D01*
X184127000Y-98500000D01*
X184124560Y-98475224D01*
X184117333Y-98451399D01*
X184105597Y-98429443D01*
X184089803Y-98410197D01*
X184070557Y-98394403D01*
X184048601Y-98382667D01*
X184024776Y-98375440D01*
X184000000Y-98373000D01*
X182915872Y-98373000D01*
X182695410Y-98281681D01*
X182400396Y-98223000D01*
X182099604Y-98223000D01*
X181804590Y-98281681D01*
X181584128Y-98373000D01*
X169127000Y-98373000D01*
X169127000Y-87000000D01*
X169124560Y-86975224D01*
X169117333Y-86951399D01*
X169105597Y-86929443D01*
X169089803Y-86910197D01*
X169070557Y-86894403D01*
X169048601Y-86882667D01*
X169024776Y-86875440D01*
X169000000Y-86873000D01*
X164652000Y-86873000D01*
X164652000Y-85843405D01*
X164647124Y-85793900D01*
X164647210Y-85781627D01*
X164645640Y-85765619D01*
X164604839Y-85377426D01*
X164583853Y-85275190D01*
X164564280Y-85172586D01*
X164559631Y-85157188D01*
X164444207Y-84784314D01*
X164403756Y-84688084D01*
X164364633Y-84591252D01*
X164357082Y-84577051D01*
X164171431Y-84233696D01*
X164113036Y-84147122D01*
X164055871Y-84059764D01*
X164045705Y-84047300D01*
X163796898Y-83746545D01*
X163722813Y-83672976D01*
X163649759Y-83598375D01*
X163637366Y-83588123D01*
X163334881Y-83341422D01*
X163247926Y-83283650D01*
X163161764Y-83224653D01*
X163147615Y-83217003D01*
X162802974Y-83033753D01*
X162706451Y-82993969D01*
X162610470Y-82952832D01*
X162595105Y-82948076D01*
X162221433Y-82835258D01*
X162119024Y-82814980D01*
X162016882Y-82793269D01*
X162000885Y-82791588D01*
X161612889Y-82753544D01*
X161556595Y-82748000D01*
X149443405Y-82748000D01*
X149393900Y-82752876D01*
X149381627Y-82752790D01*
X149365619Y-82754360D01*
X148977426Y-82795161D01*
X148875190Y-82816147D01*
X148772586Y-82835720D01*
X148757188Y-82840369D01*
X148384314Y-82955793D01*
X148288084Y-82996244D01*
X148191252Y-83035367D01*
X148177051Y-83042918D01*
X147833696Y-83228569D01*
X147747122Y-83286964D01*
X147659764Y-83344129D01*
X147647300Y-83354295D01*
X147346545Y-83603102D01*
X147272976Y-83677187D01*
X147198375Y-83750241D01*
X147188123Y-83762634D01*
X146941422Y-84065119D01*
X146883650Y-84152074D01*
X146824653Y-84238236D01*
X146817003Y-84252385D01*
X146633753Y-84597026D01*
X146593969Y-84693549D01*
X146552832Y-84789530D01*
X146548076Y-84804895D01*
X146435258Y-85178567D01*
X146414980Y-85280976D01*
X146393269Y-85383118D01*
X146391588Y-85399115D01*
X146353522Y-85787335D01*
X146348000Y-85843406D01*
X146348001Y-105556595D01*
X146352876Y-105606090D01*
X146352790Y-105618373D01*
X146354360Y-105634381D01*
X146395161Y-106022573D01*
X146416146Y-106124803D01*
X146435720Y-106227414D01*
X146440369Y-106242811D01*
X146555793Y-106615686D01*
X146596244Y-106711916D01*
X146635367Y-106808748D01*
X146642918Y-106822949D01*
X146828569Y-107166304D01*
X146886949Y-107252855D01*
X146944129Y-107340236D01*
X146954295Y-107352700D01*
X147203102Y-107653455D01*
X147277187Y-107727024D01*
X147350240Y-107801624D01*
X147362634Y-107811877D01*
X147665119Y-108058577D01*
X147752070Y-108116348D01*
X147838236Y-108175347D01*
X147852384Y-108182997D01*
X148197026Y-108366247D01*
X148293549Y-108406031D01*
X148389530Y-108447168D01*
X148404895Y-108451924D01*
X148778567Y-108564742D01*
X148880976Y-108585020D01*
X148983118Y-108606731D01*
X148999115Y-108608412D01*
X149387111Y-108646456D01*
X149443405Y-108652000D01*
X158873000Y-108652000D01*
X158873000Y-124873000D01*
X158000000Y-124873000D01*
X157975224Y-124875440D01*
X157951399Y-124882667D01*
X157929443Y-124894403D01*
X157910197Y-124910197D01*
X157894403Y-124929443D01*
X157882667Y-124951399D01*
X157875440Y-124975224D01*
X157873000Y-125000000D01*
X157873000Y-129123000D01*
X150250000Y-129123000D01*
X150225224Y-129125440D01*
X150201399Y-129132667D01*
X150179443Y-129144403D01*
X150160197Y-129160197D01*
X150144403Y-129179443D01*
X150132667Y-129201399D01*
X150125440Y-129225224D01*
X150123000Y-129250000D01*
X150123000Y-131500000D01*
X150125440Y-131524776D01*
X150132667Y-131548601D01*
X150144403Y-131570557D01*
X150160197Y-131589803D01*
X150179443Y-131605597D01*
X150201399Y-131617333D01*
X150225224Y-131624560D01*
X150250000Y-131627000D01*
X160873000Y-131627000D01*
X160873000Y-134373000D01*
X158000000Y-134373000D01*
X157975224Y-134375440D01*
X157951399Y-134382667D01*
X157929443Y-134394403D01*
X157910197Y-134410197D01*
X157894403Y-134429443D01*
X157882667Y-134451399D01*
X157875440Y-134475224D01*
X157873000Y-134500000D01*
X157873000Y-147473000D01*
X157849604Y-147473000D01*
X157554590Y-147531681D01*
X157276694Y-147646790D01*
X157026594Y-147813901D01*
X157000000Y-147840495D01*
X156973406Y-147813901D01*
X156723306Y-147646790D01*
X156445410Y-147531681D01*
X156150396Y-147473000D01*
X155849604Y-147473000D01*
X155554590Y-147531681D01*
X155276694Y-147646790D01*
X155026594Y-147813901D01*
X155000000Y-147840495D01*
X154973406Y-147813901D01*
X154723306Y-147646790D01*
X154445410Y-147531681D01*
X154150396Y-147473000D01*
X153849604Y-147473000D01*
X153554590Y-147531681D01*
X153276694Y-147646790D01*
X153026594Y-147813901D01*
X153000000Y-147840495D01*
X152973406Y-147813901D01*
X152723306Y-147646790D01*
X152445410Y-147531681D01*
X152150396Y-147473000D01*
X151849604Y-147473000D01*
X151554590Y-147531681D01*
X151276694Y-147646790D01*
X151026594Y-147813901D01*
X151000000Y-147840495D01*
X150973406Y-147813901D01*
X150723306Y-147646790D01*
X150445410Y-147531681D01*
X150150396Y-147473000D01*
X149849604Y-147473000D01*
X149554590Y-147531681D01*
X149276694Y-147646790D01*
X149026594Y-147813901D01*
X149000000Y-147840495D01*
X148973406Y-147813901D01*
X148723306Y-147646790D01*
X148445410Y-147531681D01*
X148150396Y-147473000D01*
X147849604Y-147473000D01*
X147554590Y-147531681D01*
X147276694Y-147646790D01*
X147026594Y-147813901D01*
X147000000Y-147840495D01*
X146973406Y-147813901D01*
X146723306Y-147646790D01*
X146445410Y-147531681D01*
X146150396Y-147473000D01*
X145849604Y-147473000D01*
X145554590Y-147531681D01*
X145276694Y-147646790D01*
X145026594Y-147813901D01*
X145000000Y-147840495D01*
X144973406Y-147813901D01*
X144723306Y-147646790D01*
X144445410Y-147531681D01*
X144150396Y-147473000D01*
X143849604Y-147473000D01*
X143554590Y-147531681D01*
X143276694Y-147646790D01*
X143026594Y-147813901D01*
X143000000Y-147840495D01*
X142973406Y-147813901D01*
X142723306Y-147646790D01*
X142445410Y-147531681D01*
X142150396Y-147473000D01*
X141849604Y-147473000D01*
X141554590Y-147531681D01*
X141276694Y-147646790D01*
X141026594Y-147813901D01*
X141000000Y-147840495D01*
X140973406Y-147813901D01*
X140723306Y-147646790D01*
X140445410Y-147531681D01*
X140150396Y-147473000D01*
X139849604Y-147473000D01*
X139554590Y-147531681D01*
X139276694Y-147646790D01*
X139127000Y-147746812D01*
X139127000Y-145050358D01*
X142223000Y-145050358D01*
X142223000Y-145449642D01*
X142300896Y-145841254D01*
X142453696Y-146210145D01*
X142675526Y-146542137D01*
X142957863Y-146824474D01*
X143289855Y-147046304D01*
X143658746Y-147199104D01*
X144050358Y-147277000D01*
X144449642Y-147277000D01*
X144841254Y-147199104D01*
X145210145Y-147046304D01*
X145542137Y-146824474D01*
X145824474Y-146542137D01*
X146046304Y-146210145D01*
X146199104Y-145841254D01*
X146277000Y-145449642D01*
X146277000Y-145050358D01*
X146199104Y-144658746D01*
X146046304Y-144289855D01*
X145824474Y-143957863D01*
X145542137Y-143675526D01*
X145210145Y-143453696D01*
X144841254Y-143300896D01*
X144449642Y-143223000D01*
X144050358Y-143223000D01*
X143658746Y-143300896D01*
X143289855Y-143453696D01*
X142957863Y-143675526D01*
X142675526Y-143957863D01*
X142453696Y-144289855D01*
X142300896Y-144658746D01*
X142223000Y-145050358D01*
X139127000Y-145050358D01*
X139127000Y-137430358D01*
X139683000Y-137430358D01*
X139683000Y-137829642D01*
X139760896Y-138221254D01*
X139913696Y-138590145D01*
X140135526Y-138922137D01*
X140417863Y-139204474D01*
X140749855Y-139426304D01*
X141118746Y-139579104D01*
X141510358Y-139657000D01*
X141909642Y-139657000D01*
X142301254Y-139579104D01*
X142670145Y-139426304D01*
X143002137Y-139204474D01*
X143284474Y-138922137D01*
X143506304Y-138590145D01*
X143659104Y-138221254D01*
X143737000Y-137829642D01*
X143737000Y-137430358D01*
X143659104Y-137038746D01*
X143506304Y-136669855D01*
X143292320Y-136349604D01*
X146473000Y-136349604D01*
X146473000Y-136650396D01*
X146531681Y-136945410D01*
X146646790Y-137223306D01*
X146813901Y-137473406D01*
X147026594Y-137686099D01*
X147276694Y-137853210D01*
X147554590Y-137968319D01*
X147849604Y-138027000D01*
X148150396Y-138027000D01*
X148445410Y-137968319D01*
X148723306Y-137853210D01*
X148973406Y-137686099D01*
X149186099Y-137473406D01*
X149353210Y-137223306D01*
X149468319Y-136945410D01*
X149527000Y-136650396D01*
X149527000Y-136349604D01*
X149468319Y-136054590D01*
X149353210Y-135776694D01*
X149186099Y-135526594D01*
X149009109Y-135349604D01*
X152723000Y-135349604D01*
X152723000Y-135650396D01*
X152781681Y-135945410D01*
X152896790Y-136223306D01*
X153063901Y-136473406D01*
X153276594Y-136686099D01*
X153526694Y-136853210D01*
X153804590Y-136968319D01*
X154099604Y-137027000D01*
X154400396Y-137027000D01*
X154695410Y-136968319D01*
X154973306Y-136853210D01*
X155223406Y-136686099D01*
X155436099Y-136473406D01*
X155603210Y-136223306D01*
X155718319Y-135945410D01*
X155777000Y-135650396D01*
X155777000Y-135349604D01*
X155718319Y-135054590D01*
X155603210Y-134776694D01*
X155436099Y-134526594D01*
X155223406Y-134313901D01*
X154973306Y-134146790D01*
X154695410Y-134031681D01*
X154400396Y-133973000D01*
X154099604Y-133973000D01*
X153804590Y-134031681D01*
X153526694Y-134146790D01*
X153276594Y-134313901D01*
X153063901Y-134526594D01*
X152896790Y-134776694D01*
X152781681Y-135054590D01*
X152723000Y-135349604D01*
X149009109Y-135349604D01*
X148973406Y-135313901D01*
X148723306Y-135146790D01*
X148445410Y-135031681D01*
X148150396Y-134973000D01*
X147849604Y-134973000D01*
X147554590Y-135031681D01*
X147276694Y-135146790D01*
X147026594Y-135313901D01*
X146813901Y-135526594D01*
X146646790Y-135776694D01*
X146531681Y-136054590D01*
X146473000Y-136349604D01*
X143292320Y-136349604D01*
X143284474Y-136337863D01*
X143002137Y-136055526D01*
X142670145Y-135833696D01*
X142301254Y-135680896D01*
X141909642Y-135603000D01*
X141510358Y-135603000D01*
X141118746Y-135680896D01*
X140749855Y-135833696D01*
X140417863Y-136055526D01*
X140135526Y-136337863D01*
X139913696Y-136669855D01*
X139760896Y-137038746D01*
X139683000Y-137430358D01*
X139127000Y-137430358D01*
X139127000Y-132532505D01*
X139186099Y-132473406D01*
X139353210Y-132223306D01*
X139468319Y-131945410D01*
X139527000Y-131650396D01*
X139527000Y-131349604D01*
X139468319Y-131054590D01*
X139353210Y-130776694D01*
X139186099Y-130526594D01*
X139127000Y-130467495D01*
X139127000Y-127270358D01*
X142223000Y-127270358D01*
X142223000Y-127669642D01*
X142300896Y-128061254D01*
X142453696Y-128430145D01*
X142675526Y-128762137D01*
X142957863Y-129044474D01*
X143289855Y-129266304D01*
X143658746Y-129419104D01*
X144050358Y-129497000D01*
X144449642Y-129497000D01*
X144841254Y-129419104D01*
X145210145Y-129266304D01*
X145542137Y-129044474D01*
X145824474Y-128762137D01*
X146046304Y-128430145D01*
X146199104Y-128061254D01*
X146277000Y-127669642D01*
X146277000Y-127270358D01*
X146199104Y-126878746D01*
X146046304Y-126509855D01*
X145824474Y-126177863D01*
X145542137Y-125895526D01*
X145210145Y-125673696D01*
X144841254Y-125520896D01*
X144449642Y-125443000D01*
X144050358Y-125443000D01*
X143658746Y-125520896D01*
X143289855Y-125673696D01*
X142957863Y-125895526D01*
X142675526Y-126177863D01*
X142453696Y-126509855D01*
X142300896Y-126878746D01*
X142223000Y-127270358D01*
X139127000Y-127270358D01*
X139127000Y-123532505D01*
X139186099Y-123473406D01*
X139353210Y-123223306D01*
X139468319Y-122945410D01*
X139527000Y-122650396D01*
X139527000Y-122349604D01*
X139486503Y-122146008D01*
X139526594Y-122186099D01*
X139776694Y-122353210D01*
X140054590Y-122468319D01*
X140349604Y-122527000D01*
X140650396Y-122527000D01*
X140945410Y-122468319D01*
X141223306Y-122353210D01*
X141473406Y-122186099D01*
X141686099Y-121973406D01*
X141768820Y-121849604D01*
X152973000Y-121849604D01*
X152973000Y-122150396D01*
X153031681Y-122445410D01*
X153146790Y-122723306D01*
X153313901Y-122973406D01*
X153526594Y-123186099D01*
X153776694Y-123353210D01*
X154054590Y-123468319D01*
X154349604Y-123527000D01*
X154650396Y-123527000D01*
X154945410Y-123468319D01*
X155223306Y-123353210D01*
X155473406Y-123186099D01*
X155686099Y-122973406D01*
X155853210Y-122723306D01*
X155968319Y-122445410D01*
X156027000Y-122150396D01*
X156027000Y-121849604D01*
X155968319Y-121554590D01*
X155853210Y-121276694D01*
X155686099Y-121026594D01*
X155473406Y-120813901D01*
X155223306Y-120646790D01*
X154945410Y-120531681D01*
X154650396Y-120473000D01*
X154349604Y-120473000D01*
X154054590Y-120531681D01*
X153776694Y-120646790D01*
X153526594Y-120813901D01*
X153313901Y-121026594D01*
X153146790Y-121276694D01*
X153031681Y-121554590D01*
X152973000Y-121849604D01*
X141768820Y-121849604D01*
X141853210Y-121723306D01*
X141968319Y-121445410D01*
X142027000Y-121150396D01*
X142027000Y-120849604D01*
X141968319Y-120554590D01*
X141853210Y-120276694D01*
X141686099Y-120026594D01*
X141473406Y-119813901D01*
X141223306Y-119646790D01*
X140945410Y-119531681D01*
X140650396Y-119473000D01*
X140349604Y-119473000D01*
X140054590Y-119531681D01*
X139776694Y-119646790D01*
X139526594Y-119813901D01*
X139313901Y-120026594D01*
X139146790Y-120276694D01*
X139031681Y-120554590D01*
X138973000Y-120849604D01*
X138973000Y-121150396D01*
X139013497Y-121353992D01*
X138973406Y-121313901D01*
X138723306Y-121146790D01*
X138445410Y-121031681D01*
X138150396Y-120973000D01*
X137849604Y-120973000D01*
X137554590Y-121031681D01*
X137276694Y-121146790D01*
X137026594Y-121313901D01*
X136967495Y-121373000D01*
X132552606Y-121373000D01*
X128779210Y-117599604D01*
X148223000Y-117599604D01*
X148223000Y-117900396D01*
X148281681Y-118195410D01*
X148396790Y-118473306D01*
X148563901Y-118723406D01*
X148715495Y-118875000D01*
X148563901Y-119026594D01*
X148396790Y-119276694D01*
X148281681Y-119554590D01*
X148223000Y-119849604D01*
X148223000Y-120150396D01*
X148281681Y-120445410D01*
X148396790Y-120723306D01*
X148563901Y-120973406D01*
X148776594Y-121186099D01*
X149026694Y-121353210D01*
X149304590Y-121468319D01*
X149599604Y-121527000D01*
X149900396Y-121527000D01*
X150195410Y-121468319D01*
X150473306Y-121353210D01*
X150723406Y-121186099D01*
X150936099Y-120973406D01*
X151103210Y-120723306D01*
X151218319Y-120445410D01*
X151277000Y-120150396D01*
X151277000Y-119849604D01*
X151218319Y-119554590D01*
X151103210Y-119276694D01*
X150936099Y-119026594D01*
X150784505Y-118875000D01*
X150936099Y-118723406D01*
X151103210Y-118473306D01*
X151218319Y-118195410D01*
X151277000Y-117900396D01*
X151277000Y-117599604D01*
X151218319Y-117304590D01*
X151103210Y-117026694D01*
X150936099Y-116776594D01*
X150723406Y-116563901D01*
X150473306Y-116396790D01*
X150195410Y-116281681D01*
X149900396Y-116223000D01*
X149599604Y-116223000D01*
X149304590Y-116281681D01*
X149026694Y-116396790D01*
X148776594Y-116563901D01*
X148563901Y-116776594D01*
X148396790Y-117026694D01*
X148281681Y-117304590D01*
X148223000Y-117599604D01*
X128779210Y-117599604D01*
X127089803Y-115910197D01*
X127070557Y-115894403D01*
X127048601Y-115882667D01*
X127024776Y-115875440D01*
X127000000Y-115873000D01*
X116377000Y-115873000D01*
X116377000Y-113849604D01*
X136473000Y-113849604D01*
X136473000Y-114150396D01*
X136531681Y-114445410D01*
X136646790Y-114723306D01*
X136813901Y-114973406D01*
X137026594Y-115186099D01*
X137276694Y-115353210D01*
X137554590Y-115468319D01*
X137849604Y-115527000D01*
X138150396Y-115527000D01*
X138445410Y-115468319D01*
X138723306Y-115353210D01*
X138973406Y-115186099D01*
X139186099Y-114973406D01*
X139353210Y-114723306D01*
X139468319Y-114445410D01*
X139527000Y-114150396D01*
X139527000Y-113849604D01*
X139468319Y-113554590D01*
X139353210Y-113276694D01*
X139186099Y-113026594D01*
X138973406Y-112813901D01*
X138723306Y-112646790D01*
X138445410Y-112531681D01*
X138150396Y-112473000D01*
X137849604Y-112473000D01*
X137554590Y-112531681D01*
X137276694Y-112646790D01*
X137026594Y-112813901D01*
X136813901Y-113026594D01*
X136646790Y-113276694D01*
X136531681Y-113554590D01*
X136473000Y-113849604D01*
X116377000Y-113849604D01*
X116377000Y-111800358D01*
X148723000Y-111800358D01*
X148723000Y-112199642D01*
X148800896Y-112591254D01*
X148953696Y-112960145D01*
X149175526Y-113292137D01*
X149457863Y-113574474D01*
X149789855Y-113796304D01*
X150158746Y-113949104D01*
X150550358Y-114027000D01*
X150949642Y-114027000D01*
X151341254Y-113949104D01*
X151710145Y-113796304D01*
X152042137Y-113574474D01*
X152324474Y-113292137D01*
X152546304Y-112960145D01*
X152699104Y-112591254D01*
X152777000Y-112199642D01*
X152777000Y-111800358D01*
X152699104Y-111408746D01*
X152546304Y-111039855D01*
X152324474Y-110707863D01*
X152042137Y-110425526D01*
X151710145Y-110203696D01*
X151341254Y-110050896D01*
X150949642Y-109973000D01*
X150550358Y-109973000D01*
X150158746Y-110050896D01*
X149789855Y-110203696D01*
X149457863Y-110425526D01*
X149175526Y-110707863D01*
X148953696Y-111039855D01*
X148800896Y-111408746D01*
X148723000Y-111800358D01*
X116377000Y-111800358D01*
X116377000Y-110732722D01*
X116599604Y-110777000D01*
X116900396Y-110777000D01*
X117195410Y-110718319D01*
X117473306Y-110603210D01*
X117723406Y-110436099D01*
X117936099Y-110223406D01*
X118103210Y-109973306D01*
X118218319Y-109695410D01*
X118277000Y-109400396D01*
X118277000Y-109099604D01*
X118218319Y-108804590D01*
X118103210Y-108526694D01*
X117936099Y-108276594D01*
X117739863Y-108080358D01*
X126223000Y-108080358D01*
X126223000Y-108479642D01*
X126300896Y-108871254D01*
X126453696Y-109240145D01*
X126675526Y-109572137D01*
X126957863Y-109854474D01*
X127289855Y-110076304D01*
X127658746Y-110229104D01*
X128050358Y-110307000D01*
X128449642Y-110307000D01*
X128841254Y-110229104D01*
X129210145Y-110076304D01*
X129542137Y-109854474D01*
X129824474Y-109572137D01*
X130046304Y-109240145D01*
X130199104Y-108871254D01*
X130277000Y-108479642D01*
X130277000Y-108080358D01*
X130199104Y-107688746D01*
X130046304Y-107319855D01*
X130033038Y-107300000D01*
X136317547Y-107300000D01*
X136317547Y-109400000D01*
X136339307Y-109620931D01*
X136403750Y-109833371D01*
X136508400Y-110029157D01*
X136649235Y-110200765D01*
X136820843Y-110341600D01*
X137016629Y-110446250D01*
X137229069Y-110510693D01*
X137450000Y-110532453D01*
X139550000Y-110532453D01*
X139770931Y-110510693D01*
X139983371Y-110446250D01*
X140179157Y-110341600D01*
X140350765Y-110200765D01*
X140491600Y-110029157D01*
X140596250Y-109833371D01*
X140660693Y-109620931D01*
X140682453Y-109400000D01*
X140682453Y-107300000D01*
X140660693Y-107079069D01*
X140596250Y-106866629D01*
X140496217Y-106679482D01*
X140593340Y-106445008D01*
X140677000Y-106024416D01*
X140677000Y-105595584D01*
X140593340Y-105174992D01*
X140429233Y-104778804D01*
X140190987Y-104422243D01*
X139887757Y-104119013D01*
X139531196Y-103880767D01*
X139135008Y-103716660D01*
X138714416Y-103633000D01*
X138285584Y-103633000D01*
X137864992Y-103716660D01*
X137468804Y-103880767D01*
X137112243Y-104119013D01*
X136809013Y-104422243D01*
X136570767Y-104778804D01*
X136406660Y-105174992D01*
X136323000Y-105595584D01*
X136323000Y-106024416D01*
X136406660Y-106445008D01*
X136503783Y-106679482D01*
X136403750Y-106866629D01*
X136339307Y-107079069D01*
X136317547Y-107300000D01*
X130033038Y-107300000D01*
X129824474Y-106987863D01*
X129542137Y-106705526D01*
X129210145Y-106483696D01*
X128841254Y-106330896D01*
X128449642Y-106253000D01*
X128050358Y-106253000D01*
X127658746Y-106330896D01*
X127289855Y-106483696D01*
X126957863Y-106705526D01*
X126675526Y-106987863D01*
X126453696Y-107319855D01*
X126300896Y-107688746D01*
X126223000Y-108080358D01*
X117739863Y-108080358D01*
X117723406Y-108063901D01*
X117473306Y-107896790D01*
X117195410Y-107781681D01*
X116900396Y-107723000D01*
X116599604Y-107723000D01*
X116377000Y-107767278D01*
X116377000Y-105627000D01*
X120973000Y-105627000D01*
X120973000Y-105900396D01*
X121031681Y-106195410D01*
X121146790Y-106473306D01*
X121313901Y-106723406D01*
X121526594Y-106936099D01*
X121776694Y-107103210D01*
X122054590Y-107218319D01*
X122349604Y-107277000D01*
X122650396Y-107277000D01*
X122945410Y-107218319D01*
X123223306Y-107103210D01*
X123473406Y-106936099D01*
X123686099Y-106723406D01*
X123853210Y-106473306D01*
X123968319Y-106195410D01*
X124027000Y-105900396D01*
X124027000Y-105627000D01*
X131500000Y-105627000D01*
X131524776Y-105624560D01*
X131548601Y-105617333D01*
X131570557Y-105605597D01*
X131589803Y-105589803D01*
X131605597Y-105570557D01*
X131617333Y-105548601D01*
X131624560Y-105524776D01*
X131627000Y-105500000D01*
X131627000Y-99160207D01*
X136073000Y-99160207D01*
X136073000Y-99539793D01*
X136147053Y-99912085D01*
X136292315Y-100262777D01*
X136503201Y-100578391D01*
X136771609Y-100846799D01*
X137087223Y-101057685D01*
X137437915Y-101202947D01*
X137810207Y-101277000D01*
X138189793Y-101277000D01*
X138562085Y-101202947D01*
X138912777Y-101057685D01*
X139228391Y-100846799D01*
X139496799Y-100578391D01*
X139707685Y-100262777D01*
X139852947Y-99912085D01*
X139892200Y-99714741D01*
X141008959Y-99714741D01*
X141108766Y-99998620D01*
X141262038Y-100257573D01*
X141462884Y-100481649D01*
X141703586Y-100662236D01*
X141974893Y-100792394D01*
X142135260Y-100841036D01*
X142373000Y-100720378D01*
X142373000Y-99477000D01*
X142627000Y-99477000D01*
X142627000Y-100720378D01*
X142864740Y-100841036D01*
X143025107Y-100792394D01*
X143296414Y-100662236D01*
X143537116Y-100481649D01*
X143737962Y-100257573D01*
X143891234Y-99998620D01*
X143991041Y-99714741D01*
X143870992Y-99477000D01*
X142627000Y-99477000D01*
X142373000Y-99477000D01*
X141129008Y-99477000D01*
X141008959Y-99714741D01*
X139892200Y-99714741D01*
X139927000Y-99539793D01*
X139927000Y-99160207D01*
X139892201Y-98985259D01*
X141008959Y-98985259D01*
X141129008Y-99223000D01*
X142373000Y-99223000D01*
X142373000Y-97979622D01*
X142627000Y-97979622D01*
X142627000Y-99223000D01*
X143870992Y-99223000D01*
X143991041Y-98985259D01*
X143891234Y-98701380D01*
X143737962Y-98442427D01*
X143537116Y-98218351D01*
X143296414Y-98037764D01*
X143025107Y-97907606D01*
X142864740Y-97858964D01*
X142627000Y-97979622D01*
X142373000Y-97979622D01*
X142135260Y-97858964D01*
X141974893Y-97907606D01*
X141703586Y-98037764D01*
X141462884Y-98218351D01*
X141262038Y-98442427D01*
X141108766Y-98701380D01*
X141008959Y-98985259D01*
X139892201Y-98985259D01*
X139852947Y-98787915D01*
X139707685Y-98437223D01*
X139496799Y-98121609D01*
X139228391Y-97853201D01*
X138912777Y-97642315D01*
X138562085Y-97497053D01*
X138189793Y-97423000D01*
X137810207Y-97423000D01*
X137437915Y-97497053D01*
X137087223Y-97642315D01*
X136771609Y-97853201D01*
X136503201Y-98121609D01*
X136292315Y-98437223D01*
X136147053Y-98787915D01*
X136073000Y-99160207D01*
X131627000Y-99160207D01*
X131627000Y-89000207D01*
X136073000Y-89000207D01*
X136073000Y-89379793D01*
X136147053Y-89752085D01*
X136292315Y-90102777D01*
X136503201Y-90418391D01*
X136771609Y-90686799D01*
X137087223Y-90897685D01*
X137437915Y-91042947D01*
X137810207Y-91117000D01*
X138189793Y-91117000D01*
X138562085Y-91042947D01*
X138912777Y-90897685D01*
X139228391Y-90686799D01*
X139496799Y-90418391D01*
X139707685Y-90102777D01*
X139852947Y-89752085D01*
X139927000Y-89379793D01*
X139927000Y-89000207D01*
X139852947Y-88627915D01*
X139712978Y-88290000D01*
X140467547Y-88290000D01*
X140467547Y-90090000D01*
X140489307Y-90310931D01*
X140553750Y-90523371D01*
X140658400Y-90719157D01*
X140799235Y-90890765D01*
X140970843Y-91031600D01*
X141166629Y-91136250D01*
X141379069Y-91200693D01*
X141600000Y-91222453D01*
X143400000Y-91222453D01*
X143620931Y-91200693D01*
X143833371Y-91136250D01*
X144029157Y-91031600D01*
X144200765Y-90890765D01*
X144341600Y-90719157D01*
X144446250Y-90523371D01*
X144510693Y-90310931D01*
X144532453Y-90090000D01*
X144532453Y-88290000D01*
X144510693Y-88069069D01*
X144446250Y-87856629D01*
X144341600Y-87660843D01*
X144200765Y-87489235D01*
X144029157Y-87348400D01*
X143833371Y-87243750D01*
X143620931Y-87179307D01*
X143400000Y-87157547D01*
X141600000Y-87157547D01*
X141379069Y-87179307D01*
X141166629Y-87243750D01*
X140970843Y-87348400D01*
X140799235Y-87489235D01*
X140658400Y-87660843D01*
X140553750Y-87856629D01*
X140489307Y-88069069D01*
X140467547Y-88290000D01*
X139712978Y-88290000D01*
X139707685Y-88277223D01*
X139496799Y-87961609D01*
X139228391Y-87693201D01*
X138912777Y-87482315D01*
X138562085Y-87337053D01*
X138189793Y-87263000D01*
X137810207Y-87263000D01*
X137437915Y-87337053D01*
X137087223Y-87482315D01*
X136771609Y-87693201D01*
X136503201Y-87961609D01*
X136292315Y-88277223D01*
X136147053Y-88627915D01*
X136073000Y-89000207D01*
X131627000Y-89000207D01*
X131627000Y-86000000D01*
X131624560Y-85975224D01*
X131617333Y-85951399D01*
X131605597Y-85929443D01*
X131589803Y-85910197D01*
X131570557Y-85894403D01*
X131548601Y-85882667D01*
X131524776Y-85875440D01*
X131500000Y-85873000D01*
X102527000Y-85873000D01*
X102527000Y-85849604D01*
X102468319Y-85554590D01*
X102353210Y-85276694D01*
X102186099Y-85026594D01*
X102159505Y-85000000D01*
X102186099Y-84973406D01*
X102353210Y-84723306D01*
X102468319Y-84445410D01*
X102527000Y-84150396D01*
X102527000Y-83849604D01*
X102468319Y-83554590D01*
X102353210Y-83276694D01*
X102186099Y-83026594D01*
X102159505Y-83000000D01*
X102186099Y-82973406D01*
X102353210Y-82723306D01*
X102468319Y-82445410D01*
X102527000Y-82150396D01*
X102527000Y-82099604D01*
X109473000Y-82099604D01*
X109473000Y-82400396D01*
X109531681Y-82695410D01*
X109646790Y-82973306D01*
X109813901Y-83223406D01*
X110026594Y-83436099D01*
X110276694Y-83603210D01*
X110554590Y-83718319D01*
X110849604Y-83777000D01*
X111150396Y-83777000D01*
X111445410Y-83718319D01*
X111723306Y-83603210D01*
X111802404Y-83550358D01*
X113943000Y-83550358D01*
X113943000Y-83949642D01*
X114020896Y-84341254D01*
X114173696Y-84710145D01*
X114395526Y-85042137D01*
X114677863Y-85324474D01*
X115009855Y-85546304D01*
X115378746Y-85699104D01*
X115770358Y-85777000D01*
X116169642Y-85777000D01*
X116561254Y-85699104D01*
X116930145Y-85546304D01*
X117262137Y-85324474D01*
X117544474Y-85042137D01*
X117766304Y-84710145D01*
X117919104Y-84341254D01*
X117997000Y-83949642D01*
X117997000Y-83550358D01*
X131723000Y-83550358D01*
X131723000Y-83949642D01*
X131800896Y-84341254D01*
X131953696Y-84710145D01*
X132175526Y-85042137D01*
X132457863Y-85324474D01*
X132789855Y-85546304D01*
X133158746Y-85699104D01*
X133550358Y-85777000D01*
X133949642Y-85777000D01*
X134341254Y-85699104D01*
X134710145Y-85546304D01*
X135042137Y-85324474D01*
X135324474Y-85042137D01*
X135453120Y-84849604D01*
X142973000Y-84849604D01*
X142973000Y-85150396D01*
X143031681Y-85445410D01*
X143146790Y-85723306D01*
X143313901Y-85973406D01*
X143526594Y-86186099D01*
X143776694Y-86353210D01*
X144054590Y-86468319D01*
X144349604Y-86527000D01*
X144650396Y-86527000D01*
X144945410Y-86468319D01*
X145223306Y-86353210D01*
X145473406Y-86186099D01*
X145686099Y-85973406D01*
X145853210Y-85723306D01*
X145968319Y-85445410D01*
X146027000Y-85150396D01*
X146027000Y-84849604D01*
X145968319Y-84554590D01*
X145853210Y-84276694D01*
X145686099Y-84026594D01*
X145473406Y-83813901D01*
X145223306Y-83646790D01*
X144945410Y-83531681D01*
X144650396Y-83473000D01*
X144349604Y-83473000D01*
X144054590Y-83531681D01*
X143776694Y-83646790D01*
X143526594Y-83813901D01*
X143313901Y-84026594D01*
X143146790Y-84276694D01*
X143031681Y-84554590D01*
X142973000Y-84849604D01*
X135453120Y-84849604D01*
X135546304Y-84710145D01*
X135699104Y-84341254D01*
X135777000Y-83949642D01*
X135777000Y-83550358D01*
X135699104Y-83158746D01*
X135546304Y-82789855D01*
X135324474Y-82457863D01*
X135042137Y-82175526D01*
X134710145Y-81953696D01*
X134341254Y-81800896D01*
X133949642Y-81723000D01*
X133550358Y-81723000D01*
X133158746Y-81800896D01*
X132789855Y-81953696D01*
X132457863Y-82175526D01*
X132175526Y-82457863D01*
X131953696Y-82789855D01*
X131800896Y-83158746D01*
X131723000Y-83550358D01*
X117997000Y-83550358D01*
X117919104Y-83158746D01*
X117766304Y-82789855D01*
X117544474Y-82457863D01*
X117262137Y-82175526D01*
X116930145Y-81953696D01*
X116561254Y-81800896D01*
X116169642Y-81723000D01*
X115770358Y-81723000D01*
X115378746Y-81800896D01*
X115009855Y-81953696D01*
X114677863Y-82175526D01*
X114395526Y-82457863D01*
X114173696Y-82789855D01*
X114020896Y-83158746D01*
X113943000Y-83550358D01*
X111802404Y-83550358D01*
X111973406Y-83436099D01*
X112186099Y-83223406D01*
X112353210Y-82973306D01*
X112468319Y-82695410D01*
X112527000Y-82400396D01*
X112527000Y-82099604D01*
X112468319Y-81804590D01*
X112353210Y-81526694D01*
X112186099Y-81276594D01*
X111973406Y-81063901D01*
X111723306Y-80896790D01*
X111445410Y-80781681D01*
X111150396Y-80723000D01*
X110849604Y-80723000D01*
X110554590Y-80781681D01*
X110276694Y-80896790D01*
X110026594Y-81063901D01*
X109813901Y-81276594D01*
X109646790Y-81526694D01*
X109531681Y-81804590D01*
X109473000Y-82099604D01*
X102527000Y-82099604D01*
X102527000Y-81849604D01*
X102468319Y-81554590D01*
X102353210Y-81276694D01*
X102186099Y-81026594D01*
X102159505Y-81000000D01*
X102186099Y-80973406D01*
X102353210Y-80723306D01*
X102468319Y-80445410D01*
X102527000Y-80150396D01*
X102527000Y-79849604D01*
X102468319Y-79554590D01*
X102353210Y-79276694D01*
X102186099Y-79026594D01*
X102159505Y-79000000D01*
X102186099Y-78973406D01*
X102353210Y-78723306D01*
X102468319Y-78445410D01*
X102527000Y-78150396D01*
X102527000Y-77849604D01*
X102468319Y-77554590D01*
X102353210Y-77276694D01*
X102186099Y-77026594D01*
X102159505Y-77000000D01*
X102186099Y-76973406D01*
X102353210Y-76723306D01*
X102468319Y-76445410D01*
X102527000Y-76150396D01*
X102527000Y-75849604D01*
X102468319Y-75554590D01*
X102353210Y-75276694D01*
X102186099Y-75026594D01*
X102159505Y-75000000D01*
X102186099Y-74973406D01*
X102353210Y-74723306D01*
X102468319Y-74445410D01*
X102527000Y-74150396D01*
X102527000Y-73849604D01*
X102468319Y-73554590D01*
X102353210Y-73276694D01*
X102186099Y-73026594D01*
X102159505Y-73000000D01*
X102186099Y-72973406D01*
X102353210Y-72723306D01*
X102468319Y-72445410D01*
X102527000Y-72150396D01*
X102527000Y-71849604D01*
X102468319Y-71554590D01*
X102353210Y-71276694D01*
X102186099Y-71026594D01*
X102159505Y-71000000D01*
X102186099Y-70973406D01*
X102353210Y-70723306D01*
X102393101Y-70627000D01*
X112373000Y-70627000D01*
X112373000Y-70717495D01*
X112313901Y-70776594D01*
X112146790Y-71026694D01*
X112065477Y-71223000D01*
X111849604Y-71223000D01*
X111554590Y-71281681D01*
X111276694Y-71396790D01*
X111026594Y-71563901D01*
X110813901Y-71776594D01*
X110646790Y-72026694D01*
X110531681Y-72304590D01*
X110473000Y-72599604D01*
X110473000Y-72900396D01*
X110531681Y-73195410D01*
X110646790Y-73473306D01*
X110813901Y-73723406D01*
X110853206Y-73762711D01*
X110776594Y-73813901D01*
X110563901Y-74026594D01*
X110396790Y-74276694D01*
X110281681Y-74554590D01*
X110223000Y-74849604D01*
X110223000Y-75150396D01*
X110281681Y-75445410D01*
X110396790Y-75723306D01*
X110563901Y-75973406D01*
X110776594Y-76186099D01*
X111026694Y-76353210D01*
X111304590Y-76468319D01*
X111599604Y-76527000D01*
X111900396Y-76527000D01*
X112195410Y-76468319D01*
X112373000Y-76394758D01*
X112373000Y-79500000D01*
X112375440Y-79524776D01*
X112382667Y-79548601D01*
X112394403Y-79570557D01*
X112410197Y-79589803D01*
X112429443Y-79605597D01*
X112451399Y-79617333D01*
X112475224Y-79624560D01*
X112500000Y-79627000D01*
X122310623Y-79627000D01*
X122297863Y-79635526D01*
X122015526Y-79917863D01*
X121793696Y-80249855D01*
X121640896Y-80618746D01*
X121563000Y-81010358D01*
X121563000Y-81409642D01*
X121640896Y-81801254D01*
X121793696Y-82170145D01*
X122015526Y-82502137D01*
X122297863Y-82784474D01*
X122629855Y-83006304D01*
X122998746Y-83159104D01*
X123390358Y-83237000D01*
X123789642Y-83237000D01*
X124181254Y-83159104D01*
X124550145Y-83006304D01*
X124882137Y-82784474D01*
X125164474Y-82502137D01*
X125386304Y-82170145D01*
X125539104Y-81801254D01*
X125617000Y-81409642D01*
X125617000Y-81010358D01*
X125539104Y-80618746D01*
X125386304Y-80249855D01*
X125164474Y-79917863D01*
X124882137Y-79635526D01*
X124869377Y-79627000D01*
X153000000Y-79627000D01*
X153024776Y-79624560D01*
X153048601Y-79617333D01*
X153070557Y-79605597D01*
X153089803Y-79589803D01*
X153105597Y-79570557D01*
X153117333Y-79548601D01*
X153124560Y-79524776D01*
X153127000Y-79500000D01*
X153127000Y-79049604D01*
X157473000Y-79049604D01*
X157473000Y-79350396D01*
X157531681Y-79645410D01*
X157646790Y-79923306D01*
X157813901Y-80173406D01*
X158026594Y-80386099D01*
X158276694Y-80553210D01*
X158554590Y-80668319D01*
X158849604Y-80727000D01*
X159150396Y-80727000D01*
X159445410Y-80668319D01*
X159723306Y-80553210D01*
X159973406Y-80386099D01*
X160186099Y-80173406D01*
X160353210Y-79923306D01*
X160468319Y-79645410D01*
X160527000Y-79350396D01*
X160527000Y-79049604D01*
X160468319Y-78754590D01*
X160353210Y-78476694D01*
X160186099Y-78226594D01*
X159973406Y-78013901D01*
X159723306Y-77846790D01*
X159445410Y-77731681D01*
X159150396Y-77673000D01*
X158849604Y-77673000D01*
X158554590Y-77731681D01*
X158276694Y-77846790D01*
X158026594Y-78013901D01*
X157813901Y-78226594D01*
X157646790Y-78476694D01*
X157531681Y-78754590D01*
X157473000Y-79049604D01*
X153127000Y-79049604D01*
X153127000Y-71300358D01*
X154443000Y-71300358D01*
X154443000Y-71699642D01*
X154520896Y-72091254D01*
X154673696Y-72460145D01*
X154895526Y-72792137D01*
X155177863Y-73074474D01*
X155509855Y-73296304D01*
X155878746Y-73449104D01*
X156270358Y-73527000D01*
X156669642Y-73527000D01*
X157061254Y-73449104D01*
X157430145Y-73296304D01*
X157762137Y-73074474D01*
X158044474Y-72792137D01*
X158266304Y-72460145D01*
X158419104Y-72091254D01*
X158497000Y-71699642D01*
X158497000Y-71300358D01*
X158419104Y-70908746D01*
X158266304Y-70539855D01*
X158044474Y-70207863D01*
X157762137Y-69925526D01*
X157430145Y-69703696D01*
X157061254Y-69550896D01*
X156669642Y-69473000D01*
X156270358Y-69473000D01*
X155878746Y-69550896D01*
X155509855Y-69703696D01*
X155177863Y-69925526D01*
X154895526Y-70207863D01*
X154673696Y-70539855D01*
X154520896Y-70908746D01*
X154443000Y-71300358D01*
X153127000Y-71300358D01*
X153127000Y-64231926D01*
X153195410Y-64218319D01*
X153473306Y-64103210D01*
X153723406Y-63936099D01*
X153936099Y-63723406D01*
X154103210Y-63473306D01*
X154218319Y-63195410D01*
X154237375Y-63099604D01*
X156523000Y-63099604D01*
X156523000Y-63400396D01*
X156581681Y-63695410D01*
X156696790Y-63973306D01*
X156863901Y-64223406D01*
X157076594Y-64436099D01*
X157326694Y-64603210D01*
X157604590Y-64718319D01*
X157899604Y-64777000D01*
X158200396Y-64777000D01*
X158495410Y-64718319D01*
X158773306Y-64603210D01*
X159023406Y-64436099D01*
X159236099Y-64223406D01*
X159403210Y-63973306D01*
X159518319Y-63695410D01*
X159577000Y-63400396D01*
X159577000Y-63099604D01*
X159518319Y-62804590D01*
X159403210Y-62526694D01*
X159236099Y-62276594D01*
X159023406Y-62063901D01*
X158773306Y-61896790D01*
X158495410Y-61781681D01*
X158200396Y-61723000D01*
X157899604Y-61723000D01*
X157604590Y-61781681D01*
X157326694Y-61896790D01*
X157076594Y-62063901D01*
X156863901Y-62276594D01*
X156696790Y-62526694D01*
X156581681Y-62804590D01*
X156523000Y-63099604D01*
X154237375Y-63099604D01*
X154277000Y-62900396D01*
X154277000Y-62599604D01*
X154218319Y-62304590D01*
X154103210Y-62026694D01*
X153936099Y-61776594D01*
X153723406Y-61563901D01*
X153585327Y-61471640D01*
X155461039Y-59127000D01*
X159873000Y-59127000D01*
X159873000Y-73500000D01*
G37*
X159873000Y-73500000D02*
X159875440Y-73524776D01*
X159882667Y-73548601D01*
X159894403Y-73570557D01*
X159910197Y-73589803D01*
X159929443Y-73605597D01*
X159951399Y-73617333D01*
X159975224Y-73624560D01*
X160000000Y-73627000D01*
X170873000Y-73627000D01*
X170873000Y-83500000D01*
X170875440Y-83524776D01*
X170882667Y-83548601D01*
X170894403Y-83570557D01*
X170910197Y-83589803D01*
X170929443Y-83605597D01*
X170951399Y-83617333D01*
X170975224Y-83624560D01*
X171000000Y-83627000D01*
X172855242Y-83627000D01*
X172781681Y-83804590D01*
X172723000Y-84099604D01*
X172723000Y-84400396D01*
X172781681Y-84695410D01*
X172896790Y-84973306D01*
X173063901Y-85223406D01*
X173276594Y-85436099D01*
X173526694Y-85603210D01*
X173579299Y-85625000D01*
X173526694Y-85646790D01*
X173276594Y-85813901D01*
X173063901Y-86026594D01*
X172896790Y-86276694D01*
X172781681Y-86554590D01*
X172723000Y-86849604D01*
X172723000Y-87150396D01*
X172767278Y-87373000D01*
X172000000Y-87373000D01*
X171975224Y-87375440D01*
X171951399Y-87382667D01*
X171929443Y-87394403D01*
X171910197Y-87410197D01*
X171894403Y-87429443D01*
X171882667Y-87451399D01*
X171875440Y-87475224D01*
X171873000Y-87500000D01*
X171873000Y-90999485D01*
X171776594Y-91063901D01*
X171563901Y-91276594D01*
X171396790Y-91526694D01*
X171281681Y-91804590D01*
X171223000Y-92099604D01*
X171223000Y-92400396D01*
X171281681Y-92695410D01*
X171396790Y-92973306D01*
X171563901Y-93223406D01*
X171776594Y-93436099D01*
X171873000Y-93500515D01*
X171873000Y-96500000D01*
X171875440Y-96524776D01*
X171882667Y-96548601D01*
X171894403Y-96570557D01*
X171910197Y-96589803D01*
X171929443Y-96605597D01*
X171951399Y-96617333D01*
X171975224Y-96624560D01*
X172000000Y-96627000D01*
X182250000Y-96627000D01*
X182281519Y-96623027D01*
X182304915Y-96614514D01*
X182326200Y-96601600D01*
X182344557Y-96584782D01*
X182359280Y-96564706D01*
X182369804Y-96542143D01*
X182375724Y-96517961D01*
X182872097Y-93043349D01*
X183600858Y-91828749D01*
X185571370Y-89858236D01*
X188024460Y-88877000D01*
X189949778Y-88877000D01*
X191652658Y-90473450D01*
X191650396Y-90473000D01*
X191349604Y-90473000D01*
X191054590Y-90531681D01*
X190776694Y-90646790D01*
X190526594Y-90813901D01*
X190313901Y-91026594D01*
X190146790Y-91276694D01*
X190031681Y-91554590D01*
X189973000Y-91849604D01*
X189973000Y-92150396D01*
X190031681Y-92445410D01*
X190146790Y-92723306D01*
X190313901Y-92973406D01*
X190526594Y-93186099D01*
X190776694Y-93353210D01*
X191054590Y-93468319D01*
X191349604Y-93527000D01*
X191650396Y-93527000D01*
X191945410Y-93468319D01*
X192223306Y-93353210D01*
X192473406Y-93186099D01*
X192686099Y-92973406D01*
X192853210Y-92723306D01*
X192968319Y-92445410D01*
X193027000Y-92150396D01*
X193027000Y-91849604D01*
X193005555Y-91741791D01*
X193913139Y-92592651D01*
X193929443Y-92605597D01*
X193951399Y-92617333D01*
X193975224Y-92624560D01*
X194000000Y-92627000D01*
X197606899Y-92627000D01*
X197646790Y-92723306D01*
X197813901Y-92973406D01*
X197840495Y-93000000D01*
X197813901Y-93026594D01*
X197646790Y-93276694D01*
X197531681Y-93554590D01*
X197473000Y-93849604D01*
X197473000Y-94150396D01*
X197531681Y-94445410D01*
X197646790Y-94723306D01*
X197813901Y-94973406D01*
X197840495Y-95000000D01*
X197813901Y-95026594D01*
X197646790Y-95276694D01*
X197531681Y-95554590D01*
X197473000Y-95849604D01*
X197473000Y-96150396D01*
X197531681Y-96445410D01*
X197646790Y-96723306D01*
X197813901Y-96973406D01*
X197840495Y-97000000D01*
X197813901Y-97026594D01*
X197646790Y-97276694D01*
X197531681Y-97554590D01*
X197473000Y-97849604D01*
X197473000Y-98150396D01*
X197531681Y-98445410D01*
X197646790Y-98723306D01*
X197813901Y-98973406D01*
X197840495Y-99000000D01*
X197813901Y-99026594D01*
X197646790Y-99276694D01*
X197531681Y-99554590D01*
X197473000Y-99849604D01*
X197473000Y-100150396D01*
X197531681Y-100445410D01*
X197646790Y-100723306D01*
X197813901Y-100973406D01*
X197840495Y-101000000D01*
X197813901Y-101026594D01*
X197646790Y-101276694D01*
X197531681Y-101554590D01*
X197473000Y-101849604D01*
X197473000Y-102150396D01*
X197531681Y-102445410D01*
X197646790Y-102723306D01*
X197694352Y-102794488D01*
X197473306Y-102646790D01*
X197195410Y-102531681D01*
X196900396Y-102473000D01*
X196599604Y-102473000D01*
X196304590Y-102531681D01*
X196026694Y-102646790D01*
X195776594Y-102813901D01*
X195563901Y-103026594D01*
X195396790Y-103276694D01*
X195281681Y-103554590D01*
X195223000Y-103849604D01*
X195223000Y-104150396D01*
X195281681Y-104445410D01*
X195396790Y-104723306D01*
X195563901Y-104973406D01*
X195776594Y-105186099D01*
X196026694Y-105353210D01*
X196304590Y-105468319D01*
X196599604Y-105527000D01*
X196900396Y-105527000D01*
X197195410Y-105468319D01*
X197473306Y-105353210D01*
X197694352Y-105205512D01*
X197646790Y-105276694D01*
X197531681Y-105554590D01*
X197473000Y-105849604D01*
X197473000Y-106150396D01*
X197531681Y-106445410D01*
X197646790Y-106723306D01*
X197813901Y-106973406D01*
X197840495Y-107000000D01*
X197813901Y-107026594D01*
X197646790Y-107276694D01*
X197606899Y-107373000D01*
X186073701Y-107373000D01*
X184127000Y-103966273D01*
X184127000Y-100599604D01*
X187473000Y-100599604D01*
X187473000Y-100900396D01*
X187531681Y-101195410D01*
X187646790Y-101473306D01*
X187813901Y-101723406D01*
X188026594Y-101936099D01*
X188276694Y-102103210D01*
X188554590Y-102218319D01*
X188849604Y-102277000D01*
X189150396Y-102277000D01*
X189445410Y-102218319D01*
X189723306Y-102103210D01*
X189973406Y-101936099D01*
X190186099Y-101723406D01*
X190353210Y-101473306D01*
X190468319Y-101195410D01*
X190527000Y-100900396D01*
X190527000Y-100599604D01*
X190468319Y-100304590D01*
X190353210Y-100026694D01*
X190186099Y-99776594D01*
X189973406Y-99563901D01*
X189723306Y-99396790D01*
X189445410Y-99281681D01*
X189150396Y-99223000D01*
X188849604Y-99223000D01*
X188554590Y-99281681D01*
X188276694Y-99396790D01*
X188026594Y-99563901D01*
X187813901Y-99776594D01*
X187646790Y-100026694D01*
X187531681Y-100304590D01*
X187473000Y-100599604D01*
X184127000Y-100599604D01*
X184127000Y-98500000D01*
X184124560Y-98475224D01*
X184117333Y-98451399D01*
X184105597Y-98429443D01*
X184089803Y-98410197D01*
X184070557Y-98394403D01*
X184048601Y-98382667D01*
X184024776Y-98375440D01*
X184000000Y-98373000D01*
X182915872Y-98373000D01*
X182695410Y-98281681D01*
X182400396Y-98223000D01*
X182099604Y-98223000D01*
X181804590Y-98281681D01*
X181584128Y-98373000D01*
X169127000Y-98373000D01*
X169127000Y-87000000D01*
X169124560Y-86975224D01*
X169117333Y-86951399D01*
X169105597Y-86929443D01*
X169089803Y-86910197D01*
X169070557Y-86894403D01*
X169048601Y-86882667D01*
X169024776Y-86875440D01*
X169000000Y-86873000D01*
X164652000Y-86873000D01*
X164652000Y-85843405D01*
X164647124Y-85793900D01*
X164647210Y-85781627D01*
X164645640Y-85765619D01*
X164604839Y-85377426D01*
X164583853Y-85275190D01*
X164564280Y-85172586D01*
X164559631Y-85157188D01*
X164444207Y-84784314D01*
X164403756Y-84688084D01*
X164364633Y-84591252D01*
X164357082Y-84577051D01*
X164171431Y-84233696D01*
X164113036Y-84147122D01*
X164055871Y-84059764D01*
X164045705Y-84047300D01*
X163796898Y-83746545D01*
X163722813Y-83672976D01*
X163649759Y-83598375D01*
X163637366Y-83588123D01*
X163334881Y-83341422D01*
X163247926Y-83283650D01*
X163161764Y-83224653D01*
X163147615Y-83217003D01*
X162802974Y-83033753D01*
X162706451Y-82993969D01*
X162610470Y-82952832D01*
X162595105Y-82948076D01*
X162221433Y-82835258D01*
X162119024Y-82814980D01*
X162016882Y-82793269D01*
X162000885Y-82791588D01*
X161612889Y-82753544D01*
X161556595Y-82748000D01*
X149443405Y-82748000D01*
X149393900Y-82752876D01*
X149381627Y-82752790D01*
X149365619Y-82754360D01*
X148977426Y-82795161D01*
X148875190Y-82816147D01*
X148772586Y-82835720D01*
X148757188Y-82840369D01*
X148384314Y-82955793D01*
X148288084Y-82996244D01*
X148191252Y-83035367D01*
X148177051Y-83042918D01*
X147833696Y-83228569D01*
X147747122Y-83286964D01*
X147659764Y-83344129D01*
X147647300Y-83354295D01*
X147346545Y-83603102D01*
X147272976Y-83677187D01*
X147198375Y-83750241D01*
X147188123Y-83762634D01*
X146941422Y-84065119D01*
X146883650Y-84152074D01*
X146824653Y-84238236D01*
X146817003Y-84252385D01*
X146633753Y-84597026D01*
X146593969Y-84693549D01*
X146552832Y-84789530D01*
X146548076Y-84804895D01*
X146435258Y-85178567D01*
X146414980Y-85280976D01*
X146393269Y-85383118D01*
X146391588Y-85399115D01*
X146353522Y-85787335D01*
X146348000Y-85843406D01*
X146348001Y-105556595D01*
X146352876Y-105606090D01*
X146352790Y-105618373D01*
X146354360Y-105634381D01*
X146395161Y-106022573D01*
X146416146Y-106124803D01*
X146435720Y-106227414D01*
X146440369Y-106242811D01*
X146555793Y-106615686D01*
X146596244Y-106711916D01*
X146635367Y-106808748D01*
X146642918Y-106822949D01*
X146828569Y-107166304D01*
X146886949Y-107252855D01*
X146944129Y-107340236D01*
X146954295Y-107352700D01*
X147203102Y-107653455D01*
X147277187Y-107727024D01*
X147350240Y-107801624D01*
X147362634Y-107811877D01*
X147665119Y-108058577D01*
X147752070Y-108116348D01*
X147838236Y-108175347D01*
X147852384Y-108182997D01*
X148197026Y-108366247D01*
X148293549Y-108406031D01*
X148389530Y-108447168D01*
X148404895Y-108451924D01*
X148778567Y-108564742D01*
X148880976Y-108585020D01*
X148983118Y-108606731D01*
X148999115Y-108608412D01*
X149387111Y-108646456D01*
X149443405Y-108652000D01*
X158873000Y-108652000D01*
X158873000Y-124873000D01*
X158000000Y-124873000D01*
X157975224Y-124875440D01*
X157951399Y-124882667D01*
X157929443Y-124894403D01*
X157910197Y-124910197D01*
X157894403Y-124929443D01*
X157882667Y-124951399D01*
X157875440Y-124975224D01*
X157873000Y-125000000D01*
X157873000Y-129123000D01*
X150250000Y-129123000D01*
X150225224Y-129125440D01*
X150201399Y-129132667D01*
X150179443Y-129144403D01*
X150160197Y-129160197D01*
X150144403Y-129179443D01*
X150132667Y-129201399D01*
X150125440Y-129225224D01*
X150123000Y-129250000D01*
X150123000Y-131500000D01*
X150125440Y-131524776D01*
X150132667Y-131548601D01*
X150144403Y-131570557D01*
X150160197Y-131589803D01*
X150179443Y-131605597D01*
X150201399Y-131617333D01*
X150225224Y-131624560D01*
X150250000Y-131627000D01*
X160873000Y-131627000D01*
X160873000Y-134373000D01*
X158000000Y-134373000D01*
X157975224Y-134375440D01*
X157951399Y-134382667D01*
X157929443Y-134394403D01*
X157910197Y-134410197D01*
X157894403Y-134429443D01*
X157882667Y-134451399D01*
X157875440Y-134475224D01*
X157873000Y-134500000D01*
X157873000Y-147473000D01*
X157849604Y-147473000D01*
X157554590Y-147531681D01*
X157276694Y-147646790D01*
X157026594Y-147813901D01*
X157000000Y-147840495D01*
X156973406Y-147813901D01*
X156723306Y-147646790D01*
X156445410Y-147531681D01*
X156150396Y-147473000D01*
X155849604Y-147473000D01*
X155554590Y-147531681D01*
X155276694Y-147646790D01*
X155026594Y-147813901D01*
X155000000Y-147840495D01*
X154973406Y-147813901D01*
X154723306Y-147646790D01*
X154445410Y-147531681D01*
X154150396Y-147473000D01*
X153849604Y-147473000D01*
X153554590Y-147531681D01*
X153276694Y-147646790D01*
X153026594Y-147813901D01*
X153000000Y-147840495D01*
X152973406Y-147813901D01*
X152723306Y-147646790D01*
X152445410Y-147531681D01*
X152150396Y-147473000D01*
X151849604Y-147473000D01*
X151554590Y-147531681D01*
X151276694Y-147646790D01*
X151026594Y-147813901D01*
X151000000Y-147840495D01*
X150973406Y-147813901D01*
X150723306Y-147646790D01*
X150445410Y-147531681D01*
X150150396Y-147473000D01*
X149849604Y-147473000D01*
X149554590Y-147531681D01*
X149276694Y-147646790D01*
X149026594Y-147813901D01*
X149000000Y-147840495D01*
X148973406Y-147813901D01*
X148723306Y-147646790D01*
X148445410Y-147531681D01*
X148150396Y-147473000D01*
X147849604Y-147473000D01*
X147554590Y-147531681D01*
X147276694Y-147646790D01*
X147026594Y-147813901D01*
X147000000Y-147840495D01*
X146973406Y-147813901D01*
X146723306Y-147646790D01*
X146445410Y-147531681D01*
X146150396Y-147473000D01*
X145849604Y-147473000D01*
X145554590Y-147531681D01*
X145276694Y-147646790D01*
X145026594Y-147813901D01*
X145000000Y-147840495D01*
X144973406Y-147813901D01*
X144723306Y-147646790D01*
X144445410Y-147531681D01*
X144150396Y-147473000D01*
X143849604Y-147473000D01*
X143554590Y-147531681D01*
X143276694Y-147646790D01*
X143026594Y-147813901D01*
X143000000Y-147840495D01*
X142973406Y-147813901D01*
X142723306Y-147646790D01*
X142445410Y-147531681D01*
X142150396Y-147473000D01*
X141849604Y-147473000D01*
X141554590Y-147531681D01*
X141276694Y-147646790D01*
X141026594Y-147813901D01*
X141000000Y-147840495D01*
X140973406Y-147813901D01*
X140723306Y-147646790D01*
X140445410Y-147531681D01*
X140150396Y-147473000D01*
X139849604Y-147473000D01*
X139554590Y-147531681D01*
X139276694Y-147646790D01*
X139127000Y-147746812D01*
X139127000Y-145050358D01*
X142223000Y-145050358D01*
X142223000Y-145449642D01*
X142300896Y-145841254D01*
X142453696Y-146210145D01*
X142675526Y-146542137D01*
X142957863Y-146824474D01*
X143289855Y-147046304D01*
X143658746Y-147199104D01*
X144050358Y-147277000D01*
X144449642Y-147277000D01*
X144841254Y-147199104D01*
X145210145Y-147046304D01*
X145542137Y-146824474D01*
X145824474Y-146542137D01*
X146046304Y-146210145D01*
X146199104Y-145841254D01*
X146277000Y-145449642D01*
X146277000Y-145050358D01*
X146199104Y-144658746D01*
X146046304Y-144289855D01*
X145824474Y-143957863D01*
X145542137Y-143675526D01*
X145210145Y-143453696D01*
X144841254Y-143300896D01*
X144449642Y-143223000D01*
X144050358Y-143223000D01*
X143658746Y-143300896D01*
X143289855Y-143453696D01*
X142957863Y-143675526D01*
X142675526Y-143957863D01*
X142453696Y-144289855D01*
X142300896Y-144658746D01*
X142223000Y-145050358D01*
X139127000Y-145050358D01*
X139127000Y-137430358D01*
X139683000Y-137430358D01*
X139683000Y-137829642D01*
X139760896Y-138221254D01*
X139913696Y-138590145D01*
X140135526Y-138922137D01*
X140417863Y-139204474D01*
X140749855Y-139426304D01*
X141118746Y-139579104D01*
X141510358Y-139657000D01*
X141909642Y-139657000D01*
X142301254Y-139579104D01*
X142670145Y-139426304D01*
X143002137Y-139204474D01*
X143284474Y-138922137D01*
X143506304Y-138590145D01*
X143659104Y-138221254D01*
X143737000Y-137829642D01*
X143737000Y-137430358D01*
X143659104Y-137038746D01*
X143506304Y-136669855D01*
X143292320Y-136349604D01*
X146473000Y-136349604D01*
X146473000Y-136650396D01*
X146531681Y-136945410D01*
X146646790Y-137223306D01*
X146813901Y-137473406D01*
X147026594Y-137686099D01*
X147276694Y-137853210D01*
X147554590Y-137968319D01*
X147849604Y-138027000D01*
X148150396Y-138027000D01*
X148445410Y-137968319D01*
X148723306Y-137853210D01*
X148973406Y-137686099D01*
X149186099Y-137473406D01*
X149353210Y-137223306D01*
X149468319Y-136945410D01*
X149527000Y-136650396D01*
X149527000Y-136349604D01*
X149468319Y-136054590D01*
X149353210Y-135776694D01*
X149186099Y-135526594D01*
X149009109Y-135349604D01*
X152723000Y-135349604D01*
X152723000Y-135650396D01*
X152781681Y-135945410D01*
X152896790Y-136223306D01*
X153063901Y-136473406D01*
X153276594Y-136686099D01*
X153526694Y-136853210D01*
X153804590Y-136968319D01*
X154099604Y-137027000D01*
X154400396Y-137027000D01*
X154695410Y-136968319D01*
X154973306Y-136853210D01*
X155223406Y-136686099D01*
X155436099Y-136473406D01*
X155603210Y-136223306D01*
X155718319Y-135945410D01*
X155777000Y-135650396D01*
X155777000Y-135349604D01*
X155718319Y-135054590D01*
X155603210Y-134776694D01*
X155436099Y-134526594D01*
X155223406Y-134313901D01*
X154973306Y-134146790D01*
X154695410Y-134031681D01*
X154400396Y-133973000D01*
X154099604Y-133973000D01*
X153804590Y-134031681D01*
X153526694Y-134146790D01*
X153276594Y-134313901D01*
X153063901Y-134526594D01*
X152896790Y-134776694D01*
X152781681Y-135054590D01*
X152723000Y-135349604D01*
X149009109Y-135349604D01*
X148973406Y-135313901D01*
X148723306Y-135146790D01*
X148445410Y-135031681D01*
X148150396Y-134973000D01*
X147849604Y-134973000D01*
X147554590Y-135031681D01*
X147276694Y-135146790D01*
X147026594Y-135313901D01*
X146813901Y-135526594D01*
X146646790Y-135776694D01*
X146531681Y-136054590D01*
X146473000Y-136349604D01*
X143292320Y-136349604D01*
X143284474Y-136337863D01*
X143002137Y-136055526D01*
X142670145Y-135833696D01*
X142301254Y-135680896D01*
X141909642Y-135603000D01*
X141510358Y-135603000D01*
X141118746Y-135680896D01*
X140749855Y-135833696D01*
X140417863Y-136055526D01*
X140135526Y-136337863D01*
X139913696Y-136669855D01*
X139760896Y-137038746D01*
X139683000Y-137430358D01*
X139127000Y-137430358D01*
X139127000Y-132532505D01*
X139186099Y-132473406D01*
X139353210Y-132223306D01*
X139468319Y-131945410D01*
X139527000Y-131650396D01*
X139527000Y-131349604D01*
X139468319Y-131054590D01*
X139353210Y-130776694D01*
X139186099Y-130526594D01*
X139127000Y-130467495D01*
X139127000Y-127270358D01*
X142223000Y-127270358D01*
X142223000Y-127669642D01*
X142300896Y-128061254D01*
X142453696Y-128430145D01*
X142675526Y-128762137D01*
X142957863Y-129044474D01*
X143289855Y-129266304D01*
X143658746Y-129419104D01*
X144050358Y-129497000D01*
X144449642Y-129497000D01*
X144841254Y-129419104D01*
X145210145Y-129266304D01*
X145542137Y-129044474D01*
X145824474Y-128762137D01*
X146046304Y-128430145D01*
X146199104Y-128061254D01*
X146277000Y-127669642D01*
X146277000Y-127270358D01*
X146199104Y-126878746D01*
X146046304Y-126509855D01*
X145824474Y-126177863D01*
X145542137Y-125895526D01*
X145210145Y-125673696D01*
X144841254Y-125520896D01*
X144449642Y-125443000D01*
X144050358Y-125443000D01*
X143658746Y-125520896D01*
X143289855Y-125673696D01*
X142957863Y-125895526D01*
X142675526Y-126177863D01*
X142453696Y-126509855D01*
X142300896Y-126878746D01*
X142223000Y-127270358D01*
X139127000Y-127270358D01*
X139127000Y-123532505D01*
X139186099Y-123473406D01*
X139353210Y-123223306D01*
X139468319Y-122945410D01*
X139527000Y-122650396D01*
X139527000Y-122349604D01*
X139486503Y-122146008D01*
X139526594Y-122186099D01*
X139776694Y-122353210D01*
X140054590Y-122468319D01*
X140349604Y-122527000D01*
X140650396Y-122527000D01*
X140945410Y-122468319D01*
X141223306Y-122353210D01*
X141473406Y-122186099D01*
X141686099Y-121973406D01*
X141768820Y-121849604D01*
X152973000Y-121849604D01*
X152973000Y-122150396D01*
X153031681Y-122445410D01*
X153146790Y-122723306D01*
X153313901Y-122973406D01*
X153526594Y-123186099D01*
X153776694Y-123353210D01*
X154054590Y-123468319D01*
X154349604Y-123527000D01*
X154650396Y-123527000D01*
X154945410Y-123468319D01*
X155223306Y-123353210D01*
X155473406Y-123186099D01*
X155686099Y-122973406D01*
X155853210Y-122723306D01*
X155968319Y-122445410D01*
X156027000Y-122150396D01*
X156027000Y-121849604D01*
X155968319Y-121554590D01*
X155853210Y-121276694D01*
X155686099Y-121026594D01*
X155473406Y-120813901D01*
X155223306Y-120646790D01*
X154945410Y-120531681D01*
X154650396Y-120473000D01*
X154349604Y-120473000D01*
X154054590Y-120531681D01*
X153776694Y-120646790D01*
X153526594Y-120813901D01*
X153313901Y-121026594D01*
X153146790Y-121276694D01*
X153031681Y-121554590D01*
X152973000Y-121849604D01*
X141768820Y-121849604D01*
X141853210Y-121723306D01*
X141968319Y-121445410D01*
X142027000Y-121150396D01*
X142027000Y-120849604D01*
X141968319Y-120554590D01*
X141853210Y-120276694D01*
X141686099Y-120026594D01*
X141473406Y-119813901D01*
X141223306Y-119646790D01*
X140945410Y-119531681D01*
X140650396Y-119473000D01*
X140349604Y-119473000D01*
X140054590Y-119531681D01*
X139776694Y-119646790D01*
X139526594Y-119813901D01*
X139313901Y-120026594D01*
X139146790Y-120276694D01*
X139031681Y-120554590D01*
X138973000Y-120849604D01*
X138973000Y-121150396D01*
X139013497Y-121353992D01*
X138973406Y-121313901D01*
X138723306Y-121146790D01*
X138445410Y-121031681D01*
X138150396Y-120973000D01*
X137849604Y-120973000D01*
X137554590Y-121031681D01*
X137276694Y-121146790D01*
X137026594Y-121313901D01*
X136967495Y-121373000D01*
X132552606Y-121373000D01*
X128779210Y-117599604D01*
X148223000Y-117599604D01*
X148223000Y-117900396D01*
X148281681Y-118195410D01*
X148396790Y-118473306D01*
X148563901Y-118723406D01*
X148715495Y-118875000D01*
X148563901Y-119026594D01*
X148396790Y-119276694D01*
X148281681Y-119554590D01*
X148223000Y-119849604D01*
X148223000Y-120150396D01*
X148281681Y-120445410D01*
X148396790Y-120723306D01*
X148563901Y-120973406D01*
X148776594Y-121186099D01*
X149026694Y-121353210D01*
X149304590Y-121468319D01*
X149599604Y-121527000D01*
X149900396Y-121527000D01*
X150195410Y-121468319D01*
X150473306Y-121353210D01*
X150723406Y-121186099D01*
X150936099Y-120973406D01*
X151103210Y-120723306D01*
X151218319Y-120445410D01*
X151277000Y-120150396D01*
X151277000Y-119849604D01*
X151218319Y-119554590D01*
X151103210Y-119276694D01*
X150936099Y-119026594D01*
X150784505Y-118875000D01*
X150936099Y-118723406D01*
X151103210Y-118473306D01*
X151218319Y-118195410D01*
X151277000Y-117900396D01*
X151277000Y-117599604D01*
X151218319Y-117304590D01*
X151103210Y-117026694D01*
X150936099Y-116776594D01*
X150723406Y-116563901D01*
X150473306Y-116396790D01*
X150195410Y-116281681D01*
X149900396Y-116223000D01*
X149599604Y-116223000D01*
X149304590Y-116281681D01*
X149026694Y-116396790D01*
X148776594Y-116563901D01*
X148563901Y-116776594D01*
X148396790Y-117026694D01*
X148281681Y-117304590D01*
X148223000Y-117599604D01*
X128779210Y-117599604D01*
X127089803Y-115910197D01*
X127070557Y-115894403D01*
X127048601Y-115882667D01*
X127024776Y-115875440D01*
X127000000Y-115873000D01*
X116377000Y-115873000D01*
X116377000Y-113849604D01*
X136473000Y-113849604D01*
X136473000Y-114150396D01*
X136531681Y-114445410D01*
X136646790Y-114723306D01*
X136813901Y-114973406D01*
X137026594Y-115186099D01*
X137276694Y-115353210D01*
X137554590Y-115468319D01*
X137849604Y-115527000D01*
X138150396Y-115527000D01*
X138445410Y-115468319D01*
X138723306Y-115353210D01*
X138973406Y-115186099D01*
X139186099Y-114973406D01*
X139353210Y-114723306D01*
X139468319Y-114445410D01*
X139527000Y-114150396D01*
X139527000Y-113849604D01*
X139468319Y-113554590D01*
X139353210Y-113276694D01*
X139186099Y-113026594D01*
X138973406Y-112813901D01*
X138723306Y-112646790D01*
X138445410Y-112531681D01*
X138150396Y-112473000D01*
X137849604Y-112473000D01*
X137554590Y-112531681D01*
X137276694Y-112646790D01*
X137026594Y-112813901D01*
X136813901Y-113026594D01*
X136646790Y-113276694D01*
X136531681Y-113554590D01*
X136473000Y-113849604D01*
X116377000Y-113849604D01*
X116377000Y-111800358D01*
X148723000Y-111800358D01*
X148723000Y-112199642D01*
X148800896Y-112591254D01*
X148953696Y-112960145D01*
X149175526Y-113292137D01*
X149457863Y-113574474D01*
X149789855Y-113796304D01*
X150158746Y-113949104D01*
X150550358Y-114027000D01*
X150949642Y-114027000D01*
X151341254Y-113949104D01*
X151710145Y-113796304D01*
X152042137Y-113574474D01*
X152324474Y-113292137D01*
X152546304Y-112960145D01*
X152699104Y-112591254D01*
X152777000Y-112199642D01*
X152777000Y-111800358D01*
X152699104Y-111408746D01*
X152546304Y-111039855D01*
X152324474Y-110707863D01*
X152042137Y-110425526D01*
X151710145Y-110203696D01*
X151341254Y-110050896D01*
X150949642Y-109973000D01*
X150550358Y-109973000D01*
X150158746Y-110050896D01*
X149789855Y-110203696D01*
X149457863Y-110425526D01*
X149175526Y-110707863D01*
X148953696Y-111039855D01*
X148800896Y-111408746D01*
X148723000Y-111800358D01*
X116377000Y-111800358D01*
X116377000Y-110732722D01*
X116599604Y-110777000D01*
X116900396Y-110777000D01*
X117195410Y-110718319D01*
X117473306Y-110603210D01*
X117723406Y-110436099D01*
X117936099Y-110223406D01*
X118103210Y-109973306D01*
X118218319Y-109695410D01*
X118277000Y-109400396D01*
X118277000Y-109099604D01*
X118218319Y-108804590D01*
X118103210Y-108526694D01*
X117936099Y-108276594D01*
X117739863Y-108080358D01*
X126223000Y-108080358D01*
X126223000Y-108479642D01*
X126300896Y-108871254D01*
X126453696Y-109240145D01*
X126675526Y-109572137D01*
X126957863Y-109854474D01*
X127289855Y-110076304D01*
X127658746Y-110229104D01*
X128050358Y-110307000D01*
X128449642Y-110307000D01*
X128841254Y-110229104D01*
X129210145Y-110076304D01*
X129542137Y-109854474D01*
X129824474Y-109572137D01*
X130046304Y-109240145D01*
X130199104Y-108871254D01*
X130277000Y-108479642D01*
X130277000Y-108080358D01*
X130199104Y-107688746D01*
X130046304Y-107319855D01*
X130033038Y-107300000D01*
X136317547Y-107300000D01*
X136317547Y-109400000D01*
X136339307Y-109620931D01*
X136403750Y-109833371D01*
X136508400Y-110029157D01*
X136649235Y-110200765D01*
X136820843Y-110341600D01*
X137016629Y-110446250D01*
X137229069Y-110510693D01*
X137450000Y-110532453D01*
X139550000Y-110532453D01*
X139770931Y-110510693D01*
X139983371Y-110446250D01*
X140179157Y-110341600D01*
X140350765Y-110200765D01*
X140491600Y-110029157D01*
X140596250Y-109833371D01*
X140660693Y-109620931D01*
X140682453Y-109400000D01*
X140682453Y-107300000D01*
X140660693Y-107079069D01*
X140596250Y-106866629D01*
X140496217Y-106679482D01*
X140593340Y-106445008D01*
X140677000Y-106024416D01*
X140677000Y-105595584D01*
X140593340Y-105174992D01*
X140429233Y-104778804D01*
X140190987Y-104422243D01*
X139887757Y-104119013D01*
X139531196Y-103880767D01*
X139135008Y-103716660D01*
X138714416Y-103633000D01*
X138285584Y-103633000D01*
X137864992Y-103716660D01*
X137468804Y-103880767D01*
X137112243Y-104119013D01*
X136809013Y-104422243D01*
X136570767Y-104778804D01*
X136406660Y-105174992D01*
X136323000Y-105595584D01*
X136323000Y-106024416D01*
X136406660Y-106445008D01*
X136503783Y-106679482D01*
X136403750Y-106866629D01*
X136339307Y-107079069D01*
X136317547Y-107300000D01*
X130033038Y-107300000D01*
X129824474Y-106987863D01*
X129542137Y-106705526D01*
X129210145Y-106483696D01*
X128841254Y-106330896D01*
X128449642Y-106253000D01*
X128050358Y-106253000D01*
X127658746Y-106330896D01*
X127289855Y-106483696D01*
X126957863Y-106705526D01*
X126675526Y-106987863D01*
X126453696Y-107319855D01*
X126300896Y-107688746D01*
X126223000Y-108080358D01*
X117739863Y-108080358D01*
X117723406Y-108063901D01*
X117473306Y-107896790D01*
X117195410Y-107781681D01*
X116900396Y-107723000D01*
X116599604Y-107723000D01*
X116377000Y-107767278D01*
X116377000Y-105627000D01*
X120973000Y-105627000D01*
X120973000Y-105900396D01*
X121031681Y-106195410D01*
X121146790Y-106473306D01*
X121313901Y-106723406D01*
X121526594Y-106936099D01*
X121776694Y-107103210D01*
X122054590Y-107218319D01*
X122349604Y-107277000D01*
X122650396Y-107277000D01*
X122945410Y-107218319D01*
X123223306Y-107103210D01*
X123473406Y-106936099D01*
X123686099Y-106723406D01*
X123853210Y-106473306D01*
X123968319Y-106195410D01*
X124027000Y-105900396D01*
X124027000Y-105627000D01*
X131500000Y-105627000D01*
X131524776Y-105624560D01*
X131548601Y-105617333D01*
X131570557Y-105605597D01*
X131589803Y-105589803D01*
X131605597Y-105570557D01*
X131617333Y-105548601D01*
X131624560Y-105524776D01*
X131627000Y-105500000D01*
X131627000Y-99160207D01*
X136073000Y-99160207D01*
X136073000Y-99539793D01*
X136147053Y-99912085D01*
X136292315Y-100262777D01*
X136503201Y-100578391D01*
X136771609Y-100846799D01*
X137087223Y-101057685D01*
X137437915Y-101202947D01*
X137810207Y-101277000D01*
X138189793Y-101277000D01*
X138562085Y-101202947D01*
X138912777Y-101057685D01*
X139228391Y-100846799D01*
X139496799Y-100578391D01*
X139707685Y-100262777D01*
X139852947Y-99912085D01*
X139892200Y-99714741D01*
X141008959Y-99714741D01*
X141108766Y-99998620D01*
X141262038Y-100257573D01*
X141462884Y-100481649D01*
X141703586Y-100662236D01*
X141974893Y-100792394D01*
X142135260Y-100841036D01*
X142373000Y-100720378D01*
X142373000Y-99477000D01*
X142627000Y-99477000D01*
X142627000Y-100720378D01*
X142864740Y-100841036D01*
X143025107Y-100792394D01*
X143296414Y-100662236D01*
X143537116Y-100481649D01*
X143737962Y-100257573D01*
X143891234Y-99998620D01*
X143991041Y-99714741D01*
X143870992Y-99477000D01*
X142627000Y-99477000D01*
X142373000Y-99477000D01*
X141129008Y-99477000D01*
X141008959Y-99714741D01*
X139892200Y-99714741D01*
X139927000Y-99539793D01*
X139927000Y-99160207D01*
X139892201Y-98985259D01*
X141008959Y-98985259D01*
X141129008Y-99223000D01*
X142373000Y-99223000D01*
X142373000Y-97979622D01*
X142627000Y-97979622D01*
X142627000Y-99223000D01*
X143870992Y-99223000D01*
X143991041Y-98985259D01*
X143891234Y-98701380D01*
X143737962Y-98442427D01*
X143537116Y-98218351D01*
X143296414Y-98037764D01*
X143025107Y-97907606D01*
X142864740Y-97858964D01*
X142627000Y-97979622D01*
X142373000Y-97979622D01*
X142135260Y-97858964D01*
X141974893Y-97907606D01*
X141703586Y-98037764D01*
X141462884Y-98218351D01*
X141262038Y-98442427D01*
X141108766Y-98701380D01*
X141008959Y-98985259D01*
X139892201Y-98985259D01*
X139852947Y-98787915D01*
X139707685Y-98437223D01*
X139496799Y-98121609D01*
X139228391Y-97853201D01*
X138912777Y-97642315D01*
X138562085Y-97497053D01*
X138189793Y-97423000D01*
X137810207Y-97423000D01*
X137437915Y-97497053D01*
X137087223Y-97642315D01*
X136771609Y-97853201D01*
X136503201Y-98121609D01*
X136292315Y-98437223D01*
X136147053Y-98787915D01*
X136073000Y-99160207D01*
X131627000Y-99160207D01*
X131627000Y-89000207D01*
X136073000Y-89000207D01*
X136073000Y-89379793D01*
X136147053Y-89752085D01*
X136292315Y-90102777D01*
X136503201Y-90418391D01*
X136771609Y-90686799D01*
X137087223Y-90897685D01*
X137437915Y-91042947D01*
X137810207Y-91117000D01*
X138189793Y-91117000D01*
X138562085Y-91042947D01*
X138912777Y-90897685D01*
X139228391Y-90686799D01*
X139496799Y-90418391D01*
X139707685Y-90102777D01*
X139852947Y-89752085D01*
X139927000Y-89379793D01*
X139927000Y-89000207D01*
X139852947Y-88627915D01*
X139712978Y-88290000D01*
X140467547Y-88290000D01*
X140467547Y-90090000D01*
X140489307Y-90310931D01*
X140553750Y-90523371D01*
X140658400Y-90719157D01*
X140799235Y-90890765D01*
X140970843Y-91031600D01*
X141166629Y-91136250D01*
X141379069Y-91200693D01*
X141600000Y-91222453D01*
X143400000Y-91222453D01*
X143620931Y-91200693D01*
X143833371Y-91136250D01*
X144029157Y-91031600D01*
X144200765Y-90890765D01*
X144341600Y-90719157D01*
X144446250Y-90523371D01*
X144510693Y-90310931D01*
X144532453Y-90090000D01*
X144532453Y-88290000D01*
X144510693Y-88069069D01*
X144446250Y-87856629D01*
X144341600Y-87660843D01*
X144200765Y-87489235D01*
X144029157Y-87348400D01*
X143833371Y-87243750D01*
X143620931Y-87179307D01*
X143400000Y-87157547D01*
X141600000Y-87157547D01*
X141379069Y-87179307D01*
X141166629Y-87243750D01*
X140970843Y-87348400D01*
X140799235Y-87489235D01*
X140658400Y-87660843D01*
X140553750Y-87856629D01*
X140489307Y-88069069D01*
X140467547Y-88290000D01*
X139712978Y-88290000D01*
X139707685Y-88277223D01*
X139496799Y-87961609D01*
X139228391Y-87693201D01*
X138912777Y-87482315D01*
X138562085Y-87337053D01*
X138189793Y-87263000D01*
X137810207Y-87263000D01*
X137437915Y-87337053D01*
X137087223Y-87482315D01*
X136771609Y-87693201D01*
X136503201Y-87961609D01*
X136292315Y-88277223D01*
X136147053Y-88627915D01*
X136073000Y-89000207D01*
X131627000Y-89000207D01*
X131627000Y-86000000D01*
X131624560Y-85975224D01*
X131617333Y-85951399D01*
X131605597Y-85929443D01*
X131589803Y-85910197D01*
X131570557Y-85894403D01*
X131548601Y-85882667D01*
X131524776Y-85875440D01*
X131500000Y-85873000D01*
X102527000Y-85873000D01*
X102527000Y-85849604D01*
X102468319Y-85554590D01*
X102353210Y-85276694D01*
X102186099Y-85026594D01*
X102159505Y-85000000D01*
X102186099Y-84973406D01*
X102353210Y-84723306D01*
X102468319Y-84445410D01*
X102527000Y-84150396D01*
X102527000Y-83849604D01*
X102468319Y-83554590D01*
X102353210Y-83276694D01*
X102186099Y-83026594D01*
X102159505Y-83000000D01*
X102186099Y-82973406D01*
X102353210Y-82723306D01*
X102468319Y-82445410D01*
X102527000Y-82150396D01*
X102527000Y-82099604D01*
X109473000Y-82099604D01*
X109473000Y-82400396D01*
X109531681Y-82695410D01*
X109646790Y-82973306D01*
X109813901Y-83223406D01*
X110026594Y-83436099D01*
X110276694Y-83603210D01*
X110554590Y-83718319D01*
X110849604Y-83777000D01*
X111150396Y-83777000D01*
X111445410Y-83718319D01*
X111723306Y-83603210D01*
X111802404Y-83550358D01*
X113943000Y-83550358D01*
X113943000Y-83949642D01*
X114020896Y-84341254D01*
X114173696Y-84710145D01*
X114395526Y-85042137D01*
X114677863Y-85324474D01*
X115009855Y-85546304D01*
X115378746Y-85699104D01*
X115770358Y-85777000D01*
X116169642Y-85777000D01*
X116561254Y-85699104D01*
X116930145Y-85546304D01*
X117262137Y-85324474D01*
X117544474Y-85042137D01*
X117766304Y-84710145D01*
X117919104Y-84341254D01*
X117997000Y-83949642D01*
X117997000Y-83550358D01*
X131723000Y-83550358D01*
X131723000Y-83949642D01*
X131800896Y-84341254D01*
X131953696Y-84710145D01*
X132175526Y-85042137D01*
X132457863Y-85324474D01*
X132789855Y-85546304D01*
X133158746Y-85699104D01*
X133550358Y-85777000D01*
X133949642Y-85777000D01*
X134341254Y-85699104D01*
X134710145Y-85546304D01*
X135042137Y-85324474D01*
X135324474Y-85042137D01*
X135453120Y-84849604D01*
X142973000Y-84849604D01*
X142973000Y-85150396D01*
X143031681Y-85445410D01*
X143146790Y-85723306D01*
X143313901Y-85973406D01*
X143526594Y-86186099D01*
X143776694Y-86353210D01*
X144054590Y-86468319D01*
X144349604Y-86527000D01*
X144650396Y-86527000D01*
X144945410Y-86468319D01*
X145223306Y-86353210D01*
X145473406Y-86186099D01*
X145686099Y-85973406D01*
X145853210Y-85723306D01*
X145968319Y-85445410D01*
X146027000Y-85150396D01*
X146027000Y-84849604D01*
X145968319Y-84554590D01*
X145853210Y-84276694D01*
X145686099Y-84026594D01*
X145473406Y-83813901D01*
X145223306Y-83646790D01*
X144945410Y-83531681D01*
X144650396Y-83473000D01*
X144349604Y-83473000D01*
X144054590Y-83531681D01*
X143776694Y-83646790D01*
X143526594Y-83813901D01*
X143313901Y-84026594D01*
X143146790Y-84276694D01*
X143031681Y-84554590D01*
X142973000Y-84849604D01*
X135453120Y-84849604D01*
X135546304Y-84710145D01*
X135699104Y-84341254D01*
X135777000Y-83949642D01*
X135777000Y-83550358D01*
X135699104Y-83158746D01*
X135546304Y-82789855D01*
X135324474Y-82457863D01*
X135042137Y-82175526D01*
X134710145Y-81953696D01*
X134341254Y-81800896D01*
X133949642Y-81723000D01*
X133550358Y-81723000D01*
X133158746Y-81800896D01*
X132789855Y-81953696D01*
X132457863Y-82175526D01*
X132175526Y-82457863D01*
X131953696Y-82789855D01*
X131800896Y-83158746D01*
X131723000Y-83550358D01*
X117997000Y-83550358D01*
X117919104Y-83158746D01*
X117766304Y-82789855D01*
X117544474Y-82457863D01*
X117262137Y-82175526D01*
X116930145Y-81953696D01*
X116561254Y-81800896D01*
X116169642Y-81723000D01*
X115770358Y-81723000D01*
X115378746Y-81800896D01*
X115009855Y-81953696D01*
X114677863Y-82175526D01*
X114395526Y-82457863D01*
X114173696Y-82789855D01*
X114020896Y-83158746D01*
X113943000Y-83550358D01*
X111802404Y-83550358D01*
X111973406Y-83436099D01*
X112186099Y-83223406D01*
X112353210Y-82973306D01*
X112468319Y-82695410D01*
X112527000Y-82400396D01*
X112527000Y-82099604D01*
X112468319Y-81804590D01*
X112353210Y-81526694D01*
X112186099Y-81276594D01*
X111973406Y-81063901D01*
X111723306Y-80896790D01*
X111445410Y-80781681D01*
X111150396Y-80723000D01*
X110849604Y-80723000D01*
X110554590Y-80781681D01*
X110276694Y-80896790D01*
X110026594Y-81063901D01*
X109813901Y-81276594D01*
X109646790Y-81526694D01*
X109531681Y-81804590D01*
X109473000Y-82099604D01*
X102527000Y-82099604D01*
X102527000Y-81849604D01*
X102468319Y-81554590D01*
X102353210Y-81276694D01*
X102186099Y-81026594D01*
X102159505Y-81000000D01*
X102186099Y-80973406D01*
X102353210Y-80723306D01*
X102468319Y-80445410D01*
X102527000Y-80150396D01*
X102527000Y-79849604D01*
X102468319Y-79554590D01*
X102353210Y-79276694D01*
X102186099Y-79026594D01*
X102159505Y-79000000D01*
X102186099Y-78973406D01*
X102353210Y-78723306D01*
X102468319Y-78445410D01*
X102527000Y-78150396D01*
X102527000Y-77849604D01*
X102468319Y-77554590D01*
X102353210Y-77276694D01*
X102186099Y-77026594D01*
X102159505Y-77000000D01*
X102186099Y-76973406D01*
X102353210Y-76723306D01*
X102468319Y-76445410D01*
X102527000Y-76150396D01*
X102527000Y-75849604D01*
X102468319Y-75554590D01*
X102353210Y-75276694D01*
X102186099Y-75026594D01*
X102159505Y-75000000D01*
X102186099Y-74973406D01*
X102353210Y-74723306D01*
X102468319Y-74445410D01*
X102527000Y-74150396D01*
X102527000Y-73849604D01*
X102468319Y-73554590D01*
X102353210Y-73276694D01*
X102186099Y-73026594D01*
X102159505Y-73000000D01*
X102186099Y-72973406D01*
X102353210Y-72723306D01*
X102468319Y-72445410D01*
X102527000Y-72150396D01*
X102527000Y-71849604D01*
X102468319Y-71554590D01*
X102353210Y-71276694D01*
X102186099Y-71026594D01*
X102159505Y-71000000D01*
X102186099Y-70973406D01*
X102353210Y-70723306D01*
X102393101Y-70627000D01*
X112373000Y-70627000D01*
X112373000Y-70717495D01*
X112313901Y-70776594D01*
X112146790Y-71026694D01*
X112065477Y-71223000D01*
X111849604Y-71223000D01*
X111554590Y-71281681D01*
X111276694Y-71396790D01*
X111026594Y-71563901D01*
X110813901Y-71776594D01*
X110646790Y-72026694D01*
X110531681Y-72304590D01*
X110473000Y-72599604D01*
X110473000Y-72900396D01*
X110531681Y-73195410D01*
X110646790Y-73473306D01*
X110813901Y-73723406D01*
X110853206Y-73762711D01*
X110776594Y-73813901D01*
X110563901Y-74026594D01*
X110396790Y-74276694D01*
X110281681Y-74554590D01*
X110223000Y-74849604D01*
X110223000Y-75150396D01*
X110281681Y-75445410D01*
X110396790Y-75723306D01*
X110563901Y-75973406D01*
X110776594Y-76186099D01*
X111026694Y-76353210D01*
X111304590Y-76468319D01*
X111599604Y-76527000D01*
X111900396Y-76527000D01*
X112195410Y-76468319D01*
X112373000Y-76394758D01*
X112373000Y-79500000D01*
X112375440Y-79524776D01*
X112382667Y-79548601D01*
X112394403Y-79570557D01*
X112410197Y-79589803D01*
X112429443Y-79605597D01*
X112451399Y-79617333D01*
X112475224Y-79624560D01*
X112500000Y-79627000D01*
X122310623Y-79627000D01*
X122297863Y-79635526D01*
X122015526Y-79917863D01*
X121793696Y-80249855D01*
X121640896Y-80618746D01*
X121563000Y-81010358D01*
X121563000Y-81409642D01*
X121640896Y-81801254D01*
X121793696Y-82170145D01*
X122015526Y-82502137D01*
X122297863Y-82784474D01*
X122629855Y-83006304D01*
X122998746Y-83159104D01*
X123390358Y-83237000D01*
X123789642Y-83237000D01*
X124181254Y-83159104D01*
X124550145Y-83006304D01*
X124882137Y-82784474D01*
X125164474Y-82502137D01*
X125386304Y-82170145D01*
X125539104Y-81801254D01*
X125617000Y-81409642D01*
X125617000Y-81010358D01*
X125539104Y-80618746D01*
X125386304Y-80249855D01*
X125164474Y-79917863D01*
X124882137Y-79635526D01*
X124869377Y-79627000D01*
X153000000Y-79627000D01*
X153024776Y-79624560D01*
X153048601Y-79617333D01*
X153070557Y-79605597D01*
X153089803Y-79589803D01*
X153105597Y-79570557D01*
X153117333Y-79548601D01*
X153124560Y-79524776D01*
X153127000Y-79500000D01*
X153127000Y-79049604D01*
X157473000Y-79049604D01*
X157473000Y-79350396D01*
X157531681Y-79645410D01*
X157646790Y-79923306D01*
X157813901Y-80173406D01*
X158026594Y-80386099D01*
X158276694Y-80553210D01*
X158554590Y-80668319D01*
X158849604Y-80727000D01*
X159150396Y-80727000D01*
X159445410Y-80668319D01*
X159723306Y-80553210D01*
X159973406Y-80386099D01*
X160186099Y-80173406D01*
X160353210Y-79923306D01*
X160468319Y-79645410D01*
X160527000Y-79350396D01*
X160527000Y-79049604D01*
X160468319Y-78754590D01*
X160353210Y-78476694D01*
X160186099Y-78226594D01*
X159973406Y-78013901D01*
X159723306Y-77846790D01*
X159445410Y-77731681D01*
X159150396Y-77673000D01*
X158849604Y-77673000D01*
X158554590Y-77731681D01*
X158276694Y-77846790D01*
X158026594Y-78013901D01*
X157813901Y-78226594D01*
X157646790Y-78476694D01*
X157531681Y-78754590D01*
X157473000Y-79049604D01*
X153127000Y-79049604D01*
X153127000Y-71300358D01*
X154443000Y-71300358D01*
X154443000Y-71699642D01*
X154520896Y-72091254D01*
X154673696Y-72460145D01*
X154895526Y-72792137D01*
X155177863Y-73074474D01*
X155509855Y-73296304D01*
X155878746Y-73449104D01*
X156270358Y-73527000D01*
X156669642Y-73527000D01*
X157061254Y-73449104D01*
X157430145Y-73296304D01*
X157762137Y-73074474D01*
X158044474Y-72792137D01*
X158266304Y-72460145D01*
X158419104Y-72091254D01*
X158497000Y-71699642D01*
X158497000Y-71300358D01*
X158419104Y-70908746D01*
X158266304Y-70539855D01*
X158044474Y-70207863D01*
X157762137Y-69925526D01*
X157430145Y-69703696D01*
X157061254Y-69550896D01*
X156669642Y-69473000D01*
X156270358Y-69473000D01*
X155878746Y-69550896D01*
X155509855Y-69703696D01*
X155177863Y-69925526D01*
X154895526Y-70207863D01*
X154673696Y-70539855D01*
X154520896Y-70908746D01*
X154443000Y-71300358D01*
X153127000Y-71300358D01*
X153127000Y-64231926D01*
X153195410Y-64218319D01*
X153473306Y-64103210D01*
X153723406Y-63936099D01*
X153936099Y-63723406D01*
X154103210Y-63473306D01*
X154218319Y-63195410D01*
X154237375Y-63099604D01*
X156523000Y-63099604D01*
X156523000Y-63400396D01*
X156581681Y-63695410D01*
X156696790Y-63973306D01*
X156863901Y-64223406D01*
X157076594Y-64436099D01*
X157326694Y-64603210D01*
X157604590Y-64718319D01*
X157899604Y-64777000D01*
X158200396Y-64777000D01*
X158495410Y-64718319D01*
X158773306Y-64603210D01*
X159023406Y-64436099D01*
X159236099Y-64223406D01*
X159403210Y-63973306D01*
X159518319Y-63695410D01*
X159577000Y-63400396D01*
X159577000Y-63099604D01*
X159518319Y-62804590D01*
X159403210Y-62526694D01*
X159236099Y-62276594D01*
X159023406Y-62063901D01*
X158773306Y-61896790D01*
X158495410Y-61781681D01*
X158200396Y-61723000D01*
X157899604Y-61723000D01*
X157604590Y-61781681D01*
X157326694Y-61896790D01*
X157076594Y-62063901D01*
X156863901Y-62276594D01*
X156696790Y-62526694D01*
X156581681Y-62804590D01*
X156523000Y-63099604D01*
X154237375Y-63099604D01*
X154277000Y-62900396D01*
X154277000Y-62599604D01*
X154218319Y-62304590D01*
X154103210Y-62026694D01*
X153936099Y-61776594D01*
X153723406Y-61563901D01*
X153585327Y-61471640D01*
X155461039Y-59127000D01*
X159873000Y-59127000D01*
X159873000Y-73500000D01*
M02*
