M48
; DRILL file {KiCad 5.1.6-c6e7f7d~86~ubuntu18.04.1} date Thu May 28 18:44:10 2020
; FORMAT={-:-/ absolute / inch / decimal}
; #@! TF.CreationDate,2020-05-28T18:44:10+01:00
; #@! TF.GenerationSoftware,Kicad,Pcbnew,5.1.6-c6e7f7d~86~ubuntu18.04.1
; #@! TF.FileFunction,Plated,1,4,PTH
FMAT,2
INCH
T1C0.0157
T2C0.0236
T3C0.0315
T4C0.0354
T5C0.0394
T6C0.0400
T7C0.0433
T8C0.1693
%
G90
G05
T1
X3.9764Y-2.2835
X3.9764Y-2.3622
X3.9764Y-2.4409
X3.9764Y-2.5197
X3.9764Y-2.5984
X3.9764Y-2.6772
X3.9764Y-2.7559
X3.9764Y-2.8346
X3.9764Y-2.9134
X3.9764Y-2.9921
X3.9764Y-3.0709
X3.9764Y-3.1496
X3.9764Y-3.2283
X3.9764Y-3.3071
X3.9764Y-3.3858
X3.9764Y-3.8976
X3.9764Y-3.9764
X3.9764Y-4.0551
X3.9764Y-4.1339
X3.9764Y-4.2126
X3.9764Y-4.2913
X3.9764Y-4.3701
X3.9764Y-4.4488
X3.9764Y-4.5276
X3.9764Y-5.0394
X3.9764Y-5.1181
X3.9764Y-5.1969
X3.9764Y-5.2756
X3.9764Y-5.3543
X3.9764Y-5.4331
X3.9764Y-5.5118
X3.9764Y-5.5906
X4.1161Y-4.1083
X4.124Y-3.937
X4.124Y-4.0059
X4.1634Y-4.6161
X4.1634Y-4.9508
X4.1732Y-3.4843
X4.1732Y-3.8189
X4.2224Y-2.8642
X4.252Y-5.8661
X4.2913Y-2.0079
X4.3307Y-5.8661
X4.3701Y-2.0079
X4.3701Y-3.2382
X4.3996Y-2.9528
X4.4094Y-2.8642
X4.4094Y-5.8661
X4.4291Y-3.8484
X4.4488Y-2.0079
X4.4685Y-2.8248
X4.4685Y-5.1969
X4.4705Y-3.7224
X4.4705Y-3.7697
X4.4882Y-5.8661
X4.5079Y-2.6083
X4.5276Y-2.0079
X4.5669Y-5.8661
X4.5965Y-3.9961
X4.5965Y-4.3012
X4.6063Y-2.0079
X4.6457Y-5.8661
X4.685Y-2.0079
X4.685Y-4.0157
X4.685Y-4.1929
X4.685Y-5.4331
X4.7146Y-5.3445
X4.7244Y-5.8661
X4.7441Y-5.5118
X4.7539Y-4.7244
X4.7638Y-2.0079
X4.8031Y-5.8661
X4.8228Y-4.1634
X4.8228Y-5.187
X4.8228Y-5.3051
X4.8327Y-2.4705
X4.8425Y-2.0079
X4.8622Y-2.8248
X4.9016Y-2.6083
X4.9213Y-2.0079
X4.9311Y-5.6791
X4.9409Y-4.626
X5.0Y-2.0079
X5.0Y-4.685
X5.0197Y-4.5079
X5.0295Y-5.4035
X5.126Y-2.189
X5.1673Y-5.0295
X5.2264Y-2.4705
X5.2657Y-2.8248
X5.2657Y-5.6791
X5.2953Y-2.6083
X5.3543Y-5.8661
X5.4331Y-4.4882
X5.4331Y-4.8228
X5.4331Y-5.1772
X5.4331Y-5.8661
X5.4646Y-2.189
X5.5118Y-5.8661
X5.5315Y-4.7638
X5.5512Y-2.0079
X5.5906Y-5.8661
X5.6201Y-2.4705
X5.6299Y-2.0079
X5.6594Y-2.8248
X5.6693Y-5.8661
X5.689Y-2.6083
X5.689Y-3.3465
X5.7087Y-2.0079
X5.748Y-5.8661
X5.7874Y-2.0079
X5.8268Y-5.374
X5.8268Y-5.8661
X5.8661Y-2.0079
X5.8957Y-4.6358
X5.8957Y-4.7244
X5.9055Y-5.8661
X5.9449Y-2.0079
X5.9843Y-5.8661
X6.0138Y-2.4705
X6.0315Y-2.1772
X6.063Y-5.8661
X6.0728Y-5.3346
X6.0827Y-4.8031
X6.1417Y-5.8661
X6.1634Y-2.3622
X6.1713Y-4.9311
X6.2205Y-5.8661
X6.2224Y-2.4902
X6.2402Y-5.2165
X6.2598Y-3.1181
X6.2992Y-5.8661
X6.3661Y-2.1811
X6.3681Y-4.813
X6.378Y-5.8661
X6.378Y-5.8661
X6.4567Y-5.8661
X6.4961Y-2.0079
X6.5157Y-5.187
X6.5157Y-5.2559
X6.5354Y-5.8661
X6.5748Y-2.0079
X6.6142Y-5.8661
X6.624Y-4.813
X6.6535Y-2.0079
X6.6535Y-5.4724
X6.6634Y-2.4705
X6.6919Y-3.2785
X6.6929Y-5.8661
X6.7323Y-2.0079
X6.7618Y-2.4606
X6.7717Y-2.5984
X6.7717Y-5.8661
X6.8012Y-3.6319
X6.811Y-2.0079
X6.8209Y-5.0591
X6.8602Y-3.3169
X6.8602Y-3.4252
X6.8701Y-2.4606
X6.8799Y-5.6791
X6.8898Y-2.0079
X6.939Y-3.4252
X6.9685Y-2.0079
X6.9783Y-2.4606
X6.9882Y-3.189
X7.0079Y-3.1102
X7.0177Y-3.4252
X7.0472Y-2.1949
X7.0571Y-2.9626
X7.0866Y-5.0197
X7.0866Y-5.0984
X7.126Y-3.7106
X7.126Y-5.0591
X7.1752Y-3.9272
X7.1752Y-4.0059
X7.1752Y-4.0846
X7.2047Y-2.9134
X7.2146Y-5.6791
X7.313Y-3.002
X7.3228Y-5.8661
X7.3622Y-3.1102
X7.372Y-4.1831
X7.3819Y-2.1949
X7.4016Y-5.8661
X7.4311Y-4.311
X7.4409Y-3.9665
X7.4803Y-2.0079
X7.4803Y-5.8661
X7.5394Y-3.622
X7.5591Y-2.0079
X7.5591Y-5.8661
X7.6181Y-5.0984
X7.628Y-3.2087
X7.628Y-3.5433
X7.628Y-4.3504
X7.628Y-4.685
X7.6457Y-2.4449
X7.6457Y-2.7795
X7.7461Y-4.0945
X7.8346Y-2.2835
X7.8346Y-2.3622
X7.8346Y-2.874
X7.8346Y-2.9528
X7.8346Y-3.0315
X7.8346Y-3.1102
X7.8346Y-3.622
X7.8346Y-3.7008
X7.8346Y-3.7795
X7.8346Y-3.8583
X7.8346Y-3.937
X7.8346Y-4.0157
X7.8346Y-4.0945
X7.8346Y-4.1732
X7.8346Y-4.252
X7.8346Y-4.8031
X7.8346Y-4.8819
X7.8346Y-4.9606
X7.8346Y-5.0394
X7.8346Y-5.1181
X7.8346Y-5.1969
X7.8346Y-5.2756
X7.8346Y-5.3543
X7.8346Y-5.4331
X7.8346Y-5.5118
X7.8346Y-5.5906
T2
X7.5108Y-2.2047
X7.548Y-2.1149
X7.548Y-2.2945
X7.6378Y-2.0778
X7.6378Y-2.3317
X7.7276Y-2.1149
X7.7276Y-2.2945
X7.7648Y-2.2047
X4.0463Y-2.2047
X4.0834Y-2.1149
X4.0834Y-2.2945
X4.1732Y-2.0778
X4.1732Y-2.3317
X4.263Y-2.1149
X4.263Y-2.2945
X4.3002Y-2.2047
X7.4911Y-5.6496
X7.5283Y-5.5598
X7.5283Y-5.7394
X7.6181Y-5.5226
X7.6181Y-5.7766
X7.7079Y-5.5598
X7.7079Y-5.7394
X7.7451Y-5.6496
X4.0463Y-5.6693
X4.0834Y-5.5795
X4.0834Y-5.7591
X4.1732Y-5.5423
X4.1732Y-5.7963
X4.263Y-5.5795
X4.263Y-5.7591
X4.3002Y-5.6693
T3
X5.4331Y-3.5114
X5.4331Y-3.9114
T4
X5.6102Y-3.5114
X5.6102Y-3.9114
T5
X7.3508Y-5.1244
X7.4508Y-4.7244
X7.4508Y-5.4244
X6.1602Y-2.815
X6.4602Y-2.715
X6.8602Y-2.815
X5.935Y-4.4094
X6.335Y-4.5094
X6.635Y-4.4094
X4.5657Y-3.2972
X4.8657Y-3.1972
X5.2657Y-3.2972
X4.4685Y-5.2953
X4.5685Y-4.8953
X4.5685Y-5.5953
X4.9492Y-3.963
X5.0492Y-3.563
X5.0492Y-4.263
X5.5791Y-5.4185
X5.6791Y-5.0185
X5.6791Y-5.7185
T6
X6.2976Y-5.3937
X6.3976Y-5.0
X6.3976Y-5.3937
X6.4976Y-5.0
X6.4976Y-5.3937
X4.9492Y-3.0413
X5.0492Y-2.6476
X5.0492Y-3.0413
X5.1492Y-2.6476
X5.1492Y-3.0413
X6.5557Y-3.5297
X6.5557Y-3.6297
X6.5557Y-3.7297
X6.9494Y-3.6297
X6.9494Y-3.7297
X6.811Y-3.0102
X6.811Y-3.1102
X6.811Y-3.2102
X7.2047Y-3.1102
X7.2047Y-3.2102
X7.0146Y-2.7362
X7.1146Y-2.3425
X7.1146Y-2.7362
X7.2146Y-2.3425
X7.2146Y-2.7362
X6.5557Y-4.0028
X6.5557Y-4.1028
X6.5557Y-4.2028
X6.9494Y-4.1028
X6.9494Y-4.2028
X4.9016Y-4.8984
X4.9016Y-4.9984
X4.9016Y-5.0984
X5.2953Y-4.9984
X5.2953Y-5.0984
X4.3209Y-3.6516
X4.3209Y-3.7516
X4.7146Y-3.6516
X4.7146Y-3.7516
X4.7146Y-3.8516
X5.3429Y-3.0413
X5.4429Y-2.6476
X5.4429Y-3.0413
X5.5429Y-2.6476
X5.5429Y-3.0413
X4.9016Y-5.3346
X4.9016Y-5.4346
X5.2953Y-5.3346
X5.2953Y-5.4346
X5.2953Y-5.5346
X5.7366Y-3.0413
X5.8366Y-2.6476
X5.8366Y-3.0413
X5.9366Y-2.6476
X5.9366Y-3.0413
X4.5555Y-3.0413
X4.6555Y-2.6476
X4.6555Y-3.0413
X4.7555Y-2.6476
X4.7555Y-3.0413
T7
X5.4528Y-4.1657
X5.4528Y-4.2657
T8
X7.6181Y-5.6496
X4.1732Y-5.6693
X7.6378Y-2.2047
X4.1732Y-2.2047
T0
M30
