G04 #@! TF.GenerationSoftware,KiCad,Pcbnew,5.1.6-c6e7f7d~87~ubuntu18.04.1*
G04 #@! TF.CreationDate,2021-01-06T14:43:31+00:00*
G04 #@! TF.ProjectId,multi-smtpa,6d756c74-692d-4736-9d74-70612e6b6963,rev?*
G04 #@! TF.SameCoordinates,Original*
G04 #@! TF.FileFunction,Copper,L3,Inr*
G04 #@! TF.FilePolarity,Positive*
%FSLAX46Y46*%
G04 Gerber Fmt 4.6, Leading zero omitted, Abs format (unit mm)*
G04 Created by KiCad (PCBNEW 5.1.6-c6e7f7d~87~ubuntu18.04.1) date 2021-01-06 14:43:31*
%MOMM*%
%LPD*%
G01*
G04 APERTURE LIST*
G04 #@! TA.AperFunction,ViaPad*
%ADD10C,1.524000*%
G04 #@! TD*
G04 #@! TA.AperFunction,ViaPad*
%ADD11O,1.700000X1.700000*%
G04 #@! TD*
G04 #@! TA.AperFunction,ViaPad*
%ADD12R,1.700000X1.700000*%
G04 #@! TD*
G04 #@! TA.AperFunction,ViaPad*
%ADD13O,1.600000X1.600000*%
G04 #@! TD*
G04 #@! TA.AperFunction,ViaPad*
%ADD14C,1.600000*%
G04 #@! TD*
G04 #@! TA.AperFunction,ViaPad*
%ADD15C,2.600000*%
G04 #@! TD*
G04 #@! TA.AperFunction,ViaPad*
%ADD16C,0.900000*%
G04 #@! TD*
G04 #@! TA.AperFunction,ViaPad*
%ADD17C,8.600000*%
G04 #@! TD*
G04 #@! TA.AperFunction,ViaPad*
%ADD18C,2.100000*%
G04 #@! TD*
G04 #@! TA.AperFunction,ViaPad*
%ADD19R,2.100000X2.100000*%
G04 #@! TD*
G04 #@! TA.AperFunction,ViaPad*
%ADD20O,1.800000X1.800000*%
G04 #@! TD*
G04 #@! TA.AperFunction,ViaPad*
%ADD21R,1.800000X1.800000*%
G04 #@! TD*
G04 #@! TA.AperFunction,ViaPad*
%ADD22C,0.800000*%
G04 #@! TD*
G04 #@! TA.AperFunction,Conductor*
%ADD23C,0.254000*%
G04 #@! TD*
G04 APERTURE END LIST*
D10*
X158000000Y-69710000D03*
X158000000Y-72250000D03*
X168000000Y-69710000D03*
X168000000Y-72250000D03*
X168000000Y-74790000D03*
X146500000Y-74790000D03*
X146500000Y-72250000D03*
X136500000Y-74790000D03*
X136500000Y-72250000D03*
X136500000Y-69710000D03*
X146500000Y-64790000D03*
X146500000Y-62250000D03*
X136500000Y-64790000D03*
X136500000Y-62250000D03*
X136500000Y-59710000D03*
X158000000Y-59710000D03*
X158000000Y-62250000D03*
X168000000Y-59710000D03*
X168000000Y-62250000D03*
X168000000Y-64790000D03*
D11*
X169840000Y-100000000D03*
X169840000Y-97460000D03*
X172380000Y-100000000D03*
X172380000Y-97460000D03*
X174920000Y-100000000D03*
X174920000Y-97460000D03*
X177460000Y-100000000D03*
X177460000Y-97460000D03*
X180000000Y-100000000D03*
D12*
X180000000Y-97460000D03*
D13*
X138090000Y-88500000D03*
D14*
X148250000Y-88500000D03*
G04 #@! TA.AperFunction,ViaPad*
G36*
G01*
X190350000Y-65700000D02*
X191650000Y-65700000D01*
G75*
G02*
X192300000Y-66350000I0J-650000D01*
G01*
X192300000Y-67650000D01*
G75*
G02*
X191650000Y-68300000I-650000J0D01*
G01*
X190350000Y-68300000D01*
G75*
G02*
X189700000Y-67650000I0J650000D01*
G01*
X189700000Y-66350000D01*
G75*
G02*
X190350000Y-65700000I650000J0D01*
G01*
G37*
G04 #@! TD.AperFunction*
D15*
X191000000Y-72080000D03*
G04 #@! TA.AperFunction,ViaPad*
G36*
G01*
X190350000Y-75700000D02*
X191650000Y-75700000D01*
G75*
G02*
X192300000Y-76350000I0J-650000D01*
G01*
X192300000Y-77650000D01*
G75*
G02*
X191650000Y-78300000I-650000J0D01*
G01*
X190350000Y-78300000D01*
G75*
G02*
X189700000Y-77650000I0J650000D01*
G01*
X189700000Y-76350000D01*
G75*
G02*
X190350000Y-75700000I650000J0D01*
G01*
G37*
G04 #@! TD.AperFunction*
X191000000Y-82080000D03*
G04 #@! TA.AperFunction,ViaPad*
G36*
G01*
X112600000Y-64750000D02*
X113900000Y-64750000D01*
G75*
G02*
X114550000Y-65400000I0J-650000D01*
G01*
X114550000Y-66700000D01*
G75*
G02*
X113900000Y-67350000I-650000J0D01*
G01*
X112600000Y-67350000D01*
G75*
G02*
X111950000Y-66700000I0J650000D01*
G01*
X111950000Y-65400000D01*
G75*
G02*
X112600000Y-64750000I650000J0D01*
G01*
G37*
G04 #@! TD.AperFunction*
X113250000Y-71130000D03*
G04 #@! TA.AperFunction,ViaPad*
G36*
G01*
X112600000Y-55000000D02*
X113900000Y-55000000D01*
G75*
G02*
X114550000Y-55650000I0J-650000D01*
G01*
X114550000Y-56950000D01*
G75*
G02*
X113900000Y-57600000I-650000J0D01*
G01*
X112600000Y-57600000D01*
G75*
G02*
X111950000Y-56950000I0J650000D01*
G01*
X111950000Y-55650000D01*
G75*
G02*
X112600000Y-55000000I650000J0D01*
G01*
G37*
G04 #@! TD.AperFunction*
X113250000Y-61380000D03*
D16*
X108280419Y-53719581D03*
X106000000Y-52775000D03*
X103719581Y-53719581D03*
X102775000Y-56000000D03*
X103719581Y-58280419D03*
X106000000Y-59225000D03*
X108280419Y-58280419D03*
X109225000Y-56000000D03*
D17*
X106000000Y-56000000D03*
D16*
X196280419Y-53719581D03*
X194000000Y-52775000D03*
X191719581Y-53719581D03*
X190775000Y-56000000D03*
X191719581Y-58280419D03*
X194000000Y-59225000D03*
X196280419Y-58280419D03*
X197225000Y-56000000D03*
D17*
X194000000Y-56000000D03*
D16*
X108280419Y-96719581D03*
X106000000Y-95775000D03*
X103719581Y-96719581D03*
X102775000Y-99000000D03*
X103719581Y-101280419D03*
X106000000Y-102225000D03*
X108280419Y-101280419D03*
X109225000Y-99000000D03*
D17*
X106000000Y-99000000D03*
D16*
X196280419Y-96719581D03*
X194000000Y-95775000D03*
X191719581Y-96719581D03*
X190775000Y-99000000D03*
X191719581Y-101280419D03*
X194000000Y-102225000D03*
X196280419Y-101280419D03*
X197225000Y-99000000D03*
D17*
X194000000Y-99000000D03*
D18*
X131690000Y-89000000D03*
D19*
X129150000Y-89000000D03*
D20*
X148250000Y-93000000D03*
D21*
X138090000Y-93000000D03*
D22*
X184750000Y-44750000D03*
X183500000Y-83000000D03*
X186000000Y-84000000D03*
X152500000Y-80500000D03*
X155250000Y-82750000D03*
X158000000Y-82250000D03*
X173500000Y-83000000D03*
X181000000Y-84000000D03*
X178500000Y-83000000D03*
X171000000Y-84000000D03*
X168500000Y-83000000D03*
X163500000Y-83000000D03*
X176000000Y-84000000D03*
X166000000Y-84000000D03*
X161000000Y-84000000D03*
X130500000Y-70300000D03*
X173700000Y-74250000D03*
X178700000Y-73200000D03*
X172950000Y-63500000D03*
X178700000Y-63200000D03*
X151000000Y-66750000D03*
X151000000Y-76750000D03*
X153500000Y-67750000D03*
X153500000Y-57750000D03*
X147500000Y-58500000D03*
X142000000Y-57500000D03*
X157000000Y-66000000D03*
X162500000Y-66750000D03*
X157000000Y-76000000D03*
X162500000Y-76750000D03*
X142000000Y-67500000D03*
X147500000Y-68500000D03*
X152500000Y-95000000D03*
X142750000Y-63000000D03*
X142750000Y-62000000D03*
X142750000Y-72000000D03*
X142750000Y-73000000D03*
X161750000Y-72300000D03*
X161750000Y-71300000D03*
X161750000Y-62500000D03*
X161750000Y-61500000D03*
X130500000Y-60300000D03*
X140150000Y-63600000D03*
X140150000Y-73600000D03*
X164350000Y-70700000D03*
X164350000Y-60900000D03*
X166750000Y-61000000D03*
X169250000Y-61000000D03*
X166750000Y-63500000D03*
X169250000Y-63500000D03*
X169250000Y-73500000D03*
X169250000Y-71000000D03*
X166750000Y-71000000D03*
X166750000Y-73500000D03*
X135250000Y-71000000D03*
X135250000Y-73500000D03*
X137750000Y-73500000D03*
X137750000Y-71000000D03*
X135250000Y-61000000D03*
X135250000Y-63500000D03*
X137750000Y-63500000D03*
X137750000Y-61000000D03*
X156500000Y-45750000D03*
X148000000Y-45750000D03*
X132647619Y-43485000D03*
X134647619Y-45485000D03*
X136647619Y-43485000D03*
X136647619Y-47485000D03*
X138647619Y-45485000D03*
X138647619Y-49485000D03*
X140647619Y-43485000D03*
X140647619Y-47485000D03*
X140647619Y-51485000D03*
X142647619Y-45485000D03*
X142647619Y-49485000D03*
X142647619Y-53485000D03*
X144647619Y-43485000D03*
X144647619Y-47485000D03*
X144647619Y-51485000D03*
X146647619Y-49485000D03*
X146647619Y-53485000D03*
X148647619Y-51485000D03*
X156647619Y-48485000D03*
X159647619Y-43485000D03*
X159647619Y-47485000D03*
X161000000Y-45485000D03*
X162647619Y-48485000D03*
X163647619Y-43485000D03*
X164647619Y-46485000D03*
X166647619Y-48485000D03*
X168647619Y-46485000D03*
X170647619Y-48485000D03*
X176000000Y-48000000D03*
X173647619Y-47485000D03*
X173000000Y-49000000D03*
X182647619Y-49485000D03*
X183647619Y-46485000D03*
X185647619Y-48485000D03*
X186647619Y-43485000D03*
X186000000Y-55000000D03*
X188000000Y-52000000D03*
X150000000Y-55000000D03*
X140000000Y-54000000D03*
X136000000Y-50000000D03*
X133000000Y-47000000D03*
X138000000Y-52000000D03*
X112500000Y-80000000D03*
X115000000Y-81000000D03*
X117500000Y-80000000D03*
X120000000Y-81000000D03*
X122500000Y-80000000D03*
X125000000Y-81000000D03*
X127500000Y-80000000D03*
X130000000Y-81000000D03*
X132500000Y-80000000D03*
X135000000Y-81000000D03*
X137500000Y-80000000D03*
X140000000Y-81000000D03*
X142500000Y-80000000D03*
X145000000Y-81000000D03*
X147500000Y-80000000D03*
X150000000Y-81250000D03*
X180500000Y-51500000D03*
X181500000Y-55000000D03*
X178250000Y-55000000D03*
X176750000Y-53500000D03*
X173500000Y-53750000D03*
X175250000Y-55250000D03*
X171750000Y-55000000D03*
X170500000Y-53750000D03*
X168250000Y-55000000D03*
X166250000Y-53750000D03*
X163250000Y-55000000D03*
X161750000Y-53750000D03*
X159750000Y-55000000D03*
X157750000Y-53750000D03*
X156750000Y-55000000D03*
X154250000Y-54750000D03*
X155000000Y-53500000D03*
X141750000Y-55000000D03*
X148500000Y-55250000D03*
X144750000Y-54500000D03*
X155250000Y-42750000D03*
X154750000Y-47500000D03*
X167250000Y-43500000D03*
X171750000Y-43750000D03*
X174750000Y-45000000D03*
X187750000Y-47250000D03*
X111750000Y-51250000D03*
X114500000Y-51250000D03*
X117500000Y-51250000D03*
X120000000Y-51250000D03*
X122500000Y-51250000D03*
X124750000Y-51250000D03*
X127500000Y-51250000D03*
X130000000Y-51000000D03*
X131500000Y-49500000D03*
X109250000Y-61500000D03*
X108750000Y-63500000D03*
X109250000Y-65500000D03*
X108750000Y-67500000D03*
X109250000Y-69250000D03*
X108750000Y-71000000D03*
X109250000Y-72750000D03*
X108750000Y-74750000D03*
X109500000Y-76750000D03*
X108750000Y-78750000D03*
X110500000Y-80000000D03*
X109000000Y-81250000D03*
X112000000Y-81500000D03*
X125000000Y-72500000D03*
X125000000Y-62500000D03*
X175500000Y-45500000D03*
X127100000Y-71500000D03*
X177100000Y-73050000D03*
X176350000Y-62300000D03*
X127100000Y-61500000D03*
X142500000Y-96250000D03*
X143000000Y-97000000D03*
X143000000Y-98000000D03*
X142500000Y-98750000D03*
X133955900Y-66371500D03*
X133955900Y-67641500D03*
X170594100Y-67838700D03*
X170594100Y-66568700D03*
X133955900Y-56363900D03*
X133955900Y-57621200D03*
X170606800Y-77846300D03*
X170606800Y-76550900D03*
X170250000Y-92000000D03*
X170250000Y-88500000D03*
X171250000Y-88500000D03*
X171250000Y-92000000D03*
D23*
G36*
X137858683Y-55703909D02*
G01*
X138181223Y-55724261D01*
X138496031Y-55779709D01*
X138802719Y-55869784D01*
X139097507Y-55993374D01*
X139376746Y-56148953D01*
X139636963Y-56334583D01*
X139877587Y-56550340D01*
X140984752Y-57660231D01*
X141012467Y-57799565D01*
X141089885Y-57986467D01*
X141202277Y-58154674D01*
X141345326Y-58297723D01*
X141513533Y-58410115D01*
X141700435Y-58487533D01*
X141845370Y-58516362D01*
X142037128Y-58688122D01*
X142048271Y-58697027D01*
X142322884Y-58892275D01*
X142334955Y-58899875D01*
X142629732Y-59063096D01*
X142642579Y-59069294D01*
X142953800Y-59198430D01*
X142967261Y-59203148D01*
X143291000Y-59296570D01*
X143304906Y-59299749D01*
X143637079Y-59356278D01*
X143651253Y-59357878D01*
X143987670Y-59376800D01*
X143994802Y-59377000D01*
X145495470Y-59377000D01*
X145766504Y-59396385D01*
X146027593Y-59453181D01*
X146277940Y-59546556D01*
X146512445Y-59674605D01*
X146726338Y-59834724D01*
X146915276Y-60023662D01*
X147075395Y-60237555D01*
X147203444Y-60472060D01*
X147296819Y-60722407D01*
X147353615Y-60983496D01*
X147373000Y-61254530D01*
X147373000Y-61699017D01*
X147355143Y-61925915D01*
X147303176Y-62142372D01*
X147217986Y-62348038D01*
X147101680Y-62537832D01*
X146957106Y-62707106D01*
X146787832Y-62851680D01*
X146598038Y-62967986D01*
X146392372Y-63053176D01*
X146175915Y-63105143D01*
X145949017Y-63123000D01*
X145165128Y-63123000D01*
X145019549Y-63106597D01*
X144888040Y-63060581D01*
X144770070Y-62986455D01*
X144671545Y-62887930D01*
X144597419Y-62769960D01*
X144551403Y-62638451D01*
X144515397Y-62318890D01*
X144509069Y-62291164D01*
X144453600Y-62132642D01*
X144441261Y-62107019D01*
X144351908Y-61964815D01*
X144334177Y-61942580D01*
X144215420Y-61823823D01*
X144193185Y-61806092D01*
X144050981Y-61716739D01*
X144025358Y-61704400D01*
X143866836Y-61648931D01*
X143839110Y-61642603D01*
X143707433Y-61627767D01*
X143660115Y-61513533D01*
X143547723Y-61345326D01*
X143404674Y-61202277D01*
X143236467Y-61089885D01*
X143049565Y-61012467D01*
X142851151Y-60973000D01*
X142648849Y-60973000D01*
X142450435Y-61012467D01*
X142263533Y-61089885D01*
X142095326Y-61202277D01*
X141952277Y-61345326D01*
X141861553Y-61481104D01*
X141793823Y-61461591D01*
X141496172Y-61338300D01*
X141214219Y-61182471D01*
X140951484Y-60996049D01*
X140708607Y-60779001D01*
X139218483Y-59288877D01*
X139213306Y-59283983D01*
X138962455Y-59059809D01*
X138951320Y-59050930D01*
X138676947Y-58856251D01*
X138664888Y-58848674D01*
X138370443Y-58685940D01*
X138357612Y-58679760D01*
X138046797Y-58551017D01*
X138033354Y-58546314D01*
X137710080Y-58453180D01*
X137696195Y-58450010D01*
X137364526Y-58393657D01*
X137350374Y-58392063D01*
X137014480Y-58373200D01*
X137007359Y-58373000D01*
X136898228Y-58373000D01*
X136636805Y-58321000D01*
X136363195Y-58321000D01*
X136101772Y-58373000D01*
X134733483Y-58373000D01*
X134517143Y-58355973D01*
X134310987Y-58306480D01*
X134115106Y-58225343D01*
X133934340Y-58114570D01*
X133773123Y-57976877D01*
X133635430Y-57815660D01*
X133524657Y-57634894D01*
X133443520Y-57439013D01*
X133394027Y-57232857D01*
X133377394Y-57021528D01*
X133394053Y-56810859D01*
X133443604Y-56605460D01*
X133524821Y-56410399D01*
X133635687Y-56230523D01*
X133773444Y-56070309D01*
X133934669Y-55933734D01*
X134115351Y-55824197D01*
X134311008Y-55744414D01*
X134516768Y-55696375D01*
X134732532Y-55680911D01*
X137858683Y-55703909D01*
G37*
X137858683Y-55703909D02*
X138181223Y-55724261D01*
X138496031Y-55779709D01*
X138802719Y-55869784D01*
X139097507Y-55993374D01*
X139376746Y-56148953D01*
X139636963Y-56334583D01*
X139877587Y-56550340D01*
X140984752Y-57660231D01*
X141012467Y-57799565D01*
X141089885Y-57986467D01*
X141202277Y-58154674D01*
X141345326Y-58297723D01*
X141513533Y-58410115D01*
X141700435Y-58487533D01*
X141845370Y-58516362D01*
X142037128Y-58688122D01*
X142048271Y-58697027D01*
X142322884Y-58892275D01*
X142334955Y-58899875D01*
X142629732Y-59063096D01*
X142642579Y-59069294D01*
X142953800Y-59198430D01*
X142967261Y-59203148D01*
X143291000Y-59296570D01*
X143304906Y-59299749D01*
X143637079Y-59356278D01*
X143651253Y-59357878D01*
X143987670Y-59376800D01*
X143994802Y-59377000D01*
X145495470Y-59377000D01*
X145766504Y-59396385D01*
X146027593Y-59453181D01*
X146277940Y-59546556D01*
X146512445Y-59674605D01*
X146726338Y-59834724D01*
X146915276Y-60023662D01*
X147075395Y-60237555D01*
X147203444Y-60472060D01*
X147296819Y-60722407D01*
X147353615Y-60983496D01*
X147373000Y-61254530D01*
X147373000Y-61699017D01*
X147355143Y-61925915D01*
X147303176Y-62142372D01*
X147217986Y-62348038D01*
X147101680Y-62537832D01*
X146957106Y-62707106D01*
X146787832Y-62851680D01*
X146598038Y-62967986D01*
X146392372Y-63053176D01*
X146175915Y-63105143D01*
X145949017Y-63123000D01*
X145165128Y-63123000D01*
X145019549Y-63106597D01*
X144888040Y-63060581D01*
X144770070Y-62986455D01*
X144671545Y-62887930D01*
X144597419Y-62769960D01*
X144551403Y-62638451D01*
X144515397Y-62318890D01*
X144509069Y-62291164D01*
X144453600Y-62132642D01*
X144441261Y-62107019D01*
X144351908Y-61964815D01*
X144334177Y-61942580D01*
X144215420Y-61823823D01*
X144193185Y-61806092D01*
X144050981Y-61716739D01*
X144025358Y-61704400D01*
X143866836Y-61648931D01*
X143839110Y-61642603D01*
X143707433Y-61627767D01*
X143660115Y-61513533D01*
X143547723Y-61345326D01*
X143404674Y-61202277D01*
X143236467Y-61089885D01*
X143049565Y-61012467D01*
X142851151Y-60973000D01*
X142648849Y-60973000D01*
X142450435Y-61012467D01*
X142263533Y-61089885D01*
X142095326Y-61202277D01*
X141952277Y-61345326D01*
X141861553Y-61481104D01*
X141793823Y-61461591D01*
X141496172Y-61338300D01*
X141214219Y-61182471D01*
X140951484Y-60996049D01*
X140708607Y-60779001D01*
X139218483Y-59288877D01*
X139213306Y-59283983D01*
X138962455Y-59059809D01*
X138951320Y-59050930D01*
X138676947Y-58856251D01*
X138664888Y-58848674D01*
X138370443Y-58685940D01*
X138357612Y-58679760D01*
X138046797Y-58551017D01*
X138033354Y-58546314D01*
X137710080Y-58453180D01*
X137696195Y-58450010D01*
X137364526Y-58393657D01*
X137350374Y-58392063D01*
X137014480Y-58373200D01*
X137007359Y-58373000D01*
X136898228Y-58373000D01*
X136636805Y-58321000D01*
X136363195Y-58321000D01*
X136101772Y-58373000D01*
X134733483Y-58373000D01*
X134517143Y-58355973D01*
X134310987Y-58306480D01*
X134115106Y-58225343D01*
X133934340Y-58114570D01*
X133773123Y-57976877D01*
X133635430Y-57815660D01*
X133524657Y-57634894D01*
X133443520Y-57439013D01*
X133394027Y-57232857D01*
X133377394Y-57021528D01*
X133394053Y-56810859D01*
X133443604Y-56605460D01*
X133524821Y-56410399D01*
X133635687Y-56230523D01*
X133773444Y-56070309D01*
X133934669Y-55933734D01*
X134115351Y-55824197D01*
X134311008Y-55744414D01*
X134516768Y-55696375D01*
X134732532Y-55680911D01*
X137858683Y-55703909D01*
G36*
X159480451Y-61143403D02*
G01*
X159611960Y-61189419D01*
X159729930Y-61263545D01*
X159828455Y-61362070D01*
X159902581Y-61480040D01*
X159948597Y-61611549D01*
X159984603Y-61931110D01*
X159990931Y-61958836D01*
X160046400Y-62117358D01*
X160058739Y-62142981D01*
X160148092Y-62285185D01*
X160165823Y-62307420D01*
X160284580Y-62426177D01*
X160306815Y-62443908D01*
X160449019Y-62533261D01*
X160474642Y-62545600D01*
X160633164Y-62601069D01*
X160660890Y-62607397D01*
X160725695Y-62614699D01*
X160762467Y-62799565D01*
X160839885Y-62986467D01*
X160952277Y-63154674D01*
X161095326Y-63297723D01*
X161263533Y-63410115D01*
X161450435Y-63487533D01*
X161648849Y-63527000D01*
X161851151Y-63527000D01*
X162049565Y-63487533D01*
X162236467Y-63410115D01*
X162404674Y-63297723D01*
X162547723Y-63154674D01*
X162660115Y-62986467D01*
X162736885Y-62801129D01*
X163003828Y-62911700D01*
X163285781Y-63067529D01*
X163548516Y-63253951D01*
X163791393Y-63470999D01*
X165281517Y-64961123D01*
X165286694Y-64966017D01*
X165537545Y-65190191D01*
X165548680Y-65199070D01*
X165823053Y-65393749D01*
X165835112Y-65401326D01*
X166129557Y-65564060D01*
X166142388Y-65570240D01*
X166453203Y-65698983D01*
X166466646Y-65703686D01*
X166789920Y-65796820D01*
X166803805Y-65799990D01*
X167095148Y-65849491D01*
X167114564Y-65868907D01*
X167342062Y-66020916D01*
X167594844Y-66125622D01*
X167863195Y-66179000D01*
X168136805Y-66179000D01*
X168405156Y-66125622D01*
X168657938Y-66020916D01*
X168873324Y-65877000D01*
X169766517Y-65877000D01*
X169982857Y-65894027D01*
X170189013Y-65943520D01*
X170384894Y-66024657D01*
X170565660Y-66135430D01*
X170726877Y-66273123D01*
X170864570Y-66434340D01*
X170975343Y-66615106D01*
X171056480Y-66810987D01*
X171105973Y-67017143D01*
X171122606Y-67228472D01*
X171105947Y-67439141D01*
X171056396Y-67644540D01*
X170975179Y-67839601D01*
X170864313Y-68019477D01*
X170726556Y-68179691D01*
X170565331Y-68316266D01*
X170384649Y-68425803D01*
X170188992Y-68505586D01*
X169983232Y-68553625D01*
X169767468Y-68569089D01*
X168781788Y-68561838D01*
X168657938Y-68479084D01*
X168405156Y-68374378D01*
X168136805Y-68321000D01*
X167863195Y-68321000D01*
X167594844Y-68374378D01*
X167342062Y-68479084D01*
X167235240Y-68550460D01*
X166641317Y-68546091D01*
X166318777Y-68525739D01*
X166003969Y-68470291D01*
X165697281Y-68380216D01*
X165402493Y-68256626D01*
X165123254Y-68101047D01*
X164863037Y-67915417D01*
X164622413Y-67699660D01*
X163515248Y-66589769D01*
X163487533Y-66450435D01*
X163410115Y-66263533D01*
X163297723Y-66095326D01*
X163154674Y-65952277D01*
X162986467Y-65839885D01*
X162799565Y-65762467D01*
X162654630Y-65733638D01*
X162462872Y-65561878D01*
X162451729Y-65552973D01*
X162177116Y-65357725D01*
X162165045Y-65350125D01*
X161870268Y-65186904D01*
X161857421Y-65180706D01*
X161546200Y-65051570D01*
X161532739Y-65046852D01*
X161209000Y-64953430D01*
X161195094Y-64950251D01*
X160862921Y-64893722D01*
X160848747Y-64892122D01*
X160512330Y-64873200D01*
X160505198Y-64873000D01*
X159004530Y-64873000D01*
X158733496Y-64853615D01*
X158472407Y-64796819D01*
X158222060Y-64703444D01*
X157987555Y-64575395D01*
X157773662Y-64415276D01*
X157584724Y-64226338D01*
X157424605Y-64012445D01*
X157296556Y-63777940D01*
X157203181Y-63527593D01*
X157146385Y-63266504D01*
X157127000Y-62995470D01*
X157127000Y-62550983D01*
X157144857Y-62324085D01*
X157196824Y-62107628D01*
X157282014Y-61901962D01*
X157398320Y-61712168D01*
X157542894Y-61542894D01*
X157712168Y-61398320D01*
X157901962Y-61282014D01*
X158107628Y-61196824D01*
X158324085Y-61144857D01*
X158550983Y-61127000D01*
X159334872Y-61127000D01*
X159480451Y-61143403D01*
G37*
X159480451Y-61143403D02*
X159611960Y-61189419D01*
X159729930Y-61263545D01*
X159828455Y-61362070D01*
X159902581Y-61480040D01*
X159948597Y-61611549D01*
X159984603Y-61931110D01*
X159990931Y-61958836D01*
X160046400Y-62117358D01*
X160058739Y-62142981D01*
X160148092Y-62285185D01*
X160165823Y-62307420D01*
X160284580Y-62426177D01*
X160306815Y-62443908D01*
X160449019Y-62533261D01*
X160474642Y-62545600D01*
X160633164Y-62601069D01*
X160660890Y-62607397D01*
X160725695Y-62614699D01*
X160762467Y-62799565D01*
X160839885Y-62986467D01*
X160952277Y-63154674D01*
X161095326Y-63297723D01*
X161263533Y-63410115D01*
X161450435Y-63487533D01*
X161648849Y-63527000D01*
X161851151Y-63527000D01*
X162049565Y-63487533D01*
X162236467Y-63410115D01*
X162404674Y-63297723D01*
X162547723Y-63154674D01*
X162660115Y-62986467D01*
X162736885Y-62801129D01*
X163003828Y-62911700D01*
X163285781Y-63067529D01*
X163548516Y-63253951D01*
X163791393Y-63470999D01*
X165281517Y-64961123D01*
X165286694Y-64966017D01*
X165537545Y-65190191D01*
X165548680Y-65199070D01*
X165823053Y-65393749D01*
X165835112Y-65401326D01*
X166129557Y-65564060D01*
X166142388Y-65570240D01*
X166453203Y-65698983D01*
X166466646Y-65703686D01*
X166789920Y-65796820D01*
X166803805Y-65799990D01*
X167095148Y-65849491D01*
X167114564Y-65868907D01*
X167342062Y-66020916D01*
X167594844Y-66125622D01*
X167863195Y-66179000D01*
X168136805Y-66179000D01*
X168405156Y-66125622D01*
X168657938Y-66020916D01*
X168873324Y-65877000D01*
X169766517Y-65877000D01*
X169982857Y-65894027D01*
X170189013Y-65943520D01*
X170384894Y-66024657D01*
X170565660Y-66135430D01*
X170726877Y-66273123D01*
X170864570Y-66434340D01*
X170975343Y-66615106D01*
X171056480Y-66810987D01*
X171105973Y-67017143D01*
X171122606Y-67228472D01*
X171105947Y-67439141D01*
X171056396Y-67644540D01*
X170975179Y-67839601D01*
X170864313Y-68019477D01*
X170726556Y-68179691D01*
X170565331Y-68316266D01*
X170384649Y-68425803D01*
X170188992Y-68505586D01*
X169983232Y-68553625D01*
X169767468Y-68569089D01*
X168781788Y-68561838D01*
X168657938Y-68479084D01*
X168405156Y-68374378D01*
X168136805Y-68321000D01*
X167863195Y-68321000D01*
X167594844Y-68374378D01*
X167342062Y-68479084D01*
X167235240Y-68550460D01*
X166641317Y-68546091D01*
X166318777Y-68525739D01*
X166003969Y-68470291D01*
X165697281Y-68380216D01*
X165402493Y-68256626D01*
X165123254Y-68101047D01*
X164863037Y-67915417D01*
X164622413Y-67699660D01*
X163515248Y-66589769D01*
X163487533Y-66450435D01*
X163410115Y-66263533D01*
X163297723Y-66095326D01*
X163154674Y-65952277D01*
X162986467Y-65839885D01*
X162799565Y-65762467D01*
X162654630Y-65733638D01*
X162462872Y-65561878D01*
X162451729Y-65552973D01*
X162177116Y-65357725D01*
X162165045Y-65350125D01*
X161870268Y-65186904D01*
X161857421Y-65180706D01*
X161546200Y-65051570D01*
X161532739Y-65046852D01*
X161209000Y-64953430D01*
X161195094Y-64950251D01*
X160862921Y-64893722D01*
X160848747Y-64892122D01*
X160512330Y-64873200D01*
X160505198Y-64873000D01*
X159004530Y-64873000D01*
X158733496Y-64853615D01*
X158472407Y-64796819D01*
X158222060Y-64703444D01*
X157987555Y-64575395D01*
X157773662Y-64415276D01*
X157584724Y-64226338D01*
X157424605Y-64012445D01*
X157296556Y-63777940D01*
X157203181Y-63527593D01*
X157146385Y-63266504D01*
X157127000Y-62995470D01*
X157127000Y-62550983D01*
X157144857Y-62324085D01*
X157196824Y-62107628D01*
X157282014Y-61901962D01*
X157398320Y-61712168D01*
X157542894Y-61542894D01*
X157712168Y-61398320D01*
X157901962Y-61282014D01*
X158107628Y-61196824D01*
X158324085Y-61144857D01*
X158550983Y-61127000D01*
X159334872Y-61127000D01*
X159480451Y-61143403D01*
G36*
X159480451Y-71143403D02*
G01*
X159611960Y-71189419D01*
X159729930Y-71263545D01*
X159828455Y-71362070D01*
X159902581Y-71480040D01*
X159948597Y-71611549D01*
X159984603Y-71931110D01*
X159990931Y-71958836D01*
X160046400Y-72117358D01*
X160058739Y-72142981D01*
X160148092Y-72285185D01*
X160165823Y-72307420D01*
X160284580Y-72426177D01*
X160306815Y-72443908D01*
X160449019Y-72533261D01*
X160474642Y-72545600D01*
X160633164Y-72601069D01*
X160660890Y-72607397D01*
X160770843Y-72619786D01*
X160839885Y-72786467D01*
X160952277Y-72954674D01*
X161095326Y-73097723D01*
X161263533Y-73210115D01*
X161450435Y-73287533D01*
X161648849Y-73327000D01*
X161851151Y-73327000D01*
X162049565Y-73287533D01*
X162236467Y-73210115D01*
X162404674Y-73097723D01*
X162547723Y-72954674D01*
X162660115Y-72786467D01*
X162664307Y-72776346D01*
X162706177Y-72788409D01*
X163003828Y-72911700D01*
X163285781Y-73067529D01*
X163548516Y-73253951D01*
X163791393Y-73470999D01*
X165281517Y-74961123D01*
X165286694Y-74966017D01*
X165537545Y-75190191D01*
X165548680Y-75199070D01*
X165823053Y-75393749D01*
X165835112Y-75401326D01*
X166129557Y-75564060D01*
X166142388Y-75570240D01*
X166453203Y-75698983D01*
X166466646Y-75703686D01*
X166789920Y-75796820D01*
X166803805Y-75799990D01*
X167095148Y-75849491D01*
X167114564Y-75868907D01*
X167342062Y-76020916D01*
X167594844Y-76125622D01*
X167863195Y-76179000D01*
X168136805Y-76179000D01*
X168405156Y-76125622D01*
X168657938Y-76020916D01*
X168873324Y-75877000D01*
X169766517Y-75877000D01*
X169982857Y-75894027D01*
X170189013Y-75943520D01*
X170384894Y-76024657D01*
X170565660Y-76135430D01*
X170726877Y-76273123D01*
X170864570Y-76434340D01*
X170975343Y-76615106D01*
X171056480Y-76810987D01*
X171105973Y-77017143D01*
X171122606Y-77228472D01*
X171105947Y-77439141D01*
X171056396Y-77644540D01*
X170975179Y-77839601D01*
X170864313Y-78019477D01*
X170726556Y-78179691D01*
X170565331Y-78316266D01*
X170384649Y-78425803D01*
X170188992Y-78505586D01*
X169983232Y-78553625D01*
X169767468Y-78569089D01*
X166641317Y-78546091D01*
X166318777Y-78525739D01*
X166003969Y-78470291D01*
X165697281Y-78380216D01*
X165402493Y-78256626D01*
X165123254Y-78101047D01*
X164863037Y-77915417D01*
X164622413Y-77699660D01*
X163515248Y-76589769D01*
X163487533Y-76450435D01*
X163410115Y-76263533D01*
X163297723Y-76095326D01*
X163154674Y-75952277D01*
X162986467Y-75839885D01*
X162799565Y-75762467D01*
X162654630Y-75733638D01*
X162462872Y-75561878D01*
X162451729Y-75552973D01*
X162177116Y-75357725D01*
X162165045Y-75350125D01*
X161870268Y-75186904D01*
X161857421Y-75180706D01*
X161546200Y-75051570D01*
X161532739Y-75046852D01*
X161209000Y-74953430D01*
X161195094Y-74950251D01*
X160862921Y-74893722D01*
X160848747Y-74892122D01*
X160512330Y-74873200D01*
X160505198Y-74873000D01*
X159004530Y-74873000D01*
X158733496Y-74853615D01*
X158472407Y-74796819D01*
X158222060Y-74703444D01*
X157987555Y-74575395D01*
X157773662Y-74415276D01*
X157584724Y-74226338D01*
X157424605Y-74012445D01*
X157296556Y-73777940D01*
X157203181Y-73527593D01*
X157146385Y-73266504D01*
X157127000Y-72995470D01*
X157127000Y-72550983D01*
X157144857Y-72324085D01*
X157196824Y-72107628D01*
X157282014Y-71901962D01*
X157398320Y-71712168D01*
X157542894Y-71542894D01*
X157712168Y-71398320D01*
X157901962Y-71282014D01*
X158107628Y-71196824D01*
X158324085Y-71144857D01*
X158550983Y-71127000D01*
X159334872Y-71127000D01*
X159480451Y-71143403D01*
G37*
X159480451Y-71143403D02*
X159611960Y-71189419D01*
X159729930Y-71263545D01*
X159828455Y-71362070D01*
X159902581Y-71480040D01*
X159948597Y-71611549D01*
X159984603Y-71931110D01*
X159990931Y-71958836D01*
X160046400Y-72117358D01*
X160058739Y-72142981D01*
X160148092Y-72285185D01*
X160165823Y-72307420D01*
X160284580Y-72426177D01*
X160306815Y-72443908D01*
X160449019Y-72533261D01*
X160474642Y-72545600D01*
X160633164Y-72601069D01*
X160660890Y-72607397D01*
X160770843Y-72619786D01*
X160839885Y-72786467D01*
X160952277Y-72954674D01*
X161095326Y-73097723D01*
X161263533Y-73210115D01*
X161450435Y-73287533D01*
X161648849Y-73327000D01*
X161851151Y-73327000D01*
X162049565Y-73287533D01*
X162236467Y-73210115D01*
X162404674Y-73097723D01*
X162547723Y-72954674D01*
X162660115Y-72786467D01*
X162664307Y-72776346D01*
X162706177Y-72788409D01*
X163003828Y-72911700D01*
X163285781Y-73067529D01*
X163548516Y-73253951D01*
X163791393Y-73470999D01*
X165281517Y-74961123D01*
X165286694Y-74966017D01*
X165537545Y-75190191D01*
X165548680Y-75199070D01*
X165823053Y-75393749D01*
X165835112Y-75401326D01*
X166129557Y-75564060D01*
X166142388Y-75570240D01*
X166453203Y-75698983D01*
X166466646Y-75703686D01*
X166789920Y-75796820D01*
X166803805Y-75799990D01*
X167095148Y-75849491D01*
X167114564Y-75868907D01*
X167342062Y-76020916D01*
X167594844Y-76125622D01*
X167863195Y-76179000D01*
X168136805Y-76179000D01*
X168405156Y-76125622D01*
X168657938Y-76020916D01*
X168873324Y-75877000D01*
X169766517Y-75877000D01*
X169982857Y-75894027D01*
X170189013Y-75943520D01*
X170384894Y-76024657D01*
X170565660Y-76135430D01*
X170726877Y-76273123D01*
X170864570Y-76434340D01*
X170975343Y-76615106D01*
X171056480Y-76810987D01*
X171105973Y-77017143D01*
X171122606Y-77228472D01*
X171105947Y-77439141D01*
X171056396Y-77644540D01*
X170975179Y-77839601D01*
X170864313Y-78019477D01*
X170726556Y-78179691D01*
X170565331Y-78316266D01*
X170384649Y-78425803D01*
X170188992Y-78505586D01*
X169983232Y-78553625D01*
X169767468Y-78569089D01*
X166641317Y-78546091D01*
X166318777Y-78525739D01*
X166003969Y-78470291D01*
X165697281Y-78380216D01*
X165402493Y-78256626D01*
X165123254Y-78101047D01*
X164863037Y-77915417D01*
X164622413Y-77699660D01*
X163515248Y-76589769D01*
X163487533Y-76450435D01*
X163410115Y-76263533D01*
X163297723Y-76095326D01*
X163154674Y-75952277D01*
X162986467Y-75839885D01*
X162799565Y-75762467D01*
X162654630Y-75733638D01*
X162462872Y-75561878D01*
X162451729Y-75552973D01*
X162177116Y-75357725D01*
X162165045Y-75350125D01*
X161870268Y-75186904D01*
X161857421Y-75180706D01*
X161546200Y-75051570D01*
X161532739Y-75046852D01*
X161209000Y-74953430D01*
X161195094Y-74950251D01*
X160862921Y-74893722D01*
X160848747Y-74892122D01*
X160512330Y-74873200D01*
X160505198Y-74873000D01*
X159004530Y-74873000D01*
X158733496Y-74853615D01*
X158472407Y-74796819D01*
X158222060Y-74703444D01*
X157987555Y-74575395D01*
X157773662Y-74415276D01*
X157584724Y-74226338D01*
X157424605Y-74012445D01*
X157296556Y-73777940D01*
X157203181Y-73527593D01*
X157146385Y-73266504D01*
X157127000Y-72995470D01*
X157127000Y-72550983D01*
X157144857Y-72324085D01*
X157196824Y-72107628D01*
X157282014Y-71901962D01*
X157398320Y-71712168D01*
X157542894Y-71542894D01*
X157712168Y-71398320D01*
X157901962Y-71282014D01*
X158107628Y-71196824D01*
X158324085Y-71144857D01*
X158550983Y-71127000D01*
X159334872Y-71127000D01*
X159480451Y-71143403D01*
G36*
X135431476Y-65685819D02*
G01*
X135614564Y-65868907D01*
X135842062Y-66020916D01*
X136094844Y-66125622D01*
X136363195Y-66179000D01*
X136636805Y-66179000D01*
X136905156Y-66125622D01*
X137157938Y-66020916D01*
X137385436Y-65868907D01*
X137552917Y-65701426D01*
X137890424Y-65703909D01*
X138212964Y-65724261D01*
X138527772Y-65779709D01*
X138834460Y-65869784D01*
X139129248Y-65993374D01*
X139408487Y-66148953D01*
X139668704Y-66334583D01*
X139909328Y-66550340D01*
X140976846Y-67620487D01*
X141012467Y-67799565D01*
X141089885Y-67986467D01*
X141202277Y-68154674D01*
X141345326Y-68297723D01*
X141513533Y-68410115D01*
X141700435Y-68487533D01*
X141886172Y-68524478D01*
X142068869Y-68688122D01*
X142080012Y-68697027D01*
X142354625Y-68892275D01*
X142366696Y-68899875D01*
X142661473Y-69063096D01*
X142674320Y-69069294D01*
X142985541Y-69198430D01*
X142999002Y-69203148D01*
X143322741Y-69296570D01*
X143336647Y-69299749D01*
X143668820Y-69356278D01*
X143682994Y-69357878D01*
X144019411Y-69376800D01*
X144026543Y-69377000D01*
X145527211Y-69377000D01*
X145798245Y-69396385D01*
X146059334Y-69453181D01*
X146309681Y-69546556D01*
X146544186Y-69674605D01*
X146758079Y-69834724D01*
X146947017Y-70023662D01*
X147107136Y-70237555D01*
X147235185Y-70472060D01*
X147328560Y-70722407D01*
X147385356Y-70983496D01*
X147404741Y-71254530D01*
X147404741Y-71699017D01*
X147386884Y-71925915D01*
X147334917Y-72142372D01*
X147249727Y-72348038D01*
X147133421Y-72537832D01*
X146988847Y-72707106D01*
X146819573Y-72851680D01*
X146629779Y-72967986D01*
X146424113Y-73053176D01*
X146207656Y-73105143D01*
X145980758Y-73123000D01*
X145196869Y-73123000D01*
X145051290Y-73106597D01*
X144919781Y-73060581D01*
X144801811Y-72986455D01*
X144703286Y-72887930D01*
X144629160Y-72769960D01*
X144583144Y-72638451D01*
X144547138Y-72318890D01*
X144540810Y-72291164D01*
X144485341Y-72132642D01*
X144473002Y-72107019D01*
X144383649Y-71964815D01*
X144365918Y-71942580D01*
X144247161Y-71823823D01*
X144224926Y-71806092D01*
X144082722Y-71716739D01*
X144057099Y-71704400D01*
X143898577Y-71648931D01*
X143870851Y-71642603D01*
X143705879Y-71624015D01*
X143660115Y-71513533D01*
X143547723Y-71345326D01*
X143404674Y-71202277D01*
X143236467Y-71089885D01*
X143049565Y-71012467D01*
X142851151Y-70973000D01*
X142648849Y-70973000D01*
X142450435Y-71012467D01*
X142263533Y-71089885D01*
X142095326Y-71202277D01*
X141952277Y-71345326D01*
X141866677Y-71473436D01*
X141825564Y-71461591D01*
X141527913Y-71338300D01*
X141245960Y-71182471D01*
X140983225Y-70996049D01*
X140740348Y-70779001D01*
X139250224Y-69288877D01*
X139245047Y-69283983D01*
X138994196Y-69059809D01*
X138983061Y-69050930D01*
X138708688Y-68856251D01*
X138696629Y-68848674D01*
X138402184Y-68685940D01*
X138389353Y-68679760D01*
X138078538Y-68551017D01*
X138065095Y-68546314D01*
X137741821Y-68453180D01*
X137727936Y-68450010D01*
X137396267Y-68393657D01*
X137382115Y-68392063D01*
X137046221Y-68373200D01*
X137039100Y-68373000D01*
X136898228Y-68373000D01*
X136636805Y-68321000D01*
X136363195Y-68321000D01*
X136101772Y-68373000D01*
X134765224Y-68373000D01*
X134548884Y-68355973D01*
X134342728Y-68306480D01*
X134146847Y-68225343D01*
X133966081Y-68114570D01*
X133804864Y-67976877D01*
X133667171Y-67815660D01*
X133556398Y-67634894D01*
X133475261Y-67439013D01*
X133425768Y-67232857D01*
X133409135Y-67021528D01*
X133425794Y-66810859D01*
X133475345Y-66605460D01*
X133556562Y-66410399D01*
X133667428Y-66230523D01*
X133805185Y-66070309D01*
X133966410Y-65933734D01*
X134147092Y-65824197D01*
X134342749Y-65744414D01*
X134548509Y-65696375D01*
X134764273Y-65680911D01*
X135431476Y-65685819D01*
G37*
X135431476Y-65685819D02*
X135614564Y-65868907D01*
X135842062Y-66020916D01*
X136094844Y-66125622D01*
X136363195Y-66179000D01*
X136636805Y-66179000D01*
X136905156Y-66125622D01*
X137157938Y-66020916D01*
X137385436Y-65868907D01*
X137552917Y-65701426D01*
X137890424Y-65703909D01*
X138212964Y-65724261D01*
X138527772Y-65779709D01*
X138834460Y-65869784D01*
X139129248Y-65993374D01*
X139408487Y-66148953D01*
X139668704Y-66334583D01*
X139909328Y-66550340D01*
X140976846Y-67620487D01*
X141012467Y-67799565D01*
X141089885Y-67986467D01*
X141202277Y-68154674D01*
X141345326Y-68297723D01*
X141513533Y-68410115D01*
X141700435Y-68487533D01*
X141886172Y-68524478D01*
X142068869Y-68688122D01*
X142080012Y-68697027D01*
X142354625Y-68892275D01*
X142366696Y-68899875D01*
X142661473Y-69063096D01*
X142674320Y-69069294D01*
X142985541Y-69198430D01*
X142999002Y-69203148D01*
X143322741Y-69296570D01*
X143336647Y-69299749D01*
X143668820Y-69356278D01*
X143682994Y-69357878D01*
X144019411Y-69376800D01*
X144026543Y-69377000D01*
X145527211Y-69377000D01*
X145798245Y-69396385D01*
X146059334Y-69453181D01*
X146309681Y-69546556D01*
X146544186Y-69674605D01*
X146758079Y-69834724D01*
X146947017Y-70023662D01*
X147107136Y-70237555D01*
X147235185Y-70472060D01*
X147328560Y-70722407D01*
X147385356Y-70983496D01*
X147404741Y-71254530D01*
X147404741Y-71699017D01*
X147386884Y-71925915D01*
X147334917Y-72142372D01*
X147249727Y-72348038D01*
X147133421Y-72537832D01*
X146988847Y-72707106D01*
X146819573Y-72851680D01*
X146629779Y-72967986D01*
X146424113Y-73053176D01*
X146207656Y-73105143D01*
X145980758Y-73123000D01*
X145196869Y-73123000D01*
X145051290Y-73106597D01*
X144919781Y-73060581D01*
X144801811Y-72986455D01*
X144703286Y-72887930D01*
X144629160Y-72769960D01*
X144583144Y-72638451D01*
X144547138Y-72318890D01*
X144540810Y-72291164D01*
X144485341Y-72132642D01*
X144473002Y-72107019D01*
X144383649Y-71964815D01*
X144365918Y-71942580D01*
X144247161Y-71823823D01*
X144224926Y-71806092D01*
X144082722Y-71716739D01*
X144057099Y-71704400D01*
X143898577Y-71648931D01*
X143870851Y-71642603D01*
X143705879Y-71624015D01*
X143660115Y-71513533D01*
X143547723Y-71345326D01*
X143404674Y-71202277D01*
X143236467Y-71089885D01*
X143049565Y-71012467D01*
X142851151Y-70973000D01*
X142648849Y-70973000D01*
X142450435Y-71012467D01*
X142263533Y-71089885D01*
X142095326Y-71202277D01*
X141952277Y-71345326D01*
X141866677Y-71473436D01*
X141825564Y-71461591D01*
X141527913Y-71338300D01*
X141245960Y-71182471D01*
X140983225Y-70996049D01*
X140740348Y-70779001D01*
X139250224Y-69288877D01*
X139245047Y-69283983D01*
X138994196Y-69059809D01*
X138983061Y-69050930D01*
X138708688Y-68856251D01*
X138696629Y-68848674D01*
X138402184Y-68685940D01*
X138389353Y-68679760D01*
X138078538Y-68551017D01*
X138065095Y-68546314D01*
X137741821Y-68453180D01*
X137727936Y-68450010D01*
X137396267Y-68393657D01*
X137382115Y-68392063D01*
X137046221Y-68373200D01*
X137039100Y-68373000D01*
X136898228Y-68373000D01*
X136636805Y-68321000D01*
X136363195Y-68321000D01*
X136101772Y-68373000D01*
X134765224Y-68373000D01*
X134548884Y-68355973D01*
X134342728Y-68306480D01*
X134146847Y-68225343D01*
X133966081Y-68114570D01*
X133804864Y-67976877D01*
X133667171Y-67815660D01*
X133556398Y-67634894D01*
X133475261Y-67439013D01*
X133425768Y-67232857D01*
X133409135Y-67021528D01*
X133425794Y-66810859D01*
X133475345Y-66605460D01*
X133556562Y-66410399D01*
X133667428Y-66230523D01*
X133805185Y-66070309D01*
X133966410Y-65933734D01*
X134147092Y-65824197D01*
X134342749Y-65744414D01*
X134548509Y-65696375D01*
X134764273Y-65680911D01*
X135431476Y-65685819D01*
G36*
X126266504Y-60146385D02*
G01*
X126527593Y-60203181D01*
X126777940Y-60296556D01*
X127012445Y-60424605D01*
X127226338Y-60584724D01*
X127415276Y-60773662D01*
X127575395Y-60987555D01*
X127703444Y-61222060D01*
X127796819Y-61472407D01*
X127853615Y-61733496D01*
X127873000Y-62004530D01*
X127873000Y-62993766D01*
X127855624Y-63170189D01*
X127805978Y-63333850D01*
X127725362Y-63484672D01*
X127616870Y-63616870D01*
X127484672Y-63725362D01*
X127333850Y-63805978D01*
X127170189Y-63855624D01*
X126792462Y-63892827D01*
X126768044Y-63897683D01*
X126580451Y-63954588D01*
X126557450Y-63964116D01*
X126384563Y-64056526D01*
X126363862Y-64070358D01*
X126212325Y-64194721D01*
X126194721Y-64212325D01*
X126070358Y-64363862D01*
X126056526Y-64384563D01*
X125964116Y-64557450D01*
X125954588Y-64580451D01*
X125897683Y-64768044D01*
X125892827Y-64792462D01*
X125873612Y-64987552D01*
X125873000Y-65000000D01*
X125873000Y-67000000D01*
X125873200Y-67007121D01*
X125892063Y-67343014D01*
X125893657Y-67357166D01*
X125950010Y-67688836D01*
X125953180Y-67702721D01*
X126046314Y-68025995D01*
X126051017Y-68039438D01*
X126179760Y-68350252D01*
X126185940Y-68363083D01*
X126348674Y-68657528D01*
X126356251Y-68669587D01*
X126550930Y-68943960D01*
X126559809Y-68955095D01*
X126783983Y-69205946D01*
X126794054Y-69216017D01*
X127044905Y-69440191D01*
X127056040Y-69449070D01*
X127330413Y-69643749D01*
X127342472Y-69651326D01*
X127636917Y-69814060D01*
X127649748Y-69820240D01*
X127960562Y-69948983D01*
X127974005Y-69953686D01*
X128297279Y-70046820D01*
X128311164Y-70049990D01*
X128642834Y-70106343D01*
X128656986Y-70107937D01*
X128992879Y-70126800D01*
X129000000Y-70127000D01*
X129487292Y-70127000D01*
X129473000Y-70198849D01*
X129473000Y-70401151D01*
X129512467Y-70599565D01*
X129589885Y-70786467D01*
X129702277Y-70954674D01*
X129845326Y-71097723D01*
X130013533Y-71210115D01*
X130200435Y-71287533D01*
X130398849Y-71327000D01*
X130601151Y-71327000D01*
X130799565Y-71287533D01*
X130986467Y-71210115D01*
X131154674Y-71097723D01*
X131297723Y-70954674D01*
X131410115Y-70786467D01*
X131487533Y-70599565D01*
X131527000Y-70401151D01*
X131527000Y-70320793D01*
X131746468Y-70411700D01*
X132028421Y-70567529D01*
X132291156Y-70753951D01*
X132531376Y-70968624D01*
X132746049Y-71208844D01*
X132932471Y-71471579D01*
X133088300Y-71753532D01*
X133211591Y-72051182D01*
X133300772Y-72360734D01*
X133354737Y-72678354D01*
X133373000Y-73003560D01*
X133373000Y-79457986D01*
X133297723Y-79345326D01*
X133154674Y-79202277D01*
X132986467Y-79089885D01*
X132799565Y-79012467D01*
X132601151Y-78973000D01*
X132398849Y-78973000D01*
X132200435Y-79012467D01*
X132013533Y-79089885D01*
X131845326Y-79202277D01*
X131702277Y-79345326D01*
X131589885Y-79513533D01*
X131512467Y-79700435D01*
X131473000Y-79898849D01*
X131473000Y-80101151D01*
X131512467Y-80299565D01*
X131589885Y-80486467D01*
X131702277Y-80654674D01*
X131845326Y-80797723D01*
X132013533Y-80910115D01*
X132200435Y-80987533D01*
X132398849Y-81027000D01*
X132601151Y-81027000D01*
X132799565Y-80987533D01*
X132986467Y-80910115D01*
X133154674Y-80797723D01*
X133295770Y-80656627D01*
X133211591Y-80948818D01*
X133088300Y-81246468D01*
X132932471Y-81528421D01*
X132746049Y-81791156D01*
X132531376Y-82031376D01*
X132291156Y-82246049D01*
X132028421Y-82432471D01*
X131746468Y-82588300D01*
X131448818Y-82711591D01*
X131139266Y-82800772D01*
X130821646Y-82854737D01*
X130496440Y-82873000D01*
X124503560Y-82873000D01*
X124178354Y-82854737D01*
X123860734Y-82800772D01*
X123551182Y-82711591D01*
X123253532Y-82588300D01*
X122971579Y-82432471D01*
X122708844Y-82246049D01*
X122468624Y-82031376D01*
X122253951Y-81791156D01*
X122067529Y-81528421D01*
X121911700Y-81246468D01*
X121788409Y-80948818D01*
X121704230Y-80656627D01*
X121845326Y-80797723D01*
X122013533Y-80910115D01*
X122200435Y-80987533D01*
X122398849Y-81027000D01*
X122601151Y-81027000D01*
X122799565Y-80987533D01*
X122986467Y-80910115D01*
X123003327Y-80898849D01*
X123973000Y-80898849D01*
X123973000Y-81101151D01*
X124012467Y-81299565D01*
X124089885Y-81486467D01*
X124202277Y-81654674D01*
X124345326Y-81797723D01*
X124513533Y-81910115D01*
X124700435Y-81987533D01*
X124898849Y-82027000D01*
X125101151Y-82027000D01*
X125299565Y-81987533D01*
X125486467Y-81910115D01*
X125654674Y-81797723D01*
X125797723Y-81654674D01*
X125910115Y-81486467D01*
X125987533Y-81299565D01*
X126027000Y-81101151D01*
X126027000Y-80898849D01*
X125987533Y-80700435D01*
X125910115Y-80513533D01*
X125797723Y-80345326D01*
X125654674Y-80202277D01*
X125486467Y-80089885D01*
X125299565Y-80012467D01*
X125101151Y-79973000D01*
X124898849Y-79973000D01*
X124700435Y-80012467D01*
X124513533Y-80089885D01*
X124345326Y-80202277D01*
X124202277Y-80345326D01*
X124089885Y-80513533D01*
X124012467Y-80700435D01*
X123973000Y-80898849D01*
X123003327Y-80898849D01*
X123154674Y-80797723D01*
X123297723Y-80654674D01*
X123410115Y-80486467D01*
X123487533Y-80299565D01*
X123527000Y-80101151D01*
X123527000Y-79898849D01*
X126473000Y-79898849D01*
X126473000Y-80101151D01*
X126512467Y-80299565D01*
X126589885Y-80486467D01*
X126702277Y-80654674D01*
X126845326Y-80797723D01*
X127013533Y-80910115D01*
X127200435Y-80987533D01*
X127398849Y-81027000D01*
X127601151Y-81027000D01*
X127799565Y-80987533D01*
X127986467Y-80910115D01*
X128003327Y-80898849D01*
X128973000Y-80898849D01*
X128973000Y-81101151D01*
X129012467Y-81299565D01*
X129089885Y-81486467D01*
X129202277Y-81654674D01*
X129345326Y-81797723D01*
X129513533Y-81910115D01*
X129700435Y-81987533D01*
X129898849Y-82027000D01*
X130101151Y-82027000D01*
X130299565Y-81987533D01*
X130486467Y-81910115D01*
X130654674Y-81797723D01*
X130797723Y-81654674D01*
X130910115Y-81486467D01*
X130987533Y-81299565D01*
X131027000Y-81101151D01*
X131027000Y-80898849D01*
X130987533Y-80700435D01*
X130910115Y-80513533D01*
X130797723Y-80345326D01*
X130654674Y-80202277D01*
X130486467Y-80089885D01*
X130299565Y-80012467D01*
X130101151Y-79973000D01*
X129898849Y-79973000D01*
X129700435Y-80012467D01*
X129513533Y-80089885D01*
X129345326Y-80202277D01*
X129202277Y-80345326D01*
X129089885Y-80513533D01*
X129012467Y-80700435D01*
X128973000Y-80898849D01*
X128003327Y-80898849D01*
X128154674Y-80797723D01*
X128297723Y-80654674D01*
X128410115Y-80486467D01*
X128487533Y-80299565D01*
X128527000Y-80101151D01*
X128527000Y-79898849D01*
X128487533Y-79700435D01*
X128410115Y-79513533D01*
X128297723Y-79345326D01*
X128154674Y-79202277D01*
X127986467Y-79089885D01*
X127799565Y-79012467D01*
X127601151Y-78973000D01*
X127398849Y-78973000D01*
X127200435Y-79012467D01*
X127013533Y-79089885D01*
X126845326Y-79202277D01*
X126702277Y-79345326D01*
X126589885Y-79513533D01*
X126512467Y-79700435D01*
X126473000Y-79898849D01*
X123527000Y-79898849D01*
X123487533Y-79700435D01*
X123410115Y-79513533D01*
X123297723Y-79345326D01*
X123154674Y-79202277D01*
X122986467Y-79089885D01*
X122799565Y-79012467D01*
X122601151Y-78973000D01*
X122398849Y-78973000D01*
X122200435Y-79012467D01*
X122013533Y-79089885D01*
X121845326Y-79202277D01*
X121702277Y-79345326D01*
X121627000Y-79457986D01*
X121627000Y-72398849D01*
X123973000Y-72398849D01*
X123973000Y-72601151D01*
X124012467Y-72799565D01*
X124089885Y-72986467D01*
X124202277Y-73154674D01*
X124345326Y-73297723D01*
X124513533Y-73410115D01*
X124700435Y-73487533D01*
X124898849Y-73527000D01*
X125101151Y-73527000D01*
X125299565Y-73487533D01*
X125486467Y-73410115D01*
X125654674Y-73297723D01*
X125797723Y-73154674D01*
X125910115Y-72986467D01*
X125987533Y-72799565D01*
X126027000Y-72601151D01*
X126027000Y-72398849D01*
X125987533Y-72200435D01*
X125910115Y-72013533D01*
X125797723Y-71845326D01*
X125654674Y-71702277D01*
X125486467Y-71589885D01*
X125299565Y-71512467D01*
X125101151Y-71473000D01*
X124898849Y-71473000D01*
X124700435Y-71512467D01*
X124513533Y-71589885D01*
X124345326Y-71702277D01*
X124202277Y-71845326D01*
X124089885Y-72013533D01*
X124012467Y-72200435D01*
X123973000Y-72398849D01*
X121627000Y-72398849D01*
X121627000Y-63003560D01*
X121645263Y-62678354D01*
X121692752Y-62398849D01*
X123973000Y-62398849D01*
X123973000Y-62601151D01*
X124012467Y-62799565D01*
X124089885Y-62986467D01*
X124202277Y-63154674D01*
X124345326Y-63297723D01*
X124513533Y-63410115D01*
X124700435Y-63487533D01*
X124898849Y-63527000D01*
X125101151Y-63527000D01*
X125299565Y-63487533D01*
X125486467Y-63410115D01*
X125654674Y-63297723D01*
X125797723Y-63154674D01*
X125910115Y-62986467D01*
X125987533Y-62799565D01*
X126027000Y-62601151D01*
X126027000Y-62398849D01*
X125987533Y-62200435D01*
X125910115Y-62013533D01*
X125797723Y-61845326D01*
X125654674Y-61702277D01*
X125486467Y-61589885D01*
X125299565Y-61512467D01*
X125101151Y-61473000D01*
X124898849Y-61473000D01*
X124700435Y-61512467D01*
X124513533Y-61589885D01*
X124345326Y-61702277D01*
X124202277Y-61845326D01*
X124089885Y-62013533D01*
X124012467Y-62200435D01*
X123973000Y-62398849D01*
X121692752Y-62398849D01*
X121699228Y-62360734D01*
X121788409Y-62051182D01*
X121911700Y-61753532D01*
X122067529Y-61471579D01*
X122253951Y-61208844D01*
X122468624Y-60968624D01*
X122708844Y-60753951D01*
X122971579Y-60567529D01*
X123253532Y-60411700D01*
X123551182Y-60288409D01*
X123860734Y-60199228D01*
X124178354Y-60145263D01*
X124503560Y-60127000D01*
X125995470Y-60127000D01*
X126266504Y-60146385D01*
G37*
X126266504Y-60146385D02*
X126527593Y-60203181D01*
X126777940Y-60296556D01*
X127012445Y-60424605D01*
X127226338Y-60584724D01*
X127415276Y-60773662D01*
X127575395Y-60987555D01*
X127703444Y-61222060D01*
X127796819Y-61472407D01*
X127853615Y-61733496D01*
X127873000Y-62004530D01*
X127873000Y-62993766D01*
X127855624Y-63170189D01*
X127805978Y-63333850D01*
X127725362Y-63484672D01*
X127616870Y-63616870D01*
X127484672Y-63725362D01*
X127333850Y-63805978D01*
X127170189Y-63855624D01*
X126792462Y-63892827D01*
X126768044Y-63897683D01*
X126580451Y-63954588D01*
X126557450Y-63964116D01*
X126384563Y-64056526D01*
X126363862Y-64070358D01*
X126212325Y-64194721D01*
X126194721Y-64212325D01*
X126070358Y-64363862D01*
X126056526Y-64384563D01*
X125964116Y-64557450D01*
X125954588Y-64580451D01*
X125897683Y-64768044D01*
X125892827Y-64792462D01*
X125873612Y-64987552D01*
X125873000Y-65000000D01*
X125873000Y-67000000D01*
X125873200Y-67007121D01*
X125892063Y-67343014D01*
X125893657Y-67357166D01*
X125950010Y-67688836D01*
X125953180Y-67702721D01*
X126046314Y-68025995D01*
X126051017Y-68039438D01*
X126179760Y-68350252D01*
X126185940Y-68363083D01*
X126348674Y-68657528D01*
X126356251Y-68669587D01*
X126550930Y-68943960D01*
X126559809Y-68955095D01*
X126783983Y-69205946D01*
X126794054Y-69216017D01*
X127044905Y-69440191D01*
X127056040Y-69449070D01*
X127330413Y-69643749D01*
X127342472Y-69651326D01*
X127636917Y-69814060D01*
X127649748Y-69820240D01*
X127960562Y-69948983D01*
X127974005Y-69953686D01*
X128297279Y-70046820D01*
X128311164Y-70049990D01*
X128642834Y-70106343D01*
X128656986Y-70107937D01*
X128992879Y-70126800D01*
X129000000Y-70127000D01*
X129487292Y-70127000D01*
X129473000Y-70198849D01*
X129473000Y-70401151D01*
X129512467Y-70599565D01*
X129589885Y-70786467D01*
X129702277Y-70954674D01*
X129845326Y-71097723D01*
X130013533Y-71210115D01*
X130200435Y-71287533D01*
X130398849Y-71327000D01*
X130601151Y-71327000D01*
X130799565Y-71287533D01*
X130986467Y-71210115D01*
X131154674Y-71097723D01*
X131297723Y-70954674D01*
X131410115Y-70786467D01*
X131487533Y-70599565D01*
X131527000Y-70401151D01*
X131527000Y-70320793D01*
X131746468Y-70411700D01*
X132028421Y-70567529D01*
X132291156Y-70753951D01*
X132531376Y-70968624D01*
X132746049Y-71208844D01*
X132932471Y-71471579D01*
X133088300Y-71753532D01*
X133211591Y-72051182D01*
X133300772Y-72360734D01*
X133354737Y-72678354D01*
X133373000Y-73003560D01*
X133373000Y-79457986D01*
X133297723Y-79345326D01*
X133154674Y-79202277D01*
X132986467Y-79089885D01*
X132799565Y-79012467D01*
X132601151Y-78973000D01*
X132398849Y-78973000D01*
X132200435Y-79012467D01*
X132013533Y-79089885D01*
X131845326Y-79202277D01*
X131702277Y-79345326D01*
X131589885Y-79513533D01*
X131512467Y-79700435D01*
X131473000Y-79898849D01*
X131473000Y-80101151D01*
X131512467Y-80299565D01*
X131589885Y-80486467D01*
X131702277Y-80654674D01*
X131845326Y-80797723D01*
X132013533Y-80910115D01*
X132200435Y-80987533D01*
X132398849Y-81027000D01*
X132601151Y-81027000D01*
X132799565Y-80987533D01*
X132986467Y-80910115D01*
X133154674Y-80797723D01*
X133295770Y-80656627D01*
X133211591Y-80948818D01*
X133088300Y-81246468D01*
X132932471Y-81528421D01*
X132746049Y-81791156D01*
X132531376Y-82031376D01*
X132291156Y-82246049D01*
X132028421Y-82432471D01*
X131746468Y-82588300D01*
X131448818Y-82711591D01*
X131139266Y-82800772D01*
X130821646Y-82854737D01*
X130496440Y-82873000D01*
X124503560Y-82873000D01*
X124178354Y-82854737D01*
X123860734Y-82800772D01*
X123551182Y-82711591D01*
X123253532Y-82588300D01*
X122971579Y-82432471D01*
X122708844Y-82246049D01*
X122468624Y-82031376D01*
X122253951Y-81791156D01*
X122067529Y-81528421D01*
X121911700Y-81246468D01*
X121788409Y-80948818D01*
X121704230Y-80656627D01*
X121845326Y-80797723D01*
X122013533Y-80910115D01*
X122200435Y-80987533D01*
X122398849Y-81027000D01*
X122601151Y-81027000D01*
X122799565Y-80987533D01*
X122986467Y-80910115D01*
X123003327Y-80898849D01*
X123973000Y-80898849D01*
X123973000Y-81101151D01*
X124012467Y-81299565D01*
X124089885Y-81486467D01*
X124202277Y-81654674D01*
X124345326Y-81797723D01*
X124513533Y-81910115D01*
X124700435Y-81987533D01*
X124898849Y-82027000D01*
X125101151Y-82027000D01*
X125299565Y-81987533D01*
X125486467Y-81910115D01*
X125654674Y-81797723D01*
X125797723Y-81654674D01*
X125910115Y-81486467D01*
X125987533Y-81299565D01*
X126027000Y-81101151D01*
X126027000Y-80898849D01*
X125987533Y-80700435D01*
X125910115Y-80513533D01*
X125797723Y-80345326D01*
X125654674Y-80202277D01*
X125486467Y-80089885D01*
X125299565Y-80012467D01*
X125101151Y-79973000D01*
X124898849Y-79973000D01*
X124700435Y-80012467D01*
X124513533Y-80089885D01*
X124345326Y-80202277D01*
X124202277Y-80345326D01*
X124089885Y-80513533D01*
X124012467Y-80700435D01*
X123973000Y-80898849D01*
X123003327Y-80898849D01*
X123154674Y-80797723D01*
X123297723Y-80654674D01*
X123410115Y-80486467D01*
X123487533Y-80299565D01*
X123527000Y-80101151D01*
X123527000Y-79898849D01*
X126473000Y-79898849D01*
X126473000Y-80101151D01*
X126512467Y-80299565D01*
X126589885Y-80486467D01*
X126702277Y-80654674D01*
X126845326Y-80797723D01*
X127013533Y-80910115D01*
X127200435Y-80987533D01*
X127398849Y-81027000D01*
X127601151Y-81027000D01*
X127799565Y-80987533D01*
X127986467Y-80910115D01*
X128003327Y-80898849D01*
X128973000Y-80898849D01*
X128973000Y-81101151D01*
X129012467Y-81299565D01*
X129089885Y-81486467D01*
X129202277Y-81654674D01*
X129345326Y-81797723D01*
X129513533Y-81910115D01*
X129700435Y-81987533D01*
X129898849Y-82027000D01*
X130101151Y-82027000D01*
X130299565Y-81987533D01*
X130486467Y-81910115D01*
X130654674Y-81797723D01*
X130797723Y-81654674D01*
X130910115Y-81486467D01*
X130987533Y-81299565D01*
X131027000Y-81101151D01*
X131027000Y-80898849D01*
X130987533Y-80700435D01*
X130910115Y-80513533D01*
X130797723Y-80345326D01*
X130654674Y-80202277D01*
X130486467Y-80089885D01*
X130299565Y-80012467D01*
X130101151Y-79973000D01*
X129898849Y-79973000D01*
X129700435Y-80012467D01*
X129513533Y-80089885D01*
X129345326Y-80202277D01*
X129202277Y-80345326D01*
X129089885Y-80513533D01*
X129012467Y-80700435D01*
X128973000Y-80898849D01*
X128003327Y-80898849D01*
X128154674Y-80797723D01*
X128297723Y-80654674D01*
X128410115Y-80486467D01*
X128487533Y-80299565D01*
X128527000Y-80101151D01*
X128527000Y-79898849D01*
X128487533Y-79700435D01*
X128410115Y-79513533D01*
X128297723Y-79345326D01*
X128154674Y-79202277D01*
X127986467Y-79089885D01*
X127799565Y-79012467D01*
X127601151Y-78973000D01*
X127398849Y-78973000D01*
X127200435Y-79012467D01*
X127013533Y-79089885D01*
X126845326Y-79202277D01*
X126702277Y-79345326D01*
X126589885Y-79513533D01*
X126512467Y-79700435D01*
X126473000Y-79898849D01*
X123527000Y-79898849D01*
X123487533Y-79700435D01*
X123410115Y-79513533D01*
X123297723Y-79345326D01*
X123154674Y-79202277D01*
X122986467Y-79089885D01*
X122799565Y-79012467D01*
X122601151Y-78973000D01*
X122398849Y-78973000D01*
X122200435Y-79012467D01*
X122013533Y-79089885D01*
X121845326Y-79202277D01*
X121702277Y-79345326D01*
X121627000Y-79457986D01*
X121627000Y-72398849D01*
X123973000Y-72398849D01*
X123973000Y-72601151D01*
X124012467Y-72799565D01*
X124089885Y-72986467D01*
X124202277Y-73154674D01*
X124345326Y-73297723D01*
X124513533Y-73410115D01*
X124700435Y-73487533D01*
X124898849Y-73527000D01*
X125101151Y-73527000D01*
X125299565Y-73487533D01*
X125486467Y-73410115D01*
X125654674Y-73297723D01*
X125797723Y-73154674D01*
X125910115Y-72986467D01*
X125987533Y-72799565D01*
X126027000Y-72601151D01*
X126027000Y-72398849D01*
X125987533Y-72200435D01*
X125910115Y-72013533D01*
X125797723Y-71845326D01*
X125654674Y-71702277D01*
X125486467Y-71589885D01*
X125299565Y-71512467D01*
X125101151Y-71473000D01*
X124898849Y-71473000D01*
X124700435Y-71512467D01*
X124513533Y-71589885D01*
X124345326Y-71702277D01*
X124202277Y-71845326D01*
X124089885Y-72013533D01*
X124012467Y-72200435D01*
X123973000Y-72398849D01*
X121627000Y-72398849D01*
X121627000Y-63003560D01*
X121645263Y-62678354D01*
X121692752Y-62398849D01*
X123973000Y-62398849D01*
X123973000Y-62601151D01*
X124012467Y-62799565D01*
X124089885Y-62986467D01*
X124202277Y-63154674D01*
X124345326Y-63297723D01*
X124513533Y-63410115D01*
X124700435Y-63487533D01*
X124898849Y-63527000D01*
X125101151Y-63527000D01*
X125299565Y-63487533D01*
X125486467Y-63410115D01*
X125654674Y-63297723D01*
X125797723Y-63154674D01*
X125910115Y-62986467D01*
X125987533Y-62799565D01*
X126027000Y-62601151D01*
X126027000Y-62398849D01*
X125987533Y-62200435D01*
X125910115Y-62013533D01*
X125797723Y-61845326D01*
X125654674Y-61702277D01*
X125486467Y-61589885D01*
X125299565Y-61512467D01*
X125101151Y-61473000D01*
X124898849Y-61473000D01*
X124700435Y-61512467D01*
X124513533Y-61589885D01*
X124345326Y-61702277D01*
X124202277Y-61845326D01*
X124089885Y-62013533D01*
X124012467Y-62200435D01*
X123973000Y-62398849D01*
X121692752Y-62398849D01*
X121699228Y-62360734D01*
X121788409Y-62051182D01*
X121911700Y-61753532D01*
X122067529Y-61471579D01*
X122253951Y-61208844D01*
X122468624Y-60968624D01*
X122708844Y-60753951D01*
X122971579Y-60567529D01*
X123253532Y-60411700D01*
X123551182Y-60288409D01*
X123860734Y-60199228D01*
X124178354Y-60145263D01*
X124503560Y-60127000D01*
X125995470Y-60127000D01*
X126266504Y-60146385D01*
G36*
X180321646Y-61145263D02*
G01*
X180639266Y-61199228D01*
X180948818Y-61288409D01*
X181246468Y-61411700D01*
X181528421Y-61567529D01*
X181791156Y-61753951D01*
X182031376Y-61968624D01*
X182246049Y-62208844D01*
X182432471Y-62471579D01*
X182588300Y-62753532D01*
X182711591Y-63051182D01*
X182800772Y-63360734D01*
X182854737Y-63678354D01*
X182873000Y-64003560D01*
X182873000Y-79996440D01*
X182854737Y-80321646D01*
X182800772Y-80639266D01*
X182711591Y-80948818D01*
X182588300Y-81246468D01*
X182432471Y-81528421D01*
X182246049Y-81791156D01*
X182031376Y-82031376D01*
X181791156Y-82246049D01*
X181528421Y-82432471D01*
X181246468Y-82588300D01*
X180948818Y-82711591D01*
X180639266Y-82800772D01*
X180321646Y-82854737D01*
X179996440Y-82873000D01*
X179521858Y-82873000D01*
X179487533Y-82700435D01*
X179410115Y-82513533D01*
X179297723Y-82345326D01*
X179154674Y-82202277D01*
X178986467Y-82089885D01*
X178799565Y-82012467D01*
X178601151Y-81973000D01*
X178398849Y-81973000D01*
X178200435Y-82012467D01*
X178013533Y-82089885D01*
X177845326Y-82202277D01*
X177702277Y-82345326D01*
X177589885Y-82513533D01*
X177512467Y-82700435D01*
X177478142Y-82873000D01*
X174521858Y-82873000D01*
X174487533Y-82700435D01*
X174410115Y-82513533D01*
X174297723Y-82345326D01*
X174154674Y-82202277D01*
X173986467Y-82089885D01*
X173799565Y-82012467D01*
X173601151Y-81973000D01*
X173398849Y-81973000D01*
X173200435Y-82012467D01*
X173013533Y-82089885D01*
X172845326Y-82202277D01*
X172702277Y-82345326D01*
X172589885Y-82513533D01*
X172512467Y-82700435D01*
X172478556Y-82870919D01*
X172285274Y-82855708D01*
X172075843Y-82805428D01*
X171876848Y-82723001D01*
X171693203Y-82610463D01*
X171529421Y-82470579D01*
X171389537Y-82306797D01*
X171276999Y-82123152D01*
X171194572Y-81924157D01*
X171144292Y-81714726D01*
X171127393Y-81500000D01*
X171144292Y-81285274D01*
X171194572Y-81075843D01*
X171276999Y-80876848D01*
X171389537Y-80693203D01*
X171529421Y-80529421D01*
X171693203Y-80389537D01*
X171876848Y-80276999D01*
X172075843Y-80194572D01*
X172285274Y-80144292D01*
X172504996Y-80127000D01*
X175750000Y-80127000D01*
X175757668Y-80126768D01*
X176089144Y-80106717D01*
X176104368Y-80104869D01*
X176431010Y-80045010D01*
X176445901Y-80041340D01*
X176762946Y-79942545D01*
X176777285Y-79937106D01*
X177080111Y-79800815D01*
X177093691Y-79793688D01*
X177377880Y-79621890D01*
X177390501Y-79613178D01*
X177651910Y-79408377D01*
X177663390Y-79398208D01*
X177898208Y-79163390D01*
X177908377Y-79151910D01*
X178113178Y-78890501D01*
X178121890Y-78877880D01*
X178293688Y-78593691D01*
X178300815Y-78580111D01*
X178437106Y-78277285D01*
X178442545Y-78262946D01*
X178541340Y-77945901D01*
X178545010Y-77931010D01*
X178604869Y-77604368D01*
X178606717Y-77589144D01*
X178626768Y-77257668D01*
X178626768Y-77242332D01*
X178606717Y-76910856D01*
X178604869Y-76895632D01*
X178545010Y-76568990D01*
X178541340Y-76554099D01*
X178442545Y-76237054D01*
X178437106Y-76222715D01*
X178300815Y-75919889D01*
X178293688Y-75906309D01*
X178121890Y-75622120D01*
X178113178Y-75609499D01*
X177908377Y-75348090D01*
X177898208Y-75336610D01*
X177663390Y-75101792D01*
X177651910Y-75091623D01*
X177390501Y-74886822D01*
X177377880Y-74878110D01*
X177093691Y-74706312D01*
X177080111Y-74699185D01*
X176777285Y-74562894D01*
X176762946Y-74557455D01*
X176445901Y-74458660D01*
X176431010Y-74454990D01*
X176104368Y-74395131D01*
X176089144Y-74393283D01*
X175757668Y-74373232D01*
X175750000Y-74373000D01*
X174722654Y-74373000D01*
X174727000Y-74351151D01*
X174727000Y-74148849D01*
X174687533Y-73950435D01*
X174610115Y-73763533D01*
X174497723Y-73595326D01*
X174354674Y-73452277D01*
X174186467Y-73339885D01*
X173999565Y-73262467D01*
X173801151Y-73223000D01*
X173598849Y-73223000D01*
X173400435Y-73262467D01*
X173213533Y-73339885D01*
X173045326Y-73452277D01*
X172902277Y-73595326D01*
X172789885Y-73763533D01*
X172712467Y-73950435D01*
X172673000Y-74148849D01*
X172673000Y-74291029D01*
X172437670Y-74211145D01*
X172188635Y-74088335D01*
X171957767Y-73934074D01*
X171749005Y-73750995D01*
X171565926Y-73542233D01*
X171411665Y-73311365D01*
X171306865Y-73098849D01*
X177673000Y-73098849D01*
X177673000Y-73301151D01*
X177712467Y-73499565D01*
X177789885Y-73686467D01*
X177902277Y-73854674D01*
X178045326Y-73997723D01*
X178213533Y-74110115D01*
X178400435Y-74187533D01*
X178598849Y-74227000D01*
X178801151Y-74227000D01*
X178999565Y-74187533D01*
X179186467Y-74110115D01*
X179354674Y-73997723D01*
X179497723Y-73854674D01*
X179610115Y-73686467D01*
X179687533Y-73499565D01*
X179727000Y-73301151D01*
X179727000Y-73098849D01*
X179687533Y-72900435D01*
X179610115Y-72713533D01*
X179497723Y-72545326D01*
X179354674Y-72402277D01*
X179186467Y-72289885D01*
X178999565Y-72212467D01*
X178801151Y-72173000D01*
X178598849Y-72173000D01*
X178400435Y-72212467D01*
X178213533Y-72289885D01*
X178045326Y-72402277D01*
X177902277Y-72545326D01*
X177789885Y-72713533D01*
X177712467Y-72900435D01*
X177673000Y-73098849D01*
X171306865Y-73098849D01*
X171288855Y-73062330D01*
X171199604Y-72799406D01*
X171145432Y-72527068D01*
X171127272Y-72250000D01*
X171145432Y-71972932D01*
X171199604Y-71700594D01*
X171288855Y-71437670D01*
X171411665Y-71188635D01*
X171565926Y-70957767D01*
X171749005Y-70749005D01*
X171957767Y-70565926D01*
X172188635Y-70411665D01*
X172437670Y-70288855D01*
X172700594Y-70199604D01*
X172972932Y-70145432D01*
X173254156Y-70127000D01*
X175500000Y-70127000D01*
X175507121Y-70126800D01*
X175843014Y-70107937D01*
X175857166Y-70106343D01*
X176188836Y-70049990D01*
X176202721Y-70046820D01*
X176525995Y-69953686D01*
X176539438Y-69948983D01*
X176850252Y-69820240D01*
X176863083Y-69814060D01*
X177157528Y-69651326D01*
X177169587Y-69643749D01*
X177443960Y-69449070D01*
X177455095Y-69440191D01*
X177705946Y-69216017D01*
X177716017Y-69205946D01*
X177940191Y-68955095D01*
X177949070Y-68943960D01*
X178143749Y-68669587D01*
X178151326Y-68657528D01*
X178314060Y-68363083D01*
X178320240Y-68350252D01*
X178448983Y-68039438D01*
X178453686Y-68025995D01*
X178546820Y-67702721D01*
X178549990Y-67688836D01*
X178606343Y-67357166D01*
X178607937Y-67343014D01*
X178626800Y-67007121D01*
X178626800Y-66992879D01*
X178607937Y-66656986D01*
X178606343Y-66642834D01*
X178549990Y-66311164D01*
X178546820Y-66297279D01*
X178453686Y-65974005D01*
X178448983Y-65960562D01*
X178320240Y-65649748D01*
X178314060Y-65636917D01*
X178151326Y-65342472D01*
X178143749Y-65330413D01*
X177949070Y-65056040D01*
X177940191Y-65044905D01*
X177716017Y-64794054D01*
X177705946Y-64783983D01*
X177455095Y-64559809D01*
X177443960Y-64550930D01*
X177169587Y-64356251D01*
X177157528Y-64348674D01*
X176863083Y-64185940D01*
X176850252Y-64179760D01*
X176539438Y-64051017D01*
X176525995Y-64046314D01*
X176202721Y-63953180D01*
X176188836Y-63950010D01*
X175857166Y-63893657D01*
X175843014Y-63892063D01*
X175507121Y-63873200D01*
X175500000Y-63873000D01*
X173907115Y-63873000D01*
X173937533Y-63799565D01*
X173977000Y-63601151D01*
X173977000Y-63398849D01*
X173937533Y-63200435D01*
X173895455Y-63098849D01*
X177673000Y-63098849D01*
X177673000Y-63301151D01*
X177712467Y-63499565D01*
X177789885Y-63686467D01*
X177902277Y-63854674D01*
X178045326Y-63997723D01*
X178213533Y-64110115D01*
X178400435Y-64187533D01*
X178598849Y-64227000D01*
X178801151Y-64227000D01*
X178999565Y-64187533D01*
X179186467Y-64110115D01*
X179354674Y-63997723D01*
X179497723Y-63854674D01*
X179610115Y-63686467D01*
X179687533Y-63499565D01*
X179727000Y-63301151D01*
X179727000Y-63098849D01*
X179687533Y-62900435D01*
X179610115Y-62713533D01*
X179497723Y-62545326D01*
X179354674Y-62402277D01*
X179186467Y-62289885D01*
X178999565Y-62212467D01*
X178801151Y-62173000D01*
X178598849Y-62173000D01*
X178400435Y-62212467D01*
X178213533Y-62289885D01*
X178045326Y-62402277D01*
X177902277Y-62545326D01*
X177789885Y-62713533D01*
X177712467Y-62900435D01*
X177673000Y-63098849D01*
X173895455Y-63098849D01*
X173860115Y-63013533D01*
X173747723Y-62845326D01*
X173604674Y-62702277D01*
X173436467Y-62589885D01*
X173249565Y-62512467D01*
X173051151Y-62473000D01*
X172848849Y-62473000D01*
X172650435Y-62512467D01*
X172463533Y-62589885D01*
X172295326Y-62702277D01*
X172152277Y-62845326D01*
X172039885Y-63013533D01*
X171962467Y-63200435D01*
X171923000Y-63398849D01*
X171923000Y-63601151D01*
X171953558Y-63754775D01*
X171876848Y-63723001D01*
X171693203Y-63610463D01*
X171529421Y-63470579D01*
X171389537Y-63306797D01*
X171276999Y-63123152D01*
X171194572Y-62924157D01*
X171144292Y-62714726D01*
X171127393Y-62500000D01*
X171144292Y-62285274D01*
X171194572Y-62075843D01*
X171276999Y-61876848D01*
X171389537Y-61693203D01*
X171529421Y-61529421D01*
X171693203Y-61389537D01*
X171876848Y-61276999D01*
X172075843Y-61194572D01*
X172285274Y-61144292D01*
X172504996Y-61127000D01*
X179996440Y-61127000D01*
X180321646Y-61145263D01*
G37*
X180321646Y-61145263D02*
X180639266Y-61199228D01*
X180948818Y-61288409D01*
X181246468Y-61411700D01*
X181528421Y-61567529D01*
X181791156Y-61753951D01*
X182031376Y-61968624D01*
X182246049Y-62208844D01*
X182432471Y-62471579D01*
X182588300Y-62753532D01*
X182711591Y-63051182D01*
X182800772Y-63360734D01*
X182854737Y-63678354D01*
X182873000Y-64003560D01*
X182873000Y-79996440D01*
X182854737Y-80321646D01*
X182800772Y-80639266D01*
X182711591Y-80948818D01*
X182588300Y-81246468D01*
X182432471Y-81528421D01*
X182246049Y-81791156D01*
X182031376Y-82031376D01*
X181791156Y-82246049D01*
X181528421Y-82432471D01*
X181246468Y-82588300D01*
X180948818Y-82711591D01*
X180639266Y-82800772D01*
X180321646Y-82854737D01*
X179996440Y-82873000D01*
X179521858Y-82873000D01*
X179487533Y-82700435D01*
X179410115Y-82513533D01*
X179297723Y-82345326D01*
X179154674Y-82202277D01*
X178986467Y-82089885D01*
X178799565Y-82012467D01*
X178601151Y-81973000D01*
X178398849Y-81973000D01*
X178200435Y-82012467D01*
X178013533Y-82089885D01*
X177845326Y-82202277D01*
X177702277Y-82345326D01*
X177589885Y-82513533D01*
X177512467Y-82700435D01*
X177478142Y-82873000D01*
X174521858Y-82873000D01*
X174487533Y-82700435D01*
X174410115Y-82513533D01*
X174297723Y-82345326D01*
X174154674Y-82202277D01*
X173986467Y-82089885D01*
X173799565Y-82012467D01*
X173601151Y-81973000D01*
X173398849Y-81973000D01*
X173200435Y-82012467D01*
X173013533Y-82089885D01*
X172845326Y-82202277D01*
X172702277Y-82345326D01*
X172589885Y-82513533D01*
X172512467Y-82700435D01*
X172478556Y-82870919D01*
X172285274Y-82855708D01*
X172075843Y-82805428D01*
X171876848Y-82723001D01*
X171693203Y-82610463D01*
X171529421Y-82470579D01*
X171389537Y-82306797D01*
X171276999Y-82123152D01*
X171194572Y-81924157D01*
X171144292Y-81714726D01*
X171127393Y-81500000D01*
X171144292Y-81285274D01*
X171194572Y-81075843D01*
X171276999Y-80876848D01*
X171389537Y-80693203D01*
X171529421Y-80529421D01*
X171693203Y-80389537D01*
X171876848Y-80276999D01*
X172075843Y-80194572D01*
X172285274Y-80144292D01*
X172504996Y-80127000D01*
X175750000Y-80127000D01*
X175757668Y-80126768D01*
X176089144Y-80106717D01*
X176104368Y-80104869D01*
X176431010Y-80045010D01*
X176445901Y-80041340D01*
X176762946Y-79942545D01*
X176777285Y-79937106D01*
X177080111Y-79800815D01*
X177093691Y-79793688D01*
X177377880Y-79621890D01*
X177390501Y-79613178D01*
X177651910Y-79408377D01*
X177663390Y-79398208D01*
X177898208Y-79163390D01*
X177908377Y-79151910D01*
X178113178Y-78890501D01*
X178121890Y-78877880D01*
X178293688Y-78593691D01*
X178300815Y-78580111D01*
X178437106Y-78277285D01*
X178442545Y-78262946D01*
X178541340Y-77945901D01*
X178545010Y-77931010D01*
X178604869Y-77604368D01*
X178606717Y-77589144D01*
X178626768Y-77257668D01*
X178626768Y-77242332D01*
X178606717Y-76910856D01*
X178604869Y-76895632D01*
X178545010Y-76568990D01*
X178541340Y-76554099D01*
X178442545Y-76237054D01*
X178437106Y-76222715D01*
X178300815Y-75919889D01*
X178293688Y-75906309D01*
X178121890Y-75622120D01*
X178113178Y-75609499D01*
X177908377Y-75348090D01*
X177898208Y-75336610D01*
X177663390Y-75101792D01*
X177651910Y-75091623D01*
X177390501Y-74886822D01*
X177377880Y-74878110D01*
X177093691Y-74706312D01*
X177080111Y-74699185D01*
X176777285Y-74562894D01*
X176762946Y-74557455D01*
X176445901Y-74458660D01*
X176431010Y-74454990D01*
X176104368Y-74395131D01*
X176089144Y-74393283D01*
X175757668Y-74373232D01*
X175750000Y-74373000D01*
X174722654Y-74373000D01*
X174727000Y-74351151D01*
X174727000Y-74148849D01*
X174687533Y-73950435D01*
X174610115Y-73763533D01*
X174497723Y-73595326D01*
X174354674Y-73452277D01*
X174186467Y-73339885D01*
X173999565Y-73262467D01*
X173801151Y-73223000D01*
X173598849Y-73223000D01*
X173400435Y-73262467D01*
X173213533Y-73339885D01*
X173045326Y-73452277D01*
X172902277Y-73595326D01*
X172789885Y-73763533D01*
X172712467Y-73950435D01*
X172673000Y-74148849D01*
X172673000Y-74291029D01*
X172437670Y-74211145D01*
X172188635Y-74088335D01*
X171957767Y-73934074D01*
X171749005Y-73750995D01*
X171565926Y-73542233D01*
X171411665Y-73311365D01*
X171306865Y-73098849D01*
X177673000Y-73098849D01*
X177673000Y-73301151D01*
X177712467Y-73499565D01*
X177789885Y-73686467D01*
X177902277Y-73854674D01*
X178045326Y-73997723D01*
X178213533Y-74110115D01*
X178400435Y-74187533D01*
X178598849Y-74227000D01*
X178801151Y-74227000D01*
X178999565Y-74187533D01*
X179186467Y-74110115D01*
X179354674Y-73997723D01*
X179497723Y-73854674D01*
X179610115Y-73686467D01*
X179687533Y-73499565D01*
X179727000Y-73301151D01*
X179727000Y-73098849D01*
X179687533Y-72900435D01*
X179610115Y-72713533D01*
X179497723Y-72545326D01*
X179354674Y-72402277D01*
X179186467Y-72289885D01*
X178999565Y-72212467D01*
X178801151Y-72173000D01*
X178598849Y-72173000D01*
X178400435Y-72212467D01*
X178213533Y-72289885D01*
X178045326Y-72402277D01*
X177902277Y-72545326D01*
X177789885Y-72713533D01*
X177712467Y-72900435D01*
X177673000Y-73098849D01*
X171306865Y-73098849D01*
X171288855Y-73062330D01*
X171199604Y-72799406D01*
X171145432Y-72527068D01*
X171127272Y-72250000D01*
X171145432Y-71972932D01*
X171199604Y-71700594D01*
X171288855Y-71437670D01*
X171411665Y-71188635D01*
X171565926Y-70957767D01*
X171749005Y-70749005D01*
X171957767Y-70565926D01*
X172188635Y-70411665D01*
X172437670Y-70288855D01*
X172700594Y-70199604D01*
X172972932Y-70145432D01*
X173254156Y-70127000D01*
X175500000Y-70127000D01*
X175507121Y-70126800D01*
X175843014Y-70107937D01*
X175857166Y-70106343D01*
X176188836Y-70049990D01*
X176202721Y-70046820D01*
X176525995Y-69953686D01*
X176539438Y-69948983D01*
X176850252Y-69820240D01*
X176863083Y-69814060D01*
X177157528Y-69651326D01*
X177169587Y-69643749D01*
X177443960Y-69449070D01*
X177455095Y-69440191D01*
X177705946Y-69216017D01*
X177716017Y-69205946D01*
X177940191Y-68955095D01*
X177949070Y-68943960D01*
X178143749Y-68669587D01*
X178151326Y-68657528D01*
X178314060Y-68363083D01*
X178320240Y-68350252D01*
X178448983Y-68039438D01*
X178453686Y-68025995D01*
X178546820Y-67702721D01*
X178549990Y-67688836D01*
X178606343Y-67357166D01*
X178607937Y-67343014D01*
X178626800Y-67007121D01*
X178626800Y-66992879D01*
X178607937Y-66656986D01*
X178606343Y-66642834D01*
X178549990Y-66311164D01*
X178546820Y-66297279D01*
X178453686Y-65974005D01*
X178448983Y-65960562D01*
X178320240Y-65649748D01*
X178314060Y-65636917D01*
X178151326Y-65342472D01*
X178143749Y-65330413D01*
X177949070Y-65056040D01*
X177940191Y-65044905D01*
X177716017Y-64794054D01*
X177705946Y-64783983D01*
X177455095Y-64559809D01*
X177443960Y-64550930D01*
X177169587Y-64356251D01*
X177157528Y-64348674D01*
X176863083Y-64185940D01*
X176850252Y-64179760D01*
X176539438Y-64051017D01*
X176525995Y-64046314D01*
X176202721Y-63953180D01*
X176188836Y-63950010D01*
X175857166Y-63893657D01*
X175843014Y-63892063D01*
X175507121Y-63873200D01*
X175500000Y-63873000D01*
X173907115Y-63873000D01*
X173937533Y-63799565D01*
X173977000Y-63601151D01*
X173977000Y-63398849D01*
X173937533Y-63200435D01*
X173895455Y-63098849D01*
X177673000Y-63098849D01*
X177673000Y-63301151D01*
X177712467Y-63499565D01*
X177789885Y-63686467D01*
X177902277Y-63854674D01*
X178045326Y-63997723D01*
X178213533Y-64110115D01*
X178400435Y-64187533D01*
X178598849Y-64227000D01*
X178801151Y-64227000D01*
X178999565Y-64187533D01*
X179186467Y-64110115D01*
X179354674Y-63997723D01*
X179497723Y-63854674D01*
X179610115Y-63686467D01*
X179687533Y-63499565D01*
X179727000Y-63301151D01*
X179727000Y-63098849D01*
X179687533Y-62900435D01*
X179610115Y-62713533D01*
X179497723Y-62545326D01*
X179354674Y-62402277D01*
X179186467Y-62289885D01*
X178999565Y-62212467D01*
X178801151Y-62173000D01*
X178598849Y-62173000D01*
X178400435Y-62212467D01*
X178213533Y-62289885D01*
X178045326Y-62402277D01*
X177902277Y-62545326D01*
X177789885Y-62713533D01*
X177712467Y-62900435D01*
X177673000Y-63098849D01*
X173895455Y-63098849D01*
X173860115Y-63013533D01*
X173747723Y-62845326D01*
X173604674Y-62702277D01*
X173436467Y-62589885D01*
X173249565Y-62512467D01*
X173051151Y-62473000D01*
X172848849Y-62473000D01*
X172650435Y-62512467D01*
X172463533Y-62589885D01*
X172295326Y-62702277D01*
X172152277Y-62845326D01*
X172039885Y-63013533D01*
X171962467Y-63200435D01*
X171923000Y-63398849D01*
X171923000Y-63601151D01*
X171953558Y-63754775D01*
X171876848Y-63723001D01*
X171693203Y-63610463D01*
X171529421Y-63470579D01*
X171389537Y-63306797D01*
X171276999Y-63123152D01*
X171194572Y-62924157D01*
X171144292Y-62714726D01*
X171127393Y-62500000D01*
X171144292Y-62285274D01*
X171194572Y-62075843D01*
X171276999Y-61876848D01*
X171389537Y-61693203D01*
X171529421Y-61529421D01*
X171693203Y-61389537D01*
X171876848Y-61276999D01*
X172075843Y-61194572D01*
X172285274Y-61144292D01*
X172504996Y-61127000D01*
X179996440Y-61127000D01*
X180321646Y-61145263D01*
G36*
X131066136Y-77646355D02*
G01*
X131377667Y-77703445D01*
X131680053Y-77797672D01*
X131968859Y-77927653D01*
X132239904Y-78091505D01*
X132489210Y-78286824D01*
X132713176Y-78510790D01*
X132908495Y-78760096D01*
X133072347Y-79031141D01*
X133147088Y-79197208D01*
X132986467Y-79089885D01*
X132799565Y-79012467D01*
X132601151Y-78973000D01*
X132398849Y-78973000D01*
X132200435Y-79012467D01*
X132013533Y-79089885D01*
X131845326Y-79202277D01*
X131702277Y-79345326D01*
X131589885Y-79513533D01*
X131512467Y-79700435D01*
X131473000Y-79898849D01*
X131473000Y-80101151D01*
X131512467Y-80299565D01*
X131589885Y-80486467D01*
X131702277Y-80654674D01*
X131845326Y-80797723D01*
X132013533Y-80910115D01*
X132200435Y-80987533D01*
X132398849Y-81027000D01*
X132601151Y-81027000D01*
X132799565Y-80987533D01*
X132986467Y-80910115D01*
X133154674Y-80797723D01*
X133297723Y-80654674D01*
X133373000Y-80542014D01*
X133373000Y-81855602D01*
X133373234Y-81863311D01*
X133395341Y-82226843D01*
X133397210Y-82242148D01*
X133463207Y-82600322D01*
X133466916Y-82615286D01*
X133575828Y-82962823D01*
X133581323Y-82977229D01*
X133731546Y-83309008D01*
X133738746Y-83322641D01*
X133928067Y-83633771D01*
X133936866Y-83646432D01*
X134162493Y-83932327D01*
X134167453Y-83938233D01*
X137224469Y-87362090D01*
X137180340Y-87391576D01*
X136981576Y-87590340D01*
X136825409Y-87824062D01*
X136717838Y-88083759D01*
X136663000Y-88359453D01*
X136663000Y-88640547D01*
X136717838Y-88916241D01*
X136825409Y-89175938D01*
X136981576Y-89409660D01*
X137180340Y-89608424D01*
X137414062Y-89764591D01*
X137673759Y-89872162D01*
X137949453Y-89927000D01*
X138230547Y-89927000D01*
X138506241Y-89872162D01*
X138765938Y-89764591D01*
X138999660Y-89608424D01*
X139121414Y-89486670D01*
X145140504Y-96228050D01*
X145358964Y-96504865D01*
X145540254Y-96802796D01*
X145684107Y-97120506D01*
X145788398Y-97453299D01*
X145851596Y-97796279D01*
X145873000Y-98148259D01*
X145873000Y-99495844D01*
X145852429Y-99809701D01*
X145791879Y-100114109D01*
X145692115Y-100408001D01*
X145554844Y-100686361D01*
X145382409Y-100944427D01*
X145177772Y-101177772D01*
X144944427Y-101382409D01*
X144686361Y-101554844D01*
X144408001Y-101692115D01*
X144114109Y-101791879D01*
X143809701Y-101852429D01*
X143495844Y-101873000D01*
X142223388Y-101873000D01*
X141903520Y-101855335D01*
X141591018Y-101803133D01*
X141286162Y-101716834D01*
X140992652Y-101597485D01*
X140714086Y-101446549D01*
X140453826Y-101265849D01*
X140212406Y-101055283D01*
X131021458Y-92100000D01*
X136559967Y-92100000D01*
X136559967Y-93900000D01*
X136572073Y-94022913D01*
X136607925Y-94141103D01*
X136666147Y-94250028D01*
X136744499Y-94345501D01*
X136839972Y-94423853D01*
X136948897Y-94482075D01*
X137067087Y-94517927D01*
X137190000Y-94530033D01*
X138990000Y-94530033D01*
X139112913Y-94517927D01*
X139231103Y-94482075D01*
X139340028Y-94423853D01*
X139435501Y-94345501D01*
X139513853Y-94250028D01*
X139572075Y-94141103D01*
X139607927Y-94022913D01*
X139620033Y-93900000D01*
X139620033Y-92100000D01*
X139607927Y-91977087D01*
X139572075Y-91858897D01*
X139513853Y-91749972D01*
X139435501Y-91654499D01*
X139340028Y-91576147D01*
X139231103Y-91517925D01*
X139112913Y-91482073D01*
X138990000Y-91469967D01*
X137190000Y-91469967D01*
X137067087Y-91482073D01*
X136948897Y-91517925D01*
X136839972Y-91576147D01*
X136744499Y-91654499D01*
X136666147Y-91749972D01*
X136607925Y-91858897D01*
X136572073Y-91977087D01*
X136559967Y-92100000D01*
X131021458Y-92100000D01*
X129564123Y-90680033D01*
X130200000Y-90680033D01*
X130322913Y-90667927D01*
X130441103Y-90632075D01*
X130550028Y-90573853D01*
X130645501Y-90495501D01*
X130723853Y-90400028D01*
X130735147Y-90378898D01*
X130895643Y-90486138D01*
X131200837Y-90612554D01*
X131524830Y-90677000D01*
X131855170Y-90677000D01*
X132179163Y-90612554D01*
X132484357Y-90486138D01*
X132759025Y-90302611D01*
X132992611Y-90069025D01*
X133176138Y-89794357D01*
X133302554Y-89489163D01*
X133367000Y-89165170D01*
X133367000Y-88834830D01*
X133302554Y-88510837D01*
X133176138Y-88205643D01*
X132992611Y-87930975D01*
X132759025Y-87697389D01*
X132484357Y-87513862D01*
X132179163Y-87387446D01*
X131855170Y-87323000D01*
X131524830Y-87323000D01*
X131200837Y-87387446D01*
X130895643Y-87513862D01*
X130735147Y-87621102D01*
X130723853Y-87599972D01*
X130645501Y-87504499D01*
X130550028Y-87426147D01*
X130441103Y-87367925D01*
X130322913Y-87332073D01*
X130200000Y-87319967D01*
X128100000Y-87319967D01*
X127977087Y-87332073D01*
X127858897Y-87367925D01*
X127749972Y-87426147D01*
X127654499Y-87504499D01*
X127576147Y-87599972D01*
X127517925Y-87708897D01*
X127482073Y-87827087D01*
X127469967Y-87950000D01*
X127469967Y-88639574D01*
X122497629Y-83794732D01*
X122274035Y-83550522D01*
X122081821Y-83285395D01*
X121921025Y-83000108D01*
X121793739Y-82698371D01*
X121701625Y-82384120D01*
X121645873Y-82061426D01*
X121627000Y-81730845D01*
X121627000Y-80542014D01*
X121702277Y-80654674D01*
X121845326Y-80797723D01*
X122013533Y-80910115D01*
X122200435Y-80987533D01*
X122398849Y-81027000D01*
X122601151Y-81027000D01*
X122799565Y-80987533D01*
X122986467Y-80910115D01*
X123003327Y-80898849D01*
X123973000Y-80898849D01*
X123973000Y-81101151D01*
X124012467Y-81299565D01*
X124089885Y-81486467D01*
X124202277Y-81654674D01*
X124345326Y-81797723D01*
X124513533Y-81910115D01*
X124700435Y-81987533D01*
X124898849Y-82027000D01*
X125101151Y-82027000D01*
X125299565Y-81987533D01*
X125486467Y-81910115D01*
X125654674Y-81797723D01*
X125797723Y-81654674D01*
X125910115Y-81486467D01*
X125987533Y-81299565D01*
X126027000Y-81101151D01*
X126027000Y-80898849D01*
X125987533Y-80700435D01*
X125910115Y-80513533D01*
X125797723Y-80345326D01*
X125654674Y-80202277D01*
X125486467Y-80089885D01*
X125299565Y-80012467D01*
X125101151Y-79973000D01*
X124898849Y-79973000D01*
X124700435Y-80012467D01*
X124513533Y-80089885D01*
X124345326Y-80202277D01*
X124202277Y-80345326D01*
X124089885Y-80513533D01*
X124012467Y-80700435D01*
X123973000Y-80898849D01*
X123003327Y-80898849D01*
X123154674Y-80797723D01*
X123297723Y-80654674D01*
X123410115Y-80486467D01*
X123487533Y-80299565D01*
X123527000Y-80101151D01*
X123527000Y-79898849D01*
X126473000Y-79898849D01*
X126473000Y-80101151D01*
X126512467Y-80299565D01*
X126589885Y-80486467D01*
X126702277Y-80654674D01*
X126845326Y-80797723D01*
X127013533Y-80910115D01*
X127200435Y-80987533D01*
X127398849Y-81027000D01*
X127601151Y-81027000D01*
X127799565Y-80987533D01*
X127986467Y-80910115D01*
X128003327Y-80898849D01*
X128973000Y-80898849D01*
X128973000Y-81101151D01*
X129012467Y-81299565D01*
X129089885Y-81486467D01*
X129202277Y-81654674D01*
X129345326Y-81797723D01*
X129513533Y-81910115D01*
X129700435Y-81987533D01*
X129898849Y-82027000D01*
X130101151Y-82027000D01*
X130299565Y-81987533D01*
X130486467Y-81910115D01*
X130654674Y-81797723D01*
X130797723Y-81654674D01*
X130910115Y-81486467D01*
X130987533Y-81299565D01*
X131027000Y-81101151D01*
X131027000Y-80898849D01*
X130987533Y-80700435D01*
X130910115Y-80513533D01*
X130797723Y-80345326D01*
X130654674Y-80202277D01*
X130486467Y-80089885D01*
X130299565Y-80012467D01*
X130101151Y-79973000D01*
X129898849Y-79973000D01*
X129700435Y-80012467D01*
X129513533Y-80089885D01*
X129345326Y-80202277D01*
X129202277Y-80345326D01*
X129089885Y-80513533D01*
X129012467Y-80700435D01*
X128973000Y-80898849D01*
X128003327Y-80898849D01*
X128154674Y-80797723D01*
X128297723Y-80654674D01*
X128410115Y-80486467D01*
X128487533Y-80299565D01*
X128527000Y-80101151D01*
X128527000Y-79898849D01*
X128487533Y-79700435D01*
X128410115Y-79513533D01*
X128297723Y-79345326D01*
X128154674Y-79202277D01*
X127986467Y-79089885D01*
X127799565Y-79012467D01*
X127601151Y-78973000D01*
X127398849Y-78973000D01*
X127200435Y-79012467D01*
X127013533Y-79089885D01*
X126845326Y-79202277D01*
X126702277Y-79345326D01*
X126589885Y-79513533D01*
X126512467Y-79700435D01*
X126473000Y-79898849D01*
X123527000Y-79898849D01*
X123487533Y-79700435D01*
X123410115Y-79513533D01*
X123297723Y-79345326D01*
X123154674Y-79202277D01*
X122986467Y-79089885D01*
X122799565Y-79012467D01*
X122601151Y-78973000D01*
X122398849Y-78973000D01*
X122200435Y-79012467D01*
X122013533Y-79089885D01*
X121852912Y-79197208D01*
X121927653Y-79031141D01*
X122091505Y-78760096D01*
X122286824Y-78510790D01*
X122510790Y-78286824D01*
X122760096Y-78091505D01*
X123031141Y-77927653D01*
X123319947Y-77797672D01*
X123622333Y-77703445D01*
X123933864Y-77646355D01*
X124253833Y-77627000D01*
X130746167Y-77627000D01*
X131066136Y-77646355D01*
G37*
X131066136Y-77646355D02*
X131377667Y-77703445D01*
X131680053Y-77797672D01*
X131968859Y-77927653D01*
X132239904Y-78091505D01*
X132489210Y-78286824D01*
X132713176Y-78510790D01*
X132908495Y-78760096D01*
X133072347Y-79031141D01*
X133147088Y-79197208D01*
X132986467Y-79089885D01*
X132799565Y-79012467D01*
X132601151Y-78973000D01*
X132398849Y-78973000D01*
X132200435Y-79012467D01*
X132013533Y-79089885D01*
X131845326Y-79202277D01*
X131702277Y-79345326D01*
X131589885Y-79513533D01*
X131512467Y-79700435D01*
X131473000Y-79898849D01*
X131473000Y-80101151D01*
X131512467Y-80299565D01*
X131589885Y-80486467D01*
X131702277Y-80654674D01*
X131845326Y-80797723D01*
X132013533Y-80910115D01*
X132200435Y-80987533D01*
X132398849Y-81027000D01*
X132601151Y-81027000D01*
X132799565Y-80987533D01*
X132986467Y-80910115D01*
X133154674Y-80797723D01*
X133297723Y-80654674D01*
X133373000Y-80542014D01*
X133373000Y-81855602D01*
X133373234Y-81863311D01*
X133395341Y-82226843D01*
X133397210Y-82242148D01*
X133463207Y-82600322D01*
X133466916Y-82615286D01*
X133575828Y-82962823D01*
X133581323Y-82977229D01*
X133731546Y-83309008D01*
X133738746Y-83322641D01*
X133928067Y-83633771D01*
X133936866Y-83646432D01*
X134162493Y-83932327D01*
X134167453Y-83938233D01*
X137224469Y-87362090D01*
X137180340Y-87391576D01*
X136981576Y-87590340D01*
X136825409Y-87824062D01*
X136717838Y-88083759D01*
X136663000Y-88359453D01*
X136663000Y-88640547D01*
X136717838Y-88916241D01*
X136825409Y-89175938D01*
X136981576Y-89409660D01*
X137180340Y-89608424D01*
X137414062Y-89764591D01*
X137673759Y-89872162D01*
X137949453Y-89927000D01*
X138230547Y-89927000D01*
X138506241Y-89872162D01*
X138765938Y-89764591D01*
X138999660Y-89608424D01*
X139121414Y-89486670D01*
X145140504Y-96228050D01*
X145358964Y-96504865D01*
X145540254Y-96802796D01*
X145684107Y-97120506D01*
X145788398Y-97453299D01*
X145851596Y-97796279D01*
X145873000Y-98148259D01*
X145873000Y-99495844D01*
X145852429Y-99809701D01*
X145791879Y-100114109D01*
X145692115Y-100408001D01*
X145554844Y-100686361D01*
X145382409Y-100944427D01*
X145177772Y-101177772D01*
X144944427Y-101382409D01*
X144686361Y-101554844D01*
X144408001Y-101692115D01*
X144114109Y-101791879D01*
X143809701Y-101852429D01*
X143495844Y-101873000D01*
X142223388Y-101873000D01*
X141903520Y-101855335D01*
X141591018Y-101803133D01*
X141286162Y-101716834D01*
X140992652Y-101597485D01*
X140714086Y-101446549D01*
X140453826Y-101265849D01*
X140212406Y-101055283D01*
X131021458Y-92100000D01*
X136559967Y-92100000D01*
X136559967Y-93900000D01*
X136572073Y-94022913D01*
X136607925Y-94141103D01*
X136666147Y-94250028D01*
X136744499Y-94345501D01*
X136839972Y-94423853D01*
X136948897Y-94482075D01*
X137067087Y-94517927D01*
X137190000Y-94530033D01*
X138990000Y-94530033D01*
X139112913Y-94517927D01*
X139231103Y-94482075D01*
X139340028Y-94423853D01*
X139435501Y-94345501D01*
X139513853Y-94250028D01*
X139572075Y-94141103D01*
X139607927Y-94022913D01*
X139620033Y-93900000D01*
X139620033Y-92100000D01*
X139607927Y-91977087D01*
X139572075Y-91858897D01*
X139513853Y-91749972D01*
X139435501Y-91654499D01*
X139340028Y-91576147D01*
X139231103Y-91517925D01*
X139112913Y-91482073D01*
X138990000Y-91469967D01*
X137190000Y-91469967D01*
X137067087Y-91482073D01*
X136948897Y-91517925D01*
X136839972Y-91576147D01*
X136744499Y-91654499D01*
X136666147Y-91749972D01*
X136607925Y-91858897D01*
X136572073Y-91977087D01*
X136559967Y-92100000D01*
X131021458Y-92100000D01*
X129564123Y-90680033D01*
X130200000Y-90680033D01*
X130322913Y-90667927D01*
X130441103Y-90632075D01*
X130550028Y-90573853D01*
X130645501Y-90495501D01*
X130723853Y-90400028D01*
X130735147Y-90378898D01*
X130895643Y-90486138D01*
X131200837Y-90612554D01*
X131524830Y-90677000D01*
X131855170Y-90677000D01*
X132179163Y-90612554D01*
X132484357Y-90486138D01*
X132759025Y-90302611D01*
X132992611Y-90069025D01*
X133176138Y-89794357D01*
X133302554Y-89489163D01*
X133367000Y-89165170D01*
X133367000Y-88834830D01*
X133302554Y-88510837D01*
X133176138Y-88205643D01*
X132992611Y-87930975D01*
X132759025Y-87697389D01*
X132484357Y-87513862D01*
X132179163Y-87387446D01*
X131855170Y-87323000D01*
X131524830Y-87323000D01*
X131200837Y-87387446D01*
X130895643Y-87513862D01*
X130735147Y-87621102D01*
X130723853Y-87599972D01*
X130645501Y-87504499D01*
X130550028Y-87426147D01*
X130441103Y-87367925D01*
X130322913Y-87332073D01*
X130200000Y-87319967D01*
X128100000Y-87319967D01*
X127977087Y-87332073D01*
X127858897Y-87367925D01*
X127749972Y-87426147D01*
X127654499Y-87504499D01*
X127576147Y-87599972D01*
X127517925Y-87708897D01*
X127482073Y-87827087D01*
X127469967Y-87950000D01*
X127469967Y-88639574D01*
X122497629Y-83794732D01*
X122274035Y-83550522D01*
X122081821Y-83285395D01*
X121921025Y-83000108D01*
X121793739Y-82698371D01*
X121701625Y-82384120D01*
X121645873Y-82061426D01*
X121627000Y-81730845D01*
X121627000Y-80542014D01*
X121702277Y-80654674D01*
X121845326Y-80797723D01*
X122013533Y-80910115D01*
X122200435Y-80987533D01*
X122398849Y-81027000D01*
X122601151Y-81027000D01*
X122799565Y-80987533D01*
X122986467Y-80910115D01*
X123003327Y-80898849D01*
X123973000Y-80898849D01*
X123973000Y-81101151D01*
X124012467Y-81299565D01*
X124089885Y-81486467D01*
X124202277Y-81654674D01*
X124345326Y-81797723D01*
X124513533Y-81910115D01*
X124700435Y-81987533D01*
X124898849Y-82027000D01*
X125101151Y-82027000D01*
X125299565Y-81987533D01*
X125486467Y-81910115D01*
X125654674Y-81797723D01*
X125797723Y-81654674D01*
X125910115Y-81486467D01*
X125987533Y-81299565D01*
X126027000Y-81101151D01*
X126027000Y-80898849D01*
X125987533Y-80700435D01*
X125910115Y-80513533D01*
X125797723Y-80345326D01*
X125654674Y-80202277D01*
X125486467Y-80089885D01*
X125299565Y-80012467D01*
X125101151Y-79973000D01*
X124898849Y-79973000D01*
X124700435Y-80012467D01*
X124513533Y-80089885D01*
X124345326Y-80202277D01*
X124202277Y-80345326D01*
X124089885Y-80513533D01*
X124012467Y-80700435D01*
X123973000Y-80898849D01*
X123003327Y-80898849D01*
X123154674Y-80797723D01*
X123297723Y-80654674D01*
X123410115Y-80486467D01*
X123487533Y-80299565D01*
X123527000Y-80101151D01*
X123527000Y-79898849D01*
X126473000Y-79898849D01*
X126473000Y-80101151D01*
X126512467Y-80299565D01*
X126589885Y-80486467D01*
X126702277Y-80654674D01*
X126845326Y-80797723D01*
X127013533Y-80910115D01*
X127200435Y-80987533D01*
X127398849Y-81027000D01*
X127601151Y-81027000D01*
X127799565Y-80987533D01*
X127986467Y-80910115D01*
X128003327Y-80898849D01*
X128973000Y-80898849D01*
X128973000Y-81101151D01*
X129012467Y-81299565D01*
X129089885Y-81486467D01*
X129202277Y-81654674D01*
X129345326Y-81797723D01*
X129513533Y-81910115D01*
X129700435Y-81987533D01*
X129898849Y-82027000D01*
X130101151Y-82027000D01*
X130299565Y-81987533D01*
X130486467Y-81910115D01*
X130654674Y-81797723D01*
X130797723Y-81654674D01*
X130910115Y-81486467D01*
X130987533Y-81299565D01*
X131027000Y-81101151D01*
X131027000Y-80898849D01*
X130987533Y-80700435D01*
X130910115Y-80513533D01*
X130797723Y-80345326D01*
X130654674Y-80202277D01*
X130486467Y-80089885D01*
X130299565Y-80012467D01*
X130101151Y-79973000D01*
X129898849Y-79973000D01*
X129700435Y-80012467D01*
X129513533Y-80089885D01*
X129345326Y-80202277D01*
X129202277Y-80345326D01*
X129089885Y-80513533D01*
X129012467Y-80700435D01*
X128973000Y-80898849D01*
X128003327Y-80898849D01*
X128154674Y-80797723D01*
X128297723Y-80654674D01*
X128410115Y-80486467D01*
X128487533Y-80299565D01*
X128527000Y-80101151D01*
X128527000Y-79898849D01*
X128487533Y-79700435D01*
X128410115Y-79513533D01*
X128297723Y-79345326D01*
X128154674Y-79202277D01*
X127986467Y-79089885D01*
X127799565Y-79012467D01*
X127601151Y-78973000D01*
X127398849Y-78973000D01*
X127200435Y-79012467D01*
X127013533Y-79089885D01*
X126845326Y-79202277D01*
X126702277Y-79345326D01*
X126589885Y-79513533D01*
X126512467Y-79700435D01*
X126473000Y-79898849D01*
X123527000Y-79898849D01*
X123487533Y-79700435D01*
X123410115Y-79513533D01*
X123297723Y-79345326D01*
X123154674Y-79202277D01*
X122986467Y-79089885D01*
X122799565Y-79012467D01*
X122601151Y-78973000D01*
X122398849Y-78973000D01*
X122200435Y-79012467D01*
X122013533Y-79089885D01*
X121852912Y-79197208D01*
X121927653Y-79031141D01*
X122091505Y-78760096D01*
X122286824Y-78510790D01*
X122510790Y-78286824D01*
X122760096Y-78091505D01*
X123031141Y-77927653D01*
X123319947Y-77797672D01*
X123622333Y-77703445D01*
X123933864Y-77646355D01*
X124253833Y-77627000D01*
X130746167Y-77627000D01*
X131066136Y-77646355D01*
G36*
X181714726Y-80144292D02*
G01*
X181924157Y-80194572D01*
X182123152Y-80276999D01*
X182306797Y-80389537D01*
X182470579Y-80529421D01*
X182610463Y-80693203D01*
X182723001Y-80876848D01*
X182805428Y-81075843D01*
X182855708Y-81285274D01*
X182872696Y-81501129D01*
X182855503Y-81783045D01*
X182803970Y-82061909D01*
X182720661Y-82326942D01*
X182702277Y-82345326D01*
X182589885Y-82513533D01*
X182512467Y-82700435D01*
X182501773Y-82754196D01*
X182453868Y-82832648D01*
X182277763Y-83054922D01*
X182075961Y-83254141D01*
X181852165Y-83426804D01*
X181797723Y-83345326D01*
X181654674Y-83202277D01*
X181486467Y-83089885D01*
X181299565Y-83012467D01*
X181101151Y-82973000D01*
X180898849Y-82973000D01*
X180700435Y-83012467D01*
X180513533Y-83089885D01*
X180345326Y-83202277D01*
X180202277Y-83345326D01*
X180089885Y-83513533D01*
X180012467Y-83700435D01*
X179973000Y-83898849D01*
X179973000Y-84101151D01*
X180012467Y-84299565D01*
X180043825Y-84375269D01*
X172270645Y-88366902D01*
X172237533Y-88200435D01*
X172160115Y-88013533D01*
X172047723Y-87845326D01*
X171904674Y-87702277D01*
X171736467Y-87589885D01*
X171549565Y-87512467D01*
X171351151Y-87473000D01*
X171148849Y-87473000D01*
X170950435Y-87512467D01*
X170763533Y-87589885D01*
X170750000Y-87598927D01*
X170736467Y-87589885D01*
X170549565Y-87512467D01*
X170351151Y-87473000D01*
X170148849Y-87473000D01*
X169950435Y-87512467D01*
X169763533Y-87589885D01*
X169595326Y-87702277D01*
X169452277Y-87845326D01*
X169339885Y-88013533D01*
X169262467Y-88200435D01*
X169223000Y-88398849D01*
X169223000Y-88601151D01*
X169262467Y-88799565D01*
X169339885Y-88986467D01*
X169452277Y-89154674D01*
X169595326Y-89297723D01*
X169763533Y-89410115D01*
X169950435Y-89487533D01*
X170049854Y-89507309D01*
X146590505Y-101554001D01*
X146275444Y-101692851D01*
X145949803Y-101792336D01*
X145614659Y-101852596D01*
X145270976Y-101873000D01*
X142953277Y-101873000D01*
X142619246Y-101853729D01*
X142293246Y-101796800D01*
X141975969Y-101702762D01*
X141671604Y-101572857D01*
X141384198Y-101408811D01*
X141117561Y-101212798D01*
X140875242Y-100987430D01*
X140660450Y-100735690D01*
X140476029Y-100460912D01*
X140322752Y-100163489D01*
X140117654Y-99702019D01*
X140006205Y-99402484D01*
X139933585Y-99095306D01*
X139899527Y-98781492D01*
X139904559Y-98465886D01*
X139948604Y-98153322D01*
X140030987Y-97848604D01*
X140150430Y-97556440D01*
X140305113Y-97281285D01*
X140492652Y-97027385D01*
X140710167Y-96798639D01*
X140954307Y-96598569D01*
X141224677Y-96428130D01*
X144021076Y-94898849D01*
X151473000Y-94898849D01*
X151473000Y-95101151D01*
X151512467Y-95299565D01*
X151589885Y-95486467D01*
X151702277Y-95654674D01*
X151845326Y-95797723D01*
X152013533Y-95910115D01*
X152200435Y-95987533D01*
X152398849Y-96027000D01*
X152601151Y-96027000D01*
X152799565Y-95987533D01*
X152986467Y-95910115D01*
X153154674Y-95797723D01*
X153297723Y-95654674D01*
X153410115Y-95486467D01*
X153487533Y-95299565D01*
X153527000Y-95101151D01*
X153527000Y-94898849D01*
X153487533Y-94700435D01*
X153410115Y-94513533D01*
X153297723Y-94345326D01*
X153154674Y-94202277D01*
X152986467Y-94089885D01*
X152799565Y-94012467D01*
X152601151Y-93973000D01*
X152398849Y-93973000D01*
X152200435Y-94012467D01*
X152013533Y-94089885D01*
X151845326Y-94202277D01*
X151702277Y-94345326D01*
X151589885Y-94513533D01*
X151512467Y-94700435D01*
X151473000Y-94898849D01*
X144021076Y-94898849D01*
X146771587Y-93394664D01*
X146781681Y-93445410D01*
X146896790Y-93723306D01*
X147063901Y-93973406D01*
X147276594Y-94186099D01*
X147526694Y-94353210D01*
X147804590Y-94468319D01*
X148099604Y-94527000D01*
X148400396Y-94527000D01*
X148695410Y-94468319D01*
X148973306Y-94353210D01*
X149223406Y-94186099D01*
X149436099Y-93973406D01*
X149603210Y-93723306D01*
X149718319Y-93445410D01*
X149777000Y-93150396D01*
X149777000Y-92849604D01*
X149718319Y-92554590D01*
X149603210Y-92276694D01*
X149436099Y-92026594D01*
X149378508Y-91969003D01*
X165268364Y-83279239D01*
X165202277Y-83345326D01*
X165089885Y-83513533D01*
X165012467Y-83700435D01*
X164973000Y-83898849D01*
X164973000Y-84101151D01*
X165012467Y-84299565D01*
X165089885Y-84486467D01*
X165202277Y-84654674D01*
X165345326Y-84797723D01*
X165513533Y-84910115D01*
X165700435Y-84987533D01*
X165898849Y-85027000D01*
X166101151Y-85027000D01*
X166299565Y-84987533D01*
X166486467Y-84910115D01*
X166654674Y-84797723D01*
X166797723Y-84654674D01*
X166910115Y-84486467D01*
X166987533Y-84299565D01*
X167027000Y-84101151D01*
X167027000Y-83898849D01*
X166987533Y-83700435D01*
X166910115Y-83513533D01*
X166797723Y-83345326D01*
X166654674Y-83202277D01*
X166486467Y-83089885D01*
X166299565Y-83012467D01*
X166101151Y-82973000D01*
X165898849Y-82973000D01*
X165788039Y-82995041D01*
X165963932Y-82898849D01*
X167473000Y-82898849D01*
X167473000Y-83101151D01*
X167512467Y-83299565D01*
X167589885Y-83486467D01*
X167702277Y-83654674D01*
X167845326Y-83797723D01*
X168013533Y-83910115D01*
X168200435Y-83987533D01*
X168398849Y-84027000D01*
X168601151Y-84027000D01*
X168799565Y-83987533D01*
X168986467Y-83910115D01*
X169003327Y-83898849D01*
X169973000Y-83898849D01*
X169973000Y-84101151D01*
X170012467Y-84299565D01*
X170089885Y-84486467D01*
X170202277Y-84654674D01*
X170345326Y-84797723D01*
X170513533Y-84910115D01*
X170700435Y-84987533D01*
X170898849Y-85027000D01*
X171101151Y-85027000D01*
X171299565Y-84987533D01*
X171486467Y-84910115D01*
X171654674Y-84797723D01*
X171797723Y-84654674D01*
X171910115Y-84486467D01*
X171987533Y-84299565D01*
X172027000Y-84101151D01*
X172027000Y-83898849D01*
X171987533Y-83700435D01*
X171910115Y-83513533D01*
X171797723Y-83345326D01*
X171654674Y-83202277D01*
X171486467Y-83089885D01*
X171299565Y-83012467D01*
X171101151Y-82973000D01*
X170898849Y-82973000D01*
X170700435Y-83012467D01*
X170513533Y-83089885D01*
X170345326Y-83202277D01*
X170202277Y-83345326D01*
X170089885Y-83513533D01*
X170012467Y-83700435D01*
X169973000Y-83898849D01*
X169003327Y-83898849D01*
X169154674Y-83797723D01*
X169297723Y-83654674D01*
X169410115Y-83486467D01*
X169487533Y-83299565D01*
X169527000Y-83101151D01*
X169527000Y-82898849D01*
X172473000Y-82898849D01*
X172473000Y-83101151D01*
X172512467Y-83299565D01*
X172589885Y-83486467D01*
X172702277Y-83654674D01*
X172845326Y-83797723D01*
X173013533Y-83910115D01*
X173200435Y-83987533D01*
X173398849Y-84027000D01*
X173601151Y-84027000D01*
X173799565Y-83987533D01*
X173986467Y-83910115D01*
X174003327Y-83898849D01*
X174973000Y-83898849D01*
X174973000Y-84101151D01*
X175012467Y-84299565D01*
X175089885Y-84486467D01*
X175202277Y-84654674D01*
X175345326Y-84797723D01*
X175513533Y-84910115D01*
X175700435Y-84987533D01*
X175898849Y-85027000D01*
X176101151Y-85027000D01*
X176299565Y-84987533D01*
X176486467Y-84910115D01*
X176654674Y-84797723D01*
X176797723Y-84654674D01*
X176910115Y-84486467D01*
X176987533Y-84299565D01*
X177027000Y-84101151D01*
X177027000Y-83898849D01*
X176987533Y-83700435D01*
X176910115Y-83513533D01*
X176797723Y-83345326D01*
X176654674Y-83202277D01*
X176486467Y-83089885D01*
X176299565Y-83012467D01*
X176101151Y-82973000D01*
X175898849Y-82973000D01*
X175700435Y-83012467D01*
X175513533Y-83089885D01*
X175345326Y-83202277D01*
X175202277Y-83345326D01*
X175089885Y-83513533D01*
X175012467Y-83700435D01*
X174973000Y-83898849D01*
X174003327Y-83898849D01*
X174154674Y-83797723D01*
X174297723Y-83654674D01*
X174410115Y-83486467D01*
X174487533Y-83299565D01*
X174527000Y-83101151D01*
X174527000Y-82898849D01*
X177473000Y-82898849D01*
X177473000Y-83101151D01*
X177512467Y-83299565D01*
X177589885Y-83486467D01*
X177702277Y-83654674D01*
X177845326Y-83797723D01*
X178013533Y-83910115D01*
X178200435Y-83987533D01*
X178398849Y-84027000D01*
X178601151Y-84027000D01*
X178799565Y-83987533D01*
X178986467Y-83910115D01*
X179154674Y-83797723D01*
X179297723Y-83654674D01*
X179410115Y-83486467D01*
X179487533Y-83299565D01*
X179527000Y-83101151D01*
X179527000Y-82898849D01*
X179487533Y-82700435D01*
X179410115Y-82513533D01*
X179297723Y-82345326D01*
X179154674Y-82202277D01*
X178986467Y-82089885D01*
X178799565Y-82012467D01*
X178601151Y-81973000D01*
X178398849Y-81973000D01*
X178200435Y-82012467D01*
X178013533Y-82089885D01*
X177845326Y-82202277D01*
X177702277Y-82345326D01*
X177589885Y-82513533D01*
X177512467Y-82700435D01*
X177473000Y-82898849D01*
X174527000Y-82898849D01*
X174487533Y-82700435D01*
X174410115Y-82513533D01*
X174297723Y-82345326D01*
X174154674Y-82202277D01*
X173986467Y-82089885D01*
X173799565Y-82012467D01*
X173601151Y-81973000D01*
X173398849Y-81973000D01*
X173200435Y-82012467D01*
X173013533Y-82089885D01*
X172845326Y-82202277D01*
X172702277Y-82345326D01*
X172589885Y-82513533D01*
X172512467Y-82700435D01*
X172473000Y-82898849D01*
X169527000Y-82898849D01*
X169487533Y-82700435D01*
X169410115Y-82513533D01*
X169297723Y-82345326D01*
X169154674Y-82202277D01*
X168986467Y-82089885D01*
X168799565Y-82012467D01*
X168601151Y-81973000D01*
X168398849Y-81973000D01*
X168200435Y-82012467D01*
X168013533Y-82089885D01*
X167845326Y-82202277D01*
X167702277Y-82345326D01*
X167589885Y-82513533D01*
X167512467Y-82700435D01*
X167473000Y-82898849D01*
X165963932Y-82898849D01*
X170384736Y-80481223D01*
X170713642Y-80327230D01*
X171055386Y-80216712D01*
X171408252Y-80149703D01*
X171770710Y-80127000D01*
X181495004Y-80127000D01*
X181714726Y-80144292D01*
G37*
X181714726Y-80144292D02*
X181924157Y-80194572D01*
X182123152Y-80276999D01*
X182306797Y-80389537D01*
X182470579Y-80529421D01*
X182610463Y-80693203D01*
X182723001Y-80876848D01*
X182805428Y-81075843D01*
X182855708Y-81285274D01*
X182872696Y-81501129D01*
X182855503Y-81783045D01*
X182803970Y-82061909D01*
X182720661Y-82326942D01*
X182702277Y-82345326D01*
X182589885Y-82513533D01*
X182512467Y-82700435D01*
X182501773Y-82754196D01*
X182453868Y-82832648D01*
X182277763Y-83054922D01*
X182075961Y-83254141D01*
X181852165Y-83426804D01*
X181797723Y-83345326D01*
X181654674Y-83202277D01*
X181486467Y-83089885D01*
X181299565Y-83012467D01*
X181101151Y-82973000D01*
X180898849Y-82973000D01*
X180700435Y-83012467D01*
X180513533Y-83089885D01*
X180345326Y-83202277D01*
X180202277Y-83345326D01*
X180089885Y-83513533D01*
X180012467Y-83700435D01*
X179973000Y-83898849D01*
X179973000Y-84101151D01*
X180012467Y-84299565D01*
X180043825Y-84375269D01*
X172270645Y-88366902D01*
X172237533Y-88200435D01*
X172160115Y-88013533D01*
X172047723Y-87845326D01*
X171904674Y-87702277D01*
X171736467Y-87589885D01*
X171549565Y-87512467D01*
X171351151Y-87473000D01*
X171148849Y-87473000D01*
X170950435Y-87512467D01*
X170763533Y-87589885D01*
X170750000Y-87598927D01*
X170736467Y-87589885D01*
X170549565Y-87512467D01*
X170351151Y-87473000D01*
X170148849Y-87473000D01*
X169950435Y-87512467D01*
X169763533Y-87589885D01*
X169595326Y-87702277D01*
X169452277Y-87845326D01*
X169339885Y-88013533D01*
X169262467Y-88200435D01*
X169223000Y-88398849D01*
X169223000Y-88601151D01*
X169262467Y-88799565D01*
X169339885Y-88986467D01*
X169452277Y-89154674D01*
X169595326Y-89297723D01*
X169763533Y-89410115D01*
X169950435Y-89487533D01*
X170049854Y-89507309D01*
X146590505Y-101554001D01*
X146275444Y-101692851D01*
X145949803Y-101792336D01*
X145614659Y-101852596D01*
X145270976Y-101873000D01*
X142953277Y-101873000D01*
X142619246Y-101853729D01*
X142293246Y-101796800D01*
X141975969Y-101702762D01*
X141671604Y-101572857D01*
X141384198Y-101408811D01*
X141117561Y-101212798D01*
X140875242Y-100987430D01*
X140660450Y-100735690D01*
X140476029Y-100460912D01*
X140322752Y-100163489D01*
X140117654Y-99702019D01*
X140006205Y-99402484D01*
X139933585Y-99095306D01*
X139899527Y-98781492D01*
X139904559Y-98465886D01*
X139948604Y-98153322D01*
X140030987Y-97848604D01*
X140150430Y-97556440D01*
X140305113Y-97281285D01*
X140492652Y-97027385D01*
X140710167Y-96798639D01*
X140954307Y-96598569D01*
X141224677Y-96428130D01*
X144021076Y-94898849D01*
X151473000Y-94898849D01*
X151473000Y-95101151D01*
X151512467Y-95299565D01*
X151589885Y-95486467D01*
X151702277Y-95654674D01*
X151845326Y-95797723D01*
X152013533Y-95910115D01*
X152200435Y-95987533D01*
X152398849Y-96027000D01*
X152601151Y-96027000D01*
X152799565Y-95987533D01*
X152986467Y-95910115D01*
X153154674Y-95797723D01*
X153297723Y-95654674D01*
X153410115Y-95486467D01*
X153487533Y-95299565D01*
X153527000Y-95101151D01*
X153527000Y-94898849D01*
X153487533Y-94700435D01*
X153410115Y-94513533D01*
X153297723Y-94345326D01*
X153154674Y-94202277D01*
X152986467Y-94089885D01*
X152799565Y-94012467D01*
X152601151Y-93973000D01*
X152398849Y-93973000D01*
X152200435Y-94012467D01*
X152013533Y-94089885D01*
X151845326Y-94202277D01*
X151702277Y-94345326D01*
X151589885Y-94513533D01*
X151512467Y-94700435D01*
X151473000Y-94898849D01*
X144021076Y-94898849D01*
X146771587Y-93394664D01*
X146781681Y-93445410D01*
X146896790Y-93723306D01*
X147063901Y-93973406D01*
X147276594Y-94186099D01*
X147526694Y-94353210D01*
X147804590Y-94468319D01*
X148099604Y-94527000D01*
X148400396Y-94527000D01*
X148695410Y-94468319D01*
X148973306Y-94353210D01*
X149223406Y-94186099D01*
X149436099Y-93973406D01*
X149603210Y-93723306D01*
X149718319Y-93445410D01*
X149777000Y-93150396D01*
X149777000Y-92849604D01*
X149718319Y-92554590D01*
X149603210Y-92276694D01*
X149436099Y-92026594D01*
X149378508Y-91969003D01*
X165268364Y-83279239D01*
X165202277Y-83345326D01*
X165089885Y-83513533D01*
X165012467Y-83700435D01*
X164973000Y-83898849D01*
X164973000Y-84101151D01*
X165012467Y-84299565D01*
X165089885Y-84486467D01*
X165202277Y-84654674D01*
X165345326Y-84797723D01*
X165513533Y-84910115D01*
X165700435Y-84987533D01*
X165898849Y-85027000D01*
X166101151Y-85027000D01*
X166299565Y-84987533D01*
X166486467Y-84910115D01*
X166654674Y-84797723D01*
X166797723Y-84654674D01*
X166910115Y-84486467D01*
X166987533Y-84299565D01*
X167027000Y-84101151D01*
X167027000Y-83898849D01*
X166987533Y-83700435D01*
X166910115Y-83513533D01*
X166797723Y-83345326D01*
X166654674Y-83202277D01*
X166486467Y-83089885D01*
X166299565Y-83012467D01*
X166101151Y-82973000D01*
X165898849Y-82973000D01*
X165788039Y-82995041D01*
X165963932Y-82898849D01*
X167473000Y-82898849D01*
X167473000Y-83101151D01*
X167512467Y-83299565D01*
X167589885Y-83486467D01*
X167702277Y-83654674D01*
X167845326Y-83797723D01*
X168013533Y-83910115D01*
X168200435Y-83987533D01*
X168398849Y-84027000D01*
X168601151Y-84027000D01*
X168799565Y-83987533D01*
X168986467Y-83910115D01*
X169003327Y-83898849D01*
X169973000Y-83898849D01*
X169973000Y-84101151D01*
X170012467Y-84299565D01*
X170089885Y-84486467D01*
X170202277Y-84654674D01*
X170345326Y-84797723D01*
X170513533Y-84910115D01*
X170700435Y-84987533D01*
X170898849Y-85027000D01*
X171101151Y-85027000D01*
X171299565Y-84987533D01*
X171486467Y-84910115D01*
X171654674Y-84797723D01*
X171797723Y-84654674D01*
X171910115Y-84486467D01*
X171987533Y-84299565D01*
X172027000Y-84101151D01*
X172027000Y-83898849D01*
X171987533Y-83700435D01*
X171910115Y-83513533D01*
X171797723Y-83345326D01*
X171654674Y-83202277D01*
X171486467Y-83089885D01*
X171299565Y-83012467D01*
X171101151Y-82973000D01*
X170898849Y-82973000D01*
X170700435Y-83012467D01*
X170513533Y-83089885D01*
X170345326Y-83202277D01*
X170202277Y-83345326D01*
X170089885Y-83513533D01*
X170012467Y-83700435D01*
X169973000Y-83898849D01*
X169003327Y-83898849D01*
X169154674Y-83797723D01*
X169297723Y-83654674D01*
X169410115Y-83486467D01*
X169487533Y-83299565D01*
X169527000Y-83101151D01*
X169527000Y-82898849D01*
X172473000Y-82898849D01*
X172473000Y-83101151D01*
X172512467Y-83299565D01*
X172589885Y-83486467D01*
X172702277Y-83654674D01*
X172845326Y-83797723D01*
X173013533Y-83910115D01*
X173200435Y-83987533D01*
X173398849Y-84027000D01*
X173601151Y-84027000D01*
X173799565Y-83987533D01*
X173986467Y-83910115D01*
X174003327Y-83898849D01*
X174973000Y-83898849D01*
X174973000Y-84101151D01*
X175012467Y-84299565D01*
X175089885Y-84486467D01*
X175202277Y-84654674D01*
X175345326Y-84797723D01*
X175513533Y-84910115D01*
X175700435Y-84987533D01*
X175898849Y-85027000D01*
X176101151Y-85027000D01*
X176299565Y-84987533D01*
X176486467Y-84910115D01*
X176654674Y-84797723D01*
X176797723Y-84654674D01*
X176910115Y-84486467D01*
X176987533Y-84299565D01*
X177027000Y-84101151D01*
X177027000Y-83898849D01*
X176987533Y-83700435D01*
X176910115Y-83513533D01*
X176797723Y-83345326D01*
X176654674Y-83202277D01*
X176486467Y-83089885D01*
X176299565Y-83012467D01*
X176101151Y-82973000D01*
X175898849Y-82973000D01*
X175700435Y-83012467D01*
X175513533Y-83089885D01*
X175345326Y-83202277D01*
X175202277Y-83345326D01*
X175089885Y-83513533D01*
X175012467Y-83700435D01*
X174973000Y-83898849D01*
X174003327Y-83898849D01*
X174154674Y-83797723D01*
X174297723Y-83654674D01*
X174410115Y-83486467D01*
X174487533Y-83299565D01*
X174527000Y-83101151D01*
X174527000Y-82898849D01*
X177473000Y-82898849D01*
X177473000Y-83101151D01*
X177512467Y-83299565D01*
X177589885Y-83486467D01*
X177702277Y-83654674D01*
X177845326Y-83797723D01*
X178013533Y-83910115D01*
X178200435Y-83987533D01*
X178398849Y-84027000D01*
X178601151Y-84027000D01*
X178799565Y-83987533D01*
X178986467Y-83910115D01*
X179154674Y-83797723D01*
X179297723Y-83654674D01*
X179410115Y-83486467D01*
X179487533Y-83299565D01*
X179527000Y-83101151D01*
X179527000Y-82898849D01*
X179487533Y-82700435D01*
X179410115Y-82513533D01*
X179297723Y-82345326D01*
X179154674Y-82202277D01*
X178986467Y-82089885D01*
X178799565Y-82012467D01*
X178601151Y-81973000D01*
X178398849Y-81973000D01*
X178200435Y-82012467D01*
X178013533Y-82089885D01*
X177845326Y-82202277D01*
X177702277Y-82345326D01*
X177589885Y-82513533D01*
X177512467Y-82700435D01*
X177473000Y-82898849D01*
X174527000Y-82898849D01*
X174487533Y-82700435D01*
X174410115Y-82513533D01*
X174297723Y-82345326D01*
X174154674Y-82202277D01*
X173986467Y-82089885D01*
X173799565Y-82012467D01*
X173601151Y-81973000D01*
X173398849Y-81973000D01*
X173200435Y-82012467D01*
X173013533Y-82089885D01*
X172845326Y-82202277D01*
X172702277Y-82345326D01*
X172589885Y-82513533D01*
X172512467Y-82700435D01*
X172473000Y-82898849D01*
X169527000Y-82898849D01*
X169487533Y-82700435D01*
X169410115Y-82513533D01*
X169297723Y-82345326D01*
X169154674Y-82202277D01*
X168986467Y-82089885D01*
X168799565Y-82012467D01*
X168601151Y-81973000D01*
X168398849Y-81973000D01*
X168200435Y-82012467D01*
X168013533Y-82089885D01*
X167845326Y-82202277D01*
X167702277Y-82345326D01*
X167589885Y-82513533D01*
X167512467Y-82700435D01*
X167473000Y-82898849D01*
X165963932Y-82898849D01*
X170384736Y-80481223D01*
X170713642Y-80327230D01*
X171055386Y-80216712D01*
X171408252Y-80149703D01*
X171770710Y-80127000D01*
X181495004Y-80127000D01*
X181714726Y-80144292D01*
M02*
