M48
; DRILL file {KiCad 5.1.6-c6e7f7d~87~ubuntu18.04.1} date Wed Jan  6 14:43:35 2021
; FORMAT={-:-/ absolute / inch / decimal}
; #@! TF.CreationDate,2021-01-06T14:43:35+00:00
; #@! TF.GenerationSoftware,Kicad,Pcbnew,5.1.6-c6e7f7d~87~ubuntu18.04.1
; #@! TF.FileFunction,Plated,1,4,PTH
FMAT,2
INCH
T1C0.0157
T2C0.0236
T3C0.0315
T4C0.0354
T5C0.0394
T6C0.0400
T7C0.0433
T8C0.0512
T9C0.1693
%
G90
G05
T1
X4.2815Y-2.5
X4.2815Y-2.6575
X4.2815Y-2.7953
X4.2815Y-2.9429
X4.2815Y-3.1004
X4.2913Y-3.1988
X4.3012Y-2.4213
X4.3012Y-2.5787
X4.3012Y-2.7264
X4.3012Y-2.8642
X4.311Y-3.0217
X4.3504Y-3.1496
X4.3996Y-2.0177
X4.4094Y-3.2087
X4.4291Y-3.1496
X4.5079Y-2.0177
X4.5276Y-3.189
X4.626Y-2.0177
X4.626Y-3.1496
X4.7244Y-2.0177
X4.7244Y-3.189
X4.8228Y-2.0177
X4.8228Y-3.1496
X4.9114Y-2.0177
X4.9213Y-2.4606
X4.9213Y-2.8543
X4.9213Y-3.189
X5.0039Y-2.4213
X5.0039Y-2.815
X5.0197Y-2.0177
X5.0197Y-3.1496
X5.1181Y-2.0079
X5.1181Y-3.189
X5.1378Y-2.374
X5.1378Y-2.7677
X5.1772Y-1.9488
X5.2165Y-3.1496
X5.2223Y-1.712
X5.2362Y-1.8504
X5.2739Y-2.2191
X5.2739Y-2.2686
X5.2739Y-2.6131
X5.2739Y-2.6631
X5.3011Y-1.7907
X5.315Y-3.189
X5.3248Y-2.4016
X5.3248Y-2.5
X5.3248Y-2.7953
X5.3248Y-2.8937
X5.3543Y-1.9685
X5.3798Y-1.712
X5.3798Y-1.8695
X5.4134Y-3.1496
X5.4232Y-2.4016
X5.4232Y-2.5
X5.4232Y-2.7953
X5.4232Y-2.8937
X5.4331Y-2.0472
X5.4586Y-1.7907
X5.4586Y-1.9482
X5.5118Y-2.126
X5.5118Y-3.189
X5.5177Y-2.5039
X5.5177Y-2.8976
X5.5373Y-1.712
X5.5373Y-1.8695
X5.5373Y-2.027
X5.5807Y-2.1654
X5.5906Y-2.2638
X5.5906Y-2.6575
X5.6102Y-3.1496
X5.6102Y-3.7894
X5.6102Y-3.8878
X5.616Y-1.7907
X5.616Y-1.9482
X5.616Y-2.1057
X5.6201Y-2.4409
X5.6201Y-2.4803
X5.6201Y-2.8346
X5.6201Y-2.874
X5.6299Y-3.8189
X5.6299Y-3.8583
X5.6948Y-1.712
X5.6948Y-1.8695
X5.6948Y-2.027
X5.6988Y-2.1457
X5.7087Y-3.189
X5.7735Y-1.9482
X5.7735Y-2.1057
X5.8071Y-2.3031
X5.8071Y-2.6969
X5.8071Y-3.1496
X5.8268Y-1.8012
X5.8465Y-2.1752
X5.8523Y-2.027
X5.9055Y-2.1654
X5.9055Y-3.1988
X5.9449Y-2.628
X5.9449Y-3.0217
X6.0039Y-3.1693
X6.0039Y-3.7402
X6.0433Y-2.2736
X6.0433Y-2.6673
X6.0728Y-2.1555
X6.0925Y-1.8701
X6.1024Y-2.1063
X6.1122Y-1.6831
X6.1122Y-3.2579
X6.1614Y-1.8012
X6.1672Y-1.9089
X6.1713Y-2.1654
X6.1811Y-2.5984
X6.1811Y-2.9921
X6.2106Y-2.1161
X6.2205Y-3.2382
X6.2853Y-1.712
X6.2853Y-1.8695
X6.2894Y-2.1654
X6.3386Y-1.7907
X6.3386Y-3.3071
X6.3681Y-2.1161
X6.3681Y-2.4213
X6.3681Y-2.4606
X6.3681Y-2.8071
X6.3681Y-2.8465
X6.3976Y-2.628
X6.3976Y-3.0217
X6.4034Y-1.9089
X6.4272Y-2.1654
X6.437Y-3.2677
X6.4428Y-1.712
X6.4705Y-2.3976
X6.4705Y-2.7835
X6.4822Y-1.8301
X6.5354Y-3.3071
X6.5453Y-2.1161
X6.5609Y-1.9089
X6.565Y-2.4016
X6.565Y-2.5
X6.565Y-2.7953
X6.565Y-2.8937
X6.5846Y-1.7126
X6.624Y-2.1654
X6.6339Y-3.2677
X6.6397Y-1.8301
X6.6634Y-2.4016
X6.6634Y-2.5
X6.6634Y-2.7953
X6.6634Y-2.8937
X6.7028Y-3.4843
X6.7028Y-3.622
X6.7126Y-2.1161
X6.7163Y-2.6208
X6.7163Y-2.6708
X6.7168Y-3.0138
X6.7168Y-3.0648
X6.7184Y-1.9089
X6.7323Y-3.3071
X6.7421Y-3.4843
X6.7421Y-3.622
X6.7618Y-1.7224
X6.7618Y-2.1654
X6.8091Y-2.5
X6.811Y-1.9291
X6.8307Y-2.1161
X6.8307Y-3.2677
X6.8365Y-1.8695
X6.8386Y-2.9232
X6.8799Y-1.7717
X6.8996Y-2.1752
X6.9094Y-1.7913
X6.9291Y-1.8898
X6.9291Y-3.3071
X6.9429Y-2.4528
X6.9587Y-2.1063
X6.9724Y-2.876
X7.0177Y-2.1654
X7.0276Y-3.2677
X7.0354Y-2.4882
X7.0354Y-2.8819
X7.1063Y-2.0276
X7.126Y-3.3071
X7.1457Y-2.1654
X7.1909Y-1.9482
X7.2244Y-3.2677
X7.2302Y-1.8301
X7.2736Y-1.7618
X7.309Y-1.9089
X7.3228Y-2.1654
X7.3228Y-3.3071
X7.3483Y-1.712
X7.3917Y-1.8602
X7.4016Y-2.0472
T2
X4.0463Y-3.8976
X4.0834Y-3.8079
X4.0834Y-3.9874
X4.1732Y-3.7707
X4.1732Y-4.0246
X4.263Y-3.8079
X4.263Y-3.9874
X4.3002Y-3.8976
X7.5108Y-3.8976
X7.548Y-3.8079
X7.548Y-3.9874
X7.6378Y-3.7707
X7.6378Y-4.0246
X7.7276Y-3.8079
X7.7276Y-3.9874
X7.7648Y-3.8976
X7.5108Y-2.2047
X7.548Y-2.1149
X7.548Y-2.2945
X7.6378Y-2.0778
X7.6378Y-2.3317
X7.7276Y-2.1149
X7.7276Y-2.2945
X7.7648Y-2.2047
X4.0463Y-2.2047
X4.0834Y-2.1149
X4.0834Y-2.2945
X4.1732Y-2.0778
X4.1732Y-2.3317
X4.263Y-2.1149
X4.263Y-2.2945
X4.3002Y-2.2047
T3
X5.4366Y-3.4843
X5.8366Y-3.4843
T4
X5.4366Y-3.6614
X5.8366Y-3.6614
T5
X6.6866Y-3.837
X6.6866Y-3.937
X6.7866Y-3.837
X6.7866Y-3.937
X6.8866Y-3.837
X6.8866Y-3.937
X6.9866Y-3.837
X6.9866Y-3.937
X7.0866Y-3.837
X7.0866Y-3.937
T6
X6.2205Y-2.3508
X6.2205Y-2.4508
X6.6142Y-2.3508
X6.6142Y-2.4508
X6.6142Y-2.5508
X5.374Y-2.7445
X5.374Y-2.8445
X5.374Y-2.9445
X5.7677Y-2.8445
X5.7677Y-2.9445
X6.2205Y-2.7445
X6.2205Y-2.8445
X6.6142Y-2.7445
X6.6142Y-2.8445
X6.6142Y-2.9445
X5.374Y-2.3508
X5.374Y-2.4508
X5.374Y-2.5508
X5.7677Y-2.4508
X5.7677Y-2.5508
T7
X5.0846Y-3.5039
X5.1846Y-3.5039
T8
X7.5197Y-2.6378
X7.5197Y-2.8378
X4.4587Y-2.6004
X4.4587Y-2.8004
X7.5197Y-3.0315
X7.5197Y-3.2315
X4.4587Y-2.2165
X4.4587Y-2.4165
T9
X4.1732Y-3.8976
X7.6378Y-3.8976
X7.6378Y-2.2047
X4.1732Y-2.2047
T0
M30
