G04 #@! TF.GenerationSoftware,KiCad,Pcbnew,5.1.6-c6e7f7d~87~ubuntu18.04.1*
G04 #@! TF.CreationDate,2021-01-06T14:43:31+00:00*
G04 #@! TF.ProjectId,multi-smtpa,6d756c74-692d-4736-9d74-70612e6b6963,rev?*
G04 #@! TF.SameCoordinates,Original*
G04 #@! TF.FileFunction,Legend,Bot*
G04 #@! TF.FilePolarity,Positive*
%FSLAX46Y46*%
G04 Gerber Fmt 4.6, Leading zero omitted, Abs format (unit mm)*
G04 Created by KiCad (PCBNEW 5.1.6-c6e7f7d~87~ubuntu18.04.1) date 2021-01-06 14:43:31*
%MOMM*%
%LPD*%
G01*
G04 APERTURE LIST*
%ADD10C,0.120000*%
%ADD11C,0.150000*%
G04 APERTURE END LIST*
D10*
X142250000Y-89000000D02*
X137250000Y-84000000D01*
X137250000Y-94000000D02*
X142250000Y-89000000D01*
X132500000Y-89500000D02*
X137250000Y-94000000D01*
X132250000Y-89000000D02*
X137250000Y-84000000D01*
D11*
X187214285Y-69619047D02*
X186547619Y-69619047D01*
X187595238Y-69857142D02*
X186880952Y-70095238D01*
X186880952Y-69476190D01*
X187547619Y-69190476D02*
X187547619Y-68571428D01*
X187166666Y-68904761D01*
X187166666Y-68761904D01*
X187119047Y-68666666D01*
X187071428Y-68619047D01*
X186976190Y-68571428D01*
X186738095Y-68571428D01*
X186642857Y-68619047D01*
X186595238Y-68666666D01*
X186547619Y-68761904D01*
X186547619Y-69047619D01*
X186595238Y-69142857D01*
X186642857Y-69190476D01*
X186547619Y-68142857D02*
X187214285Y-68142857D01*
X187119047Y-68142857D02*
X187166666Y-68095238D01*
X187214285Y-68000000D01*
X187214285Y-67857142D01*
X187166666Y-67761904D01*
X187071428Y-67714285D01*
X186547619Y-67714285D01*
X187071428Y-67714285D02*
X187166666Y-67666666D01*
X187214285Y-67571428D01*
X187214285Y-67428571D01*
X187166666Y-67333333D01*
X187071428Y-67285714D01*
X186547619Y-67285714D01*
X186547619Y-66809523D02*
X187214285Y-66809523D01*
X187119047Y-66809523D02*
X187166666Y-66761904D01*
X187214285Y-66666666D01*
X187214285Y-66523809D01*
X187166666Y-66428571D01*
X187071428Y-66380952D01*
X186547619Y-66380952D01*
X187071428Y-66380952D02*
X187166666Y-66333333D01*
X187214285Y-66238095D01*
X187214285Y-66095238D01*
X187166666Y-66000000D01*
X187071428Y-65952380D01*
X186547619Y-65952380D01*
D10*
X188250000Y-99000000D02*
X184250000Y-99000000D01*
X186250000Y-99000000D02*
X186250000Y-56000000D01*
X188250000Y-56000000D02*
X184250000Y-56000000D01*
X194000000Y-61750000D02*
X194000000Y-65750000D01*
D11*
X130428571Y-89904761D02*
X130047619Y-89904761D01*
X129857142Y-90000000D01*
X129666666Y-90190476D01*
X129571428Y-90571428D01*
X129571428Y-91238095D01*
X129666666Y-91619047D01*
X129857142Y-91809523D01*
X130047619Y-91904761D01*
X130428571Y-91904761D01*
X130619047Y-91809523D01*
X130809523Y-91619047D01*
X130904761Y-91238095D01*
X130904761Y-90571428D01*
X130809523Y-90190476D01*
X130619047Y-90000000D01*
X130428571Y-89904761D01*
X128904761Y-91904761D02*
X127857142Y-90571428D01*
X128904761Y-90571428D02*
X127857142Y-91904761D01*
X127380952Y-90571428D02*
X126619047Y-90571428D01*
X127095238Y-91904761D02*
X127095238Y-90190476D01*
X127000000Y-90000000D01*
X126809523Y-89904761D01*
X126619047Y-89904761D01*
X125666666Y-91904761D02*
X125857142Y-91809523D01*
X125952380Y-91714285D01*
X126047619Y-91523809D01*
X126047619Y-90952380D01*
X125952380Y-90761904D01*
X125857142Y-90666666D01*
X125666666Y-90571428D01*
X125380952Y-90571428D01*
X125190476Y-90666666D01*
X125095238Y-90761904D01*
X125000000Y-90952380D01*
X125000000Y-91523809D01*
X125095238Y-91714285D01*
X125190476Y-91809523D01*
X125380952Y-91904761D01*
X125666666Y-91904761D01*
X124142857Y-91904761D02*
X124142857Y-90571428D01*
X124142857Y-90952380D02*
X124047619Y-90761904D01*
X123952380Y-90666666D01*
X123761904Y-90571428D01*
X123571428Y-90571428D01*
X122047619Y-91904761D02*
X122047619Y-89904761D01*
X122047619Y-91809523D02*
X122238095Y-91904761D01*
X122619047Y-91904761D01*
X122809523Y-91809523D01*
X122904761Y-91714285D01*
X123000000Y-91523809D01*
X123000000Y-90952380D01*
X122904761Y-90761904D01*
X122809523Y-90666666D01*
X122619047Y-90571428D01*
X122238095Y-90571428D01*
X122047619Y-90666666D01*
X119857142Y-89904761D02*
X119190476Y-91904761D01*
X118523809Y-89904761D01*
X116904761Y-91904761D02*
X117857142Y-91904761D01*
X117857142Y-89904761D01*
X115095238Y-91714285D02*
X115190476Y-91809523D01*
X115476190Y-91904761D01*
X115666666Y-91904761D01*
X115952380Y-91809523D01*
X116142857Y-91619047D01*
X116238095Y-91428571D01*
X116333333Y-91047619D01*
X116333333Y-90761904D01*
X116238095Y-90380952D01*
X116142857Y-90190476D01*
X115952380Y-90000000D01*
X115666666Y-89904761D01*
X115476190Y-89904761D01*
X115190476Y-90000000D01*
X115095238Y-90095238D01*
D10*
X106000000Y-63750000D02*
X106500000Y-63750000D01*
D11*
X116690476Y-60785714D02*
X116690476Y-61452380D01*
X116928571Y-60404761D02*
X117166666Y-61119047D01*
X116547619Y-61119047D01*
X116261904Y-61452380D02*
X115738095Y-60785714D01*
X116261904Y-60785714D02*
X115738095Y-61452380D01*
X114595238Y-61452380D02*
X114595238Y-60452380D01*
X114261904Y-61166666D01*
X113928571Y-60452380D01*
X113928571Y-61452380D01*
X113023809Y-60785714D02*
X113023809Y-61452380D01*
X113261904Y-60404761D02*
X113500000Y-61119047D01*
X112880952Y-61119047D01*
X111738095Y-61452380D02*
X111738095Y-60452380D01*
X111738095Y-60928571D02*
X111166666Y-60928571D01*
X111166666Y-61452380D02*
X111166666Y-60452380D01*
X110547619Y-61452380D02*
X110642857Y-61404761D01*
X110690476Y-61357142D01*
X110738095Y-61261904D01*
X110738095Y-60976190D01*
X110690476Y-60880952D01*
X110642857Y-60833333D01*
X110547619Y-60785714D01*
X110404761Y-60785714D01*
X110309523Y-60833333D01*
X110261904Y-60880952D01*
X110214285Y-60976190D01*
X110214285Y-61261904D01*
X110261904Y-61357142D01*
X110309523Y-61404761D01*
X110404761Y-61452380D01*
X110547619Y-61452380D01*
X109642857Y-61452380D02*
X109738095Y-61404761D01*
X109785714Y-61309523D01*
X109785714Y-60452380D01*
X108880952Y-61404761D02*
X108976190Y-61452380D01*
X109166666Y-61452380D01*
X109261904Y-61404761D01*
X109309523Y-61309523D01*
X109309523Y-60928571D01*
X109261904Y-60833333D01*
X109166666Y-60785714D01*
X108976190Y-60785714D01*
X108880952Y-60833333D01*
X108833333Y-60928571D01*
X108833333Y-61023809D01*
X109309523Y-61119047D01*
X116654761Y-62880952D02*
X116750000Y-62833333D01*
X116797619Y-62785714D01*
X116845238Y-62690476D01*
X116845238Y-62642857D01*
X116797619Y-62547619D01*
X116750000Y-62500000D01*
X116654761Y-62452380D01*
X116464285Y-62452380D01*
X116369047Y-62500000D01*
X116321428Y-62547619D01*
X116273809Y-62642857D01*
X116273809Y-62690476D01*
X116321428Y-62785714D01*
X116369047Y-62833333D01*
X116464285Y-62880952D01*
X116654761Y-62880952D01*
X116750000Y-62928571D01*
X116797619Y-62976190D01*
X116845238Y-63071428D01*
X116845238Y-63261904D01*
X116797619Y-63357142D01*
X116750000Y-63404761D01*
X116654761Y-63452380D01*
X116464285Y-63452380D01*
X116369047Y-63404761D01*
X116321428Y-63357142D01*
X116273809Y-63261904D01*
X116273809Y-63071428D01*
X116321428Y-62976190D01*
X116369047Y-62928571D01*
X116464285Y-62880952D01*
X115702380Y-62880952D02*
X115797619Y-62833333D01*
X115845238Y-62785714D01*
X115892857Y-62690476D01*
X115892857Y-62642857D01*
X115845238Y-62547619D01*
X115797619Y-62500000D01*
X115702380Y-62452380D01*
X115511904Y-62452380D01*
X115416666Y-62500000D01*
X115369047Y-62547619D01*
X115321428Y-62642857D01*
X115321428Y-62690476D01*
X115369047Y-62785714D01*
X115416666Y-62833333D01*
X115511904Y-62880952D01*
X115702380Y-62880952D01*
X115797619Y-62928571D01*
X115845238Y-62976190D01*
X115892857Y-63071428D01*
X115892857Y-63261904D01*
X115845238Y-63357142D01*
X115797619Y-63404761D01*
X115702380Y-63452380D01*
X115511904Y-63452380D01*
X115416666Y-63404761D01*
X115369047Y-63357142D01*
X115321428Y-63261904D01*
X115321428Y-63071428D01*
X115369047Y-62976190D01*
X115416666Y-62928571D01*
X115511904Y-62880952D01*
X114892857Y-63452380D02*
X114892857Y-62785714D01*
X114892857Y-62880952D02*
X114845238Y-62833333D01*
X114750000Y-62785714D01*
X114607142Y-62785714D01*
X114511904Y-62833333D01*
X114464285Y-62928571D01*
X114464285Y-63452380D01*
X114464285Y-62928571D02*
X114416666Y-62833333D01*
X114321428Y-62785714D01*
X114178571Y-62785714D01*
X114083333Y-62833333D01*
X114035714Y-62928571D01*
X114035714Y-63452380D01*
X113559523Y-63452380D02*
X113559523Y-62785714D01*
X113559523Y-62880952D02*
X113511904Y-62833333D01*
X113416666Y-62785714D01*
X113273809Y-62785714D01*
X113178571Y-62833333D01*
X113130952Y-62928571D01*
X113130952Y-63452380D01*
X113130952Y-62928571D02*
X113083333Y-62833333D01*
X112988095Y-62785714D01*
X112845238Y-62785714D01*
X112750000Y-62833333D01*
X112702380Y-62928571D01*
X112702380Y-63452380D01*
D10*
X106500000Y-63750000D02*
X194000000Y-63750000D01*
X106000000Y-61750000D02*
X106000000Y-65750000D01*
X132250000Y-89000000D02*
X140750000Y-85500000D01*
X132250000Y-89000000D02*
X140750000Y-92500000D01*
X133750000Y-92500000D02*
X142250000Y-89000000D01*
X142250000Y-89000000D02*
X133750000Y-85500000D01*
X137250000Y-84000000D02*
X140750000Y-92500000D01*
X133750000Y-92500000D02*
X137250000Y-84000000D01*
X137250000Y-94000000D02*
X133750000Y-85500000D01*
X137250000Y-94000000D02*
X140750000Y-85500000D01*
X140750000Y-92500000D02*
X137250000Y-94000000D01*
X142250000Y-89000000D02*
X140750000Y-92500000D01*
X140750000Y-85500000D02*
X142250000Y-89000000D01*
X137250000Y-84000000D02*
X140750000Y-85500000D01*
X133750000Y-85500000D02*
X137250000Y-84000000D01*
X133750000Y-85500000D02*
X132250000Y-89000000D01*
X132250000Y-89000000D02*
X133750000Y-92500000D01*
X137250000Y-94000000D02*
X133750000Y-92500000D01*
X133750000Y-92500000D02*
X140750000Y-92500000D01*
X133750000Y-92500000D02*
X133750000Y-85500000D01*
X140750000Y-85500000D02*
X133750000Y-85500000D01*
X140750000Y-92500000D02*
X140750000Y-85500000D01*
X181330000Y-101330000D02*
X181330000Y-98730000D01*
X181330000Y-101330000D02*
X168510000Y-101330000D01*
X168510000Y-101330000D02*
X168510000Y-96130000D01*
X178730000Y-96130000D02*
X168510000Y-96130000D01*
X178730000Y-98730000D02*
X178730000Y-96130000D01*
X181330000Y-98730000D02*
X178730000Y-98730000D01*
X181330000Y-96130000D02*
X180000000Y-96130000D01*
X181330000Y-97460000D02*
X181330000Y-96130000D01*
D11*
X182222380Y-98396666D02*
X182936666Y-98396666D01*
X183079523Y-98349047D01*
X183174761Y-98253809D01*
X183222380Y-98110952D01*
X183222380Y-98015714D01*
X182317619Y-98825238D02*
X182270000Y-98872857D01*
X182222380Y-98968095D01*
X182222380Y-99206190D01*
X182270000Y-99301428D01*
X182317619Y-99349047D01*
X182412857Y-99396666D01*
X182508095Y-99396666D01*
X182650952Y-99349047D01*
X183222380Y-98777619D01*
X183222380Y-99396666D01*
M02*
