G04 #@! TF.GenerationSoftware,KiCad,Pcbnew,5.1.6-c6e7f7d~87~ubuntu18.04.1*
G04 #@! TF.CreationDate,2021-01-06T14:43:31+00:00*
G04 #@! TF.ProjectId,multi-smtpa,6d756c74-692d-4736-9d74-70612e6b6963,rev?*
G04 #@! TF.SameCoordinates,Original*
G04 #@! TF.FileFunction,Legend,Top*
G04 #@! TF.FilePolarity,Positive*
%FSLAX46Y46*%
G04 Gerber Fmt 4.6, Leading zero omitted, Abs format (unit mm)*
G04 Created by KiCad (PCBNEW 5.1.6-c6e7f7d~87~ubuntu18.04.1) date 2021-01-06 14:43:31*
%MOMM*%
%LPD*%
G01*
G04 APERTURE LIST*
%ADD10C,0.300000*%
%ADD11C,0.150000*%
%ADD12C,0.100000*%
%ADD13C,0.120000*%
%ADD14C,0.200000*%
%ADD15C,0.375000*%
%ADD16C,0.125000*%
G04 APERTURE END LIST*
D10*
X163750000Y-102000000D02*
X156250000Y-102000000D01*
X156750000Y-89857142D02*
X156821428Y-89714285D01*
X156821428Y-89500000D01*
X156750000Y-89285714D01*
X156607142Y-89142857D01*
X156464285Y-89071428D01*
X156178571Y-89000000D01*
X155964285Y-89000000D01*
X155678571Y-89071428D01*
X155535714Y-89142857D01*
X155392857Y-89285714D01*
X155321428Y-89500000D01*
X155321428Y-89642857D01*
X155392857Y-89857142D01*
X155464285Y-89928571D01*
X155964285Y-89928571D01*
X155964285Y-89642857D01*
X155321428Y-90571428D02*
X156821428Y-90571428D01*
X155321428Y-91428571D01*
X156821428Y-91428571D01*
X155321428Y-92142857D02*
X156821428Y-92142857D01*
X156821428Y-92500000D01*
X156750000Y-92714285D01*
X156607142Y-92857142D01*
X156464285Y-92928571D01*
X156178571Y-93000000D01*
X155964285Y-93000000D01*
X155678571Y-92928571D01*
X155535714Y-92857142D01*
X155392857Y-92714285D01*
X155321428Y-92500000D01*
X155321428Y-92142857D01*
D11*
X157095238Y-100166666D02*
X157571428Y-100166666D01*
X157000000Y-100452380D02*
X157333333Y-99452380D01*
X157666666Y-100452380D01*
X158000000Y-100452380D02*
X158000000Y-99452380D01*
X159047619Y-100452380D02*
X158714285Y-99976190D01*
X158476190Y-100452380D02*
X158476190Y-99452380D01*
X158857142Y-99452380D01*
X158952380Y-99500000D01*
X159000000Y-99547619D01*
X159047619Y-99642857D01*
X159047619Y-99785714D01*
X159000000Y-99880952D01*
X158952380Y-99928571D01*
X158857142Y-99976190D01*
X158476190Y-99976190D01*
X159809523Y-99928571D02*
X159476190Y-99928571D01*
X159476190Y-100452380D02*
X159476190Y-99452380D01*
X159952380Y-99452380D01*
X160809523Y-100452380D02*
X160333333Y-100452380D01*
X160333333Y-99452380D01*
X161333333Y-99452380D02*
X161523809Y-99452380D01*
X161619047Y-99500000D01*
X161714285Y-99595238D01*
X161761904Y-99785714D01*
X161761904Y-100119047D01*
X161714285Y-100309523D01*
X161619047Y-100404761D01*
X161523809Y-100452380D01*
X161333333Y-100452380D01*
X161238095Y-100404761D01*
X161142857Y-100309523D01*
X161095238Y-100119047D01*
X161095238Y-99785714D01*
X161142857Y-99595238D01*
X161238095Y-99500000D01*
X161333333Y-99452380D01*
X162095238Y-99452380D02*
X162333333Y-100452380D01*
X162523809Y-99738095D01*
X162714285Y-100452380D01*
X162952380Y-99452380D01*
D10*
X164000000Y-102000000D02*
X161000000Y-103000000D01*
X164000000Y-102000000D02*
X161000000Y-101000000D01*
X142285714Y-42928571D02*
X142285714Y-41595238D01*
X142642857Y-43690476D02*
X143000000Y-42261904D01*
X142071428Y-42261904D01*
X141000000Y-42642857D02*
X141500000Y-42642857D01*
X141500000Y-41595238D02*
X141500000Y-43595238D01*
X140785714Y-43595238D01*
X140285714Y-42166666D02*
X139571428Y-42166666D01*
X140428571Y-41595238D02*
X139928571Y-43595238D01*
X139428571Y-41595238D01*
X139000000Y-41690476D02*
X138785714Y-41595238D01*
X138428571Y-41595238D01*
X138285714Y-41690476D01*
X138214285Y-41785714D01*
X138142857Y-41976190D01*
X138142857Y-42166666D01*
X138214285Y-42357142D01*
X138285714Y-42452380D01*
X138428571Y-42547619D01*
X138714285Y-42642857D01*
X138857142Y-42738095D01*
X138928571Y-42833333D01*
X139000000Y-43023809D01*
X139000000Y-43214285D01*
X138928571Y-43404761D01*
X138857142Y-43500000D01*
X138714285Y-43595238D01*
X138357142Y-43595238D01*
X138142857Y-43500000D01*
X137714285Y-43595238D02*
X136857142Y-43595238D01*
X137285714Y-41595238D02*
X137285714Y-43595238D01*
D11*
X174176220Y-44595238D02*
X174090505Y-44547619D01*
X173947648Y-44547619D01*
X173890505Y-44595238D01*
X173861934Y-44642857D01*
X173833362Y-44738095D01*
X173833362Y-44833333D01*
X173861934Y-44928571D01*
X173890505Y-44976190D01*
X173947648Y-45023809D01*
X174061934Y-45071428D01*
X174119077Y-45119047D01*
X174147648Y-45166666D01*
X174176220Y-45261904D01*
X174176220Y-45357142D01*
X174147648Y-45452380D01*
X174119077Y-45500000D01*
X174061934Y-45547619D01*
X173919077Y-45547619D01*
X173833362Y-45500000D01*
X173576220Y-45071428D02*
X173376220Y-45071428D01*
X173290505Y-44547619D02*
X173576220Y-44547619D01*
X173576220Y-45547619D01*
X173290505Y-45547619D01*
X173033362Y-45071428D02*
X172833362Y-45071428D01*
X172747648Y-44547619D02*
X173033362Y-44547619D01*
X173033362Y-45547619D01*
X172747648Y-45547619D01*
X172061934Y-44833333D02*
X171776220Y-44833333D01*
X172119077Y-44547619D02*
X171919077Y-45547619D01*
X171719077Y-44547619D01*
X171519077Y-44547619D02*
X171519077Y-45547619D01*
X171176220Y-44547619D01*
X171176220Y-45547619D01*
X170890505Y-44547619D02*
X170890505Y-45547619D01*
X170747648Y-45547619D01*
X170661934Y-45500000D01*
X170604791Y-45404761D01*
X170576220Y-45309523D01*
X170547648Y-45119047D01*
X170547648Y-44976190D01*
X170576220Y-44785714D01*
X170604791Y-44690476D01*
X170661934Y-44595238D01*
X170747648Y-44547619D01*
X170890505Y-44547619D01*
X170261934Y-44547619D02*
X170147648Y-44547619D01*
X170090505Y-44595238D01*
X170061934Y-44642857D01*
X170004791Y-44785714D01*
X169976220Y-44976190D01*
X169976220Y-45357142D01*
X170004791Y-45452380D01*
X170033362Y-45500000D01*
X170090505Y-45547619D01*
X170204791Y-45547619D01*
X170261934Y-45500000D01*
X170290505Y-45452380D01*
X170319077Y-45357142D01*
X170319077Y-45119047D01*
X170290505Y-45023809D01*
X170261934Y-44976190D01*
X170204791Y-44928571D01*
X170090505Y-44928571D01*
X170033362Y-44976190D01*
X170004791Y-45023809D01*
X169976220Y-45119047D01*
X169776220Y-45547619D02*
X169376220Y-45547619D01*
X169633362Y-44547619D01*
X169204791Y-45547619D02*
X168804791Y-45547619D01*
X169061934Y-44547619D01*
X168604791Y-45452380D02*
X168576220Y-45500000D01*
X168519077Y-45547619D01*
X168376220Y-45547619D01*
X168319077Y-45500000D01*
X168290505Y-45452380D01*
X168261934Y-45357142D01*
X168261934Y-45261904D01*
X168290505Y-45119047D01*
X168633362Y-44547619D01*
X168261934Y-44547619D01*
X167576220Y-45595238D02*
X168090505Y-44309523D01*
X167376220Y-44547619D02*
X167376220Y-45547619D01*
X167233362Y-45547619D01*
X167147648Y-45500000D01*
X167090505Y-45404761D01*
X167061934Y-45309523D01*
X167033362Y-45119047D01*
X167033362Y-44976190D01*
X167061934Y-44785714D01*
X167090505Y-44690476D01*
X167147648Y-44595238D01*
X167233362Y-44547619D01*
X167376220Y-44547619D01*
X166119077Y-45071428D02*
X166319077Y-45071428D01*
X166319077Y-44547619D02*
X166319077Y-45547619D01*
X166033362Y-45547619D01*
X165690505Y-45547619D02*
X165576220Y-45547619D01*
X165519077Y-45500000D01*
X165461934Y-45404761D01*
X165433362Y-45214285D01*
X165433362Y-44880952D01*
X165461934Y-44690476D01*
X165519077Y-44595238D01*
X165576220Y-44547619D01*
X165690505Y-44547619D01*
X165747648Y-44595238D01*
X165804791Y-44690476D01*
X165833362Y-44880952D01*
X165833362Y-45214285D01*
X165804791Y-45404761D01*
X165747648Y-45500000D01*
X165690505Y-45547619D01*
X164833362Y-44547619D02*
X165033362Y-45023809D01*
X165176220Y-44547619D02*
X165176220Y-45547619D01*
X164947648Y-45547619D01*
X164890505Y-45500000D01*
X164861934Y-45452380D01*
X164833362Y-45357142D01*
X164833362Y-45214285D01*
X164861934Y-45119047D01*
X164890505Y-45071428D01*
X164947648Y-45023809D01*
X165176220Y-45023809D01*
X164147648Y-44595238D02*
X164061934Y-44547619D01*
X163919077Y-44547619D01*
X163861934Y-44595238D01*
X163833362Y-44642857D01*
X163804791Y-44738095D01*
X163804791Y-44833333D01*
X163833362Y-44928571D01*
X163861934Y-44976190D01*
X163919077Y-45023809D01*
X164033362Y-45071428D01*
X164090505Y-45119047D01*
X164119077Y-45166666D01*
X164147648Y-45261904D01*
X164147648Y-45357142D01*
X164119077Y-45452380D01*
X164090505Y-45500000D01*
X164033362Y-45547619D01*
X163890505Y-45547619D01*
X163804791Y-45500000D01*
X163547648Y-45071428D02*
X163347648Y-45071428D01*
X163261934Y-44547619D02*
X163547648Y-44547619D01*
X163547648Y-45547619D01*
X163261934Y-45547619D01*
X163090505Y-45547619D02*
X162747648Y-45547619D01*
X162919077Y-44547619D02*
X162919077Y-45547619D01*
X162547648Y-45547619D02*
X162547648Y-44738095D01*
X162519077Y-44642857D01*
X162490505Y-44595238D01*
X162433362Y-44547619D01*
X162319077Y-44547619D01*
X162261934Y-44595238D01*
X162233362Y-44642857D01*
X162204791Y-44738095D01*
X162204791Y-45547619D01*
X161919077Y-44547619D02*
X161919077Y-45547619D01*
X161690505Y-45547619D01*
X161633362Y-45500000D01*
X161604791Y-45452380D01*
X161576220Y-45357142D01*
X161576220Y-45214285D01*
X161604791Y-45119047D01*
X161633362Y-45071428D01*
X161690505Y-45023809D01*
X161919077Y-45023809D01*
D12*
G36*
X118700000Y-99950000D02*
G01*
X116500000Y-99950000D01*
X115300000Y-98150000D01*
X117500000Y-98150000D01*
X118700000Y-99950000D01*
G37*
X118700000Y-99950000D02*
X116500000Y-99950000D01*
X115300000Y-98150000D01*
X117500000Y-98150000D01*
X118700000Y-99950000D01*
G36*
X114100000Y-99950000D02*
G01*
X111900000Y-99950000D01*
X113100000Y-98150000D01*
X115300000Y-98150000D01*
X114100000Y-99950000D01*
G37*
X114100000Y-99950000D02*
X111900000Y-99950000D01*
X113100000Y-98150000D01*
X115300000Y-98150000D01*
X114100000Y-99950000D01*
G36*
X122100000Y-101750000D02*
G01*
X119900000Y-101750000D01*
X118700000Y-99950000D01*
X120900000Y-99950000D01*
X122100000Y-101750000D01*
G37*
X122100000Y-101750000D02*
X119900000Y-101750000D01*
X118700000Y-99950000D01*
X120900000Y-99950000D01*
X122100000Y-101750000D01*
G36*
X118700000Y-103550000D02*
G01*
X116500000Y-103550000D01*
X115300000Y-101750000D01*
X117500000Y-101750000D01*
X118700000Y-103550000D01*
G37*
X118700000Y-103550000D02*
X116500000Y-103550000D01*
X115300000Y-101750000D01*
X117500000Y-101750000D01*
X118700000Y-103550000D01*
G36*
X119900000Y-94550000D02*
G01*
X118700000Y-96350000D01*
X117500000Y-94550000D01*
X118700000Y-92750000D01*
X119900000Y-94550000D01*
G37*
X119900000Y-94550000D02*
X118700000Y-96350000D01*
X117500000Y-94550000D01*
X118700000Y-92750000D01*
X119900000Y-94550000D01*
G36*
X114100000Y-96350000D02*
G01*
X111900000Y-96350000D01*
X113100000Y-94550000D01*
X115300000Y-94550000D01*
X114100000Y-96350000D01*
G37*
X114100000Y-96350000D02*
X111900000Y-96350000D01*
X113100000Y-94550000D01*
X115300000Y-94550000D01*
X114100000Y-96350000D01*
G36*
X122100000Y-98150000D02*
G01*
X119900000Y-98150000D01*
X118700000Y-96350000D01*
X120900000Y-96350000D01*
X122100000Y-98150000D01*
G37*
X122100000Y-98150000D02*
X119900000Y-98150000D01*
X118700000Y-96350000D01*
X120900000Y-96350000D01*
X122100000Y-98150000D01*
D13*
X119900000Y-94550000D02*
X118700000Y-92750000D01*
X115300000Y-94550000D02*
X116500000Y-96350000D01*
X118700000Y-92750000D02*
X117500000Y-94550000D01*
X115300000Y-94550000D02*
X117500000Y-94550000D01*
X116500000Y-92750000D02*
X115300000Y-94550000D01*
X118700000Y-92750000D02*
X116500000Y-92750000D01*
X118700000Y-96350000D02*
X119900000Y-94550000D01*
X117500000Y-94550000D02*
X118700000Y-96350000D01*
X116500000Y-96350000D02*
X118700000Y-96350000D01*
X116500000Y-96350000D02*
X115300000Y-94550000D01*
X111900000Y-96350000D02*
X113100000Y-98150000D01*
X115300000Y-94550000D02*
X114100000Y-96350000D01*
X111900000Y-96350000D02*
X114100000Y-96350000D01*
X113100000Y-94550000D02*
X111900000Y-96350000D01*
X115300000Y-94550000D02*
X113100000Y-94550000D01*
X115300000Y-98150000D02*
X116500000Y-96350000D01*
X114100000Y-96350000D02*
X115300000Y-98150000D01*
X113100000Y-98150000D02*
X115300000Y-98150000D01*
X116500000Y-99950000D02*
X115300000Y-98150000D01*
X111900000Y-99950000D02*
X113100000Y-101750000D01*
X115300000Y-98150000D02*
X114100000Y-99950000D01*
X111900000Y-99950000D02*
X114100000Y-99950000D01*
X113100000Y-98150000D02*
X111900000Y-99950000D01*
X115300000Y-98150000D02*
X113100000Y-98150000D01*
X115300000Y-101750000D02*
X116500000Y-99950000D01*
X114100000Y-99950000D02*
X115300000Y-101750000D01*
X113100000Y-101750000D02*
X115300000Y-101750000D01*
X119900000Y-101750000D02*
X118700000Y-99950000D01*
X115300000Y-101750000D02*
X116500000Y-103550000D01*
X118700000Y-99950000D02*
X117500000Y-101750000D01*
X115300000Y-101750000D02*
X117500000Y-101750000D01*
X116500000Y-99950000D02*
X115300000Y-101750000D01*
X118700000Y-99950000D02*
X116500000Y-99950000D01*
X118700000Y-103550000D02*
X119900000Y-101750000D01*
X117500000Y-101750000D02*
X118700000Y-103550000D01*
X116500000Y-103550000D02*
X118700000Y-103550000D01*
X119900000Y-98150000D02*
X118700000Y-96350000D01*
X115300000Y-98150000D02*
X116500000Y-99950000D01*
X118700000Y-96350000D02*
X117500000Y-98150000D01*
X115300000Y-98150000D02*
X117500000Y-98150000D01*
X116500000Y-96350000D02*
X115300000Y-98150000D01*
X118700000Y-96350000D02*
X116500000Y-96350000D01*
X118700000Y-99950000D02*
X119900000Y-98150000D01*
X117500000Y-98150000D02*
X118700000Y-99950000D01*
X116500000Y-99950000D02*
X118700000Y-99950000D01*
X123300000Y-99950000D02*
X122100000Y-98150000D01*
X118700000Y-99950000D02*
X119900000Y-101750000D01*
X122100000Y-98150000D02*
X120900000Y-99950000D01*
X118700000Y-99950000D02*
X120900000Y-99950000D01*
X119900000Y-98150000D02*
X118700000Y-99950000D01*
X122100000Y-98150000D02*
X119900000Y-98150000D01*
X122100000Y-101750000D02*
X123300000Y-99950000D01*
X120900000Y-99950000D02*
X122100000Y-101750000D01*
X119900000Y-101750000D02*
X122100000Y-101750000D01*
X120900000Y-96350000D02*
X122100000Y-98150000D01*
X122100000Y-94550000D02*
X120900000Y-96350000D01*
X118700000Y-96350000D02*
X120900000Y-96350000D01*
X119900000Y-94550000D02*
X118700000Y-96350000D01*
X122100000Y-94550000D02*
X119900000Y-94550000D01*
X123300000Y-96350000D02*
X122100000Y-94550000D01*
X122100000Y-98150000D02*
X123300000Y-96350000D01*
X119900000Y-98150000D02*
X122100000Y-98150000D01*
X118700000Y-96350000D02*
X119900000Y-98150000D01*
D14*
X195042857Y-86260476D02*
X195042857Y-86717619D01*
X195042857Y-86489047D02*
X193842857Y-86489047D01*
X194014285Y-86565238D01*
X194128571Y-86641428D01*
X194185714Y-86717619D01*
X193842857Y-85765238D02*
X193842857Y-85689047D01*
X193900000Y-85612857D01*
X193957142Y-85574761D01*
X194071428Y-85536666D01*
X194300000Y-85498571D01*
X194585714Y-85498571D01*
X194814285Y-85536666D01*
X194928571Y-85574761D01*
X194985714Y-85612857D01*
X195042857Y-85689047D01*
X195042857Y-85765238D01*
X194985714Y-85841428D01*
X194928571Y-85879523D01*
X194814285Y-85917619D01*
X194585714Y-85955714D01*
X194300000Y-85955714D01*
X194071428Y-85917619D01*
X193957142Y-85879523D01*
X193900000Y-85841428D01*
X193842857Y-85765238D01*
X193842857Y-85003333D02*
X193842857Y-84927142D01*
X193900000Y-84850952D01*
X193957142Y-84812857D01*
X194071428Y-84774761D01*
X194300000Y-84736666D01*
X194585714Y-84736666D01*
X194814285Y-84774761D01*
X194928571Y-84812857D01*
X194985714Y-84850952D01*
X195042857Y-84927142D01*
X195042857Y-85003333D01*
X194985714Y-85079523D01*
X194928571Y-85117619D01*
X194814285Y-85155714D01*
X194585714Y-85193809D01*
X194300000Y-85193809D01*
X194071428Y-85155714D01*
X193957142Y-85117619D01*
X193900000Y-85079523D01*
X193842857Y-85003333D01*
X195042857Y-84393809D02*
X194242857Y-84393809D01*
X194357142Y-84393809D02*
X194300000Y-84355714D01*
X194242857Y-84279523D01*
X194242857Y-84165238D01*
X194300000Y-84089047D01*
X194414285Y-84050952D01*
X195042857Y-84050952D01*
X194414285Y-84050952D02*
X194300000Y-84012857D01*
X194242857Y-83936666D01*
X194242857Y-83822380D01*
X194300000Y-83746190D01*
X194414285Y-83708095D01*
X195042857Y-83708095D01*
X194700000Y-83365238D02*
X194700000Y-82984285D01*
X195042857Y-83441428D02*
X193842857Y-83174761D01*
X195042857Y-82908095D01*
X194985714Y-82603333D02*
X195042857Y-82603333D01*
X195157142Y-82641428D01*
X195214285Y-82679523D01*
X193842857Y-81727142D02*
X193842857Y-81231904D01*
X194300000Y-81498571D01*
X194300000Y-81384285D01*
X194357142Y-81308095D01*
X194414285Y-81270000D01*
X194528571Y-81231904D01*
X194814285Y-81231904D01*
X194928571Y-81270000D01*
X194985714Y-81308095D01*
X195042857Y-81384285D01*
X195042857Y-81612857D01*
X194985714Y-81689047D01*
X194928571Y-81727142D01*
X193842857Y-80965238D02*
X193842857Y-80431904D01*
X195042857Y-80774761D01*
X193842857Y-80241428D02*
X195042857Y-79974761D01*
X193842857Y-79708095D01*
X195042857Y-78831904D02*
X193842857Y-78831904D01*
X194700000Y-78565238D01*
X193842857Y-78298571D01*
X195042857Y-78298571D01*
X194700000Y-77955714D02*
X194700000Y-77574761D01*
X195042857Y-78031904D02*
X193842857Y-77765238D01*
X195042857Y-77498571D01*
X193842857Y-77308095D02*
X195042857Y-76774761D01*
X193842857Y-76774761D02*
X195042857Y-77308095D01*
X194242857Y-75860476D02*
X195442857Y-75860476D01*
X194300000Y-75860476D02*
X194242857Y-75784285D01*
X194242857Y-75631904D01*
X194300000Y-75555714D01*
X194357142Y-75517619D01*
X194471428Y-75479523D01*
X194814285Y-75479523D01*
X194928571Y-75517619D01*
X194985714Y-75555714D01*
X195042857Y-75631904D01*
X195042857Y-75784285D01*
X194985714Y-75860476D01*
X194985714Y-74831904D02*
X195042857Y-74908095D01*
X195042857Y-75060476D01*
X194985714Y-75136666D01*
X194871428Y-75174761D01*
X194414285Y-75174761D01*
X194300000Y-75136666D01*
X194242857Y-75060476D01*
X194242857Y-74908095D01*
X194300000Y-74831904D01*
X194414285Y-74793809D01*
X194528571Y-74793809D01*
X194642857Y-75174761D01*
X195042857Y-74450952D02*
X194242857Y-74450952D01*
X194471428Y-74450952D02*
X194357142Y-74412857D01*
X194300000Y-74374761D01*
X194242857Y-74298571D01*
X194242857Y-74222380D01*
X194985714Y-73384285D02*
X195042857Y-73270000D01*
X195042857Y-73079523D01*
X194985714Y-73003333D01*
X194928571Y-72965238D01*
X194814285Y-72927142D01*
X194700000Y-72927142D01*
X194585714Y-72965238D01*
X194528571Y-73003333D01*
X194471428Y-73079523D01*
X194414285Y-73231904D01*
X194357142Y-73308095D01*
X194300000Y-73346190D01*
X194185714Y-73384285D01*
X194071428Y-73384285D01*
X193957142Y-73346190D01*
X193900000Y-73308095D01*
X193842857Y-73231904D01*
X193842857Y-73041428D01*
X193900000Y-72927142D01*
X195042857Y-72584285D02*
X193842857Y-72584285D01*
X194700000Y-72317619D01*
X193842857Y-72050952D01*
X195042857Y-72050952D01*
X193842857Y-71784285D02*
X193842857Y-71327142D01*
X195042857Y-71555714D02*
X193842857Y-71555714D01*
X195042857Y-71060476D02*
X193842857Y-71060476D01*
X193842857Y-70755714D01*
X193900000Y-70679523D01*
X193957142Y-70641428D01*
X194071428Y-70603333D01*
X194242857Y-70603333D01*
X194357142Y-70641428D01*
X194414285Y-70679523D01*
X194471428Y-70755714D01*
X194471428Y-71060476D01*
X194700000Y-70298571D02*
X194700000Y-69917619D01*
X195042857Y-70374761D02*
X193842857Y-70108095D01*
X195042857Y-69841428D01*
X194985714Y-69003333D02*
X195042857Y-68927142D01*
X195042857Y-68774761D01*
X194985714Y-68698571D01*
X194871428Y-68660476D01*
X194814285Y-68660476D01*
X194700000Y-68698571D01*
X194642857Y-68774761D01*
X194642857Y-68889047D01*
X194585714Y-68965238D01*
X194471428Y-69003333D01*
X194414285Y-69003333D01*
X194300000Y-68965238D01*
X194242857Y-68889047D01*
X194242857Y-68774761D01*
X194300000Y-68698571D01*
X195042857Y-68203333D02*
X194985714Y-68279523D01*
X194928571Y-68317619D01*
X194814285Y-68355714D01*
X194471428Y-68355714D01*
X194357142Y-68317619D01*
X194300000Y-68279523D01*
X194242857Y-68203333D01*
X194242857Y-68089047D01*
X194300000Y-68012857D01*
X194357142Y-67974761D01*
X194471428Y-67936666D01*
X194814285Y-67936666D01*
X194928571Y-67974761D01*
X194985714Y-68012857D01*
X195042857Y-68089047D01*
X195042857Y-68203333D01*
X194985714Y-67250952D02*
X195042857Y-67327142D01*
X195042857Y-67479523D01*
X194985714Y-67555714D01*
X194928571Y-67593809D01*
X194814285Y-67631904D01*
X194471428Y-67631904D01*
X194357142Y-67593809D01*
X194300000Y-67555714D01*
X194242857Y-67479523D01*
X194242857Y-67327142D01*
X194300000Y-67250952D01*
X195042857Y-66908095D02*
X193842857Y-66908095D01*
X194585714Y-66831904D02*
X195042857Y-66603333D01*
X194242857Y-66603333D02*
X194700000Y-66908095D01*
X194985714Y-65955714D02*
X195042857Y-66031904D01*
X195042857Y-66184285D01*
X194985714Y-66260476D01*
X194871428Y-66298571D01*
X194414285Y-66298571D01*
X194300000Y-66260476D01*
X194242857Y-66184285D01*
X194242857Y-66031904D01*
X194300000Y-65955714D01*
X194414285Y-65917619D01*
X194528571Y-65917619D01*
X194642857Y-66298571D01*
X194242857Y-65689047D02*
X194242857Y-65384285D01*
X193842857Y-65574761D02*
X194871428Y-65574761D01*
X194985714Y-65536666D01*
X195042857Y-65460476D01*
X195042857Y-65384285D01*
X196928571Y-86679523D02*
X196985714Y-86641428D01*
X197042857Y-86679523D01*
X196985714Y-86717619D01*
X196928571Y-86679523D01*
X197042857Y-86679523D01*
X196585714Y-86679523D02*
X195900000Y-86717619D01*
X195842857Y-86679523D01*
X195900000Y-86641428D01*
X196585714Y-86679523D01*
X195842857Y-86679523D01*
X196928571Y-86298571D02*
X196985714Y-86260476D01*
X197042857Y-86298571D01*
X196985714Y-86336666D01*
X196928571Y-86298571D01*
X197042857Y-86298571D01*
X196585714Y-86298571D02*
X195900000Y-86336666D01*
X195842857Y-86298571D01*
X195900000Y-86260476D01*
X196585714Y-86298571D01*
X195842857Y-86298571D01*
X196928571Y-85917619D02*
X196985714Y-85879523D01*
X197042857Y-85917619D01*
X196985714Y-85955714D01*
X196928571Y-85917619D01*
X197042857Y-85917619D01*
X196585714Y-85917619D02*
X195900000Y-85955714D01*
X195842857Y-85917619D01*
X195900000Y-85879523D01*
X196585714Y-85917619D01*
X195842857Y-85917619D01*
X196985714Y-84965238D02*
X197042857Y-84850952D01*
X197042857Y-84660476D01*
X196985714Y-84584285D01*
X196928571Y-84546190D01*
X196814285Y-84508095D01*
X196700000Y-84508095D01*
X196585714Y-84546190D01*
X196528571Y-84584285D01*
X196471428Y-84660476D01*
X196414285Y-84812857D01*
X196357142Y-84889047D01*
X196300000Y-84927142D01*
X196185714Y-84965238D01*
X196071428Y-84965238D01*
X195957142Y-84927142D01*
X195900000Y-84889047D01*
X195842857Y-84812857D01*
X195842857Y-84622380D01*
X195900000Y-84508095D01*
X196414285Y-84165238D02*
X196414285Y-83898571D01*
X197042857Y-83784285D02*
X197042857Y-84165238D01*
X195842857Y-84165238D01*
X195842857Y-83784285D01*
X195842857Y-83555714D02*
X195842857Y-83098571D01*
X197042857Y-83327142D02*
X195842857Y-83327142D01*
X196985714Y-82260476D02*
X197042857Y-82146190D01*
X197042857Y-81955714D01*
X196985714Y-81879523D01*
X196928571Y-81841428D01*
X196814285Y-81803333D01*
X196700000Y-81803333D01*
X196585714Y-81841428D01*
X196528571Y-81879523D01*
X196471428Y-81955714D01*
X196414285Y-82108095D01*
X196357142Y-82184285D01*
X196300000Y-82222380D01*
X196185714Y-82260476D01*
X196071428Y-82260476D01*
X195957142Y-82222380D01*
X195900000Y-82184285D01*
X195842857Y-82108095D01*
X195842857Y-81917619D01*
X195900000Y-81803333D01*
X195842857Y-81308095D02*
X195842857Y-81155714D01*
X195900000Y-81079523D01*
X196014285Y-81003333D01*
X196242857Y-80965238D01*
X196642857Y-80965238D01*
X196871428Y-81003333D01*
X196985714Y-81079523D01*
X197042857Y-81155714D01*
X197042857Y-81308095D01*
X196985714Y-81384285D01*
X196871428Y-81460476D01*
X196642857Y-81498571D01*
X196242857Y-81498571D01*
X196014285Y-81460476D01*
X195900000Y-81384285D01*
X195842857Y-81308095D01*
X196928571Y-80165238D02*
X196985714Y-80203333D01*
X197042857Y-80317619D01*
X197042857Y-80393809D01*
X196985714Y-80508095D01*
X196871428Y-80584285D01*
X196757142Y-80622380D01*
X196528571Y-80660476D01*
X196357142Y-80660476D01*
X196128571Y-80622380D01*
X196014285Y-80584285D01*
X195900000Y-80508095D01*
X195842857Y-80393809D01*
X195842857Y-80317619D01*
X195900000Y-80203333D01*
X195957142Y-80165238D01*
X197042857Y-79822380D02*
X195842857Y-79822380D01*
X197042857Y-79365238D02*
X196357142Y-79708095D01*
X195842857Y-79365238D02*
X196528571Y-79822380D01*
X196414285Y-79022380D02*
X196414285Y-78755714D01*
X197042857Y-78641428D02*
X197042857Y-79022380D01*
X195842857Y-79022380D01*
X195842857Y-78641428D01*
X195842857Y-78412857D02*
X195842857Y-77955714D01*
X197042857Y-78184285D02*
X195842857Y-78184285D01*
X195842857Y-77193809D02*
X197042857Y-76927142D01*
X195842857Y-76660476D01*
X195842857Y-76241428D02*
X195842857Y-76089047D01*
X195900000Y-76012857D01*
X196014285Y-75936666D01*
X196242857Y-75898571D01*
X196642857Y-75898571D01*
X196871428Y-75936666D01*
X196985714Y-76012857D01*
X197042857Y-76089047D01*
X197042857Y-76241428D01*
X196985714Y-76317619D01*
X196871428Y-76393809D01*
X196642857Y-76431904D01*
X196242857Y-76431904D01*
X196014285Y-76393809D01*
X195900000Y-76317619D01*
X195842857Y-76241428D01*
X197042857Y-75174761D02*
X197042857Y-75555714D01*
X195842857Y-75555714D01*
X195842857Y-75022380D02*
X195842857Y-74565238D01*
X197042857Y-74793809D02*
X195842857Y-74793809D01*
X196700000Y-74336666D02*
X196700000Y-73955714D01*
X197042857Y-74412857D02*
X195842857Y-74146190D01*
X197042857Y-73879523D01*
X195900000Y-73193809D02*
X195842857Y-73270000D01*
X195842857Y-73384285D01*
X195900000Y-73498571D01*
X196014285Y-73574761D01*
X196128571Y-73612857D01*
X196357142Y-73650952D01*
X196528571Y-73650952D01*
X196757142Y-73612857D01*
X196871428Y-73574761D01*
X196985714Y-73498571D01*
X197042857Y-73384285D01*
X197042857Y-73308095D01*
X196985714Y-73193809D01*
X196928571Y-73155714D01*
X196528571Y-73155714D01*
X196528571Y-73308095D01*
X196414285Y-72812857D02*
X196414285Y-72546190D01*
X197042857Y-72431904D02*
X197042857Y-72812857D01*
X195842857Y-72812857D01*
X195842857Y-72431904D01*
X198928571Y-86679523D02*
X198985714Y-86641428D01*
X199042857Y-86679523D01*
X198985714Y-86717619D01*
X198928571Y-86679523D01*
X199042857Y-86679523D01*
X198585714Y-86679523D02*
X197900000Y-86717619D01*
X197842857Y-86679523D01*
X197900000Y-86641428D01*
X198585714Y-86679523D01*
X197842857Y-86679523D01*
X198928571Y-86298571D02*
X198985714Y-86260476D01*
X199042857Y-86298571D01*
X198985714Y-86336666D01*
X198928571Y-86298571D01*
X199042857Y-86298571D01*
X198585714Y-86298571D02*
X197900000Y-86336666D01*
X197842857Y-86298571D01*
X197900000Y-86260476D01*
X198585714Y-86298571D01*
X197842857Y-86298571D01*
X198928571Y-85917619D02*
X198985714Y-85879523D01*
X199042857Y-85917619D01*
X198985714Y-85955714D01*
X198928571Y-85917619D01*
X199042857Y-85917619D01*
X198585714Y-85917619D02*
X197900000Y-85955714D01*
X197842857Y-85917619D01*
X197900000Y-85879523D01*
X198585714Y-85917619D01*
X197842857Y-85917619D01*
X198414285Y-84660476D02*
X198471428Y-84546190D01*
X198528571Y-84508095D01*
X198642857Y-84470000D01*
X198814285Y-84470000D01*
X198928571Y-84508095D01*
X198985714Y-84546190D01*
X199042857Y-84622380D01*
X199042857Y-84927142D01*
X197842857Y-84927142D01*
X197842857Y-84660476D01*
X197900000Y-84584285D01*
X197957142Y-84546190D01*
X198071428Y-84508095D01*
X198185714Y-84508095D01*
X198300000Y-84546190D01*
X198357142Y-84584285D01*
X198414285Y-84660476D01*
X198414285Y-84927142D01*
X198414285Y-84127142D02*
X198414285Y-83860476D01*
X199042857Y-83746190D02*
X199042857Y-84127142D01*
X197842857Y-84127142D01*
X197842857Y-83746190D01*
X198414285Y-83136666D02*
X198414285Y-83403333D01*
X199042857Y-83403333D02*
X197842857Y-83403333D01*
X197842857Y-83022380D01*
X197842857Y-82565238D02*
X197842857Y-82412857D01*
X197900000Y-82336666D01*
X198014285Y-82260476D01*
X198242857Y-82222380D01*
X198642857Y-82222380D01*
X198871428Y-82260476D01*
X198985714Y-82336666D01*
X199042857Y-82412857D01*
X199042857Y-82565238D01*
X198985714Y-82641428D01*
X198871428Y-82717619D01*
X198642857Y-82755714D01*
X198242857Y-82755714D01*
X198014285Y-82717619D01*
X197900000Y-82641428D01*
X197842857Y-82565238D01*
X199042857Y-81422380D02*
X198471428Y-81689047D01*
X199042857Y-81879523D02*
X197842857Y-81879523D01*
X197842857Y-81574761D01*
X197900000Y-81498571D01*
X197957142Y-81460476D01*
X198071428Y-81422380D01*
X198242857Y-81422380D01*
X198357142Y-81460476D01*
X198414285Y-81498571D01*
X198471428Y-81574761D01*
X198471428Y-81879523D01*
X198414285Y-81079523D02*
X198414285Y-80812857D01*
X199042857Y-80698571D02*
X199042857Y-81079523D01*
X197842857Y-81079523D01*
X197842857Y-80698571D01*
X199042857Y-79746190D02*
X197842857Y-79746190D01*
X199042857Y-79365238D02*
X197842857Y-79365238D01*
X199042857Y-78908095D01*
X197842857Y-78908095D01*
X198985714Y-78565238D02*
X199042857Y-78450952D01*
X199042857Y-78260476D01*
X198985714Y-78184285D01*
X198928571Y-78146190D01*
X198814285Y-78108095D01*
X198700000Y-78108095D01*
X198585714Y-78146190D01*
X198528571Y-78184285D01*
X198471428Y-78260476D01*
X198414285Y-78412857D01*
X198357142Y-78489047D01*
X198300000Y-78527142D01*
X198185714Y-78565238D01*
X198071428Y-78565238D01*
X197957142Y-78527142D01*
X197900000Y-78489047D01*
X197842857Y-78412857D01*
X197842857Y-78222380D01*
X197900000Y-78108095D01*
X198414285Y-77765238D02*
X198414285Y-77498571D01*
X199042857Y-77384285D02*
X199042857Y-77765238D01*
X197842857Y-77765238D01*
X197842857Y-77384285D01*
X199042857Y-76584285D02*
X198471428Y-76850952D01*
X199042857Y-77041428D02*
X197842857Y-77041428D01*
X197842857Y-76736666D01*
X197900000Y-76660476D01*
X197957142Y-76622380D01*
X198071428Y-76584285D01*
X198242857Y-76584285D01*
X198357142Y-76622380D01*
X198414285Y-76660476D01*
X198471428Y-76736666D01*
X198471428Y-77041428D01*
X197842857Y-76355714D02*
X197842857Y-75898571D01*
X199042857Y-76127142D02*
X197842857Y-76127142D01*
X199042857Y-75631904D02*
X197842857Y-75631904D01*
X199042857Y-75250952D02*
X197842857Y-75250952D01*
X199042857Y-74793809D01*
X197842857Y-74793809D01*
X197900000Y-73993809D02*
X197842857Y-74070000D01*
X197842857Y-74184285D01*
X197900000Y-74298571D01*
X198014285Y-74374761D01*
X198128571Y-74412857D01*
X198357142Y-74450952D01*
X198528571Y-74450952D01*
X198757142Y-74412857D01*
X198871428Y-74374761D01*
X198985714Y-74298571D01*
X199042857Y-74184285D01*
X199042857Y-74108095D01*
X198985714Y-73993809D01*
X198928571Y-73955714D01*
X198528571Y-73955714D01*
X198528571Y-74108095D01*
X198985714Y-73041428D02*
X199042857Y-72927142D01*
X199042857Y-72736666D01*
X198985714Y-72660476D01*
X198928571Y-72622380D01*
X198814285Y-72584285D01*
X198700000Y-72584285D01*
X198585714Y-72622380D01*
X198528571Y-72660476D01*
X198471428Y-72736666D01*
X198414285Y-72889047D01*
X198357142Y-72965238D01*
X198300000Y-73003333D01*
X198185714Y-73041428D01*
X198071428Y-73041428D01*
X197957142Y-73003333D01*
X197900000Y-72965238D01*
X197842857Y-72889047D01*
X197842857Y-72698571D01*
X197900000Y-72584285D01*
X199042857Y-72241428D02*
X197842857Y-72241428D01*
X199042857Y-71860476D02*
X197842857Y-71860476D01*
X197842857Y-71555714D01*
X197900000Y-71479523D01*
X197957142Y-71441428D01*
X198071428Y-71403333D01*
X198242857Y-71403333D01*
X198357142Y-71441428D01*
X198414285Y-71479523D01*
X198471428Y-71555714D01*
X198471428Y-71860476D01*
X199042857Y-71060476D02*
X197842857Y-71060476D01*
X198700000Y-70793809D01*
X197842857Y-70527142D01*
X199042857Y-70527142D01*
D10*
X128500000Y-94904761D02*
X128500000Y-92904761D01*
X129071428Y-92904761D01*
X129214285Y-93000000D01*
X129285714Y-93095238D01*
X129357142Y-93285714D01*
X129357142Y-93571428D01*
X129285714Y-93761904D01*
X129214285Y-93857142D01*
X129071428Y-93952380D01*
X128500000Y-93952380D01*
X129857142Y-92904761D02*
X130214285Y-94904761D01*
X130500000Y-93476190D01*
X130785714Y-94904761D01*
X131142857Y-92904761D01*
X132571428Y-94904761D02*
X132071428Y-93952380D01*
X131714285Y-94904761D02*
X131714285Y-92904761D01*
X132285714Y-92904761D01*
X132428571Y-93000000D01*
X132500000Y-93095238D01*
X132571428Y-93285714D01*
X132571428Y-93571428D01*
X132500000Y-93761904D01*
X132428571Y-93857142D01*
X132285714Y-93952380D01*
X131714285Y-93952380D01*
D14*
X128642857Y-95452380D02*
X129261904Y-95452380D01*
X128928571Y-95833333D01*
X129071428Y-95833333D01*
X129166666Y-95880952D01*
X129214285Y-95928571D01*
X129261904Y-96023809D01*
X129261904Y-96261904D01*
X129214285Y-96357142D01*
X129166666Y-96404761D01*
X129071428Y-96452380D01*
X128785714Y-96452380D01*
X128690476Y-96404761D01*
X128642857Y-96357142D01*
X129642857Y-95547619D02*
X129690476Y-95500000D01*
X129785714Y-95452380D01*
X130023809Y-95452380D01*
X130119047Y-95500000D01*
X130166666Y-95547619D01*
X130214285Y-95642857D01*
X130214285Y-95738095D01*
X130166666Y-95880952D01*
X129595238Y-96452380D01*
X130214285Y-96452380D01*
X130500000Y-95452380D02*
X130833333Y-96452380D01*
X131166666Y-95452380D01*
X131500000Y-96071428D02*
X132261904Y-96071428D01*
X131880952Y-96452380D02*
X131880952Y-95690476D01*
D15*
X134428571Y-89107142D02*
X135571428Y-89107142D01*
D10*
X171928571Y-43595238D02*
X171428571Y-41595238D01*
X170928571Y-43595238D01*
X170500000Y-41690476D02*
X170285714Y-41595238D01*
X169928571Y-41595238D01*
X169785714Y-41690476D01*
X169714285Y-41785714D01*
X169642857Y-41976190D01*
X169642857Y-42166666D01*
X169714285Y-42357142D01*
X169785714Y-42452380D01*
X169928571Y-42547619D01*
X170214285Y-42642857D01*
X170357142Y-42738095D01*
X170428571Y-42833333D01*
X170500000Y-43023809D01*
X170500000Y-43214285D01*
X170428571Y-43404761D01*
X170357142Y-43500000D01*
X170214285Y-43595238D01*
X169857142Y-43595238D01*
X169642857Y-43500000D01*
X169071428Y-41690476D02*
X168857142Y-41595238D01*
X168500000Y-41595238D01*
X168357142Y-41690476D01*
X168285714Y-41785714D01*
X168214285Y-41976190D01*
X168214285Y-42166666D01*
X168285714Y-42357142D01*
X168357142Y-42452380D01*
X168500000Y-42547619D01*
X168785714Y-42642857D01*
X168928571Y-42738095D01*
X169000000Y-42833333D01*
X169071428Y-43023809D01*
X169071428Y-43214285D01*
X169000000Y-43404761D01*
X168928571Y-43500000D01*
X168785714Y-43595238D01*
X168428571Y-43595238D01*
X168214285Y-43500000D01*
D15*
X125428571Y-89107142D02*
X126571428Y-89107142D01*
X126000000Y-89678571D02*
X126000000Y-88535714D01*
D14*
X107597619Y-78988095D02*
X107597619Y-79178571D01*
X107550000Y-79273809D01*
X107454761Y-79369047D01*
X107264285Y-79416666D01*
X106930952Y-79416666D01*
X106740476Y-79369047D01*
X106645238Y-79273809D01*
X106597619Y-79178571D01*
X106597619Y-78988095D01*
X106645238Y-78892857D01*
X106740476Y-78797619D01*
X106930952Y-78750000D01*
X107264285Y-78750000D01*
X107454761Y-78797619D01*
X107550000Y-78892857D01*
X107597619Y-78988095D01*
X106597619Y-79750000D02*
X107264285Y-80273809D01*
X107264285Y-79750000D02*
X106597619Y-80273809D01*
X107264285Y-80511904D02*
X107264285Y-80892857D01*
X106597619Y-80654761D02*
X107454761Y-80654761D01*
X107550000Y-80702380D01*
X107597619Y-80797619D01*
X107597619Y-80892857D01*
X106597619Y-81369047D02*
X106645238Y-81273809D01*
X106692857Y-81226190D01*
X106788095Y-81178571D01*
X107073809Y-81178571D01*
X107169047Y-81226190D01*
X107216666Y-81273809D01*
X107264285Y-81369047D01*
X107264285Y-81511904D01*
X107216666Y-81607142D01*
X107169047Y-81654761D01*
X107073809Y-81702380D01*
X106788095Y-81702380D01*
X106692857Y-81654761D01*
X106645238Y-81607142D01*
X106597619Y-81511904D01*
X106597619Y-81369047D01*
X106597619Y-82130952D02*
X107264285Y-82130952D01*
X107073809Y-82130952D02*
X107169047Y-82178571D01*
X107216666Y-82226190D01*
X107264285Y-82321428D01*
X107264285Y-82416666D01*
X106597619Y-83178571D02*
X107597619Y-83178571D01*
X106645238Y-83178571D02*
X106597619Y-83083333D01*
X106597619Y-82892857D01*
X106645238Y-82797619D01*
X106692857Y-82750000D01*
X106788095Y-82702380D01*
X107073809Y-82702380D01*
X107169047Y-82750000D01*
X107216666Y-82797619D01*
X107264285Y-82892857D01*
X107264285Y-83083333D01*
X107216666Y-83178571D01*
X107597619Y-84273809D02*
X106597619Y-84607142D01*
X107597619Y-84940476D01*
X106597619Y-85750000D02*
X106597619Y-85273809D01*
X107597619Y-85273809D01*
X106692857Y-86654761D02*
X106645238Y-86607142D01*
X106597619Y-86464285D01*
X106597619Y-86369047D01*
X106645238Y-86226190D01*
X106740476Y-86130952D01*
X106835714Y-86083333D01*
X107026190Y-86035714D01*
X107169047Y-86035714D01*
X107359523Y-86083333D01*
X107454761Y-86130952D01*
X107550000Y-86226190D01*
X107597619Y-86369047D01*
X107597619Y-86464285D01*
X107550000Y-86607142D01*
X107502380Y-86654761D01*
X107550000Y-88369047D02*
X107597619Y-88273809D01*
X107597619Y-88130952D01*
X107550000Y-87988095D01*
X107454761Y-87892857D01*
X107359523Y-87845238D01*
X107169047Y-87797619D01*
X107026190Y-87797619D01*
X106835714Y-87845238D01*
X106740476Y-87892857D01*
X106645238Y-87988095D01*
X106597619Y-88130952D01*
X106597619Y-88226190D01*
X106645238Y-88369047D01*
X106692857Y-88416666D01*
X107026190Y-88416666D01*
X107026190Y-88226190D01*
X106597619Y-88845238D02*
X107264285Y-88845238D01*
X107073809Y-88845238D02*
X107169047Y-88892857D01*
X107216666Y-88940476D01*
X107264285Y-89035714D01*
X107264285Y-89130952D01*
X106597619Y-89607142D02*
X106645238Y-89511904D01*
X106692857Y-89464285D01*
X106788095Y-89416666D01*
X107073809Y-89416666D01*
X107169047Y-89464285D01*
X107216666Y-89511904D01*
X107264285Y-89607142D01*
X107264285Y-89750000D01*
X107216666Y-89845238D01*
X107169047Y-89892857D01*
X107073809Y-89940476D01*
X106788095Y-89940476D01*
X106692857Y-89892857D01*
X106645238Y-89845238D01*
X106597619Y-89750000D01*
X106597619Y-89607142D01*
X107264285Y-90797619D02*
X106597619Y-90797619D01*
X107264285Y-90369047D02*
X106740476Y-90369047D01*
X106645238Y-90416666D01*
X106597619Y-90511904D01*
X106597619Y-90654761D01*
X106645238Y-90750000D01*
X106692857Y-90797619D01*
X107264285Y-91273809D02*
X106264285Y-91273809D01*
X107216666Y-91273809D02*
X107264285Y-91369047D01*
X107264285Y-91559523D01*
X107216666Y-91654761D01*
X107169047Y-91702380D01*
X107073809Y-91750000D01*
X106788095Y-91750000D01*
X106692857Y-91702380D01*
X106645238Y-91654761D01*
X106597619Y-91559523D01*
X106597619Y-91369047D01*
X106645238Y-91273809D01*
X105897619Y-79226190D02*
X105088095Y-79226190D01*
X104992857Y-79273809D01*
X104945238Y-79321428D01*
X104897619Y-79416666D01*
X104897619Y-79607142D01*
X104945238Y-79702380D01*
X104992857Y-79750000D01*
X105088095Y-79797619D01*
X105897619Y-79797619D01*
X104897619Y-80273809D02*
X105897619Y-80273809D01*
X105421428Y-80273809D02*
X105421428Y-80845238D01*
X104897619Y-80845238D02*
X105897619Y-80845238D01*
X104945238Y-81273809D02*
X104897619Y-81416666D01*
X104897619Y-81654761D01*
X104945238Y-81750000D01*
X104992857Y-81797619D01*
X105088095Y-81845238D01*
X105183333Y-81845238D01*
X105278571Y-81797619D01*
X105326190Y-81750000D01*
X105373809Y-81654761D01*
X105421428Y-81464285D01*
X105469047Y-81369047D01*
X105516666Y-81321428D01*
X105611904Y-81273809D01*
X105707142Y-81273809D01*
X105802380Y-81321428D01*
X105850000Y-81369047D01*
X105897619Y-81464285D01*
X105897619Y-81702380D01*
X105850000Y-81845238D01*
X104945238Y-82988095D02*
X104897619Y-83130952D01*
X104897619Y-83369047D01*
X104945238Y-83464285D01*
X104992857Y-83511904D01*
X105088095Y-83559523D01*
X105183333Y-83559523D01*
X105278571Y-83511904D01*
X105326190Y-83464285D01*
X105373809Y-83369047D01*
X105421428Y-83178571D01*
X105469047Y-83083333D01*
X105516666Y-83035714D01*
X105611904Y-82988095D01*
X105707142Y-82988095D01*
X105802380Y-83035714D01*
X105850000Y-83083333D01*
X105897619Y-83178571D01*
X105897619Y-83416666D01*
X105850000Y-83559523D01*
X104897619Y-83988095D02*
X105564285Y-83988095D01*
X105897619Y-83988095D02*
X105850000Y-83940476D01*
X105802380Y-83988095D01*
X105850000Y-84035714D01*
X105897619Y-83988095D01*
X105802380Y-83988095D01*
X104897619Y-84464285D02*
X105897619Y-84464285D01*
X105897619Y-84845238D01*
X105850000Y-84940476D01*
X105802380Y-84988095D01*
X105707142Y-85035714D01*
X105564285Y-85035714D01*
X105469047Y-84988095D01*
X105421428Y-84940476D01*
X105373809Y-84845238D01*
X105373809Y-84464285D01*
X104897619Y-85464285D02*
X105897619Y-85464285D01*
X105183333Y-85797619D01*
X105897619Y-86130952D01*
X104897619Y-86130952D01*
X104897619Y-87940476D02*
X105373809Y-87607142D01*
X104897619Y-87369047D02*
X105897619Y-87369047D01*
X105897619Y-87750000D01*
X105850000Y-87845238D01*
X105802380Y-87892857D01*
X105707142Y-87940476D01*
X105564285Y-87940476D01*
X105469047Y-87892857D01*
X105421428Y-87845238D01*
X105373809Y-87750000D01*
X105373809Y-87369047D01*
X104897619Y-88273809D02*
X105564285Y-88797619D01*
X105564285Y-88273809D02*
X104897619Y-88797619D01*
X105897619Y-89797619D02*
X104897619Y-90130952D01*
X105897619Y-90464285D01*
X104897619Y-91321428D02*
X104897619Y-90750000D01*
X104897619Y-91035714D02*
X105897619Y-91035714D01*
X105754761Y-90940476D01*
X105659523Y-90845238D01*
X105611904Y-90750000D01*
X103197619Y-78797619D02*
X104197619Y-78797619D01*
X104197619Y-79035714D01*
X104150000Y-79178571D01*
X104054761Y-79273809D01*
X103959523Y-79321428D01*
X103769047Y-79369047D01*
X103626190Y-79369047D01*
X103435714Y-79321428D01*
X103340476Y-79273809D01*
X103245238Y-79178571D01*
X103197619Y-79035714D01*
X103197619Y-78797619D01*
X103245238Y-79750000D02*
X103197619Y-79892857D01*
X103197619Y-80130952D01*
X103245238Y-80226190D01*
X103292857Y-80273809D01*
X103388095Y-80321428D01*
X103483333Y-80321428D01*
X103578571Y-80273809D01*
X103626190Y-80226190D01*
X103673809Y-80130952D01*
X103721428Y-79940476D01*
X103769047Y-79845238D01*
X103816666Y-79797619D01*
X103911904Y-79750000D01*
X104007142Y-79750000D01*
X104102380Y-79797619D01*
X104150000Y-79845238D01*
X104197619Y-79940476D01*
X104197619Y-80178571D01*
X104150000Y-80321428D01*
X104150000Y-81273809D02*
X104197619Y-81178571D01*
X104197619Y-81035714D01*
X104150000Y-80892857D01*
X104054761Y-80797619D01*
X103959523Y-80750000D01*
X103769047Y-80702380D01*
X103626190Y-80702380D01*
X103435714Y-80750000D01*
X103340476Y-80797619D01*
X103245238Y-80892857D01*
X103197619Y-81035714D01*
X103197619Y-81130952D01*
X103245238Y-81273809D01*
X103292857Y-81321428D01*
X103626190Y-81321428D01*
X103626190Y-81130952D01*
X103292857Y-81750000D02*
X103245238Y-81797619D01*
X103197619Y-81750000D01*
X103245238Y-81702380D01*
X103292857Y-81750000D01*
X103197619Y-81750000D01*
X103816666Y-81750000D02*
X103769047Y-81797619D01*
X103721428Y-81750000D01*
X103769047Y-81702380D01*
X103816666Y-81750000D01*
X103721428Y-81750000D01*
X104197619Y-82892857D02*
X103197619Y-83130952D01*
X103911904Y-83321428D01*
X103197619Y-83511904D01*
X104197619Y-83750000D01*
X103292857Y-84130952D02*
X103245238Y-84178571D01*
X103197619Y-84130952D01*
X103245238Y-84083333D01*
X103292857Y-84130952D01*
X103197619Y-84130952D01*
X103197619Y-85369047D02*
X104197619Y-85369047D01*
X103483333Y-85702380D01*
X104197619Y-86035714D01*
X103197619Y-86035714D01*
X103197619Y-86940476D02*
X103721428Y-86940476D01*
X103816666Y-86892857D01*
X103864285Y-86797619D01*
X103864285Y-86607142D01*
X103816666Y-86511904D01*
X103245238Y-86940476D02*
X103197619Y-86845238D01*
X103197619Y-86607142D01*
X103245238Y-86511904D01*
X103340476Y-86464285D01*
X103435714Y-86464285D01*
X103530952Y-86511904D01*
X103578571Y-86607142D01*
X103578571Y-86845238D01*
X103626190Y-86940476D01*
X103864285Y-87273809D02*
X103864285Y-87654761D01*
X104197619Y-87416666D02*
X103340476Y-87416666D01*
X103245238Y-87464285D01*
X103197619Y-87559523D01*
X103197619Y-87654761D01*
X103864285Y-87845238D02*
X103864285Y-88226190D01*
X104197619Y-87988095D02*
X103340476Y-87988095D01*
X103245238Y-88035714D01*
X103197619Y-88130952D01*
X103197619Y-88226190D01*
X103197619Y-88559523D02*
X104197619Y-88559523D01*
X103197619Y-88988095D02*
X103721428Y-88988095D01*
X103816666Y-88940476D01*
X103864285Y-88845238D01*
X103864285Y-88702380D01*
X103816666Y-88607142D01*
X103769047Y-88559523D01*
X103245238Y-89845238D02*
X103197619Y-89750000D01*
X103197619Y-89559523D01*
X103245238Y-89464285D01*
X103340476Y-89416666D01*
X103721428Y-89416666D01*
X103816666Y-89464285D01*
X103864285Y-89559523D01*
X103864285Y-89750000D01*
X103816666Y-89845238D01*
X103721428Y-89892857D01*
X103626190Y-89892857D01*
X103530952Y-89416666D01*
X103864285Y-90226190D02*
X103197619Y-90416666D01*
X103673809Y-90607142D01*
X103197619Y-90797619D01*
X103864285Y-90988095D01*
X103245238Y-91321428D02*
X103197619Y-91416666D01*
X103197619Y-91607142D01*
X103245238Y-91702380D01*
X103340476Y-91750000D01*
X103388095Y-91750000D01*
X103483333Y-91702380D01*
X103530952Y-91607142D01*
X103530952Y-91464285D01*
X103578571Y-91369047D01*
X103673809Y-91321428D01*
X103721428Y-91321428D01*
X103816666Y-91369047D01*
X103864285Y-91464285D01*
X103864285Y-91607142D01*
X103816666Y-91702380D01*
X101592857Y-80250000D02*
X101545238Y-80202380D01*
X101497619Y-80059523D01*
X101497619Y-79964285D01*
X101545238Y-79821428D01*
X101640476Y-79726190D01*
X101735714Y-79678571D01*
X101926190Y-79630952D01*
X102069047Y-79630952D01*
X102259523Y-79678571D01*
X102354761Y-79726190D01*
X102450000Y-79821428D01*
X102497619Y-79964285D01*
X102497619Y-80059523D01*
X102450000Y-80202380D01*
X102402380Y-80250000D01*
X101497619Y-80678571D02*
X102497619Y-80678571D01*
X102021428Y-80678571D02*
X102021428Y-81250000D01*
X101497619Y-81250000D02*
X102497619Y-81250000D01*
X101497619Y-81726190D02*
X102497619Y-81726190D01*
X101497619Y-82297619D02*
X102069047Y-81869047D01*
X102497619Y-82297619D02*
X101926190Y-81726190D01*
X101592857Y-82726190D02*
X101545238Y-82773809D01*
X101497619Y-82726190D01*
X101545238Y-82678571D01*
X101592857Y-82726190D01*
X101497619Y-82726190D01*
X102116666Y-82726190D02*
X102069047Y-82773809D01*
X102021428Y-82726190D01*
X102069047Y-82678571D01*
X102116666Y-82726190D01*
X102021428Y-82726190D01*
X101545238Y-83916666D02*
X101497619Y-84059523D01*
X101497619Y-84297619D01*
X101545238Y-84392857D01*
X101592857Y-84440476D01*
X101688095Y-84488095D01*
X101783333Y-84488095D01*
X101878571Y-84440476D01*
X101926190Y-84392857D01*
X101973809Y-84297619D01*
X102021428Y-84107142D01*
X102069047Y-84011904D01*
X102116666Y-83964285D01*
X102211904Y-83916666D01*
X102307142Y-83916666D01*
X102402380Y-83964285D01*
X102450000Y-84011904D01*
X102497619Y-84107142D01*
X102497619Y-84345238D01*
X102450000Y-84488095D01*
X101592857Y-84916666D02*
X101545238Y-84964285D01*
X101497619Y-84916666D01*
X101545238Y-84869047D01*
X101592857Y-84916666D01*
X101497619Y-84916666D01*
X101592857Y-86726190D02*
X101545238Y-86678571D01*
X101497619Y-86535714D01*
X101497619Y-86440476D01*
X101545238Y-86297619D01*
X101640476Y-86202380D01*
X101735714Y-86154761D01*
X101926190Y-86107142D01*
X102069047Y-86107142D01*
X102259523Y-86154761D01*
X102354761Y-86202380D01*
X102450000Y-86297619D01*
X102497619Y-86440476D01*
X102497619Y-86535714D01*
X102450000Y-86678571D01*
X102402380Y-86726190D01*
X101497619Y-87297619D02*
X101545238Y-87202380D01*
X101592857Y-87154761D01*
X101688095Y-87107142D01*
X101973809Y-87107142D01*
X102069047Y-87154761D01*
X102116666Y-87202380D01*
X102164285Y-87297619D01*
X102164285Y-87440476D01*
X102116666Y-87535714D01*
X102069047Y-87583333D01*
X101973809Y-87630952D01*
X101688095Y-87630952D01*
X101592857Y-87583333D01*
X101545238Y-87535714D01*
X101497619Y-87440476D01*
X101497619Y-87297619D01*
X101497619Y-88202380D02*
X101545238Y-88107142D01*
X101640476Y-88059523D01*
X102497619Y-88059523D01*
X101497619Y-88726190D02*
X101545238Y-88630952D01*
X101640476Y-88583333D01*
X102497619Y-88583333D01*
X101497619Y-89107142D02*
X102164285Y-89107142D01*
X102497619Y-89107142D02*
X102450000Y-89059523D01*
X102402380Y-89107142D01*
X102450000Y-89154761D01*
X102497619Y-89107142D01*
X102402380Y-89107142D01*
X102164285Y-89583333D02*
X101497619Y-89583333D01*
X102069047Y-89583333D02*
X102116666Y-89630952D01*
X102164285Y-89726190D01*
X102164285Y-89869047D01*
X102116666Y-89964285D01*
X102021428Y-90011904D01*
X101497619Y-90011904D01*
X101545238Y-90440476D02*
X101497619Y-90535714D01*
X101497619Y-90726190D01*
X101545238Y-90821428D01*
X101640476Y-90869047D01*
X101688095Y-90869047D01*
X101783333Y-90821428D01*
X101830952Y-90726190D01*
X101830952Y-90583333D01*
X101878571Y-90488095D01*
X101973809Y-90440476D01*
X102021428Y-90440476D01*
X102116666Y-90488095D01*
X102164285Y-90583333D01*
X102164285Y-90726190D01*
X102116666Y-90821428D01*
D13*
X179100000Y-70660000D02*
X173090000Y-70660000D01*
X176850000Y-63840000D02*
X173090000Y-63840000D01*
X173090000Y-70660000D02*
X173090000Y-69400000D01*
X173090000Y-63840000D02*
X173090000Y-65100000D01*
X179350000Y-81410000D02*
X173340000Y-81410000D01*
X177100000Y-74590000D02*
X173340000Y-74590000D01*
X173340000Y-81410000D02*
X173340000Y-80150000D01*
X173340000Y-74590000D02*
X173340000Y-75850000D01*
X125400000Y-63090000D02*
X131410000Y-63090000D01*
X127650000Y-69910000D02*
X131410000Y-69910000D01*
X131410000Y-63090000D02*
X131410000Y-64350000D01*
X131410000Y-69910000D02*
X131410000Y-68650000D01*
X125400000Y-53090000D02*
X131410000Y-53090000D01*
X127650000Y-59910000D02*
X131410000Y-59910000D01*
X131410000Y-53090000D02*
X131410000Y-54350000D01*
X131410000Y-59910000D02*
X131410000Y-58650000D01*
X140296267Y-96990000D02*
X139953733Y-96990000D01*
X140296267Y-98010000D02*
X139953733Y-98010000D01*
X170000000Y-76750000D02*
X170000000Y-67750000D01*
X170000000Y-67750000D02*
X164250000Y-67750000D01*
X161750000Y-67750000D02*
X156000000Y-67750000D01*
X156000000Y-67750000D02*
X156000000Y-76750000D01*
X156000000Y-76750000D02*
X161750000Y-76750000D01*
X164000000Y-76750000D02*
X170000000Y-76750000D01*
X134500000Y-67750000D02*
X134500000Y-76750000D01*
X134500000Y-76750000D02*
X140250000Y-76750000D01*
X142750000Y-76750000D02*
X148500000Y-76750000D01*
X148500000Y-76750000D02*
X148500000Y-67750000D01*
X148500000Y-67750000D02*
X142750000Y-67750000D01*
X140500000Y-67750000D02*
X134500000Y-67750000D01*
X134500000Y-57750000D02*
X134500000Y-66750000D01*
X134500000Y-66750000D02*
X140250000Y-66750000D01*
X142750000Y-66750000D02*
X148500000Y-66750000D01*
X148500000Y-66750000D02*
X148500000Y-57750000D01*
X148500000Y-57750000D02*
X142750000Y-57750000D01*
X140500000Y-57750000D02*
X134500000Y-57750000D01*
X170000000Y-66750000D02*
X170000000Y-57750000D01*
X170000000Y-57750000D02*
X164250000Y-57750000D01*
X161750000Y-57750000D02*
X156000000Y-57750000D01*
X156000000Y-57750000D02*
X156000000Y-66750000D01*
X156000000Y-66750000D02*
X161750000Y-66750000D01*
X164000000Y-66750000D02*
X170000000Y-66750000D01*
X158546267Y-52010000D02*
X158203733Y-52010000D01*
X158546267Y-50990000D02*
X158203733Y-50990000D01*
D12*
X169650000Y-89150000D02*
X169650000Y-89750000D01*
X169650000Y-89150000D02*
X169900000Y-89150000D01*
X171850000Y-89150000D02*
X171600000Y-89150000D01*
X171850000Y-89150000D02*
X171850000Y-89750000D01*
X171850000Y-91350000D02*
X171600000Y-91350000D01*
X171850000Y-91350000D02*
X171850000Y-90750000D01*
X169650000Y-90740000D02*
X169650000Y-91350000D01*
D13*
X146440000Y-89870000D02*
X146440000Y-87130000D01*
X146440000Y-87130000D02*
X139900000Y-87130000D01*
X139900000Y-87130000D02*
X139900000Y-89870000D01*
X139900000Y-89870000D02*
X146440000Y-89870000D01*
X147210000Y-88500000D02*
X146440000Y-88500000D01*
X139130000Y-88500000D02*
X139900000Y-88500000D01*
X189500000Y-73600000D02*
X189500000Y-65500000D01*
X192500000Y-65500000D02*
X192500000Y-73600000D01*
X189500000Y-73600000D02*
X192500000Y-73600000D01*
X192500000Y-65500000D02*
X189500000Y-65500000D01*
X189500000Y-83600000D02*
X189500000Y-75500000D01*
X192500000Y-75500000D02*
X192500000Y-83600000D01*
X189500000Y-83600000D02*
X192500000Y-83600000D01*
X192500000Y-75500000D02*
X189500000Y-75500000D01*
X111750000Y-72650000D02*
X111750000Y-64550000D01*
X114750000Y-64550000D02*
X114750000Y-72650000D01*
X111750000Y-72650000D02*
X114750000Y-72650000D01*
X114750000Y-64550000D02*
X111750000Y-64550000D01*
X111750000Y-62900000D02*
X111750000Y-54800000D01*
X114750000Y-54800000D02*
X114750000Y-62900000D01*
X111750000Y-62900000D02*
X114750000Y-62900000D01*
X114750000Y-54800000D02*
X111750000Y-54800000D01*
X188340000Y-63880000D02*
X188670000Y-63880000D01*
X183930000Y-63880000D02*
X184261000Y-63880000D01*
X186041000Y-63880000D02*
X186560000Y-63880000D01*
X183930000Y-68620000D02*
X185060000Y-68620000D01*
X187540000Y-68620000D02*
X188670000Y-68620000D01*
X183930000Y-63880000D02*
X183930000Y-68620000D01*
X188670000Y-63880000D02*
X188670000Y-68620000D01*
X174186252Y-63010000D02*
X173663748Y-63010000D01*
X174186252Y-61590000D02*
X173663748Y-61590000D01*
X180190000Y-68236252D02*
X180190000Y-67713748D01*
X181610000Y-68236252D02*
X181610000Y-67713748D01*
X181311252Y-63910000D02*
X180788748Y-63910000D01*
X181311252Y-62490000D02*
X180788748Y-62490000D01*
X188340000Y-73880000D02*
X188670000Y-73880000D01*
X183930000Y-73880000D02*
X184261000Y-73880000D01*
X186041000Y-73880000D02*
X186560000Y-73880000D01*
X183930000Y-78620000D02*
X185060000Y-78620000D01*
X187540000Y-78620000D02*
X188670000Y-78620000D01*
X183930000Y-73880000D02*
X183930000Y-78620000D01*
X188670000Y-73880000D02*
X188670000Y-78620000D01*
X174936252Y-73760000D02*
X174413748Y-73760000D01*
X174936252Y-72340000D02*
X174413748Y-72340000D01*
X180190000Y-78236252D02*
X180190000Y-77713748D01*
X181610000Y-78236252D02*
X181610000Y-77713748D01*
X181311252Y-73910000D02*
X180788748Y-73910000D01*
X181311252Y-72490000D02*
X180788748Y-72490000D01*
X116210000Y-70320000D02*
X115880000Y-70320000D01*
X120620000Y-70320000D02*
X120289000Y-70320000D01*
X118509000Y-70320000D02*
X117990000Y-70320000D01*
X120620000Y-65580000D02*
X119490000Y-65580000D01*
X117010000Y-65580000D02*
X115880000Y-65580000D01*
X120620000Y-70320000D02*
X120620000Y-65580000D01*
X115880000Y-70320000D02*
X115880000Y-65580000D01*
X129263748Y-70790000D02*
X129786252Y-70790000D01*
X129263748Y-72210000D02*
X129786252Y-72210000D01*
X124360000Y-65963748D02*
X124360000Y-66486252D01*
X122940000Y-65963748D02*
X122940000Y-66486252D01*
X123238748Y-70290000D02*
X123761252Y-70290000D01*
X123238748Y-71710000D02*
X123761252Y-71710000D01*
X123238748Y-60290000D02*
X123761252Y-60290000D01*
X123238748Y-61710000D02*
X123761252Y-61710000D01*
X163640000Y-63486252D02*
X163640000Y-62963748D01*
X165060000Y-63486252D02*
X165060000Y-62963748D01*
X163640000Y-73361252D02*
X163640000Y-72838748D01*
X165060000Y-73361252D02*
X165060000Y-72838748D01*
X140860000Y-71013748D02*
X140860000Y-71536252D01*
X139440000Y-71013748D02*
X139440000Y-71536252D01*
X180250000Y-46210000D02*
X180000000Y-45710000D01*
X179750000Y-46210000D02*
X180250000Y-46210000D01*
X180000000Y-45710000D02*
X179750000Y-46210000D01*
X116210000Y-60320000D02*
X115880000Y-60320000D01*
X120620000Y-60320000D02*
X120289000Y-60320000D01*
X118509000Y-60320000D02*
X117990000Y-60320000D01*
X120620000Y-55580000D02*
X119490000Y-55580000D01*
X117010000Y-55580000D02*
X115880000Y-55580000D01*
X120620000Y-60320000D02*
X120620000Y-55580000D01*
X115880000Y-60320000D02*
X115880000Y-55580000D01*
X150300000Y-88800000D02*
X154700000Y-88800000D01*
X154700000Y-88800000D02*
X154700000Y-93200000D01*
X154700000Y-93200000D02*
X150300000Y-93200000D01*
X150300000Y-93200000D02*
X150300000Y-88800000D01*
X145990000Y-59546267D02*
X145990000Y-59203733D01*
X147010000Y-59546267D02*
X147010000Y-59203733D01*
X158510000Y-64953733D02*
X158510000Y-65296267D01*
X157490000Y-64953733D02*
X157490000Y-65296267D01*
X144240000Y-59546267D02*
X144240000Y-59203733D01*
X145260000Y-59546267D02*
X145260000Y-59203733D01*
X160260000Y-64953733D02*
X160260000Y-65296267D01*
X159240000Y-64953733D02*
X159240000Y-65296267D01*
X142490000Y-59546267D02*
X142490000Y-59203733D01*
X143510000Y-59546267D02*
X143510000Y-59203733D01*
X162010000Y-64953733D02*
X162010000Y-65296267D01*
X160990000Y-64953733D02*
X160990000Y-65296267D01*
X158510000Y-74878733D02*
X158510000Y-75221267D01*
X157490000Y-74878733D02*
X157490000Y-75221267D01*
X160260000Y-74828733D02*
X160260000Y-75171267D01*
X159240000Y-74828733D02*
X159240000Y-75171267D01*
X162010000Y-74828733D02*
X162010000Y-75171267D01*
X160990000Y-74828733D02*
X160990000Y-75171267D01*
X145990000Y-69546267D02*
X145990000Y-69203733D01*
X147010000Y-69546267D02*
X147010000Y-69203733D01*
X144240000Y-69546267D02*
X144240000Y-69203733D01*
X145260000Y-69546267D02*
X145260000Y-69203733D01*
X142490000Y-69546267D02*
X142490000Y-69203733D01*
X143510000Y-69546267D02*
X143510000Y-69203733D01*
X124360000Y-55963748D02*
X124360000Y-56486252D01*
X122940000Y-55963748D02*
X122940000Y-56486252D01*
X152500000Y-46210000D02*
X152250000Y-45710000D01*
X152000000Y-46210000D02*
X152500000Y-46210000D01*
X152250000Y-45710000D02*
X152000000Y-46210000D01*
X148990000Y-63370000D02*
X150450000Y-63370000D01*
X148990000Y-66530000D02*
X151150000Y-66530000D01*
X148990000Y-66530000D02*
X148990000Y-65600000D01*
X148990000Y-63370000D02*
X148990000Y-64300000D01*
X148990000Y-73370000D02*
X148990000Y-74300000D01*
X148990000Y-76530000D02*
X148990000Y-75600000D01*
X148990000Y-76530000D02*
X151150000Y-76530000D01*
X148990000Y-73370000D02*
X150450000Y-73370000D01*
X155510000Y-71130000D02*
X155510000Y-70200000D01*
X155510000Y-67970000D02*
X155510000Y-68900000D01*
X155510000Y-67970000D02*
X153350000Y-67970000D01*
X155510000Y-71130000D02*
X154050000Y-71130000D01*
X155510000Y-61130000D02*
X155510000Y-60200000D01*
X155510000Y-57970000D02*
X155510000Y-58900000D01*
X155510000Y-57970000D02*
X153350000Y-57970000D01*
X155510000Y-61130000D02*
X154050000Y-61130000D01*
X140860000Y-61013748D02*
X140860000Y-61536252D01*
X139440000Y-61013748D02*
X139440000Y-61536252D01*
X129263748Y-60790000D02*
X129786252Y-60790000D01*
X129263748Y-62210000D02*
X129786252Y-62210000D01*
X152760000Y-48203733D02*
X152760000Y-48546267D01*
X151740000Y-48203733D02*
X151740000Y-48546267D01*
X127530000Y-91850000D02*
X133310000Y-91850000D01*
X127530000Y-86750000D02*
X133310000Y-86750000D01*
X127530000Y-85630000D02*
X133310000Y-85630000D01*
X127530000Y-92370000D02*
X133310000Y-92370000D01*
X127530000Y-85630000D02*
X127530000Y-92370000D01*
X133310000Y-85630000D02*
X133310000Y-92370000D01*
X127290000Y-91970000D02*
X127290000Y-92610000D01*
X127290000Y-92610000D02*
X127690000Y-92610000D01*
X140450000Y-91530000D02*
X140450000Y-94470000D01*
X140450000Y-94470000D02*
X145890000Y-94470000D01*
X145890000Y-94470000D02*
X145890000Y-91530000D01*
X145890000Y-91530000D02*
X140450000Y-91530000D01*
X139230000Y-93000000D02*
X140450000Y-93000000D01*
X147110000Y-93000000D02*
X145890000Y-93000000D01*
X141350000Y-91530000D02*
X141350000Y-94470000D01*
X141470000Y-91530000D02*
X141470000Y-94470000D01*
X141230000Y-91530000D02*
X141230000Y-94470000D01*
D11*
X174238095Y-71202380D02*
X174238095Y-72011904D01*
X174285714Y-72107142D01*
X174333333Y-72154761D01*
X174428571Y-72202380D01*
X174619047Y-72202380D01*
X174714285Y-72154761D01*
X174761904Y-72107142D01*
X174809523Y-72011904D01*
X174809523Y-71202380D01*
X175761904Y-71202380D02*
X175285714Y-71202380D01*
X175238095Y-71678571D01*
X175285714Y-71630952D01*
X175380952Y-71583333D01*
X175619047Y-71583333D01*
X175714285Y-71630952D01*
X175761904Y-71678571D01*
X175809523Y-71773809D01*
X175809523Y-72011904D01*
X175761904Y-72107142D01*
X175714285Y-72154761D01*
X175619047Y-72202380D01*
X175380952Y-72202380D01*
X175285714Y-72154761D01*
X175238095Y-72107142D01*
X174488095Y-81952380D02*
X174488095Y-82761904D01*
X174535714Y-82857142D01*
X174583333Y-82904761D01*
X174678571Y-82952380D01*
X174869047Y-82952380D01*
X174964285Y-82904761D01*
X175011904Y-82857142D01*
X175059523Y-82761904D01*
X175059523Y-81952380D01*
X175964285Y-82285714D02*
X175964285Y-82952380D01*
X175726190Y-81904761D02*
X175488095Y-82619047D01*
X176107142Y-82619047D01*
X131738095Y-68952380D02*
X131738095Y-69761904D01*
X131785714Y-69857142D01*
X131833333Y-69904761D01*
X131928571Y-69952380D01*
X132119047Y-69952380D01*
X132214285Y-69904761D01*
X132261904Y-69857142D01*
X132309523Y-69761904D01*
X132309523Y-68952380D01*
X132738095Y-69047619D02*
X132785714Y-69000000D01*
X132880952Y-68952380D01*
X133119047Y-68952380D01*
X133214285Y-69000000D01*
X133261904Y-69047619D01*
X133309523Y-69142857D01*
X133309523Y-69238095D01*
X133261904Y-69380952D01*
X132690476Y-69952380D01*
X133309523Y-69952380D01*
X128738095Y-51452380D02*
X128738095Y-52261904D01*
X128785714Y-52357142D01*
X128833333Y-52404761D01*
X128928571Y-52452380D01*
X129119047Y-52452380D01*
X129214285Y-52404761D01*
X129261904Y-52357142D01*
X129309523Y-52261904D01*
X129309523Y-51452380D01*
X130309523Y-52452380D02*
X129738095Y-52452380D01*
X130023809Y-52452380D02*
X130023809Y-51452380D01*
X129928571Y-51595238D01*
X129833333Y-51690476D01*
X129738095Y-51738095D01*
X139291666Y-98858571D02*
X138958333Y-98858571D01*
X138958333Y-99382380D02*
X138958333Y-98382380D01*
X139434523Y-98382380D01*
X140148809Y-98858571D02*
X140291666Y-98906190D01*
X140339285Y-98953809D01*
X140386904Y-99049047D01*
X140386904Y-99191904D01*
X140339285Y-99287142D01*
X140291666Y-99334761D01*
X140196428Y-99382380D01*
X139815476Y-99382380D01*
X139815476Y-98382380D01*
X140148809Y-98382380D01*
X140244047Y-98430000D01*
X140291666Y-98477619D01*
X140339285Y-98572857D01*
X140339285Y-98668095D01*
X140291666Y-98763333D01*
X140244047Y-98810952D01*
X140148809Y-98858571D01*
X139815476Y-98858571D01*
X141339285Y-99382380D02*
X140767857Y-99382380D01*
X141053571Y-99382380D02*
X141053571Y-98382380D01*
X140958333Y-98525238D01*
X140863095Y-98620476D01*
X140767857Y-98668095D01*
X154202380Y-72559523D02*
X154916666Y-72559523D01*
X155059523Y-72607142D01*
X155154761Y-72702380D01*
X155202380Y-72845238D01*
X155202380Y-72940476D01*
X155202380Y-71559523D02*
X155202380Y-72130952D01*
X155202380Y-71845238D02*
X154202380Y-71845238D01*
X154345238Y-71940476D01*
X154440476Y-72035714D01*
X154488095Y-72130952D01*
X154535714Y-70702380D02*
X155202380Y-70702380D01*
X154154761Y-70940476D02*
X154869047Y-71178571D01*
X154869047Y-70559523D01*
X165666666Y-69988095D02*
X165666666Y-69511904D01*
X165952380Y-70083333D02*
X164952380Y-69750000D01*
X165952380Y-69416666D01*
X160857142Y-71940476D02*
X160904761Y-71988095D01*
X160952380Y-72130952D01*
X160952380Y-72226190D01*
X160904761Y-72369047D01*
X160809523Y-72464285D01*
X160714285Y-72511904D01*
X160523809Y-72559523D01*
X160380952Y-72559523D01*
X160190476Y-72511904D01*
X160095238Y-72464285D01*
X160000000Y-72369047D01*
X159952380Y-72226190D01*
X159952380Y-72130952D01*
X160000000Y-71988095D01*
X160047619Y-71940476D01*
X160428571Y-69607142D02*
X160428571Y-69940476D01*
X160952380Y-69940476D02*
X159952380Y-69940476D01*
X159952380Y-69464285D01*
X148952380Y-70059523D02*
X149666666Y-70059523D01*
X149809523Y-70107142D01*
X149904761Y-70202380D01*
X149952380Y-70345238D01*
X149952380Y-70440476D01*
X149952380Y-69059523D02*
X149952380Y-69630952D01*
X149952380Y-69345238D02*
X148952380Y-69345238D01*
X149095238Y-69440476D01*
X149190476Y-69535714D01*
X149238095Y-69630952D01*
X149047619Y-68678571D02*
X149000000Y-68630952D01*
X148952380Y-68535714D01*
X148952380Y-68297619D01*
X149000000Y-68202380D01*
X149047619Y-68154761D01*
X149142857Y-68107142D01*
X149238095Y-68107142D01*
X149380952Y-68154761D01*
X149952380Y-68726190D01*
X149952380Y-68107142D01*
X139166666Y-74988095D02*
X139166666Y-74511904D01*
X139452380Y-75083333D02*
X138452380Y-74750000D01*
X139452380Y-74416666D01*
X143928571Y-74607142D02*
X143928571Y-74940476D01*
X144452380Y-74940476D02*
X143452380Y-74940476D01*
X143452380Y-74464285D01*
X148952380Y-62059523D02*
X149666666Y-62059523D01*
X149809523Y-62107142D01*
X149904761Y-62202380D01*
X149952380Y-62345238D01*
X149952380Y-62440476D01*
X149952380Y-61059523D02*
X149952380Y-61630952D01*
X149952380Y-61345238D02*
X148952380Y-61345238D01*
X149095238Y-61440476D01*
X149190476Y-61535714D01*
X149238095Y-61630952D01*
X148952380Y-60202380D02*
X148952380Y-60392857D01*
X149000000Y-60488095D01*
X149047619Y-60535714D01*
X149190476Y-60630952D01*
X149380952Y-60678571D01*
X149761904Y-60678571D01*
X149857142Y-60630952D01*
X149904761Y-60583333D01*
X149952380Y-60488095D01*
X149952380Y-60297619D01*
X149904761Y-60202380D01*
X149857142Y-60154761D01*
X149761904Y-60107142D01*
X149523809Y-60107142D01*
X149428571Y-60154761D01*
X149380952Y-60202380D01*
X149333333Y-60297619D01*
X149333333Y-60488095D01*
X149380952Y-60583333D01*
X149428571Y-60630952D01*
X149523809Y-60678571D01*
X139166666Y-64988095D02*
X139166666Y-64511904D01*
X139452380Y-65083333D02*
X138452380Y-64750000D01*
X139452380Y-64416666D01*
X143928571Y-64607142D02*
X143928571Y-64940476D01*
X144452380Y-64940476D02*
X143452380Y-64940476D01*
X143452380Y-64464285D01*
X154452380Y-66059523D02*
X155166666Y-66059523D01*
X155309523Y-66107142D01*
X155404761Y-66202380D01*
X155452380Y-66345238D01*
X155452380Y-66440476D01*
X155452380Y-65059523D02*
X155452380Y-65630952D01*
X155452380Y-65345238D02*
X154452380Y-65345238D01*
X154595238Y-65440476D01*
X154690476Y-65535714D01*
X154738095Y-65630952D01*
X155452380Y-64107142D02*
X155452380Y-64678571D01*
X155452380Y-64392857D02*
X154452380Y-64392857D01*
X154595238Y-64488095D01*
X154690476Y-64583333D01*
X154738095Y-64678571D01*
X165666666Y-59988095D02*
X165666666Y-59511904D01*
X165952380Y-60083333D02*
X164952380Y-59750000D01*
X165952380Y-59416666D01*
X160428571Y-59607142D02*
X160428571Y-59940476D01*
X160952380Y-59940476D02*
X159952380Y-59940476D01*
X159952380Y-59464285D01*
X160232142Y-53382380D02*
X159898809Y-52906190D01*
X159660714Y-53382380D02*
X159660714Y-52382380D01*
X160041666Y-52382380D01*
X160136904Y-52430000D01*
X160184523Y-52477619D01*
X160232142Y-52572857D01*
X160232142Y-52715714D01*
X160184523Y-52810952D01*
X160136904Y-52858571D01*
X160041666Y-52906190D01*
X159660714Y-52906190D01*
X161184523Y-53382380D02*
X160613095Y-53382380D01*
X160898809Y-53382380D02*
X160898809Y-52382380D01*
X160803571Y-52525238D01*
X160708333Y-52620476D01*
X160613095Y-52668095D01*
X162041666Y-52715714D02*
X162041666Y-53382380D01*
X161803571Y-52334761D02*
X161565476Y-53049047D01*
X162184523Y-53049047D01*
X103428571Y-70938571D02*
X103095238Y-70938571D01*
X103095238Y-71462380D02*
X103095238Y-70462380D01*
X103571428Y-70462380D01*
X103952380Y-71462380D02*
X103952380Y-70462380D01*
X104428571Y-71462380D02*
X104428571Y-70462380D01*
X104666666Y-70462380D01*
X104809523Y-70510000D01*
X104904761Y-70605238D01*
X104952380Y-70700476D01*
X105000000Y-70890952D01*
X105000000Y-71033809D01*
X104952380Y-71224285D01*
X104904761Y-71319523D01*
X104809523Y-71414761D01*
X104666666Y-71462380D01*
X104428571Y-71462380D01*
X105857142Y-70795714D02*
X105857142Y-71462380D01*
X105619047Y-70414761D02*
X105380952Y-71129047D01*
X106000000Y-71129047D01*
X132968571Y-76571428D02*
X132968571Y-76904761D01*
X133492380Y-76904761D02*
X132492380Y-76904761D01*
X132492380Y-76428571D01*
X133492380Y-76047619D02*
X132492380Y-76047619D01*
X133492380Y-75571428D02*
X132492380Y-75571428D01*
X132492380Y-75333333D01*
X132540000Y-75190476D01*
X132635238Y-75095238D01*
X132730476Y-75047619D01*
X132920952Y-75000000D01*
X133063809Y-75000000D01*
X133254285Y-75047619D01*
X133349523Y-75095238D01*
X133444761Y-75190476D01*
X133492380Y-75333333D01*
X133492380Y-75571428D01*
X132492380Y-74666666D02*
X132492380Y-74047619D01*
X132873333Y-74380952D01*
X132873333Y-74238095D01*
X132920952Y-74142857D01*
X132968571Y-74095238D01*
X133063809Y-74047619D01*
X133301904Y-74047619D01*
X133397142Y-74095238D01*
X133444761Y-74142857D01*
X133492380Y-74238095D01*
X133492380Y-74523809D01*
X133444761Y-74619047D01*
X133397142Y-74666666D01*
X159428571Y-93888571D02*
X159095238Y-93888571D01*
X159095238Y-94412380D02*
X159095238Y-93412380D01*
X159571428Y-93412380D01*
X159952380Y-94412380D02*
X159952380Y-93412380D01*
X160428571Y-94412380D02*
X160428571Y-93412380D01*
X160666666Y-93412380D01*
X160809523Y-93460000D01*
X160904761Y-93555238D01*
X160952380Y-93650476D01*
X161000000Y-93840952D01*
X161000000Y-93983809D01*
X160952380Y-94174285D01*
X160904761Y-94269523D01*
X160809523Y-94364761D01*
X160666666Y-94412380D01*
X160428571Y-94412380D01*
X161380952Y-93507619D02*
X161428571Y-93460000D01*
X161523809Y-93412380D01*
X161761904Y-93412380D01*
X161857142Y-93460000D01*
X161904761Y-93507619D01*
X161952380Y-93602857D01*
X161952380Y-93698095D01*
X161904761Y-93840952D01*
X161333333Y-94412380D01*
X161952380Y-94412380D01*
X183428571Y-49888571D02*
X183095238Y-49888571D01*
X183095238Y-50412380D02*
X183095238Y-49412380D01*
X183571428Y-49412380D01*
X183952380Y-50412380D02*
X183952380Y-49412380D01*
X184428571Y-50412380D02*
X184428571Y-49412380D01*
X184666666Y-49412380D01*
X184809523Y-49460000D01*
X184904761Y-49555238D01*
X184952380Y-49650476D01*
X185000000Y-49840952D01*
X185000000Y-49983809D01*
X184952380Y-50174285D01*
X184904761Y-50269523D01*
X184809523Y-50364761D01*
X184666666Y-50412380D01*
X184428571Y-50412380D01*
X185952380Y-50412380D02*
X185380952Y-50412380D01*
X185666666Y-50412380D02*
X185666666Y-49412380D01*
X185571428Y-49555238D01*
X185476190Y-49650476D01*
X185380952Y-49698095D01*
X172452380Y-91011904D02*
X173261904Y-91011904D01*
X173357142Y-90964285D01*
X173404761Y-90916666D01*
X173452380Y-90821428D01*
X173452380Y-90630952D01*
X173404761Y-90535714D01*
X173357142Y-90488095D01*
X173261904Y-90440476D01*
X172452380Y-90440476D01*
X172452380Y-90059523D02*
X172452380Y-89440476D01*
X172833333Y-89773809D01*
X172833333Y-89630952D01*
X172880952Y-89535714D01*
X172928571Y-89488095D01*
X173023809Y-89440476D01*
X173261904Y-89440476D01*
X173357142Y-89488095D01*
X173404761Y-89535714D01*
X173452380Y-89630952D01*
X173452380Y-89916666D01*
X173404761Y-90011904D01*
X173357142Y-90059523D01*
X142836666Y-85678571D02*
X142503333Y-85678571D01*
X142503333Y-86202380D02*
X142503333Y-85202380D01*
X142979523Y-85202380D01*
X143884285Y-86202380D02*
X143312857Y-86202380D01*
X143598571Y-86202380D02*
X143598571Y-85202380D01*
X143503333Y-85345238D01*
X143408095Y-85440476D01*
X143312857Y-85488095D01*
X189702380Y-70759523D02*
X189702380Y-70302380D01*
X190702380Y-70530952D02*
X189702380Y-70530952D01*
X190702380Y-70035714D02*
X189702380Y-70035714D01*
X189702380Y-69730952D01*
X189750000Y-69654761D01*
X189797619Y-69616666D01*
X189892857Y-69578571D01*
X190035714Y-69578571D01*
X190130952Y-69616666D01*
X190178571Y-69654761D01*
X190226190Y-69730952D01*
X190226190Y-70035714D01*
X190035714Y-68892857D02*
X190702380Y-68892857D01*
X189654761Y-69083333D02*
X190369047Y-69273809D01*
X190369047Y-68778571D01*
X189702380Y-80759523D02*
X189702380Y-80302380D01*
X190702380Y-80530952D02*
X189702380Y-80530952D01*
X190702380Y-80035714D02*
X189702380Y-80035714D01*
X189702380Y-79730952D01*
X189750000Y-79654761D01*
X189797619Y-79616666D01*
X189892857Y-79578571D01*
X190035714Y-79578571D01*
X190130952Y-79616666D01*
X190178571Y-79654761D01*
X190226190Y-79730952D01*
X190226190Y-80035714D01*
X189702380Y-79311904D02*
X189702380Y-78816666D01*
X190083333Y-79083333D01*
X190083333Y-78969047D01*
X190130952Y-78892857D01*
X190178571Y-78854761D01*
X190273809Y-78816666D01*
X190511904Y-78816666D01*
X190607142Y-78854761D01*
X190654761Y-78892857D01*
X190702380Y-78969047D01*
X190702380Y-79197619D01*
X190654761Y-79273809D01*
X190607142Y-79311904D01*
X111952380Y-69809523D02*
X111952380Y-69352380D01*
X112952380Y-69580952D02*
X111952380Y-69580952D01*
X112952380Y-69085714D02*
X111952380Y-69085714D01*
X111952380Y-68780952D01*
X112000000Y-68704761D01*
X112047619Y-68666666D01*
X112142857Y-68628571D01*
X112285714Y-68628571D01*
X112380952Y-68666666D01*
X112428571Y-68704761D01*
X112476190Y-68780952D01*
X112476190Y-69085714D01*
X112047619Y-68323809D02*
X112000000Y-68285714D01*
X111952380Y-68209523D01*
X111952380Y-68019047D01*
X112000000Y-67942857D01*
X112047619Y-67904761D01*
X112142857Y-67866666D01*
X112238095Y-67866666D01*
X112380952Y-67904761D01*
X112952380Y-68361904D01*
X112952380Y-67866666D01*
X111952380Y-60059523D02*
X111952380Y-59602380D01*
X112952380Y-59830952D02*
X111952380Y-59830952D01*
X112952380Y-59335714D02*
X111952380Y-59335714D01*
X111952380Y-59030952D01*
X112000000Y-58954761D01*
X112047619Y-58916666D01*
X112142857Y-58878571D01*
X112285714Y-58878571D01*
X112380952Y-58916666D01*
X112428571Y-58954761D01*
X112476190Y-59030952D01*
X112476190Y-59335714D01*
X112952380Y-58116666D02*
X112952380Y-58573809D01*
X112952380Y-58345238D02*
X111952380Y-58345238D01*
X112095238Y-58421428D01*
X112190476Y-58497619D01*
X112238095Y-58573809D01*
X185704761Y-62052380D02*
X185371428Y-61576190D01*
X185133333Y-62052380D02*
X185133333Y-61052380D01*
X185514285Y-61052380D01*
X185609523Y-61100000D01*
X185657142Y-61147619D01*
X185704761Y-61242857D01*
X185704761Y-61385714D01*
X185657142Y-61480952D01*
X185609523Y-61528571D01*
X185514285Y-61576190D01*
X185133333Y-61576190D01*
X185990476Y-61052380D02*
X186323809Y-62052380D01*
X186657142Y-61052380D01*
X187419047Y-61052380D02*
X187228571Y-61052380D01*
X187133333Y-61100000D01*
X187085714Y-61147619D01*
X186990476Y-61290476D01*
X186942857Y-61480952D01*
X186942857Y-61861904D01*
X186990476Y-61957142D01*
X187038095Y-62004761D01*
X187133333Y-62052380D01*
X187323809Y-62052380D01*
X187419047Y-62004761D01*
X187466666Y-61957142D01*
X187514285Y-61861904D01*
X187514285Y-61623809D01*
X187466666Y-61528571D01*
X187419047Y-61480952D01*
X187323809Y-61433333D01*
X187133333Y-61433333D01*
X187038095Y-61480952D01*
X186990476Y-61528571D01*
X186942857Y-61623809D01*
X171307142Y-63142857D02*
X171354761Y-63190476D01*
X171402380Y-63333333D01*
X171402380Y-63428571D01*
X171354761Y-63571428D01*
X171259523Y-63666666D01*
X171164285Y-63714285D01*
X170973809Y-63761904D01*
X170830952Y-63761904D01*
X170640476Y-63714285D01*
X170545238Y-63666666D01*
X170450000Y-63571428D01*
X170402380Y-63428571D01*
X170402380Y-63333333D01*
X170450000Y-63190476D01*
X170497619Y-63142857D01*
X171402380Y-62190476D02*
X171402380Y-62761904D01*
X171402380Y-62476190D02*
X170402380Y-62476190D01*
X170545238Y-62571428D01*
X170640476Y-62666666D01*
X170688095Y-62761904D01*
X171402380Y-61714285D02*
X171402380Y-61523809D01*
X171354761Y-61428571D01*
X171307142Y-61380952D01*
X171164285Y-61285714D01*
X170973809Y-61238095D01*
X170592857Y-61238095D01*
X170497619Y-61285714D01*
X170450000Y-61333333D01*
X170402380Y-61428571D01*
X170402380Y-61619047D01*
X170450000Y-61714285D01*
X170497619Y-61761904D01*
X170592857Y-61809523D01*
X170830952Y-61809523D01*
X170926190Y-61761904D01*
X170973809Y-61714285D01*
X171021428Y-61619047D01*
X171021428Y-61428571D01*
X170973809Y-61333333D01*
X170926190Y-61285714D01*
X170830952Y-61238095D01*
X183152380Y-68617857D02*
X182676190Y-68951190D01*
X183152380Y-69189285D02*
X182152380Y-69189285D01*
X182152380Y-68808333D01*
X182200000Y-68713095D01*
X182247619Y-68665476D01*
X182342857Y-68617857D01*
X182485714Y-68617857D01*
X182580952Y-68665476D01*
X182628571Y-68713095D01*
X182676190Y-68808333D01*
X182676190Y-69189285D01*
X183152380Y-67665476D02*
X183152380Y-68236904D01*
X183152380Y-67951190D02*
X182152380Y-67951190D01*
X182295238Y-68046428D01*
X182390476Y-68141666D01*
X182438095Y-68236904D01*
X182152380Y-67046428D02*
X182152380Y-66951190D01*
X182200000Y-66855952D01*
X182247619Y-66808333D01*
X182342857Y-66760714D01*
X182533333Y-66713095D01*
X182771428Y-66713095D01*
X182961904Y-66760714D01*
X183057142Y-66808333D01*
X183104761Y-66855952D01*
X183152380Y-66951190D01*
X183152380Y-67046428D01*
X183104761Y-67141666D01*
X183057142Y-67189285D01*
X182961904Y-67236904D01*
X182771428Y-67284523D01*
X182533333Y-67284523D01*
X182342857Y-67236904D01*
X182247619Y-67189285D01*
X182200000Y-67141666D01*
X182152380Y-67046428D01*
X180883333Y-65302380D02*
X180550000Y-64826190D01*
X180311904Y-65302380D02*
X180311904Y-64302380D01*
X180692857Y-64302380D01*
X180788095Y-64350000D01*
X180835714Y-64397619D01*
X180883333Y-64492857D01*
X180883333Y-64635714D01*
X180835714Y-64730952D01*
X180788095Y-64778571D01*
X180692857Y-64826190D01*
X180311904Y-64826190D01*
X181740476Y-64635714D02*
X181740476Y-65302380D01*
X181502380Y-64254761D02*
X181264285Y-64969047D01*
X181883333Y-64969047D01*
X185704761Y-72052380D02*
X185371428Y-71576190D01*
X185133333Y-72052380D02*
X185133333Y-71052380D01*
X185514285Y-71052380D01*
X185609523Y-71100000D01*
X185657142Y-71147619D01*
X185704761Y-71242857D01*
X185704761Y-71385714D01*
X185657142Y-71480952D01*
X185609523Y-71528571D01*
X185514285Y-71576190D01*
X185133333Y-71576190D01*
X185990476Y-71052380D02*
X186323809Y-72052380D01*
X186657142Y-71052380D01*
X187419047Y-71385714D02*
X187419047Y-72052380D01*
X187180952Y-71004761D02*
X186942857Y-71719047D01*
X187561904Y-71719047D01*
X172057142Y-73892857D02*
X172104761Y-73940476D01*
X172152380Y-74083333D01*
X172152380Y-74178571D01*
X172104761Y-74321428D01*
X172009523Y-74416666D01*
X171914285Y-74464285D01*
X171723809Y-74511904D01*
X171580952Y-74511904D01*
X171390476Y-74464285D01*
X171295238Y-74416666D01*
X171200000Y-74321428D01*
X171152380Y-74178571D01*
X171152380Y-74083333D01*
X171200000Y-73940476D01*
X171247619Y-73892857D01*
X172152380Y-72940476D02*
X172152380Y-73511904D01*
X172152380Y-73226190D02*
X171152380Y-73226190D01*
X171295238Y-73321428D01*
X171390476Y-73416666D01*
X171438095Y-73511904D01*
X171152380Y-72607142D02*
X171152380Y-71988095D01*
X171533333Y-72321428D01*
X171533333Y-72178571D01*
X171580952Y-72083333D01*
X171628571Y-72035714D01*
X171723809Y-71988095D01*
X171961904Y-71988095D01*
X172057142Y-72035714D01*
X172104761Y-72083333D01*
X172152380Y-72178571D01*
X172152380Y-72464285D01*
X172104761Y-72559523D01*
X172057142Y-72607142D01*
X183152380Y-78141666D02*
X182676190Y-78475000D01*
X183152380Y-78713095D02*
X182152380Y-78713095D01*
X182152380Y-78332142D01*
X182200000Y-78236904D01*
X182247619Y-78189285D01*
X182342857Y-78141666D01*
X182485714Y-78141666D01*
X182580952Y-78189285D01*
X182628571Y-78236904D01*
X182676190Y-78332142D01*
X182676190Y-78713095D01*
X182152380Y-77808333D02*
X182152380Y-77141666D01*
X183152380Y-77570238D01*
X180883333Y-75302380D02*
X180550000Y-74826190D01*
X180311904Y-75302380D02*
X180311904Y-74302380D01*
X180692857Y-74302380D01*
X180788095Y-74350000D01*
X180835714Y-74397619D01*
X180883333Y-74492857D01*
X180883333Y-74635714D01*
X180835714Y-74730952D01*
X180788095Y-74778571D01*
X180692857Y-74826190D01*
X180311904Y-74826190D01*
X181264285Y-74397619D02*
X181311904Y-74350000D01*
X181407142Y-74302380D01*
X181645238Y-74302380D01*
X181740476Y-74350000D01*
X181788095Y-74397619D01*
X181835714Y-74492857D01*
X181835714Y-74588095D01*
X181788095Y-74730952D01*
X181216666Y-75302380D01*
X181835714Y-75302380D01*
X117654761Y-73052380D02*
X117321428Y-72576190D01*
X117083333Y-73052380D02*
X117083333Y-72052380D01*
X117464285Y-72052380D01*
X117559523Y-72100000D01*
X117607142Y-72147619D01*
X117654761Y-72242857D01*
X117654761Y-72385714D01*
X117607142Y-72480952D01*
X117559523Y-72528571D01*
X117464285Y-72576190D01*
X117083333Y-72576190D01*
X117940476Y-72052380D02*
X118273809Y-73052380D01*
X118607142Y-72052380D01*
X118892857Y-72147619D02*
X118940476Y-72100000D01*
X119035714Y-72052380D01*
X119273809Y-72052380D01*
X119369047Y-72100000D01*
X119416666Y-72147619D01*
X119464285Y-72242857D01*
X119464285Y-72338095D01*
X119416666Y-72480952D01*
X118845238Y-73052380D01*
X119464285Y-73052380D01*
X132857142Y-71466666D02*
X132904761Y-71514285D01*
X132952380Y-71657142D01*
X132952380Y-71752380D01*
X132904761Y-71895238D01*
X132809523Y-71990476D01*
X132714285Y-72038095D01*
X132523809Y-72085714D01*
X132380952Y-72085714D01*
X132190476Y-72038095D01*
X132095238Y-71990476D01*
X132000000Y-71895238D01*
X131952380Y-71752380D01*
X131952380Y-71657142D01*
X132000000Y-71514285D01*
X132047619Y-71466666D01*
X132285714Y-70609523D02*
X132952380Y-70609523D01*
X131904761Y-70847619D02*
X132619047Y-71085714D01*
X132619047Y-70466666D01*
X122302380Y-66391666D02*
X121826190Y-66725000D01*
X122302380Y-66963095D02*
X121302380Y-66963095D01*
X121302380Y-66582142D01*
X121350000Y-66486904D01*
X121397619Y-66439285D01*
X121492857Y-66391666D01*
X121635714Y-66391666D01*
X121730952Y-66439285D01*
X121778571Y-66486904D01*
X121826190Y-66582142D01*
X121826190Y-66963095D01*
X121302380Y-65486904D02*
X121302380Y-65963095D01*
X121778571Y-66010714D01*
X121730952Y-65963095D01*
X121683333Y-65867857D01*
X121683333Y-65629761D01*
X121730952Y-65534523D01*
X121778571Y-65486904D01*
X121873809Y-65439285D01*
X122111904Y-65439285D01*
X122207142Y-65486904D01*
X122254761Y-65534523D01*
X122302380Y-65629761D01*
X122302380Y-65867857D01*
X122254761Y-65963095D01*
X122207142Y-66010714D01*
X123333333Y-69802380D02*
X123000000Y-69326190D01*
X122761904Y-69802380D02*
X122761904Y-68802380D01*
X123142857Y-68802380D01*
X123238095Y-68850000D01*
X123285714Y-68897619D01*
X123333333Y-68992857D01*
X123333333Y-69135714D01*
X123285714Y-69230952D01*
X123238095Y-69278571D01*
X123142857Y-69326190D01*
X122761904Y-69326190D01*
X124285714Y-69802380D02*
X123714285Y-69802380D01*
X124000000Y-69802380D02*
X124000000Y-68802380D01*
X123904761Y-68945238D01*
X123809523Y-69040476D01*
X123714285Y-69088095D01*
X122857142Y-59802380D02*
X122523809Y-59326190D01*
X122285714Y-59802380D02*
X122285714Y-58802380D01*
X122666666Y-58802380D01*
X122761904Y-58850000D01*
X122809523Y-58897619D01*
X122857142Y-58992857D01*
X122857142Y-59135714D01*
X122809523Y-59230952D01*
X122761904Y-59278571D01*
X122666666Y-59326190D01*
X122285714Y-59326190D01*
X123809523Y-59802380D02*
X123238095Y-59802380D01*
X123523809Y-59802380D02*
X123523809Y-58802380D01*
X123428571Y-58945238D01*
X123333333Y-59040476D01*
X123238095Y-59088095D01*
X124714285Y-58802380D02*
X124238095Y-58802380D01*
X124190476Y-59278571D01*
X124238095Y-59230952D01*
X124333333Y-59183333D01*
X124571428Y-59183333D01*
X124666666Y-59230952D01*
X124714285Y-59278571D01*
X124761904Y-59373809D01*
X124761904Y-59611904D01*
X124714285Y-59707142D01*
X124666666Y-59754761D01*
X124571428Y-59802380D01*
X124333333Y-59802380D01*
X124238095Y-59754761D01*
X124190476Y-59707142D01*
D16*
X164907142Y-60321428D02*
X164954761Y-60345238D01*
X165002380Y-60416666D01*
X165002380Y-60464285D01*
X164954761Y-60535714D01*
X164859523Y-60583333D01*
X164764285Y-60607142D01*
X164573809Y-60630952D01*
X164430952Y-60630952D01*
X164240476Y-60607142D01*
X164145238Y-60583333D01*
X164050000Y-60535714D01*
X164002380Y-60464285D01*
X164002380Y-60416666D01*
X164050000Y-60345238D01*
X164097619Y-60321428D01*
X164097619Y-60130952D02*
X164050000Y-60107142D01*
X164002380Y-60059523D01*
X164002380Y-59940476D01*
X164050000Y-59892857D01*
X164097619Y-59869047D01*
X164192857Y-59845238D01*
X164288095Y-59845238D01*
X164430952Y-59869047D01*
X165002380Y-60154761D01*
X165002380Y-59845238D01*
X164335714Y-59416666D02*
X165002380Y-59416666D01*
X163954761Y-59535714D02*
X164669047Y-59654761D01*
X164669047Y-59345238D01*
X164707142Y-69821428D02*
X164754761Y-69845238D01*
X164802380Y-69916666D01*
X164802380Y-69964285D01*
X164754761Y-70035714D01*
X164659523Y-70083333D01*
X164564285Y-70107142D01*
X164373809Y-70130952D01*
X164230952Y-70130952D01*
X164040476Y-70107142D01*
X163945238Y-70083333D01*
X163850000Y-70035714D01*
X163802380Y-69964285D01*
X163802380Y-69916666D01*
X163850000Y-69845238D01*
X163897619Y-69821428D01*
X163897619Y-69630952D02*
X163850000Y-69607142D01*
X163802380Y-69559523D01*
X163802380Y-69440476D01*
X163850000Y-69392857D01*
X163897619Y-69369047D01*
X163992857Y-69345238D01*
X164088095Y-69345238D01*
X164230952Y-69369047D01*
X164802380Y-69654761D01*
X164802380Y-69345238D01*
X163802380Y-69178571D02*
X163802380Y-68869047D01*
X164183333Y-69035714D01*
X164183333Y-68964285D01*
X164230952Y-68916666D01*
X164278571Y-68892857D01*
X164373809Y-68869047D01*
X164611904Y-68869047D01*
X164707142Y-68892857D01*
X164754761Y-68916666D01*
X164802380Y-68964285D01*
X164802380Y-69107142D01*
X164754761Y-69154761D01*
X164707142Y-69178571D01*
X140507142Y-75121428D02*
X140554761Y-75145238D01*
X140602380Y-75216666D01*
X140602380Y-75264285D01*
X140554761Y-75335714D01*
X140459523Y-75383333D01*
X140364285Y-75407142D01*
X140173809Y-75430952D01*
X140030952Y-75430952D01*
X139840476Y-75407142D01*
X139745238Y-75383333D01*
X139650000Y-75335714D01*
X139602380Y-75264285D01*
X139602380Y-75216666D01*
X139650000Y-75145238D01*
X139697619Y-75121428D01*
X139697619Y-74930952D02*
X139650000Y-74907142D01*
X139602380Y-74859523D01*
X139602380Y-74740476D01*
X139650000Y-74692857D01*
X139697619Y-74669047D01*
X139792857Y-74645238D01*
X139888095Y-74645238D01*
X140030952Y-74669047D01*
X140602380Y-74954761D01*
X140602380Y-74645238D01*
X139602380Y-74335714D02*
X139602380Y-74288095D01*
X139650000Y-74240476D01*
X139697619Y-74216666D01*
X139792857Y-74192857D01*
X139983333Y-74169047D01*
X140221428Y-74169047D01*
X140411904Y-74192857D01*
X140507142Y-74216666D01*
X140554761Y-74240476D01*
X140602380Y-74288095D01*
X140602380Y-74335714D01*
X140554761Y-74383333D01*
X140507142Y-74407142D01*
X140411904Y-74430952D01*
X140221428Y-74454761D01*
X139983333Y-74454761D01*
X139792857Y-74430952D01*
X139697619Y-74407142D01*
X139650000Y-74383333D01*
X139602380Y-74335714D01*
D11*
X186290476Y-40552380D02*
X186290476Y-41266666D01*
X186242857Y-41409523D01*
X186147619Y-41504761D01*
X186004761Y-41552380D01*
X185909523Y-41552380D01*
X186719047Y-40647619D02*
X186766666Y-40600000D01*
X186861904Y-40552380D01*
X187100000Y-40552380D01*
X187195238Y-40600000D01*
X187242857Y-40647619D01*
X187290476Y-40742857D01*
X187290476Y-40838095D01*
X187242857Y-40980952D01*
X186671428Y-41552380D01*
X187290476Y-41552380D01*
X188242857Y-41552380D02*
X187671428Y-41552380D01*
X187957142Y-41552380D02*
X187957142Y-40552380D01*
X187861904Y-40695238D01*
X187766666Y-40790476D01*
X187671428Y-40838095D01*
D16*
X162392857Y-70778571D02*
X162345238Y-70754761D01*
X162297619Y-70683333D01*
X162297619Y-70635714D01*
X162345238Y-70564285D01*
X162440476Y-70516666D01*
X162535714Y-70492857D01*
X162726190Y-70469047D01*
X162869047Y-70469047D01*
X163059523Y-70492857D01*
X163154761Y-70516666D01*
X163250000Y-70564285D01*
X163297619Y-70635714D01*
X163297619Y-70683333D01*
X163250000Y-70754761D01*
X163202380Y-70778571D01*
X162297619Y-71254761D02*
X162297619Y-70969047D01*
X162297619Y-71111904D02*
X163297619Y-71111904D01*
X163154761Y-71064285D01*
X163059523Y-71016666D01*
X163011904Y-70969047D01*
X162964285Y-71683333D02*
X162297619Y-71683333D01*
X163345238Y-71564285D02*
X162630952Y-71445238D01*
X162630952Y-71754761D01*
X142137142Y-63821428D02*
X142184761Y-63845238D01*
X142232380Y-63916666D01*
X142232380Y-63964285D01*
X142184761Y-64035714D01*
X142089523Y-64083333D01*
X141994285Y-64107142D01*
X141803809Y-64130952D01*
X141660952Y-64130952D01*
X141470476Y-64107142D01*
X141375238Y-64083333D01*
X141280000Y-64035714D01*
X141232380Y-63964285D01*
X141232380Y-63916666D01*
X141280000Y-63845238D01*
X141327619Y-63821428D01*
X142232380Y-63345238D02*
X142232380Y-63630952D01*
X142232380Y-63488095D02*
X141232380Y-63488095D01*
X141375238Y-63535714D01*
X141470476Y-63583333D01*
X141518095Y-63630952D01*
X141327619Y-63154761D02*
X141280000Y-63130952D01*
X141232380Y-63083333D01*
X141232380Y-62964285D01*
X141280000Y-62916666D01*
X141327619Y-62892857D01*
X141422857Y-62869047D01*
X141518095Y-62869047D01*
X141660952Y-62892857D01*
X142232380Y-63178571D01*
X142232380Y-62869047D01*
X162642857Y-61416666D02*
X162595238Y-61392857D01*
X162547619Y-61321428D01*
X162547619Y-61273809D01*
X162595238Y-61202380D01*
X162690476Y-61154761D01*
X162785714Y-61130952D01*
X162976190Y-61107142D01*
X163119047Y-61107142D01*
X163309523Y-61130952D01*
X163404761Y-61154761D01*
X163500000Y-61202380D01*
X163547619Y-61273809D01*
X163547619Y-61321428D01*
X163500000Y-61392857D01*
X163452380Y-61416666D01*
X162547619Y-61654761D02*
X162547619Y-61750000D01*
X162595238Y-61797619D01*
X162642857Y-61821428D01*
X162785714Y-61869047D01*
X162976190Y-61892857D01*
X163357142Y-61892857D01*
X163452380Y-61869047D01*
X163500000Y-61845238D01*
X163547619Y-61797619D01*
X163547619Y-61702380D01*
X163500000Y-61654761D01*
X163452380Y-61630952D01*
X163357142Y-61607142D01*
X163119047Y-61607142D01*
X163023809Y-61630952D01*
X162976190Y-61654761D01*
X162928571Y-61702380D01*
X162928571Y-61797619D01*
X162976190Y-61845238D01*
X163023809Y-61869047D01*
X163119047Y-61892857D01*
X142107142Y-73083333D02*
X142154761Y-73107142D01*
X142202380Y-73178571D01*
X142202380Y-73226190D01*
X142154761Y-73297619D01*
X142059523Y-73345238D01*
X141964285Y-73369047D01*
X141773809Y-73392857D01*
X141630952Y-73392857D01*
X141440476Y-73369047D01*
X141345238Y-73345238D01*
X141250000Y-73297619D01*
X141202380Y-73226190D01*
X141202380Y-73178571D01*
X141250000Y-73107142D01*
X141297619Y-73083333D01*
X141630952Y-72797619D02*
X141583333Y-72845238D01*
X141535714Y-72869047D01*
X141440476Y-72892857D01*
X141392857Y-72892857D01*
X141297619Y-72869047D01*
X141250000Y-72845238D01*
X141202380Y-72797619D01*
X141202380Y-72702380D01*
X141250000Y-72654761D01*
X141297619Y-72630952D01*
X141392857Y-72607142D01*
X141440476Y-72607142D01*
X141535714Y-72630952D01*
X141583333Y-72654761D01*
X141630952Y-72702380D01*
X141630952Y-72797619D01*
X141678571Y-72845238D01*
X141726190Y-72869047D01*
X141821428Y-72892857D01*
X142011904Y-72892857D01*
X142107142Y-72869047D01*
X142154761Y-72845238D01*
X142202380Y-72797619D01*
X142202380Y-72702380D01*
X142154761Y-72654761D01*
X142107142Y-72630952D01*
X142011904Y-72607142D01*
X141821428Y-72607142D01*
X141726190Y-72630952D01*
X141678571Y-72654761D01*
X141630952Y-72702380D01*
X162392857Y-72216666D02*
X162345238Y-72192857D01*
X162297619Y-72121428D01*
X162297619Y-72073809D01*
X162345238Y-72002380D01*
X162440476Y-71954761D01*
X162535714Y-71930952D01*
X162726190Y-71907142D01*
X162869047Y-71907142D01*
X163059523Y-71930952D01*
X163154761Y-71954761D01*
X163250000Y-72002380D01*
X163297619Y-72073809D01*
X163297619Y-72121428D01*
X163250000Y-72192857D01*
X163202380Y-72216666D01*
X163297619Y-72645238D02*
X163297619Y-72550000D01*
X163250000Y-72502380D01*
X163202380Y-72478571D01*
X163059523Y-72430952D01*
X162869047Y-72407142D01*
X162488095Y-72407142D01*
X162392857Y-72430952D01*
X162345238Y-72454761D01*
X162297619Y-72502380D01*
X162297619Y-72597619D01*
X162345238Y-72645238D01*
X162392857Y-72669047D01*
X162488095Y-72692857D01*
X162726190Y-72692857D01*
X162821428Y-72669047D01*
X162869047Y-72645238D01*
X162916666Y-72597619D01*
X162916666Y-72502380D01*
X162869047Y-72454761D01*
X162821428Y-72430952D01*
X162726190Y-72407142D01*
X142107142Y-62083333D02*
X142154761Y-62107142D01*
X142202380Y-62178571D01*
X142202380Y-62226190D01*
X142154761Y-62297619D01*
X142059523Y-62345238D01*
X141964285Y-62369047D01*
X141773809Y-62392857D01*
X141630952Y-62392857D01*
X141440476Y-62369047D01*
X141345238Y-62345238D01*
X141250000Y-62297619D01*
X141202380Y-62226190D01*
X141202380Y-62178571D01*
X141250000Y-62107142D01*
X141297619Y-62083333D01*
X141202380Y-61630952D02*
X141202380Y-61869047D01*
X141678571Y-61892857D01*
X141630952Y-61869047D01*
X141583333Y-61821428D01*
X141583333Y-61702380D01*
X141630952Y-61654761D01*
X141678571Y-61630952D01*
X141773809Y-61607142D01*
X142011904Y-61607142D01*
X142107142Y-61630952D01*
X142154761Y-61654761D01*
X142202380Y-61702380D01*
X142202380Y-61821428D01*
X142154761Y-61869047D01*
X142107142Y-61892857D01*
X162642857Y-62416666D02*
X162595238Y-62392857D01*
X162547619Y-62321428D01*
X162547619Y-62273809D01*
X162595238Y-62202380D01*
X162690476Y-62154761D01*
X162785714Y-62130952D01*
X162976190Y-62107142D01*
X163119047Y-62107142D01*
X163309523Y-62130952D01*
X163404761Y-62154761D01*
X163500000Y-62202380D01*
X163547619Y-62273809D01*
X163547619Y-62321428D01*
X163500000Y-62392857D01*
X163452380Y-62416666D01*
X163452380Y-62607142D02*
X163500000Y-62630952D01*
X163547619Y-62678571D01*
X163547619Y-62797619D01*
X163500000Y-62845238D01*
X163452380Y-62869047D01*
X163357142Y-62892857D01*
X163261904Y-62892857D01*
X163119047Y-62869047D01*
X162547619Y-62583333D01*
X162547619Y-62892857D01*
X142107142Y-72083333D02*
X142154761Y-72107142D01*
X142202380Y-72178571D01*
X142202380Y-72226190D01*
X142154761Y-72297619D01*
X142059523Y-72345238D01*
X141964285Y-72369047D01*
X141773809Y-72392857D01*
X141630952Y-72392857D01*
X141440476Y-72369047D01*
X141345238Y-72345238D01*
X141250000Y-72297619D01*
X141202380Y-72226190D01*
X141202380Y-72178571D01*
X141250000Y-72107142D01*
X141297619Y-72083333D01*
X142202380Y-71607142D02*
X142202380Y-71892857D01*
X142202380Y-71750000D02*
X141202380Y-71750000D01*
X141345238Y-71797619D01*
X141440476Y-71845238D01*
X141488095Y-71892857D01*
D11*
X117654761Y-63052380D02*
X117321428Y-62576190D01*
X117083333Y-63052380D02*
X117083333Y-62052380D01*
X117464285Y-62052380D01*
X117559523Y-62100000D01*
X117607142Y-62147619D01*
X117654761Y-62242857D01*
X117654761Y-62385714D01*
X117607142Y-62480952D01*
X117559523Y-62528571D01*
X117464285Y-62576190D01*
X117083333Y-62576190D01*
X117940476Y-62052380D02*
X118273809Y-63052380D01*
X118607142Y-62052380D01*
X119464285Y-63052380D02*
X118892857Y-63052380D01*
X119178571Y-63052380D02*
X119178571Y-62052380D01*
X119083333Y-62195238D01*
X118988095Y-62290476D01*
X118892857Y-62338095D01*
X151238095Y-87554380D02*
X151809523Y-87554380D01*
X151523809Y-88554380D02*
X151523809Y-87554380D01*
X152142857Y-88554380D02*
X152142857Y-87554380D01*
X152523809Y-87554380D01*
X152619047Y-87602000D01*
X152666666Y-87649619D01*
X152714285Y-87744857D01*
X152714285Y-87887714D01*
X152666666Y-87982952D01*
X152619047Y-88030571D01*
X152523809Y-88078190D01*
X152142857Y-88078190D01*
X153190476Y-88554380D02*
X153380952Y-88554380D01*
X153476190Y-88506761D01*
X153523809Y-88459142D01*
X153619047Y-88316285D01*
X153666666Y-88125809D01*
X153666666Y-87744857D01*
X153619047Y-87649619D01*
X153571428Y-87602000D01*
X153476190Y-87554380D01*
X153285714Y-87554380D01*
X153190476Y-87602000D01*
X153142857Y-87649619D01*
X153095238Y-87744857D01*
X153095238Y-87982952D01*
X153142857Y-88078190D01*
X153190476Y-88125809D01*
X153285714Y-88173428D01*
X153476190Y-88173428D01*
X153571428Y-88125809D01*
X153619047Y-88078190D01*
X153666666Y-87982952D01*
X105238095Y-61952380D02*
X105238095Y-60952380D01*
X105238095Y-61428571D02*
X105809523Y-61428571D01*
X105809523Y-61952380D02*
X105809523Y-60952380D01*
X106714285Y-61285714D02*
X106714285Y-61952380D01*
X106476190Y-60904761D02*
X106238095Y-61619047D01*
X106857142Y-61619047D01*
X187238095Y-56452380D02*
X187238095Y-55452380D01*
X187238095Y-55928571D02*
X187809523Y-55928571D01*
X187809523Y-56452380D02*
X187809523Y-55452380D01*
X188190476Y-55452380D02*
X188809523Y-55452380D01*
X188476190Y-55833333D01*
X188619047Y-55833333D01*
X188714285Y-55880952D01*
X188761904Y-55928571D01*
X188809523Y-56023809D01*
X188809523Y-56261904D01*
X188761904Y-56357142D01*
X188714285Y-56404761D01*
X188619047Y-56452380D01*
X188333333Y-56452380D01*
X188238095Y-56404761D01*
X188190476Y-56357142D01*
X105238095Y-94152380D02*
X105238095Y-93152380D01*
X105238095Y-93628571D02*
X105809523Y-93628571D01*
X105809523Y-94152380D02*
X105809523Y-93152380D01*
X106238095Y-93247619D02*
X106285714Y-93200000D01*
X106380952Y-93152380D01*
X106619047Y-93152380D01*
X106714285Y-93200000D01*
X106761904Y-93247619D01*
X106809523Y-93342857D01*
X106809523Y-93438095D01*
X106761904Y-93580952D01*
X106190476Y-94152380D01*
X106809523Y-94152380D01*
X187238095Y-99452380D02*
X187238095Y-98452380D01*
X187238095Y-98928571D02*
X187809523Y-98928571D01*
X187809523Y-99452380D02*
X187809523Y-98452380D01*
X188809523Y-99452380D02*
X188238095Y-99452380D01*
X188523809Y-99452380D02*
X188523809Y-98452380D01*
X188428571Y-98595238D01*
X188333333Y-98690476D01*
X188238095Y-98738095D01*
D16*
X146857142Y-56821428D02*
X146904761Y-56845238D01*
X146952380Y-56916666D01*
X146952380Y-56964285D01*
X146904761Y-57035714D01*
X146809523Y-57083333D01*
X146714285Y-57107142D01*
X146523809Y-57130952D01*
X146380952Y-57130952D01*
X146190476Y-57107142D01*
X146095238Y-57083333D01*
X146000000Y-57035714D01*
X145952380Y-56964285D01*
X145952380Y-56916666D01*
X146000000Y-56845238D01*
X146047619Y-56821428D01*
X145952380Y-56369047D02*
X145952380Y-56607142D01*
X146428571Y-56630952D01*
X146380952Y-56607142D01*
X146333333Y-56559523D01*
X146333333Y-56440476D01*
X146380952Y-56392857D01*
X146428571Y-56369047D01*
X146523809Y-56345238D01*
X146761904Y-56345238D01*
X146857142Y-56369047D01*
X146904761Y-56392857D01*
X146952380Y-56440476D01*
X146952380Y-56559523D01*
X146904761Y-56607142D01*
X146857142Y-56630952D01*
X146285714Y-55916666D02*
X146952380Y-55916666D01*
X145904761Y-56035714D02*
X146619047Y-56154761D01*
X146619047Y-55845238D01*
X158357142Y-67821428D02*
X158404761Y-67845238D01*
X158452380Y-67916666D01*
X158452380Y-67964285D01*
X158404761Y-68035714D01*
X158309523Y-68083333D01*
X158214285Y-68107142D01*
X158023809Y-68130952D01*
X157880952Y-68130952D01*
X157690476Y-68107142D01*
X157595238Y-68083333D01*
X157500000Y-68035714D01*
X157452380Y-67964285D01*
X157452380Y-67916666D01*
X157500000Y-67845238D01*
X157547619Y-67821428D01*
X157452380Y-67369047D02*
X157452380Y-67607142D01*
X157928571Y-67630952D01*
X157880952Y-67607142D01*
X157833333Y-67559523D01*
X157833333Y-67440476D01*
X157880952Y-67392857D01*
X157928571Y-67369047D01*
X158023809Y-67345238D01*
X158261904Y-67345238D01*
X158357142Y-67369047D01*
X158404761Y-67392857D01*
X158452380Y-67440476D01*
X158452380Y-67559523D01*
X158404761Y-67607142D01*
X158357142Y-67630952D01*
X157452380Y-67178571D02*
X157452380Y-66869047D01*
X157833333Y-67035714D01*
X157833333Y-66964285D01*
X157880952Y-66916666D01*
X157928571Y-66892857D01*
X158023809Y-66869047D01*
X158261904Y-66869047D01*
X158357142Y-66892857D01*
X158404761Y-66916666D01*
X158452380Y-66964285D01*
X158452380Y-67107142D01*
X158404761Y-67154761D01*
X158357142Y-67178571D01*
X145107142Y-56821428D02*
X145154761Y-56845238D01*
X145202380Y-56916666D01*
X145202380Y-56964285D01*
X145154761Y-57035714D01*
X145059523Y-57083333D01*
X144964285Y-57107142D01*
X144773809Y-57130952D01*
X144630952Y-57130952D01*
X144440476Y-57107142D01*
X144345238Y-57083333D01*
X144250000Y-57035714D01*
X144202380Y-56964285D01*
X144202380Y-56916666D01*
X144250000Y-56845238D01*
X144297619Y-56821428D01*
X144202380Y-56369047D02*
X144202380Y-56607142D01*
X144678571Y-56630952D01*
X144630952Y-56607142D01*
X144583333Y-56559523D01*
X144583333Y-56440476D01*
X144630952Y-56392857D01*
X144678571Y-56369047D01*
X144773809Y-56345238D01*
X145011904Y-56345238D01*
X145107142Y-56369047D01*
X145154761Y-56392857D01*
X145202380Y-56440476D01*
X145202380Y-56559523D01*
X145154761Y-56607142D01*
X145107142Y-56630952D01*
X144297619Y-56154761D02*
X144250000Y-56130952D01*
X144202380Y-56083333D01*
X144202380Y-55964285D01*
X144250000Y-55916666D01*
X144297619Y-55892857D01*
X144392857Y-55869047D01*
X144488095Y-55869047D01*
X144630952Y-55892857D01*
X145202380Y-56178571D01*
X145202380Y-55869047D01*
X160107142Y-67821428D02*
X160154761Y-67845238D01*
X160202380Y-67916666D01*
X160202380Y-67964285D01*
X160154761Y-68035714D01*
X160059523Y-68083333D01*
X159964285Y-68107142D01*
X159773809Y-68130952D01*
X159630952Y-68130952D01*
X159440476Y-68107142D01*
X159345238Y-68083333D01*
X159250000Y-68035714D01*
X159202380Y-67964285D01*
X159202380Y-67916666D01*
X159250000Y-67845238D01*
X159297619Y-67821428D01*
X159202380Y-67369047D02*
X159202380Y-67607142D01*
X159678571Y-67630952D01*
X159630952Y-67607142D01*
X159583333Y-67559523D01*
X159583333Y-67440476D01*
X159630952Y-67392857D01*
X159678571Y-67369047D01*
X159773809Y-67345238D01*
X160011904Y-67345238D01*
X160107142Y-67369047D01*
X160154761Y-67392857D01*
X160202380Y-67440476D01*
X160202380Y-67559523D01*
X160154761Y-67607142D01*
X160107142Y-67630952D01*
X160202380Y-66869047D02*
X160202380Y-67154761D01*
X160202380Y-67011904D02*
X159202380Y-67011904D01*
X159345238Y-67059523D01*
X159440476Y-67107142D01*
X159488095Y-67154761D01*
X143357142Y-56821428D02*
X143404761Y-56845238D01*
X143452380Y-56916666D01*
X143452380Y-56964285D01*
X143404761Y-57035714D01*
X143309523Y-57083333D01*
X143214285Y-57107142D01*
X143023809Y-57130952D01*
X142880952Y-57130952D01*
X142690476Y-57107142D01*
X142595238Y-57083333D01*
X142500000Y-57035714D01*
X142452380Y-56964285D01*
X142452380Y-56916666D01*
X142500000Y-56845238D01*
X142547619Y-56821428D01*
X142452380Y-56369047D02*
X142452380Y-56607142D01*
X142928571Y-56630952D01*
X142880952Y-56607142D01*
X142833333Y-56559523D01*
X142833333Y-56440476D01*
X142880952Y-56392857D01*
X142928571Y-56369047D01*
X143023809Y-56345238D01*
X143261904Y-56345238D01*
X143357142Y-56369047D01*
X143404761Y-56392857D01*
X143452380Y-56440476D01*
X143452380Y-56559523D01*
X143404761Y-56607142D01*
X143357142Y-56630952D01*
X142452380Y-56035714D02*
X142452380Y-55988095D01*
X142500000Y-55940476D01*
X142547619Y-55916666D01*
X142642857Y-55892857D01*
X142833333Y-55869047D01*
X143071428Y-55869047D01*
X143261904Y-55892857D01*
X143357142Y-55916666D01*
X143404761Y-55940476D01*
X143452380Y-55988095D01*
X143452380Y-56035714D01*
X143404761Y-56083333D01*
X143357142Y-56107142D01*
X143261904Y-56130952D01*
X143071428Y-56154761D01*
X142833333Y-56154761D01*
X142642857Y-56130952D01*
X142547619Y-56107142D01*
X142500000Y-56083333D01*
X142452380Y-56035714D01*
X161857142Y-67821428D02*
X161904761Y-67845238D01*
X161952380Y-67916666D01*
X161952380Y-67964285D01*
X161904761Y-68035714D01*
X161809523Y-68083333D01*
X161714285Y-68107142D01*
X161523809Y-68130952D01*
X161380952Y-68130952D01*
X161190476Y-68107142D01*
X161095238Y-68083333D01*
X161000000Y-68035714D01*
X160952380Y-67964285D01*
X160952380Y-67916666D01*
X161000000Y-67845238D01*
X161047619Y-67821428D01*
X161285714Y-67392857D02*
X161952380Y-67392857D01*
X160904761Y-67511904D02*
X161619047Y-67630952D01*
X161619047Y-67321428D01*
X161952380Y-67107142D02*
X161952380Y-67011904D01*
X161904761Y-66964285D01*
X161857142Y-66940476D01*
X161714285Y-66892857D01*
X161523809Y-66869047D01*
X161142857Y-66869047D01*
X161047619Y-66892857D01*
X161000000Y-66916666D01*
X160952380Y-66964285D01*
X160952380Y-67059523D01*
X161000000Y-67107142D01*
X161047619Y-67130952D01*
X161142857Y-67154761D01*
X161380952Y-67154761D01*
X161476190Y-67130952D01*
X161523809Y-67107142D01*
X161571428Y-67059523D01*
X161571428Y-66964285D01*
X161523809Y-66916666D01*
X161476190Y-66892857D01*
X161380952Y-66869047D01*
X158357142Y-77821428D02*
X158404761Y-77845238D01*
X158452380Y-77916666D01*
X158452380Y-77964285D01*
X158404761Y-78035714D01*
X158309523Y-78083333D01*
X158214285Y-78107142D01*
X158023809Y-78130952D01*
X157880952Y-78130952D01*
X157690476Y-78107142D01*
X157595238Y-78083333D01*
X157500000Y-78035714D01*
X157452380Y-77964285D01*
X157452380Y-77916666D01*
X157500000Y-77845238D01*
X157547619Y-77821428D01*
X157785714Y-77392857D02*
X158452380Y-77392857D01*
X157404761Y-77511904D02*
X158119047Y-77630952D01*
X158119047Y-77321428D01*
X157880952Y-77059523D02*
X157833333Y-77107142D01*
X157785714Y-77130952D01*
X157690476Y-77154761D01*
X157642857Y-77154761D01*
X157547619Y-77130952D01*
X157500000Y-77107142D01*
X157452380Y-77059523D01*
X157452380Y-76964285D01*
X157500000Y-76916666D01*
X157547619Y-76892857D01*
X157642857Y-76869047D01*
X157690476Y-76869047D01*
X157785714Y-76892857D01*
X157833333Y-76916666D01*
X157880952Y-76964285D01*
X157880952Y-77059523D01*
X157928571Y-77107142D01*
X157976190Y-77130952D01*
X158071428Y-77154761D01*
X158261904Y-77154761D01*
X158357142Y-77130952D01*
X158404761Y-77107142D01*
X158452380Y-77059523D01*
X158452380Y-76964285D01*
X158404761Y-76916666D01*
X158357142Y-76892857D01*
X158261904Y-76869047D01*
X158071428Y-76869047D01*
X157976190Y-76892857D01*
X157928571Y-76916666D01*
X157880952Y-76964285D01*
X160107142Y-77821428D02*
X160154761Y-77845238D01*
X160202380Y-77916666D01*
X160202380Y-77964285D01*
X160154761Y-78035714D01*
X160059523Y-78083333D01*
X159964285Y-78107142D01*
X159773809Y-78130952D01*
X159630952Y-78130952D01*
X159440476Y-78107142D01*
X159345238Y-78083333D01*
X159250000Y-78035714D01*
X159202380Y-77964285D01*
X159202380Y-77916666D01*
X159250000Y-77845238D01*
X159297619Y-77821428D01*
X159535714Y-77392857D02*
X160202380Y-77392857D01*
X159154761Y-77511904D02*
X159869047Y-77630952D01*
X159869047Y-77321428D01*
X159202380Y-77178571D02*
X159202380Y-76845238D01*
X160202380Y-77059523D01*
X161857142Y-77821428D02*
X161904761Y-77845238D01*
X161952380Y-77916666D01*
X161952380Y-77964285D01*
X161904761Y-78035714D01*
X161809523Y-78083333D01*
X161714285Y-78107142D01*
X161523809Y-78130952D01*
X161380952Y-78130952D01*
X161190476Y-78107142D01*
X161095238Y-78083333D01*
X161000000Y-78035714D01*
X160952380Y-77964285D01*
X160952380Y-77916666D01*
X161000000Y-77845238D01*
X161047619Y-77821428D01*
X161285714Y-77392857D02*
X161952380Y-77392857D01*
X160904761Y-77511904D02*
X161619047Y-77630952D01*
X161619047Y-77321428D01*
X160952380Y-76916666D02*
X160952380Y-77011904D01*
X161000000Y-77059523D01*
X161047619Y-77083333D01*
X161190476Y-77130952D01*
X161380952Y-77154761D01*
X161761904Y-77154761D01*
X161857142Y-77130952D01*
X161904761Y-77107142D01*
X161952380Y-77059523D01*
X161952380Y-76964285D01*
X161904761Y-76916666D01*
X161857142Y-76892857D01*
X161761904Y-76869047D01*
X161523809Y-76869047D01*
X161428571Y-76892857D01*
X161380952Y-76916666D01*
X161333333Y-76964285D01*
X161333333Y-77059523D01*
X161380952Y-77107142D01*
X161428571Y-77130952D01*
X161523809Y-77154761D01*
X146857142Y-67321428D02*
X146904761Y-67345238D01*
X146952380Y-67416666D01*
X146952380Y-67464285D01*
X146904761Y-67535714D01*
X146809523Y-67583333D01*
X146714285Y-67607142D01*
X146523809Y-67630952D01*
X146380952Y-67630952D01*
X146190476Y-67607142D01*
X146095238Y-67583333D01*
X146000000Y-67535714D01*
X145952380Y-67464285D01*
X145952380Y-67416666D01*
X146000000Y-67345238D01*
X146047619Y-67321428D01*
X146285714Y-66892857D02*
X146952380Y-66892857D01*
X145904761Y-67011904D02*
X146619047Y-67130952D01*
X146619047Y-66821428D01*
X145952380Y-66392857D02*
X145952380Y-66630952D01*
X146428571Y-66654761D01*
X146380952Y-66630952D01*
X146333333Y-66583333D01*
X146333333Y-66464285D01*
X146380952Y-66416666D01*
X146428571Y-66392857D01*
X146523809Y-66369047D01*
X146761904Y-66369047D01*
X146857142Y-66392857D01*
X146904761Y-66416666D01*
X146952380Y-66464285D01*
X146952380Y-66583333D01*
X146904761Y-66630952D01*
X146857142Y-66654761D01*
X145107142Y-67196428D02*
X145154761Y-67220238D01*
X145202380Y-67291666D01*
X145202380Y-67339285D01*
X145154761Y-67410714D01*
X145059523Y-67458333D01*
X144964285Y-67482142D01*
X144773809Y-67505952D01*
X144630952Y-67505952D01*
X144440476Y-67482142D01*
X144345238Y-67458333D01*
X144250000Y-67410714D01*
X144202380Y-67339285D01*
X144202380Y-67291666D01*
X144250000Y-67220238D01*
X144297619Y-67196428D01*
X144535714Y-66767857D02*
X145202380Y-66767857D01*
X144154761Y-66886904D02*
X144869047Y-67005952D01*
X144869047Y-66696428D01*
X144535714Y-66291666D02*
X145202380Y-66291666D01*
X144154761Y-66410714D02*
X144869047Y-66529761D01*
X144869047Y-66220238D01*
X143357142Y-67321428D02*
X143404761Y-67345238D01*
X143452380Y-67416666D01*
X143452380Y-67464285D01*
X143404761Y-67535714D01*
X143309523Y-67583333D01*
X143214285Y-67607142D01*
X143023809Y-67630952D01*
X142880952Y-67630952D01*
X142690476Y-67607142D01*
X142595238Y-67583333D01*
X142500000Y-67535714D01*
X142452380Y-67464285D01*
X142452380Y-67416666D01*
X142500000Y-67345238D01*
X142547619Y-67321428D01*
X142785714Y-66892857D02*
X143452380Y-66892857D01*
X142404761Y-67011904D02*
X143119047Y-67130952D01*
X143119047Y-66821428D01*
X142452380Y-66678571D02*
X142452380Y-66369047D01*
X142833333Y-66535714D01*
X142833333Y-66464285D01*
X142880952Y-66416666D01*
X142928571Y-66392857D01*
X143023809Y-66369047D01*
X143261904Y-66369047D01*
X143357142Y-66392857D01*
X143404761Y-66416666D01*
X143452380Y-66464285D01*
X143452380Y-66607142D01*
X143404761Y-66654761D01*
X143357142Y-66678571D01*
D11*
X122302380Y-56867857D02*
X121826190Y-57201190D01*
X122302380Y-57439285D02*
X121302380Y-57439285D01*
X121302380Y-57058333D01*
X121350000Y-56963095D01*
X121397619Y-56915476D01*
X121492857Y-56867857D01*
X121635714Y-56867857D01*
X121730952Y-56915476D01*
X121778571Y-56963095D01*
X121826190Y-57058333D01*
X121826190Y-57439285D01*
X122302380Y-55915476D02*
X122302380Y-56486904D01*
X122302380Y-56201190D02*
X121302380Y-56201190D01*
X121445238Y-56296428D01*
X121540476Y-56391666D01*
X121588095Y-56486904D01*
X121302380Y-55058333D02*
X121302380Y-55248809D01*
X121350000Y-55344047D01*
X121397619Y-55391666D01*
X121540476Y-55486904D01*
X121730952Y-55534523D01*
X122111904Y-55534523D01*
X122207142Y-55486904D01*
X122254761Y-55439285D01*
X122302380Y-55344047D01*
X122302380Y-55153571D01*
X122254761Y-55058333D01*
X122207142Y-55010714D01*
X122111904Y-54963095D01*
X121873809Y-54963095D01*
X121778571Y-55010714D01*
X121730952Y-55058333D01*
X121683333Y-55153571D01*
X121683333Y-55344047D01*
X121730952Y-55439285D01*
X121778571Y-55486904D01*
X121873809Y-55534523D01*
X148440476Y-45912380D02*
X148440476Y-46626666D01*
X148392857Y-46769523D01*
X148297619Y-46864761D01*
X148154761Y-46912380D01*
X148059523Y-46912380D01*
X149440476Y-46912380D02*
X148869047Y-46912380D01*
X149154761Y-46912380D02*
X149154761Y-45912380D01*
X149059523Y-46055238D01*
X148964285Y-46150476D01*
X148869047Y-46198095D01*
X149773809Y-45912380D02*
X150392857Y-45912380D01*
X150059523Y-46293333D01*
X150202380Y-46293333D01*
X150297619Y-46340952D01*
X150345238Y-46388571D01*
X150392857Y-46483809D01*
X150392857Y-46721904D01*
X150345238Y-46817142D01*
X150297619Y-46864761D01*
X150202380Y-46912380D01*
X149916666Y-46912380D01*
X149821428Y-46864761D01*
X149773809Y-46817142D01*
X149011904Y-67902380D02*
X149011904Y-66902380D01*
X149250000Y-66902380D01*
X149392857Y-66950000D01*
X149488095Y-67045238D01*
X149535714Y-67140476D01*
X149583333Y-67330952D01*
X149583333Y-67473809D01*
X149535714Y-67664285D01*
X149488095Y-67759523D01*
X149392857Y-67854761D01*
X149250000Y-67902380D01*
X149011904Y-67902380D01*
X149916666Y-66902380D02*
X150583333Y-66902380D01*
X150154761Y-67902380D01*
X149011904Y-77902380D02*
X149011904Y-76902380D01*
X149250000Y-76902380D01*
X149392857Y-76950000D01*
X149488095Y-77045238D01*
X149535714Y-77140476D01*
X149583333Y-77330952D01*
X149583333Y-77473809D01*
X149535714Y-77664285D01*
X149488095Y-77759523D01*
X149392857Y-77854761D01*
X149250000Y-77902380D01*
X149011904Y-77902380D01*
X150440476Y-76902380D02*
X150250000Y-76902380D01*
X150154761Y-76950000D01*
X150107142Y-76997619D01*
X150011904Y-77140476D01*
X149964285Y-77330952D01*
X149964285Y-77711904D01*
X150011904Y-77807142D01*
X150059523Y-77854761D01*
X150154761Y-77902380D01*
X150345238Y-77902380D01*
X150440476Y-77854761D01*
X150488095Y-77807142D01*
X150535714Y-77711904D01*
X150535714Y-77473809D01*
X150488095Y-77378571D01*
X150440476Y-77330952D01*
X150345238Y-77283333D01*
X150154761Y-77283333D01*
X150059523Y-77330952D01*
X150011904Y-77378571D01*
X149964285Y-77473809D01*
X154011904Y-67502380D02*
X154011904Y-66502380D01*
X154250000Y-66502380D01*
X154392857Y-66550000D01*
X154488095Y-66645238D01*
X154535714Y-66740476D01*
X154583333Y-66930952D01*
X154583333Y-67073809D01*
X154535714Y-67264285D01*
X154488095Y-67359523D01*
X154392857Y-67454761D01*
X154250000Y-67502380D01*
X154011904Y-67502380D01*
X155488095Y-66502380D02*
X155011904Y-66502380D01*
X154964285Y-66978571D01*
X155011904Y-66930952D01*
X155107142Y-66883333D01*
X155345238Y-66883333D01*
X155440476Y-66930952D01*
X155488095Y-66978571D01*
X155535714Y-67073809D01*
X155535714Y-67311904D01*
X155488095Y-67407142D01*
X155440476Y-67454761D01*
X155345238Y-67502380D01*
X155107142Y-67502380D01*
X155011904Y-67454761D01*
X154964285Y-67407142D01*
X154011904Y-57502380D02*
X154011904Y-56502380D01*
X154250000Y-56502380D01*
X154392857Y-56550000D01*
X154488095Y-56645238D01*
X154535714Y-56740476D01*
X154583333Y-56930952D01*
X154583333Y-57073809D01*
X154535714Y-57264285D01*
X154488095Y-57359523D01*
X154392857Y-57454761D01*
X154250000Y-57502380D01*
X154011904Y-57502380D01*
X155440476Y-56835714D02*
X155440476Y-57502380D01*
X155202380Y-56454761D02*
X154964285Y-57169047D01*
X155583333Y-57169047D01*
D16*
X140507142Y-64921428D02*
X140554761Y-64945238D01*
X140602380Y-65016666D01*
X140602380Y-65064285D01*
X140554761Y-65135714D01*
X140459523Y-65183333D01*
X140364285Y-65207142D01*
X140173809Y-65230952D01*
X140030952Y-65230952D01*
X139840476Y-65207142D01*
X139745238Y-65183333D01*
X139650000Y-65135714D01*
X139602380Y-65064285D01*
X139602380Y-65016666D01*
X139650000Y-64945238D01*
X139697619Y-64921428D01*
X139935714Y-64492857D02*
X140602380Y-64492857D01*
X139554761Y-64611904D02*
X140269047Y-64730952D01*
X140269047Y-64421428D01*
X139697619Y-64254761D02*
X139650000Y-64230952D01*
X139602380Y-64183333D01*
X139602380Y-64064285D01*
X139650000Y-64016666D01*
X139697619Y-63992857D01*
X139792857Y-63969047D01*
X139888095Y-63969047D01*
X140030952Y-63992857D01*
X140602380Y-64278571D01*
X140602380Y-63969047D01*
D11*
X132857142Y-61942857D02*
X132904761Y-61990476D01*
X132952380Y-62133333D01*
X132952380Y-62228571D01*
X132904761Y-62371428D01*
X132809523Y-62466666D01*
X132714285Y-62514285D01*
X132523809Y-62561904D01*
X132380952Y-62561904D01*
X132190476Y-62514285D01*
X132095238Y-62466666D01*
X132000000Y-62371428D01*
X131952380Y-62228571D01*
X131952380Y-62133333D01*
X132000000Y-61990476D01*
X132047619Y-61942857D01*
X132285714Y-61085714D02*
X132952380Y-61085714D01*
X131904761Y-61323809D02*
X132619047Y-61561904D01*
X132619047Y-60942857D01*
X132952380Y-60038095D02*
X132952380Y-60609523D01*
X132952380Y-60323809D02*
X131952380Y-60323809D01*
X132095238Y-60419047D01*
X132190476Y-60514285D01*
X132238095Y-60609523D01*
X150725142Y-49029857D02*
X150772761Y-49077476D01*
X150820380Y-49220333D01*
X150820380Y-49315571D01*
X150772761Y-49458428D01*
X150677523Y-49553666D01*
X150582285Y-49601285D01*
X150391809Y-49648904D01*
X150248952Y-49648904D01*
X150058476Y-49601285D01*
X149963238Y-49553666D01*
X149868000Y-49458428D01*
X149820380Y-49315571D01*
X149820380Y-49220333D01*
X149868000Y-49077476D01*
X149915619Y-49029857D01*
X150153714Y-48172714D02*
X150820380Y-48172714D01*
X149772761Y-48410809D02*
X150487047Y-48648904D01*
X150487047Y-48029857D01*
X149820380Y-47458428D02*
X149820380Y-47363190D01*
X149868000Y-47267952D01*
X149915619Y-47220333D01*
X150010857Y-47172714D01*
X150201333Y-47125095D01*
X150439428Y-47125095D01*
X150629904Y-47172714D01*
X150725142Y-47220333D01*
X150772761Y-47267952D01*
X150820380Y-47363190D01*
X150820380Y-47458428D01*
X150772761Y-47553666D01*
X150725142Y-47601285D01*
X150629904Y-47648904D01*
X150439428Y-47696523D01*
X150201333Y-47696523D01*
X150010857Y-47648904D01*
X149915619Y-47601285D01*
X149868000Y-47553666D01*
X149820380Y-47458428D01*
X130086666Y-84082380D02*
X130086666Y-84796666D01*
X130039047Y-84939523D01*
X129943809Y-85034761D01*
X129800952Y-85082380D01*
X129705714Y-85082380D01*
X131086666Y-85082380D02*
X130515238Y-85082380D01*
X130800952Y-85082380D02*
X130800952Y-84082380D01*
X130705714Y-84225238D01*
X130610476Y-84320476D01*
X130515238Y-84368095D01*
X143761904Y-96202380D02*
X143761904Y-95202380D01*
X144000000Y-95202380D01*
X144142857Y-95250000D01*
X144238095Y-95345238D01*
X144285714Y-95440476D01*
X144333333Y-95630952D01*
X144333333Y-95773809D01*
X144285714Y-95964285D01*
X144238095Y-96059523D01*
X144142857Y-96154761D01*
X144000000Y-96202380D01*
X143761904Y-96202380D01*
X145285714Y-96202380D02*
X144714285Y-96202380D01*
X145000000Y-96202380D02*
X145000000Y-95202380D01*
X144904761Y-95345238D01*
X144809523Y-95440476D01*
X144714285Y-95488095D01*
X137828095Y-91552380D02*
X137828095Y-90552380D01*
X138399523Y-91552380D02*
X137970952Y-90980952D01*
X138399523Y-90552380D02*
X137828095Y-91123809D01*
M02*
