G04 #@! TF.GenerationSoftware,KiCad,Pcbnew,5.1.6-c6e7f7d~87~ubuntu18.04.1*
G04 #@! TF.CreationDate,2021-01-06T14:43:31+00:00*
G04 #@! TF.ProjectId,multi-smtpa,6d756c74-692d-4736-9d74-70612e6b6963,rev?*
G04 #@! TF.SameCoordinates,Original*
G04 #@! TF.FileFunction,Copper,L4,Bot*
G04 #@! TF.FilePolarity,Positive*
%FSLAX46Y46*%
G04 Gerber Fmt 4.6, Leading zero omitted, Abs format (unit mm)*
G04 Created by KiCad (PCBNEW 5.1.6-c6e7f7d~87~ubuntu18.04.1) date 2021-01-06 14:43:31*
%MOMM*%
%LPD*%
G01*
G04 APERTURE LIST*
G04 #@! TA.AperFunction,ComponentPad*
%ADD10C,1.524000*%
G04 #@! TD*
G04 #@! TA.AperFunction,ComponentPad*
%ADD11O,1.700000X1.700000*%
G04 #@! TD*
G04 #@! TA.AperFunction,ComponentPad*
%ADD12R,1.700000X1.700000*%
G04 #@! TD*
G04 #@! TA.AperFunction,ComponentPad*
%ADD13O,1.600000X1.600000*%
G04 #@! TD*
G04 #@! TA.AperFunction,ComponentPad*
%ADD14C,1.600000*%
G04 #@! TD*
G04 #@! TA.AperFunction,ComponentPad*
%ADD15C,2.600000*%
G04 #@! TD*
G04 #@! TA.AperFunction,SMDPad,CuDef*
%ADD16R,1.500000X5.080000*%
G04 #@! TD*
G04 #@! TA.AperFunction,ComponentPad*
%ADD17C,0.900000*%
G04 #@! TD*
G04 #@! TA.AperFunction,ComponentPad*
%ADD18C,8.600000*%
G04 #@! TD*
G04 #@! TA.AperFunction,ComponentPad*
%ADD19C,2.100000*%
G04 #@! TD*
G04 #@! TA.AperFunction,ComponentPad*
%ADD20R,2.100000X2.100000*%
G04 #@! TD*
G04 #@! TA.AperFunction,ComponentPad*
%ADD21O,1.800000X1.800000*%
G04 #@! TD*
G04 #@! TA.AperFunction,ComponentPad*
%ADD22R,1.800000X1.800000*%
G04 #@! TD*
G04 #@! TA.AperFunction,ViaPad*
%ADD23C,0.800000*%
G04 #@! TD*
G04 #@! TA.AperFunction,Conductor*
%ADD24C,0.450000*%
G04 #@! TD*
G04 #@! TA.AperFunction,Conductor*
%ADD25C,0.250000*%
G04 #@! TD*
G04 #@! TA.AperFunction,Conductor*
%ADD26C,0.254000*%
G04 #@! TD*
G04 #@! TA.AperFunction,Conductor*
%ADD27C,0.025400*%
G04 #@! TD*
G04 APERTURE END LIST*
D10*
X158000000Y-69710000D03*
X158000000Y-72250000D03*
X168000000Y-69710000D03*
X168000000Y-72250000D03*
X168000000Y-74790000D03*
X146500000Y-74790000D03*
X146500000Y-72250000D03*
X136500000Y-74790000D03*
X136500000Y-72250000D03*
X136500000Y-69710000D03*
X146500000Y-64790000D03*
X146500000Y-62250000D03*
X136500000Y-64790000D03*
X136500000Y-62250000D03*
X136500000Y-59710000D03*
X158000000Y-59710000D03*
X158000000Y-62250000D03*
X168000000Y-59710000D03*
X168000000Y-62250000D03*
X168000000Y-64790000D03*
D11*
X169840000Y-100000000D03*
X169840000Y-97460000D03*
X172380000Y-100000000D03*
X172380000Y-97460000D03*
X174920000Y-100000000D03*
X174920000Y-97460000D03*
X177460000Y-100000000D03*
X177460000Y-97460000D03*
X180000000Y-100000000D03*
D12*
X180000000Y-97460000D03*
D13*
X138090000Y-88500000D03*
D14*
X148250000Y-88500000D03*
G04 #@! TA.AperFunction,ComponentPad*
G36*
G01*
X190350000Y-65700000D02*
X191650000Y-65700000D01*
G75*
G02*
X192300000Y-66350000I0J-650000D01*
G01*
X192300000Y-67650000D01*
G75*
G02*
X191650000Y-68300000I-650000J0D01*
G01*
X190350000Y-68300000D01*
G75*
G02*
X189700000Y-67650000I0J650000D01*
G01*
X189700000Y-66350000D01*
G75*
G02*
X190350000Y-65700000I650000J0D01*
G01*
G37*
G04 #@! TD.AperFunction*
D15*
X191000000Y-72080000D03*
G04 #@! TA.AperFunction,ComponentPad*
G36*
G01*
X190350000Y-75700000D02*
X191650000Y-75700000D01*
G75*
G02*
X192300000Y-76350000I0J-650000D01*
G01*
X192300000Y-77650000D01*
G75*
G02*
X191650000Y-78300000I-650000J0D01*
G01*
X190350000Y-78300000D01*
G75*
G02*
X189700000Y-77650000I0J650000D01*
G01*
X189700000Y-76350000D01*
G75*
G02*
X190350000Y-75700000I650000J0D01*
G01*
G37*
G04 #@! TD.AperFunction*
X191000000Y-82080000D03*
G04 #@! TA.AperFunction,ComponentPad*
G36*
G01*
X112600000Y-64750000D02*
X113900000Y-64750000D01*
G75*
G02*
X114550000Y-65400000I0J-650000D01*
G01*
X114550000Y-66700000D01*
G75*
G02*
X113900000Y-67350000I-650000J0D01*
G01*
X112600000Y-67350000D01*
G75*
G02*
X111950000Y-66700000I0J650000D01*
G01*
X111950000Y-65400000D01*
G75*
G02*
X112600000Y-64750000I650000J0D01*
G01*
G37*
G04 #@! TD.AperFunction*
X113250000Y-71130000D03*
G04 #@! TA.AperFunction,ComponentPad*
G36*
G01*
X112600000Y-55000000D02*
X113900000Y-55000000D01*
G75*
G02*
X114550000Y-55650000I0J-650000D01*
G01*
X114550000Y-56950000D01*
G75*
G02*
X113900000Y-57600000I-650000J0D01*
G01*
X112600000Y-57600000D01*
G75*
G02*
X111950000Y-56950000I0J650000D01*
G01*
X111950000Y-55650000D01*
G75*
G02*
X112600000Y-55000000I650000J0D01*
G01*
G37*
G04 #@! TD.AperFunction*
X113250000Y-61380000D03*
D16*
X184250000Y-42500000D03*
X175750000Y-42500000D03*
D17*
X108280419Y-53719581D03*
X106000000Y-52775000D03*
X103719581Y-53719581D03*
X102775000Y-56000000D03*
X103719581Y-58280419D03*
X106000000Y-59225000D03*
X108280419Y-58280419D03*
X109225000Y-56000000D03*
D18*
X106000000Y-56000000D03*
D17*
X196280419Y-53719581D03*
X194000000Y-52775000D03*
X191719581Y-53719581D03*
X190775000Y-56000000D03*
X191719581Y-58280419D03*
X194000000Y-59225000D03*
X196280419Y-58280419D03*
X197225000Y-56000000D03*
D18*
X194000000Y-56000000D03*
D17*
X108280419Y-96719581D03*
X106000000Y-95775000D03*
X103719581Y-96719581D03*
X102775000Y-99000000D03*
X103719581Y-101280419D03*
X106000000Y-102225000D03*
X108280419Y-101280419D03*
X109225000Y-99000000D03*
D18*
X106000000Y-99000000D03*
D17*
X196280419Y-96719581D03*
X194000000Y-95775000D03*
X191719581Y-96719581D03*
X190775000Y-99000000D03*
X191719581Y-101280419D03*
X194000000Y-102225000D03*
X196280419Y-101280419D03*
X197225000Y-99000000D03*
D18*
X194000000Y-99000000D03*
D16*
X148000000Y-42500000D03*
X156500000Y-42500000D03*
D19*
X131690000Y-89000000D03*
D20*
X129150000Y-89000000D03*
D21*
X148250000Y-93000000D03*
D22*
X138090000Y-93000000D03*
D23*
X184750000Y-44750000D03*
X183500000Y-83000000D03*
X186000000Y-84000000D03*
X152500000Y-80500000D03*
X155250000Y-82750000D03*
X158000000Y-82250000D03*
X173500000Y-83000000D03*
X181000000Y-84000000D03*
X178500000Y-83000000D03*
X171000000Y-84000000D03*
X168500000Y-83000000D03*
X163500000Y-83000000D03*
X176000000Y-84000000D03*
X166000000Y-84000000D03*
X161000000Y-84000000D03*
X130500000Y-70300000D03*
X173700000Y-74250000D03*
X178700000Y-73200000D03*
X172950000Y-63500000D03*
X178700000Y-63200000D03*
X151000000Y-66750000D03*
X151000000Y-76750000D03*
X153500000Y-67750000D03*
X153500000Y-57750000D03*
X147500000Y-58500000D03*
X142000000Y-57500000D03*
X157000000Y-66000000D03*
X162500000Y-66750000D03*
X157000000Y-76000000D03*
X162500000Y-76750000D03*
X142000000Y-67500000D03*
X147500000Y-68500000D03*
X152500000Y-95000000D03*
X142750000Y-63000000D03*
X142750000Y-62000000D03*
X142750000Y-72000000D03*
X142750000Y-73000000D03*
X161750000Y-72300000D03*
X161750000Y-71300000D03*
X161750000Y-62500000D03*
X161750000Y-61500000D03*
X130500000Y-60300000D03*
X140150000Y-63600000D03*
X140150000Y-73600000D03*
X164350000Y-70700000D03*
X164350000Y-60900000D03*
X166750000Y-61000000D03*
X169250000Y-61000000D03*
X166750000Y-63500000D03*
X169250000Y-63500000D03*
X169250000Y-73500000D03*
X169250000Y-71000000D03*
X166750000Y-71000000D03*
X166750000Y-73500000D03*
X135250000Y-71000000D03*
X135250000Y-73500000D03*
X137750000Y-73500000D03*
X137750000Y-71000000D03*
X135250000Y-61000000D03*
X135250000Y-63500000D03*
X137750000Y-63500000D03*
X137750000Y-61000000D03*
X156500000Y-45750000D03*
X148000000Y-45750000D03*
X132647619Y-43485000D03*
X134647619Y-45485000D03*
X136647619Y-43485000D03*
X136647619Y-47485000D03*
X138647619Y-45485000D03*
X138647619Y-49485000D03*
X140647619Y-43485000D03*
X140647619Y-47485000D03*
X140647619Y-51485000D03*
X142647619Y-45485000D03*
X142647619Y-49485000D03*
X142647619Y-53485000D03*
X144647619Y-43485000D03*
X144647619Y-47485000D03*
X144647619Y-51485000D03*
X146647619Y-49485000D03*
X146647619Y-53485000D03*
X148647619Y-51485000D03*
X156647619Y-48485000D03*
X159647619Y-43485000D03*
X159647619Y-47485000D03*
X161000000Y-45485000D03*
X162647619Y-48485000D03*
X163647619Y-43485000D03*
X164647619Y-46485000D03*
X166647619Y-48485000D03*
X168647619Y-46485000D03*
X170647619Y-48485000D03*
X176000000Y-48000000D03*
X173647619Y-47485000D03*
X173000000Y-49000000D03*
X182647619Y-49485000D03*
X183647619Y-46485000D03*
X185647619Y-48485000D03*
X186647619Y-43485000D03*
X186000000Y-55000000D03*
X188000000Y-52000000D03*
X150000000Y-55000000D03*
X140000000Y-54000000D03*
X136000000Y-50000000D03*
X133000000Y-47000000D03*
X138000000Y-52000000D03*
X112500000Y-80000000D03*
X115000000Y-81000000D03*
X117500000Y-80000000D03*
X120000000Y-81000000D03*
X122500000Y-80000000D03*
X125000000Y-81000000D03*
X127500000Y-80000000D03*
X130000000Y-81000000D03*
X132500000Y-80000000D03*
X135000000Y-81000000D03*
X137500000Y-80000000D03*
X140000000Y-81000000D03*
X142500000Y-80000000D03*
X145000000Y-81000000D03*
X147500000Y-80000000D03*
X150000000Y-81250000D03*
X180500000Y-51500000D03*
X181500000Y-55000000D03*
X178250000Y-55000000D03*
X176750000Y-53500000D03*
X173500000Y-53750000D03*
X175250000Y-55250000D03*
X171750000Y-55000000D03*
X170500000Y-53750000D03*
X168250000Y-55000000D03*
X166250000Y-53750000D03*
X163250000Y-55000000D03*
X161750000Y-53750000D03*
X159750000Y-55000000D03*
X157750000Y-53750000D03*
X156750000Y-55000000D03*
X154250000Y-54750000D03*
X155000000Y-53500000D03*
X141750000Y-55000000D03*
X148500000Y-55250000D03*
X144750000Y-54500000D03*
X155250000Y-42750000D03*
X154750000Y-47500000D03*
X167250000Y-43500000D03*
X171750000Y-43750000D03*
X174750000Y-45000000D03*
X187750000Y-47250000D03*
X111750000Y-51250000D03*
X114500000Y-51250000D03*
X117500000Y-51250000D03*
X120000000Y-51250000D03*
X122500000Y-51250000D03*
X124750000Y-51250000D03*
X127500000Y-51250000D03*
X130000000Y-51000000D03*
X131500000Y-49500000D03*
X109250000Y-61500000D03*
X108750000Y-63500000D03*
X109250000Y-65500000D03*
X108750000Y-67500000D03*
X109250000Y-69250000D03*
X108750000Y-71000000D03*
X109250000Y-72750000D03*
X108750000Y-74750000D03*
X109500000Y-76750000D03*
X108750000Y-78750000D03*
X110500000Y-80000000D03*
X109000000Y-81250000D03*
X112000000Y-81500000D03*
X125000000Y-72500000D03*
X125000000Y-62500000D03*
X175500000Y-45500000D03*
X127100000Y-71500000D03*
X177100000Y-73050000D03*
X176350000Y-62300000D03*
X127100000Y-61500000D03*
X142500000Y-96250000D03*
X143000000Y-97000000D03*
X143000000Y-98000000D03*
X142500000Y-98750000D03*
X133955900Y-66371500D03*
X133955900Y-67641500D03*
X170594100Y-67838700D03*
X170594100Y-66568700D03*
X133955900Y-56363900D03*
X133955900Y-57621200D03*
X170606800Y-77846300D03*
X170606800Y-76550900D03*
X170250000Y-92000000D03*
X170250000Y-88500000D03*
X171250000Y-88500000D03*
X171250000Y-92000000D03*
D24*
X156500000Y-42500000D02*
X156500000Y-45750000D01*
X148000000Y-45750000D02*
X148000000Y-42500000D01*
X175750000Y-42500000D02*
X175750000Y-45250000D01*
X175750000Y-45250000D02*
X175500000Y-45500000D01*
D25*
X171015001Y-93330686D02*
X170250000Y-92565685D01*
X171015001Y-98824999D02*
X171015001Y-93330686D01*
X170250000Y-92565685D02*
X170250000Y-92000000D01*
X169840000Y-100000000D02*
X171015001Y-98824999D01*
X168990001Y-96610001D02*
X168990001Y-89759999D01*
X168990001Y-89759999D02*
X170250000Y-88500000D01*
X169840000Y-97460000D02*
X168990001Y-96610001D01*
X173555001Y-90805001D02*
X171250000Y-88500000D01*
X173555001Y-98824999D02*
X173555001Y-90805001D01*
X172380000Y-100000000D02*
X173555001Y-98824999D01*
X172380000Y-93130000D02*
X171250000Y-92000000D01*
X172380000Y-97460000D02*
X172380000Y-93130000D01*
D26*
G36*
X145821646Y-57645263D02*
G01*
X146139266Y-57699228D01*
X146448818Y-57788409D01*
X146746468Y-57911700D01*
X147028421Y-58067529D01*
X147291156Y-58253951D01*
X147531376Y-58468624D01*
X147746049Y-58708844D01*
X147932471Y-58971579D01*
X148088300Y-59253532D01*
X148211591Y-59551182D01*
X148300772Y-59860734D01*
X148354737Y-60178354D01*
X148373000Y-60503560D01*
X148373000Y-61983512D01*
X148316407Y-61698999D01*
X148174010Y-61355223D01*
X147967282Y-61045833D01*
X147704167Y-60782718D01*
X147394777Y-60575990D01*
X147051001Y-60433593D01*
X146686050Y-60361000D01*
X146313950Y-60361000D01*
X145948999Y-60433593D01*
X145605223Y-60575990D01*
X145295833Y-60782718D01*
X145032718Y-61045833D01*
X144825990Y-61355223D01*
X144683593Y-61698999D01*
X144611000Y-62063950D01*
X144611000Y-62436050D01*
X144683593Y-62801001D01*
X144825990Y-63144777D01*
X145032718Y-63454167D01*
X145098551Y-63520000D01*
X145032718Y-63585833D01*
X144825990Y-63895223D01*
X144683593Y-64238999D01*
X144611000Y-64603950D01*
X144611000Y-64976050D01*
X144683593Y-65341001D01*
X144825990Y-65684777D01*
X145032718Y-65994167D01*
X145295833Y-66257282D01*
X145605223Y-66464010D01*
X145948999Y-66606407D01*
X146313950Y-66679000D01*
X146686050Y-66679000D01*
X147051001Y-66606407D01*
X147394777Y-66464010D01*
X147704167Y-66257282D01*
X147967282Y-65994167D01*
X148174010Y-65684777D01*
X148316407Y-65341001D01*
X148373000Y-65056488D01*
X148373000Y-71983512D01*
X148316407Y-71698999D01*
X148174010Y-71355223D01*
X147967282Y-71045833D01*
X147704167Y-70782718D01*
X147394777Y-70575990D01*
X147051001Y-70433593D01*
X146686050Y-70361000D01*
X146313950Y-70361000D01*
X145948999Y-70433593D01*
X145605223Y-70575990D01*
X145295833Y-70782718D01*
X145032718Y-71045833D01*
X144825990Y-71355223D01*
X144683593Y-71698999D01*
X144611000Y-72063950D01*
X144611000Y-72436050D01*
X144683593Y-72801001D01*
X144825990Y-73144777D01*
X145032718Y-73454167D01*
X145098551Y-73520000D01*
X145032718Y-73585833D01*
X144825990Y-73895223D01*
X144683593Y-74238999D01*
X144611000Y-74603950D01*
X144611000Y-74976050D01*
X144683593Y-75341001D01*
X144825990Y-75684777D01*
X145032718Y-75994167D01*
X145295833Y-76257282D01*
X145469017Y-76373000D01*
X137503560Y-76373000D01*
X137178354Y-76354737D01*
X136860734Y-76300772D01*
X136551182Y-76211591D01*
X136253532Y-76088300D01*
X135971579Y-75932471D01*
X135708844Y-75746049D01*
X135468624Y-75531376D01*
X135253951Y-75291156D01*
X135067529Y-75028421D01*
X134911700Y-74746468D01*
X134788409Y-74448818D01*
X134699228Y-74139266D01*
X134645263Y-73821646D01*
X134627000Y-73496440D01*
X134627000Y-69016335D01*
X134679206Y-68994710D01*
X134929306Y-68827599D01*
X135141999Y-68614906D01*
X135309110Y-68364806D01*
X135424219Y-68086910D01*
X135482900Y-67791896D01*
X135482900Y-67491104D01*
X135424219Y-67196090D01*
X135345688Y-67006500D01*
X135424219Y-66816910D01*
X135482900Y-66521896D01*
X135482900Y-66221104D01*
X135424219Y-65926090D01*
X135309110Y-65648194D01*
X135141999Y-65398094D01*
X134929306Y-65185401D01*
X134679206Y-65018290D01*
X134627000Y-64996665D01*
X134627000Y-60503560D01*
X134645263Y-60178354D01*
X134699228Y-59860734D01*
X134788409Y-59551182D01*
X134911700Y-59253532D01*
X135067529Y-58971579D01*
X135253951Y-58708844D01*
X135468624Y-58468624D01*
X135708844Y-58253951D01*
X135971579Y-58067529D01*
X136253532Y-57911700D01*
X136551182Y-57788409D01*
X136860734Y-57699228D01*
X137178354Y-57645263D01*
X137503560Y-57627000D01*
X145496440Y-57627000D01*
X145821646Y-57645263D01*
G37*
X145821646Y-57645263D02*
X146139266Y-57699228D01*
X146448818Y-57788409D01*
X146746468Y-57911700D01*
X147028421Y-58067529D01*
X147291156Y-58253951D01*
X147531376Y-58468624D01*
X147746049Y-58708844D01*
X147932471Y-58971579D01*
X148088300Y-59253532D01*
X148211591Y-59551182D01*
X148300772Y-59860734D01*
X148354737Y-60178354D01*
X148373000Y-60503560D01*
X148373000Y-61983512D01*
X148316407Y-61698999D01*
X148174010Y-61355223D01*
X147967282Y-61045833D01*
X147704167Y-60782718D01*
X147394777Y-60575990D01*
X147051001Y-60433593D01*
X146686050Y-60361000D01*
X146313950Y-60361000D01*
X145948999Y-60433593D01*
X145605223Y-60575990D01*
X145295833Y-60782718D01*
X145032718Y-61045833D01*
X144825990Y-61355223D01*
X144683593Y-61698999D01*
X144611000Y-62063950D01*
X144611000Y-62436050D01*
X144683593Y-62801001D01*
X144825990Y-63144777D01*
X145032718Y-63454167D01*
X145098551Y-63520000D01*
X145032718Y-63585833D01*
X144825990Y-63895223D01*
X144683593Y-64238999D01*
X144611000Y-64603950D01*
X144611000Y-64976050D01*
X144683593Y-65341001D01*
X144825990Y-65684777D01*
X145032718Y-65994167D01*
X145295833Y-66257282D01*
X145605223Y-66464010D01*
X145948999Y-66606407D01*
X146313950Y-66679000D01*
X146686050Y-66679000D01*
X147051001Y-66606407D01*
X147394777Y-66464010D01*
X147704167Y-66257282D01*
X147967282Y-65994167D01*
X148174010Y-65684777D01*
X148316407Y-65341001D01*
X148373000Y-65056488D01*
X148373000Y-71983512D01*
X148316407Y-71698999D01*
X148174010Y-71355223D01*
X147967282Y-71045833D01*
X147704167Y-70782718D01*
X147394777Y-70575990D01*
X147051001Y-70433593D01*
X146686050Y-70361000D01*
X146313950Y-70361000D01*
X145948999Y-70433593D01*
X145605223Y-70575990D01*
X145295833Y-70782718D01*
X145032718Y-71045833D01*
X144825990Y-71355223D01*
X144683593Y-71698999D01*
X144611000Y-72063950D01*
X144611000Y-72436050D01*
X144683593Y-72801001D01*
X144825990Y-73144777D01*
X145032718Y-73454167D01*
X145098551Y-73520000D01*
X145032718Y-73585833D01*
X144825990Y-73895223D01*
X144683593Y-74238999D01*
X144611000Y-74603950D01*
X144611000Y-74976050D01*
X144683593Y-75341001D01*
X144825990Y-75684777D01*
X145032718Y-75994167D01*
X145295833Y-76257282D01*
X145469017Y-76373000D01*
X137503560Y-76373000D01*
X137178354Y-76354737D01*
X136860734Y-76300772D01*
X136551182Y-76211591D01*
X136253532Y-76088300D01*
X135971579Y-75932471D01*
X135708844Y-75746049D01*
X135468624Y-75531376D01*
X135253951Y-75291156D01*
X135067529Y-75028421D01*
X134911700Y-74746468D01*
X134788409Y-74448818D01*
X134699228Y-74139266D01*
X134645263Y-73821646D01*
X134627000Y-73496440D01*
X134627000Y-69016335D01*
X134679206Y-68994710D01*
X134929306Y-68827599D01*
X135141999Y-68614906D01*
X135309110Y-68364806D01*
X135424219Y-68086910D01*
X135482900Y-67791896D01*
X135482900Y-67491104D01*
X135424219Y-67196090D01*
X135345688Y-67006500D01*
X135424219Y-66816910D01*
X135482900Y-66521896D01*
X135482900Y-66221104D01*
X135424219Y-65926090D01*
X135309110Y-65648194D01*
X135141999Y-65398094D01*
X134929306Y-65185401D01*
X134679206Y-65018290D01*
X134627000Y-64996665D01*
X134627000Y-60503560D01*
X134645263Y-60178354D01*
X134699228Y-59860734D01*
X134788409Y-59551182D01*
X134911700Y-59253532D01*
X135067529Y-58971579D01*
X135253951Y-58708844D01*
X135468624Y-58468624D01*
X135708844Y-58253951D01*
X135971579Y-58067529D01*
X136253532Y-57911700D01*
X136551182Y-57788409D01*
X136860734Y-57699228D01*
X137178354Y-57645263D01*
X137503560Y-57627000D01*
X145496440Y-57627000D01*
X145821646Y-57645263D01*
G36*
X167321646Y-57895263D02*
G01*
X167639266Y-57949228D01*
X167948818Y-58038409D01*
X168246468Y-58161700D01*
X168528421Y-58317529D01*
X168791156Y-58503951D01*
X169031376Y-58718624D01*
X169246049Y-58958844D01*
X169432471Y-59221579D01*
X169588300Y-59503532D01*
X169711591Y-59801182D01*
X169800772Y-60110734D01*
X169854737Y-60428354D01*
X169873000Y-60753560D01*
X169873000Y-65214576D01*
X169870794Y-65215490D01*
X169620694Y-65382601D01*
X169408001Y-65595294D01*
X169240890Y-65845394D01*
X169125781Y-66123290D01*
X169067100Y-66418304D01*
X169067100Y-66719096D01*
X169125781Y-67014110D01*
X169204312Y-67203700D01*
X169125781Y-67393290D01*
X169067100Y-67688304D01*
X169067100Y-67989096D01*
X169125781Y-68284110D01*
X169240890Y-68562006D01*
X169408001Y-68812106D01*
X169620694Y-69024799D01*
X169870794Y-69191910D01*
X169873000Y-69192824D01*
X169873000Y-73746440D01*
X169854737Y-74071646D01*
X169800772Y-74389266D01*
X169711591Y-74698818D01*
X169588300Y-74996468D01*
X169432471Y-75278421D01*
X169246049Y-75541156D01*
X169031376Y-75781376D01*
X168791156Y-75996049D01*
X168528421Y-76182471D01*
X168246468Y-76338300D01*
X167948818Y-76461591D01*
X167639266Y-76550772D01*
X167321646Y-76604737D01*
X166996440Y-76623000D01*
X159003560Y-76623000D01*
X158678354Y-76604737D01*
X158360734Y-76550772D01*
X158051182Y-76461591D01*
X157753532Y-76338300D01*
X157471579Y-76182471D01*
X157208844Y-75996049D01*
X156968624Y-75781376D01*
X156753951Y-75541156D01*
X156567529Y-75278421D01*
X156411700Y-74996468D01*
X156288409Y-74698818D01*
X156199228Y-74389266D01*
X156145263Y-74071646D01*
X156127000Y-73746440D01*
X156127000Y-72516488D01*
X156183593Y-72801001D01*
X156325990Y-73144777D01*
X156532718Y-73454167D01*
X156795833Y-73717282D01*
X157105223Y-73924010D01*
X157448999Y-74066407D01*
X157813950Y-74139000D01*
X158186050Y-74139000D01*
X158551001Y-74066407D01*
X158894777Y-73924010D01*
X159204167Y-73717282D01*
X159467282Y-73454167D01*
X159674010Y-73144777D01*
X159816407Y-72801001D01*
X159889000Y-72436050D01*
X159889000Y-72063950D01*
X159816407Y-71698999D01*
X159674010Y-71355223D01*
X159467282Y-71045833D01*
X159401449Y-70980000D01*
X159467282Y-70914167D01*
X159674010Y-70604777D01*
X159816407Y-70261001D01*
X159889000Y-69896050D01*
X159889000Y-69523950D01*
X159816407Y-69158999D01*
X159674010Y-68815223D01*
X159467282Y-68505833D01*
X159204167Y-68242718D01*
X158894777Y-68035990D01*
X158551001Y-67893593D01*
X158186050Y-67821000D01*
X157813950Y-67821000D01*
X157448999Y-67893593D01*
X157105223Y-68035990D01*
X156795833Y-68242718D01*
X156532718Y-68505833D01*
X156325990Y-68815223D01*
X156183593Y-69158999D01*
X156127000Y-69443512D01*
X156127000Y-62516488D01*
X156183593Y-62801001D01*
X156325990Y-63144777D01*
X156532718Y-63454167D01*
X156795833Y-63717282D01*
X157105223Y-63924010D01*
X157448999Y-64066407D01*
X157813950Y-64139000D01*
X158186050Y-64139000D01*
X158551001Y-64066407D01*
X158894777Y-63924010D01*
X159204167Y-63717282D01*
X159467282Y-63454167D01*
X159674010Y-63144777D01*
X159816407Y-62801001D01*
X159889000Y-62436050D01*
X159889000Y-62063950D01*
X159816407Y-61698999D01*
X159674010Y-61355223D01*
X159467282Y-61045833D01*
X159401449Y-60980000D01*
X159467282Y-60914167D01*
X159674010Y-60604777D01*
X159816407Y-60261001D01*
X159889000Y-59896050D01*
X159889000Y-59523950D01*
X159816407Y-59158999D01*
X159674010Y-58815223D01*
X159467282Y-58505833D01*
X159204167Y-58242718D01*
X158894777Y-58035990D01*
X158590904Y-57910121D01*
X158678354Y-57895263D01*
X159003560Y-57877000D01*
X166996440Y-57877000D01*
X167321646Y-57895263D01*
G37*
X167321646Y-57895263D02*
X167639266Y-57949228D01*
X167948818Y-58038409D01*
X168246468Y-58161700D01*
X168528421Y-58317529D01*
X168791156Y-58503951D01*
X169031376Y-58718624D01*
X169246049Y-58958844D01*
X169432471Y-59221579D01*
X169588300Y-59503532D01*
X169711591Y-59801182D01*
X169800772Y-60110734D01*
X169854737Y-60428354D01*
X169873000Y-60753560D01*
X169873000Y-65214576D01*
X169870794Y-65215490D01*
X169620694Y-65382601D01*
X169408001Y-65595294D01*
X169240890Y-65845394D01*
X169125781Y-66123290D01*
X169067100Y-66418304D01*
X169067100Y-66719096D01*
X169125781Y-67014110D01*
X169204312Y-67203700D01*
X169125781Y-67393290D01*
X169067100Y-67688304D01*
X169067100Y-67989096D01*
X169125781Y-68284110D01*
X169240890Y-68562006D01*
X169408001Y-68812106D01*
X169620694Y-69024799D01*
X169870794Y-69191910D01*
X169873000Y-69192824D01*
X169873000Y-73746440D01*
X169854737Y-74071646D01*
X169800772Y-74389266D01*
X169711591Y-74698818D01*
X169588300Y-74996468D01*
X169432471Y-75278421D01*
X169246049Y-75541156D01*
X169031376Y-75781376D01*
X168791156Y-75996049D01*
X168528421Y-76182471D01*
X168246468Y-76338300D01*
X167948818Y-76461591D01*
X167639266Y-76550772D01*
X167321646Y-76604737D01*
X166996440Y-76623000D01*
X159003560Y-76623000D01*
X158678354Y-76604737D01*
X158360734Y-76550772D01*
X158051182Y-76461591D01*
X157753532Y-76338300D01*
X157471579Y-76182471D01*
X157208844Y-75996049D01*
X156968624Y-75781376D01*
X156753951Y-75541156D01*
X156567529Y-75278421D01*
X156411700Y-74996468D01*
X156288409Y-74698818D01*
X156199228Y-74389266D01*
X156145263Y-74071646D01*
X156127000Y-73746440D01*
X156127000Y-72516488D01*
X156183593Y-72801001D01*
X156325990Y-73144777D01*
X156532718Y-73454167D01*
X156795833Y-73717282D01*
X157105223Y-73924010D01*
X157448999Y-74066407D01*
X157813950Y-74139000D01*
X158186050Y-74139000D01*
X158551001Y-74066407D01*
X158894777Y-73924010D01*
X159204167Y-73717282D01*
X159467282Y-73454167D01*
X159674010Y-73144777D01*
X159816407Y-72801001D01*
X159889000Y-72436050D01*
X159889000Y-72063950D01*
X159816407Y-71698999D01*
X159674010Y-71355223D01*
X159467282Y-71045833D01*
X159401449Y-70980000D01*
X159467282Y-70914167D01*
X159674010Y-70604777D01*
X159816407Y-70261001D01*
X159889000Y-69896050D01*
X159889000Y-69523950D01*
X159816407Y-69158999D01*
X159674010Y-68815223D01*
X159467282Y-68505833D01*
X159204167Y-68242718D01*
X158894777Y-68035990D01*
X158551001Y-67893593D01*
X158186050Y-67821000D01*
X157813950Y-67821000D01*
X157448999Y-67893593D01*
X157105223Y-68035990D01*
X156795833Y-68242718D01*
X156532718Y-68505833D01*
X156325990Y-68815223D01*
X156183593Y-69158999D01*
X156127000Y-69443512D01*
X156127000Y-62516488D01*
X156183593Y-62801001D01*
X156325990Y-63144777D01*
X156532718Y-63454167D01*
X156795833Y-63717282D01*
X157105223Y-63924010D01*
X157448999Y-64066407D01*
X157813950Y-64139000D01*
X158186050Y-64139000D01*
X158551001Y-64066407D01*
X158894777Y-63924010D01*
X159204167Y-63717282D01*
X159467282Y-63454167D01*
X159674010Y-63144777D01*
X159816407Y-62801001D01*
X159889000Y-62436050D01*
X159889000Y-62063950D01*
X159816407Y-61698999D01*
X159674010Y-61355223D01*
X159467282Y-61045833D01*
X159401449Y-60980000D01*
X159467282Y-60914167D01*
X159674010Y-60604777D01*
X159816407Y-60261001D01*
X159889000Y-59896050D01*
X159889000Y-59523950D01*
X159816407Y-59158999D01*
X159674010Y-58815223D01*
X159467282Y-58505833D01*
X159204167Y-58242718D01*
X158894777Y-58035990D01*
X158590904Y-57910121D01*
X158678354Y-57895263D01*
X159003560Y-57877000D01*
X166996440Y-57877000D01*
X167321646Y-57895263D01*
D27*
G36*
X156702522Y-44972619D02*
G01*
X156712590Y-44996605D01*
X156712714Y-45016497D01*
X156712715Y-45016589D01*
X156713296Y-45059790D01*
X156713298Y-45059881D01*
X156713955Y-45091699D01*
X156713958Y-45091811D01*
X156715519Y-45144747D01*
X156715522Y-45144859D01*
X156716037Y-45158308D01*
X156716043Y-45158449D01*
X156719189Y-45222114D01*
X156719197Y-45222253D01*
X156719439Y-45226259D01*
X156719451Y-45226441D01*
X156723609Y-45282000D01*
X156723624Y-45282181D01*
X156723978Y-45286149D01*
X156724002Y-45286389D01*
X156729148Y-45333856D01*
X156729177Y-45334098D01*
X156729676Y-45338001D01*
X156729723Y-45338333D01*
X156735824Y-45377733D01*
X156735880Y-45378066D01*
X156736570Y-45381854D01*
X156736669Y-45382346D01*
X156743679Y-45413732D01*
X156743799Y-45414221D01*
X156744745Y-45417786D01*
X156744976Y-45418558D01*
X156752830Y-45442036D01*
X156753111Y-45442794D01*
X156754364Y-45445873D01*
X156754981Y-45447174D01*
X156762221Y-45460428D01*
X156762611Y-45469078D01*
X156629834Y-45699379D01*
X156574266Y-45754996D01*
X156500000Y-45774908D01*
X156425734Y-45754996D01*
X156370166Y-45699379D01*
X156237388Y-45469078D01*
X156237779Y-45460427D01*
X156245018Y-45447173D01*
X156245635Y-45445873D01*
X156246888Y-45442794D01*
X156247169Y-45442036D01*
X156255023Y-45418558D01*
X156255254Y-45417786D01*
X156256200Y-45414221D01*
X156256320Y-45413732D01*
X156263330Y-45382346D01*
X156263429Y-45381854D01*
X156264119Y-45378066D01*
X156264175Y-45377733D01*
X156270276Y-45338333D01*
X156270324Y-45338000D01*
X156270823Y-45334096D01*
X156270851Y-45333855D01*
X156275997Y-45286389D01*
X156276021Y-45286149D01*
X156276375Y-45282181D01*
X156276390Y-45282000D01*
X156280548Y-45226441D01*
X156280560Y-45226259D01*
X156280802Y-45222253D01*
X156280810Y-45222114D01*
X156283956Y-45158449D01*
X156283962Y-45158308D01*
X156284477Y-45144859D01*
X156284480Y-45144747D01*
X156286041Y-45091811D01*
X156286044Y-45091699D01*
X156286701Y-45059864D01*
X156286703Y-45059773D01*
X156287284Y-45016606D01*
X156287285Y-45016515D01*
X156287410Y-44996605D01*
X156297477Y-44972619D01*
X156321529Y-44962700D01*
X156678471Y-44962700D01*
X156702522Y-44972619D01*
G37*
X156702522Y-44972619D02*
X156712590Y-44996605D01*
X156712714Y-45016497D01*
X156712715Y-45016589D01*
X156713296Y-45059790D01*
X156713298Y-45059881D01*
X156713955Y-45091699D01*
X156713958Y-45091811D01*
X156715519Y-45144747D01*
X156715522Y-45144859D01*
X156716037Y-45158308D01*
X156716043Y-45158449D01*
X156719189Y-45222114D01*
X156719197Y-45222253D01*
X156719439Y-45226259D01*
X156719451Y-45226441D01*
X156723609Y-45282000D01*
X156723624Y-45282181D01*
X156723978Y-45286149D01*
X156724002Y-45286389D01*
X156729148Y-45333856D01*
X156729177Y-45334098D01*
X156729676Y-45338001D01*
X156729723Y-45338333D01*
X156735824Y-45377733D01*
X156735880Y-45378066D01*
X156736570Y-45381854D01*
X156736669Y-45382346D01*
X156743679Y-45413732D01*
X156743799Y-45414221D01*
X156744745Y-45417786D01*
X156744976Y-45418558D01*
X156752830Y-45442036D01*
X156753111Y-45442794D01*
X156754364Y-45445873D01*
X156754981Y-45447174D01*
X156762221Y-45460428D01*
X156762611Y-45469078D01*
X156629834Y-45699379D01*
X156574266Y-45754996D01*
X156500000Y-45774908D01*
X156425734Y-45754996D01*
X156370166Y-45699379D01*
X156237388Y-45469078D01*
X156237779Y-45460427D01*
X156245018Y-45447173D01*
X156245635Y-45445873D01*
X156246888Y-45442794D01*
X156247169Y-45442036D01*
X156255023Y-45418558D01*
X156255254Y-45417786D01*
X156256200Y-45414221D01*
X156256320Y-45413732D01*
X156263330Y-45382346D01*
X156263429Y-45381854D01*
X156264119Y-45378066D01*
X156264175Y-45377733D01*
X156270276Y-45338333D01*
X156270324Y-45338000D01*
X156270823Y-45334096D01*
X156270851Y-45333855D01*
X156275997Y-45286389D01*
X156276021Y-45286149D01*
X156276375Y-45282181D01*
X156276390Y-45282000D01*
X156280548Y-45226441D01*
X156280560Y-45226259D01*
X156280802Y-45222253D01*
X156280810Y-45222114D01*
X156283956Y-45158449D01*
X156283962Y-45158308D01*
X156284477Y-45144859D01*
X156284480Y-45144747D01*
X156286041Y-45091811D01*
X156286044Y-45091699D01*
X156286701Y-45059864D01*
X156286703Y-45059773D01*
X156287284Y-45016606D01*
X156287285Y-45016515D01*
X156287410Y-44996605D01*
X156297477Y-44972619D01*
X156321529Y-44962700D01*
X156678471Y-44962700D01*
X156702522Y-44972619D01*
G36*
X156599278Y-42459055D02*
G01*
X156686567Y-42509487D01*
X156752054Y-42587611D01*
X156991850Y-43003535D01*
X156997988Y-43032679D01*
X156985604Y-43060161D01*
X156933258Y-43124380D01*
X156932834Y-43124930D01*
X156932232Y-43125757D01*
X156931857Y-43126301D01*
X156884618Y-43198850D01*
X156884271Y-43199415D01*
X156883510Y-43200729D01*
X156883220Y-43201258D01*
X156842039Y-43280858D01*
X156841773Y-43281405D01*
X156840954Y-43283193D01*
X156840733Y-43283703D01*
X156805525Y-43370393D01*
X156805328Y-43370911D01*
X156804536Y-43373135D01*
X156804377Y-43373611D01*
X156775079Y-43467443D01*
X156774939Y-43467926D01*
X156774237Y-43470533D01*
X156774128Y-43470966D01*
X156750700Y-43571996D01*
X156750607Y-43572436D01*
X156750035Y-43575371D01*
X156749964Y-43575765D01*
X156732382Y-43684046D01*
X156732324Y-43684441D01*
X156731906Y-43687650D01*
X156731865Y-43688006D01*
X156720117Y-43803590D01*
X156720086Y-43803944D01*
X156719834Y-43807376D01*
X156719815Y-43807695D01*
X156713898Y-43930621D01*
X156713886Y-43930941D01*
X156713860Y-43932068D01*
X156696854Y-43971199D01*
X156657342Y-43987300D01*
X156342658Y-43987300D01*
X156303146Y-43971199D01*
X156286140Y-43932068D01*
X156286114Y-43930941D01*
X156286102Y-43930621D01*
X156280185Y-43807695D01*
X156280166Y-43807376D01*
X156279914Y-43803944D01*
X156279883Y-43803590D01*
X156268135Y-43688006D01*
X156268094Y-43687650D01*
X156267676Y-43684441D01*
X156267618Y-43684046D01*
X156250036Y-43575765D01*
X156249965Y-43575371D01*
X156249393Y-43572436D01*
X156249300Y-43571996D01*
X156225872Y-43470966D01*
X156225763Y-43470533D01*
X156225061Y-43467926D01*
X156224921Y-43467443D01*
X156195623Y-43373611D01*
X156195464Y-43373135D01*
X156194672Y-43370911D01*
X156194475Y-43370393D01*
X156159267Y-43283703D01*
X156159046Y-43283193D01*
X156158227Y-43281405D01*
X156157961Y-43280858D01*
X156116780Y-43201258D01*
X156116490Y-43200729D01*
X156115729Y-43199415D01*
X156115382Y-43198850D01*
X156068143Y-43126301D01*
X156067768Y-43125757D01*
X156067166Y-43124930D01*
X156066742Y-43124380D01*
X156014396Y-43060161D01*
X156002012Y-43032679D01*
X156008150Y-43003535D01*
X156247946Y-42587611D01*
X156313433Y-42509487D01*
X156400722Y-42459055D01*
X156500000Y-42441538D01*
X156599278Y-42459055D01*
G37*
X156599278Y-42459055D02*
X156686567Y-42509487D01*
X156752054Y-42587611D01*
X156991850Y-43003535D01*
X156997988Y-43032679D01*
X156985604Y-43060161D01*
X156933258Y-43124380D01*
X156932834Y-43124930D01*
X156932232Y-43125757D01*
X156931857Y-43126301D01*
X156884618Y-43198850D01*
X156884271Y-43199415D01*
X156883510Y-43200729D01*
X156883220Y-43201258D01*
X156842039Y-43280858D01*
X156841773Y-43281405D01*
X156840954Y-43283193D01*
X156840733Y-43283703D01*
X156805525Y-43370393D01*
X156805328Y-43370911D01*
X156804536Y-43373135D01*
X156804377Y-43373611D01*
X156775079Y-43467443D01*
X156774939Y-43467926D01*
X156774237Y-43470533D01*
X156774128Y-43470966D01*
X156750700Y-43571996D01*
X156750607Y-43572436D01*
X156750035Y-43575371D01*
X156749964Y-43575765D01*
X156732382Y-43684046D01*
X156732324Y-43684441D01*
X156731906Y-43687650D01*
X156731865Y-43688006D01*
X156720117Y-43803590D01*
X156720086Y-43803944D01*
X156719834Y-43807376D01*
X156719815Y-43807695D01*
X156713898Y-43930621D01*
X156713886Y-43930941D01*
X156713860Y-43932068D01*
X156696854Y-43971199D01*
X156657342Y-43987300D01*
X156342658Y-43987300D01*
X156303146Y-43971199D01*
X156286140Y-43932068D01*
X156286114Y-43930941D01*
X156286102Y-43930621D01*
X156280185Y-43807695D01*
X156280166Y-43807376D01*
X156279914Y-43803944D01*
X156279883Y-43803590D01*
X156268135Y-43688006D01*
X156268094Y-43687650D01*
X156267676Y-43684441D01*
X156267618Y-43684046D01*
X156250036Y-43575765D01*
X156249965Y-43575371D01*
X156249393Y-43572436D01*
X156249300Y-43571996D01*
X156225872Y-43470966D01*
X156225763Y-43470533D01*
X156225061Y-43467926D01*
X156224921Y-43467443D01*
X156195623Y-43373611D01*
X156195464Y-43373135D01*
X156194672Y-43370911D01*
X156194475Y-43370393D01*
X156159267Y-43283703D01*
X156159046Y-43283193D01*
X156158227Y-43281405D01*
X156157961Y-43280858D01*
X156116780Y-43201258D01*
X156116490Y-43200729D01*
X156115729Y-43199415D01*
X156115382Y-43198850D01*
X156068143Y-43126301D01*
X156067768Y-43125757D01*
X156067166Y-43124930D01*
X156066742Y-43124380D01*
X156014396Y-43060161D01*
X156002012Y-43032679D01*
X156008150Y-43003535D01*
X156247946Y-42587611D01*
X156313433Y-42509487D01*
X156400722Y-42459055D01*
X156500000Y-42441538D01*
X156599278Y-42459055D01*
G36*
X148202522Y-44972619D02*
G01*
X148212590Y-44996605D01*
X148212714Y-45016497D01*
X148212715Y-45016589D01*
X148213296Y-45059790D01*
X148213298Y-45059881D01*
X148213955Y-45091699D01*
X148213958Y-45091811D01*
X148215519Y-45144747D01*
X148215522Y-45144859D01*
X148216037Y-45158308D01*
X148216043Y-45158449D01*
X148219189Y-45222114D01*
X148219197Y-45222253D01*
X148219439Y-45226259D01*
X148219451Y-45226441D01*
X148223609Y-45282000D01*
X148223624Y-45282181D01*
X148223978Y-45286149D01*
X148224002Y-45286389D01*
X148229148Y-45333856D01*
X148229177Y-45334098D01*
X148229676Y-45338001D01*
X148229723Y-45338333D01*
X148235824Y-45377733D01*
X148235880Y-45378066D01*
X148236570Y-45381854D01*
X148236669Y-45382346D01*
X148243679Y-45413732D01*
X148243799Y-45414221D01*
X148244745Y-45417786D01*
X148244976Y-45418558D01*
X148252830Y-45442036D01*
X148253111Y-45442794D01*
X148254364Y-45445873D01*
X148254981Y-45447174D01*
X148262221Y-45460428D01*
X148262611Y-45469078D01*
X148129834Y-45699379D01*
X148074266Y-45754996D01*
X148000000Y-45774908D01*
X147925734Y-45754996D01*
X147870166Y-45699379D01*
X147737388Y-45469078D01*
X147737779Y-45460427D01*
X147745018Y-45447173D01*
X147745635Y-45445873D01*
X147746888Y-45442794D01*
X147747169Y-45442036D01*
X147755023Y-45418558D01*
X147755254Y-45417786D01*
X147756200Y-45414221D01*
X147756320Y-45413732D01*
X147763330Y-45382346D01*
X147763429Y-45381854D01*
X147764119Y-45378066D01*
X147764175Y-45377733D01*
X147770276Y-45338333D01*
X147770324Y-45338000D01*
X147770823Y-45334096D01*
X147770851Y-45333855D01*
X147775997Y-45286389D01*
X147776021Y-45286149D01*
X147776375Y-45282181D01*
X147776390Y-45282000D01*
X147780548Y-45226441D01*
X147780560Y-45226259D01*
X147780802Y-45222253D01*
X147780810Y-45222114D01*
X147783956Y-45158449D01*
X147783962Y-45158308D01*
X147784477Y-45144859D01*
X147784480Y-45144747D01*
X147786041Y-45091811D01*
X147786044Y-45091699D01*
X147786701Y-45059864D01*
X147786703Y-45059773D01*
X147787284Y-45016606D01*
X147787285Y-45016515D01*
X147787410Y-44996605D01*
X147797477Y-44972619D01*
X147821529Y-44962700D01*
X148178471Y-44962700D01*
X148202522Y-44972619D01*
G37*
X148202522Y-44972619D02*
X148212590Y-44996605D01*
X148212714Y-45016497D01*
X148212715Y-45016589D01*
X148213296Y-45059790D01*
X148213298Y-45059881D01*
X148213955Y-45091699D01*
X148213958Y-45091811D01*
X148215519Y-45144747D01*
X148215522Y-45144859D01*
X148216037Y-45158308D01*
X148216043Y-45158449D01*
X148219189Y-45222114D01*
X148219197Y-45222253D01*
X148219439Y-45226259D01*
X148219451Y-45226441D01*
X148223609Y-45282000D01*
X148223624Y-45282181D01*
X148223978Y-45286149D01*
X148224002Y-45286389D01*
X148229148Y-45333856D01*
X148229177Y-45334098D01*
X148229676Y-45338001D01*
X148229723Y-45338333D01*
X148235824Y-45377733D01*
X148235880Y-45378066D01*
X148236570Y-45381854D01*
X148236669Y-45382346D01*
X148243679Y-45413732D01*
X148243799Y-45414221D01*
X148244745Y-45417786D01*
X148244976Y-45418558D01*
X148252830Y-45442036D01*
X148253111Y-45442794D01*
X148254364Y-45445873D01*
X148254981Y-45447174D01*
X148262221Y-45460428D01*
X148262611Y-45469078D01*
X148129834Y-45699379D01*
X148074266Y-45754996D01*
X148000000Y-45774908D01*
X147925734Y-45754996D01*
X147870166Y-45699379D01*
X147737388Y-45469078D01*
X147737779Y-45460427D01*
X147745018Y-45447173D01*
X147745635Y-45445873D01*
X147746888Y-45442794D01*
X147747169Y-45442036D01*
X147755023Y-45418558D01*
X147755254Y-45417786D01*
X147756200Y-45414221D01*
X147756320Y-45413732D01*
X147763330Y-45382346D01*
X147763429Y-45381854D01*
X147764119Y-45378066D01*
X147764175Y-45377733D01*
X147770276Y-45338333D01*
X147770324Y-45338000D01*
X147770823Y-45334096D01*
X147770851Y-45333855D01*
X147775997Y-45286389D01*
X147776021Y-45286149D01*
X147776375Y-45282181D01*
X147776390Y-45282000D01*
X147780548Y-45226441D01*
X147780560Y-45226259D01*
X147780802Y-45222253D01*
X147780810Y-45222114D01*
X147783956Y-45158449D01*
X147783962Y-45158308D01*
X147784477Y-45144859D01*
X147784480Y-45144747D01*
X147786041Y-45091811D01*
X147786044Y-45091699D01*
X147786701Y-45059864D01*
X147786703Y-45059773D01*
X147787284Y-45016606D01*
X147787285Y-45016515D01*
X147787410Y-44996605D01*
X147797477Y-44972619D01*
X147821529Y-44962700D01*
X148178471Y-44962700D01*
X148202522Y-44972619D01*
G36*
X148099278Y-42459055D02*
G01*
X148186567Y-42509487D01*
X148252054Y-42587611D01*
X148491850Y-43003535D01*
X148497988Y-43032679D01*
X148485604Y-43060161D01*
X148433258Y-43124380D01*
X148432834Y-43124930D01*
X148432232Y-43125757D01*
X148431857Y-43126301D01*
X148384618Y-43198850D01*
X148384271Y-43199415D01*
X148383510Y-43200729D01*
X148383220Y-43201258D01*
X148342039Y-43280858D01*
X148341773Y-43281405D01*
X148340954Y-43283193D01*
X148340733Y-43283703D01*
X148305525Y-43370393D01*
X148305328Y-43370911D01*
X148304536Y-43373135D01*
X148304377Y-43373611D01*
X148275079Y-43467443D01*
X148274939Y-43467926D01*
X148274237Y-43470533D01*
X148274128Y-43470966D01*
X148250700Y-43571996D01*
X148250607Y-43572436D01*
X148250035Y-43575371D01*
X148249964Y-43575765D01*
X148232382Y-43684046D01*
X148232324Y-43684441D01*
X148231906Y-43687650D01*
X148231865Y-43688006D01*
X148220117Y-43803590D01*
X148220086Y-43803944D01*
X148219834Y-43807376D01*
X148219815Y-43807695D01*
X148213898Y-43930621D01*
X148213886Y-43930941D01*
X148213860Y-43932068D01*
X148196854Y-43971199D01*
X148157342Y-43987300D01*
X147842658Y-43987300D01*
X147803146Y-43971199D01*
X147786140Y-43932068D01*
X147786114Y-43930941D01*
X147786102Y-43930621D01*
X147780185Y-43807695D01*
X147780166Y-43807376D01*
X147779914Y-43803944D01*
X147779883Y-43803590D01*
X147768135Y-43688006D01*
X147768094Y-43687650D01*
X147767676Y-43684441D01*
X147767618Y-43684046D01*
X147750036Y-43575765D01*
X147749965Y-43575371D01*
X147749393Y-43572436D01*
X147749300Y-43571996D01*
X147725872Y-43470966D01*
X147725763Y-43470533D01*
X147725061Y-43467926D01*
X147724921Y-43467443D01*
X147695623Y-43373611D01*
X147695464Y-43373135D01*
X147694672Y-43370911D01*
X147694475Y-43370393D01*
X147659267Y-43283703D01*
X147659046Y-43283193D01*
X147658227Y-43281405D01*
X147657961Y-43280858D01*
X147616780Y-43201258D01*
X147616490Y-43200729D01*
X147615729Y-43199415D01*
X147615382Y-43198850D01*
X147568143Y-43126301D01*
X147567768Y-43125757D01*
X147567166Y-43124930D01*
X147566742Y-43124380D01*
X147514396Y-43060161D01*
X147502012Y-43032679D01*
X147508150Y-43003535D01*
X147747946Y-42587611D01*
X147813433Y-42509487D01*
X147900722Y-42459055D01*
X148000000Y-42441538D01*
X148099278Y-42459055D01*
G37*
X148099278Y-42459055D02*
X148186567Y-42509487D01*
X148252054Y-42587611D01*
X148491850Y-43003535D01*
X148497988Y-43032679D01*
X148485604Y-43060161D01*
X148433258Y-43124380D01*
X148432834Y-43124930D01*
X148432232Y-43125757D01*
X148431857Y-43126301D01*
X148384618Y-43198850D01*
X148384271Y-43199415D01*
X148383510Y-43200729D01*
X148383220Y-43201258D01*
X148342039Y-43280858D01*
X148341773Y-43281405D01*
X148340954Y-43283193D01*
X148340733Y-43283703D01*
X148305525Y-43370393D01*
X148305328Y-43370911D01*
X148304536Y-43373135D01*
X148304377Y-43373611D01*
X148275079Y-43467443D01*
X148274939Y-43467926D01*
X148274237Y-43470533D01*
X148274128Y-43470966D01*
X148250700Y-43571996D01*
X148250607Y-43572436D01*
X148250035Y-43575371D01*
X148249964Y-43575765D01*
X148232382Y-43684046D01*
X148232324Y-43684441D01*
X148231906Y-43687650D01*
X148231865Y-43688006D01*
X148220117Y-43803590D01*
X148220086Y-43803944D01*
X148219834Y-43807376D01*
X148219815Y-43807695D01*
X148213898Y-43930621D01*
X148213886Y-43930941D01*
X148213860Y-43932068D01*
X148196854Y-43971199D01*
X148157342Y-43987300D01*
X147842658Y-43987300D01*
X147803146Y-43971199D01*
X147786140Y-43932068D01*
X147786114Y-43930941D01*
X147786102Y-43930621D01*
X147780185Y-43807695D01*
X147780166Y-43807376D01*
X147779914Y-43803944D01*
X147779883Y-43803590D01*
X147768135Y-43688006D01*
X147768094Y-43687650D01*
X147767676Y-43684441D01*
X147767618Y-43684046D01*
X147750036Y-43575765D01*
X147749965Y-43575371D01*
X147749393Y-43572436D01*
X147749300Y-43571996D01*
X147725872Y-43470966D01*
X147725763Y-43470533D01*
X147725061Y-43467926D01*
X147724921Y-43467443D01*
X147695623Y-43373611D01*
X147695464Y-43373135D01*
X147694672Y-43370911D01*
X147694475Y-43370393D01*
X147659267Y-43283703D01*
X147659046Y-43283193D01*
X147658227Y-43281405D01*
X147657961Y-43280858D01*
X147616780Y-43201258D01*
X147616490Y-43200729D01*
X147615729Y-43199415D01*
X147615382Y-43198850D01*
X147568143Y-43126301D01*
X147567768Y-43125757D01*
X147567166Y-43124930D01*
X147566742Y-43124380D01*
X147514396Y-43060161D01*
X147502012Y-43032679D01*
X147508150Y-43003535D01*
X147747946Y-42587611D01*
X147813433Y-42509487D01*
X147900722Y-42459055D01*
X148000000Y-42441538D01*
X148099278Y-42459055D01*
G36*
X170267613Y-88482387D02*
G01*
X170306047Y-88548981D01*
X170306012Y-88627602D01*
X170240496Y-88871515D01*
X170219040Y-88888820D01*
X170179223Y-88893052D01*
X170178521Y-88893147D01*
X170177865Y-88893254D01*
X170177191Y-88893382D01*
X170133119Y-88903037D01*
X170132464Y-88903199D01*
X170131560Y-88903448D01*
X170130974Y-88903625D01*
X170086315Y-88918276D01*
X170085738Y-88918481D01*
X170084637Y-88918902D01*
X170084122Y-88919112D01*
X170038827Y-88938745D01*
X170038323Y-88938976D01*
X170037073Y-88939584D01*
X170036634Y-88939809D01*
X169990655Y-88964425D01*
X169990220Y-88964668D01*
X169988869Y-88965461D01*
X169988497Y-88965688D01*
X169941799Y-88995298D01*
X169941433Y-88995540D01*
X169940017Y-88996508D01*
X169939699Y-88996732D01*
X169892254Y-89031348D01*
X169891941Y-89031584D01*
X169890487Y-89032715D01*
X169890220Y-89032929D01*
X169842004Y-89072569D01*
X169841741Y-89072791D01*
X169840273Y-89074066D01*
X169840044Y-89074270D01*
X169793200Y-89116984D01*
X169753133Y-89116543D01*
X169633457Y-88996867D01*
X169633016Y-88956801D01*
X169675730Y-88909955D01*
X169675933Y-88909726D01*
X169677208Y-88908258D01*
X169677430Y-88907995D01*
X169717071Y-88859779D01*
X169717289Y-88859507D01*
X169718419Y-88858053D01*
X169718651Y-88857745D01*
X169753267Y-88810300D01*
X169753491Y-88809982D01*
X169754459Y-88808566D01*
X169754701Y-88808200D01*
X169784311Y-88761502D01*
X169784538Y-88761130D01*
X169785331Y-88759779D01*
X169785574Y-88759344D01*
X169810191Y-88713365D01*
X169810419Y-88712919D01*
X169811026Y-88711669D01*
X169811254Y-88711172D01*
X169830887Y-88665877D01*
X169831097Y-88665362D01*
X169831518Y-88664261D01*
X169831723Y-88663684D01*
X169846374Y-88619025D01*
X169846551Y-88618439D01*
X169846800Y-88617535D01*
X169846962Y-88616880D01*
X169856617Y-88572808D01*
X169856745Y-88572134D01*
X169856852Y-88571478D01*
X169856947Y-88570777D01*
X169861180Y-88530960D01*
X169878485Y-88509504D01*
X170122398Y-88443989D01*
X170201019Y-88443953D01*
X170267613Y-88482387D01*
G37*
X170267613Y-88482387D02*
X170306047Y-88548981D01*
X170306012Y-88627602D01*
X170240496Y-88871515D01*
X170219040Y-88888820D01*
X170179223Y-88893052D01*
X170178521Y-88893147D01*
X170177865Y-88893254D01*
X170177191Y-88893382D01*
X170133119Y-88903037D01*
X170132464Y-88903199D01*
X170131560Y-88903448D01*
X170130974Y-88903625D01*
X170086315Y-88918276D01*
X170085738Y-88918481D01*
X170084637Y-88918902D01*
X170084122Y-88919112D01*
X170038827Y-88938745D01*
X170038323Y-88938976D01*
X170037073Y-88939584D01*
X170036634Y-88939809D01*
X169990655Y-88964425D01*
X169990220Y-88964668D01*
X169988869Y-88965461D01*
X169988497Y-88965688D01*
X169941799Y-88995298D01*
X169941433Y-88995540D01*
X169940017Y-88996508D01*
X169939699Y-88996732D01*
X169892254Y-89031348D01*
X169891941Y-89031584D01*
X169890487Y-89032715D01*
X169890220Y-89032929D01*
X169842004Y-89072569D01*
X169841741Y-89072791D01*
X169840273Y-89074066D01*
X169840044Y-89074270D01*
X169793200Y-89116984D01*
X169753133Y-89116543D01*
X169633457Y-88996867D01*
X169633016Y-88956801D01*
X169675730Y-88909955D01*
X169675933Y-88909726D01*
X169677208Y-88908258D01*
X169677430Y-88907995D01*
X169717071Y-88859779D01*
X169717289Y-88859507D01*
X169718419Y-88858053D01*
X169718651Y-88857745D01*
X169753267Y-88810300D01*
X169753491Y-88809982D01*
X169754459Y-88808566D01*
X169754701Y-88808200D01*
X169784311Y-88761502D01*
X169784538Y-88761130D01*
X169785331Y-88759779D01*
X169785574Y-88759344D01*
X169810191Y-88713365D01*
X169810419Y-88712919D01*
X169811026Y-88711669D01*
X169811254Y-88711172D01*
X169830887Y-88665877D01*
X169831097Y-88665362D01*
X169831518Y-88664261D01*
X169831723Y-88663684D01*
X169846374Y-88619025D01*
X169846551Y-88618439D01*
X169846800Y-88617535D01*
X169846962Y-88616880D01*
X169856617Y-88572808D01*
X169856745Y-88572134D01*
X169856852Y-88571478D01*
X169856947Y-88570777D01*
X169861180Y-88530960D01*
X169878485Y-88509504D01*
X170122398Y-88443989D01*
X170201019Y-88443953D01*
X170267613Y-88482387D01*
G36*
X171377602Y-88443989D02*
G01*
X171621515Y-88509504D01*
X171638820Y-88530960D01*
X171643052Y-88570776D01*
X171643150Y-88571497D01*
X171643258Y-88572153D01*
X171643383Y-88572808D01*
X171653037Y-88616880D01*
X171653199Y-88617535D01*
X171653448Y-88618439D01*
X171653625Y-88619025D01*
X171668276Y-88663684D01*
X171668481Y-88664261D01*
X171668902Y-88665362D01*
X171669112Y-88665877D01*
X171688745Y-88711172D01*
X171688973Y-88711669D01*
X171689580Y-88712919D01*
X171689808Y-88713365D01*
X171714425Y-88759344D01*
X171714668Y-88759779D01*
X171715461Y-88761130D01*
X171715688Y-88761502D01*
X171745298Y-88808200D01*
X171745540Y-88808566D01*
X171746508Y-88809982D01*
X171746732Y-88810300D01*
X171781348Y-88857745D01*
X171781580Y-88858053D01*
X171782710Y-88859507D01*
X171782928Y-88859779D01*
X171822569Y-88907995D01*
X171822791Y-88908258D01*
X171824066Y-88909726D01*
X171824270Y-88909955D01*
X171866984Y-88956799D01*
X171866542Y-88996868D01*
X171746868Y-89116542D01*
X171706799Y-89116984D01*
X171659955Y-89074270D01*
X171659726Y-89074066D01*
X171658258Y-89072791D01*
X171657995Y-89072569D01*
X171609779Y-89032929D01*
X171609512Y-89032715D01*
X171608058Y-89031584D01*
X171607745Y-89031348D01*
X171560300Y-88996732D01*
X171559982Y-88996508D01*
X171558566Y-88995540D01*
X171558200Y-88995298D01*
X171511502Y-88965688D01*
X171511130Y-88965461D01*
X171509779Y-88964668D01*
X171509344Y-88964425D01*
X171463365Y-88939809D01*
X171462926Y-88939584D01*
X171461676Y-88938976D01*
X171461172Y-88938745D01*
X171415877Y-88919112D01*
X171415362Y-88918902D01*
X171414261Y-88918481D01*
X171413684Y-88918276D01*
X171369025Y-88903625D01*
X171368439Y-88903448D01*
X171367535Y-88903199D01*
X171366880Y-88903037D01*
X171322808Y-88893383D01*
X171322153Y-88893258D01*
X171321497Y-88893150D01*
X171320776Y-88893052D01*
X171280960Y-88888820D01*
X171259504Y-88871515D01*
X171193989Y-88627602D01*
X171193953Y-88548981D01*
X171232387Y-88482387D01*
X171298981Y-88443953D01*
X171377602Y-88443989D01*
G37*
X171377602Y-88443989D02*
X171621515Y-88509504D01*
X171638820Y-88530960D01*
X171643052Y-88570776D01*
X171643150Y-88571497D01*
X171643258Y-88572153D01*
X171643383Y-88572808D01*
X171653037Y-88616880D01*
X171653199Y-88617535D01*
X171653448Y-88618439D01*
X171653625Y-88619025D01*
X171668276Y-88663684D01*
X171668481Y-88664261D01*
X171668902Y-88665362D01*
X171669112Y-88665877D01*
X171688745Y-88711172D01*
X171688973Y-88711669D01*
X171689580Y-88712919D01*
X171689808Y-88713365D01*
X171714425Y-88759344D01*
X171714668Y-88759779D01*
X171715461Y-88761130D01*
X171715688Y-88761502D01*
X171745298Y-88808200D01*
X171745540Y-88808566D01*
X171746508Y-88809982D01*
X171746732Y-88810300D01*
X171781348Y-88857745D01*
X171781580Y-88858053D01*
X171782710Y-88859507D01*
X171782928Y-88859779D01*
X171822569Y-88907995D01*
X171822791Y-88908258D01*
X171824066Y-88909726D01*
X171824270Y-88909955D01*
X171866984Y-88956799D01*
X171866542Y-88996868D01*
X171746868Y-89116542D01*
X171706799Y-89116984D01*
X171659955Y-89074270D01*
X171659726Y-89074066D01*
X171658258Y-89072791D01*
X171657995Y-89072569D01*
X171609779Y-89032929D01*
X171609512Y-89032715D01*
X171608058Y-89031584D01*
X171607745Y-89031348D01*
X171560300Y-88996732D01*
X171559982Y-88996508D01*
X171558566Y-88995540D01*
X171558200Y-88995298D01*
X171511502Y-88965688D01*
X171511130Y-88965461D01*
X171509779Y-88964668D01*
X171509344Y-88964425D01*
X171463365Y-88939809D01*
X171462926Y-88939584D01*
X171461676Y-88938976D01*
X171461172Y-88938745D01*
X171415877Y-88919112D01*
X171415362Y-88918902D01*
X171414261Y-88918481D01*
X171413684Y-88918276D01*
X171369025Y-88903625D01*
X171368439Y-88903448D01*
X171367535Y-88903199D01*
X171366880Y-88903037D01*
X171322808Y-88893383D01*
X171322153Y-88893258D01*
X171321497Y-88893150D01*
X171320776Y-88893052D01*
X171280960Y-88888820D01*
X171259504Y-88871515D01*
X171193989Y-88627602D01*
X171193953Y-88548981D01*
X171232387Y-88482387D01*
X171298981Y-88443953D01*
X171377602Y-88443989D01*
G36*
X171377602Y-91943989D02*
G01*
X171621515Y-92009504D01*
X171638820Y-92030960D01*
X171643052Y-92070776D01*
X171643150Y-92071497D01*
X171643258Y-92072153D01*
X171643383Y-92072808D01*
X171653037Y-92116880D01*
X171653199Y-92117535D01*
X171653448Y-92118439D01*
X171653625Y-92119025D01*
X171668276Y-92163684D01*
X171668481Y-92164261D01*
X171668902Y-92165362D01*
X171669112Y-92165877D01*
X171688745Y-92211172D01*
X171688973Y-92211669D01*
X171689580Y-92212919D01*
X171689808Y-92213365D01*
X171714425Y-92259344D01*
X171714668Y-92259779D01*
X171715461Y-92261130D01*
X171715688Y-92261502D01*
X171745298Y-92308200D01*
X171745540Y-92308566D01*
X171746508Y-92309982D01*
X171746732Y-92310300D01*
X171781348Y-92357745D01*
X171781580Y-92358053D01*
X171782710Y-92359507D01*
X171782928Y-92359779D01*
X171822569Y-92407995D01*
X171822791Y-92408258D01*
X171824066Y-92409726D01*
X171824270Y-92409955D01*
X171866984Y-92456799D01*
X171866542Y-92496868D01*
X171746868Y-92616542D01*
X171706799Y-92616984D01*
X171659955Y-92574270D01*
X171659726Y-92574066D01*
X171658258Y-92572791D01*
X171657995Y-92572569D01*
X171609779Y-92532929D01*
X171609512Y-92532715D01*
X171608058Y-92531584D01*
X171607745Y-92531348D01*
X171560300Y-92496732D01*
X171559982Y-92496508D01*
X171558566Y-92495540D01*
X171558200Y-92495298D01*
X171511502Y-92465688D01*
X171511130Y-92465461D01*
X171509779Y-92464668D01*
X171509344Y-92464425D01*
X171463365Y-92439809D01*
X171462926Y-92439584D01*
X171461676Y-92438976D01*
X171461172Y-92438745D01*
X171415877Y-92419112D01*
X171415362Y-92418902D01*
X171414261Y-92418481D01*
X171413684Y-92418276D01*
X171369025Y-92403625D01*
X171368439Y-92403448D01*
X171367535Y-92403199D01*
X171366880Y-92403037D01*
X171322808Y-92393383D01*
X171322153Y-92393258D01*
X171321497Y-92393150D01*
X171320776Y-92393052D01*
X171280960Y-92388820D01*
X171259504Y-92371515D01*
X171193989Y-92127602D01*
X171193953Y-92048981D01*
X171232387Y-91982387D01*
X171298981Y-91943953D01*
X171377602Y-91943989D01*
G37*
X171377602Y-91943989D02*
X171621515Y-92009504D01*
X171638820Y-92030960D01*
X171643052Y-92070776D01*
X171643150Y-92071497D01*
X171643258Y-92072153D01*
X171643383Y-92072808D01*
X171653037Y-92116880D01*
X171653199Y-92117535D01*
X171653448Y-92118439D01*
X171653625Y-92119025D01*
X171668276Y-92163684D01*
X171668481Y-92164261D01*
X171668902Y-92165362D01*
X171669112Y-92165877D01*
X171688745Y-92211172D01*
X171688973Y-92211669D01*
X171689580Y-92212919D01*
X171689808Y-92213365D01*
X171714425Y-92259344D01*
X171714668Y-92259779D01*
X171715461Y-92261130D01*
X171715688Y-92261502D01*
X171745298Y-92308200D01*
X171745540Y-92308566D01*
X171746508Y-92309982D01*
X171746732Y-92310300D01*
X171781348Y-92357745D01*
X171781580Y-92358053D01*
X171782710Y-92359507D01*
X171782928Y-92359779D01*
X171822569Y-92407995D01*
X171822791Y-92408258D01*
X171824066Y-92409726D01*
X171824270Y-92409955D01*
X171866984Y-92456799D01*
X171866542Y-92496868D01*
X171746868Y-92616542D01*
X171706799Y-92616984D01*
X171659955Y-92574270D01*
X171659726Y-92574066D01*
X171658258Y-92572791D01*
X171657995Y-92572569D01*
X171609779Y-92532929D01*
X171609512Y-92532715D01*
X171608058Y-92531584D01*
X171607745Y-92531348D01*
X171560300Y-92496732D01*
X171559982Y-92496508D01*
X171558566Y-92495540D01*
X171558200Y-92495298D01*
X171511502Y-92465688D01*
X171511130Y-92465461D01*
X171509779Y-92464668D01*
X171509344Y-92464425D01*
X171463365Y-92439809D01*
X171462926Y-92439584D01*
X171461676Y-92438976D01*
X171461172Y-92438745D01*
X171415877Y-92419112D01*
X171415362Y-92418902D01*
X171414261Y-92418481D01*
X171413684Y-92418276D01*
X171369025Y-92403625D01*
X171368439Y-92403448D01*
X171367535Y-92403199D01*
X171366880Y-92403037D01*
X171322808Y-92393383D01*
X171322153Y-92393258D01*
X171321497Y-92393150D01*
X171320776Y-92393052D01*
X171280960Y-92388820D01*
X171259504Y-92371515D01*
X171193989Y-92127602D01*
X171193953Y-92048981D01*
X171232387Y-91982387D01*
X171298981Y-91943953D01*
X171377602Y-91943989D01*
G36*
X172476629Y-95739085D02*
G01*
X172494761Y-95779803D01*
X172504083Y-95909840D01*
X172504124Y-95910303D01*
X172504287Y-95911804D01*
X172504349Y-95912289D01*
X172522986Y-96038429D01*
X172523067Y-96038912D01*
X172523272Y-96040006D01*
X172523376Y-96040505D01*
X172551371Y-96162614D01*
X172551496Y-96163113D01*
X172551679Y-96163785D01*
X172551826Y-96164284D01*
X172589243Y-96282377D01*
X172589406Y-96282858D01*
X172589496Y-96283107D01*
X172589694Y-96283620D01*
X172636604Y-96397698D01*
X172637051Y-96398666D01*
X172693366Y-96508406D01*
X172693634Y-96508901D01*
X172693719Y-96509050D01*
X172693974Y-96509478D01*
X172759433Y-96614431D01*
X172759723Y-96614875D01*
X172760064Y-96615374D01*
X172760360Y-96615789D01*
X172834915Y-96716006D01*
X172835228Y-96716409D01*
X172835873Y-96717207D01*
X172836193Y-96717588D01*
X172919694Y-96812992D01*
X172940319Y-96857070D01*
X172930528Y-96904690D01*
X172667054Y-97361683D01*
X172592549Y-97450565D01*
X172493103Y-97508020D01*
X172380000Y-97527976D01*
X172266897Y-97508020D01*
X172167451Y-97450565D01*
X172092946Y-97361683D01*
X171829472Y-96904690D01*
X171819681Y-96857070D01*
X171840306Y-96812992D01*
X171923807Y-96717588D01*
X171924127Y-96717207D01*
X171924772Y-96716409D01*
X171925085Y-96716006D01*
X171999640Y-96615790D01*
X171999942Y-96615366D01*
X172000283Y-96614866D01*
X172000567Y-96614431D01*
X172066026Y-96509479D01*
X172066281Y-96509051D01*
X172066366Y-96508902D01*
X172066634Y-96508407D01*
X172122949Y-96398667D01*
X172123341Y-96397675D01*
X172123396Y-96397698D01*
X172170306Y-96283620D01*
X172170504Y-96283107D01*
X172170594Y-96282858D01*
X172170757Y-96282377D01*
X172208174Y-96164284D01*
X172208321Y-96163785D01*
X172208504Y-96163113D01*
X172208629Y-96162614D01*
X172236624Y-96040505D01*
X172236728Y-96040006D01*
X172236933Y-96038912D01*
X172237014Y-96038429D01*
X172255651Y-95912289D01*
X172255713Y-95911804D01*
X172255876Y-95910303D01*
X172255917Y-95909840D01*
X172265239Y-95779803D01*
X172283371Y-95739085D01*
X172324657Y-95722405D01*
X172435343Y-95722405D01*
X172476629Y-95739085D01*
G37*
X172476629Y-95739085D02*
X172494761Y-95779803D01*
X172504083Y-95909840D01*
X172504124Y-95910303D01*
X172504287Y-95911804D01*
X172504349Y-95912289D01*
X172522986Y-96038429D01*
X172523067Y-96038912D01*
X172523272Y-96040006D01*
X172523376Y-96040505D01*
X172551371Y-96162614D01*
X172551496Y-96163113D01*
X172551679Y-96163785D01*
X172551826Y-96164284D01*
X172589243Y-96282377D01*
X172589406Y-96282858D01*
X172589496Y-96283107D01*
X172589694Y-96283620D01*
X172636604Y-96397698D01*
X172637051Y-96398666D01*
X172693366Y-96508406D01*
X172693634Y-96508901D01*
X172693719Y-96509050D01*
X172693974Y-96509478D01*
X172759433Y-96614431D01*
X172759723Y-96614875D01*
X172760064Y-96615374D01*
X172760360Y-96615789D01*
X172834915Y-96716006D01*
X172835228Y-96716409D01*
X172835873Y-96717207D01*
X172836193Y-96717588D01*
X172919694Y-96812992D01*
X172940319Y-96857070D01*
X172930528Y-96904690D01*
X172667054Y-97361683D01*
X172592549Y-97450565D01*
X172493103Y-97508020D01*
X172380000Y-97527976D01*
X172266897Y-97508020D01*
X172167451Y-97450565D01*
X172092946Y-97361683D01*
X171829472Y-96904690D01*
X171819681Y-96857070D01*
X171840306Y-96812992D01*
X171923807Y-96717588D01*
X171924127Y-96717207D01*
X171924772Y-96716409D01*
X171925085Y-96716006D01*
X171999640Y-96615790D01*
X171999942Y-96615366D01*
X172000283Y-96614866D01*
X172000567Y-96614431D01*
X172066026Y-96509479D01*
X172066281Y-96509051D01*
X172066366Y-96508902D01*
X172066634Y-96508407D01*
X172122949Y-96398667D01*
X172123341Y-96397675D01*
X172123396Y-96397698D01*
X172170306Y-96283620D01*
X172170504Y-96283107D01*
X172170594Y-96282858D01*
X172170757Y-96282377D01*
X172208174Y-96164284D01*
X172208321Y-96163785D01*
X172208504Y-96163113D01*
X172208629Y-96162614D01*
X172236624Y-96040505D01*
X172236728Y-96040006D01*
X172236933Y-96038912D01*
X172237014Y-96038429D01*
X172255651Y-95912289D01*
X172255713Y-95911804D01*
X172255876Y-95910303D01*
X172255917Y-95909840D01*
X172265239Y-95779803D01*
X172283371Y-95739085D01*
X172324657Y-95722405D01*
X172435343Y-95722405D01*
X172476629Y-95739085D01*
M02*
