G04 #@! TF.GenerationSoftware,KiCad,Pcbnew,5.1.6-c6e7f7d~87~ubuntu18.04.1*
G04 #@! TF.CreationDate,2021-01-06T14:43:31+00:00*
G04 #@! TF.ProjectId,multi-smtpa,6d756c74-692d-4736-9d74-70612e6b6963,rev?*
G04 #@! TF.SameCoordinates,Original*
G04 #@! TF.FileFunction,Soldermask,Bot*
G04 #@! TF.FilePolarity,Negative*
%FSLAX46Y46*%
G04 Gerber Fmt 4.6, Leading zero omitted, Abs format (unit mm)*
G04 Created by KiCad (PCBNEW 5.1.6-c6e7f7d~87~ubuntu18.04.1) date 2021-01-06 14:43:31*
%MOMM*%
%LPD*%
G01*
G04 APERTURE LIST*
%ADD10C,0.100000*%
G04 APERTURE END LIST*
D10*
G36*
X194548156Y-94672794D02*
G01*
X195269140Y-94816206D01*
X196060972Y-95144193D01*
X196773601Y-95620357D01*
X197379643Y-96226399D01*
X197855807Y-96939028D01*
X198183794Y-97730860D01*
X198351000Y-98571464D01*
X198351000Y-99428536D01*
X198183794Y-100269140D01*
X197855807Y-101060972D01*
X197379643Y-101773601D01*
X196773601Y-102379643D01*
X196060972Y-102855807D01*
X195269140Y-103183794D01*
X194548156Y-103327206D01*
X194428537Y-103351000D01*
X193571463Y-103351000D01*
X193451844Y-103327206D01*
X192730860Y-103183794D01*
X191939028Y-102855807D01*
X191226399Y-102379643D01*
X190620357Y-101773601D01*
X190144193Y-101060972D01*
X189816206Y-100269140D01*
X189649000Y-99428536D01*
X189649000Y-98571464D01*
X189816206Y-97730860D01*
X190144193Y-96939028D01*
X190620357Y-96226399D01*
X191226399Y-95620357D01*
X191939028Y-95144193D01*
X192730860Y-94816206D01*
X193451844Y-94672794D01*
X193571463Y-94649000D01*
X194428537Y-94649000D01*
X194548156Y-94672794D01*
G37*
G36*
X106548156Y-94672794D02*
G01*
X107269140Y-94816206D01*
X108060972Y-95144193D01*
X108773601Y-95620357D01*
X109379643Y-96226399D01*
X109855807Y-96939028D01*
X110183794Y-97730860D01*
X110351000Y-98571464D01*
X110351000Y-99428536D01*
X110183794Y-100269140D01*
X109855807Y-101060972D01*
X109379643Y-101773601D01*
X108773601Y-102379643D01*
X108060972Y-102855807D01*
X107269140Y-103183794D01*
X106548156Y-103327206D01*
X106428537Y-103351000D01*
X105571463Y-103351000D01*
X105451844Y-103327206D01*
X104730860Y-103183794D01*
X103939028Y-102855807D01*
X103226399Y-102379643D01*
X102620357Y-101773601D01*
X102144193Y-101060972D01*
X101816206Y-100269140D01*
X101649000Y-99428536D01*
X101649000Y-98571464D01*
X101816206Y-97730860D01*
X102144193Y-96939028D01*
X102620357Y-96226399D01*
X103226399Y-95620357D01*
X103939028Y-95144193D01*
X104730860Y-94816206D01*
X105451844Y-94672794D01*
X105571463Y-94649000D01*
X106428537Y-94649000D01*
X106548156Y-94672794D01*
G37*
G36*
X172493512Y-99103927D02*
G01*
X172642812Y-99133624D01*
X172806784Y-99201544D01*
X172954354Y-99300147D01*
X173079853Y-99425646D01*
X173178456Y-99573216D01*
X173246376Y-99737188D01*
X173281000Y-99911259D01*
X173281000Y-100088741D01*
X173246376Y-100262812D01*
X173178456Y-100426784D01*
X173079853Y-100574354D01*
X172954354Y-100699853D01*
X172806784Y-100798456D01*
X172642812Y-100866376D01*
X172493512Y-100896073D01*
X172468742Y-100901000D01*
X172291258Y-100901000D01*
X172266488Y-100896073D01*
X172117188Y-100866376D01*
X171953216Y-100798456D01*
X171805646Y-100699853D01*
X171680147Y-100574354D01*
X171581544Y-100426784D01*
X171513624Y-100262812D01*
X171479000Y-100088741D01*
X171479000Y-99911259D01*
X171513624Y-99737188D01*
X171581544Y-99573216D01*
X171680147Y-99425646D01*
X171805646Y-99300147D01*
X171953216Y-99201544D01*
X172117188Y-99133624D01*
X172266488Y-99103927D01*
X172291258Y-99099000D01*
X172468742Y-99099000D01*
X172493512Y-99103927D01*
G37*
G36*
X175033512Y-99103927D02*
G01*
X175182812Y-99133624D01*
X175346784Y-99201544D01*
X175494354Y-99300147D01*
X175619853Y-99425646D01*
X175718456Y-99573216D01*
X175786376Y-99737188D01*
X175821000Y-99911259D01*
X175821000Y-100088741D01*
X175786376Y-100262812D01*
X175718456Y-100426784D01*
X175619853Y-100574354D01*
X175494354Y-100699853D01*
X175346784Y-100798456D01*
X175182812Y-100866376D01*
X175033512Y-100896073D01*
X175008742Y-100901000D01*
X174831258Y-100901000D01*
X174806488Y-100896073D01*
X174657188Y-100866376D01*
X174493216Y-100798456D01*
X174345646Y-100699853D01*
X174220147Y-100574354D01*
X174121544Y-100426784D01*
X174053624Y-100262812D01*
X174019000Y-100088741D01*
X174019000Y-99911259D01*
X174053624Y-99737188D01*
X174121544Y-99573216D01*
X174220147Y-99425646D01*
X174345646Y-99300147D01*
X174493216Y-99201544D01*
X174657188Y-99133624D01*
X174806488Y-99103927D01*
X174831258Y-99099000D01*
X175008742Y-99099000D01*
X175033512Y-99103927D01*
G37*
G36*
X177573512Y-99103927D02*
G01*
X177722812Y-99133624D01*
X177886784Y-99201544D01*
X178034354Y-99300147D01*
X178159853Y-99425646D01*
X178258456Y-99573216D01*
X178326376Y-99737188D01*
X178361000Y-99911259D01*
X178361000Y-100088741D01*
X178326376Y-100262812D01*
X178258456Y-100426784D01*
X178159853Y-100574354D01*
X178034354Y-100699853D01*
X177886784Y-100798456D01*
X177722812Y-100866376D01*
X177573512Y-100896073D01*
X177548742Y-100901000D01*
X177371258Y-100901000D01*
X177346488Y-100896073D01*
X177197188Y-100866376D01*
X177033216Y-100798456D01*
X176885646Y-100699853D01*
X176760147Y-100574354D01*
X176661544Y-100426784D01*
X176593624Y-100262812D01*
X176559000Y-100088741D01*
X176559000Y-99911259D01*
X176593624Y-99737188D01*
X176661544Y-99573216D01*
X176760147Y-99425646D01*
X176885646Y-99300147D01*
X177033216Y-99201544D01*
X177197188Y-99133624D01*
X177346488Y-99103927D01*
X177371258Y-99099000D01*
X177548742Y-99099000D01*
X177573512Y-99103927D01*
G37*
G36*
X180113512Y-99103927D02*
G01*
X180262812Y-99133624D01*
X180426784Y-99201544D01*
X180574354Y-99300147D01*
X180699853Y-99425646D01*
X180798456Y-99573216D01*
X180866376Y-99737188D01*
X180901000Y-99911259D01*
X180901000Y-100088741D01*
X180866376Y-100262812D01*
X180798456Y-100426784D01*
X180699853Y-100574354D01*
X180574354Y-100699853D01*
X180426784Y-100798456D01*
X180262812Y-100866376D01*
X180113512Y-100896073D01*
X180088742Y-100901000D01*
X179911258Y-100901000D01*
X179886488Y-100896073D01*
X179737188Y-100866376D01*
X179573216Y-100798456D01*
X179425646Y-100699853D01*
X179300147Y-100574354D01*
X179201544Y-100426784D01*
X179133624Y-100262812D01*
X179099000Y-100088741D01*
X179099000Y-99911259D01*
X179133624Y-99737188D01*
X179201544Y-99573216D01*
X179300147Y-99425646D01*
X179425646Y-99300147D01*
X179573216Y-99201544D01*
X179737188Y-99133624D01*
X179886488Y-99103927D01*
X179911258Y-99099000D01*
X180088742Y-99099000D01*
X180113512Y-99103927D01*
G37*
G36*
X169953512Y-99103927D02*
G01*
X170102812Y-99133624D01*
X170266784Y-99201544D01*
X170414354Y-99300147D01*
X170539853Y-99425646D01*
X170638456Y-99573216D01*
X170706376Y-99737188D01*
X170741000Y-99911259D01*
X170741000Y-100088741D01*
X170706376Y-100262812D01*
X170638456Y-100426784D01*
X170539853Y-100574354D01*
X170414354Y-100699853D01*
X170266784Y-100798456D01*
X170102812Y-100866376D01*
X169953512Y-100896073D01*
X169928742Y-100901000D01*
X169751258Y-100901000D01*
X169726488Y-100896073D01*
X169577188Y-100866376D01*
X169413216Y-100798456D01*
X169265646Y-100699853D01*
X169140147Y-100574354D01*
X169041544Y-100426784D01*
X168973624Y-100262812D01*
X168939000Y-100088741D01*
X168939000Y-99911259D01*
X168973624Y-99737188D01*
X169041544Y-99573216D01*
X169140147Y-99425646D01*
X169265646Y-99300147D01*
X169413216Y-99201544D01*
X169577188Y-99133624D01*
X169726488Y-99103927D01*
X169751258Y-99099000D01*
X169928742Y-99099000D01*
X169953512Y-99103927D01*
G37*
G36*
X180901000Y-98361000D02*
G01*
X179099000Y-98361000D01*
X179099000Y-96559000D01*
X180901000Y-96559000D01*
X180901000Y-98361000D01*
G37*
G36*
X169953512Y-96563927D02*
G01*
X170102812Y-96593624D01*
X170266784Y-96661544D01*
X170414354Y-96760147D01*
X170539853Y-96885646D01*
X170638456Y-97033216D01*
X170706376Y-97197188D01*
X170741000Y-97371259D01*
X170741000Y-97548741D01*
X170706376Y-97722812D01*
X170638456Y-97886784D01*
X170539853Y-98034354D01*
X170414354Y-98159853D01*
X170266784Y-98258456D01*
X170102812Y-98326376D01*
X169953512Y-98356073D01*
X169928742Y-98361000D01*
X169751258Y-98361000D01*
X169726488Y-98356073D01*
X169577188Y-98326376D01*
X169413216Y-98258456D01*
X169265646Y-98159853D01*
X169140147Y-98034354D01*
X169041544Y-97886784D01*
X168973624Y-97722812D01*
X168939000Y-97548741D01*
X168939000Y-97371259D01*
X168973624Y-97197188D01*
X169041544Y-97033216D01*
X169140147Y-96885646D01*
X169265646Y-96760147D01*
X169413216Y-96661544D01*
X169577188Y-96593624D01*
X169726488Y-96563927D01*
X169751258Y-96559000D01*
X169928742Y-96559000D01*
X169953512Y-96563927D01*
G37*
G36*
X172493512Y-96563927D02*
G01*
X172642812Y-96593624D01*
X172806784Y-96661544D01*
X172954354Y-96760147D01*
X173079853Y-96885646D01*
X173178456Y-97033216D01*
X173246376Y-97197188D01*
X173281000Y-97371259D01*
X173281000Y-97548741D01*
X173246376Y-97722812D01*
X173178456Y-97886784D01*
X173079853Y-98034354D01*
X172954354Y-98159853D01*
X172806784Y-98258456D01*
X172642812Y-98326376D01*
X172493512Y-98356073D01*
X172468742Y-98361000D01*
X172291258Y-98361000D01*
X172266488Y-98356073D01*
X172117188Y-98326376D01*
X171953216Y-98258456D01*
X171805646Y-98159853D01*
X171680147Y-98034354D01*
X171581544Y-97886784D01*
X171513624Y-97722812D01*
X171479000Y-97548741D01*
X171479000Y-97371259D01*
X171513624Y-97197188D01*
X171581544Y-97033216D01*
X171680147Y-96885646D01*
X171805646Y-96760147D01*
X171953216Y-96661544D01*
X172117188Y-96593624D01*
X172266488Y-96563927D01*
X172291258Y-96559000D01*
X172468742Y-96559000D01*
X172493512Y-96563927D01*
G37*
G36*
X175033512Y-96563927D02*
G01*
X175182812Y-96593624D01*
X175346784Y-96661544D01*
X175494354Y-96760147D01*
X175619853Y-96885646D01*
X175718456Y-97033216D01*
X175786376Y-97197188D01*
X175821000Y-97371259D01*
X175821000Y-97548741D01*
X175786376Y-97722812D01*
X175718456Y-97886784D01*
X175619853Y-98034354D01*
X175494354Y-98159853D01*
X175346784Y-98258456D01*
X175182812Y-98326376D01*
X175033512Y-98356073D01*
X175008742Y-98361000D01*
X174831258Y-98361000D01*
X174806488Y-98356073D01*
X174657188Y-98326376D01*
X174493216Y-98258456D01*
X174345646Y-98159853D01*
X174220147Y-98034354D01*
X174121544Y-97886784D01*
X174053624Y-97722812D01*
X174019000Y-97548741D01*
X174019000Y-97371259D01*
X174053624Y-97197188D01*
X174121544Y-97033216D01*
X174220147Y-96885646D01*
X174345646Y-96760147D01*
X174493216Y-96661544D01*
X174657188Y-96593624D01*
X174806488Y-96563927D01*
X174831258Y-96559000D01*
X175008742Y-96559000D01*
X175033512Y-96563927D01*
G37*
G36*
X177573512Y-96563927D02*
G01*
X177722812Y-96593624D01*
X177886784Y-96661544D01*
X178034354Y-96760147D01*
X178159853Y-96885646D01*
X178258456Y-97033216D01*
X178326376Y-97197188D01*
X178361000Y-97371259D01*
X178361000Y-97548741D01*
X178326376Y-97722812D01*
X178258456Y-97886784D01*
X178159853Y-98034354D01*
X178034354Y-98159853D01*
X177886784Y-98258456D01*
X177722812Y-98326376D01*
X177573512Y-98356073D01*
X177548742Y-98361000D01*
X177371258Y-98361000D01*
X177346488Y-98356073D01*
X177197188Y-98326376D01*
X177033216Y-98258456D01*
X176885646Y-98159853D01*
X176760147Y-98034354D01*
X176661544Y-97886784D01*
X176593624Y-97722812D01*
X176559000Y-97548741D01*
X176559000Y-97371259D01*
X176593624Y-97197188D01*
X176661544Y-97033216D01*
X176760147Y-96885646D01*
X176885646Y-96760147D01*
X177033216Y-96661544D01*
X177197188Y-96593624D01*
X177346488Y-96563927D01*
X177371258Y-96559000D01*
X177548742Y-96559000D01*
X177573512Y-96563927D01*
G37*
G36*
X139041000Y-93951000D02*
G01*
X137139000Y-93951000D01*
X137139000Y-92049000D01*
X139041000Y-92049000D01*
X139041000Y-93951000D01*
G37*
G36*
X148527395Y-92085546D02*
G01*
X148700466Y-92157234D01*
X148700467Y-92157235D01*
X148856227Y-92261310D01*
X148988690Y-92393773D01*
X148988691Y-92393775D01*
X149092766Y-92549534D01*
X149164454Y-92722605D01*
X149201000Y-92906333D01*
X149201000Y-93093667D01*
X149164454Y-93277395D01*
X149092766Y-93450466D01*
X149092765Y-93450467D01*
X148988690Y-93606227D01*
X148856227Y-93738690D01*
X148777818Y-93791081D01*
X148700466Y-93842766D01*
X148527395Y-93914454D01*
X148343667Y-93951000D01*
X148156333Y-93951000D01*
X147972605Y-93914454D01*
X147799534Y-93842766D01*
X147722182Y-93791081D01*
X147643773Y-93738690D01*
X147511310Y-93606227D01*
X147407235Y-93450467D01*
X147407234Y-93450466D01*
X147335546Y-93277395D01*
X147299000Y-93093667D01*
X147299000Y-92906333D01*
X147335546Y-92722605D01*
X147407234Y-92549534D01*
X147511309Y-92393775D01*
X147511310Y-92393773D01*
X147643773Y-92261310D01*
X147799533Y-92157235D01*
X147799534Y-92157234D01*
X147972605Y-92085546D01*
X148156333Y-92049000D01*
X148343667Y-92049000D01*
X148527395Y-92085546D01*
G37*
G36*
X130251000Y-90101000D02*
G01*
X128049000Y-90101000D01*
X128049000Y-87899000D01*
X130251000Y-87899000D01*
X130251000Y-90101000D01*
G37*
G36*
X131904794Y-87920155D02*
G01*
X132011150Y-87941311D01*
X132111334Y-87982809D01*
X132211520Y-88024307D01*
X132391844Y-88144795D01*
X132545205Y-88298156D01*
X132665693Y-88478480D01*
X132665693Y-88478481D01*
X132748689Y-88678850D01*
X132791000Y-88891561D01*
X132791000Y-89108439D01*
X132748689Y-89321150D01*
X132665693Y-89521520D01*
X132545205Y-89701844D01*
X132391844Y-89855205D01*
X132211520Y-89975693D01*
X132011150Y-90058689D01*
X131904794Y-90079845D01*
X131798440Y-90101000D01*
X131581560Y-90101000D01*
X131475205Y-90079844D01*
X131368850Y-90058689D01*
X131168480Y-89975693D01*
X130988156Y-89855205D01*
X130834795Y-89701844D01*
X130714307Y-89521520D01*
X130631311Y-89321150D01*
X130589000Y-89108439D01*
X130589000Y-88891561D01*
X130631311Y-88678850D01*
X130714307Y-88478481D01*
X130714307Y-88478480D01*
X130834795Y-88298156D01*
X130988156Y-88144795D01*
X131168480Y-88024307D01*
X131268666Y-87982809D01*
X131368850Y-87941311D01*
X131475206Y-87920155D01*
X131581560Y-87899000D01*
X131798440Y-87899000D01*
X131904794Y-87920155D01*
G37*
G36*
X138338228Y-87681703D02*
G01*
X138493100Y-87745853D01*
X138632481Y-87838985D01*
X138751015Y-87957519D01*
X138844147Y-88096900D01*
X138908297Y-88251772D01*
X138941000Y-88416184D01*
X138941000Y-88583816D01*
X138908297Y-88748228D01*
X138844147Y-88903100D01*
X138751015Y-89042481D01*
X138632481Y-89161015D01*
X138493100Y-89254147D01*
X138338228Y-89318297D01*
X138173816Y-89351000D01*
X138006184Y-89351000D01*
X137841772Y-89318297D01*
X137686900Y-89254147D01*
X137547519Y-89161015D01*
X137428985Y-89042481D01*
X137335853Y-88903100D01*
X137271703Y-88748228D01*
X137239000Y-88583816D01*
X137239000Y-88416184D01*
X137271703Y-88251772D01*
X137335853Y-88096900D01*
X137428985Y-87957519D01*
X137547519Y-87838985D01*
X137686900Y-87745853D01*
X137841772Y-87681703D01*
X138006184Y-87649000D01*
X138173816Y-87649000D01*
X138338228Y-87681703D01*
G37*
G36*
X148498228Y-87681703D02*
G01*
X148653100Y-87745853D01*
X148792481Y-87838985D01*
X148911015Y-87957519D01*
X149004147Y-88096900D01*
X149068297Y-88251772D01*
X149101000Y-88416184D01*
X149101000Y-88583816D01*
X149068297Y-88748228D01*
X149004147Y-88903100D01*
X148911015Y-89042481D01*
X148792481Y-89161015D01*
X148653100Y-89254147D01*
X148498228Y-89318297D01*
X148333816Y-89351000D01*
X148166184Y-89351000D01*
X148001772Y-89318297D01*
X147846900Y-89254147D01*
X147707519Y-89161015D01*
X147588985Y-89042481D01*
X147495853Y-88903100D01*
X147431703Y-88748228D01*
X147399000Y-88583816D01*
X147399000Y-88416184D01*
X147431703Y-88251772D01*
X147495853Y-88096900D01*
X147588985Y-87957519D01*
X147707519Y-87838985D01*
X147846900Y-87745853D01*
X148001772Y-87681703D01*
X148166184Y-87649000D01*
X148333816Y-87649000D01*
X148498228Y-87681703D01*
G37*
G36*
X191394072Y-80780918D02*
G01*
X191639939Y-80882759D01*
X191861212Y-81030610D01*
X192049390Y-81218788D01*
X192197241Y-81440061D01*
X192299082Y-81685928D01*
X192351000Y-81946938D01*
X192351000Y-82213062D01*
X192299082Y-82474072D01*
X192197241Y-82719939D01*
X192049390Y-82941212D01*
X191861212Y-83129390D01*
X191639939Y-83277241D01*
X191639938Y-83277242D01*
X191639937Y-83277242D01*
X191394072Y-83379082D01*
X191133063Y-83431000D01*
X190866937Y-83431000D01*
X190605928Y-83379082D01*
X190360063Y-83277242D01*
X190360062Y-83277242D01*
X190360061Y-83277241D01*
X190138788Y-83129390D01*
X189950610Y-82941212D01*
X189802759Y-82719939D01*
X189700918Y-82474072D01*
X189649000Y-82213062D01*
X189649000Y-81946938D01*
X189700918Y-81685928D01*
X189802759Y-81440061D01*
X189950610Y-81218788D01*
X190138788Y-81030610D01*
X190360061Y-80882759D01*
X190605928Y-80780918D01*
X190866937Y-80729000D01*
X191133063Y-80729000D01*
X191394072Y-80780918D01*
G37*
G36*
X191857473Y-75661371D02*
G01*
X191972353Y-75696220D01*
X192078228Y-75752811D01*
X192171029Y-75828971D01*
X192247189Y-75921772D01*
X192303780Y-76027647D01*
X192338629Y-76142527D01*
X192351000Y-76268140D01*
X192351000Y-77731860D01*
X192338629Y-77857473D01*
X192303780Y-77972353D01*
X192247189Y-78078228D01*
X192171029Y-78171029D01*
X192078228Y-78247189D01*
X191972353Y-78303780D01*
X191857473Y-78338629D01*
X191731860Y-78351000D01*
X190268140Y-78351000D01*
X190142527Y-78338629D01*
X190027647Y-78303780D01*
X189921772Y-78247189D01*
X189828971Y-78171029D01*
X189752811Y-78078228D01*
X189696220Y-77972353D01*
X189661371Y-77857473D01*
X189649000Y-77731860D01*
X189649000Y-76268140D01*
X189661371Y-76142527D01*
X189696220Y-76027647D01*
X189752811Y-75921772D01*
X189828971Y-75828971D01*
X189921772Y-75752811D01*
X190027647Y-75696220D01*
X190142527Y-75661371D01*
X190268140Y-75649000D01*
X191731860Y-75649000D01*
X191857473Y-75661371D01*
G37*
G36*
X136737142Y-74008242D02*
G01*
X136885101Y-74069529D01*
X137018255Y-74158499D01*
X137131501Y-74271745D01*
X137220471Y-74404899D01*
X137281758Y-74552858D01*
X137313000Y-74709925D01*
X137313000Y-74870075D01*
X137281758Y-75027142D01*
X137220471Y-75175101D01*
X137131501Y-75308255D01*
X137018255Y-75421501D01*
X136885101Y-75510471D01*
X136737142Y-75571758D01*
X136580075Y-75603000D01*
X136419925Y-75603000D01*
X136262858Y-75571758D01*
X136114899Y-75510471D01*
X135981745Y-75421501D01*
X135868499Y-75308255D01*
X135779529Y-75175101D01*
X135718242Y-75027142D01*
X135687000Y-74870075D01*
X135687000Y-74709925D01*
X135718242Y-74552858D01*
X135779529Y-74404899D01*
X135868499Y-74271745D01*
X135981745Y-74158499D01*
X136114899Y-74069529D01*
X136262858Y-74008242D01*
X136419925Y-73977000D01*
X136580075Y-73977000D01*
X136737142Y-74008242D01*
G37*
G36*
X146737142Y-74008242D02*
G01*
X146885101Y-74069529D01*
X147018255Y-74158499D01*
X147131501Y-74271745D01*
X147220471Y-74404899D01*
X147281758Y-74552858D01*
X147313000Y-74709925D01*
X147313000Y-74870075D01*
X147281758Y-75027142D01*
X147220471Y-75175101D01*
X147131501Y-75308255D01*
X147018255Y-75421501D01*
X146885101Y-75510471D01*
X146737142Y-75571758D01*
X146580075Y-75603000D01*
X146419925Y-75603000D01*
X146262858Y-75571758D01*
X146114899Y-75510471D01*
X145981745Y-75421501D01*
X145868499Y-75308255D01*
X145779529Y-75175101D01*
X145718242Y-75027142D01*
X145687000Y-74870075D01*
X145687000Y-74709925D01*
X145718242Y-74552858D01*
X145779529Y-74404899D01*
X145868499Y-74271745D01*
X145981745Y-74158499D01*
X146114899Y-74069529D01*
X146262858Y-74008242D01*
X146419925Y-73977000D01*
X146580075Y-73977000D01*
X146737142Y-74008242D01*
G37*
G36*
X168237142Y-74008242D02*
G01*
X168385101Y-74069529D01*
X168518255Y-74158499D01*
X168631501Y-74271745D01*
X168720471Y-74404899D01*
X168781758Y-74552858D01*
X168813000Y-74709925D01*
X168813000Y-74870075D01*
X168781758Y-75027142D01*
X168720471Y-75175101D01*
X168631501Y-75308255D01*
X168518255Y-75421501D01*
X168385101Y-75510471D01*
X168237142Y-75571758D01*
X168080075Y-75603000D01*
X167919925Y-75603000D01*
X167762858Y-75571758D01*
X167614899Y-75510471D01*
X167481745Y-75421501D01*
X167368499Y-75308255D01*
X167279529Y-75175101D01*
X167218242Y-75027142D01*
X167187000Y-74870075D01*
X167187000Y-74709925D01*
X167218242Y-74552858D01*
X167279529Y-74404899D01*
X167368499Y-74271745D01*
X167481745Y-74158499D01*
X167614899Y-74069529D01*
X167762858Y-74008242D01*
X167919925Y-73977000D01*
X168080075Y-73977000D01*
X168237142Y-74008242D01*
G37*
G36*
X191394072Y-70780918D02*
G01*
X191639939Y-70882759D01*
X191861212Y-71030610D01*
X192049390Y-71218788D01*
X192195196Y-71437000D01*
X192197242Y-71440063D01*
X192299082Y-71685928D01*
X192351000Y-71946937D01*
X192351000Y-72213063D01*
X192328288Y-72327242D01*
X192299082Y-72474072D01*
X192197241Y-72719939D01*
X192049390Y-72941212D01*
X191861212Y-73129390D01*
X191639939Y-73277241D01*
X191639938Y-73277242D01*
X191639937Y-73277242D01*
X191394072Y-73379082D01*
X191133063Y-73431000D01*
X190866937Y-73431000D01*
X190605928Y-73379082D01*
X190360063Y-73277242D01*
X190360062Y-73277242D01*
X190360061Y-73277241D01*
X190138788Y-73129390D01*
X189950610Y-72941212D01*
X189802759Y-72719939D01*
X189700918Y-72474072D01*
X189671712Y-72327242D01*
X189649000Y-72213063D01*
X189649000Y-71946937D01*
X189700918Y-71685928D01*
X189802758Y-71440063D01*
X189804805Y-71437000D01*
X189950610Y-71218788D01*
X190138788Y-71030610D01*
X190360061Y-70882759D01*
X190605928Y-70780918D01*
X190866937Y-70729000D01*
X191133063Y-70729000D01*
X191394072Y-70780918D01*
G37*
G36*
X158237142Y-71468242D02*
G01*
X158385101Y-71529529D01*
X158518255Y-71618499D01*
X158631501Y-71731745D01*
X158720471Y-71864899D01*
X158781758Y-72012858D01*
X158813000Y-72169925D01*
X158813000Y-72330075D01*
X158781758Y-72487142D01*
X158720471Y-72635101D01*
X158631501Y-72768255D01*
X158518255Y-72881501D01*
X158385101Y-72970471D01*
X158237142Y-73031758D01*
X158080075Y-73063000D01*
X157919925Y-73063000D01*
X157762858Y-73031758D01*
X157614899Y-72970471D01*
X157481745Y-72881501D01*
X157368499Y-72768255D01*
X157279529Y-72635101D01*
X157218242Y-72487142D01*
X157187000Y-72330075D01*
X157187000Y-72169925D01*
X157218242Y-72012858D01*
X157279529Y-71864899D01*
X157368499Y-71731745D01*
X157481745Y-71618499D01*
X157614899Y-71529529D01*
X157762858Y-71468242D01*
X157919925Y-71437000D01*
X158080075Y-71437000D01*
X158237142Y-71468242D01*
G37*
G36*
X168237142Y-71468242D02*
G01*
X168385101Y-71529529D01*
X168518255Y-71618499D01*
X168631501Y-71731745D01*
X168720471Y-71864899D01*
X168781758Y-72012858D01*
X168813000Y-72169925D01*
X168813000Y-72330075D01*
X168781758Y-72487142D01*
X168720471Y-72635101D01*
X168631501Y-72768255D01*
X168518255Y-72881501D01*
X168385101Y-72970471D01*
X168237142Y-73031758D01*
X168080075Y-73063000D01*
X167919925Y-73063000D01*
X167762858Y-73031758D01*
X167614899Y-72970471D01*
X167481745Y-72881501D01*
X167368499Y-72768255D01*
X167279529Y-72635101D01*
X167218242Y-72487142D01*
X167187000Y-72330075D01*
X167187000Y-72169925D01*
X167218242Y-72012858D01*
X167279529Y-71864899D01*
X167368499Y-71731745D01*
X167481745Y-71618499D01*
X167614899Y-71529529D01*
X167762858Y-71468242D01*
X167919925Y-71437000D01*
X168080075Y-71437000D01*
X168237142Y-71468242D01*
G37*
G36*
X146737142Y-71468242D02*
G01*
X146885101Y-71529529D01*
X147018255Y-71618499D01*
X147131501Y-71731745D01*
X147220471Y-71864899D01*
X147281758Y-72012858D01*
X147313000Y-72169925D01*
X147313000Y-72330075D01*
X147281758Y-72487142D01*
X147220471Y-72635101D01*
X147131501Y-72768255D01*
X147018255Y-72881501D01*
X146885101Y-72970471D01*
X146737142Y-73031758D01*
X146580075Y-73063000D01*
X146419925Y-73063000D01*
X146262858Y-73031758D01*
X146114899Y-72970471D01*
X145981745Y-72881501D01*
X145868499Y-72768255D01*
X145779529Y-72635101D01*
X145718242Y-72487142D01*
X145687000Y-72330075D01*
X145687000Y-72169925D01*
X145718242Y-72012858D01*
X145779529Y-71864899D01*
X145868499Y-71731745D01*
X145981745Y-71618499D01*
X146114899Y-71529529D01*
X146262858Y-71468242D01*
X146419925Y-71437000D01*
X146580075Y-71437000D01*
X146737142Y-71468242D01*
G37*
G36*
X136737142Y-71468242D02*
G01*
X136885101Y-71529529D01*
X137018255Y-71618499D01*
X137131501Y-71731745D01*
X137220471Y-71864899D01*
X137281758Y-72012858D01*
X137313000Y-72169925D01*
X137313000Y-72330075D01*
X137281758Y-72487142D01*
X137220471Y-72635101D01*
X137131501Y-72768255D01*
X137018255Y-72881501D01*
X136885101Y-72970471D01*
X136737142Y-73031758D01*
X136580075Y-73063000D01*
X136419925Y-73063000D01*
X136262858Y-73031758D01*
X136114899Y-72970471D01*
X135981745Y-72881501D01*
X135868499Y-72768255D01*
X135779529Y-72635101D01*
X135718242Y-72487142D01*
X135687000Y-72330075D01*
X135687000Y-72169925D01*
X135718242Y-72012858D01*
X135779529Y-71864899D01*
X135868499Y-71731745D01*
X135981745Y-71618499D01*
X136114899Y-71529529D01*
X136262858Y-71468242D01*
X136419925Y-71437000D01*
X136580075Y-71437000D01*
X136737142Y-71468242D01*
G37*
G36*
X113644072Y-69830918D02*
G01*
X113889939Y-69932759D01*
X113911466Y-69947143D01*
X114111211Y-70080609D01*
X114299391Y-70268789D01*
X114447242Y-70490063D01*
X114549082Y-70735928D01*
X114601000Y-70996937D01*
X114601000Y-71263063D01*
X114549082Y-71524072D01*
X114463062Y-71731745D01*
X114447241Y-71769939D01*
X114299390Y-71991212D01*
X114111212Y-72179390D01*
X113889939Y-72327241D01*
X113889938Y-72327242D01*
X113889937Y-72327242D01*
X113644072Y-72429082D01*
X113383063Y-72481000D01*
X113116937Y-72481000D01*
X112855928Y-72429082D01*
X112610063Y-72327242D01*
X112610062Y-72327242D01*
X112610061Y-72327241D01*
X112388788Y-72179390D01*
X112200610Y-71991212D01*
X112052759Y-71769939D01*
X112036939Y-71731745D01*
X111950918Y-71524072D01*
X111899000Y-71263063D01*
X111899000Y-70996937D01*
X111950918Y-70735928D01*
X112052758Y-70490063D01*
X112200609Y-70268789D01*
X112388789Y-70080609D01*
X112588534Y-69947143D01*
X112610061Y-69932759D01*
X112855928Y-69830918D01*
X113116937Y-69779000D01*
X113383063Y-69779000D01*
X113644072Y-69830918D01*
G37*
G36*
X136737142Y-68928242D02*
G01*
X136885101Y-68989529D01*
X137018255Y-69078499D01*
X137131501Y-69191745D01*
X137220471Y-69324899D01*
X137281758Y-69472858D01*
X137313000Y-69629925D01*
X137313000Y-69790075D01*
X137281758Y-69947142D01*
X137220471Y-70095101D01*
X137131501Y-70228255D01*
X137018255Y-70341501D01*
X136885101Y-70430471D01*
X136737142Y-70491758D01*
X136580075Y-70523000D01*
X136419925Y-70523000D01*
X136262858Y-70491758D01*
X136114899Y-70430471D01*
X135981745Y-70341501D01*
X135868499Y-70228255D01*
X135779529Y-70095101D01*
X135718242Y-69947142D01*
X135687000Y-69790075D01*
X135687000Y-69629925D01*
X135718242Y-69472858D01*
X135779529Y-69324899D01*
X135868499Y-69191745D01*
X135981745Y-69078499D01*
X136114899Y-68989529D01*
X136262858Y-68928242D01*
X136419925Y-68897000D01*
X136580075Y-68897000D01*
X136737142Y-68928242D01*
G37*
G36*
X168237142Y-68928242D02*
G01*
X168385101Y-68989529D01*
X168518255Y-69078499D01*
X168631501Y-69191745D01*
X168720471Y-69324899D01*
X168781758Y-69472858D01*
X168813000Y-69629925D01*
X168813000Y-69790075D01*
X168781758Y-69947142D01*
X168720471Y-70095101D01*
X168631501Y-70228255D01*
X168518255Y-70341501D01*
X168385101Y-70430471D01*
X168237142Y-70491758D01*
X168080075Y-70523000D01*
X167919925Y-70523000D01*
X167762858Y-70491758D01*
X167614899Y-70430471D01*
X167481745Y-70341501D01*
X167368499Y-70228255D01*
X167279529Y-70095101D01*
X167218242Y-69947142D01*
X167187000Y-69790075D01*
X167187000Y-69629925D01*
X167218242Y-69472858D01*
X167279529Y-69324899D01*
X167368499Y-69191745D01*
X167481745Y-69078499D01*
X167614899Y-68989529D01*
X167762858Y-68928242D01*
X167919925Y-68897000D01*
X168080075Y-68897000D01*
X168237142Y-68928242D01*
G37*
G36*
X158237142Y-68928242D02*
G01*
X158385101Y-68989529D01*
X158518255Y-69078499D01*
X158631501Y-69191745D01*
X158720471Y-69324899D01*
X158781758Y-69472858D01*
X158813000Y-69629925D01*
X158813000Y-69790075D01*
X158781758Y-69947142D01*
X158720471Y-70095101D01*
X158631501Y-70228255D01*
X158518255Y-70341501D01*
X158385101Y-70430471D01*
X158237142Y-70491758D01*
X158080075Y-70523000D01*
X157919925Y-70523000D01*
X157762858Y-70491758D01*
X157614899Y-70430471D01*
X157481745Y-70341501D01*
X157368499Y-70228255D01*
X157279529Y-70095101D01*
X157218242Y-69947142D01*
X157187000Y-69790075D01*
X157187000Y-69629925D01*
X157218242Y-69472858D01*
X157279529Y-69324899D01*
X157368499Y-69191745D01*
X157481745Y-69078499D01*
X157614899Y-68989529D01*
X157762858Y-68928242D01*
X157919925Y-68897000D01*
X158080075Y-68897000D01*
X158237142Y-68928242D01*
G37*
G36*
X191857473Y-65661371D02*
G01*
X191972353Y-65696220D01*
X192078228Y-65752811D01*
X192171029Y-65828971D01*
X192247189Y-65921772D01*
X192303780Y-66027647D01*
X192338629Y-66142527D01*
X192351000Y-66268140D01*
X192351000Y-67731860D01*
X192338629Y-67857473D01*
X192303780Y-67972353D01*
X192247189Y-68078228D01*
X192171029Y-68171029D01*
X192078228Y-68247189D01*
X191972353Y-68303780D01*
X191857473Y-68338629D01*
X191731860Y-68351000D01*
X190268140Y-68351000D01*
X190142527Y-68338629D01*
X190027647Y-68303780D01*
X189921772Y-68247189D01*
X189828971Y-68171029D01*
X189752811Y-68078228D01*
X189696220Y-67972353D01*
X189661371Y-67857473D01*
X189649000Y-67731860D01*
X189649000Y-66268140D01*
X189661371Y-66142527D01*
X189696220Y-66027647D01*
X189752811Y-65921772D01*
X189828971Y-65828971D01*
X189921772Y-65752811D01*
X190027647Y-65696220D01*
X190142527Y-65661371D01*
X190268140Y-65649000D01*
X191731860Y-65649000D01*
X191857473Y-65661371D01*
G37*
G36*
X114107473Y-64711371D02*
G01*
X114222353Y-64746220D01*
X114328228Y-64802811D01*
X114421029Y-64878971D01*
X114497189Y-64971772D01*
X114553780Y-65077647D01*
X114588629Y-65192527D01*
X114601000Y-65318140D01*
X114601000Y-66781860D01*
X114588629Y-66907473D01*
X114553780Y-67022353D01*
X114497189Y-67128228D01*
X114421029Y-67221029D01*
X114328228Y-67297189D01*
X114222353Y-67353780D01*
X114107473Y-67388629D01*
X113981860Y-67401000D01*
X112518140Y-67401000D01*
X112392527Y-67388629D01*
X112277647Y-67353780D01*
X112171772Y-67297189D01*
X112078971Y-67221029D01*
X112002811Y-67128228D01*
X111946220Y-67022353D01*
X111911371Y-66907473D01*
X111899000Y-66781860D01*
X111899000Y-65318140D01*
X111911371Y-65192527D01*
X111946220Y-65077647D01*
X112002811Y-64971772D01*
X112078971Y-64878971D01*
X112171772Y-64802811D01*
X112277647Y-64746220D01*
X112392527Y-64711371D01*
X112518140Y-64699000D01*
X113981860Y-64699000D01*
X114107473Y-64711371D01*
G37*
G36*
X168237142Y-64008242D02*
G01*
X168385101Y-64069529D01*
X168518255Y-64158499D01*
X168631501Y-64271745D01*
X168720471Y-64404899D01*
X168781758Y-64552858D01*
X168813000Y-64709925D01*
X168813000Y-64870075D01*
X168781758Y-65027142D01*
X168720471Y-65175101D01*
X168631501Y-65308255D01*
X168518255Y-65421501D01*
X168385101Y-65510471D01*
X168237142Y-65571758D01*
X168080075Y-65603000D01*
X167919925Y-65603000D01*
X167762858Y-65571758D01*
X167614899Y-65510471D01*
X167481745Y-65421501D01*
X167368499Y-65308255D01*
X167279529Y-65175101D01*
X167218242Y-65027142D01*
X167187000Y-64870075D01*
X167187000Y-64709925D01*
X167218242Y-64552858D01*
X167279529Y-64404899D01*
X167368499Y-64271745D01*
X167481745Y-64158499D01*
X167614899Y-64069529D01*
X167762858Y-64008242D01*
X167919925Y-63977000D01*
X168080075Y-63977000D01*
X168237142Y-64008242D01*
G37*
G36*
X146737142Y-64008242D02*
G01*
X146885101Y-64069529D01*
X147018255Y-64158499D01*
X147131501Y-64271745D01*
X147220471Y-64404899D01*
X147281758Y-64552858D01*
X147313000Y-64709925D01*
X147313000Y-64870075D01*
X147281758Y-65027142D01*
X147220471Y-65175101D01*
X147131501Y-65308255D01*
X147018255Y-65421501D01*
X146885101Y-65510471D01*
X146737142Y-65571758D01*
X146580075Y-65603000D01*
X146419925Y-65603000D01*
X146262858Y-65571758D01*
X146114899Y-65510471D01*
X145981745Y-65421501D01*
X145868499Y-65308255D01*
X145779529Y-65175101D01*
X145718242Y-65027142D01*
X145687000Y-64870075D01*
X145687000Y-64709925D01*
X145718242Y-64552858D01*
X145779529Y-64404899D01*
X145868499Y-64271745D01*
X145981745Y-64158499D01*
X146114899Y-64069529D01*
X146262858Y-64008242D01*
X146419925Y-63977000D01*
X146580075Y-63977000D01*
X146737142Y-64008242D01*
G37*
G36*
X136737142Y-64008242D02*
G01*
X136885101Y-64069529D01*
X137018255Y-64158499D01*
X137131501Y-64271745D01*
X137220471Y-64404899D01*
X137281758Y-64552858D01*
X137313000Y-64709925D01*
X137313000Y-64870075D01*
X137281758Y-65027142D01*
X137220471Y-65175101D01*
X137131501Y-65308255D01*
X137018255Y-65421501D01*
X136885101Y-65510471D01*
X136737142Y-65571758D01*
X136580075Y-65603000D01*
X136419925Y-65603000D01*
X136262858Y-65571758D01*
X136114899Y-65510471D01*
X135981745Y-65421501D01*
X135868499Y-65308255D01*
X135779529Y-65175101D01*
X135718242Y-65027142D01*
X135687000Y-64870075D01*
X135687000Y-64709925D01*
X135718242Y-64552858D01*
X135779529Y-64404899D01*
X135868499Y-64271745D01*
X135981745Y-64158499D01*
X136114899Y-64069529D01*
X136262858Y-64008242D01*
X136419925Y-63977000D01*
X136580075Y-63977000D01*
X136737142Y-64008242D01*
G37*
G36*
X146737142Y-61468242D02*
G01*
X146885101Y-61529529D01*
X147018255Y-61618499D01*
X147131501Y-61731745D01*
X147220471Y-61864899D01*
X147281758Y-62012858D01*
X147313000Y-62169925D01*
X147313000Y-62330075D01*
X147281758Y-62487142D01*
X147220471Y-62635101D01*
X147131501Y-62768255D01*
X147018255Y-62881501D01*
X146885101Y-62970471D01*
X146737142Y-63031758D01*
X146580075Y-63063000D01*
X146419925Y-63063000D01*
X146262858Y-63031758D01*
X146114899Y-62970471D01*
X145981745Y-62881501D01*
X145868499Y-62768255D01*
X145779529Y-62635101D01*
X145718242Y-62487142D01*
X145687000Y-62330075D01*
X145687000Y-62169925D01*
X145718242Y-62012858D01*
X145779529Y-61864899D01*
X145868499Y-61731745D01*
X145981745Y-61618499D01*
X146114899Y-61529529D01*
X146262858Y-61468242D01*
X146419925Y-61437000D01*
X146580075Y-61437000D01*
X146737142Y-61468242D01*
G37*
G36*
X168237142Y-61468242D02*
G01*
X168385101Y-61529529D01*
X168518255Y-61618499D01*
X168631501Y-61731745D01*
X168720471Y-61864899D01*
X168781758Y-62012858D01*
X168813000Y-62169925D01*
X168813000Y-62330075D01*
X168781758Y-62487142D01*
X168720471Y-62635101D01*
X168631501Y-62768255D01*
X168518255Y-62881501D01*
X168385101Y-62970471D01*
X168237142Y-63031758D01*
X168080075Y-63063000D01*
X167919925Y-63063000D01*
X167762858Y-63031758D01*
X167614899Y-62970471D01*
X167481745Y-62881501D01*
X167368499Y-62768255D01*
X167279529Y-62635101D01*
X167218242Y-62487142D01*
X167187000Y-62330075D01*
X167187000Y-62169925D01*
X167218242Y-62012858D01*
X167279529Y-61864899D01*
X167368499Y-61731745D01*
X167481745Y-61618499D01*
X167614899Y-61529529D01*
X167762858Y-61468242D01*
X167919925Y-61437000D01*
X168080075Y-61437000D01*
X168237142Y-61468242D01*
G37*
G36*
X136737142Y-61468242D02*
G01*
X136885101Y-61529529D01*
X137018255Y-61618499D01*
X137131501Y-61731745D01*
X137220471Y-61864899D01*
X137281758Y-62012858D01*
X137313000Y-62169925D01*
X137313000Y-62330075D01*
X137281758Y-62487142D01*
X137220471Y-62635101D01*
X137131501Y-62768255D01*
X137018255Y-62881501D01*
X136885101Y-62970471D01*
X136737142Y-63031758D01*
X136580075Y-63063000D01*
X136419925Y-63063000D01*
X136262858Y-63031758D01*
X136114899Y-62970471D01*
X135981745Y-62881501D01*
X135868499Y-62768255D01*
X135779529Y-62635101D01*
X135718242Y-62487142D01*
X135687000Y-62330075D01*
X135687000Y-62169925D01*
X135718242Y-62012858D01*
X135779529Y-61864899D01*
X135868499Y-61731745D01*
X135981745Y-61618499D01*
X136114899Y-61529529D01*
X136262858Y-61468242D01*
X136419925Y-61437000D01*
X136580075Y-61437000D01*
X136737142Y-61468242D01*
G37*
G36*
X158237142Y-61468242D02*
G01*
X158385101Y-61529529D01*
X158518255Y-61618499D01*
X158631501Y-61731745D01*
X158720471Y-61864899D01*
X158781758Y-62012858D01*
X158813000Y-62169925D01*
X158813000Y-62330075D01*
X158781758Y-62487142D01*
X158720471Y-62635101D01*
X158631501Y-62768255D01*
X158518255Y-62881501D01*
X158385101Y-62970471D01*
X158237142Y-63031758D01*
X158080075Y-63063000D01*
X157919925Y-63063000D01*
X157762858Y-63031758D01*
X157614899Y-62970471D01*
X157481745Y-62881501D01*
X157368499Y-62768255D01*
X157279529Y-62635101D01*
X157218242Y-62487142D01*
X157187000Y-62330075D01*
X157187000Y-62169925D01*
X157218242Y-62012858D01*
X157279529Y-61864899D01*
X157368499Y-61731745D01*
X157481745Y-61618499D01*
X157614899Y-61529529D01*
X157762858Y-61468242D01*
X157919925Y-61437000D01*
X158080075Y-61437000D01*
X158237142Y-61468242D01*
G37*
G36*
X113644072Y-60080918D02*
G01*
X113889939Y-60182759D01*
X113958028Y-60228255D01*
X114111211Y-60330609D01*
X114299391Y-60518789D01*
X114447242Y-60740063D01*
X114549082Y-60985928D01*
X114601000Y-61246937D01*
X114601000Y-61513063D01*
X114549082Y-61774072D01*
X114450175Y-62012857D01*
X114447241Y-62019939D01*
X114299390Y-62241212D01*
X114111212Y-62429390D01*
X113889939Y-62577241D01*
X113889938Y-62577242D01*
X113889937Y-62577242D01*
X113644072Y-62679082D01*
X113383063Y-62731000D01*
X113116937Y-62731000D01*
X112855928Y-62679082D01*
X112610063Y-62577242D01*
X112610062Y-62577242D01*
X112610061Y-62577241D01*
X112388788Y-62429390D01*
X112200610Y-62241212D01*
X112052759Y-62019939D01*
X112049826Y-62012857D01*
X111950918Y-61774072D01*
X111899000Y-61513063D01*
X111899000Y-61246937D01*
X111950918Y-60985928D01*
X112052758Y-60740063D01*
X112200609Y-60518789D01*
X112388789Y-60330609D01*
X112541972Y-60228255D01*
X112610061Y-60182759D01*
X112855928Y-60080918D01*
X113116937Y-60029000D01*
X113383063Y-60029000D01*
X113644072Y-60080918D01*
G37*
G36*
X136737142Y-58928242D02*
G01*
X136885101Y-58989529D01*
X137018255Y-59078499D01*
X137131501Y-59191745D01*
X137220471Y-59324899D01*
X137281758Y-59472858D01*
X137313000Y-59629925D01*
X137313000Y-59790075D01*
X137281758Y-59947142D01*
X137220471Y-60095101D01*
X137131501Y-60228255D01*
X137018255Y-60341501D01*
X136885101Y-60430471D01*
X136737142Y-60491758D01*
X136580075Y-60523000D01*
X136419925Y-60523000D01*
X136262858Y-60491758D01*
X136114899Y-60430471D01*
X135981745Y-60341501D01*
X135868499Y-60228255D01*
X135779529Y-60095101D01*
X135718242Y-59947142D01*
X135687000Y-59790075D01*
X135687000Y-59629925D01*
X135718242Y-59472858D01*
X135779529Y-59324899D01*
X135868499Y-59191745D01*
X135981745Y-59078499D01*
X136114899Y-58989529D01*
X136262858Y-58928242D01*
X136419925Y-58897000D01*
X136580075Y-58897000D01*
X136737142Y-58928242D01*
G37*
G36*
X158237142Y-58928242D02*
G01*
X158385101Y-58989529D01*
X158518255Y-59078499D01*
X158631501Y-59191745D01*
X158720471Y-59324899D01*
X158781758Y-59472858D01*
X158813000Y-59629925D01*
X158813000Y-59790075D01*
X158781758Y-59947142D01*
X158720471Y-60095101D01*
X158631501Y-60228255D01*
X158518255Y-60341501D01*
X158385101Y-60430471D01*
X158237142Y-60491758D01*
X158080075Y-60523000D01*
X157919925Y-60523000D01*
X157762858Y-60491758D01*
X157614899Y-60430471D01*
X157481745Y-60341501D01*
X157368499Y-60228255D01*
X157279529Y-60095101D01*
X157218242Y-59947142D01*
X157187000Y-59790075D01*
X157187000Y-59629925D01*
X157218242Y-59472858D01*
X157279529Y-59324899D01*
X157368499Y-59191745D01*
X157481745Y-59078499D01*
X157614899Y-58989529D01*
X157762858Y-58928242D01*
X157919925Y-58897000D01*
X158080075Y-58897000D01*
X158237142Y-58928242D01*
G37*
G36*
X168237142Y-58928242D02*
G01*
X168385101Y-58989529D01*
X168518255Y-59078499D01*
X168631501Y-59191745D01*
X168720471Y-59324899D01*
X168781758Y-59472858D01*
X168813000Y-59629925D01*
X168813000Y-59790075D01*
X168781758Y-59947142D01*
X168720471Y-60095101D01*
X168631501Y-60228255D01*
X168518255Y-60341501D01*
X168385101Y-60430471D01*
X168237142Y-60491758D01*
X168080075Y-60523000D01*
X167919925Y-60523000D01*
X167762858Y-60491758D01*
X167614899Y-60430471D01*
X167481745Y-60341501D01*
X167368499Y-60228255D01*
X167279529Y-60095101D01*
X167218242Y-59947142D01*
X167187000Y-59790075D01*
X167187000Y-59629925D01*
X167218242Y-59472858D01*
X167279529Y-59324899D01*
X167368499Y-59191745D01*
X167481745Y-59078499D01*
X167614899Y-58989529D01*
X167762858Y-58928242D01*
X167919925Y-58897000D01*
X168080075Y-58897000D01*
X168237142Y-58928242D01*
G37*
G36*
X106548156Y-51672794D02*
G01*
X107269140Y-51816206D01*
X108060972Y-52144193D01*
X108773601Y-52620357D01*
X109379643Y-53226399D01*
X109855807Y-53939028D01*
X110183794Y-54730860D01*
X110351000Y-55571464D01*
X110351000Y-56428536D01*
X110183794Y-57269140D01*
X109855807Y-58060972D01*
X109379643Y-58773601D01*
X108773601Y-59379643D01*
X108060972Y-59855807D01*
X107269140Y-60183794D01*
X106548156Y-60327206D01*
X106428537Y-60351000D01*
X105571463Y-60351000D01*
X105451844Y-60327206D01*
X104730860Y-60183794D01*
X103939028Y-59855807D01*
X103226399Y-59379643D01*
X102620357Y-58773601D01*
X102144193Y-58060972D01*
X101816206Y-57269140D01*
X101649000Y-56428536D01*
X101649000Y-55571464D01*
X101816206Y-54730860D01*
X102144193Y-53939028D01*
X102620357Y-53226399D01*
X103226399Y-52620357D01*
X103939028Y-52144193D01*
X104730860Y-51816206D01*
X105451844Y-51672794D01*
X105571463Y-51649000D01*
X106428537Y-51649000D01*
X106548156Y-51672794D01*
G37*
G36*
X194548156Y-51672794D02*
G01*
X195269140Y-51816206D01*
X196060972Y-52144193D01*
X196773601Y-52620357D01*
X197379643Y-53226399D01*
X197855807Y-53939028D01*
X198183794Y-54730860D01*
X198351000Y-55571464D01*
X198351000Y-56428536D01*
X198183794Y-57269140D01*
X197855807Y-58060972D01*
X197379643Y-58773601D01*
X196773601Y-59379643D01*
X196060972Y-59855807D01*
X195269140Y-60183794D01*
X194548156Y-60327206D01*
X194428537Y-60351000D01*
X193571463Y-60351000D01*
X193451844Y-60327206D01*
X192730860Y-60183794D01*
X191939028Y-59855807D01*
X191226399Y-59379643D01*
X190620357Y-58773601D01*
X190144193Y-58060972D01*
X189816206Y-57269140D01*
X189649000Y-56428536D01*
X189649000Y-55571464D01*
X189816206Y-54730860D01*
X190144193Y-53939028D01*
X190620357Y-53226399D01*
X191226399Y-52620357D01*
X191939028Y-52144193D01*
X192730860Y-51816206D01*
X193451844Y-51672794D01*
X193571463Y-51649000D01*
X194428537Y-51649000D01*
X194548156Y-51672794D01*
G37*
G36*
X114107473Y-54961371D02*
G01*
X114222353Y-54996220D01*
X114328228Y-55052811D01*
X114421029Y-55128971D01*
X114497189Y-55221772D01*
X114553780Y-55327647D01*
X114588629Y-55442527D01*
X114601000Y-55568140D01*
X114601000Y-57031860D01*
X114588629Y-57157473D01*
X114553780Y-57272353D01*
X114497189Y-57378228D01*
X114421029Y-57471029D01*
X114328228Y-57547189D01*
X114222353Y-57603780D01*
X114107473Y-57638629D01*
X113981860Y-57651000D01*
X112518140Y-57651000D01*
X112392527Y-57638629D01*
X112277647Y-57603780D01*
X112171772Y-57547189D01*
X112078971Y-57471029D01*
X112002811Y-57378228D01*
X111946220Y-57272353D01*
X111911371Y-57157473D01*
X111899000Y-57031860D01*
X111899000Y-55568140D01*
X111911371Y-55442527D01*
X111946220Y-55327647D01*
X112002811Y-55221772D01*
X112078971Y-55128971D01*
X112171772Y-55052811D01*
X112277647Y-54996220D01*
X112392527Y-54961371D01*
X112518140Y-54949000D01*
X113981860Y-54949000D01*
X114107473Y-54961371D01*
G37*
G36*
X185051000Y-45091000D02*
G01*
X183449000Y-45091000D01*
X183449000Y-39909000D01*
X185051000Y-39909000D01*
X185051000Y-45091000D01*
G37*
G36*
X176551000Y-45091000D02*
G01*
X174949000Y-45091000D01*
X174949000Y-39909000D01*
X176551000Y-39909000D01*
X176551000Y-45091000D01*
G37*
G36*
X148801000Y-45091000D02*
G01*
X147199000Y-45091000D01*
X147199000Y-39909000D01*
X148801000Y-39909000D01*
X148801000Y-45091000D01*
G37*
G36*
X157301000Y-45091000D02*
G01*
X155699000Y-45091000D01*
X155699000Y-39909000D01*
X157301000Y-39909000D01*
X157301000Y-45091000D01*
G37*
M02*
