G04 #@! TF.GenerationSoftware,KiCad,Pcbnew,5.1.6-c6e7f7d~87~ubuntu18.04.1*
G04 #@! TF.CreationDate,2021-01-06T16:55:31+00:00*
G04 #@! TF.ProjectId,multi-smtpa_linear,6d756c74-692d-4736-9d74-70615f6c696e,rev?*
G04 #@! TF.SameCoordinates,Original*
G04 #@! TF.FileFunction,Legend,Top*
G04 #@! TF.FilePolarity,Positive*
%FSLAX46Y46*%
G04 Gerber Fmt 4.6, Leading zero omitted, Abs format (unit mm)*
G04 Created by KiCad (PCBNEW 5.1.6-c6e7f7d~87~ubuntu18.04.1) date 2021-01-06 16:55:31*
%MOMM*%
%LPD*%
G01*
G04 APERTURE LIST*
%ADD10C,0.150000*%
%ADD11C,0.300000*%
%ADD12C,0.400000*%
%ADD13C,0.100000*%
%ADD14C,0.120000*%
%ADD15C,0.200000*%
%ADD16C,0.375000*%
%ADD17C,0.125000*%
G04 APERTURE END LIST*
D10*
X152500000Y-42500000D02*
X152500000Y-45500000D01*
D11*
X178107142Y-60750000D02*
X177964285Y-60678571D01*
X177750000Y-60678571D01*
X177535714Y-60750000D01*
X177392857Y-60892857D01*
X177321428Y-61035714D01*
X177250000Y-61321428D01*
X177250000Y-61535714D01*
X177321428Y-61821428D01*
X177392857Y-61964285D01*
X177535714Y-62107142D01*
X177750000Y-62178571D01*
X177892857Y-62178571D01*
X178107142Y-62107142D01*
X178178571Y-62035714D01*
X178178571Y-61535714D01*
X177892857Y-61535714D01*
X178821428Y-62178571D02*
X178821428Y-60678571D01*
X179678571Y-62178571D01*
X179678571Y-60678571D01*
X180392857Y-62178571D02*
X180392857Y-60678571D01*
X180750000Y-60678571D01*
X180964285Y-60750000D01*
X181107142Y-60892857D01*
X181178571Y-61035714D01*
X181250000Y-61321428D01*
X181250000Y-61535714D01*
X181178571Y-61821428D01*
X181107142Y-61964285D01*
X180964285Y-62107142D01*
X180750000Y-62178571D01*
X180392857Y-62178571D01*
D10*
X157095238Y-100166666D02*
X157571428Y-100166666D01*
X157000000Y-100452380D02*
X157333333Y-99452380D01*
X157666666Y-100452380D01*
X158000000Y-100452380D02*
X158000000Y-99452380D01*
X159047619Y-100452380D02*
X158714285Y-99976190D01*
X158476190Y-100452380D02*
X158476190Y-99452380D01*
X158857142Y-99452380D01*
X158952380Y-99500000D01*
X159000000Y-99547619D01*
X159047619Y-99642857D01*
X159047619Y-99785714D01*
X159000000Y-99880952D01*
X158952380Y-99928571D01*
X158857142Y-99976190D01*
X158476190Y-99976190D01*
X159809523Y-99928571D02*
X159476190Y-99928571D01*
X159476190Y-100452380D02*
X159476190Y-99452380D01*
X159952380Y-99452380D01*
X160809523Y-100452380D02*
X160333333Y-100452380D01*
X160333333Y-99452380D01*
X161333333Y-99452380D02*
X161523809Y-99452380D01*
X161619047Y-99500000D01*
X161714285Y-99595238D01*
X161761904Y-99785714D01*
X161761904Y-100119047D01*
X161714285Y-100309523D01*
X161619047Y-100404761D01*
X161523809Y-100452380D01*
X161333333Y-100452380D01*
X161238095Y-100404761D01*
X161142857Y-100309523D01*
X161095238Y-100119047D01*
X161095238Y-99785714D01*
X161142857Y-99595238D01*
X161238095Y-99500000D01*
X161333333Y-99452380D01*
X162095238Y-99452380D02*
X162333333Y-100452380D01*
X162523809Y-99738095D01*
X162714285Y-100452380D01*
X162952380Y-99452380D01*
D11*
X164000000Y-102000000D02*
X161000000Y-103000000D01*
X164000000Y-102000000D02*
X161000000Y-101000000D01*
D12*
X156000000Y-102000000D02*
X163500000Y-102000000D01*
D11*
X151285714Y-44428571D02*
X151285714Y-43095238D01*
X151642857Y-45190476D02*
X152000000Y-43761904D01*
X151071428Y-43761904D01*
X150000000Y-44142857D02*
X150500000Y-44142857D01*
X150500000Y-43095238D02*
X150500000Y-45095238D01*
X149785714Y-45095238D01*
X149285714Y-43666666D02*
X148571428Y-43666666D01*
X149428571Y-43095238D02*
X148928571Y-45095238D01*
X148428571Y-43095238D01*
X148000000Y-43190476D02*
X147785714Y-43095238D01*
X147428571Y-43095238D01*
X147285714Y-43190476D01*
X147214285Y-43285714D01*
X147142857Y-43476190D01*
X147142857Y-43666666D01*
X147214285Y-43857142D01*
X147285714Y-43952380D01*
X147428571Y-44047619D01*
X147714285Y-44142857D01*
X147857142Y-44238095D01*
X147928571Y-44333333D01*
X148000000Y-44523809D01*
X148000000Y-44714285D01*
X147928571Y-44904761D01*
X147857142Y-45000000D01*
X147714285Y-45095238D01*
X147357142Y-45095238D01*
X147142857Y-45000000D01*
X146714285Y-45095238D02*
X145857142Y-45095238D01*
X146285714Y-43095238D02*
X146285714Y-45095238D01*
D10*
X157800000Y-46176190D02*
X157714285Y-46138095D01*
X157571428Y-46138095D01*
X157514285Y-46176190D01*
X157485714Y-46214285D01*
X157457142Y-46290476D01*
X157457142Y-46366666D01*
X157485714Y-46442857D01*
X157514285Y-46480952D01*
X157571428Y-46519047D01*
X157685714Y-46557142D01*
X157742857Y-46595238D01*
X157771428Y-46633333D01*
X157800000Y-46709523D01*
X157800000Y-46785714D01*
X157771428Y-46861904D01*
X157742857Y-46900000D01*
X157685714Y-46938095D01*
X157542857Y-46938095D01*
X157457142Y-46900000D01*
X157200000Y-46557142D02*
X157000000Y-46557142D01*
X156914285Y-46138095D02*
X157200000Y-46138095D01*
X157200000Y-46938095D01*
X156914285Y-46938095D01*
X156657142Y-46557142D02*
X156457142Y-46557142D01*
X156371428Y-46138095D02*
X156657142Y-46138095D01*
X156657142Y-46938095D01*
X156371428Y-46938095D01*
X155685714Y-46366666D02*
X155400000Y-46366666D01*
X155742857Y-46138095D02*
X155542857Y-46938095D01*
X155342857Y-46138095D01*
X155142857Y-46138095D02*
X155142857Y-46938095D01*
X154800000Y-46138095D01*
X154800000Y-46938095D01*
X154514285Y-46138095D02*
X154514285Y-46938095D01*
X154371428Y-46938095D01*
X154285714Y-46900000D01*
X154228571Y-46823809D01*
X154200000Y-46747619D01*
X154171428Y-46595238D01*
X154171428Y-46480952D01*
X154200000Y-46328571D01*
X154228571Y-46252380D01*
X154285714Y-46176190D01*
X154371428Y-46138095D01*
X154514285Y-46138095D01*
X153885714Y-46138095D02*
X153771428Y-46138095D01*
X153714285Y-46176190D01*
X153685714Y-46214285D01*
X153628571Y-46328571D01*
X153600000Y-46480952D01*
X153600000Y-46785714D01*
X153628571Y-46861904D01*
X153657142Y-46900000D01*
X153714285Y-46938095D01*
X153828571Y-46938095D01*
X153885714Y-46900000D01*
X153914285Y-46861904D01*
X153942857Y-46785714D01*
X153942857Y-46595238D01*
X153914285Y-46519047D01*
X153885714Y-46480952D01*
X153828571Y-46442857D01*
X153714285Y-46442857D01*
X153657142Y-46480952D01*
X153628571Y-46519047D01*
X153600000Y-46595238D01*
X153400000Y-46938095D02*
X153000000Y-46938095D01*
X153257142Y-46138095D01*
X152828571Y-46938095D02*
X152428571Y-46938095D01*
X152685714Y-46138095D01*
X152228571Y-46861904D02*
X152200000Y-46900000D01*
X152142857Y-46938095D01*
X152000000Y-46938095D01*
X151942857Y-46900000D01*
X151914285Y-46861904D01*
X151885714Y-46785714D01*
X151885714Y-46709523D01*
X151914285Y-46595238D01*
X152257142Y-46138095D01*
X151885714Y-46138095D01*
X151200000Y-46976190D02*
X151714285Y-45947619D01*
X151000000Y-46138095D02*
X151000000Y-46938095D01*
X150857142Y-46938095D01*
X150771428Y-46900000D01*
X150714285Y-46823809D01*
X150685714Y-46747619D01*
X150657142Y-46595238D01*
X150657142Y-46480952D01*
X150685714Y-46328571D01*
X150714285Y-46252380D01*
X150771428Y-46176190D01*
X150857142Y-46138095D01*
X151000000Y-46138095D01*
X149742857Y-46557142D02*
X149942857Y-46557142D01*
X149942857Y-46138095D02*
X149942857Y-46938095D01*
X149657142Y-46938095D01*
X149314285Y-46938095D02*
X149200000Y-46938095D01*
X149142857Y-46900000D01*
X149085714Y-46823809D01*
X149057142Y-46671428D01*
X149057142Y-46404761D01*
X149085714Y-46252380D01*
X149142857Y-46176190D01*
X149200000Y-46138095D01*
X149314285Y-46138095D01*
X149371428Y-46176190D01*
X149428571Y-46252380D01*
X149457142Y-46404761D01*
X149457142Y-46671428D01*
X149428571Y-46823809D01*
X149371428Y-46900000D01*
X149314285Y-46938095D01*
X148457142Y-46138095D02*
X148657142Y-46519047D01*
X148800000Y-46138095D02*
X148800000Y-46938095D01*
X148571428Y-46938095D01*
X148514285Y-46900000D01*
X148485714Y-46861904D01*
X148457142Y-46785714D01*
X148457142Y-46671428D01*
X148485714Y-46595238D01*
X148514285Y-46557142D01*
X148571428Y-46519047D01*
X148800000Y-46519047D01*
X147771428Y-46176190D02*
X147685714Y-46138095D01*
X147542857Y-46138095D01*
X147485714Y-46176190D01*
X147457142Y-46214285D01*
X147428571Y-46290476D01*
X147428571Y-46366666D01*
X147457142Y-46442857D01*
X147485714Y-46480952D01*
X147542857Y-46519047D01*
X147657142Y-46557142D01*
X147714285Y-46595238D01*
X147742857Y-46633333D01*
X147771428Y-46709523D01*
X147771428Y-46785714D01*
X147742857Y-46861904D01*
X147714285Y-46900000D01*
X147657142Y-46938095D01*
X147514285Y-46938095D01*
X147428571Y-46900000D01*
X147171428Y-46557142D02*
X146971428Y-46557142D01*
X146885714Y-46138095D02*
X147171428Y-46138095D01*
X147171428Y-46938095D01*
X146885714Y-46938095D01*
X146714285Y-46938095D02*
X146371428Y-46938095D01*
X146542857Y-46138095D02*
X146542857Y-46938095D01*
X146171428Y-46938095D02*
X146171428Y-46290476D01*
X146142857Y-46214285D01*
X146114285Y-46176190D01*
X146057142Y-46138095D01*
X145942857Y-46138095D01*
X145885714Y-46176190D01*
X145857142Y-46214285D01*
X145828571Y-46290476D01*
X145828571Y-46938095D01*
X145542857Y-46138095D02*
X145542857Y-46938095D01*
X145314285Y-46938095D01*
X145257142Y-46900000D01*
X145228571Y-46861904D01*
X145200000Y-46785714D01*
X145200000Y-46671428D01*
X145228571Y-46595238D01*
X145257142Y-46557142D01*
X145314285Y-46519047D01*
X145542857Y-46519047D01*
D13*
G36*
X195200000Y-68500000D02*
G01*
X193400000Y-69700000D01*
X193400000Y-67500000D01*
X195200000Y-66300000D01*
X195200000Y-68500000D01*
G37*
X195200000Y-68500000D02*
X193400000Y-69700000D01*
X193400000Y-67500000D01*
X195200000Y-66300000D01*
X195200000Y-68500000D01*
G36*
X195200000Y-70900000D02*
G01*
X195200000Y-73100000D01*
X193400000Y-71900000D01*
X193400000Y-69700000D01*
X195200000Y-70900000D01*
G37*
X195200000Y-70900000D02*
X195200000Y-73100000D01*
X193400000Y-71900000D01*
X193400000Y-69700000D01*
X195200000Y-70900000D01*
G36*
X197000000Y-65100000D02*
G01*
X195200000Y-66300000D01*
X195200000Y-64100000D01*
X197000000Y-62900000D01*
X197000000Y-65100000D01*
G37*
X197000000Y-65100000D02*
X195200000Y-66300000D01*
X195200000Y-64100000D01*
X197000000Y-62900000D01*
X197000000Y-65100000D01*
G36*
X198800000Y-68500000D02*
G01*
X197000000Y-69700000D01*
X197000000Y-67500000D01*
X198800000Y-66300000D01*
X198800000Y-68500000D01*
G37*
X198800000Y-68500000D02*
X197000000Y-69700000D01*
X197000000Y-67500000D01*
X198800000Y-66300000D01*
X198800000Y-68500000D01*
G36*
X191600000Y-66300000D02*
G01*
X189800000Y-67500000D01*
X188000000Y-66300000D01*
X189800000Y-65100000D01*
X191600000Y-66300000D01*
G37*
X191600000Y-66300000D02*
X189800000Y-67500000D01*
X188000000Y-66300000D01*
X189800000Y-65100000D01*
X191600000Y-66300000D01*
G36*
X191600000Y-70900000D02*
G01*
X191600000Y-73100000D01*
X189800000Y-71900000D01*
X189800000Y-69700000D01*
X191600000Y-70900000D01*
G37*
X191600000Y-70900000D02*
X191600000Y-73100000D01*
X189800000Y-71900000D01*
X189800000Y-69700000D01*
X191600000Y-70900000D01*
G36*
X193400000Y-65100000D02*
G01*
X191600000Y-66300000D01*
X191600000Y-64100000D01*
X193400000Y-62900000D01*
X193400000Y-65100000D01*
G37*
X193400000Y-65100000D02*
X191600000Y-66300000D01*
X191600000Y-64100000D01*
X193400000Y-62900000D01*
X193400000Y-65100000D01*
D14*
X189800000Y-65100000D02*
X188000000Y-66300000D01*
X189800000Y-69700000D02*
X191600000Y-68500000D01*
X188000000Y-66300000D02*
X189800000Y-67500000D01*
X189800000Y-69700000D02*
X189800000Y-67500000D01*
X188000000Y-68500000D02*
X189800000Y-69700000D01*
X188000000Y-66300000D02*
X188000000Y-68500000D01*
X191600000Y-66300000D02*
X189800000Y-65100000D01*
X189800000Y-67500000D02*
X191600000Y-66300000D01*
X191600000Y-68500000D02*
X191600000Y-66300000D01*
X191600000Y-68500000D02*
X189800000Y-69700000D01*
X191600000Y-73100000D02*
X193400000Y-71900000D01*
X189800000Y-69700000D02*
X191600000Y-70900000D01*
X191600000Y-73100000D02*
X191600000Y-70900000D01*
X189800000Y-71900000D02*
X191600000Y-73100000D01*
X189800000Y-69700000D02*
X189800000Y-71900000D01*
X193400000Y-69700000D02*
X191600000Y-68500000D01*
X191600000Y-70900000D02*
X193400000Y-69700000D01*
X193400000Y-71900000D02*
X193400000Y-69700000D01*
X195200000Y-68500000D02*
X193400000Y-69700000D01*
X195200000Y-73100000D02*
X197000000Y-71900000D01*
X193400000Y-69700000D02*
X195200000Y-70900000D01*
X195200000Y-73100000D02*
X195200000Y-70900000D01*
X193400000Y-71900000D02*
X195200000Y-73100000D01*
X193400000Y-69700000D02*
X193400000Y-71900000D01*
X197000000Y-69700000D02*
X195200000Y-68500000D01*
X195200000Y-70900000D02*
X197000000Y-69700000D01*
X197000000Y-71900000D02*
X197000000Y-69700000D01*
X197000000Y-65100000D02*
X195200000Y-66300000D01*
X197000000Y-69700000D02*
X198800000Y-68500000D01*
X195200000Y-66300000D02*
X197000000Y-67500000D01*
X197000000Y-69700000D02*
X197000000Y-67500000D01*
X195200000Y-68500000D02*
X197000000Y-69700000D01*
X195200000Y-66300000D02*
X195200000Y-68500000D01*
X198800000Y-66300000D02*
X197000000Y-65100000D01*
X197000000Y-67500000D02*
X198800000Y-66300000D01*
X198800000Y-68500000D02*
X198800000Y-66300000D01*
X193400000Y-65100000D02*
X191600000Y-66300000D01*
X193400000Y-69700000D02*
X195200000Y-68500000D01*
X191600000Y-66300000D02*
X193400000Y-67500000D01*
X193400000Y-69700000D02*
X193400000Y-67500000D01*
X191600000Y-68500000D02*
X193400000Y-69700000D01*
X191600000Y-66300000D02*
X191600000Y-68500000D01*
X195200000Y-66300000D02*
X193400000Y-65100000D01*
X193400000Y-67500000D02*
X195200000Y-66300000D01*
X195200000Y-68500000D02*
X195200000Y-66300000D01*
X195200000Y-61700000D02*
X193400000Y-62900000D01*
X195200000Y-66300000D02*
X197000000Y-65100000D01*
X193400000Y-62900000D02*
X195200000Y-64100000D01*
X195200000Y-66300000D02*
X195200000Y-64100000D01*
X193400000Y-65100000D02*
X195200000Y-66300000D01*
X193400000Y-62900000D02*
X193400000Y-65100000D01*
X197000000Y-62900000D02*
X195200000Y-61700000D01*
X195200000Y-64100000D02*
X197000000Y-62900000D01*
X197000000Y-65100000D02*
X197000000Y-62900000D01*
X191600000Y-64100000D02*
X193400000Y-62900000D01*
X189800000Y-62900000D02*
X191600000Y-64100000D01*
X191600000Y-66300000D02*
X191600000Y-64100000D01*
X189800000Y-65100000D02*
X191600000Y-66300000D01*
X189800000Y-62900000D02*
X189800000Y-65100000D01*
X191600000Y-61700000D02*
X189800000Y-62900000D01*
X193400000Y-62900000D02*
X191600000Y-61700000D01*
X193400000Y-65100000D02*
X193400000Y-62900000D01*
X191600000Y-66300000D02*
X193400000Y-65100000D01*
D15*
X102042857Y-91760476D02*
X102042857Y-92217619D01*
X102042857Y-91989047D02*
X100842857Y-91989047D01*
X101014285Y-92065238D01*
X101128571Y-92141428D01*
X101185714Y-92217619D01*
X100842857Y-91265238D02*
X100842857Y-91189047D01*
X100900000Y-91112857D01*
X100957142Y-91074761D01*
X101071428Y-91036666D01*
X101300000Y-90998571D01*
X101585714Y-90998571D01*
X101814285Y-91036666D01*
X101928571Y-91074761D01*
X101985714Y-91112857D01*
X102042857Y-91189047D01*
X102042857Y-91265238D01*
X101985714Y-91341428D01*
X101928571Y-91379523D01*
X101814285Y-91417619D01*
X101585714Y-91455714D01*
X101300000Y-91455714D01*
X101071428Y-91417619D01*
X100957142Y-91379523D01*
X100900000Y-91341428D01*
X100842857Y-91265238D01*
X100842857Y-90503333D02*
X100842857Y-90427142D01*
X100900000Y-90350952D01*
X100957142Y-90312857D01*
X101071428Y-90274761D01*
X101300000Y-90236666D01*
X101585714Y-90236666D01*
X101814285Y-90274761D01*
X101928571Y-90312857D01*
X101985714Y-90350952D01*
X102042857Y-90427142D01*
X102042857Y-90503333D01*
X101985714Y-90579523D01*
X101928571Y-90617619D01*
X101814285Y-90655714D01*
X101585714Y-90693809D01*
X101300000Y-90693809D01*
X101071428Y-90655714D01*
X100957142Y-90617619D01*
X100900000Y-90579523D01*
X100842857Y-90503333D01*
X102042857Y-89893809D02*
X101242857Y-89893809D01*
X101357142Y-89893809D02*
X101300000Y-89855714D01*
X101242857Y-89779523D01*
X101242857Y-89665238D01*
X101300000Y-89589047D01*
X101414285Y-89550952D01*
X102042857Y-89550952D01*
X101414285Y-89550952D02*
X101300000Y-89512857D01*
X101242857Y-89436666D01*
X101242857Y-89322380D01*
X101300000Y-89246190D01*
X101414285Y-89208095D01*
X102042857Y-89208095D01*
X101700000Y-88865238D02*
X101700000Y-88484285D01*
X102042857Y-88941428D02*
X100842857Y-88674761D01*
X102042857Y-88408095D01*
X101985714Y-88103333D02*
X102042857Y-88103333D01*
X102157142Y-88141428D01*
X102214285Y-88179523D01*
X100842857Y-87227142D02*
X100842857Y-86731904D01*
X101300000Y-86998571D01*
X101300000Y-86884285D01*
X101357142Y-86808095D01*
X101414285Y-86770000D01*
X101528571Y-86731904D01*
X101814285Y-86731904D01*
X101928571Y-86770000D01*
X101985714Y-86808095D01*
X102042857Y-86884285D01*
X102042857Y-87112857D01*
X101985714Y-87189047D01*
X101928571Y-87227142D01*
X100842857Y-86465238D02*
X100842857Y-85931904D01*
X102042857Y-86274761D01*
X100842857Y-85741428D02*
X102042857Y-85474761D01*
X100842857Y-85208095D01*
X102042857Y-84331904D02*
X100842857Y-84331904D01*
X101700000Y-84065238D01*
X100842857Y-83798571D01*
X102042857Y-83798571D01*
X101700000Y-83455714D02*
X101700000Y-83074761D01*
X102042857Y-83531904D02*
X100842857Y-83265238D01*
X102042857Y-82998571D01*
X100842857Y-82808095D02*
X102042857Y-82274761D01*
X100842857Y-82274761D02*
X102042857Y-82808095D01*
X101242857Y-81360476D02*
X102442857Y-81360476D01*
X101300000Y-81360476D02*
X101242857Y-81284285D01*
X101242857Y-81131904D01*
X101300000Y-81055714D01*
X101357142Y-81017619D01*
X101471428Y-80979523D01*
X101814285Y-80979523D01*
X101928571Y-81017619D01*
X101985714Y-81055714D01*
X102042857Y-81131904D01*
X102042857Y-81284285D01*
X101985714Y-81360476D01*
X101985714Y-80331904D02*
X102042857Y-80408095D01*
X102042857Y-80560476D01*
X101985714Y-80636666D01*
X101871428Y-80674761D01*
X101414285Y-80674761D01*
X101300000Y-80636666D01*
X101242857Y-80560476D01*
X101242857Y-80408095D01*
X101300000Y-80331904D01*
X101414285Y-80293809D01*
X101528571Y-80293809D01*
X101642857Y-80674761D01*
X102042857Y-79950952D02*
X101242857Y-79950952D01*
X101471428Y-79950952D02*
X101357142Y-79912857D01*
X101300000Y-79874761D01*
X101242857Y-79798571D01*
X101242857Y-79722380D01*
X101985714Y-78884285D02*
X102042857Y-78770000D01*
X102042857Y-78579523D01*
X101985714Y-78503333D01*
X101928571Y-78465238D01*
X101814285Y-78427142D01*
X101700000Y-78427142D01*
X101585714Y-78465238D01*
X101528571Y-78503333D01*
X101471428Y-78579523D01*
X101414285Y-78731904D01*
X101357142Y-78808095D01*
X101300000Y-78846190D01*
X101185714Y-78884285D01*
X101071428Y-78884285D01*
X100957142Y-78846190D01*
X100900000Y-78808095D01*
X100842857Y-78731904D01*
X100842857Y-78541428D01*
X100900000Y-78427142D01*
X102042857Y-78084285D02*
X100842857Y-78084285D01*
X101700000Y-77817619D01*
X100842857Y-77550952D01*
X102042857Y-77550952D01*
X100842857Y-77284285D02*
X100842857Y-76827142D01*
X102042857Y-77055714D02*
X100842857Y-77055714D01*
X102042857Y-76560476D02*
X100842857Y-76560476D01*
X100842857Y-76255714D01*
X100900000Y-76179523D01*
X100957142Y-76141428D01*
X101071428Y-76103333D01*
X101242857Y-76103333D01*
X101357142Y-76141428D01*
X101414285Y-76179523D01*
X101471428Y-76255714D01*
X101471428Y-76560476D01*
X101700000Y-75798571D02*
X101700000Y-75417619D01*
X102042857Y-75874761D02*
X100842857Y-75608095D01*
X102042857Y-75341428D01*
X101985714Y-74503333D02*
X102042857Y-74427142D01*
X102042857Y-74274761D01*
X101985714Y-74198571D01*
X101871428Y-74160476D01*
X101814285Y-74160476D01*
X101700000Y-74198571D01*
X101642857Y-74274761D01*
X101642857Y-74389047D01*
X101585714Y-74465238D01*
X101471428Y-74503333D01*
X101414285Y-74503333D01*
X101300000Y-74465238D01*
X101242857Y-74389047D01*
X101242857Y-74274761D01*
X101300000Y-74198571D01*
X102042857Y-73703333D02*
X101985714Y-73779523D01*
X101928571Y-73817619D01*
X101814285Y-73855714D01*
X101471428Y-73855714D01*
X101357142Y-73817619D01*
X101300000Y-73779523D01*
X101242857Y-73703333D01*
X101242857Y-73589047D01*
X101300000Y-73512857D01*
X101357142Y-73474761D01*
X101471428Y-73436666D01*
X101814285Y-73436666D01*
X101928571Y-73474761D01*
X101985714Y-73512857D01*
X102042857Y-73589047D01*
X102042857Y-73703333D01*
X101985714Y-72750952D02*
X102042857Y-72827142D01*
X102042857Y-72979523D01*
X101985714Y-73055714D01*
X101928571Y-73093809D01*
X101814285Y-73131904D01*
X101471428Y-73131904D01*
X101357142Y-73093809D01*
X101300000Y-73055714D01*
X101242857Y-72979523D01*
X101242857Y-72827142D01*
X101300000Y-72750952D01*
X102042857Y-72408095D02*
X100842857Y-72408095D01*
X101585714Y-72331904D02*
X102042857Y-72103333D01*
X101242857Y-72103333D02*
X101700000Y-72408095D01*
X101985714Y-71455714D02*
X102042857Y-71531904D01*
X102042857Y-71684285D01*
X101985714Y-71760476D01*
X101871428Y-71798571D01*
X101414285Y-71798571D01*
X101300000Y-71760476D01*
X101242857Y-71684285D01*
X101242857Y-71531904D01*
X101300000Y-71455714D01*
X101414285Y-71417619D01*
X101528571Y-71417619D01*
X101642857Y-71798571D01*
X101242857Y-71189047D02*
X101242857Y-70884285D01*
X100842857Y-71074761D02*
X101871428Y-71074761D01*
X101985714Y-71036666D01*
X102042857Y-70960476D01*
X102042857Y-70884285D01*
X103928571Y-92179523D02*
X103985714Y-92141428D01*
X104042857Y-92179523D01*
X103985714Y-92217619D01*
X103928571Y-92179523D01*
X104042857Y-92179523D01*
X103585714Y-92179523D02*
X102900000Y-92217619D01*
X102842857Y-92179523D01*
X102900000Y-92141428D01*
X103585714Y-92179523D01*
X102842857Y-92179523D01*
X103928571Y-91798571D02*
X103985714Y-91760476D01*
X104042857Y-91798571D01*
X103985714Y-91836666D01*
X103928571Y-91798571D01*
X104042857Y-91798571D01*
X103585714Y-91798571D02*
X102900000Y-91836666D01*
X102842857Y-91798571D01*
X102900000Y-91760476D01*
X103585714Y-91798571D01*
X102842857Y-91798571D01*
X103928571Y-91417619D02*
X103985714Y-91379523D01*
X104042857Y-91417619D01*
X103985714Y-91455714D01*
X103928571Y-91417619D01*
X104042857Y-91417619D01*
X103585714Y-91417619D02*
X102900000Y-91455714D01*
X102842857Y-91417619D01*
X102900000Y-91379523D01*
X103585714Y-91417619D01*
X102842857Y-91417619D01*
X103985714Y-90465238D02*
X104042857Y-90350952D01*
X104042857Y-90160476D01*
X103985714Y-90084285D01*
X103928571Y-90046190D01*
X103814285Y-90008095D01*
X103700000Y-90008095D01*
X103585714Y-90046190D01*
X103528571Y-90084285D01*
X103471428Y-90160476D01*
X103414285Y-90312857D01*
X103357142Y-90389047D01*
X103300000Y-90427142D01*
X103185714Y-90465238D01*
X103071428Y-90465238D01*
X102957142Y-90427142D01*
X102900000Y-90389047D01*
X102842857Y-90312857D01*
X102842857Y-90122380D01*
X102900000Y-90008095D01*
X103414285Y-89665238D02*
X103414285Y-89398571D01*
X104042857Y-89284285D02*
X104042857Y-89665238D01*
X102842857Y-89665238D01*
X102842857Y-89284285D01*
X102842857Y-89055714D02*
X102842857Y-88598571D01*
X104042857Y-88827142D02*
X102842857Y-88827142D01*
X103985714Y-87760476D02*
X104042857Y-87646190D01*
X104042857Y-87455714D01*
X103985714Y-87379523D01*
X103928571Y-87341428D01*
X103814285Y-87303333D01*
X103700000Y-87303333D01*
X103585714Y-87341428D01*
X103528571Y-87379523D01*
X103471428Y-87455714D01*
X103414285Y-87608095D01*
X103357142Y-87684285D01*
X103300000Y-87722380D01*
X103185714Y-87760476D01*
X103071428Y-87760476D01*
X102957142Y-87722380D01*
X102900000Y-87684285D01*
X102842857Y-87608095D01*
X102842857Y-87417619D01*
X102900000Y-87303333D01*
X102842857Y-86808095D02*
X102842857Y-86655714D01*
X102900000Y-86579523D01*
X103014285Y-86503333D01*
X103242857Y-86465238D01*
X103642857Y-86465238D01*
X103871428Y-86503333D01*
X103985714Y-86579523D01*
X104042857Y-86655714D01*
X104042857Y-86808095D01*
X103985714Y-86884285D01*
X103871428Y-86960476D01*
X103642857Y-86998571D01*
X103242857Y-86998571D01*
X103014285Y-86960476D01*
X102900000Y-86884285D01*
X102842857Y-86808095D01*
X103928571Y-85665238D02*
X103985714Y-85703333D01*
X104042857Y-85817619D01*
X104042857Y-85893809D01*
X103985714Y-86008095D01*
X103871428Y-86084285D01*
X103757142Y-86122380D01*
X103528571Y-86160476D01*
X103357142Y-86160476D01*
X103128571Y-86122380D01*
X103014285Y-86084285D01*
X102900000Y-86008095D01*
X102842857Y-85893809D01*
X102842857Y-85817619D01*
X102900000Y-85703333D01*
X102957142Y-85665238D01*
X104042857Y-85322380D02*
X102842857Y-85322380D01*
X104042857Y-84865238D02*
X103357142Y-85208095D01*
X102842857Y-84865238D02*
X103528571Y-85322380D01*
X103414285Y-84522380D02*
X103414285Y-84255714D01*
X104042857Y-84141428D02*
X104042857Y-84522380D01*
X102842857Y-84522380D01*
X102842857Y-84141428D01*
X102842857Y-83912857D02*
X102842857Y-83455714D01*
X104042857Y-83684285D02*
X102842857Y-83684285D01*
X102842857Y-82693809D02*
X104042857Y-82427142D01*
X102842857Y-82160476D01*
X102842857Y-81741428D02*
X102842857Y-81589047D01*
X102900000Y-81512857D01*
X103014285Y-81436666D01*
X103242857Y-81398571D01*
X103642857Y-81398571D01*
X103871428Y-81436666D01*
X103985714Y-81512857D01*
X104042857Y-81589047D01*
X104042857Y-81741428D01*
X103985714Y-81817619D01*
X103871428Y-81893809D01*
X103642857Y-81931904D01*
X103242857Y-81931904D01*
X103014285Y-81893809D01*
X102900000Y-81817619D01*
X102842857Y-81741428D01*
X104042857Y-80674761D02*
X104042857Y-81055714D01*
X102842857Y-81055714D01*
X102842857Y-80522380D02*
X102842857Y-80065238D01*
X104042857Y-80293809D02*
X102842857Y-80293809D01*
X103700000Y-79836666D02*
X103700000Y-79455714D01*
X104042857Y-79912857D02*
X102842857Y-79646190D01*
X104042857Y-79379523D01*
X102900000Y-78693809D02*
X102842857Y-78770000D01*
X102842857Y-78884285D01*
X102900000Y-78998571D01*
X103014285Y-79074761D01*
X103128571Y-79112857D01*
X103357142Y-79150952D01*
X103528571Y-79150952D01*
X103757142Y-79112857D01*
X103871428Y-79074761D01*
X103985714Y-78998571D01*
X104042857Y-78884285D01*
X104042857Y-78808095D01*
X103985714Y-78693809D01*
X103928571Y-78655714D01*
X103528571Y-78655714D01*
X103528571Y-78808095D01*
X103414285Y-78312857D02*
X103414285Y-78046190D01*
X104042857Y-77931904D02*
X104042857Y-78312857D01*
X102842857Y-78312857D01*
X102842857Y-77931904D01*
X105928571Y-92179523D02*
X105985714Y-92141428D01*
X106042857Y-92179523D01*
X105985714Y-92217619D01*
X105928571Y-92179523D01*
X106042857Y-92179523D01*
X105585714Y-92179523D02*
X104900000Y-92217619D01*
X104842857Y-92179523D01*
X104900000Y-92141428D01*
X105585714Y-92179523D01*
X104842857Y-92179523D01*
X105928571Y-91798571D02*
X105985714Y-91760476D01*
X106042857Y-91798571D01*
X105985714Y-91836666D01*
X105928571Y-91798571D01*
X106042857Y-91798571D01*
X105585714Y-91798571D02*
X104900000Y-91836666D01*
X104842857Y-91798571D01*
X104900000Y-91760476D01*
X105585714Y-91798571D01*
X104842857Y-91798571D01*
X105928571Y-91417619D02*
X105985714Y-91379523D01*
X106042857Y-91417619D01*
X105985714Y-91455714D01*
X105928571Y-91417619D01*
X106042857Y-91417619D01*
X105585714Y-91417619D02*
X104900000Y-91455714D01*
X104842857Y-91417619D01*
X104900000Y-91379523D01*
X105585714Y-91417619D01*
X104842857Y-91417619D01*
X105414285Y-90160476D02*
X105471428Y-90046190D01*
X105528571Y-90008095D01*
X105642857Y-89970000D01*
X105814285Y-89970000D01*
X105928571Y-90008095D01*
X105985714Y-90046190D01*
X106042857Y-90122380D01*
X106042857Y-90427142D01*
X104842857Y-90427142D01*
X104842857Y-90160476D01*
X104900000Y-90084285D01*
X104957142Y-90046190D01*
X105071428Y-90008095D01*
X105185714Y-90008095D01*
X105300000Y-90046190D01*
X105357142Y-90084285D01*
X105414285Y-90160476D01*
X105414285Y-90427142D01*
X105414285Y-89627142D02*
X105414285Y-89360476D01*
X106042857Y-89246190D02*
X106042857Y-89627142D01*
X104842857Y-89627142D01*
X104842857Y-89246190D01*
X105414285Y-88636666D02*
X105414285Y-88903333D01*
X106042857Y-88903333D02*
X104842857Y-88903333D01*
X104842857Y-88522380D01*
X104842857Y-88065238D02*
X104842857Y-87912857D01*
X104900000Y-87836666D01*
X105014285Y-87760476D01*
X105242857Y-87722380D01*
X105642857Y-87722380D01*
X105871428Y-87760476D01*
X105985714Y-87836666D01*
X106042857Y-87912857D01*
X106042857Y-88065238D01*
X105985714Y-88141428D01*
X105871428Y-88217619D01*
X105642857Y-88255714D01*
X105242857Y-88255714D01*
X105014285Y-88217619D01*
X104900000Y-88141428D01*
X104842857Y-88065238D01*
X106042857Y-86922380D02*
X105471428Y-87189047D01*
X106042857Y-87379523D02*
X104842857Y-87379523D01*
X104842857Y-87074761D01*
X104900000Y-86998571D01*
X104957142Y-86960476D01*
X105071428Y-86922380D01*
X105242857Y-86922380D01*
X105357142Y-86960476D01*
X105414285Y-86998571D01*
X105471428Y-87074761D01*
X105471428Y-87379523D01*
X105414285Y-86579523D02*
X105414285Y-86312857D01*
X106042857Y-86198571D02*
X106042857Y-86579523D01*
X104842857Y-86579523D01*
X104842857Y-86198571D01*
X106042857Y-85246190D02*
X104842857Y-85246190D01*
X106042857Y-84865238D02*
X104842857Y-84865238D01*
X106042857Y-84408095D01*
X104842857Y-84408095D01*
X105985714Y-84065238D02*
X106042857Y-83950952D01*
X106042857Y-83760476D01*
X105985714Y-83684285D01*
X105928571Y-83646190D01*
X105814285Y-83608095D01*
X105700000Y-83608095D01*
X105585714Y-83646190D01*
X105528571Y-83684285D01*
X105471428Y-83760476D01*
X105414285Y-83912857D01*
X105357142Y-83989047D01*
X105300000Y-84027142D01*
X105185714Y-84065238D01*
X105071428Y-84065238D01*
X104957142Y-84027142D01*
X104900000Y-83989047D01*
X104842857Y-83912857D01*
X104842857Y-83722380D01*
X104900000Y-83608095D01*
X105414285Y-83265238D02*
X105414285Y-82998571D01*
X106042857Y-82884285D02*
X106042857Y-83265238D01*
X104842857Y-83265238D01*
X104842857Y-82884285D01*
X106042857Y-82084285D02*
X105471428Y-82350952D01*
X106042857Y-82541428D02*
X104842857Y-82541428D01*
X104842857Y-82236666D01*
X104900000Y-82160476D01*
X104957142Y-82122380D01*
X105071428Y-82084285D01*
X105242857Y-82084285D01*
X105357142Y-82122380D01*
X105414285Y-82160476D01*
X105471428Y-82236666D01*
X105471428Y-82541428D01*
X104842857Y-81855714D02*
X104842857Y-81398571D01*
X106042857Y-81627142D02*
X104842857Y-81627142D01*
X106042857Y-81131904D02*
X104842857Y-81131904D01*
X106042857Y-80750952D02*
X104842857Y-80750952D01*
X106042857Y-80293809D01*
X104842857Y-80293809D01*
X104900000Y-79493809D02*
X104842857Y-79570000D01*
X104842857Y-79684285D01*
X104900000Y-79798571D01*
X105014285Y-79874761D01*
X105128571Y-79912857D01*
X105357142Y-79950952D01*
X105528571Y-79950952D01*
X105757142Y-79912857D01*
X105871428Y-79874761D01*
X105985714Y-79798571D01*
X106042857Y-79684285D01*
X106042857Y-79608095D01*
X105985714Y-79493809D01*
X105928571Y-79455714D01*
X105528571Y-79455714D01*
X105528571Y-79608095D01*
X105985714Y-78541428D02*
X106042857Y-78427142D01*
X106042857Y-78236666D01*
X105985714Y-78160476D01*
X105928571Y-78122380D01*
X105814285Y-78084285D01*
X105700000Y-78084285D01*
X105585714Y-78122380D01*
X105528571Y-78160476D01*
X105471428Y-78236666D01*
X105414285Y-78389047D01*
X105357142Y-78465238D01*
X105300000Y-78503333D01*
X105185714Y-78541428D01*
X105071428Y-78541428D01*
X104957142Y-78503333D01*
X104900000Y-78465238D01*
X104842857Y-78389047D01*
X104842857Y-78198571D01*
X104900000Y-78084285D01*
X106042857Y-77741428D02*
X104842857Y-77741428D01*
X106042857Y-77360476D02*
X104842857Y-77360476D01*
X104842857Y-77055714D01*
X104900000Y-76979523D01*
X104957142Y-76941428D01*
X105071428Y-76903333D01*
X105242857Y-76903333D01*
X105357142Y-76941428D01*
X105414285Y-76979523D01*
X105471428Y-77055714D01*
X105471428Y-77360476D01*
X106042857Y-76560476D02*
X104842857Y-76560476D01*
X105700000Y-76293809D01*
X104842857Y-76027142D01*
X106042857Y-76027142D01*
D11*
X183154761Y-89000000D02*
X181154761Y-89000000D01*
X181154761Y-88428571D01*
X181250000Y-88285714D01*
X181345238Y-88214285D01*
X181535714Y-88142857D01*
X181821428Y-88142857D01*
X182011904Y-88214285D01*
X182107142Y-88285714D01*
X182202380Y-88428571D01*
X182202380Y-89000000D01*
X181154761Y-87642857D02*
X183154761Y-87285714D01*
X181726190Y-87000000D01*
X183154761Y-86714285D01*
X181154761Y-86357142D01*
X183154761Y-84928571D02*
X182202380Y-85428571D01*
X183154761Y-85785714D02*
X181154761Y-85785714D01*
X181154761Y-85214285D01*
X181250000Y-85071428D01*
X181345238Y-85000000D01*
X181535714Y-84928571D01*
X181821428Y-84928571D01*
X182011904Y-85000000D01*
X182107142Y-85071428D01*
X182202380Y-85214285D01*
X182202380Y-85785714D01*
D15*
X183702380Y-88857142D02*
X183702380Y-88238095D01*
X184083333Y-88571428D01*
X184083333Y-88428571D01*
X184130952Y-88333333D01*
X184178571Y-88285714D01*
X184273809Y-88238095D01*
X184511904Y-88238095D01*
X184607142Y-88285714D01*
X184654761Y-88333333D01*
X184702380Y-88428571D01*
X184702380Y-88714285D01*
X184654761Y-88809523D01*
X184607142Y-88857142D01*
X183797619Y-87857142D02*
X183750000Y-87809523D01*
X183702380Y-87714285D01*
X183702380Y-87476190D01*
X183750000Y-87380952D01*
X183797619Y-87333333D01*
X183892857Y-87285714D01*
X183988095Y-87285714D01*
X184130952Y-87333333D01*
X184702380Y-87904761D01*
X184702380Y-87285714D01*
X183702380Y-87000000D02*
X184702380Y-86666666D01*
X183702380Y-86333333D01*
X184321428Y-86000000D02*
X184321428Y-85238095D01*
X184702380Y-85619047D02*
X183940476Y-85619047D01*
D16*
X177357142Y-83071428D02*
X177357142Y-81928571D01*
D11*
X156928571Y-45095238D02*
X156428571Y-43095238D01*
X155928571Y-45095238D01*
X155500000Y-43190476D02*
X155285714Y-43095238D01*
X154928571Y-43095238D01*
X154785714Y-43190476D01*
X154714285Y-43285714D01*
X154642857Y-43476190D01*
X154642857Y-43666666D01*
X154714285Y-43857142D01*
X154785714Y-43952380D01*
X154928571Y-44047619D01*
X155214285Y-44142857D01*
X155357142Y-44238095D01*
X155428571Y-44333333D01*
X155500000Y-44523809D01*
X155500000Y-44714285D01*
X155428571Y-44904761D01*
X155357142Y-45000000D01*
X155214285Y-45095238D01*
X154857142Y-45095238D01*
X154642857Y-45000000D01*
X154071428Y-43190476D02*
X153857142Y-43095238D01*
X153500000Y-43095238D01*
X153357142Y-43190476D01*
X153285714Y-43285714D01*
X153214285Y-43476190D01*
X153214285Y-43666666D01*
X153285714Y-43857142D01*
X153357142Y-43952380D01*
X153500000Y-44047619D01*
X153785714Y-44142857D01*
X153928571Y-44238095D01*
X154000000Y-44333333D01*
X154071428Y-44523809D01*
X154071428Y-44714285D01*
X154000000Y-44904761D01*
X153928571Y-45000000D01*
X153785714Y-45095238D01*
X153428571Y-45095238D01*
X153214285Y-45000000D01*
D16*
X177357142Y-92071428D02*
X177357142Y-90928571D01*
X177928571Y-91500000D02*
X176785714Y-91500000D01*
D15*
X190902380Y-93261904D02*
X190902380Y-93071428D01*
X190950000Y-92976190D01*
X191045238Y-92880952D01*
X191235714Y-92833333D01*
X191569047Y-92833333D01*
X191759523Y-92880952D01*
X191854761Y-92976190D01*
X191902380Y-93071428D01*
X191902380Y-93261904D01*
X191854761Y-93357142D01*
X191759523Y-93452380D01*
X191569047Y-93500000D01*
X191235714Y-93500000D01*
X191045238Y-93452380D01*
X190950000Y-93357142D01*
X190902380Y-93261904D01*
X191902380Y-92500000D02*
X191235714Y-91976190D01*
X191235714Y-92500000D02*
X191902380Y-91976190D01*
X191235714Y-91738095D02*
X191235714Y-91357142D01*
X191902380Y-91595238D02*
X191045238Y-91595238D01*
X190950000Y-91547619D01*
X190902380Y-91452380D01*
X190902380Y-91357142D01*
X191902380Y-90880952D02*
X191854761Y-90976190D01*
X191807142Y-91023809D01*
X191711904Y-91071428D01*
X191426190Y-91071428D01*
X191330952Y-91023809D01*
X191283333Y-90976190D01*
X191235714Y-90880952D01*
X191235714Y-90738095D01*
X191283333Y-90642857D01*
X191330952Y-90595238D01*
X191426190Y-90547619D01*
X191711904Y-90547619D01*
X191807142Y-90595238D01*
X191854761Y-90642857D01*
X191902380Y-90738095D01*
X191902380Y-90880952D01*
X191902380Y-90119047D02*
X191235714Y-90119047D01*
X191426190Y-90119047D02*
X191330952Y-90071428D01*
X191283333Y-90023809D01*
X191235714Y-89928571D01*
X191235714Y-89833333D01*
X191902380Y-89071428D02*
X190902380Y-89071428D01*
X191854761Y-89071428D02*
X191902380Y-89166666D01*
X191902380Y-89357142D01*
X191854761Y-89452380D01*
X191807142Y-89500000D01*
X191711904Y-89547619D01*
X191426190Y-89547619D01*
X191330952Y-89500000D01*
X191283333Y-89452380D01*
X191235714Y-89357142D01*
X191235714Y-89166666D01*
X191283333Y-89071428D01*
X190902380Y-87976190D02*
X191902380Y-87642857D01*
X190902380Y-87309523D01*
X191902380Y-86500000D02*
X191902380Y-86976190D01*
X190902380Y-86976190D01*
X191807142Y-85595238D02*
X191854761Y-85642857D01*
X191902380Y-85785714D01*
X191902380Y-85880952D01*
X191854761Y-86023809D01*
X191759523Y-86119047D01*
X191664285Y-86166666D01*
X191473809Y-86214285D01*
X191330952Y-86214285D01*
X191140476Y-86166666D01*
X191045238Y-86119047D01*
X190950000Y-86023809D01*
X190902380Y-85880952D01*
X190902380Y-85785714D01*
X190950000Y-85642857D01*
X190997619Y-85595238D01*
X190950000Y-83880952D02*
X190902380Y-83976190D01*
X190902380Y-84119047D01*
X190950000Y-84261904D01*
X191045238Y-84357142D01*
X191140476Y-84404761D01*
X191330952Y-84452380D01*
X191473809Y-84452380D01*
X191664285Y-84404761D01*
X191759523Y-84357142D01*
X191854761Y-84261904D01*
X191902380Y-84119047D01*
X191902380Y-84023809D01*
X191854761Y-83880952D01*
X191807142Y-83833333D01*
X191473809Y-83833333D01*
X191473809Y-84023809D01*
X191902380Y-83404761D02*
X191235714Y-83404761D01*
X191426190Y-83404761D02*
X191330952Y-83357142D01*
X191283333Y-83309523D01*
X191235714Y-83214285D01*
X191235714Y-83119047D01*
X191902380Y-82642857D02*
X191854761Y-82738095D01*
X191807142Y-82785714D01*
X191711904Y-82833333D01*
X191426190Y-82833333D01*
X191330952Y-82785714D01*
X191283333Y-82738095D01*
X191235714Y-82642857D01*
X191235714Y-82500000D01*
X191283333Y-82404761D01*
X191330952Y-82357142D01*
X191426190Y-82309523D01*
X191711904Y-82309523D01*
X191807142Y-82357142D01*
X191854761Y-82404761D01*
X191902380Y-82500000D01*
X191902380Y-82642857D01*
X191235714Y-81452380D02*
X191902380Y-81452380D01*
X191235714Y-81880952D02*
X191759523Y-81880952D01*
X191854761Y-81833333D01*
X191902380Y-81738095D01*
X191902380Y-81595238D01*
X191854761Y-81500000D01*
X191807142Y-81452380D01*
X191235714Y-80976190D02*
X192235714Y-80976190D01*
X191283333Y-80976190D02*
X191235714Y-80880952D01*
X191235714Y-80690476D01*
X191283333Y-80595238D01*
X191330952Y-80547619D01*
X191426190Y-80500000D01*
X191711904Y-80500000D01*
X191807142Y-80547619D01*
X191854761Y-80595238D01*
X191902380Y-80690476D01*
X191902380Y-80880952D01*
X191854761Y-80976190D01*
X192602380Y-93023809D02*
X193411904Y-93023809D01*
X193507142Y-92976190D01*
X193554761Y-92928571D01*
X193602380Y-92833333D01*
X193602380Y-92642857D01*
X193554761Y-92547619D01*
X193507142Y-92500000D01*
X193411904Y-92452380D01*
X192602380Y-92452380D01*
X193602380Y-91976190D02*
X192602380Y-91976190D01*
X193078571Y-91976190D02*
X193078571Y-91404761D01*
X193602380Y-91404761D02*
X192602380Y-91404761D01*
X193554761Y-90976190D02*
X193602380Y-90833333D01*
X193602380Y-90595238D01*
X193554761Y-90500000D01*
X193507142Y-90452380D01*
X193411904Y-90404761D01*
X193316666Y-90404761D01*
X193221428Y-90452380D01*
X193173809Y-90500000D01*
X193126190Y-90595238D01*
X193078571Y-90785714D01*
X193030952Y-90880952D01*
X192983333Y-90928571D01*
X192888095Y-90976190D01*
X192792857Y-90976190D01*
X192697619Y-90928571D01*
X192650000Y-90880952D01*
X192602380Y-90785714D01*
X192602380Y-90547619D01*
X192650000Y-90404761D01*
X193554761Y-89261904D02*
X193602380Y-89119047D01*
X193602380Y-88880952D01*
X193554761Y-88785714D01*
X193507142Y-88738095D01*
X193411904Y-88690476D01*
X193316666Y-88690476D01*
X193221428Y-88738095D01*
X193173809Y-88785714D01*
X193126190Y-88880952D01*
X193078571Y-89071428D01*
X193030952Y-89166666D01*
X192983333Y-89214285D01*
X192888095Y-89261904D01*
X192792857Y-89261904D01*
X192697619Y-89214285D01*
X192650000Y-89166666D01*
X192602380Y-89071428D01*
X192602380Y-88833333D01*
X192650000Y-88690476D01*
X193602380Y-88261904D02*
X192935714Y-88261904D01*
X192602380Y-88261904D02*
X192650000Y-88309523D01*
X192697619Y-88261904D01*
X192650000Y-88214285D01*
X192602380Y-88261904D01*
X192697619Y-88261904D01*
X193602380Y-87785714D02*
X192602380Y-87785714D01*
X192602380Y-87404761D01*
X192650000Y-87309523D01*
X192697619Y-87261904D01*
X192792857Y-87214285D01*
X192935714Y-87214285D01*
X193030952Y-87261904D01*
X193078571Y-87309523D01*
X193126190Y-87404761D01*
X193126190Y-87785714D01*
X193602380Y-86785714D02*
X192602380Y-86785714D01*
X193316666Y-86452380D01*
X192602380Y-86119047D01*
X193602380Y-86119047D01*
X193602380Y-84309523D02*
X193126190Y-84642857D01*
X193602380Y-84880952D02*
X192602380Y-84880952D01*
X192602380Y-84500000D01*
X192650000Y-84404761D01*
X192697619Y-84357142D01*
X192792857Y-84309523D01*
X192935714Y-84309523D01*
X193030952Y-84357142D01*
X193078571Y-84404761D01*
X193126190Y-84500000D01*
X193126190Y-84880952D01*
X193602380Y-83976190D02*
X192935714Y-83452380D01*
X192935714Y-83976190D02*
X193602380Y-83452380D01*
X192602380Y-82452380D02*
X193602380Y-82119047D01*
X192602380Y-81785714D01*
X193602380Y-80928571D02*
X193602380Y-81500000D01*
X193602380Y-81214285D02*
X192602380Y-81214285D01*
X192745238Y-81309523D01*
X192840476Y-81404761D01*
X192888095Y-81500000D01*
X195302380Y-93452380D02*
X194302380Y-93452380D01*
X194302380Y-93214285D01*
X194350000Y-93071428D01*
X194445238Y-92976190D01*
X194540476Y-92928571D01*
X194730952Y-92880952D01*
X194873809Y-92880952D01*
X195064285Y-92928571D01*
X195159523Y-92976190D01*
X195254761Y-93071428D01*
X195302380Y-93214285D01*
X195302380Y-93452380D01*
X195254761Y-92500000D02*
X195302380Y-92357142D01*
X195302380Y-92119047D01*
X195254761Y-92023809D01*
X195207142Y-91976190D01*
X195111904Y-91928571D01*
X195016666Y-91928571D01*
X194921428Y-91976190D01*
X194873809Y-92023809D01*
X194826190Y-92119047D01*
X194778571Y-92309523D01*
X194730952Y-92404761D01*
X194683333Y-92452380D01*
X194588095Y-92500000D01*
X194492857Y-92500000D01*
X194397619Y-92452380D01*
X194350000Y-92404761D01*
X194302380Y-92309523D01*
X194302380Y-92071428D01*
X194350000Y-91928571D01*
X194350000Y-90976190D02*
X194302380Y-91071428D01*
X194302380Y-91214285D01*
X194350000Y-91357142D01*
X194445238Y-91452380D01*
X194540476Y-91500000D01*
X194730952Y-91547619D01*
X194873809Y-91547619D01*
X195064285Y-91500000D01*
X195159523Y-91452380D01*
X195254761Y-91357142D01*
X195302380Y-91214285D01*
X195302380Y-91119047D01*
X195254761Y-90976190D01*
X195207142Y-90928571D01*
X194873809Y-90928571D01*
X194873809Y-91119047D01*
X195207142Y-90500000D02*
X195254761Y-90452380D01*
X195302380Y-90500000D01*
X195254761Y-90547619D01*
X195207142Y-90500000D01*
X195302380Y-90500000D01*
X194683333Y-90500000D02*
X194730952Y-90452380D01*
X194778571Y-90500000D01*
X194730952Y-90547619D01*
X194683333Y-90500000D01*
X194778571Y-90500000D01*
X194302380Y-89357142D02*
X195302380Y-89119047D01*
X194588095Y-88928571D01*
X195302380Y-88738095D01*
X194302380Y-88500000D01*
X195207142Y-88119047D02*
X195254761Y-88071428D01*
X195302380Y-88119047D01*
X195254761Y-88166666D01*
X195207142Y-88119047D01*
X195302380Y-88119047D01*
X195302380Y-86880952D02*
X194302380Y-86880952D01*
X195016666Y-86547619D01*
X194302380Y-86214285D01*
X195302380Y-86214285D01*
X195302380Y-85309523D02*
X194778571Y-85309523D01*
X194683333Y-85357142D01*
X194635714Y-85452380D01*
X194635714Y-85642857D01*
X194683333Y-85738095D01*
X195254761Y-85309523D02*
X195302380Y-85404761D01*
X195302380Y-85642857D01*
X195254761Y-85738095D01*
X195159523Y-85785714D01*
X195064285Y-85785714D01*
X194969047Y-85738095D01*
X194921428Y-85642857D01*
X194921428Y-85404761D01*
X194873809Y-85309523D01*
X194635714Y-84976190D02*
X194635714Y-84595238D01*
X194302380Y-84833333D02*
X195159523Y-84833333D01*
X195254761Y-84785714D01*
X195302380Y-84690476D01*
X195302380Y-84595238D01*
X194635714Y-84404761D02*
X194635714Y-84023809D01*
X194302380Y-84261904D02*
X195159523Y-84261904D01*
X195254761Y-84214285D01*
X195302380Y-84119047D01*
X195302380Y-84023809D01*
X195302380Y-83690476D02*
X194302380Y-83690476D01*
X195302380Y-83261904D02*
X194778571Y-83261904D01*
X194683333Y-83309523D01*
X194635714Y-83404761D01*
X194635714Y-83547619D01*
X194683333Y-83642857D01*
X194730952Y-83690476D01*
X195254761Y-82404761D02*
X195302380Y-82500000D01*
X195302380Y-82690476D01*
X195254761Y-82785714D01*
X195159523Y-82833333D01*
X194778571Y-82833333D01*
X194683333Y-82785714D01*
X194635714Y-82690476D01*
X194635714Y-82500000D01*
X194683333Y-82404761D01*
X194778571Y-82357142D01*
X194873809Y-82357142D01*
X194969047Y-82833333D01*
X194635714Y-82023809D02*
X195302380Y-81833333D01*
X194826190Y-81642857D01*
X195302380Y-81452380D01*
X194635714Y-81261904D01*
X195254761Y-80928571D02*
X195302380Y-80833333D01*
X195302380Y-80642857D01*
X195254761Y-80547619D01*
X195159523Y-80500000D01*
X195111904Y-80500000D01*
X195016666Y-80547619D01*
X194969047Y-80642857D01*
X194969047Y-80785714D01*
X194921428Y-80880952D01*
X194826190Y-80928571D01*
X194778571Y-80928571D01*
X194683333Y-80880952D01*
X194635714Y-80785714D01*
X194635714Y-80642857D01*
X194683333Y-80547619D01*
X196907142Y-92000000D02*
X196954761Y-92047619D01*
X197002380Y-92190476D01*
X197002380Y-92285714D01*
X196954761Y-92428571D01*
X196859523Y-92523809D01*
X196764285Y-92571428D01*
X196573809Y-92619047D01*
X196430952Y-92619047D01*
X196240476Y-92571428D01*
X196145238Y-92523809D01*
X196050000Y-92428571D01*
X196002380Y-92285714D01*
X196002380Y-92190476D01*
X196050000Y-92047619D01*
X196097619Y-92000000D01*
X197002380Y-91571428D02*
X196002380Y-91571428D01*
X196478571Y-91571428D02*
X196478571Y-91000000D01*
X197002380Y-91000000D02*
X196002380Y-91000000D01*
X197002380Y-90523809D02*
X196002380Y-90523809D01*
X197002380Y-89952380D02*
X196430952Y-90380952D01*
X196002380Y-89952380D02*
X196573809Y-90523809D01*
X196907142Y-89523809D02*
X196954761Y-89476190D01*
X197002380Y-89523809D01*
X196954761Y-89571428D01*
X196907142Y-89523809D01*
X197002380Y-89523809D01*
X196383333Y-89523809D02*
X196430952Y-89476190D01*
X196478571Y-89523809D01*
X196430952Y-89571428D01*
X196383333Y-89523809D01*
X196478571Y-89523809D01*
X196954761Y-88333333D02*
X197002380Y-88190476D01*
X197002380Y-87952380D01*
X196954761Y-87857142D01*
X196907142Y-87809523D01*
X196811904Y-87761904D01*
X196716666Y-87761904D01*
X196621428Y-87809523D01*
X196573809Y-87857142D01*
X196526190Y-87952380D01*
X196478571Y-88142857D01*
X196430952Y-88238095D01*
X196383333Y-88285714D01*
X196288095Y-88333333D01*
X196192857Y-88333333D01*
X196097619Y-88285714D01*
X196050000Y-88238095D01*
X196002380Y-88142857D01*
X196002380Y-87904761D01*
X196050000Y-87761904D01*
X196907142Y-87333333D02*
X196954761Y-87285714D01*
X197002380Y-87333333D01*
X196954761Y-87380952D01*
X196907142Y-87333333D01*
X197002380Y-87333333D01*
X196907142Y-85523809D02*
X196954761Y-85571428D01*
X197002380Y-85714285D01*
X197002380Y-85809523D01*
X196954761Y-85952380D01*
X196859523Y-86047619D01*
X196764285Y-86095238D01*
X196573809Y-86142857D01*
X196430952Y-86142857D01*
X196240476Y-86095238D01*
X196145238Y-86047619D01*
X196050000Y-85952380D01*
X196002380Y-85809523D01*
X196002380Y-85714285D01*
X196050000Y-85571428D01*
X196097619Y-85523809D01*
X197002380Y-84952380D02*
X196954761Y-85047619D01*
X196907142Y-85095238D01*
X196811904Y-85142857D01*
X196526190Y-85142857D01*
X196430952Y-85095238D01*
X196383333Y-85047619D01*
X196335714Y-84952380D01*
X196335714Y-84809523D01*
X196383333Y-84714285D01*
X196430952Y-84666666D01*
X196526190Y-84619047D01*
X196811904Y-84619047D01*
X196907142Y-84666666D01*
X196954761Y-84714285D01*
X197002380Y-84809523D01*
X197002380Y-84952380D01*
X197002380Y-84047619D02*
X196954761Y-84142857D01*
X196859523Y-84190476D01*
X196002380Y-84190476D01*
X197002380Y-83523809D02*
X196954761Y-83619047D01*
X196859523Y-83666666D01*
X196002380Y-83666666D01*
X197002380Y-83142857D02*
X196335714Y-83142857D01*
X196002380Y-83142857D02*
X196050000Y-83190476D01*
X196097619Y-83142857D01*
X196050000Y-83095238D01*
X196002380Y-83142857D01*
X196097619Y-83142857D01*
X196335714Y-82666666D02*
X197002380Y-82666666D01*
X196430952Y-82666666D02*
X196383333Y-82619047D01*
X196335714Y-82523809D01*
X196335714Y-82380952D01*
X196383333Y-82285714D01*
X196478571Y-82238095D01*
X197002380Y-82238095D01*
X196954761Y-81809523D02*
X197002380Y-81714285D01*
X197002380Y-81523809D01*
X196954761Y-81428571D01*
X196859523Y-81380952D01*
X196811904Y-81380952D01*
X196716666Y-81428571D01*
X196669047Y-81523809D01*
X196669047Y-81666666D01*
X196621428Y-81761904D01*
X196526190Y-81809523D01*
X196478571Y-81809523D01*
X196383333Y-81761904D01*
X196335714Y-81666666D01*
X196335714Y-81523809D01*
X196383333Y-81428571D01*
D14*
X144090000Y-88600000D02*
X144090000Y-82590000D01*
X150910000Y-86350000D02*
X150910000Y-82590000D01*
X144090000Y-82590000D02*
X145350000Y-82590000D01*
X150910000Y-82590000D02*
X149650000Y-82590000D01*
X134090000Y-88850000D02*
X134090000Y-82840000D01*
X140910000Y-86600000D02*
X140910000Y-82840000D01*
X134090000Y-82840000D02*
X135350000Y-82840000D01*
X140910000Y-82840000D02*
X139650000Y-82840000D01*
X124090000Y-88850000D02*
X124090000Y-82840000D01*
X130910000Y-86600000D02*
X130910000Y-82840000D01*
X124090000Y-82840000D02*
X125350000Y-82840000D01*
X130910000Y-82840000D02*
X129650000Y-82840000D01*
X114090000Y-88850000D02*
X114090000Y-82840000D01*
X120910000Y-86600000D02*
X120910000Y-82840000D01*
X114090000Y-82840000D02*
X115350000Y-82840000D01*
X120910000Y-82840000D02*
X119650000Y-82840000D01*
X184990000Y-77828733D02*
X184990000Y-78171267D01*
X186010000Y-77828733D02*
X186010000Y-78171267D01*
X148750000Y-73250000D02*
X148750000Y-79250000D01*
X148750000Y-65250000D02*
X148750000Y-71000000D01*
X157750000Y-65250000D02*
X148750000Y-65250000D01*
X157750000Y-71000000D02*
X157750000Y-65250000D01*
X157750000Y-79250000D02*
X157750000Y-73500000D01*
X148750000Y-79250000D02*
X157750000Y-79250000D01*
X138750000Y-73250000D02*
X138750000Y-79250000D01*
X138750000Y-65250000D02*
X138750000Y-71000000D01*
X147750000Y-65250000D02*
X138750000Y-65250000D01*
X147750000Y-71000000D02*
X147750000Y-65250000D01*
X147750000Y-79250000D02*
X147750000Y-73500000D01*
X138750000Y-79250000D02*
X147750000Y-79250000D01*
X128750000Y-73250000D02*
X128750000Y-79250000D01*
X128750000Y-65250000D02*
X128750000Y-71000000D01*
X137750000Y-65250000D02*
X128750000Y-65250000D01*
X137750000Y-71000000D02*
X137750000Y-65250000D01*
X137750000Y-79250000D02*
X137750000Y-73500000D01*
X128750000Y-79250000D02*
X137750000Y-79250000D01*
X118750000Y-73250000D02*
X118750000Y-79250000D01*
X118750000Y-65250000D02*
X118750000Y-71000000D01*
X127750000Y-65250000D02*
X118750000Y-65250000D01*
X127750000Y-71000000D02*
X127750000Y-65250000D01*
X127750000Y-79250000D02*
X127750000Y-73500000D01*
X118750000Y-79250000D02*
X127750000Y-79250000D01*
X143671267Y-47490000D02*
X143328733Y-47490000D01*
X143671267Y-48510000D02*
X143328733Y-48510000D01*
D13*
X160650000Y-72740000D02*
X160650000Y-73350000D01*
X162850000Y-73350000D02*
X162850000Y-72750000D01*
X162850000Y-73350000D02*
X162600000Y-73350000D01*
X162850000Y-71150000D02*
X162850000Y-71750000D01*
X162850000Y-71150000D02*
X162600000Y-71150000D01*
X160650000Y-71150000D02*
X160900000Y-71150000D01*
X160650000Y-71150000D02*
X160650000Y-71750000D01*
D14*
X176750000Y-78370000D02*
X176750000Y-77600000D01*
X176750000Y-70290000D02*
X176750000Y-71060000D01*
X178120000Y-77600000D02*
X178120000Y-71060000D01*
X175380000Y-77600000D02*
X178120000Y-77600000D01*
X175380000Y-71060000D02*
X175380000Y-77600000D01*
X178120000Y-71060000D02*
X175380000Y-71060000D01*
X145750000Y-99000000D02*
X145750000Y-102000000D01*
X153850000Y-102000000D02*
X153850000Y-99000000D01*
X145750000Y-99000000D02*
X153850000Y-99000000D01*
X153850000Y-102000000D02*
X145750000Y-102000000D01*
X135750000Y-99000000D02*
X135750000Y-102000000D01*
X143850000Y-102000000D02*
X143850000Y-99000000D01*
X135750000Y-99000000D02*
X143850000Y-99000000D01*
X143850000Y-102000000D02*
X135750000Y-102000000D01*
X125750000Y-99000000D02*
X125750000Y-102000000D01*
X133850000Y-102000000D02*
X133850000Y-99000000D01*
X125750000Y-99000000D02*
X133850000Y-99000000D01*
X133850000Y-102000000D02*
X125750000Y-102000000D01*
X116000000Y-99000000D02*
X116000000Y-102000000D01*
X124100000Y-102000000D02*
X124100000Y-99000000D01*
X116000000Y-99000000D02*
X124100000Y-99000000D01*
X124100000Y-102000000D02*
X116000000Y-102000000D01*
X151520000Y-97870000D02*
X146780000Y-97870000D01*
X151520000Y-93130000D02*
X146780000Y-93130000D01*
X146780000Y-96740000D02*
X146780000Y-97870000D01*
X146780000Y-93130000D02*
X146780000Y-94260000D01*
X151520000Y-95241000D02*
X151520000Y-95760000D01*
X151520000Y-93130000D02*
X151520000Y-93461000D01*
X151520000Y-97540000D02*
X151520000Y-97870000D01*
X153210000Y-84261252D02*
X153210000Y-83738748D01*
X151790000Y-84261252D02*
X151790000Y-83738748D01*
X147163748Y-90810000D02*
X147686252Y-90810000D01*
X147163748Y-89390000D02*
X147686252Y-89390000D01*
X152910000Y-90511252D02*
X152910000Y-89988748D01*
X151490000Y-90511252D02*
X151490000Y-89988748D01*
X141520000Y-97870000D02*
X136780000Y-97870000D01*
X141520000Y-93130000D02*
X136780000Y-93130000D01*
X136780000Y-96740000D02*
X136780000Y-97870000D01*
X136780000Y-93130000D02*
X136780000Y-94260000D01*
X141520000Y-95241000D02*
X141520000Y-95760000D01*
X141520000Y-93130000D02*
X141520000Y-93461000D01*
X141520000Y-97540000D02*
X141520000Y-97870000D01*
X143210000Y-84261252D02*
X143210000Y-83738748D01*
X141790000Y-84261252D02*
X141790000Y-83738748D01*
X137163748Y-90810000D02*
X137686252Y-90810000D01*
X137163748Y-89390000D02*
X137686252Y-89390000D01*
X142910000Y-90511252D02*
X142910000Y-89988748D01*
X141490000Y-90511252D02*
X141490000Y-89988748D01*
X131520000Y-97870000D02*
X126780000Y-97870000D01*
X131520000Y-93130000D02*
X126780000Y-93130000D01*
X126780000Y-96740000D02*
X126780000Y-97870000D01*
X126780000Y-93130000D02*
X126780000Y-94260000D01*
X131520000Y-95241000D02*
X131520000Y-95760000D01*
X131520000Y-93130000D02*
X131520000Y-93461000D01*
X131520000Y-97540000D02*
X131520000Y-97870000D01*
X133210000Y-84261252D02*
X133210000Y-83738748D01*
X131790000Y-84261252D02*
X131790000Y-83738748D01*
X127163748Y-90810000D02*
X127686252Y-90810000D01*
X127163748Y-89390000D02*
X127686252Y-89390000D01*
X132910000Y-90511252D02*
X132910000Y-89988748D01*
X131490000Y-90511252D02*
X131490000Y-89988748D01*
X122910000Y-90511252D02*
X122910000Y-89988748D01*
X121490000Y-90511252D02*
X121490000Y-89988748D01*
X152013748Y-74310000D02*
X152536252Y-74310000D01*
X152013748Y-72890000D02*
X152536252Y-72890000D01*
X142138748Y-74310000D02*
X142661252Y-74310000D01*
X142138748Y-72890000D02*
X142661252Y-72890000D01*
X132013748Y-74310000D02*
X132536252Y-74310000D01*
X132013748Y-72890000D02*
X132536252Y-72890000D01*
X163500000Y-45710000D02*
X163250000Y-46210000D01*
X163250000Y-46210000D02*
X163750000Y-46210000D01*
X163750000Y-46210000D02*
X163500000Y-45710000D01*
X121520000Y-97870000D02*
X116780000Y-97870000D01*
X121520000Y-93130000D02*
X116780000Y-93130000D01*
X116780000Y-96740000D02*
X116780000Y-97870000D01*
X116780000Y-93130000D02*
X116780000Y-94260000D01*
X121520000Y-95241000D02*
X121520000Y-95760000D01*
X121520000Y-93130000D02*
X121520000Y-93461000D01*
X121520000Y-97540000D02*
X121520000Y-97870000D01*
X181450000Y-67200000D02*
X177050000Y-67200000D01*
X181450000Y-62800000D02*
X181450000Y-67200000D01*
X177050000Y-62800000D02*
X181450000Y-62800000D01*
X177050000Y-67200000D02*
X177050000Y-62800000D01*
X120546267Y-66740000D02*
X120203733Y-66740000D01*
X120546267Y-67760000D02*
X120203733Y-67760000D01*
X150546267Y-66740000D02*
X150203733Y-66740000D01*
X150546267Y-67760000D02*
X150203733Y-67760000D01*
X120546267Y-68490000D02*
X120203733Y-68490000D01*
X120546267Y-69510000D02*
X120203733Y-69510000D01*
X150546267Y-68490000D02*
X150203733Y-68490000D01*
X150546267Y-69510000D02*
X150203733Y-69510000D01*
X120546267Y-70240000D02*
X120203733Y-70240000D01*
X120546267Y-71260000D02*
X120203733Y-71260000D01*
X150546267Y-70240000D02*
X150203733Y-70240000D01*
X150546267Y-71260000D02*
X150203733Y-71260000D01*
X140621267Y-66740000D02*
X140278733Y-66740000D01*
X140621267Y-67760000D02*
X140278733Y-67760000D01*
X140671267Y-68490000D02*
X140328733Y-68490000D01*
X140671267Y-69510000D02*
X140328733Y-69510000D01*
X140671267Y-70240000D02*
X140328733Y-70240000D01*
X140671267Y-71260000D02*
X140328733Y-71260000D01*
X130546267Y-66740000D02*
X130203733Y-66740000D01*
X130546267Y-67760000D02*
X130203733Y-67760000D01*
X130546267Y-68490000D02*
X130203733Y-68490000D01*
X130546267Y-69510000D02*
X130203733Y-69510000D01*
X130546267Y-70240000D02*
X130203733Y-70240000D01*
X130546267Y-71260000D02*
X130203733Y-71260000D01*
X117163748Y-90810000D02*
X117686252Y-90810000D01*
X117163748Y-89390000D02*
X117686252Y-89390000D01*
X139500000Y-45710000D02*
X139250000Y-46210000D01*
X139250000Y-46210000D02*
X139750000Y-46210000D01*
X139750000Y-46210000D02*
X139500000Y-45710000D01*
X124370000Y-64760000D02*
X125300000Y-64760000D01*
X127530000Y-64760000D02*
X126600000Y-64760000D01*
X127530000Y-64760000D02*
X127530000Y-62600000D01*
X124370000Y-64760000D02*
X124370000Y-63300000D01*
X134370000Y-64760000D02*
X134370000Y-63300000D01*
X137530000Y-64760000D02*
X137530000Y-62600000D01*
X137530000Y-64760000D02*
X136600000Y-64760000D01*
X134370000Y-64760000D02*
X135300000Y-64760000D01*
X144370000Y-64760000D02*
X144370000Y-63300000D01*
X147530000Y-64760000D02*
X147530000Y-62600000D01*
X147530000Y-64760000D02*
X146600000Y-64760000D01*
X144370000Y-64760000D02*
X145300000Y-64760000D01*
X154370000Y-64760000D02*
X154370000Y-63300000D01*
X157530000Y-64760000D02*
X157530000Y-62600000D01*
X157530000Y-64760000D02*
X156600000Y-64760000D01*
X154370000Y-64760000D02*
X155300000Y-64760000D01*
X122013748Y-74310000D02*
X122536252Y-74310000D01*
X122013748Y-72890000D02*
X122536252Y-72890000D01*
X123210000Y-84261252D02*
X123210000Y-83738748D01*
X121790000Y-84261252D02*
X121790000Y-83738748D01*
X138990000Y-48203733D02*
X138990000Y-48546267D01*
X140010000Y-48203733D02*
X140010000Y-48546267D01*
X180860000Y-90210000D02*
X180860000Y-89810000D01*
X180220000Y-90210000D02*
X180860000Y-90210000D01*
X173880000Y-84190000D02*
X180620000Y-84190000D01*
X173880000Y-89970000D02*
X180620000Y-89970000D01*
X180620000Y-89970000D02*
X180620000Y-84190000D01*
X173880000Y-89970000D02*
X173880000Y-84190000D01*
X175000000Y-89970000D02*
X175000000Y-84190000D01*
X180100000Y-89970000D02*
X180100000Y-84190000D01*
X179780000Y-76270000D02*
X182720000Y-76270000D01*
X179780000Y-76030000D02*
X182720000Y-76030000D01*
X179780000Y-76150000D02*
X182720000Y-76150000D01*
X181250000Y-70390000D02*
X181250000Y-71610000D01*
X181250000Y-78270000D02*
X181250000Y-77050000D01*
X179780000Y-71610000D02*
X179780000Y-77050000D01*
X182720000Y-71610000D02*
X179780000Y-71610000D01*
X182720000Y-77050000D02*
X182720000Y-71610000D01*
X179780000Y-77050000D02*
X182720000Y-77050000D01*
D10*
X143952380Y-81761904D02*
X144761904Y-81761904D01*
X144857142Y-81714285D01*
X144904761Y-81666666D01*
X144952380Y-81571428D01*
X144952380Y-81380952D01*
X144904761Y-81285714D01*
X144857142Y-81238095D01*
X144761904Y-81190476D01*
X143952380Y-81190476D01*
X143952380Y-80238095D02*
X143952380Y-80714285D01*
X144428571Y-80761904D01*
X144380952Y-80714285D01*
X144333333Y-80619047D01*
X144333333Y-80380952D01*
X144380952Y-80285714D01*
X144428571Y-80238095D01*
X144523809Y-80190476D01*
X144761904Y-80190476D01*
X144857142Y-80238095D01*
X144904761Y-80285714D01*
X144952380Y-80380952D01*
X144952380Y-80619047D01*
X144904761Y-80714285D01*
X144857142Y-80761904D01*
X133952380Y-82011904D02*
X134761904Y-82011904D01*
X134857142Y-81964285D01*
X134904761Y-81916666D01*
X134952380Y-81821428D01*
X134952380Y-81630952D01*
X134904761Y-81535714D01*
X134857142Y-81488095D01*
X134761904Y-81440476D01*
X133952380Y-81440476D01*
X134285714Y-80535714D02*
X134952380Y-80535714D01*
X133904761Y-80773809D02*
X134619047Y-81011904D01*
X134619047Y-80392857D01*
X123952380Y-82011904D02*
X124761904Y-82011904D01*
X124857142Y-81964285D01*
X124904761Y-81916666D01*
X124952380Y-81821428D01*
X124952380Y-81630952D01*
X124904761Y-81535714D01*
X124857142Y-81488095D01*
X124761904Y-81440476D01*
X123952380Y-81440476D01*
X124047619Y-81011904D02*
X124000000Y-80964285D01*
X123952380Y-80869047D01*
X123952380Y-80630952D01*
X124000000Y-80535714D01*
X124047619Y-80488095D01*
X124142857Y-80440476D01*
X124238095Y-80440476D01*
X124380952Y-80488095D01*
X124952380Y-81059523D01*
X124952380Y-80440476D01*
X113952380Y-82011904D02*
X114761904Y-82011904D01*
X114857142Y-81964285D01*
X114904761Y-81916666D01*
X114952380Y-81821428D01*
X114952380Y-81630952D01*
X114904761Y-81535714D01*
X114857142Y-81488095D01*
X114761904Y-81440476D01*
X113952380Y-81440476D01*
X114952380Y-80440476D02*
X114952380Y-81011904D01*
X114952380Y-80726190D02*
X113952380Y-80726190D01*
X114095238Y-80821428D01*
X114190476Y-80916666D01*
X114238095Y-81011904D01*
X186858571Y-78833333D02*
X186858571Y-79166666D01*
X187382380Y-79166666D02*
X186382380Y-79166666D01*
X186382380Y-78690476D01*
X186858571Y-77976190D02*
X186906190Y-77833333D01*
X186953809Y-77785714D01*
X187049047Y-77738095D01*
X187191904Y-77738095D01*
X187287142Y-77785714D01*
X187334761Y-77833333D01*
X187382380Y-77928571D01*
X187382380Y-78309523D01*
X186382380Y-78309523D01*
X186382380Y-77976190D01*
X186430000Y-77880952D01*
X186477619Y-77833333D01*
X186572857Y-77785714D01*
X186668095Y-77785714D01*
X186763333Y-77833333D01*
X186810952Y-77880952D01*
X186858571Y-77976190D01*
X186858571Y-78309523D01*
X187382380Y-76785714D02*
X187382380Y-77357142D01*
X187382380Y-77071428D02*
X186382380Y-77071428D01*
X186525238Y-77166666D01*
X186620476Y-77261904D01*
X186668095Y-77357142D01*
X149440476Y-63702380D02*
X149440476Y-64416666D01*
X149392857Y-64559523D01*
X149297619Y-64654761D01*
X149154761Y-64702380D01*
X149059523Y-64702380D01*
X150440476Y-64702380D02*
X149869047Y-64702380D01*
X150154761Y-64702380D02*
X150154761Y-63702380D01*
X150059523Y-63845238D01*
X149964285Y-63940476D01*
X149869047Y-63988095D01*
X151392857Y-64702380D02*
X150821428Y-64702380D01*
X151107142Y-64702380D02*
X151107142Y-63702380D01*
X151011904Y-63845238D01*
X150916666Y-63940476D01*
X150821428Y-63988095D01*
X155511904Y-74916666D02*
X155988095Y-74916666D01*
X155416666Y-75202380D02*
X155750000Y-74202380D01*
X156083333Y-75202380D01*
X155892857Y-69678571D02*
X155559523Y-69678571D01*
X155559523Y-70202380D02*
X155559523Y-69202380D01*
X156035714Y-69202380D01*
X142940476Y-63452380D02*
X142940476Y-64166666D01*
X142892857Y-64309523D01*
X142797619Y-64404761D01*
X142654761Y-64452380D01*
X142559523Y-64452380D01*
X143940476Y-64452380D02*
X143369047Y-64452380D01*
X143654761Y-64452380D02*
X143654761Y-63452380D01*
X143559523Y-63595238D01*
X143464285Y-63690476D01*
X143369047Y-63738095D01*
X144797619Y-63785714D02*
X144797619Y-64452380D01*
X144559523Y-63404761D02*
X144321428Y-64119047D01*
X144940476Y-64119047D01*
X145511904Y-74916666D02*
X145988095Y-74916666D01*
X145416666Y-75202380D02*
X145750000Y-74202380D01*
X146083333Y-75202380D01*
X143559523Y-70107142D02*
X143511904Y-70154761D01*
X143369047Y-70202380D01*
X143273809Y-70202380D01*
X143130952Y-70154761D01*
X143035714Y-70059523D01*
X142988095Y-69964285D01*
X142940476Y-69773809D01*
X142940476Y-69630952D01*
X142988095Y-69440476D01*
X143035714Y-69345238D01*
X143130952Y-69250000D01*
X143273809Y-69202380D01*
X143369047Y-69202380D01*
X143511904Y-69250000D01*
X143559523Y-69297619D01*
X145892857Y-69678571D02*
X145559523Y-69678571D01*
X145559523Y-70202380D02*
X145559523Y-69202380D01*
X146035714Y-69202380D01*
X129440476Y-63702380D02*
X129440476Y-64416666D01*
X129392857Y-64559523D01*
X129297619Y-64654761D01*
X129154761Y-64702380D01*
X129059523Y-64702380D01*
X130440476Y-64702380D02*
X129869047Y-64702380D01*
X130154761Y-64702380D02*
X130154761Y-63702380D01*
X130059523Y-63845238D01*
X129964285Y-63940476D01*
X129869047Y-63988095D01*
X130821428Y-63797619D02*
X130869047Y-63750000D01*
X130964285Y-63702380D01*
X131202380Y-63702380D01*
X131297619Y-63750000D01*
X131345238Y-63797619D01*
X131392857Y-63892857D01*
X131392857Y-63988095D01*
X131345238Y-64130952D01*
X130773809Y-64702380D01*
X131392857Y-64702380D01*
X135511904Y-74916666D02*
X135988095Y-74916666D01*
X135416666Y-75202380D02*
X135750000Y-74202380D01*
X136083333Y-75202380D01*
X135892857Y-69678571D02*
X135559523Y-69678571D01*
X135559523Y-70202380D02*
X135559523Y-69202380D01*
X136035714Y-69202380D01*
X121440476Y-63702380D02*
X121440476Y-64416666D01*
X121392857Y-64559523D01*
X121297619Y-64654761D01*
X121154761Y-64702380D01*
X121059523Y-64702380D01*
X122440476Y-64702380D02*
X121869047Y-64702380D01*
X122154761Y-64702380D02*
X122154761Y-63702380D01*
X122059523Y-63845238D01*
X121964285Y-63940476D01*
X121869047Y-63988095D01*
X123297619Y-63702380D02*
X123107142Y-63702380D01*
X123011904Y-63750000D01*
X122964285Y-63797619D01*
X122869047Y-63940476D01*
X122821428Y-64130952D01*
X122821428Y-64511904D01*
X122869047Y-64607142D01*
X122916666Y-64654761D01*
X123011904Y-64702380D01*
X123202380Y-64702380D01*
X123297619Y-64654761D01*
X123345238Y-64607142D01*
X123392857Y-64511904D01*
X123392857Y-64273809D01*
X123345238Y-64178571D01*
X123297619Y-64130952D01*
X123202380Y-64083333D01*
X123011904Y-64083333D01*
X122916666Y-64130952D01*
X122869047Y-64178571D01*
X122821428Y-64273809D01*
X125511904Y-74916666D02*
X125988095Y-74916666D01*
X125416666Y-75202380D02*
X125750000Y-74202380D01*
X126083333Y-75202380D01*
X125892857Y-69678571D02*
X125559523Y-69678571D01*
X125559523Y-70202380D02*
X125559523Y-69202380D01*
X126035714Y-69202380D01*
X145357142Y-49882380D02*
X145023809Y-49406190D01*
X144785714Y-49882380D02*
X144785714Y-48882380D01*
X145166666Y-48882380D01*
X145261904Y-48930000D01*
X145309523Y-48977619D01*
X145357142Y-49072857D01*
X145357142Y-49215714D01*
X145309523Y-49310952D01*
X145261904Y-49358571D01*
X145166666Y-49406190D01*
X144785714Y-49406190D01*
X146309523Y-49882380D02*
X145738095Y-49882380D01*
X146023809Y-49882380D02*
X146023809Y-48882380D01*
X145928571Y-49025238D01*
X145833333Y-49120476D01*
X145738095Y-49168095D01*
X147166666Y-49215714D02*
X147166666Y-49882380D01*
X146928571Y-48834761D02*
X146690476Y-49549047D01*
X147309523Y-49549047D01*
X103428571Y-70938571D02*
X103095238Y-70938571D01*
X103095238Y-71462380D02*
X103095238Y-70462380D01*
X103571428Y-70462380D01*
X103952380Y-71462380D02*
X103952380Y-70462380D01*
X104428571Y-71462380D02*
X104428571Y-70462380D01*
X104666666Y-70462380D01*
X104809523Y-70510000D01*
X104904761Y-70605238D01*
X104952380Y-70700476D01*
X105000000Y-70890952D01*
X105000000Y-71033809D01*
X104952380Y-71224285D01*
X104904761Y-71319523D01*
X104809523Y-71414761D01*
X104666666Y-71462380D01*
X104428571Y-71462380D01*
X105857142Y-70795714D02*
X105857142Y-71462380D01*
X105619047Y-70414761D02*
X105380952Y-71129047D01*
X106000000Y-71129047D01*
X184928571Y-57388571D02*
X184595238Y-57388571D01*
X184595238Y-57912380D02*
X184595238Y-56912380D01*
X185071428Y-56912380D01*
X185452380Y-57912380D02*
X185452380Y-56912380D01*
X185928571Y-57912380D02*
X185928571Y-56912380D01*
X186166666Y-56912380D01*
X186309523Y-56960000D01*
X186404761Y-57055238D01*
X186452380Y-57150476D01*
X186500000Y-57340952D01*
X186500000Y-57483809D01*
X186452380Y-57674285D01*
X186404761Y-57769523D01*
X186309523Y-57864761D01*
X186166666Y-57912380D01*
X185928571Y-57912380D01*
X186833333Y-56912380D02*
X187452380Y-56912380D01*
X187119047Y-57293333D01*
X187261904Y-57293333D01*
X187357142Y-57340952D01*
X187404761Y-57388571D01*
X187452380Y-57483809D01*
X187452380Y-57721904D01*
X187404761Y-57817142D01*
X187357142Y-57864761D01*
X187261904Y-57912380D01*
X186976190Y-57912380D01*
X186880952Y-57864761D01*
X186833333Y-57817142D01*
X158928571Y-94388571D02*
X158595238Y-94388571D01*
X158595238Y-94912380D02*
X158595238Y-93912380D01*
X159071428Y-93912380D01*
X159452380Y-94912380D02*
X159452380Y-93912380D01*
X159928571Y-94912380D02*
X159928571Y-93912380D01*
X160166666Y-93912380D01*
X160309523Y-93960000D01*
X160404761Y-94055238D01*
X160452380Y-94150476D01*
X160500000Y-94340952D01*
X160500000Y-94483809D01*
X160452380Y-94674285D01*
X160404761Y-94769523D01*
X160309523Y-94864761D01*
X160166666Y-94912380D01*
X159928571Y-94912380D01*
X160880952Y-94007619D02*
X160928571Y-93960000D01*
X161023809Y-93912380D01*
X161261904Y-93912380D01*
X161357142Y-93960000D01*
X161404761Y-94007619D01*
X161452380Y-94102857D01*
X161452380Y-94198095D01*
X161404761Y-94340952D01*
X160833333Y-94912380D01*
X161452380Y-94912380D01*
X185928571Y-91388571D02*
X185595238Y-91388571D01*
X185595238Y-91912380D02*
X185595238Y-90912380D01*
X186071428Y-90912380D01*
X186452380Y-91912380D02*
X186452380Y-90912380D01*
X186928571Y-91912380D02*
X186928571Y-90912380D01*
X187166666Y-90912380D01*
X187309523Y-90960000D01*
X187404761Y-91055238D01*
X187452380Y-91150476D01*
X187500000Y-91340952D01*
X187500000Y-91483809D01*
X187452380Y-91674285D01*
X187404761Y-91769523D01*
X187309523Y-91864761D01*
X187166666Y-91912380D01*
X186928571Y-91912380D01*
X188452380Y-91912380D02*
X187880952Y-91912380D01*
X188166666Y-91912380D02*
X188166666Y-90912380D01*
X188071428Y-91055238D01*
X187976190Y-91150476D01*
X187880952Y-91198095D01*
X163452380Y-73011904D02*
X164261904Y-73011904D01*
X164357142Y-72964285D01*
X164404761Y-72916666D01*
X164452380Y-72821428D01*
X164452380Y-72630952D01*
X164404761Y-72535714D01*
X164357142Y-72488095D01*
X164261904Y-72440476D01*
X163452380Y-72440476D01*
X163452380Y-72059523D02*
X163452380Y-71440476D01*
X163833333Y-71773809D01*
X163833333Y-71630952D01*
X163880952Y-71535714D01*
X163928571Y-71488095D01*
X164023809Y-71440476D01*
X164261904Y-71440476D01*
X164357142Y-71488095D01*
X164404761Y-71535714D01*
X164452380Y-71630952D01*
X164452380Y-71916666D01*
X164404761Y-72011904D01*
X164357142Y-72059523D01*
X173928571Y-74663333D02*
X173928571Y-74996666D01*
X174452380Y-74996666D02*
X173452380Y-74996666D01*
X173452380Y-74520476D01*
X174452380Y-73615714D02*
X174452380Y-74187142D01*
X174452380Y-73901428D02*
X173452380Y-73901428D01*
X173595238Y-73996666D01*
X173690476Y-74091904D01*
X173738095Y-74187142D01*
X148990476Y-100702380D02*
X149447619Y-100702380D01*
X149219047Y-101702380D02*
X149219047Y-100702380D01*
X149714285Y-101702380D02*
X149714285Y-100702380D01*
X150019047Y-100702380D01*
X150095238Y-100750000D01*
X150133333Y-100797619D01*
X150171428Y-100892857D01*
X150171428Y-101035714D01*
X150133333Y-101130952D01*
X150095238Y-101178571D01*
X150019047Y-101226190D01*
X149714285Y-101226190D01*
X150857142Y-101035714D02*
X150857142Y-101702380D01*
X150666666Y-100654761D02*
X150476190Y-101369047D01*
X150971428Y-101369047D01*
X138990476Y-100702380D02*
X139447619Y-100702380D01*
X139219047Y-101702380D02*
X139219047Y-100702380D01*
X139714285Y-101702380D02*
X139714285Y-100702380D01*
X140019047Y-100702380D01*
X140095238Y-100750000D01*
X140133333Y-100797619D01*
X140171428Y-100892857D01*
X140171428Y-101035714D01*
X140133333Y-101130952D01*
X140095238Y-101178571D01*
X140019047Y-101226190D01*
X139714285Y-101226190D01*
X140438095Y-100702380D02*
X140933333Y-100702380D01*
X140666666Y-101083333D01*
X140780952Y-101083333D01*
X140857142Y-101130952D01*
X140895238Y-101178571D01*
X140933333Y-101273809D01*
X140933333Y-101511904D01*
X140895238Y-101607142D01*
X140857142Y-101654761D01*
X140780952Y-101702380D01*
X140552380Y-101702380D01*
X140476190Y-101654761D01*
X140438095Y-101607142D01*
X128990476Y-100702380D02*
X129447619Y-100702380D01*
X129219047Y-101702380D02*
X129219047Y-100702380D01*
X129714285Y-101702380D02*
X129714285Y-100702380D01*
X130019047Y-100702380D01*
X130095238Y-100750000D01*
X130133333Y-100797619D01*
X130171428Y-100892857D01*
X130171428Y-101035714D01*
X130133333Y-101130952D01*
X130095238Y-101178571D01*
X130019047Y-101226190D01*
X129714285Y-101226190D01*
X130476190Y-100797619D02*
X130514285Y-100750000D01*
X130590476Y-100702380D01*
X130780952Y-100702380D01*
X130857142Y-100750000D01*
X130895238Y-100797619D01*
X130933333Y-100892857D01*
X130933333Y-100988095D01*
X130895238Y-101130952D01*
X130438095Y-101702380D01*
X130933333Y-101702380D01*
X119240476Y-100702380D02*
X119697619Y-100702380D01*
X119469047Y-101702380D02*
X119469047Y-100702380D01*
X119964285Y-101702380D02*
X119964285Y-100702380D01*
X120269047Y-100702380D01*
X120345238Y-100750000D01*
X120383333Y-100797619D01*
X120421428Y-100892857D01*
X120421428Y-101035714D01*
X120383333Y-101130952D01*
X120345238Y-101178571D01*
X120269047Y-101226190D01*
X119964285Y-101226190D01*
X121183333Y-101702380D02*
X120726190Y-101702380D01*
X120954761Y-101702380D02*
X120954761Y-100702380D01*
X120878571Y-100845238D01*
X120802380Y-100940476D01*
X120726190Y-100988095D01*
X154252380Y-96095238D02*
X153776190Y-96428571D01*
X154252380Y-96666666D02*
X153252380Y-96666666D01*
X153252380Y-96285714D01*
X153300000Y-96190476D01*
X153347619Y-96142857D01*
X153442857Y-96095238D01*
X153585714Y-96095238D01*
X153680952Y-96142857D01*
X153728571Y-96190476D01*
X153776190Y-96285714D01*
X153776190Y-96666666D01*
X153252380Y-95809523D02*
X154252380Y-95476190D01*
X153252380Y-95142857D01*
X153252380Y-94380952D02*
X153252380Y-94571428D01*
X153300000Y-94666666D01*
X153347619Y-94714285D01*
X153490476Y-94809523D01*
X153680952Y-94857142D01*
X154061904Y-94857142D01*
X154157142Y-94809523D01*
X154204761Y-94761904D01*
X154252380Y-94666666D01*
X154252380Y-94476190D01*
X154204761Y-94380952D01*
X154157142Y-94333333D01*
X154061904Y-94285714D01*
X153823809Y-94285714D01*
X153728571Y-94333333D01*
X153680952Y-94380952D01*
X153633333Y-94476190D01*
X153633333Y-94666666D01*
X153680952Y-94761904D01*
X153728571Y-94809523D01*
X153823809Y-94857142D01*
X151657142Y-81382142D02*
X151609523Y-81429761D01*
X151466666Y-81477380D01*
X151371428Y-81477380D01*
X151228571Y-81429761D01*
X151133333Y-81334523D01*
X151085714Y-81239285D01*
X151038095Y-81048809D01*
X151038095Y-80905952D01*
X151085714Y-80715476D01*
X151133333Y-80620238D01*
X151228571Y-80525000D01*
X151371428Y-80477380D01*
X151466666Y-80477380D01*
X151609523Y-80525000D01*
X151657142Y-80572619D01*
X152609523Y-81477380D02*
X152038095Y-81477380D01*
X152323809Y-81477380D02*
X152323809Y-80477380D01*
X152228571Y-80620238D01*
X152133333Y-80715476D01*
X152038095Y-80763095D01*
X153085714Y-81477380D02*
X153276190Y-81477380D01*
X153371428Y-81429761D01*
X153419047Y-81382142D01*
X153514285Y-81239285D01*
X153561904Y-81048809D01*
X153561904Y-80667857D01*
X153514285Y-80572619D01*
X153466666Y-80525000D01*
X153371428Y-80477380D01*
X153180952Y-80477380D01*
X153085714Y-80525000D01*
X153038095Y-80572619D01*
X152990476Y-80667857D01*
X152990476Y-80905952D01*
X153038095Y-81001190D01*
X153085714Y-81048809D01*
X153180952Y-81096428D01*
X153371428Y-81096428D01*
X153466666Y-81048809D01*
X153514285Y-81001190D01*
X153561904Y-80905952D01*
X146782142Y-92352380D02*
X146448809Y-91876190D01*
X146210714Y-92352380D02*
X146210714Y-91352380D01*
X146591666Y-91352380D01*
X146686904Y-91400000D01*
X146734523Y-91447619D01*
X146782142Y-91542857D01*
X146782142Y-91685714D01*
X146734523Y-91780952D01*
X146686904Y-91828571D01*
X146591666Y-91876190D01*
X146210714Y-91876190D01*
X147734523Y-92352380D02*
X147163095Y-92352380D01*
X147448809Y-92352380D02*
X147448809Y-91352380D01*
X147353571Y-91495238D01*
X147258333Y-91590476D01*
X147163095Y-91638095D01*
X148353571Y-91352380D02*
X148448809Y-91352380D01*
X148544047Y-91400000D01*
X148591666Y-91447619D01*
X148639285Y-91542857D01*
X148686904Y-91733333D01*
X148686904Y-91971428D01*
X148639285Y-92161904D01*
X148591666Y-92257142D01*
X148544047Y-92304761D01*
X148448809Y-92352380D01*
X148353571Y-92352380D01*
X148258333Y-92304761D01*
X148210714Y-92257142D01*
X148163095Y-92161904D01*
X148115476Y-91971428D01*
X148115476Y-91733333D01*
X148163095Y-91542857D01*
X148210714Y-91447619D01*
X148258333Y-91400000D01*
X148353571Y-91352380D01*
X151002380Y-90416666D02*
X150526190Y-90750000D01*
X151002380Y-90988095D02*
X150002380Y-90988095D01*
X150002380Y-90607142D01*
X150050000Y-90511904D01*
X150097619Y-90464285D01*
X150192857Y-90416666D01*
X150335714Y-90416666D01*
X150430952Y-90464285D01*
X150478571Y-90511904D01*
X150526190Y-90607142D01*
X150526190Y-90988095D01*
X150335714Y-89559523D02*
X151002380Y-89559523D01*
X149954761Y-89797619D02*
X150669047Y-90035714D01*
X150669047Y-89416666D01*
X144252380Y-96095238D02*
X143776190Y-96428571D01*
X144252380Y-96666666D02*
X143252380Y-96666666D01*
X143252380Y-96285714D01*
X143300000Y-96190476D01*
X143347619Y-96142857D01*
X143442857Y-96095238D01*
X143585714Y-96095238D01*
X143680952Y-96142857D01*
X143728571Y-96190476D01*
X143776190Y-96285714D01*
X143776190Y-96666666D01*
X143252380Y-95809523D02*
X144252380Y-95476190D01*
X143252380Y-95142857D01*
X143585714Y-94380952D02*
X144252380Y-94380952D01*
X143204761Y-94619047D02*
X143919047Y-94857142D01*
X143919047Y-94238095D01*
X141657142Y-81382142D02*
X141609523Y-81429761D01*
X141466666Y-81477380D01*
X141371428Y-81477380D01*
X141228571Y-81429761D01*
X141133333Y-81334523D01*
X141085714Y-81239285D01*
X141038095Y-81048809D01*
X141038095Y-80905952D01*
X141085714Y-80715476D01*
X141133333Y-80620238D01*
X141228571Y-80525000D01*
X141371428Y-80477380D01*
X141466666Y-80477380D01*
X141609523Y-80525000D01*
X141657142Y-80572619D01*
X142609523Y-81477380D02*
X142038095Y-81477380D01*
X142323809Y-81477380D02*
X142323809Y-80477380D01*
X142228571Y-80620238D01*
X142133333Y-80715476D01*
X142038095Y-80763095D01*
X142942857Y-80477380D02*
X143561904Y-80477380D01*
X143228571Y-80858333D01*
X143371428Y-80858333D01*
X143466666Y-80905952D01*
X143514285Y-80953571D01*
X143561904Y-81048809D01*
X143561904Y-81286904D01*
X143514285Y-81382142D01*
X143466666Y-81429761D01*
X143371428Y-81477380D01*
X143085714Y-81477380D01*
X142990476Y-81429761D01*
X142942857Y-81382142D01*
X137258333Y-92352380D02*
X136925000Y-91876190D01*
X136686904Y-92352380D02*
X136686904Y-91352380D01*
X137067857Y-91352380D01*
X137163095Y-91400000D01*
X137210714Y-91447619D01*
X137258333Y-91542857D01*
X137258333Y-91685714D01*
X137210714Y-91780952D01*
X137163095Y-91828571D01*
X137067857Y-91876190D01*
X136686904Y-91876190D01*
X137591666Y-91352380D02*
X138258333Y-91352380D01*
X137829761Y-92352380D01*
X141002380Y-90416666D02*
X140526190Y-90750000D01*
X141002380Y-90988095D02*
X140002380Y-90988095D01*
X140002380Y-90607142D01*
X140050000Y-90511904D01*
X140097619Y-90464285D01*
X140192857Y-90416666D01*
X140335714Y-90416666D01*
X140430952Y-90464285D01*
X140478571Y-90511904D01*
X140526190Y-90607142D01*
X140526190Y-90988095D01*
X140097619Y-90035714D02*
X140050000Y-89988095D01*
X140002380Y-89892857D01*
X140002380Y-89654761D01*
X140050000Y-89559523D01*
X140097619Y-89511904D01*
X140192857Y-89464285D01*
X140288095Y-89464285D01*
X140430952Y-89511904D01*
X141002380Y-90083333D01*
X141002380Y-89464285D01*
X134252380Y-96095238D02*
X133776190Y-96428571D01*
X134252380Y-96666666D02*
X133252380Y-96666666D01*
X133252380Y-96285714D01*
X133300000Y-96190476D01*
X133347619Y-96142857D01*
X133442857Y-96095238D01*
X133585714Y-96095238D01*
X133680952Y-96142857D01*
X133728571Y-96190476D01*
X133776190Y-96285714D01*
X133776190Y-96666666D01*
X133252380Y-95809523D02*
X134252380Y-95476190D01*
X133252380Y-95142857D01*
X133347619Y-94857142D02*
X133300000Y-94809523D01*
X133252380Y-94714285D01*
X133252380Y-94476190D01*
X133300000Y-94380952D01*
X133347619Y-94333333D01*
X133442857Y-94285714D01*
X133538095Y-94285714D01*
X133680952Y-94333333D01*
X134252380Y-94904761D01*
X134252380Y-94285714D01*
X132133333Y-81382142D02*
X132085714Y-81429761D01*
X131942857Y-81477380D01*
X131847619Y-81477380D01*
X131704761Y-81429761D01*
X131609523Y-81334523D01*
X131561904Y-81239285D01*
X131514285Y-81048809D01*
X131514285Y-80905952D01*
X131561904Y-80715476D01*
X131609523Y-80620238D01*
X131704761Y-80525000D01*
X131847619Y-80477380D01*
X131942857Y-80477380D01*
X132085714Y-80525000D01*
X132133333Y-80572619D01*
X132990476Y-80810714D02*
X132990476Y-81477380D01*
X132752380Y-80429761D02*
X132514285Y-81144047D01*
X133133333Y-81144047D01*
X127258333Y-92352380D02*
X126925000Y-91876190D01*
X126686904Y-92352380D02*
X126686904Y-91352380D01*
X127067857Y-91352380D01*
X127163095Y-91400000D01*
X127210714Y-91447619D01*
X127258333Y-91542857D01*
X127258333Y-91685714D01*
X127210714Y-91780952D01*
X127163095Y-91828571D01*
X127067857Y-91876190D01*
X126686904Y-91876190D01*
X128163095Y-91352380D02*
X127686904Y-91352380D01*
X127639285Y-91828571D01*
X127686904Y-91780952D01*
X127782142Y-91733333D01*
X128020238Y-91733333D01*
X128115476Y-91780952D01*
X128163095Y-91828571D01*
X128210714Y-91923809D01*
X128210714Y-92161904D01*
X128163095Y-92257142D01*
X128115476Y-92304761D01*
X128020238Y-92352380D01*
X127782142Y-92352380D01*
X127686904Y-92304761D01*
X127639285Y-92257142D01*
X131002380Y-90416666D02*
X130526190Y-90750000D01*
X131002380Y-90988095D02*
X130002380Y-90988095D01*
X130002380Y-90607142D01*
X130050000Y-90511904D01*
X130097619Y-90464285D01*
X130192857Y-90416666D01*
X130335714Y-90416666D01*
X130430952Y-90464285D01*
X130478571Y-90511904D01*
X130526190Y-90607142D01*
X130526190Y-90988095D01*
X131002380Y-89464285D02*
X131002380Y-90035714D01*
X131002380Y-89750000D02*
X130002380Y-89750000D01*
X130145238Y-89845238D01*
X130240476Y-89940476D01*
X130288095Y-90035714D01*
X121002380Y-90892857D02*
X120526190Y-91226190D01*
X121002380Y-91464285D02*
X120002380Y-91464285D01*
X120002380Y-91083333D01*
X120050000Y-90988095D01*
X120097619Y-90940476D01*
X120192857Y-90892857D01*
X120335714Y-90892857D01*
X120430952Y-90940476D01*
X120478571Y-90988095D01*
X120526190Y-91083333D01*
X120526190Y-91464285D01*
X121002380Y-89940476D02*
X121002380Y-90511904D01*
X121002380Y-90226190D02*
X120002380Y-90226190D01*
X120145238Y-90321428D01*
X120240476Y-90416666D01*
X120288095Y-90511904D01*
X120002380Y-89035714D02*
X120002380Y-89511904D01*
X120478571Y-89559523D01*
X120430952Y-89511904D01*
X120383333Y-89416666D01*
X120383333Y-89178571D01*
X120430952Y-89083333D01*
X120478571Y-89035714D01*
X120573809Y-88988095D01*
X120811904Y-88988095D01*
X120907142Y-89035714D01*
X120954761Y-89083333D01*
X121002380Y-89178571D01*
X121002380Y-89416666D01*
X120954761Y-89511904D01*
X120907142Y-89559523D01*
D17*
X155178571Y-74157142D02*
X155154761Y-74204761D01*
X155083333Y-74252380D01*
X155035714Y-74252380D01*
X154964285Y-74204761D01*
X154916666Y-74109523D01*
X154892857Y-74014285D01*
X154869047Y-73823809D01*
X154869047Y-73680952D01*
X154892857Y-73490476D01*
X154916666Y-73395238D01*
X154964285Y-73300000D01*
X155035714Y-73252380D01*
X155083333Y-73252380D01*
X155154761Y-73300000D01*
X155178571Y-73347619D01*
X155369047Y-73347619D02*
X155392857Y-73300000D01*
X155440476Y-73252380D01*
X155559523Y-73252380D01*
X155607142Y-73300000D01*
X155630952Y-73347619D01*
X155654761Y-73442857D01*
X155654761Y-73538095D01*
X155630952Y-73680952D01*
X155345238Y-74252380D01*
X155654761Y-74252380D01*
X156083333Y-73585714D02*
X156083333Y-74252380D01*
X155964285Y-73204761D02*
X155845238Y-73919047D01*
X156154761Y-73919047D01*
X145678571Y-73957142D02*
X145654761Y-74004761D01*
X145583333Y-74052380D01*
X145535714Y-74052380D01*
X145464285Y-74004761D01*
X145416666Y-73909523D01*
X145392857Y-73814285D01*
X145369047Y-73623809D01*
X145369047Y-73480952D01*
X145392857Y-73290476D01*
X145416666Y-73195238D01*
X145464285Y-73100000D01*
X145535714Y-73052380D01*
X145583333Y-73052380D01*
X145654761Y-73100000D01*
X145678571Y-73147619D01*
X145869047Y-73147619D02*
X145892857Y-73100000D01*
X145940476Y-73052380D01*
X146059523Y-73052380D01*
X146107142Y-73100000D01*
X146130952Y-73147619D01*
X146154761Y-73242857D01*
X146154761Y-73338095D01*
X146130952Y-73480952D01*
X145845238Y-74052380D01*
X146154761Y-74052380D01*
X146321428Y-73052380D02*
X146630952Y-73052380D01*
X146464285Y-73433333D01*
X146535714Y-73433333D01*
X146583333Y-73480952D01*
X146607142Y-73528571D01*
X146630952Y-73623809D01*
X146630952Y-73861904D01*
X146607142Y-73957142D01*
X146583333Y-74004761D01*
X146535714Y-74052380D01*
X146392857Y-74052380D01*
X146345238Y-74004761D01*
X146321428Y-73957142D01*
X135478571Y-73957142D02*
X135454761Y-74004761D01*
X135383333Y-74052380D01*
X135335714Y-74052380D01*
X135264285Y-74004761D01*
X135216666Y-73909523D01*
X135192857Y-73814285D01*
X135169047Y-73623809D01*
X135169047Y-73480952D01*
X135192857Y-73290476D01*
X135216666Y-73195238D01*
X135264285Y-73100000D01*
X135335714Y-73052380D01*
X135383333Y-73052380D01*
X135454761Y-73100000D01*
X135478571Y-73147619D01*
X135669047Y-73147619D02*
X135692857Y-73100000D01*
X135740476Y-73052380D01*
X135859523Y-73052380D01*
X135907142Y-73100000D01*
X135930952Y-73147619D01*
X135954761Y-73242857D01*
X135954761Y-73338095D01*
X135930952Y-73480952D01*
X135645238Y-74052380D01*
X135954761Y-74052380D01*
X136264285Y-73052380D02*
X136311904Y-73052380D01*
X136359523Y-73100000D01*
X136383333Y-73147619D01*
X136407142Y-73242857D01*
X136430952Y-73433333D01*
X136430952Y-73671428D01*
X136407142Y-73861904D01*
X136383333Y-73957142D01*
X136359523Y-74004761D01*
X136311904Y-74052380D01*
X136264285Y-74052380D01*
X136216666Y-74004761D01*
X136192857Y-73957142D01*
X136169047Y-73861904D01*
X136145238Y-73671428D01*
X136145238Y-73433333D01*
X136169047Y-73242857D01*
X136192857Y-73147619D01*
X136216666Y-73100000D01*
X136264285Y-73052380D01*
D10*
X159690476Y-45912380D02*
X159690476Y-46626666D01*
X159642857Y-46769523D01*
X159547619Y-46864761D01*
X159404761Y-46912380D01*
X159309523Y-46912380D01*
X160119047Y-46007619D02*
X160166666Y-45960000D01*
X160261904Y-45912380D01*
X160500000Y-45912380D01*
X160595238Y-45960000D01*
X160642857Y-46007619D01*
X160690476Y-46102857D01*
X160690476Y-46198095D01*
X160642857Y-46340952D01*
X160071428Y-46912380D01*
X160690476Y-46912380D01*
X161642857Y-46912380D02*
X161071428Y-46912380D01*
X161357142Y-46912380D02*
X161357142Y-45912380D01*
X161261904Y-46055238D01*
X161166666Y-46150476D01*
X161071428Y-46198095D01*
D17*
X144078571Y-72357142D02*
X144054761Y-72404761D01*
X143983333Y-72452380D01*
X143935714Y-72452380D01*
X143864285Y-72404761D01*
X143816666Y-72309523D01*
X143792857Y-72214285D01*
X143769047Y-72023809D01*
X143769047Y-71880952D01*
X143792857Y-71690476D01*
X143816666Y-71595238D01*
X143864285Y-71500000D01*
X143935714Y-71452380D01*
X143983333Y-71452380D01*
X144054761Y-71500000D01*
X144078571Y-71547619D01*
X144554761Y-72452380D02*
X144269047Y-72452380D01*
X144411904Y-72452380D02*
X144411904Y-71452380D01*
X144364285Y-71595238D01*
X144316666Y-71690476D01*
X144269047Y-71738095D01*
X144983333Y-71785714D02*
X144983333Y-72452380D01*
X144864285Y-71404761D02*
X144745238Y-72119047D01*
X145054761Y-72119047D01*
X124178571Y-72327142D02*
X124154761Y-72374761D01*
X124083333Y-72422380D01*
X124035714Y-72422380D01*
X123964285Y-72374761D01*
X123916666Y-72279523D01*
X123892857Y-72184285D01*
X123869047Y-71993809D01*
X123869047Y-71850952D01*
X123892857Y-71660476D01*
X123916666Y-71565238D01*
X123964285Y-71470000D01*
X124035714Y-71422380D01*
X124083333Y-71422380D01*
X124154761Y-71470000D01*
X124178571Y-71517619D01*
X124654761Y-72422380D02*
X124369047Y-72422380D01*
X124511904Y-72422380D02*
X124511904Y-71422380D01*
X124464285Y-71565238D01*
X124416666Y-71660476D01*
X124369047Y-71708095D01*
X124845238Y-71517619D02*
X124869047Y-71470000D01*
X124916666Y-71422380D01*
X125035714Y-71422380D01*
X125083333Y-71470000D01*
X125107142Y-71517619D01*
X125130952Y-71612857D01*
X125130952Y-71708095D01*
X125107142Y-71850952D01*
X124821428Y-72422380D01*
X125130952Y-72422380D01*
X153916666Y-72607142D02*
X153892857Y-72654761D01*
X153821428Y-72702380D01*
X153773809Y-72702380D01*
X153702380Y-72654761D01*
X153654761Y-72559523D01*
X153630952Y-72464285D01*
X153607142Y-72273809D01*
X153607142Y-72130952D01*
X153630952Y-71940476D01*
X153654761Y-71845238D01*
X153702380Y-71750000D01*
X153773809Y-71702380D01*
X153821428Y-71702380D01*
X153892857Y-71750000D01*
X153916666Y-71797619D01*
X154154761Y-72702380D02*
X154250000Y-72702380D01*
X154297619Y-72654761D01*
X154321428Y-72607142D01*
X154369047Y-72464285D01*
X154392857Y-72273809D01*
X154392857Y-71892857D01*
X154369047Y-71797619D01*
X154345238Y-71750000D01*
X154297619Y-71702380D01*
X154202380Y-71702380D01*
X154154761Y-71750000D01*
X154130952Y-71797619D01*
X154107142Y-71892857D01*
X154107142Y-72130952D01*
X154130952Y-72226190D01*
X154154761Y-72273809D01*
X154202380Y-72321428D01*
X154297619Y-72321428D01*
X154345238Y-72273809D01*
X154369047Y-72226190D01*
X154392857Y-72130952D01*
X133916666Y-72357142D02*
X133892857Y-72404761D01*
X133821428Y-72452380D01*
X133773809Y-72452380D01*
X133702380Y-72404761D01*
X133654761Y-72309523D01*
X133630952Y-72214285D01*
X133607142Y-72023809D01*
X133607142Y-71880952D01*
X133630952Y-71690476D01*
X133654761Y-71595238D01*
X133702380Y-71500000D01*
X133773809Y-71452380D01*
X133821428Y-71452380D01*
X133892857Y-71500000D01*
X133916666Y-71547619D01*
X134202380Y-71880952D02*
X134154761Y-71833333D01*
X134130952Y-71785714D01*
X134107142Y-71690476D01*
X134107142Y-71642857D01*
X134130952Y-71547619D01*
X134154761Y-71500000D01*
X134202380Y-71452380D01*
X134297619Y-71452380D01*
X134345238Y-71500000D01*
X134369047Y-71547619D01*
X134392857Y-71642857D01*
X134392857Y-71690476D01*
X134369047Y-71785714D01*
X134345238Y-71833333D01*
X134297619Y-71880952D01*
X134202380Y-71880952D01*
X134154761Y-71928571D01*
X134130952Y-71976190D01*
X134107142Y-72071428D01*
X134107142Y-72261904D01*
X134130952Y-72357142D01*
X134154761Y-72404761D01*
X134202380Y-72452380D01*
X134297619Y-72452380D01*
X134345238Y-72404761D01*
X134369047Y-72357142D01*
X134392857Y-72261904D01*
X134392857Y-72071428D01*
X134369047Y-71976190D01*
X134345238Y-71928571D01*
X134297619Y-71880952D01*
X143116666Y-72357142D02*
X143092857Y-72404761D01*
X143021428Y-72452380D01*
X142973809Y-72452380D01*
X142902380Y-72404761D01*
X142854761Y-72309523D01*
X142830952Y-72214285D01*
X142807142Y-72023809D01*
X142807142Y-71880952D01*
X142830952Y-71690476D01*
X142854761Y-71595238D01*
X142902380Y-71500000D01*
X142973809Y-71452380D01*
X143021428Y-71452380D01*
X143092857Y-71500000D01*
X143116666Y-71547619D01*
X143545238Y-71452380D02*
X143450000Y-71452380D01*
X143402380Y-71500000D01*
X143378571Y-71547619D01*
X143330952Y-71690476D01*
X143307142Y-71880952D01*
X143307142Y-72261904D01*
X143330952Y-72357142D01*
X143354761Y-72404761D01*
X143402380Y-72452380D01*
X143497619Y-72452380D01*
X143545238Y-72404761D01*
X143569047Y-72357142D01*
X143592857Y-72261904D01*
X143592857Y-72023809D01*
X143569047Y-71928571D01*
X143545238Y-71880952D01*
X143497619Y-71833333D01*
X143402380Y-71833333D01*
X143354761Y-71880952D01*
X143330952Y-71928571D01*
X143307142Y-72023809D01*
X122916666Y-72357142D02*
X122892857Y-72404761D01*
X122821428Y-72452380D01*
X122773809Y-72452380D01*
X122702380Y-72404761D01*
X122654761Y-72309523D01*
X122630952Y-72214285D01*
X122607142Y-72023809D01*
X122607142Y-71880952D01*
X122630952Y-71690476D01*
X122654761Y-71595238D01*
X122702380Y-71500000D01*
X122773809Y-71452380D01*
X122821428Y-71452380D01*
X122892857Y-71500000D01*
X122916666Y-71547619D01*
X123369047Y-71452380D02*
X123130952Y-71452380D01*
X123107142Y-71928571D01*
X123130952Y-71880952D01*
X123178571Y-71833333D01*
X123297619Y-71833333D01*
X123345238Y-71880952D01*
X123369047Y-71928571D01*
X123392857Y-72023809D01*
X123392857Y-72261904D01*
X123369047Y-72357142D01*
X123345238Y-72404761D01*
X123297619Y-72452380D01*
X123178571Y-72452380D01*
X123130952Y-72404761D01*
X123107142Y-72357142D01*
X152916666Y-72607142D02*
X152892857Y-72654761D01*
X152821428Y-72702380D01*
X152773809Y-72702380D01*
X152702380Y-72654761D01*
X152654761Y-72559523D01*
X152630952Y-72464285D01*
X152607142Y-72273809D01*
X152607142Y-72130952D01*
X152630952Y-71940476D01*
X152654761Y-71845238D01*
X152702380Y-71750000D01*
X152773809Y-71702380D01*
X152821428Y-71702380D01*
X152892857Y-71750000D01*
X152916666Y-71797619D01*
X153107142Y-71797619D02*
X153130952Y-71750000D01*
X153178571Y-71702380D01*
X153297619Y-71702380D01*
X153345238Y-71750000D01*
X153369047Y-71797619D01*
X153392857Y-71892857D01*
X153392857Y-71988095D01*
X153369047Y-72130952D01*
X153083333Y-72702380D01*
X153392857Y-72702380D01*
X132916666Y-72357142D02*
X132892857Y-72404761D01*
X132821428Y-72452380D01*
X132773809Y-72452380D01*
X132702380Y-72404761D01*
X132654761Y-72309523D01*
X132630952Y-72214285D01*
X132607142Y-72023809D01*
X132607142Y-71880952D01*
X132630952Y-71690476D01*
X132654761Y-71595238D01*
X132702380Y-71500000D01*
X132773809Y-71452380D01*
X132821428Y-71452380D01*
X132892857Y-71500000D01*
X132916666Y-71547619D01*
X133392857Y-72452380D02*
X133107142Y-72452380D01*
X133250000Y-72452380D02*
X133250000Y-71452380D01*
X133202380Y-71595238D01*
X133154761Y-71690476D01*
X133107142Y-71738095D01*
D10*
X124252380Y-96095238D02*
X123776190Y-96428571D01*
X124252380Y-96666666D02*
X123252380Y-96666666D01*
X123252380Y-96285714D01*
X123300000Y-96190476D01*
X123347619Y-96142857D01*
X123442857Y-96095238D01*
X123585714Y-96095238D01*
X123680952Y-96142857D01*
X123728571Y-96190476D01*
X123776190Y-96285714D01*
X123776190Y-96666666D01*
X123252380Y-95809523D02*
X124252380Y-95476190D01*
X123252380Y-95142857D01*
X124252380Y-94285714D02*
X124252380Y-94857142D01*
X124252380Y-94571428D02*
X123252380Y-94571428D01*
X123395238Y-94666666D01*
X123490476Y-94761904D01*
X123538095Y-94857142D01*
X175804380Y-66261904D02*
X175804380Y-65690476D01*
X176804380Y-65976190D02*
X175804380Y-65976190D01*
X176804380Y-65357142D02*
X175804380Y-65357142D01*
X175804380Y-64976190D01*
X175852000Y-64880952D01*
X175899619Y-64833333D01*
X175994857Y-64785714D01*
X176137714Y-64785714D01*
X176232952Y-64833333D01*
X176280571Y-64880952D01*
X176328190Y-64976190D01*
X176328190Y-65357142D01*
X176804380Y-64309523D02*
X176804380Y-64119047D01*
X176756761Y-64023809D01*
X176709142Y-63976190D01*
X176566285Y-63880952D01*
X176375809Y-63833333D01*
X175994857Y-63833333D01*
X175899619Y-63880952D01*
X175852000Y-63928571D01*
X175804380Y-64023809D01*
X175804380Y-64214285D01*
X175852000Y-64309523D01*
X175899619Y-64357142D01*
X175994857Y-64404761D01*
X176232952Y-64404761D01*
X176328190Y-64357142D01*
X176375809Y-64309523D01*
X176423428Y-64214285D01*
X176423428Y-64023809D01*
X176375809Y-63928571D01*
X176328190Y-63880952D01*
X176232952Y-63833333D01*
X105238095Y-61952380D02*
X105238095Y-60952380D01*
X105238095Y-61428571D02*
X105809523Y-61428571D01*
X105809523Y-61952380D02*
X105809523Y-60952380D01*
X106714285Y-61285714D02*
X106714285Y-61952380D01*
X106476190Y-60904761D02*
X106238095Y-61619047D01*
X106857142Y-61619047D01*
X187238095Y-56452380D02*
X187238095Y-55452380D01*
X187238095Y-55928571D02*
X187809523Y-55928571D01*
X187809523Y-56452380D02*
X187809523Y-55452380D01*
X188190476Y-55452380D02*
X188809523Y-55452380D01*
X188476190Y-55833333D01*
X188619047Y-55833333D01*
X188714285Y-55880952D01*
X188761904Y-55928571D01*
X188809523Y-56023809D01*
X188809523Y-56261904D01*
X188761904Y-56357142D01*
X188714285Y-56404761D01*
X188619047Y-56452380D01*
X188333333Y-56452380D01*
X188238095Y-56404761D01*
X188190476Y-56357142D01*
X105238095Y-94152380D02*
X105238095Y-93152380D01*
X105238095Y-93628571D02*
X105809523Y-93628571D01*
X105809523Y-94152380D02*
X105809523Y-93152380D01*
X106238095Y-93247619D02*
X106285714Y-93200000D01*
X106380952Y-93152380D01*
X106619047Y-93152380D01*
X106714285Y-93200000D01*
X106761904Y-93247619D01*
X106809523Y-93342857D01*
X106809523Y-93438095D01*
X106761904Y-93580952D01*
X106190476Y-94152380D01*
X106809523Y-94152380D01*
X187238095Y-99452380D02*
X187238095Y-98452380D01*
X187238095Y-98928571D02*
X187809523Y-98928571D01*
X187809523Y-99452380D02*
X187809523Y-98452380D01*
X188809523Y-99452380D02*
X188238095Y-99452380D01*
X188523809Y-99452380D02*
X188523809Y-98452380D01*
X188428571Y-98595238D01*
X188333333Y-98690476D01*
X188238095Y-98738095D01*
D17*
X117178571Y-67607142D02*
X117154761Y-67654761D01*
X117083333Y-67702380D01*
X117035714Y-67702380D01*
X116964285Y-67654761D01*
X116916666Y-67559523D01*
X116892857Y-67464285D01*
X116869047Y-67273809D01*
X116869047Y-67130952D01*
X116892857Y-66940476D01*
X116916666Y-66845238D01*
X116964285Y-66750000D01*
X117035714Y-66702380D01*
X117083333Y-66702380D01*
X117154761Y-66750000D01*
X117178571Y-66797619D01*
X117630952Y-66702380D02*
X117392857Y-66702380D01*
X117369047Y-67178571D01*
X117392857Y-67130952D01*
X117440476Y-67083333D01*
X117559523Y-67083333D01*
X117607142Y-67130952D01*
X117630952Y-67178571D01*
X117654761Y-67273809D01*
X117654761Y-67511904D01*
X117630952Y-67607142D01*
X117607142Y-67654761D01*
X117559523Y-67702380D01*
X117440476Y-67702380D01*
X117392857Y-67654761D01*
X117369047Y-67607142D01*
X118083333Y-67035714D02*
X118083333Y-67702380D01*
X117964285Y-66654761D02*
X117845238Y-67369047D01*
X118154761Y-67369047D01*
X147678571Y-67607142D02*
X147654761Y-67654761D01*
X147583333Y-67702380D01*
X147535714Y-67702380D01*
X147464285Y-67654761D01*
X147416666Y-67559523D01*
X147392857Y-67464285D01*
X147369047Y-67273809D01*
X147369047Y-67130952D01*
X147392857Y-66940476D01*
X147416666Y-66845238D01*
X147464285Y-66750000D01*
X147535714Y-66702380D01*
X147583333Y-66702380D01*
X147654761Y-66750000D01*
X147678571Y-66797619D01*
X148130952Y-66702380D02*
X147892857Y-66702380D01*
X147869047Y-67178571D01*
X147892857Y-67130952D01*
X147940476Y-67083333D01*
X148059523Y-67083333D01*
X148107142Y-67130952D01*
X148130952Y-67178571D01*
X148154761Y-67273809D01*
X148154761Y-67511904D01*
X148130952Y-67607142D01*
X148107142Y-67654761D01*
X148059523Y-67702380D01*
X147940476Y-67702380D01*
X147892857Y-67654761D01*
X147869047Y-67607142D01*
X148321428Y-66702380D02*
X148630952Y-66702380D01*
X148464285Y-67083333D01*
X148535714Y-67083333D01*
X148583333Y-67130952D01*
X148607142Y-67178571D01*
X148630952Y-67273809D01*
X148630952Y-67511904D01*
X148607142Y-67607142D01*
X148583333Y-67654761D01*
X148535714Y-67702380D01*
X148392857Y-67702380D01*
X148345238Y-67654761D01*
X148321428Y-67607142D01*
X117178571Y-69357142D02*
X117154761Y-69404761D01*
X117083333Y-69452380D01*
X117035714Y-69452380D01*
X116964285Y-69404761D01*
X116916666Y-69309523D01*
X116892857Y-69214285D01*
X116869047Y-69023809D01*
X116869047Y-68880952D01*
X116892857Y-68690476D01*
X116916666Y-68595238D01*
X116964285Y-68500000D01*
X117035714Y-68452380D01*
X117083333Y-68452380D01*
X117154761Y-68500000D01*
X117178571Y-68547619D01*
X117630952Y-68452380D02*
X117392857Y-68452380D01*
X117369047Y-68928571D01*
X117392857Y-68880952D01*
X117440476Y-68833333D01*
X117559523Y-68833333D01*
X117607142Y-68880952D01*
X117630952Y-68928571D01*
X117654761Y-69023809D01*
X117654761Y-69261904D01*
X117630952Y-69357142D01*
X117607142Y-69404761D01*
X117559523Y-69452380D01*
X117440476Y-69452380D01*
X117392857Y-69404761D01*
X117369047Y-69357142D01*
X117845238Y-68547619D02*
X117869047Y-68500000D01*
X117916666Y-68452380D01*
X118035714Y-68452380D01*
X118083333Y-68500000D01*
X118107142Y-68547619D01*
X118130952Y-68642857D01*
X118130952Y-68738095D01*
X118107142Y-68880952D01*
X117821428Y-69452380D01*
X118130952Y-69452380D01*
X147678571Y-69357142D02*
X147654761Y-69404761D01*
X147583333Y-69452380D01*
X147535714Y-69452380D01*
X147464285Y-69404761D01*
X147416666Y-69309523D01*
X147392857Y-69214285D01*
X147369047Y-69023809D01*
X147369047Y-68880952D01*
X147392857Y-68690476D01*
X147416666Y-68595238D01*
X147464285Y-68500000D01*
X147535714Y-68452380D01*
X147583333Y-68452380D01*
X147654761Y-68500000D01*
X147678571Y-68547619D01*
X148130952Y-68452380D02*
X147892857Y-68452380D01*
X147869047Y-68928571D01*
X147892857Y-68880952D01*
X147940476Y-68833333D01*
X148059523Y-68833333D01*
X148107142Y-68880952D01*
X148130952Y-68928571D01*
X148154761Y-69023809D01*
X148154761Y-69261904D01*
X148130952Y-69357142D01*
X148107142Y-69404761D01*
X148059523Y-69452380D01*
X147940476Y-69452380D01*
X147892857Y-69404761D01*
X147869047Y-69357142D01*
X148630952Y-69452380D02*
X148345238Y-69452380D01*
X148488095Y-69452380D02*
X148488095Y-68452380D01*
X148440476Y-68595238D01*
X148392857Y-68690476D01*
X148345238Y-68738095D01*
X117178571Y-71107142D02*
X117154761Y-71154761D01*
X117083333Y-71202380D01*
X117035714Y-71202380D01*
X116964285Y-71154761D01*
X116916666Y-71059523D01*
X116892857Y-70964285D01*
X116869047Y-70773809D01*
X116869047Y-70630952D01*
X116892857Y-70440476D01*
X116916666Y-70345238D01*
X116964285Y-70250000D01*
X117035714Y-70202380D01*
X117083333Y-70202380D01*
X117154761Y-70250000D01*
X117178571Y-70297619D01*
X117630952Y-70202380D02*
X117392857Y-70202380D01*
X117369047Y-70678571D01*
X117392857Y-70630952D01*
X117440476Y-70583333D01*
X117559523Y-70583333D01*
X117607142Y-70630952D01*
X117630952Y-70678571D01*
X117654761Y-70773809D01*
X117654761Y-71011904D01*
X117630952Y-71107142D01*
X117607142Y-71154761D01*
X117559523Y-71202380D01*
X117440476Y-71202380D01*
X117392857Y-71154761D01*
X117369047Y-71107142D01*
X117964285Y-70202380D02*
X118011904Y-70202380D01*
X118059523Y-70250000D01*
X118083333Y-70297619D01*
X118107142Y-70392857D01*
X118130952Y-70583333D01*
X118130952Y-70821428D01*
X118107142Y-71011904D01*
X118083333Y-71107142D01*
X118059523Y-71154761D01*
X118011904Y-71202380D01*
X117964285Y-71202380D01*
X117916666Y-71154761D01*
X117892857Y-71107142D01*
X117869047Y-71011904D01*
X117845238Y-70821428D01*
X117845238Y-70583333D01*
X117869047Y-70392857D01*
X117892857Y-70297619D01*
X117916666Y-70250000D01*
X117964285Y-70202380D01*
X147678571Y-71107142D02*
X147654761Y-71154761D01*
X147583333Y-71202380D01*
X147535714Y-71202380D01*
X147464285Y-71154761D01*
X147416666Y-71059523D01*
X147392857Y-70964285D01*
X147369047Y-70773809D01*
X147369047Y-70630952D01*
X147392857Y-70440476D01*
X147416666Y-70345238D01*
X147464285Y-70250000D01*
X147535714Y-70202380D01*
X147583333Y-70202380D01*
X147654761Y-70250000D01*
X147678571Y-70297619D01*
X148107142Y-70535714D02*
X148107142Y-71202380D01*
X147988095Y-70154761D02*
X147869047Y-70869047D01*
X148178571Y-70869047D01*
X148392857Y-71202380D02*
X148488095Y-71202380D01*
X148535714Y-71154761D01*
X148559523Y-71107142D01*
X148607142Y-70964285D01*
X148630952Y-70773809D01*
X148630952Y-70392857D01*
X148607142Y-70297619D01*
X148583333Y-70250000D01*
X148535714Y-70202380D01*
X148440476Y-70202380D01*
X148392857Y-70250000D01*
X148369047Y-70297619D01*
X148345238Y-70392857D01*
X148345238Y-70630952D01*
X148369047Y-70726190D01*
X148392857Y-70773809D01*
X148440476Y-70821428D01*
X148535714Y-70821428D01*
X148583333Y-70773809D01*
X148607142Y-70726190D01*
X148630952Y-70630952D01*
X137678571Y-67607142D02*
X137654761Y-67654761D01*
X137583333Y-67702380D01*
X137535714Y-67702380D01*
X137464285Y-67654761D01*
X137416666Y-67559523D01*
X137392857Y-67464285D01*
X137369047Y-67273809D01*
X137369047Y-67130952D01*
X137392857Y-66940476D01*
X137416666Y-66845238D01*
X137464285Y-66750000D01*
X137535714Y-66702380D01*
X137583333Y-66702380D01*
X137654761Y-66750000D01*
X137678571Y-66797619D01*
X138107142Y-67035714D02*
X138107142Y-67702380D01*
X137988095Y-66654761D02*
X137869047Y-67369047D01*
X138178571Y-67369047D01*
X138440476Y-67130952D02*
X138392857Y-67083333D01*
X138369047Y-67035714D01*
X138345238Y-66940476D01*
X138345238Y-66892857D01*
X138369047Y-66797619D01*
X138392857Y-66750000D01*
X138440476Y-66702380D01*
X138535714Y-66702380D01*
X138583333Y-66750000D01*
X138607142Y-66797619D01*
X138630952Y-66892857D01*
X138630952Y-66940476D01*
X138607142Y-67035714D01*
X138583333Y-67083333D01*
X138535714Y-67130952D01*
X138440476Y-67130952D01*
X138392857Y-67178571D01*
X138369047Y-67226190D01*
X138345238Y-67321428D01*
X138345238Y-67511904D01*
X138369047Y-67607142D01*
X138392857Y-67654761D01*
X138440476Y-67702380D01*
X138535714Y-67702380D01*
X138583333Y-67654761D01*
X138607142Y-67607142D01*
X138630952Y-67511904D01*
X138630952Y-67321428D01*
X138607142Y-67226190D01*
X138583333Y-67178571D01*
X138535714Y-67130952D01*
X137678571Y-69357142D02*
X137654761Y-69404761D01*
X137583333Y-69452380D01*
X137535714Y-69452380D01*
X137464285Y-69404761D01*
X137416666Y-69309523D01*
X137392857Y-69214285D01*
X137369047Y-69023809D01*
X137369047Y-68880952D01*
X137392857Y-68690476D01*
X137416666Y-68595238D01*
X137464285Y-68500000D01*
X137535714Y-68452380D01*
X137583333Y-68452380D01*
X137654761Y-68500000D01*
X137678571Y-68547619D01*
X138107142Y-68785714D02*
X138107142Y-69452380D01*
X137988095Y-68404761D02*
X137869047Y-69119047D01*
X138178571Y-69119047D01*
X138321428Y-68452380D02*
X138654761Y-68452380D01*
X138440476Y-69452380D01*
X137678571Y-71107142D02*
X137654761Y-71154761D01*
X137583333Y-71202380D01*
X137535714Y-71202380D01*
X137464285Y-71154761D01*
X137416666Y-71059523D01*
X137392857Y-70964285D01*
X137369047Y-70773809D01*
X137369047Y-70630952D01*
X137392857Y-70440476D01*
X137416666Y-70345238D01*
X137464285Y-70250000D01*
X137535714Y-70202380D01*
X137583333Y-70202380D01*
X137654761Y-70250000D01*
X137678571Y-70297619D01*
X138107142Y-70535714D02*
X138107142Y-71202380D01*
X137988095Y-70154761D02*
X137869047Y-70869047D01*
X138178571Y-70869047D01*
X138583333Y-70202380D02*
X138488095Y-70202380D01*
X138440476Y-70250000D01*
X138416666Y-70297619D01*
X138369047Y-70440476D01*
X138345238Y-70630952D01*
X138345238Y-71011904D01*
X138369047Y-71107142D01*
X138392857Y-71154761D01*
X138440476Y-71202380D01*
X138535714Y-71202380D01*
X138583333Y-71154761D01*
X138607142Y-71107142D01*
X138630952Y-71011904D01*
X138630952Y-70773809D01*
X138607142Y-70678571D01*
X138583333Y-70630952D01*
X138535714Y-70583333D01*
X138440476Y-70583333D01*
X138392857Y-70630952D01*
X138369047Y-70678571D01*
X138345238Y-70773809D01*
X127678571Y-67607142D02*
X127654761Y-67654761D01*
X127583333Y-67702380D01*
X127535714Y-67702380D01*
X127464285Y-67654761D01*
X127416666Y-67559523D01*
X127392857Y-67464285D01*
X127369047Y-67273809D01*
X127369047Y-67130952D01*
X127392857Y-66940476D01*
X127416666Y-66845238D01*
X127464285Y-66750000D01*
X127535714Y-66702380D01*
X127583333Y-66702380D01*
X127654761Y-66750000D01*
X127678571Y-66797619D01*
X128107142Y-67035714D02*
X128107142Y-67702380D01*
X127988095Y-66654761D02*
X127869047Y-67369047D01*
X128178571Y-67369047D01*
X128607142Y-66702380D02*
X128369047Y-66702380D01*
X128345238Y-67178571D01*
X128369047Y-67130952D01*
X128416666Y-67083333D01*
X128535714Y-67083333D01*
X128583333Y-67130952D01*
X128607142Y-67178571D01*
X128630952Y-67273809D01*
X128630952Y-67511904D01*
X128607142Y-67607142D01*
X128583333Y-67654761D01*
X128535714Y-67702380D01*
X128416666Y-67702380D01*
X128369047Y-67654761D01*
X128345238Y-67607142D01*
X127553571Y-69357142D02*
X127529761Y-69404761D01*
X127458333Y-69452380D01*
X127410714Y-69452380D01*
X127339285Y-69404761D01*
X127291666Y-69309523D01*
X127267857Y-69214285D01*
X127244047Y-69023809D01*
X127244047Y-68880952D01*
X127267857Y-68690476D01*
X127291666Y-68595238D01*
X127339285Y-68500000D01*
X127410714Y-68452380D01*
X127458333Y-68452380D01*
X127529761Y-68500000D01*
X127553571Y-68547619D01*
X127982142Y-68785714D02*
X127982142Y-69452380D01*
X127863095Y-68404761D02*
X127744047Y-69119047D01*
X128053571Y-69119047D01*
X128458333Y-68785714D02*
X128458333Y-69452380D01*
X128339285Y-68404761D02*
X128220238Y-69119047D01*
X128529761Y-69119047D01*
X127678571Y-71107142D02*
X127654761Y-71154761D01*
X127583333Y-71202380D01*
X127535714Y-71202380D01*
X127464285Y-71154761D01*
X127416666Y-71059523D01*
X127392857Y-70964285D01*
X127369047Y-70773809D01*
X127369047Y-70630952D01*
X127392857Y-70440476D01*
X127416666Y-70345238D01*
X127464285Y-70250000D01*
X127535714Y-70202380D01*
X127583333Y-70202380D01*
X127654761Y-70250000D01*
X127678571Y-70297619D01*
X128107142Y-70535714D02*
X128107142Y-71202380D01*
X127988095Y-70154761D02*
X127869047Y-70869047D01*
X128178571Y-70869047D01*
X128321428Y-70202380D02*
X128630952Y-70202380D01*
X128464285Y-70583333D01*
X128535714Y-70583333D01*
X128583333Y-70630952D01*
X128607142Y-70678571D01*
X128630952Y-70773809D01*
X128630952Y-71011904D01*
X128607142Y-71107142D01*
X128583333Y-71154761D01*
X128535714Y-71202380D01*
X128392857Y-71202380D01*
X128345238Y-71154761D01*
X128321428Y-71107142D01*
D10*
X116782142Y-92352380D02*
X116448809Y-91876190D01*
X116210714Y-92352380D02*
X116210714Y-91352380D01*
X116591666Y-91352380D01*
X116686904Y-91400000D01*
X116734523Y-91447619D01*
X116782142Y-91542857D01*
X116782142Y-91685714D01*
X116734523Y-91780952D01*
X116686904Y-91828571D01*
X116591666Y-91876190D01*
X116210714Y-91876190D01*
X117734523Y-92352380D02*
X117163095Y-92352380D01*
X117448809Y-92352380D02*
X117448809Y-91352380D01*
X117353571Y-91495238D01*
X117258333Y-91590476D01*
X117163095Y-91638095D01*
X118591666Y-91352380D02*
X118401190Y-91352380D01*
X118305952Y-91400000D01*
X118258333Y-91447619D01*
X118163095Y-91590476D01*
X118115476Y-91780952D01*
X118115476Y-92161904D01*
X118163095Y-92257142D01*
X118210714Y-92304761D01*
X118305952Y-92352380D01*
X118496428Y-92352380D01*
X118591666Y-92304761D01*
X118639285Y-92257142D01*
X118686904Y-92161904D01*
X118686904Y-91923809D01*
X118639285Y-91828571D01*
X118591666Y-91780952D01*
X118496428Y-91733333D01*
X118305952Y-91733333D01*
X118210714Y-91780952D01*
X118163095Y-91828571D01*
X118115476Y-91923809D01*
X135690476Y-45912380D02*
X135690476Y-46626666D01*
X135642857Y-46769523D01*
X135547619Y-46864761D01*
X135404761Y-46912380D01*
X135309523Y-46912380D01*
X136690476Y-46912380D02*
X136119047Y-46912380D01*
X136404761Y-46912380D02*
X136404761Y-45912380D01*
X136309523Y-46055238D01*
X136214285Y-46150476D01*
X136119047Y-46198095D01*
X137023809Y-45912380D02*
X137642857Y-45912380D01*
X137309523Y-46293333D01*
X137452380Y-46293333D01*
X137547619Y-46340952D01*
X137595238Y-46388571D01*
X137642857Y-46483809D01*
X137642857Y-46721904D01*
X137595238Y-46817142D01*
X137547619Y-46864761D01*
X137452380Y-46912380D01*
X137166666Y-46912380D01*
X137071428Y-46864761D01*
X137023809Y-46817142D01*
X128902380Y-64738095D02*
X127902380Y-64738095D01*
X127902380Y-64500000D01*
X127950000Y-64357142D01*
X128045238Y-64261904D01*
X128140476Y-64214285D01*
X128330952Y-64166666D01*
X128473809Y-64166666D01*
X128664285Y-64214285D01*
X128759523Y-64261904D01*
X128854761Y-64357142D01*
X128902380Y-64500000D01*
X128902380Y-64738095D01*
X127902380Y-63833333D02*
X127902380Y-63166666D01*
X128902380Y-63595238D01*
X138902380Y-64738095D02*
X137902380Y-64738095D01*
X137902380Y-64500000D01*
X137950000Y-64357142D01*
X138045238Y-64261904D01*
X138140476Y-64214285D01*
X138330952Y-64166666D01*
X138473809Y-64166666D01*
X138664285Y-64214285D01*
X138759523Y-64261904D01*
X138854761Y-64357142D01*
X138902380Y-64500000D01*
X138902380Y-64738095D01*
X137902380Y-63309523D02*
X137902380Y-63500000D01*
X137950000Y-63595238D01*
X137997619Y-63642857D01*
X138140476Y-63738095D01*
X138330952Y-63785714D01*
X138711904Y-63785714D01*
X138807142Y-63738095D01*
X138854761Y-63690476D01*
X138902380Y-63595238D01*
X138902380Y-63404761D01*
X138854761Y-63309523D01*
X138807142Y-63261904D01*
X138711904Y-63214285D01*
X138473809Y-63214285D01*
X138378571Y-63261904D01*
X138330952Y-63309523D01*
X138283333Y-63404761D01*
X138283333Y-63595238D01*
X138330952Y-63690476D01*
X138378571Y-63738095D01*
X138473809Y-63785714D01*
X148902380Y-64738095D02*
X147902380Y-64738095D01*
X147902380Y-64500000D01*
X147950000Y-64357142D01*
X148045238Y-64261904D01*
X148140476Y-64214285D01*
X148330952Y-64166666D01*
X148473809Y-64166666D01*
X148664285Y-64214285D01*
X148759523Y-64261904D01*
X148854761Y-64357142D01*
X148902380Y-64500000D01*
X148902380Y-64738095D01*
X147902380Y-63261904D02*
X147902380Y-63738095D01*
X148378571Y-63785714D01*
X148330952Y-63738095D01*
X148283333Y-63642857D01*
X148283333Y-63404761D01*
X148330952Y-63309523D01*
X148378571Y-63261904D01*
X148473809Y-63214285D01*
X148711904Y-63214285D01*
X148807142Y-63261904D01*
X148854761Y-63309523D01*
X148902380Y-63404761D01*
X148902380Y-63642857D01*
X148854761Y-63738095D01*
X148807142Y-63785714D01*
X158902380Y-64738095D02*
X157902380Y-64738095D01*
X157902380Y-64500000D01*
X157950000Y-64357142D01*
X158045238Y-64261904D01*
X158140476Y-64214285D01*
X158330952Y-64166666D01*
X158473809Y-64166666D01*
X158664285Y-64214285D01*
X158759523Y-64261904D01*
X158854761Y-64357142D01*
X158902380Y-64500000D01*
X158902380Y-64738095D01*
X158235714Y-63309523D02*
X158902380Y-63309523D01*
X157854761Y-63547619D02*
X158569047Y-63785714D01*
X158569047Y-63166666D01*
D17*
X125278571Y-73957142D02*
X125254761Y-74004761D01*
X125183333Y-74052380D01*
X125135714Y-74052380D01*
X125064285Y-74004761D01*
X125016666Y-73909523D01*
X124992857Y-73814285D01*
X124969047Y-73623809D01*
X124969047Y-73480952D01*
X124992857Y-73290476D01*
X125016666Y-73195238D01*
X125064285Y-73100000D01*
X125135714Y-73052380D01*
X125183333Y-73052380D01*
X125254761Y-73100000D01*
X125278571Y-73147619D01*
X125707142Y-73385714D02*
X125707142Y-74052380D01*
X125588095Y-73004761D02*
X125469047Y-73719047D01*
X125778571Y-73719047D01*
X125945238Y-73147619D02*
X125969047Y-73100000D01*
X126016666Y-73052380D01*
X126135714Y-73052380D01*
X126183333Y-73100000D01*
X126207142Y-73147619D01*
X126230952Y-73242857D01*
X126230952Y-73338095D01*
X126207142Y-73480952D01*
X125921428Y-74052380D01*
X126230952Y-74052380D01*
D10*
X121657142Y-81382142D02*
X121609523Y-81429761D01*
X121466666Y-81477380D01*
X121371428Y-81477380D01*
X121228571Y-81429761D01*
X121133333Y-81334523D01*
X121085714Y-81239285D01*
X121038095Y-81048809D01*
X121038095Y-80905952D01*
X121085714Y-80715476D01*
X121133333Y-80620238D01*
X121228571Y-80525000D01*
X121371428Y-80477380D01*
X121466666Y-80477380D01*
X121609523Y-80525000D01*
X121657142Y-80572619D01*
X122514285Y-80810714D02*
X122514285Y-81477380D01*
X122276190Y-80429761D02*
X122038095Y-81144047D01*
X122657142Y-81144047D01*
X123561904Y-81477380D02*
X122990476Y-81477380D01*
X123276190Y-81477380D02*
X123276190Y-80477380D01*
X123180952Y-80620238D01*
X123085714Y-80715476D01*
X122990476Y-80763095D01*
X139857142Y-52192857D02*
X139904761Y-52240476D01*
X139952380Y-52383333D01*
X139952380Y-52478571D01*
X139904761Y-52621428D01*
X139809523Y-52716666D01*
X139714285Y-52764285D01*
X139523809Y-52811904D01*
X139380952Y-52811904D01*
X139190476Y-52764285D01*
X139095238Y-52716666D01*
X139000000Y-52621428D01*
X138952380Y-52478571D01*
X138952380Y-52383333D01*
X139000000Y-52240476D01*
X139047619Y-52192857D01*
X139285714Y-51335714D02*
X139952380Y-51335714D01*
X138904761Y-51573809D02*
X139619047Y-51811904D01*
X139619047Y-51192857D01*
X138952380Y-50621428D02*
X138952380Y-50526190D01*
X139000000Y-50430952D01*
X139047619Y-50383333D01*
X139142857Y-50335714D01*
X139333333Y-50288095D01*
X139571428Y-50288095D01*
X139761904Y-50335714D01*
X139857142Y-50383333D01*
X139904761Y-50430952D01*
X139952380Y-50526190D01*
X139952380Y-50621428D01*
X139904761Y-50716666D01*
X139857142Y-50764285D01*
X139761904Y-50811904D01*
X139571428Y-50859523D01*
X139333333Y-50859523D01*
X139142857Y-50811904D01*
X139047619Y-50764285D01*
X139000000Y-50716666D01*
X138952380Y-50621428D01*
X172332380Y-87413333D02*
X173046666Y-87413333D01*
X173189523Y-87460952D01*
X173284761Y-87556190D01*
X173332380Y-87699047D01*
X173332380Y-87794285D01*
X173332380Y-86413333D02*
X173332380Y-86984761D01*
X173332380Y-86699047D02*
X172332380Y-86699047D01*
X172475238Y-86794285D01*
X172570476Y-86889523D01*
X172618095Y-86984761D01*
X184452380Y-73738095D02*
X183452380Y-73738095D01*
X183452380Y-73500000D01*
X183500000Y-73357142D01*
X183595238Y-73261904D01*
X183690476Y-73214285D01*
X183880952Y-73166666D01*
X184023809Y-73166666D01*
X184214285Y-73214285D01*
X184309523Y-73261904D01*
X184404761Y-73357142D01*
X184452380Y-73500000D01*
X184452380Y-73738095D01*
X184452380Y-72214285D02*
X184452380Y-72785714D01*
X184452380Y-72500000D02*
X183452380Y-72500000D01*
X183595238Y-72595238D01*
X183690476Y-72690476D01*
X183738095Y-72785714D01*
X179802380Y-79671904D02*
X178802380Y-79671904D01*
X179802380Y-79100476D02*
X179230952Y-79529047D01*
X178802380Y-79100476D02*
X179373809Y-79671904D01*
M02*
