M48
; DRILL file {KiCad 5.1.6-c6e7f7d~87~ubuntu18.04.1} date Wed Jan  6 14:44:29 2021
; FORMAT={-:-/ absolute / inch / decimal}
; #@! TF.CreationDate,2021-01-06T14:44:29+00:00
; #@! TF.GenerationSoftware,Kicad,Pcbnew,5.1.6-c6e7f7d~87~ubuntu18.04.1
; #@! TF.FileFunction,Plated,1,4,PTH
FMAT,2
INCH
T1C0.0157
T2C0.0236
T3C0.0315
T4C0.0354
T5C0.0394
T6C0.0400
T7C0.0433
T8C0.0512
T9C0.1693
%
G90
G05
T1
X4.252Y-2.6181
X4.252Y-2.7165
X4.252Y-2.8346
X4.252Y-2.9528
X4.252Y-3.0906
X4.252Y-3.2087
X4.252Y-3.3169
X4.252Y-3.4252
X4.252Y-3.5335
X4.2815Y-3.6319
X4.311Y-2.5394
X4.3209Y-3.7205
X4.3602Y-3.8189
X4.3701Y-2.4409
X4.4094Y-3.0709
X4.4094Y-3.1496
X4.4094Y-3.2283
X4.4094Y-3.3071
X4.4094Y-3.3858
X4.4094Y-3.4646
X4.4094Y-3.5433
X4.4094Y-3.622
X4.4094Y-3.7008
X4.4094Y-3.7795
X4.4094Y-3.8583
X4.4094Y-3.937
X4.4193Y-2.3622
X4.4193Y-3.002
X4.4291Y-4.0059
X4.4488Y-2.1654
X4.4488Y-2.2638
X4.4685Y-4.0748
X4.4882Y-2.0866
X4.4882Y-2.5984
X4.4882Y-2.6772
X4.4882Y-2.7559
X4.4882Y-2.8346
X4.4882Y-2.9134
X4.4882Y-2.9921
X4.5472Y-2.5394
X4.5472Y-4.0748
X4.6063Y-2.0768
X4.626Y-2.5197
X4.626Y-4.0748
X4.6285Y-3.1415
X4.6654Y-2.8248
X4.678Y-3.1415
X4.7047Y-2.6083
X4.7047Y-4.0748
X4.7146Y-2.4902
X4.7244Y-2.0768
X4.7835Y-2.4213
X4.7835Y-4.0748
X4.7933Y-2.0276
X4.8031Y-2.9921
X4.8031Y-3.0906
X4.811Y-3.4606
X4.8228Y-3.2087
X4.8228Y-3.3858
X4.8425Y-2.3524
X4.8425Y-2.7953
X4.8622Y-4.0748
X4.8819Y-2.7953
X4.8917Y-2.0276
X4.8917Y-2.2835
X4.9016Y-2.9921
X4.9016Y-3.0906
X4.9055Y-2.8976
X4.9311Y-2.0945
X4.9331Y-2.2047
X4.9409Y-4.0748
X5.0Y-2.0276
X5.0197Y-4.0748
X5.0225Y-3.1415
X5.0295Y-2.4705
X5.0591Y-2.8248
X5.0725Y-3.1415
X5.0787Y-2.0276
X5.0984Y-2.6083
X5.1083Y-4.0748
X5.1772Y-1.7323
X5.1772Y-1.811
X5.1772Y-1.8898
X5.1772Y-1.9685
X5.187Y-4.0748
X5.1969Y-2.9921
X5.1969Y-3.0906
X5.2047Y-3.4606
X5.2165Y-3.2087
X5.2165Y-3.3858
X5.2362Y-1.6535
X5.2362Y-2.7953
X5.2657Y-4.0748
X5.2756Y-2.7953
X5.2953Y-2.9921
X5.2953Y-3.0906
X5.2992Y-2.8976
X5.3248Y-1.8012
X5.3445Y-4.0748
X5.4155Y-3.142
X5.4232Y-2.4705
X5.4232Y-4.0748
X5.4626Y-2.8248
X5.4665Y-3.142
X5.4921Y-2.6083
X5.502Y-4.0748
X5.5807Y-4.0748
X5.5906Y-2.9921
X5.5906Y-3.0906
X5.5984Y-3.4606
X5.6102Y-3.2087
X5.6102Y-3.3858
X5.6378Y-2.7953
X5.6594Y-1.8012
X5.6594Y-4.0748
X5.6772Y-2.7953
X5.689Y-2.9921
X5.689Y-3.0906
X5.7008Y-2.8976
X5.7283Y-1.6437
X5.7382Y-4.0748
X5.8071Y-1.6437
X5.8095Y-3.1415
X5.8169Y-2.4705
X5.8169Y-4.0748
X5.8563Y-2.8248
X5.8595Y-3.1415
X5.8858Y-1.6437
X5.8858Y-2.6083
X5.8957Y-4.0748
X5.9646Y-1.6437
X5.9744Y-4.0748
X5.9843Y-2.9921
X5.9843Y-3.0906
X5.9921Y-3.4606
X6.0039Y-3.2087
X6.0039Y-3.3858
X6.0236Y-2.7953
X6.0433Y-1.6437
X6.0512Y-4.0551
X6.063Y-2.7953
X6.0827Y-2.9921
X6.0827Y-3.0906
X6.0866Y-2.8976
X6.0945Y-3.9961
X6.1024Y-3.2972
X6.1024Y-3.376
X6.1024Y-3.4547
X6.1024Y-3.5335
X6.1024Y-3.6122
X6.1024Y-3.6909
X6.1024Y-3.7697
X6.1024Y-3.8484
X6.1024Y-3.9272
X6.122Y-1.6437
X6.1713Y-3.248
X6.1811Y-2.9921
X6.1811Y-3.0906
X6.2008Y-1.6437
X6.2106Y-2.4705
X6.2402Y-3.2185
X6.2598Y-2.6969
X6.2598Y-2.7756
X6.2598Y-2.8543
X6.2598Y-2.9331
X6.2598Y-3.0118
X6.2598Y-3.0906
X6.2598Y-3.1594
X6.2697Y-1.8012
X6.3386Y-2.6969
X6.3386Y-3.0118
X6.3484Y-2.7756
X6.3484Y-2.9134
X6.3878Y-2.7756
X6.3878Y-2.9134
X6.4173Y-2.6969
X6.4173Y-3.0118
X6.4764Y-2.6575
X6.4764Y-2.9921
X6.4961Y-2.7362
X6.4961Y-2.815
X6.5354Y-2.5984
X6.5945Y-2.5394
X6.6043Y-1.8012
X6.6535Y-2.4803
X6.7126Y-1.6535
X6.7126Y-2.4213
X6.7717Y-2.3622
X6.7913Y-1.6732
X6.8307Y-1.7323
X6.8307Y-1.811
X6.8307Y-1.8898
X6.8307Y-1.9882
X6.8307Y-2.3031
X6.8898Y-2.0276
X6.8898Y-2.2441
X6.9291Y-2.1063
X6.9291Y-2.185
X7.2146Y-2.5591
X7.2539Y-3.002
X7.2835Y-2.9823
X7.3228Y-2.9823
X7.3524Y-3.002
T2
X7.5108Y-2.2047
X7.548Y-2.1149
X7.548Y-2.2945
X7.6378Y-2.0778
X7.6378Y-2.3317
X7.7276Y-2.1149
X7.7276Y-2.2945
X7.7648Y-2.2047
X7.5108Y-3.8976
X7.548Y-3.8079
X7.548Y-3.9874
X7.6378Y-3.7707
X7.6378Y-4.0246
X7.7276Y-3.8079
X7.7276Y-3.9874
X7.7648Y-3.8976
X4.0463Y-2.2047
X4.0834Y-2.1149
X4.0834Y-2.2945
X4.1732Y-2.0778
X4.1732Y-2.3317
X4.263Y-2.1149
X4.263Y-2.2945
X4.3002Y-2.2047
X4.0463Y-3.8976
X4.0834Y-3.8079
X4.0834Y-3.9874
X4.1732Y-3.7707
X4.1732Y-4.0246
X4.263Y-3.8079
X4.263Y-3.9874
X4.3002Y-3.8976
T3
X6.9587Y-2.7264
X6.9587Y-3.1264
T4
X7.1358Y-2.7264
X7.1358Y-3.1264
T5
X6.6866Y-3.837
X6.6866Y-3.937
X6.7866Y-3.837
X6.7866Y-3.937
X6.8866Y-3.837
X6.8866Y-3.937
X6.9866Y-3.837
X6.9866Y-3.937
X7.0866Y-3.837
X7.0866Y-3.937
T6
X5.9335Y-3.0413
X6.0335Y-2.6476
X6.0335Y-3.0413
X6.1335Y-2.6476
X6.1335Y-3.0413
X5.1461Y-3.0413
X5.2461Y-2.6476
X5.2461Y-3.0413
X5.3461Y-2.6476
X5.3461Y-3.0413
X4.7524Y-3.0413
X4.8524Y-2.6476
X4.8524Y-3.0413
X4.9524Y-2.6476
X4.9524Y-3.0413
X5.5398Y-3.0413
X5.6398Y-2.6476
X5.6398Y-3.0413
X5.7398Y-2.6476
X5.7398Y-3.0413
T7
X6.9783Y-3.3783
X6.9783Y-3.4783
T8
X5.4035Y-3.9567
X5.6035Y-3.9567
X5.0098Y-3.9567
X5.2098Y-3.9567
X5.7972Y-3.9567
X5.9972Y-3.9567
X4.626Y-3.9567
X4.826Y-3.9567
T9
X7.6378Y-2.2047
X7.6378Y-3.8976
X4.1732Y-2.2047
X4.1732Y-3.8976
T0
M30
